solid 黑熊2015-3列印d
facet normal 7.37383351202135e-015 0.989967592476033 0.141294606575079
   outer loop
      vertex -73.6282151786549 -76.0069473968029 21.1695966381502
      vertex -67.7882151786552 -75.8820018383878 20.2941771394655
      vertex -73.628215178655 -75.8820018383878 20.2941771394655
   endloop
endfacet
facet normal 7.37383351202135e-015 0.989967592476033 0.141294606575079
   outer loop
      vertex -67.7882151786552 -75.8820018383878 20.2941771394655
      vertex -73.6282151786549 -76.0069473968029 21.1695966381502
      vertex -67.7882151786552 -76.006947396803 21.1695966381502
   endloop
endfacet
facet normal 7.72593556862433e-015 -1.63626177756027e-028 1.0
   outer loop
      vertex -67.7882151786553 -82.3684947474054 24.3827629665191
      vertex -73.6282151786553 -79.9684947474054 24.3827629665192
      vertex -73.6282151786553 -82.3684947474054 24.3827629665192
   endloop
endfacet
facet normal 7.72593556862433e-015 -1.63626177756027e-028 1.0
   outer loop
      vertex -73.6282151786553 -79.9684947474054 24.3827629665192
      vertex -67.7882151786553 -82.3684947474054 24.3827629665191
      vertex -67.7882151786552 -79.9684947474054 24.3827629665191
   endloop
endfacet
facet normal -3.41582880280017e-015 0.919512995982907 -0.393059601356511
   outer loop
      vertex -73.6282151786552 -82.2867167304992 20.896086710756
      vertex -67.7882151786553 -82.046955716488 21.4569771394656
      vertex -67.7882151786552 -82.2867167304992 20.896086710756
   endloop
endfacet
facet normal -3.41582880280017e-015 0.919512995982907 -0.393059601356511
   outer loop
      vertex -67.7882151786553 -82.046955716488 21.4569771394656
      vertex -73.6282151786552 -82.2867167304992 20.896086710756
      vertex -73.6282151786552 -82.046955716488 21.4569771394656
   endloop
endfacet
facet normal 6.95376002933153e-015 0.279698290629145 0.960087947127311
   outer loop
      vertex -73.6282151786552 -79.061680316381 24.2296740364837
      vertex -67.7882151786552 -78.8990375234974 24.1822920114423
      vertex -73.6282151786552 -78.8990375234974 24.1822920114423
   endloop
endfacet
facet normal 6.95376002933153e-015 0.279698290629145 0.960087947127311
   outer loop
      vertex -67.7882151786552 -78.8990375234974 24.1822920114423
      vertex -73.6282151786552 -79.061680316381 24.2296740364837
      vertex -67.7882151786552 -79.061680316381 24.2296740364836
   endloop
endfacet
facet normal -3.89668184798312e-015 0.783966289233938 -0.620803396692359
   outer loop
      vertex -73.6282151786552 -82.046955716488 21.4569771394656
      vertex -67.7882151786552 -81.6655510222531 21.938624669793
      vertex -67.7882151786553 -82.046955716488 21.4569771394656
   endloop
endfacet
facet normal -3.89668184798312e-015 0.783966289233938 -0.620803396692359
   outer loop
      vertex -67.7882151786552 -81.6655510222531 21.938624669793
      vertex -73.6282151786552 -82.046955716488 21.4569771394656
      vertex -73.6282151786552 -81.6655510222531 21.938624669793
   endloop
endfacet
facet normal 9.9988609882442e-015 0.166465076809577 0.986047350892837
   outer loop
      vertex -67.7882151786552 -79.9684947474054 24.3827629665191
      vertex -73.6282151786552 -79.061680316381 24.2296740364837
      vertex -73.6282151786553 -79.9684947474054 24.3827629665192
   endloop
endfacet
facet normal 9.9988609882442e-015 0.166465076809577 0.986047350892837
   outer loop
      vertex -73.6282151786552 -79.061680316381 24.2296740364837
      vertex -67.7882151786552 -79.9684947474054 24.3827629665191
      vertex -67.7882151786552 -79.061680316381 24.2296740364836
   endloop
endfacet
facet normal -5.10254278881628e-014 0.628406116132903 0.777885437070756
   outer loop
      vertex -67.7882151786553 -77.416877992187 23.3416623548899
      vertex -73.6282151786549 -77.0718024255521 23.0628968885788
      vertex -73.628215178655 -77.4168779921872 23.3416623548893
   endloop
endfacet
facet normal -5.10254278881628e-014 0.628406116132903 0.777885437070756
   outer loop
      vertex -73.6282151786549 -77.0718024255521 23.0628968885788
      vertex -67.7882151786553 -77.416877992187 23.3416623548899
      vertex -67.7882151786552 -77.0718024255522 23.0628968885788
   endloop
endfacet
facet normal -2.6021358836069e-016 0.990896289923636 -0.134627421484528
   outer loop
      vertex -73.6282151786552 -82.2867167304992 20.896086710756
      vertex -67.7882151786555 -82.3684947474054 20.2941771394655
      vertex -73.6282151786554 -82.3684947474054 20.2941771394655
   endloop
endfacet
facet normal -2.6021358836069e-016 0.990896289923636 -0.134627421484528
   outer loop
      vertex -67.7882151786555 -82.3684947474054 20.2941771394655
      vertex -73.6282151786552 -82.2867167304992 20.896086710756
      vertex -67.7882151786552 -82.2867167304992 20.896086710756
   endloop
endfacet
facet normal 5.26090302127976e-015 0.922228700431673 0.38664482939787
   outer loop
      vertex -73.628215178655 -76.4262411452513 22.2127185039012
      vertex -67.7882151786552 -76.0162563826155 21.2348191862476
      vertex -73.628215178655 -76.0162563826155 21.2348191862476
   endloop
endfacet
facet normal 5.26090302127976e-015 0.922228700431673 0.38664482939787
   outer loop
      vertex -67.7882151786552 -76.0162563826155 21.2348191862476
      vertex -73.628215178655 -76.4262411452513 22.2127185039012
      vertex -67.7882151786552 -76.4262411452514 22.2127185039013
   endloop
endfacet
facet normal 7.03430409397466e-015 0.989967592476061 0.141294606574882
   outer loop
      vertex -73.628215178655 -76.0162563826155 21.2348191862476
      vertex -67.7882151786552 -76.006947396803 21.1695966381502
      vertex -73.6282151786549 -76.0069473968029 21.1695966381502
   endloop
endfacet
facet normal 7.03430409397466e-015 0.989967592476061 0.141294606574882
   outer loop
      vertex -67.7882151786552 -76.006947396803 21.1695966381502
      vertex -73.628215178655 -76.0162563826155 21.2348191862476
      vertex -67.7882151786552 -76.0162563826155 21.2348191862476
   endloop
endfacet
facet normal 3.52260598158646e-015 0.796421289645341 0.604742200776209
   outer loop
      vertex -73.6282151786549 -77.0718024255521 23.0628968885788
      vertex -67.7882151786552 -76.4262411452514 22.2127185039013
      vertex -73.628215178655 -76.4262411452513 22.2127185039012
   endloop
endfacet
facet normal 3.52260598158646e-015 0.796421289645341 0.604742200776209
   outer loop
      vertex -67.7882151786552 -76.4262411452514 22.2127185039013
      vertex -73.6282151786549 -77.0718024255521 23.0628968885788
      vertex -67.7882151786552 -77.0718024255522 23.0628968885788
   endloop
endfacet
facet normal -5.81394529142649e-015 0.596676983992813 -0.802481511795281
   outer loop
      vertex -73.6282151786551 -81.1684947474054 22.3082058185068
      vertex -67.7882151786552 -81.6655510222531 21.938624669793
      vertex -73.6282151786552 -81.6655510222531 21.938624669793
   endloop
endfacet
facet normal -5.81394529142649e-015 0.596676983992813 -0.802481511795281
   outer loop
      vertex -67.7882151786552 -81.6655510222531 21.938624669793
      vertex -73.6282151786551 -81.1684947474054 22.3082058185068
      vertex -67.7882151786551 -81.1684947474054 22.3082058185067
   endloop
endfacet
facet normal -8.06731385937086e-015 0.372488813438837 -0.928036682390802
   outer loop
      vertex -67.7882151786553 -80.5896604556514 22.5405342410834
      vertex -73.6282151786551 -81.1684947474054 22.3082058185068
      vertex -73.6282151786553 -80.5896604556514 22.5405342410834
   endloop
endfacet
facet normal -8.06731385937086e-015 0.372488813438837 -0.928036682390802
   outer loop
      vertex -73.6282151786551 -81.1684947474054 22.3082058185068
      vertex -67.7882151786553 -80.5896604556514 22.5405342410834
      vertex -67.7882151786551 -81.1684947474054 22.3082058185067
   endloop
endfacet
facet normal -7.6634150734966e-015 0.126545696503826 -0.991960778809506
   outer loop
      vertex -73.6282151786551 -79.9684947474054 22.6197771394656
      vertex -67.7882151786553 -80.5896604556514 22.5405342410834
      vertex -73.6282151786553 -80.5896604556514 22.5405342410834
   endloop
endfacet
facet normal -7.6634150734966e-015 0.126545696503826 -0.991960778809506
   outer loop
      vertex -67.7882151786553 -80.5896604556514 22.5405342410834
      vertex -73.6282151786551 -79.9684947474054 22.6197771394656
      vertex -67.7882151786552 -79.9684947474054 22.6197771394656
   endloop
endfacet
facet normal -7.6634150734966e-015 -0.126545696503826 -0.991960778809506
   outer loop
      vertex -67.7882151786553 -79.3473290391594 22.5405342410834
      vertex -73.6282151786551 -79.9684947474054 22.6197771394656
      vertex -73.6282151786553 -79.3473290391594 22.5405342410834
   endloop
endfacet
facet normal -7.6634150734966e-015 -0.126545696503826 -0.991960778809506
   outer loop
      vertex -73.6282151786551 -79.9684947474054 22.6197771394656
      vertex -67.7882151786553 -79.3473290391594 22.5405342410834
      vertex -67.7882151786552 -79.9684947474054 22.6197771394656
   endloop
endfacet
facet normal -8.06425805717898e-015 -0.372488813438825 -0.928036682390807
   outer loop
      vertex -73.6282151786551 -78.7684947474054 22.3082058185068
      vertex -67.7882151786553 -79.3473290391594 22.5405342410834
      vertex -73.6282151786553 -79.3473290391594 22.5405342410834
   endloop
endfacet
facet normal -8.06425805717898e-015 -0.372488813438825 -0.928036682390807
   outer loop
      vertex -67.7882151786553 -79.3473290391594 22.5405342410834
      vertex -73.6282151786551 -78.7684947474054 22.3082058185068
      vertex -67.7882151786551 -78.7684947474054 22.3082058185067
   endloop
endfacet
facet normal -5.81069614514009e-015 -0.596676983992831 -0.802481511795268
   outer loop
      vertex -67.7882151786552 -78.2714384725577 21.938624669793
      vertex -73.6282151786551 -78.7684947474054 22.3082058185068
      vertex -73.6282151786552 -78.2714384725577 21.938624669793
   endloop
endfacet
facet normal -5.81069614514009e-015 -0.596676983992831 -0.802481511795268
   outer loop
      vertex -73.6282151786551 -78.7684947474054 22.3082058185068
      vertex -67.7882151786552 -78.2714384725577 21.938624669793
      vertex -67.7882151786551 -78.7684947474054 22.3082058185067
   endloop
endfacet
facet normal 1.0 -1.60489469694915e-014 -1.28671539474324e-014
   outer loop
      vertex -67.7882151786552 -82.2867167304992 20.896086710756
      vertex -67.7882151786553 -82.3684947474054 24.3827629665191
      vertex -67.7882151786555 -82.3684947474054 20.2941771394655
   endloop
endfacet
facet normal 1.0 -1.60489469694915e-014 -1.28671539474324e-014
   outer loop
      vertex -67.7882151786553 -82.3684947474054 24.3827629665191
      vertex -67.7882151786552 -82.2867167304992 20.896086710756
      vertex -67.7882151786553 -82.046955716488 21.4569771394656
   endloop
endfacet
facet normal 1.0 -1.60489469694915e-014 -1.28671539474324e-014
   outer loop
      vertex -67.7882151786553 -82.3684947474054 24.3827629665191
      vertex -67.7882151786553 -82.046955716488 21.4569771394656
      vertex -67.7882151786552 -79.9684947474054 24.3827629665191
   endloop
endfacet
facet normal 1.0 -1.60489469694915e-014 -1.28671539474324e-014
   outer loop
      vertex -67.7882151786552 -79.9684947474054 24.3827629665191
      vertex -67.7882151786553 -82.046955716488 21.4569771394656
      vertex -67.7882151786552 -81.6655510222531 21.938624669793
   endloop
endfacet
facet normal 1.0 -1.60489469694915e-014 -1.28671539474324e-014
   outer loop
      vertex -67.7882151786552 -79.9684947474054 24.3827629665191
      vertex -67.7882151786552 -81.6655510222531 21.938624669793
      vertex -67.7882151786551 -81.1684947474054 22.3082058185067
   endloop
endfacet
facet normal 1.0 -1.60489469694915e-014 -1.28671539474324e-014
   outer loop
      vertex -67.7882151786552 -79.9684947474054 24.3827629665191
      vertex -67.7882151786551 -81.1684947474054 22.3082058185067
      vertex -67.7882151786553 -80.5896604556514 22.5405342410834
   endloop
endfacet
facet normal 1.0 -1.60489469694915e-014 -1.28671539474324e-014
   outer loop
      vertex -67.7882151786552 -79.9684947474054 24.3827629665191
      vertex -67.7882151786553 -80.5896604556514 22.5405342410834
      vertex -67.7882151786552 -79.9684947474054 22.6197771394656
   endloop
endfacet
facet normal 1.0 -1.60489469694915e-014 -1.28671539474324e-014
   outer loop
      vertex -67.7882151786552 -79.9684947474054 24.3827629665191
      vertex -67.7882151786552 -79.9684947474054 22.6197771394656
      vertex -67.7882151786553 -79.3473290391594 22.5405342410834
   endloop
endfacet
facet normal 1.0 -1.60489469694915e-014 -1.28671539474324e-014
   outer loop
      vertex -67.7882151786552 -79.9684947474054 24.3827629665191
      vertex -67.7882151786553 -79.3473290391594 22.5405342410834
      vertex -67.7882151786552 -79.061680316381 24.2296740364836
   endloop
endfacet
facet normal 1.0 -1.60489469694915e-014 -1.28671539474324e-014
   outer loop
      vertex -67.7882151786552 -79.061680316381 24.2296740364836
      vertex -67.7882151786553 -79.3473290391594 22.5405342410834
      vertex -67.7882151786551 -78.7684947474054 22.3082058185067
   endloop
endfacet
facet normal 1.0 -1.60489469694915e-014 -1.28671539474324e-014
   outer loop
      vertex -67.7882151786552 -79.061680316381 24.2296740364836
      vertex -67.7882151786551 -78.7684947474054 22.3082058185067
      vertex -67.7882151786552 -78.8990375234974 24.1822920114423
   endloop
endfacet
facet normal 1.0 -1.60489469694915e-014 -1.28671539474324e-014
   outer loop
      vertex -67.7882151786552 -78.8990375234974 24.1822920114423
      vertex -67.7882151786551 -78.7684947474054 22.3082058185067
      vertex -67.7882151786552 -78.8606722910787 24.1648110492912
   endloop
endfacet
facet normal 1.0 -1.60489469694915e-014 -1.28671539474324e-014
   outer loop
      vertex -67.7882151786552 -78.8606722910787 24.1648110492912
      vertex -67.7882151786551 -78.7684947474054 22.3082058185067
      vertex -67.7882151786552 -77.9132941549825 23.7331420538019
   endloop
endfacet
facet normal 1.0 -1.60489469694915e-014 -1.28671539474324e-014
   outer loop
      vertex -67.7882151786552 -77.9132941549825 23.7331420538019
      vertex -67.7882151786551 -78.7684947474054 22.3082058185067
      vertex -67.7882151786552 -78.2714384725577 21.938624669793
   endloop
endfacet
facet normal 1.0 -1.60489469694915e-014 -1.28671539474324e-014
   outer loop
      vertex -67.7882151786552 -77.9132941549825 23.7331420538019
      vertex -67.7882151786552 -78.2714384725577 21.938624669793
      vertex -67.7882151786552 -78.0740606466643 21.6893709405655
   endloop
endfacet
facet normal 1.0 -1.60489469694915e-014 -1.28671539474324e-014
   outer loop
      vertex -67.7882151786552 -77.9132941549825 23.7331420538019
      vertex -67.7882151786552 -78.0740606466643 21.6893709405655
      vertex -67.7882151786552 -77.8900337783227 21.4569771394656
   endloop
endfacet
facet normal 1.0 -1.60489469694915e-014 -1.28671539474324e-014
   outer loop
      vertex -67.7882151786552 -77.9132941549825 23.7331420538019
      vertex -67.7882151786552 -77.8900337783227 21.4569771394656
      vertex -67.7882151786553 -77.416877992187 23.3416623548899
   endloop
endfacet
facet normal 1.0 -1.60489469694915e-014 -1.28671539474324e-014
   outer loop
      vertex -67.7882151786553 -77.416877992187 23.3416623548899
      vertex -67.7882151786552 -77.8900337783227 21.4569771394656
      vertex -67.7882151786552 -77.6502727643116 20.8960867107559
   endloop
endfacet
facet normal 1.0 -1.60489469694915e-014 -1.28671539474324e-014
   outer loop
      vertex -67.7882151786553 -77.416877992187 23.3416623548899
      vertex -67.7882151786552 -77.6502727643116 20.8960867107559
      vertex -67.7882151786552 -77.5684947474054 20.2941771394656
   endloop
endfacet
facet normal 1.0 -1.60489469694915e-014 -1.28671539474324e-014
   outer loop
      vertex -67.7882151786553 -77.416877992187 23.3416623548899
      vertex -67.7882151786552 -77.5684947474054 20.2941771394656
      vertex -67.7882151786552 -75.8820018383878 20.2941771394655
   endloop
endfacet
facet normal 1.0 -1.60489469694915e-014 -1.28671539474324e-014
   outer loop
      vertex -67.7882151786553 -77.416877992187 23.3416623548899
      vertex -67.7882151786552 -75.8820018383878 20.2941771394655
      vertex -67.7882151786552 -77.0718024255522 23.0628968885788
   endloop
endfacet
facet normal 1.0 -1.60489469694915e-014 -1.28671539474324e-014
   outer loop
      vertex -67.7882151786552 -77.0718024255522 23.0628968885788
      vertex -67.7882151786552 -75.8820018383878 20.2941771394655
      vertex -67.7882151786552 -76.4262411452514 22.2127185039013
   endloop
endfacet
facet normal 1.0 -1.60489469694915e-014 -1.28671539474324e-014
   outer loop
      vertex -67.7882151786552 -76.4262411452514 22.2127185039013
      vertex -67.7882151786552 -75.8820018383878 20.2941771394655
      vertex -67.7882151786552 -76.006947396803 21.1695966381502
   endloop
endfacet
facet normal 1.0 -1.60489469694915e-014 -1.28671539474324e-014
   outer loop
      vertex -67.7882151786552 -76.4262411452514 22.2127185039013
      vertex -67.7882151786552 -76.006947396803 21.1695966381502
      vertex -67.7882151786552 -76.0162563826155 21.2348191862476
   endloop
endfacet
facet normal -0.582843748418937 0.457880707514811 0.671296076716302
   outer loop
      vertex -73.455487551304 -87.8234201874054 23.6406154298479
      vertex -73.8937893806263 -87.0177872274054 22.7105559635136
      vertex -74.3090300553866 -87.8234201874054 22.8995386832835
   endloop
endfacet
facet normal -0.995997092611398 -0.0893856336870902 -3.83727183252005e-015
   outer loop
      vertex -70.3079493149413 -84.2544096274054 24.1654363427544
      vertex -70.2185654029176 -85.2503875360422 20.2941771394655
      vertex -70.1858620465787 -85.6147911486648 24.1644676931904
   endloop
endfacet
facet normal -0.995997092611398 -0.0893856336870902 -3.83727183252005e-015
   outer loop
      vertex -70.2185654029176 -85.2503875360422 20.2941771394655
      vertex -70.3079493149413 -84.2544096274054 24.1654363427544
      vertex -70.3079493149412 -84.2544096274054 20.2941771394655
   endloop
endfacet
facet normal -0.626794996171598 0.418073936591373 0.65752735024274
   outer loop
      vertex -73.1494010071191 -87.0177872274054 23.4201521613757
      vertex -73.8937893806263 -87.0177872274054 22.7105559635136
      vertex -73.455487551304 -87.8234201874054 23.6406154298479
   endloop
endfacet
facet normal -0.406947337988984 0.381709719918067 0.829874420514182
   outer loop
      vertex -72.4327954589162 -87.8234201874054 24.1421151920912
      vertex -73.1494010071191 -87.0177872274054 23.4201521613757
      vertex -73.455487551304 -87.8234201874054 23.6406154298479
   endloop
endfacet
facet normal -0.141439722253474 -0.703084022103008 0.696898602977734
   outer loop
      vertex -71.4103007435127 -87.8234201874054 24.3496365846358
      vertex -72.4327954589162 -87.8234201874054 24.1421151920912
      vertex -71.6040215406445 -89.7229637900108 22.3939165326838
   endloop
endfacet
facet normal 0.27009398082997 -0.677288996589371 0.684345568129423
   outer loop
      vertex -68.9995197201032 -87.8234201874053 23.9424421036516
      vertex -70.0055978863697 -87.8234201874054 24.3395158476897
      vertex -69.817179511998 -89.6709704915041 22.4366524098999
   endloop
endfacet
facet normal 0.0079338254554571 1.70362643816306e-014 0.999968526711537
   outer loop
      vertex -70.1858620465787 -85.6147911486648 24.1644676931904
      vertex -70.3079493149413 -83.7544096274054 24.1654363427544
      vertex -70.3079493149413 -84.2544096274054 24.1654363427544
   endloop
endfacet
facet normal 0.0079338254554571 1.70362643816306e-014 0.999968526711537
   outer loop
      vertex -71.1079493149413 -84.2544096274054 24.1717836028879
      vertex -71.2300365833037 -83.6684947474054 24.1727522524521
      vertex -71.2300365833037 -85.6147911486649 24.1727522524521
   endloop
endfacet
facet normal 0.0079338254554571 1.70362643816306e-014 0.999968526711537
   outer loop
      vertex -71.2300365833037 -83.6684947474054 24.1727522524521
      vertex -71.1079493149413 -84.2544096274054 24.1717836028879
      vertex -71.1079493149413 -83.7544096274054 24.1717836028879
   endloop
endfacet
facet normal 0.0079338254554571 1.70362643816306e-014 0.999968526711537
   outer loop
      vertex -71.2300365833037 -83.6684947474054 24.1727522524521
      vertex -71.1079493149413 -83.7544096274054 24.1717836028879
      vertex -70.7079493149412 -83.6684947474054 24.1686099728212
   endloop
endfacet
facet normal 0.0079338254554571 1.70362643816306e-014 0.999968526711537
   outer loop
      vertex -70.7079493149412 -83.6684947474054 24.1686099728212
      vertex -71.1079493149413 -83.7544096274054 24.1717836028879
      vertex -70.3079493149413 -83.7544096274054 24.1654363427544
   endloop
endfacet
facet normal 0.0079338254554571 1.70362643816306e-014 0.999968526711537
   outer loop
      vertex -70.7079493149412 -83.6684947474054 24.1686099728212
      vertex -70.3079493149413 -83.7544096274054 24.1654363427544
      vertex -70.1858620465787 -83.6684947474054 24.1644676931904
   endloop
endfacet
facet normal 0.0079338254554571 1.70362643816306e-014 0.999968526711537
   outer loop
      vertex -70.1858620465787 -83.6684947474054 24.1644676931904
      vertex -70.3079493149413 -83.7544096274054 24.1654363427544
      vertex -70.1858620465787 -85.6147911486648 24.1644676931904
   endloop
endfacet
facet normal 1.28748672765707e-014 -0.783966289234073 -0.620803396692188
   outer loop
      vertex -67.7882151786552 -77.8900337783227 21.4569771394656
      vertex -73.6282151786549 -78.0740606466643 21.6893709405655
      vertex -73.6282151786551 -77.8900337783227 21.4569771394653
   endloop
endfacet
facet normal 1.28748672765707e-014 -0.783966289234073 -0.620803396692188
   outer loop
      vertex -73.6282151786549 -78.0740606466643 21.6893709405655
      vertex -67.7882151786552 -77.8900337783227 21.4569771394656
      vertex -67.7882151786552 -78.0740606466643 21.6893709405655
   endloop
endfacet
facet normal 6.2854230610339e-016 -0.990896289923627 -0.134627421484601
   outer loop
      vertex -67.7882151786552 -77.5684947474054 20.2941771394656
      vertex -73.6282151786551 -77.6502727643116 20.8960867107557
      vertex -73.6282151786551 -77.5684947474053 20.2941771394653
   endloop
endfacet
facet normal 6.2854230610339e-016 -0.990896289923627 -0.134627421484601
   outer loop
      vertex -73.6282151786551 -77.6502727643116 20.8960867107557
      vertex -67.7882151786552 -77.5684947474054 20.2941771394656
      vertex -67.7882151786552 -77.6502727643116 20.8960867107559
   endloop
endfacet
facet normal 1.42905166929346e-014 -0.919512995982934 -0.393059601356446
   outer loop
      vertex -67.7882151786552 -77.6502727643116 20.8960867107559
      vertex -73.6282151786551 -77.8900337783227 21.4569771394653
      vertex -73.6282151786551 -77.6502727643116 20.8960867107557
   endloop
endfacet
facet normal 1.42905166929346e-014 -0.919512995982934 -0.393059601356446
   outer loop
      vertex -73.6282151786551 -77.8900337783227 21.4569771394653
      vertex -67.7882151786552 -77.6502727643116 20.8960867107559
      vertex -67.7882151786552 -77.8900337783227 21.4569771394656
   endloop
endfacet
facet normal 0.259013683029834 -2.63052344023987e-014 0.965873652194386
   outer loop
      vertex -70.0778993149413 -87.0177872274054 24.1355158476897
      vertex -70.1858620465787 -83.6684947474054 24.1644676931904
      vertex -70.1858620465787 -85.6147911486648 24.1644676931904
   endloop
endfacet
facet normal 0.259013683029834 -2.63052344023987e-014 0.965873652194386
   outer loop
      vertex -70.1858620465787 -83.6684947474054 24.1644676931904
      vertex -70.0778993149413 -87.0177872274054 24.1355158476897
      vertex -69.1794796928723 -83.6684947474054 23.8945909868763
   endloop
endfacet
facet normal 0.259013683029834 -2.63052344023987e-014 0.965873652194386
   outer loop
      vertex -69.1794796928723 -83.6684947474054 23.8945909868763
      vertex -70.0778993149413 -87.0177872274054 24.1355158476897
      vertex -69.1794796928723 -87.0177872274054 23.8945909868763
   endloop
endfacet
facet normal 0.99996430196905 -0.0 -0.00844954362969107
   outer loop
      vertex -66.7747752933219 -83.6684947474054 20.2941771394655
      vertex -66.7704983180757 -87.0177872274054 20.8003373244477
      vertex -66.7747752933219 -87.0177872274054 20.2941771394655
   endloop
endfacet
facet normal 0.99996430196905 -0.0 -0.00844954362969107
   outer loop
      vertex -66.7704983180757 -87.0177872274054 20.8003373244477
      vertex -66.7747752933219 -83.6684947474054 20.2941771394655
      vertex -66.7704983180757 -83.6684947474054 20.8003373244477
   endloop
endfacet
facet normal -0.4811940188583 -0.0 0.876614120474338
   outer loop
      vertex -72.2408445339498 -87.0177872274054 23.918880085639
      vertex -73.1494010071191 -83.6684947474054 23.4201521613757
      vertex -73.1494010071191 -87.0177872274054 23.4201521613757
   endloop
endfacet
facet normal -0.4811940188583 -0.0 0.876614120474338
   outer loop
      vertex -73.1494010071191 -83.6684947474054 23.4201521613757
      vertex -72.2408445339498 -87.0177872274054 23.918880085639
      vertex -72.2408445339498 -83.6684947474054 23.918880085639
   endloop
endfacet
facet normal -0.999964301969051 0.0 0.00844954362959266
   outer loop
      vertex -74.7017913498081 -83.6684947474054 20.8632647995328
      vertex -74.7066000524821 -87.0177872274054 20.2941771394655
      vertex -74.7017913498081 -87.0177872274054 20.8632647995328
   endloop
endfacet
facet normal -0.999964301969051 0.0 0.00844954362959266
   outer loop
      vertex -74.7066000524821 -87.0177872274054 20.2941771394655
      vertex -74.7017913498081 -83.6684947474054 20.8632647995328
      vertex -74.7066000524821 -83.6684947474054 20.2941771394655
   endloop
endfacet
facet normal 0.966037923682112 4.11130512277293e-015 0.258400328962551
   outer loop
      vertex -66.7704983180757 -83.6684947474054 20.8003373244477
      vertex -67.032492298275 -87.0177872274054 21.7798102286235
      vertex -66.7704983180757 -87.0177872274054 20.8003373244477
   endloop
endfacet
facet normal 0.966037923682112 4.11130512277293e-015 0.258400328962551
   outer loop
      vertex -67.032492298275 -87.0177872274054 21.7798102286235
      vertex -66.7704983180757 -83.6684947474054 20.8003373244477
      vertex -67.032492298275 -83.6684947474054 21.7798102286236
   endloop
endfacet
facet normal -0.689989018521959 -0.0 0.723819835538584
   outer loop
      vertex -73.1494010071191 -87.0177872274054 23.4201521613757
      vertex -73.8937893806263 -83.6684947474054 22.7105559635136
      vertex -73.8937893806263 -87.0177872274054 22.7105559635136
   endloop
endfacet
facet normal -0.689989018521959 -0.0 0.723819835538584
   outer loop
      vertex -73.8937893806263 -83.6684947474054 22.7105559635136
      vertex -73.1494010071191 -87.0177872274054 23.4201521613757
      vertex -73.1494010071191 -83.6684947474054 23.4201521613757
   endloop
endfacet
facet normal -0.961553532836078 0.0 0.274617558598239
   outer loop
      vertex -74.4232808169763 -83.6684947474054 21.8384493002742
      vertex -74.7017913498081 -87.0177872274054 20.8632647995328
      vertex -74.4232808169763 -87.0177872274054 21.8384493002742
   endloop
endfacet
facet normal -0.961553532836078 0.0 0.274617558598239
   outer loop
      vertex -74.7017913498081 -87.0177872274054 20.8632647995328
      vertex -74.4232808169763 -83.6684947474054 21.8384493002742
      vertex -74.7017913498081 -83.6684947474054 20.8632647995328
   endloop
endfacet
facet normal -0.854788339136888 0.0 0.518976777202603
   outer loop
      vertex -73.8937893806263 -83.6684947474054 22.7105559635136
      vertex -74.4232808169763 -87.0177872274054 21.8384493002742
      vertex -73.8937893806263 -87.0177872274054 22.7105559635136
   endloop
endfacet
facet normal -0.854788339136888 0.0 0.518976777202603
   outer loop
      vertex -74.4232808169763 -87.0177872274054 21.8384493002742
      vertex -73.8937893806263 -83.6684947474054 22.7105559635136
      vertex -74.4232808169763 -83.6684947474054 21.8384493002742
   endloop
endfacet
facet normal -0.243592229939773 3.04281283296079e-015 0.96987773740455
   outer loop
      vertex -71.3379993149412 -87.0177872274054 24.1456365846357
      vertex -72.2408445339498 -83.6684947474054 23.918880085639
      vertex -72.2408445339498 -87.0177872274054 23.918880085639
   endloop
endfacet
facet normal -0.243592229939773 3.04281283296079e-015 0.96987773740455
   outer loop
      vertex -72.2408445339498 -83.6684947474054 23.918880085639
      vertex -71.3379993149412 -87.0177872274054 24.1456365846357
      vertex -71.2300365833037 -83.6684947474054 24.1727522524521
   endloop
endfacet
facet normal -0.243592229939773 3.04281283296079e-015 0.96987773740455
   outer loop
      vertex -71.2300365833037 -83.6684947474054 24.1727522524521
      vertex -71.3379993149412 -87.0177872274054 24.1456365846357
      vertex -71.2300365833037 -85.6147911486649 24.1727522524521
   endloop
endfacet
facet normal 0.701743061907457 4.12606064468842e-015 0.712430119425581
   outer loop
      vertex -68.2794728164641 -87.0177872274054 23.3815137850532
      vertex -67.5471753986501 -83.6684947474054 22.6602014511248
      vertex -68.2794728164642 -83.6684947474054 23.3815137850532
   endloop
endfacet
facet normal 0.701743061907457 4.12606064468842e-015 0.712430119425581
   outer loop
      vertex -67.5471753986501 -83.6684947474054 22.6602014511248
      vertex -68.2794728164641 -87.0177872274054 23.3815137850532
      vertex -67.5471753986501 -87.0177872274054 22.6602014511248
   endloop
endfacet
facet normal 0.863299850088771 1.14898612881547e-015 0.504691359978261
   outer loop
      vertex -67.032492298275 -83.6684947474054 21.7798102286236
      vertex -67.5471753986501 -87.0177872274054 22.6602014511248
      vertex -67.032492298275 -87.0177872274054 21.7798102286235
   endloop
endfacet
facet normal 0.863299850088771 1.14898612881547e-015 0.504691359978261
   outer loop
      vertex -67.5471753986501 -87.0177872274054 22.6602014511248
      vertex -67.032492298275 -83.6684947474054 21.7798102286236
      vertex -67.5471753986501 -83.6684947474054 22.6602014511248
   endloop
endfacet
facet normal 0.495256433480839 2.60392228294509e-015 0.868746836020621
   outer loop
      vertex -68.2794728164641 -87.0177872274054 23.3815137850532
      vertex -69.1794796928723 -83.6684947474054 23.8945909868763
      vertex -69.1794796928723 -87.0177872274054 23.8945909868763
   endloop
endfacet
facet normal 0.495256433480839 2.60392228294509e-015 0.868746836020621
   outer loop
      vertex -69.1794796928723 -83.6684947474054 23.8945909868763
      vertex -68.2794728164641 -87.0177872274054 23.3815137850532
      vertex -68.2794728164642 -83.6684947474054 23.3815137850532
   endloop
endfacet
facet normal 0.998000962125473 -0.0631987309732587 6.58739947259033e-015
   outer loop
      vertex -71.3163629591119 -86.6761173298924 20.2941771394655
      vertex -71.3379993149412 -87.0177872274054 24.1456365846357
      vertex -71.3379993149412 -87.0177872274054 20.2941771394655
   endloop
endfacet
facet normal 0.997053370622166 -0.0767015546222987 -0.00120318306998702
   outer loop
      vertex -71.3163629591119 -86.6761173298924 20.2941771394655
      vertex -71.2300365833037 -85.6147911486649 24.1727522524521
      vertex -71.3379993149412 -87.0177872274054 24.1456365846357
   endloop
endfacet
facet normal 0.997053370622166 -0.0767015546222987 -0.00120318306998702
   outer loop
      vertex -71.2300365833037 -85.6147911486649 24.1727522524521
      vertex -71.3163629591119 -86.6761173298924 20.2941771394655
      vertex -71.2628099428864 -85.9799747862706 20.2941771394655
   endloop
endfacet
facet normal 0.995997092611406 -0.0893856336869981 1.21811382820578e-014
   outer loop
      vertex -71.1079493149412 -84.2544096274054 20.2941771394655
      vertex -71.2300365833037 -85.6147911486649 24.1727522524521
      vertex -71.2628099428864 -85.9799747862706 20.2941771394655
   endloop
endfacet
facet normal 0.995997092611406 -0.0893856336869981 1.21811382820578e-014
   outer loop
      vertex -71.2300365833037 -85.6147911486649 24.1727522524521
      vertex -71.1079493149412 -84.2544096274054 20.2941771394655
      vertex -71.1079493149413 -84.2544096274054 24.1717836028879
   endloop
endfacet
facet normal -0.997052313692529 -0.0767247271769302 -6.79890513026838e-015
   outer loop
      vertex -70.1858620465787 -85.6147911486648 24.1644676931904
      vertex -70.0778993149412 -87.0177872274054 20.2941771394655
      vertex -70.0778993149413 -87.0177872274054 24.1355158476897
   endloop
endfacet
facet normal -0.997052313692529 -0.0767247271769302 -6.79890513026838e-015
   outer loop
      vertex -70.0778993149412 -87.0177872274054 20.2941771394655
      vertex -70.1858620465787 -85.6147911486648 24.1644676931904
      vertex -70.1311843041504 -86.3253387335378 20.2941771394655
   endloop
endfacet
facet normal -0.996712065480232 -0.0810211622993346 0.000793590445283064
   outer loop
      vertex -70.2185654029176 -85.2503875360422 20.2941771394655
      vertex -70.1311843041504 -86.3253387335378 20.2941771394655
      vertex -70.1858620465787 -85.6147911486648 24.1644676931904
   endloop
endfacet
facet normal -0.0 1.0 -0.0
   outer loop
      vertex -76.3076943329952 -82.3684947474054 20.2941771394655
      vertex -73.6282151786553 -82.3684947474054 24.3827629665192
      vertex -73.6282151786554 -82.3684947474054 20.2941771394655
   endloop
endfacet
facet normal -0.0 1.0 -0.0
   outer loop
      vertex -73.6282151786553 -82.3684947474054 24.3827629665192
      vertex -76.3076943329952 -82.3684947474054 20.2941771394655
      vertex -76.2971384862839 -82.3684947474054 21.0790847061227
   endloop
endfacet
facet normal -0.0 1.0 -0.0
   outer loop
      vertex -73.6282151786553 -82.3684947474054 24.3827629665192
      vertex -76.2971384862839 -82.3684947474054 21.0790847061227
      vertex -75.897052424071 -82.3684947474054 22.4540173093786
   endloop
endfacet
facet normal -0.0 1.0 -0.0
   outer loop
      vertex -73.6282151786553 -82.3684947474054 24.3827629665192
      vertex -75.897052424071 -82.3684947474054 22.4540173093786
      vertex -75.1433556785421 -82.3684947474054 23.6817603743594
   endloop
endfacet
facet normal -0.0 1.0 -0.0
   outer loop
      vertex -73.6282151786553 -82.3684947474054 24.3827629665192
      vertex -75.1433556785421 -82.3684947474054 23.6817603743594
      vertex -74.0874114373619 -82.3684947474054 24.6786452401282
   endloop
endfacet
facet normal -0.0 1.0 -0.0
   outer loop
      vertex -73.6282151786553 -82.3684947474054 24.3827629665192
      vertex -74.0874114373619 -82.3684947474054 24.6786452401282
      vertex -67.2122572479082 -82.3684947474054 24.5918282838559
   endloop
endfacet
facet normal -0.0 1.0 -0.0
   outer loop
      vertex -67.2122572479082 -82.3684947474054 24.5918282838559
      vertex -74.0874114373619 -82.3684947474054 24.6786452401282
      vertex -68.4792779548027 -82.3684947474054 25.3221604302734
   endloop
endfacet
facet normal -0.0 1.0 -0.0
   outer loop
      vertex -68.4792779548027 -82.3684947474054 25.3221604302734
      vertex -74.0874114373619 -82.3684947474054 24.6786452401282
      vertex -72.8011805555368 -82.3684947474054 25.3767358505131
   endloop
endfacet
facet normal -0.0 1.0 -0.0
   outer loop
      vertex -68.4792779548027 -82.3684947474054 25.3221604302734
      vertex -72.8011805555368 -82.3684947474054 25.3767358505131
      vertex -69.8981970500099 -82.3684947474054 25.7098438245578
   endloop
endfacet
facet normal -0.0 1.0 -0.0
   outer loop
      vertex -69.8981970500099 -82.3684947474054 25.7098438245578
      vertex -72.8011805555368 -82.3684947474054 25.3767358505131
      vertex -71.3723175420661 -82.3684947474054 25.7284584840654
   endloop
endfacet
facet normal -0.0 1.0 -0.0
   outer loop
      vertex -67.7882151786553 -82.3684947474054 24.3827629665191
      vertex -65.108736024315 -82.3684947474054 20.2941771394655
      vertex -67.7882151786555 -82.3684947474054 20.2941771394655
   endloop
endfacet
facet normal -0.0 1.0 -0.0
   outer loop
      vertex -65.108736024315 -82.3684947474054 20.2941771394655
      vertex -67.7882151786553 -82.3684947474054 24.3827629665191
      vertex -65.1000816960958 -82.3684947474054 20.9376923296107
   endloop
endfacet
facet normal -0.0 1.0 -0.0
   outer loop
      vertex -65.1000816960958 -82.3684947474054 20.9376923296107
      vertex -67.7882151786553 -82.3684947474054 24.3827629665191
      vertex -65.4630565501231 -82.3684947474054 22.3222605896638
   endloop
endfacet
facet normal -0.0 1.0 -0.0
   outer loop
      vertex -65.4630565501231 -82.3684947474054 22.3222605896638
      vertex -67.7882151786553 -82.3684947474054 24.3827629665191
      vertex -66.18348029665 -82.3684947474054 23.5686183141522
   endloop
endfacet
facet normal -0.0 1.0 -0.0
   outer loop
      vertex -66.18348029665 -82.3684947474054 23.5686183141522
      vertex -67.7882151786553 -82.3684947474054 24.3827629665191
      vertex -67.2122572479082 -82.3684947474054 24.5918282838559
   endloop
endfacet
facet normal -0.0 1.0 -0.0
   outer loop
      vertex -67.2122572479082 -82.3684947474054 24.5918282838559
      vertex -67.7882151786553 -82.3684947474054 24.3827629665191
      vertex -73.6282151786553 -82.3684947474054 24.3827629665192
   endloop
endfacet
facet normal 6.67077802734574e-031 -1.0 1.44464916370077e-032
   outer loop
      vertex -65.108736024315 -83.6684947474054 20.2941771394655
      vertex -66.7704983180757 -83.6684947474054 20.8003373244477
      vertex -66.7747752933219 -83.6684947474054 20.2941771394655
   endloop
endfacet
facet normal 6.67077802734574e-031 -1.0 1.44464916370077e-032
   outer loop
      vertex -66.7704983180757 -83.6684947474054 20.8003373244477
      vertex -65.108736024315 -83.6684947474054 20.2941771394655
      vertex -65.1000816960958 -83.6684947474054 20.9376923296107
   endloop
endfacet
facet normal 6.67077802734574e-031 -1.0 1.44464916370077e-032
   outer loop
      vertex -66.7704983180757 -83.6684947474054 20.8003373244477
      vertex -65.1000816960958 -83.6684947474054 20.9376923296107
      vertex -67.032492298275 -83.6684947474054 21.7798102286236
   endloop
endfacet
facet normal 6.67077802734574e-031 -1.0 1.44464916370077e-032
   outer loop
      vertex -67.032492298275 -83.6684947474054 21.7798102286236
      vertex -65.1000816960958 -83.6684947474054 20.9376923296107
      vertex -65.4630565501231 -83.6684947474054 22.3222605896638
   endloop
endfacet
facet normal 6.67077802734574e-031 -1.0 1.44464916370077e-032
   outer loop
      vertex -67.032492298275 -83.6684947474054 21.7798102286236
      vertex -65.4630565501231 -83.6684947474054 22.3222605896638
      vertex -67.5471753986501 -83.6684947474054 22.6602014511248
   endloop
endfacet
facet normal 6.67077802734574e-031 -1.0 1.44464916370077e-032
   outer loop
      vertex -67.5471753986501 -83.6684947474054 22.6602014511248
      vertex -65.4630565501231 -83.6684947474054 22.3222605896638
      vertex -66.18348029665 -83.6684947474054 23.5686183141522
   endloop
endfacet
facet normal 6.67077802734574e-031 -1.0 1.44464916370077e-032
   outer loop
      vertex -67.5471753986501 -83.6684947474054 22.6602014511248
      vertex -66.18348029665 -83.6684947474054 23.5686183141522
      vertex -68.2794728164642 -83.6684947474054 23.3815137850532
   endloop
endfacet
facet normal 6.67077802734574e-031 -1.0 1.44464916370077e-032
   outer loop
      vertex -68.2794728164642 -83.6684947474054 23.3815137850532
      vertex -66.18348029665 -83.6684947474054 23.5686183141522
      vertex -69.1794796928723 -83.6684947474054 23.8945909868763
   endloop
endfacet
facet normal 6.67077802734574e-031 -1.0 1.44464916370077e-032
   outer loop
      vertex -69.1794796928723 -83.6684947474054 23.8945909868763
      vertex -66.18348029665 -83.6684947474054 23.5686183141522
      vertex -67.2122572479082 -83.6684947474054 24.5918282838559
   endloop
endfacet
facet normal 6.67077802734574e-031 -1.0 1.44464916370077e-032
   outer loop
      vertex -69.1794796928723 -83.6684947474054 23.8945909868763
      vertex -67.2122572479082 -83.6684947474054 24.5918282838559
      vertex -70.1858620465787 -83.6684947474054 24.1644676931904
   endloop
endfacet
facet normal 6.67077802734574e-031 -1.0 1.44464916370077e-032
   outer loop
      vertex -70.1858620465787 -83.6684947474054 24.1644676931904
      vertex -67.2122572479082 -83.6684947474054 24.5918282838559
      vertex -70.7079493149412 -83.6684947474054 24.1686099728212
   endloop
endfacet
facet normal 6.67077802734574e-031 -1.0 1.44464916370077e-032
   outer loop
      vertex -70.7079493149412 -83.6684947474054 24.1686099728212
      vertex -67.2122572479082 -83.6684947474054 24.5918282838559
      vertex -71.2300365833037 -83.6684947474054 24.1727522524521
   endloop
endfacet
facet normal 6.67077802734574e-031 -1.0 1.44464916370077e-032
   outer loop
      vertex -74.7017913498081 -83.6684947474054 20.8632647995328
      vertex -76.3076943329952 -83.6684947474054 20.2941771394655
      vertex -74.7066000524821 -83.6684947474054 20.2941771394655
   endloop
endfacet
facet normal 6.67077802734574e-031 -1.0 1.44464916370077e-032
   outer loop
      vertex -76.3076943329952 -83.6684947474054 20.2941771394655
      vertex -74.7017913498081 -83.6684947474054 20.8632647995328
      vertex -76.2971384862839 -83.6684947474054 21.0790847061227
   endloop
endfacet
facet normal 6.67077802734574e-031 -1.0 1.44464916370077e-032
   outer loop
      vertex -76.2971384862839 -83.6684947474054 21.0790847061227
      vertex -74.7017913498081 -83.6684947474054 20.8632647995328
      vertex -74.4232808169763 -83.6684947474054 21.8384493002742
   endloop
endfacet
facet normal 6.67077802734574e-031 -1.0 1.44464916370077e-032
   outer loop
      vertex -76.2971384862839 -83.6684947474054 21.0790847061227
      vertex -74.4232808169763 -83.6684947474054 21.8384493002742
      vertex -75.897052424071 -83.6684947474054 22.4540173093786
   endloop
endfacet
facet normal 6.67077802734574e-031 -1.0 1.44464916370077e-032
   outer loop
      vertex -75.897052424071 -83.6684947474054 22.4540173093786
      vertex -74.4232808169763 -83.6684947474054 21.8384493002742
      vertex -73.8937893806263 -83.6684947474054 22.7105559635136
   endloop
endfacet
facet normal 6.67077802734574e-031 -1.0 1.44464916370077e-032
   outer loop
      vertex -75.897052424071 -83.6684947474054 22.4540173093786
      vertex -73.8937893806263 -83.6684947474054 22.7105559635136
      vertex -75.1433556785421 -83.6684947474054 23.6817603743594
   endloop
endfacet
facet normal 6.67077802734574e-031 -1.0 1.44464916370077e-032
   outer loop
      vertex -75.1433556785421 -83.6684947474054 23.6817603743594
      vertex -73.8937893806263 -83.6684947474054 22.7105559635136
      vertex -73.1494010071191 -83.6684947474054 23.4201521613757
   endloop
endfacet
facet normal 6.67077802734574e-031 -1.0 1.44464916370077e-032
   outer loop
      vertex -75.1433556785421 -83.6684947474054 23.6817603743594
      vertex -73.1494010071191 -83.6684947474054 23.4201521613757
      vertex -72.2408445339498 -83.6684947474054 23.918880085639
   endloop
endfacet
facet normal 6.67077802734574e-031 -1.0 1.44464916370077e-032
   outer loop
      vertex -75.1433556785421 -83.6684947474054 23.6817603743594
      vertex -72.2408445339498 -83.6684947474054 23.918880085639
      vertex -74.0874114373619 -83.6684947474054 24.6786452401282
   endloop
endfacet
facet normal 6.67077802734574e-031 -1.0 1.44464916370077e-032
   outer loop
      vertex -74.0874114373619 -83.6684947474054 24.6786452401282
      vertex -72.2408445339498 -83.6684947474054 23.918880085639
      vertex -71.2300365833037 -83.6684947474054 24.1727522524521
   endloop
endfacet
facet normal 6.67077802734574e-031 -1.0 1.44464916370077e-032
   outer loop
      vertex -74.0874114373619 -83.6684947474054 24.6786452401282
      vertex -71.2300365833037 -83.6684947474054 24.1727522524521
      vertex -67.2122572479082 -83.6684947474054 24.5918282838559
   endloop
endfacet
facet normal 6.67077802734574e-031 -1.0 1.44464916370077e-032
   outer loop
      vertex -74.0874114373619 -83.6684947474054 24.6786452401282
      vertex -67.2122572479082 -83.6684947474054 24.5918282838559
      vertex -68.4792779548027 -83.6684947474054 25.3221604302734
   endloop
endfacet
facet normal 6.67077802734574e-031 -1.0 1.44464916370077e-032
   outer loop
      vertex -74.0874114373619 -83.6684947474054 24.6786452401282
      vertex -68.4792779548027 -83.6684947474054 25.3221604302734
      vertex -72.8011805555368 -83.6684947474054 25.3767358505131
   endloop
endfacet
facet normal 6.67077802734574e-031 -1.0 1.44464916370077e-032
   outer loop
      vertex -72.8011805555368 -83.6684947474054 25.3767358505131
      vertex -68.4792779548027 -83.6684947474054 25.3221604302734
      vertex -69.8981970500099 -83.6684947474054 25.7098438245578
   endloop
endfacet
facet normal 6.67077802734574e-031 -1.0 1.44464916370077e-032
   outer loop
      vertex -72.8011805555368 -83.6684947474054 25.3767358505131
      vertex -69.8981970500099 -83.6684947474054 25.7098438245578
      vertex -71.3723175420661 -83.6684947474054 25.7284584840654
   endloop
endfacet
facet normal 0.99990958089234 -0.0 -0.0134473060389369
   outer loop
      vertex -65.108736024315 -82.3684947474054 20.2941771394655
      vertex -65.1000816960958 -83.6684947474054 20.9376923296107
      vertex -65.108736024315 -83.6684947474054 20.2941771394655
   endloop
endfacet
facet normal 0.99990958089234 -0.0 -0.0134473060389369
   outer loop
      vertex -65.1000816960958 -83.6684947474054 20.9376923296107
      vertex -65.108736024315 -82.3684947474054 20.2941771394655
      vertex -65.1000816960958 -82.3684947474054 20.9376923296107
   endloop
endfacet
facet normal -0.999909580892341 0.0 0.0134473060388987
   outer loop
      vertex -76.2971384862839 -82.3684947474054 21.0790847061227
      vertex -76.3076943329952 -83.6684947474054 20.2941771394655
      vertex -76.2971384862839 -83.6684947474054 21.0790847061227
   endloop
endfacet
facet normal -0.999909580892341 0.0 0.0134473060388987
   outer loop
      vertex -76.3076943329952 -83.6684947474054 20.2941771394655
      vertex -76.2971384862839 -82.3684947474054 21.0790847061227
      vertex -76.3076943329952 -82.3684947474054 20.2941771394655
   endloop
endfacet
facet normal -0.960175502117088 0.0 0.279397575390694
   outer loop
      vertex -75.897052424071 -82.3684947474054 22.4540173093786
      vertex -76.2971384862839 -83.6684947474054 21.0790847061227
      vertex -75.897052424071 -83.6684947474054 22.4540173093786
   endloop
endfacet
facet normal -0.960175502117088 0.0 0.279397575390694
   outer loop
      vertex -76.2971384862839 -83.6684947474054 21.0790847061227
      vertex -75.897052424071 -82.3684947474054 22.4540173093786
      vertex -76.2971384862839 -82.3684947474054 21.0790847061227
   endloop
endfacet
facet normal -0.852227113234429 0.0 0.523172005623497
   outer loop
      vertex -75.1433556785421 -82.3684947474054 23.6817603743594
      vertex -75.897052424071 -83.6684947474054 22.4540173093786
      vertex -75.1433556785421 -83.6684947474054 23.6817603743594
   endloop
endfacet
facet normal -0.852227113234429 0.0 0.523172005623497
   outer loop
      vertex -75.897052424071 -83.6684947474054 22.4540173093786
      vertex -75.1433556785421 -82.3684947474054 23.6817603743594
      vertex -75.897052424071 -82.3684947474054 22.4540173093786
   endloop
endfacet
facet normal -0.686479457312979 -0.0 0.727149196992803
   outer loop
      vertex -74.0874114373619 -83.6684947474054 24.6786452401282
      vertex -75.1433556785421 -82.3684947474054 23.6817603743594
      vertex -75.1433556785421 -83.6684947474054 23.6817603743594
   endloop
endfacet
facet normal -0.686479457312979 -0.0 0.727149196992803
   outer loop
      vertex -75.1433556785421 -82.3684947474054 23.6817603743594
      vertex -74.0874114373619 -83.6684947474054 24.6786452401282
      vertex -74.0874114373619 -82.3684947474054 24.6786452401282
   endloop
endfacet
facet normal -0.477013216129784 -0.0 0.878896121073201
   outer loop
      vertex -72.8011805555368 -83.6684947474054 25.3767358505131
      vertex -74.0874114373619 -82.3684947474054 24.6786452401282
      vertex -74.0874114373619 -83.6684947474054 24.6786452401282
   endloop
endfacet
facet normal -0.477013216129784 -0.0 0.878896121073201
   outer loop
      vertex -74.0874114373619 -82.3684947474054 24.6786452401282
      vertex -72.8011805555368 -83.6684947474054 25.3767358505131
      vertex -72.8011805555368 -82.3684947474054 25.3767358505131
   endloop
endfacet
facet normal -0.239020653578118 -0.0 0.971014483498104
   outer loop
      vertex -71.3723175420661 -83.6684947474054 25.7284584840654
      vertex -72.8011805555368 -82.3684947474054 25.3767358505131
      vertex -72.8011805555368 -83.6684947474054 25.3767358505131
   endloop
endfacet
facet normal -0.239020653578118 -0.0 0.971014483498104
   outer loop
      vertex -72.8011805555368 -82.3684947474054 25.3767358505131
      vertex -71.3723175420661 -83.6684947474054 25.7284584840654
      vertex -71.3723175420661 -82.3684947474054 25.7284584840654
   endloop
endfacet
facet normal 0.0126266310415687 -0.0 0.999920280916704
   outer loop
      vertex -69.8981970500099 -83.6684947474054 25.7098438245578
      vertex -71.3723175420661 -82.3684947474054 25.7284584840654
      vertex -71.3723175420661 -83.6684947474054 25.7284584840654
   endloop
endfacet
facet normal 0.0126266310415687 -0.0 0.999920280916704
   outer loop
      vertex -71.3723175420661 -82.3684947474054 25.7284584840654
      vertex -69.8981970500099 -83.6684947474054 25.7098438245578
      vertex -69.8981970500099 -82.3684947474054 25.7098438245578
   endloop
endfacet
facet normal 0.26356377585038 -0.0 0.964641972992826
   outer loop
      vertex -68.4792779548027 -83.6684947474054 25.3221604302734
      vertex -69.8981970500099 -82.3684947474054 25.7098438245578
      vertex -69.8981970500099 -83.6684947474054 25.7098438245578
   endloop
endfacet
facet normal 0.26356377585038 -0.0 0.964641972992826
   outer loop
      vertex -69.8981970500099 -82.3684947474054 25.7098438245578
      vertex -68.4792779548027 -83.6684947474054 25.3221604302734
      vertex -68.4792779548027 -82.3684947474054 25.3221604302734
   endloop
endfacet
facet normal 0.499393390484809 -0.0 0.866375346798423
   outer loop
      vertex -67.2122572479082 -83.6684947474054 24.5918282838559
      vertex -68.4792779548027 -82.3684947474054 25.3221604302734
      vertex -68.4792779548027 -83.6684947474054 25.3221604302734
   endloop
endfacet
facet normal 0.499393390484809 -0.0 0.866375346798423
   outer loop
      vertex -68.4792779548027 -82.3684947474054 25.3221604302734
      vertex -67.2122572479082 -83.6684947474054 24.5918282838559
      vertex -67.2122572479082 -82.3684947474054 24.5918282838559
   endloop
endfacet
facet normal 0.705185825653097 -0.0 0.709022532292141
   outer loop
      vertex -66.18348029665 -83.6684947474054 23.5686183141522
      vertex -67.2122572479082 -82.3684947474054 24.5918282838559
      vertex -67.2122572479082 -83.6684947474054 24.5918282838559
   endloop
endfacet
facet normal 0.705185825653097 -0.0 0.709022532292141
   outer loop
      vertex -67.2122572479082 -82.3684947474054 24.5918282838559
      vertex -66.18348029665 -83.6684947474054 23.5686183141522
      vertex -66.18348029665 -82.3684947474054 23.5686183141522
   endloop
endfacet
facet normal 0.865772998093911 -0.0 0.500436924868141
   outer loop
      vertex -65.4630565501231 -82.3684947474054 22.3222605896638
      vertex -66.18348029665 -83.6684947474054 23.5686183141522
      vertex -65.4630565501231 -83.6684947474054 22.3222605896638
   endloop
endfacet
facet normal 0.865772998093911 -0.0 0.500436924868141
   outer loop
      vertex -66.18348029665 -83.6684947474054 23.5686183141522
      vertex -65.4630565501231 -82.3684947474054 22.3222605896638
      vertex -66.18348029665 -82.3684947474054 23.5686183141522
   endloop
endfacet
facet normal 0.967312293917829 -0.0 0.253588103103098
   outer loop
      vertex -65.1000816960958 -82.3684947474054 20.9376923296107
      vertex -65.4630565501231 -83.6684947474054 22.3222605896638
      vertex -65.1000816960958 -83.6684947474054 20.9376923296107
   endloop
endfacet
facet normal 0.967312293917829 -0.0 0.253588103103098
   outer loop
      vertex -65.4630565501231 -83.6684947474054 22.3222605896638
      vertex -65.1000816960958 -82.3684947474054 20.9376923296107
      vertex -65.4630565501231 -82.3684947474054 22.3222605896638
   endloop
endfacet
facet normal -0.453101647007904 0.336679094748211 0.825436905304245
   outer loop
      vertex -72.2408445339498 -87.0177872274054 23.918880085639
      vertex -73.1494010071191 -87.0177872274054 23.4201521613757
      vertex -72.4327954589162 -87.8234201874054 24.1421151920912
   endloop
endfacet
facet normal -4.91185799838021e-014 0.619227342123588 0.785211754093478
   outer loop
      vertex -67.7882151786552 -77.9132941549825 23.7331420538019
      vertex -73.628215178655 -77.4168779921872 23.3416623548893
      vertex -73.6282151786552 -77.9132941549825 23.733142053802
   endloop
endfacet
facet normal -4.91185799838021e-014 0.619227342123588 0.785211754093478
   outer loop
      vertex -73.628215178655 -77.4168779921872 23.3416623548893
      vertex -67.7882151786552 -77.9132941549825 23.7331420538019
      vertex -67.7882151786553 -77.416877992187 23.3416623548899
   endloop
endfacet
facet normal 3.51600235784802e-015 0.414632719508919 0.909988850433146
   outer loop
      vertex -67.7882151786552 -78.8990375234974 24.1822920114423
      vertex -73.6282151786552 -78.8606722910787 24.1648110492912
      vertex -73.6282151786552 -78.8990375234974 24.1822920114423
   endloop
endfacet
facet normal 3.51600235784802e-015 0.414632719508919 0.909988850433146
   outer loop
      vertex -73.6282151786552 -78.8606722910787 24.1648110492912
      vertex -67.7882151786552 -77.9132941549825 23.7331420538019
      vertex -73.6282151786552 -77.9132941549825 23.733142053802
   endloop
endfacet
facet normal 3.51600235784802e-015 0.414632719508919 0.909988850433146
   outer loop
      vertex -67.7882151786552 -77.9132941549825 23.7331420538019
      vertex -73.6282151786552 -78.8606722910787 24.1648110492912
      vertex -67.7882151786552 -78.8990375234974 24.1822920114423
   endloop
endfacet
facet normal 3.51600235784802e-015 0.414632719508919 0.909988850433146
   outer loop
      vertex -67.7882151786552 -77.9132941549825 23.7331420538019
      vertex -67.7882151786552 -78.8990375234974 24.1822920114423
      vertex -67.7882151786552 -78.8606722910787 24.1648110492912
   endloop
endfacet
facet normal -1.0 4.77853052054358e-014 -1.53625028449934e-014
   outer loop
      vertex -73.6282151786553 -82.3684947474054 24.3827629665192
      vertex -73.6282151786552 -82.2867167304992 20.896086710756
      vertex -73.6282151786554 -82.3684947474054 20.2941771394655
   endloop
endfacet
facet normal -1.0 4.77853052054358e-014 -1.53625028449934e-014
   outer loop
      vertex -73.6282151786552 -82.2867167304992 20.896086710756
      vertex -73.6282151786553 -82.3684947474054 24.3827629665192
      vertex -73.6282151786552 -82.046955716488 21.4569771394656
   endloop
endfacet
facet normal -1.0 4.77853052054358e-014 -1.53625028449934e-014
   outer loop
      vertex -73.6282151786552 -82.046955716488 21.4569771394656
      vertex -73.6282151786553 -82.3684947474054 24.3827629665192
      vertex -73.6282151786553 -79.9684947474054 24.3827629665192
   endloop
endfacet
facet normal -1.0 4.77853052054358e-014 -1.53625028449934e-014
   outer loop
      vertex -73.6282151786552 -82.046955716488 21.4569771394656
      vertex -73.6282151786553 -79.9684947474054 24.3827629665192
      vertex -73.6282151786552 -81.6655510222531 21.938624669793
   endloop
endfacet
facet normal -1.0 4.77853052054358e-014 -1.53625028449934e-014
   outer loop
      vertex -73.6282151786552 -81.6655510222531 21.938624669793
      vertex -73.6282151786553 -79.9684947474054 24.3827629665192
      vertex -73.6282151786551 -81.1684947474054 22.3082058185068
   endloop
endfacet
facet normal -1.0 4.77853052054358e-014 -1.53625028449934e-014
   outer loop
      vertex -73.6282151786551 -81.1684947474054 22.3082058185068
      vertex -73.6282151786553 -79.9684947474054 24.3827629665192
      vertex -73.6282151786553 -80.5896604556514 22.5405342410834
   endloop
endfacet
facet normal -1.0 4.77853052054358e-014 -1.53625028449934e-014
   outer loop
      vertex -73.6282151786553 -80.5896604556514 22.5405342410834
      vertex -73.6282151786553 -79.9684947474054 24.3827629665192
      vertex -73.6282151786551 -79.9684947474054 22.6197771394656
   endloop
endfacet
facet normal -1.0 4.77853052054358e-014 -1.53625028449934e-014
   outer loop
      vertex -73.6282151786551 -79.9684947474054 22.6197771394656
      vertex -73.6282151786553 -79.9684947474054 24.3827629665192
      vertex -73.6282151786552 -79.061680316381 24.2296740364837
   endloop
endfacet
facet normal -1.0 4.77853052054358e-014 -1.53625028449934e-014
   outer loop
      vertex -73.6282151786551 -79.9684947474054 22.6197771394656
      vertex -73.6282151786552 -79.061680316381 24.2296740364837
      vertex -73.6282151786553 -79.3473290391594 22.5405342410834
   endloop
endfacet
facet normal -1.0 4.77853052054358e-014 -1.53625028449934e-014
   outer loop
      vertex -73.6282151786553 -79.3473290391594 22.5405342410834
      vertex -73.6282151786552 -79.061680316381 24.2296740364837
      vertex -73.6282151786551 -78.7684947474054 22.3082058185068
   endloop
endfacet
facet normal -1.0 4.77853052054358e-014 -1.53625028449934e-014
   outer loop
      vertex -73.6282151786551 -78.7684947474054 22.3082058185068
      vertex -73.6282151786552 -79.061680316381 24.2296740364837
      vertex -73.6282151786552 -78.8990375234974 24.1822920114423
   endloop
endfacet
facet normal -1.0 4.77853052054358e-014 -1.53625028449934e-014
   outer loop
      vertex -73.6282151786551 -78.7684947474054 22.3082058185068
      vertex -73.6282151786552 -78.8990375234974 24.1822920114423
      vertex -73.6282151786552 -78.8606722910787 24.1648110492912
   endloop
endfacet
facet normal -1.0 4.77853052054358e-014 -1.53625028449934e-014
   outer loop
      vertex -73.6282151786551 -78.7684947474054 22.3082058185068
      vertex -73.6282151786552 -78.8606722910787 24.1648110492912
      vertex -73.6282151786552 -77.9132941549825 23.733142053802
   endloop
endfacet
facet normal -1.0 4.77853052054358e-014 -1.53625028449934e-014
   outer loop
      vertex -73.6282151786551 -78.7684947474054 22.3082058185068
      vertex -73.6282151786552 -77.9132941549825 23.733142053802
      vertex -73.6282151786552 -78.2714384725577 21.938624669793
   endloop
endfacet
facet normal -1.0 4.77853052054358e-014 -1.53625028449934e-014
   outer loop
      vertex -73.6282151786552 -78.2714384725577 21.938624669793
      vertex -73.6282151786552 -77.9132941549825 23.733142053802
      vertex -73.6282151786549 -78.0740606466643 21.6893709405655
   endloop
endfacet
facet normal -1.0 4.77853052054358e-014 -1.53625028449934e-014
   outer loop
      vertex -73.6282151786549 -78.0740606466643 21.6893709405655
      vertex -73.6282151786552 -77.9132941549825 23.733142053802
      vertex -73.6282151786551 -77.8900337783227 21.4569771394653
   endloop
endfacet
facet normal -1.0 4.77853052054358e-014 -1.53625028449934e-014
   outer loop
      vertex -73.6282151786551 -77.8900337783227 21.4569771394653
      vertex -73.6282151786552 -77.9132941549825 23.733142053802
      vertex -73.628215178655 -77.4168779921872 23.3416623548893
   endloop
endfacet
facet normal -1.0 4.77853052054358e-014 -1.53625028449934e-014
   outer loop
      vertex -73.6282151786551 -77.8900337783227 21.4569771394653
      vertex -73.628215178655 -77.4168779921872 23.3416623548893
      vertex -73.6282151786551 -77.6502727643116 20.8960867107557
   endloop
endfacet
facet normal -1.0 4.77853052054358e-014 -1.53625028449934e-014
   outer loop
      vertex -73.6282151786551 -77.6502727643116 20.8960867107557
      vertex -73.628215178655 -77.4168779921872 23.3416623548893
      vertex -73.6282151786551 -77.5684947474053 20.2941771394653
   endloop
endfacet
facet normal -1.0 4.77853052054358e-014 -1.53625028449934e-014
   outer loop
      vertex -73.6282151786551 -77.5684947474053 20.2941771394653
      vertex -73.628215178655 -77.4168779921872 23.3416623548893
      vertex -73.628215178655 -75.8820018383878 20.2941771394655
   endloop
endfacet
facet normal -1.0 4.77853052054358e-014 -1.53625028449934e-014
   outer loop
      vertex -73.628215178655 -75.8820018383878 20.2941771394655
      vertex -73.628215178655 -77.4168779921872 23.3416623548893
      vertex -73.6282151786549 -77.0718024255521 23.0628968885788
   endloop
endfacet
facet normal -1.0 4.77853052054358e-014 -1.53625028449934e-014
   outer loop
      vertex -73.628215178655 -75.8820018383878 20.2941771394655
      vertex -73.6282151786549 -77.0718024255521 23.0628968885788
      vertex -73.628215178655 -76.4262411452513 22.2127185039012
   endloop
endfacet
facet normal -1.0 4.77853052054358e-014 -1.53625028449934e-014
   outer loop
      vertex -73.628215178655 -75.8820018383878 20.2941771394655
      vertex -73.628215178655 -76.4262411452513 22.2127185039012
      vertex -73.6282151786549 -76.0069473968029 21.1695966381502
   endloop
endfacet
facet normal -1.0 4.77853052054358e-014 -1.53625028449934e-014
   outer loop
      vertex -73.6282151786549 -76.0069473968029 21.1695966381502
      vertex -73.628215178655 -76.4262411452513 22.2127185039012
      vertex -73.628215178655 -76.0162563826155 21.2348191862476
   endloop
endfacet
facet normal -1.49838216232253e-015 -0.783966289233903 -0.620803396692402
   outer loop
      vertex -67.7882151786552 -78.2714384725577 21.938624669793
      vertex -73.6282151786549 -78.0740606466643 21.6893709405655
      vertex -67.7882151786552 -78.0740606466643 21.6893709405655
   endloop
endfacet
facet normal -1.49838216232253e-015 -0.783966289233903 -0.620803396692402
   outer loop
      vertex -73.6282151786549 -78.0740606466643 21.6893709405655
      vertex -67.7882151786552 -78.2714384725577 21.938624669793
      vertex -73.6282151786552 -78.2714384725577 21.938624669793
   endloop
endfacet
facet normal -0.189495794508227 0.303865314077048 0.93367939613368
   outer loop
      vertex -71.4103007435127 -87.8234201874054 24.3496365846358
      vertex -72.2408445339498 -87.0177872274054 23.918880085639
      vertex -72.4327954589162 -87.8234201874054 24.1421151920912
   endloop
endfacet
facet normal -0.235321325139342 0.258369737867826 0.936946611333205
   outer loop
      vertex -71.3379993149412 -87.0177872274054 24.1456365846357
      vertex -72.2408445339498 -87.0177872274054 23.918880085639
      vertex -71.4103007435127 -87.8234201874054 24.3496365846358
   endloop
endfacet
facet normal -0.479499144380071 -0.698313301352868 0.531450001121873
   outer loop
      vertex -72.4327954589162 -87.8234201874054 24.1421151920912
      vertex -71.6676371025207 -90.3467508865794 21.5168774259925
      vertex -71.6040215406445 -89.7229637900108 22.3939165326838
   endloop
endfacet
facet normal -0.300984394579459 -0.729844583180912 0.613787649453064
   outer loop
      vertex -72.4327954589162 -87.8234201874054 24.1421151920912
      vertex -73.455487551304 -87.8234201874054 23.6406154298479
      vertex -71.6676371025207 -90.3467508865794 21.5168774259925
   endloop
endfacet
facet normal -0.57239840846607 -0.752262824204019 0.326283167365563
   outer loop
      vertex -74.3090300553866 -87.8234201874054 22.8995386832835
      vertex -71.7083663774652 -90.7461248041205 20.7234341516911
      vertex -71.6950511111945 -90.6155609759936 21.0478148182201
   endloop
endfacet
facet normal -0.543254915361576 -0.7557135931533 0.365747265278655
   outer loop
      vertex -74.3090300553866 -87.8234201874054 22.8995386832835
      vertex -74.9352554600563 -87.8234201874054 21.9693881079896
      vertex -71.7083663774652 -90.7461248041205 20.7234341516911
   endloop
endfacet
facet normal -0.636333563468773 -0.771395284359971 0.00537692015310382
   outer loop
      vertex -71.7140525671712 -90.8018811577963 20.4579733370689
      vertex -75.3260755661725 -87.8234201874055 20.2941771394656
      vertex -71.7141599679146 -90.8029342837288 20.2941771394655
   endloop
endfacet
facet normal -0.636754643398761 -0.770246137032153 0.0355585783906235
   outer loop
      vertex -75.2914875388715 -87.8234201874054 20.9135519285254
      vertex -75.3260755661725 -87.8234201874055 20.2941771394656
      vertex -71.7140525671712 -90.8018811577963 20.4579733370689
   endloop
endfacet
facet normal -0.610492704598429 -0.764769558630071 0.205976163244346
   outer loop
      vertex -74.9352554600563 -87.8234201874054 21.9693881079896
      vertex -75.2914875388715 -87.8234201874054 20.9135519285254
      vertex -71.7140525671712 -90.8018811577963 20.4579733370689
   endloop
endfacet
facet normal -0.43782864286973 -0.744321387799836 0.504273488443104
   outer loop
      vertex -73.455487551304 -87.8234201874054 23.6406154298479
      vertex -74.3090300553866 -87.8234201874054 22.8995386832835
      vertex -71.6950511111945 -90.6155609759936 21.0478148182201
   endloop
endfacet
facet normal -0.503314775985213 -0.736700861541925 0.451603893781198
   outer loop
      vertex -73.455487551304 -87.8234201874054 23.6406154298479
      vertex -71.6950511111945 -90.6155609759936 21.0478148182201
      vertex -71.6676371025207 -90.3467508865794 21.5168774259925
   endloop
endfacet
facet normal -0.724206365494083 0.487644938761666 0.487573126697916
   outer loop
      vertex -73.8937893806263 -87.0177872274054 22.7105559635136
      vertex -74.9352554600563 -87.8234201874054 21.9693881079896
      vertex -74.3090300553866 -87.8234201874054 22.8995386832835
   endloop
endfacet
facet normal -0.724024341960671 0.531558182505045 0.439584634467984
   outer loop
      vertex -74.4232808169763 -87.0177872274054 21.8384493002742
      vertex -74.9352554600563 -87.8234201874054 21.9693881079896
      vertex -73.8937893806263 -87.0177872274054 22.7105559635136
   endloop
endfacet
facet normal -0.623495349681723 -0.762338725191005 0.173473966344865
   outer loop
      vertex -74.9352554600563 -87.8234201874054 21.9693881079896
      vertex -71.7140525671712 -90.8018811577963 20.4579733370689
      vertex -71.7083663774652 -90.7461248041205 20.7234341516911
   endloop
endfacet
facet normal -0.792954434858648 0.547400157708569 0.267537533027865
   outer loop
      vertex -74.4232808169763 -87.0177872274054 21.8384493002742
      vertex -75.2914875388715 -87.8234201874054 20.9135519285254
      vertex -74.9352554600563 -87.8234201874054 21.9693881079896
   endloop
endfacet
facet normal -0.779976182083472 0.584820805137926 0.222759469518848
   outer loop
      vertex -74.7017913498081 -87.0177872274054 20.8632647995328
      vertex -75.2914875388715 -87.8234201874054 20.9135519285254
      vertex -74.4232808169763 -87.0177872274054 21.8384493002742
   endloop
endfacet
facet normal -0.804776343149042 0.591874395416395 0.0449414903862035
   outer loop
      vertex -74.7017913498081 -87.0177872274054 20.8632647995328
      vertex -75.3260755661725 -87.8234201874055 20.2941771394656
      vertex -75.2914875388715 -87.8234201874054 20.9135519285254
   endloop
endfacet
facet normal -0.79272134059709 0.609547379590379 0.00669837267219933
   outer loop
      vertex -74.7066000524821 -87.0177872274054 20.2941771394655
      vertex -75.3260755661725 -87.8234201874055 20.2941771394656
      vertex -74.7017913498081 -87.0177872274054 20.8632647995328
   endloop
endfacet
facet normal 2.51092905980309e-014 8.02602788535607e-014 -1.0
   outer loop
      vertex -73.628215178655 -75.8820018383878 20.2941771394655
      vertex -67.7882151786552 -77.5684947474054 20.2941771394656
      vertex -73.6282151786551 -77.5684947474053 20.2941771394653
   endloop
endfacet
facet normal 2.51092905980309e-014 8.02602788535607e-014 -1.0
   outer loop
      vertex -67.7882151786552 -77.5684947474054 20.2941771394656
      vertex -73.628215178655 -75.8820018383878 20.2941771394655
      vertex -67.7882151786552 -75.8820018383878 20.2941771394655
   endloop
endfacet
facet normal 0.560050923000919 -0.658054714951574 0.503296091556274
   outer loop
      vertex -68.9995197201032 -87.8234201874053 23.9424421036516
      vertex -69.817179511998 -89.6709704915041 22.4366524098999
      vertex -69.7536267156935 -90.294142135619 21.5511421737971
   endloop
endfacet
facet normal 0.304026484384451 -0.708830184371648 0.636496399452885
   outer loop
      vertex -68.9995197201032 -87.8234201874053 23.9424421036516
      vertex -69.7536267156935 -90.294142135619 21.5511421737971
      vertex -67.9998805688275 -87.8234201874053 23.4649582135987
   endloop
endfacet
facet normal 0.631028244642268 -0.758541966023144 0.162534427877422
   outer loop
      vertex -66.545492093043 -87.8234201874054 21.853626112818
      vertex -69.7123493849507 -90.6988900548205 20.7290141096172
      vertex -69.706717771293 -90.7541112590183 20.4494345234784
   endloop
endfacet
facet normal 0.611900710964377 -0.761852420540982 0.212505080497235
   outer loop
      vertex -66.545492093043 -87.8234201874054 21.853626112818
      vertex -69.706717771293 -90.7541112590183 20.4494345234784
      vertex -66.1898569396682 -87.8234201874054 20.8295875219063
   endloop
endfacet
facet normal 0.636333563468778 -0.771395284359968 -0.00537692015284451
   outer loop
      vertex -69.706717771293 -90.7541112590183 20.4494345234784
      vertex -69.7068195731584 -90.7531130332982 20.2941771394655
      vertex -66.1552997796315 -87.8234201874053 20.2941771394656
   endloop
endfacet
facet normal 0.637013072673014 -0.769755745299216 0.0411149343004869
   outer loop
      vertex -66.1898569396682 -87.8234201874054 20.8295875219063
      vertex -69.706717771293 -90.7541112590183 20.4494345234784
      vertex -66.1552997796315 -87.8234201874053 20.2941771394656
   endloop
endfacet
facet normal 0.589586268367877 -0.743999409974053 0.3144088263874
   outer loop
      vertex -67.1628574456071 -87.8234201874053 22.7525019783056
      vertex -69.725848902329 -90.5665195388309 21.0675628618678
      vertex -69.7123493849507 -90.6988900548205 20.7290141096172
   endloop
endfacet
facet normal 0.546481059474614 -0.748654131688546 0.375333775113795
   outer loop
      vertex -67.1628574456071 -87.8234201874053 22.7525019783056
      vertex -69.7123493849507 -90.6988900548205 20.7290141096172
      vertex -66.545492093043 -87.8234201874054 21.853626112818
   endloop
endfacet
facet normal 0.538497667728331 -0.720574561172938 0.436798081087333
   outer loop
      vertex -67.9998805688275 -87.8234201874053 23.4649582135987
      vertex -69.7536267156935 -90.294142135619 21.5511421737971
      vertex -69.725848902329 -90.5665195388309 21.0675628618678
   endloop
endfacet
facet normal 0.441832396624577 -0.731667242724272 0.519083017654444
   outer loop
      vertex -67.9998805688275 -87.8234201874053 23.4649582135987
      vertex -69.725848902329 -90.5665195388309 21.0675628618678
      vertex -67.1628574456071 -87.8234201874053 22.7525019783056
   endloop
endfacet
facet normal 0.602545818145258 0.368540447678352 0.707895808336723
   outer loop
      vertex -67.1628574456071 -87.8234201874053 22.7525019783056
      vertex -67.5471753986501 -87.0177872274054 22.6602014511248
      vertex -67.9998805688275 -87.8234201874053 23.4649582135987
   endloop
endfacet
facet normal 0.668873777493515 0.302464931514588 0.679060258729247
   outer loop
      vertex -67.5471753986501 -87.0177872274054 22.6602014511248
      vertex -68.2794728164641 -87.0177872274054 23.3815137850532
      vertex -67.9998805688275 -87.8234201874053 23.4649582135987
   endloop
endfacet
facet normal 0.809642653903378 0.515186916521565 0.281178260228805
   outer loop
      vertex -67.032492298275 -87.0177872274054 21.7798102286235
      vertex -66.545492093043 -87.8234201874054 21.853626112818
      vertex -66.1898569396682 -87.8234201874054 20.8295875219063
   endloop
endfacet
facet normal 0.789315277736595 0.576546293734185 0.211129731475644
   outer loop
      vertex -67.032492298275 -87.0177872274054 21.7798102286235
      vertex -66.1898569396682 -87.8234201874054 20.8295875219063
      vertex -66.7704983180757 -87.0177872274054 20.8003373244477
   endloop
endfacet
facet normal 0.749415285548222 0.416470080203557 0.514712931722062
   outer loop
      vertex -67.5471753986501 -87.0177872274054 22.6602014511248
      vertex -67.1628574456071 -87.8234201874053 22.7525019783056
      vertex -66.545492093043 -87.8234201874054 21.853626112818
   endloop
endfacet
facet normal 0.750627549530398 0.493956736656747 0.438822315063178
   outer loop
      vertex -67.5471753986501 -87.0177872274054 22.6602014511248
      vertex -66.545492093043 -87.8234201874054 21.853626112818
      vertex -67.032492298275 -87.0177872274054 21.7798102286235
   endloop
endfacet
facet normal 0.809246770902606 0.585142322474669 0.0522314678393779
   outer loop
      vertex -66.7704983180757 -87.0177872274054 20.8003373244477
      vertex -66.1898569396682 -87.8234201874054 20.8295875219063
      vertex -66.1552997796315 -87.8234201874053 20.2941771394656
   endloop
endfacet
facet normal 0.792721340597008 0.609547379590484 -0.0066983726722765
   outer loop
      vertex -66.7704983180757 -87.0177872274054 20.8003373244477
      vertex -66.1552997796315 -87.8234201874053 20.2941771394656
      vertex -66.7747752933219 -87.0177872274054 20.2941771394655
   endloop
endfacet
facet normal 0.418819122121879 0.236167624876098 0.876821188102478
   outer loop
      vertex -67.9998805688275 -87.8234201874053 23.4649582135987
      vertex -68.2794728164641 -87.0177872274054 23.3815137850532
      vertex -68.9995197201032 -87.8234201874053 23.9424421036516
   endloop
endfacet
facet normal 0.488865192625691 0.160135217546178 0.857535734264459
   outer loop
      vertex -68.2794728164641 -87.0177872274054 23.3815137850532
      vertex -69.1794796928723 -87.0177872274054 23.8945909868763
      vertex -68.9995197201032 -87.8234201874053 23.9424421036516
   endloop
endfacet
facet normal 0.363706758992446 0.135978978010956 0.921535192492564
   outer loop
      vertex -68.9995197201032 -87.8234201874053 23.9424421036516
      vertex -69.1794796928723 -87.0177872274054 23.8945909868763
      vertex -70.0055978863697 -87.8234201874054 24.3395158476897
   endloop
endfacet
facet normal 0.250196033234004 0.258703352499371 0.932992240246164
   outer loop
      vertex -69.1794796928723 -87.0177872274054 23.8945909868763
      vertex -70.0778993149413 -87.0177872274054 24.1355158476897
      vertex -70.0055978863697 -87.8234201874054 24.3395158476897
   endloop
endfacet
facet normal 1.0 -0.0 1.7453858770757e-014
   outer loop
      vertex -71.1079493149412 -83.7544096274054 20.2941771394655
      vertex -71.1079493149413 -84.2544096274054 24.1717836028879
      vertex -71.1079493149412 -84.2544096274054 20.2941771394655
   endloop
endfacet
facet normal 1.0 -0.0 1.7453858770757e-014
   outer loop
      vertex -71.1079493149413 -84.2544096274054 24.1717836028879
      vertex -71.1079493149412 -83.7544096274054 20.2941771394655
      vertex -71.1079493149413 -83.7544096274054 24.1717836028879
   endloop
endfacet
facet normal -1.0 0.0 -1.45687298858838e-014
   outer loop
      vertex -70.3079493149413 -83.7544096274054 24.1654363427544
      vertex -70.3079493149412 -84.2544096274054 20.2941771394655
      vertex -70.3079493149413 -84.2544096274054 24.1654363427544
   endloop
endfacet
facet normal -1.0 0.0 -1.45687298858838e-014
   outer loop
      vertex -70.3079493149412 -84.2544096274054 20.2941771394655
      vertex -70.3079493149413 -83.7544096274054 24.1654363427544
      vertex -70.3079493149412 -83.7544096274054 20.2941771394655
   endloop
endfacet
facet normal 0.0 -1.0 0.0
   outer loop
      vertex -70.3079493149412 -83.7544096274054 20.2941771394655
      vertex -71.1079493149413 -83.7544096274054 24.1717836028879
      vertex -71.1079493149412 -83.7544096274054 20.2941771394655
   endloop
endfacet
facet normal 0.0 -1.0 0.0
   outer loop
      vertex -71.1079493149413 -83.7544096274054 24.1717836028879
      vertex -70.3079493149412 -83.7544096274054 20.2941771394655
      vertex -70.3079493149413 -83.7544096274054 24.1654363427544
   endloop
endfacet
facet normal -0.995997092611389 -0.0893856336871841 -1.76584932560233e-015
   outer loop
      vertex -70.0055978863697 -87.8234201874054 24.3395158476897
      vertex -70.0778993149412 -87.0177872274054 20.2941771394655
      vertex -70.0055978863697 -87.8234201874054 20.2941771394655
   endloop
endfacet
facet normal -0.995997092611389 -0.0893856336871841 -1.76584932560233e-015
   outer loop
      vertex -70.0778993149412 -87.0177872274054 20.2941771394655
      vertex -70.0055978863697 -87.8234201874054 24.3395158476897
      vertex -70.0778993149413 -87.0177872274054 24.1355158476897
   endloop
endfacet
facet normal -0.994839968532546 -0.101456576968488 4.38001927245769e-015
   outer loop
      vertex -69.7123493849507 -90.6988900548205 20.7290141096172
      vertex -69.7068195731584 -90.7531130332982 20.2941771394655
      vertex -69.706717771293 -90.7541112590183 20.4494345234784
   endloop
endfacet
facet normal -0.994839968532546 -0.101456576968488 4.38001927245769e-015
   outer loop
      vertex -69.7068195731584 -90.7531130332982 20.2941771394655
      vertex -69.7123493849507 -90.6988900548205 20.7290141096172
      vertex -70.0055978863697 -87.8234201874054 20.2941771394655
   endloop
endfacet
facet normal -0.994839968532546 -0.101456576968488 4.38001927245769e-015
   outer loop
      vertex -70.0055978863697 -87.8234201874054 20.2941771394655
      vertex -69.7123493849507 -90.6988900548205 20.7290141096172
      vertex -69.725848902329 -90.5665195388309 21.0675628618678
   endloop
endfacet
facet normal -0.994839968532546 -0.101456576968488 4.38001927245769e-015
   outer loop
      vertex -70.0055978863697 -87.8234201874054 20.2941771394655
      vertex -69.725848902329 -90.5665195388309 21.0675628618678
      vertex -69.7536267156935 -90.294142135619 21.5511421737971
   endloop
endfacet
facet normal -0.994839968532546 -0.101456576968488 4.38001927245769e-015
   outer loop
      vertex -70.0055978863697 -87.8234201874054 20.2941771394655
      vertex -69.7536267156935 -90.294142135619 21.5511421737971
      vertex -69.817179511998 -89.6709704915041 22.4366524098999
   endloop
endfacet
facet normal -0.994839968532546 -0.101456576968488 4.38001927245769e-015
   outer loop
      vertex -70.0055978863697 -87.8234201874054 20.2941771394655
      vertex -69.817179511998 -89.6709704915041 22.4366524098999
      vertex -70.0055978863697 -87.8234201874054 24.3395158476897
   endloop
endfacet
facet normal 0.994839968532543 -0.101456576968518 8.23444592565221e-015
   outer loop
      vertex -71.4103007435127 -87.8234201874054 20.2941771394655
      vertex -71.7140525671712 -90.8018811577963 20.4579733370689
      vertex -71.7141599679146 -90.8029342837288 20.2941771394655
   endloop
endfacet
facet normal 0.994839968532543 -0.101456576968518 8.23444592565221e-015
   outer loop
      vertex -71.7140525671712 -90.8018811577963 20.4579733370689
      vertex -71.4103007435127 -87.8234201874054 20.2941771394655
      vertex -71.7083663774652 -90.7461248041205 20.7234341516911
   endloop
endfacet
facet normal 0.994839968532543 -0.101456576968518 8.23444592565221e-015
   outer loop
      vertex -71.7083663774652 -90.7461248041205 20.7234341516911
      vertex -71.4103007435127 -87.8234201874054 20.2941771394655
      vertex -71.6950511111945 -90.6155609759936 21.0478148182201
   endloop
endfacet
facet normal 0.994839968532543 -0.101456576968518 8.23444592565221e-015
   outer loop
      vertex -71.6950511111945 -90.6155609759936 21.0478148182201
      vertex -71.4103007435127 -87.8234201874054 20.2941771394655
      vertex -71.6676371025207 -90.3467508865794 21.5168774259925
   endloop
endfacet
facet normal 0.994839968532543 -0.101456576968518 8.23444592565221e-015
   outer loop
      vertex -71.6676371025207 -90.3467508865794 21.5168774259925
      vertex -71.4103007435127 -87.8234201874054 20.2941771394655
      vertex -71.6040215406445 -89.7229637900108 22.3939165326838
   endloop
endfacet
facet normal 0.994839968532543 -0.101456576968518 8.23444592565221e-015
   outer loop
      vertex -71.6040215406445 -89.7229637900108 22.3939165326838
      vertex -71.4103007435127 -87.8234201874054 20.2941771394655
      vertex -71.4103007435127 -87.8234201874054 24.3496365846358
   endloop
endfacet
facet normal 0.995997092611399 -0.0893856336870724 6.43734831260002e-015
   outer loop
      vertex -71.3379993149412 -87.0177872274054 20.2941771394655
      vertex -71.4103007435127 -87.8234201874054 24.3496365846358
      vertex -71.4103007435127 -87.8234201874054 20.2941771394655
   endloop
endfacet
facet normal 0.995997092611399 -0.0893856336870724 6.43734831260002e-015
   outer loop
      vertex -71.4103007435127 -87.8234201874054 24.3496365846358
      vertex -71.3379993149412 -87.0177872274054 20.2941771394655
      vertex -71.3379993149412 -87.0177872274054 24.1456365846357
   endloop
endfacet
facet normal 2.05967739339093e-016 -2.91013747964862e-016 -1.0
   outer loop
      vertex -73.6282151786554 -82.3684947474054 20.2941771394655
      vertex -76.3076943329952 -83.6684947474054 20.2941771394655
      vertex -76.3076943329952 -82.3684947474054 20.2941771394655
   endloop
endfacet
facet normal 2.05967739339093e-016 -2.91013747964862e-016 -1.0
   outer loop
      vertex -76.3076943329952 -83.6684947474054 20.2941771394655
      vertex -73.6282151786554 -82.3684947474054 20.2941771394655
      vertex -74.7066000524821 -83.6684947474054 20.2941771394655
   endloop
endfacet
facet normal 2.05967739339093e-016 -2.91013747964862e-016 -1.0
   outer loop
      vertex -74.7066000524821 -83.6684947474054 20.2941771394655
      vertex -73.6282151786554 -82.3684947474054 20.2941771394655
      vertex -74.7066000524821 -87.0177872274054 20.2941771394655
   endloop
endfacet
facet normal 2.05967739339093e-016 -2.91013747964862e-016 -1.0
   outer loop
      vertex -65.108736024315 -82.3684947474054 20.2941771394655
      vertex -66.7747752933219 -83.6684947474054 20.2941771394655
      vertex -67.7882151786555 -82.3684947474054 20.2941771394655
   endloop
endfacet
facet normal 2.05967739339093e-016 -2.91013747964862e-016 -1.0
   outer loop
      vertex -66.7747752933219 -83.6684947474054 20.2941771394655
      vertex -65.108736024315 -82.3684947474054 20.2941771394655
      vertex -65.108736024315 -83.6684947474054 20.2941771394655
   endloop
endfacet
facet normal 2.05967739339093e-016 -2.91013747964862e-016 -1.0
   outer loop
      vertex -74.7066000524821 -87.0177872274054 20.2941771394655
      vertex -71.7141599679146 -90.8029342837288 20.2941771394655
      vertex -75.3260755661725 -87.8234201874055 20.2941771394656
   endloop
endfacet
facet normal 2.05967739339093e-016 -2.91013747964862e-016 -1.0
   outer loop
      vertex -71.7141599679146 -90.8029342837288 20.2941771394655
      vertex -74.7066000524821 -87.0177872274054 20.2941771394655
      vertex -73.6282151786554 -82.3684947474054 20.2941771394655
   endloop
endfacet
facet normal 2.05967739339093e-016 -2.91013747964862e-016 -1.0
   outer loop
      vertex -71.7141599679146 -90.8029342837288 20.2941771394655
      vertex -73.6282151786554 -82.3684947474054 20.2941771394655
      vertex -71.1079493149412 -83.7544096274054 20.2941771394655
   endloop
endfacet
facet normal 2.05967739339093e-016 -2.91013747964862e-016 -1.0
   outer loop
      vertex -71.1079493149412 -83.7544096274054 20.2941771394655
      vertex -73.6282151786554 -82.3684947474054 20.2941771394655
      vertex -67.7882151786555 -82.3684947474054 20.2941771394655
   endloop
endfacet
facet normal 2.05967739339093e-016 -2.91013747964862e-016 -1.0
   outer loop
      vertex -71.7141599679146 -90.8029342837288 20.2941771394655
      vertex -71.1079493149412 -83.7544096274054 20.2941771394655
      vertex -71.4103007435127 -87.8234201874054 20.2941771394655
   endloop
endfacet
facet normal 2.05967739339093e-016 -2.91013747964862e-016 -1.0
   outer loop
      vertex -71.4103007435127 -87.8234201874054 20.2941771394655
      vertex -71.1079493149412 -83.7544096274054 20.2941771394655
      vertex -71.3163629591119 -86.6761173298924 20.2941771394655
   endloop
endfacet
facet normal 2.05967739339093e-016 -2.91013747964862e-016 -1.0
   outer loop
      vertex -71.4103007435127 -87.8234201874054 20.2941771394655
      vertex -71.3163629591119 -86.6761173298924 20.2941771394655
      vertex -71.3379993149412 -87.0177872274054 20.2941771394655
   endloop
endfacet
facet normal 2.05967739339093e-016 -2.91013747964862e-016 -1.0
   outer loop
      vertex -71.3163629591119 -86.6761173298924 20.2941771394655
      vertex -71.1079493149412 -83.7544096274054 20.2941771394655
      vertex -71.2628099428864 -85.9799747862706 20.2941771394655
   endloop
endfacet
facet normal 2.05967739339093e-016 -2.91013747964862e-016 -1.0
   outer loop
      vertex -71.1079493149412 -83.7544096274054 20.2941771394655
      vertex -67.7882151786555 -82.3684947474054 20.2941771394655
      vertex -70.3079493149412 -83.7544096274054 20.2941771394655
   endloop
endfacet
facet normal 2.05967739339093e-016 -2.91013747964862e-016 -1.0
   outer loop
      vertex -70.3079493149412 -83.7544096274054 20.2941771394655
      vertex -67.7882151786555 -82.3684947474054 20.2941771394655
      vertex -70.3079493149412 -84.2544096274054 20.2941771394655
   endloop
endfacet
facet normal 2.05967739339093e-016 -2.91013747964862e-016 -1.0
   outer loop
      vertex -70.3079493149412 -84.2544096274054 20.2941771394655
      vertex -67.7882151786555 -82.3684947474054 20.2941771394655
      vertex -70.2185654029176 -85.2503875360422 20.2941771394655
   endloop
endfacet
facet normal 2.05967739339093e-016 -2.91013747964862e-016 -1.0
   outer loop
      vertex -70.2185654029176 -85.2503875360422 20.2941771394655
      vertex -67.7882151786555 -82.3684947474054 20.2941771394655
      vertex -70.1311843041504 -86.3253387335378 20.2941771394655
   endloop
endfacet
facet normal 2.05967739339093e-016 -2.91013747964862e-016 -1.0
   outer loop
      vertex -70.1311843041504 -86.3253387335378 20.2941771394655
      vertex -67.7882151786555 -82.3684947474054 20.2941771394655
      vertex -70.0778993149412 -87.0177872274054 20.2941771394655
   endloop
endfacet
facet normal 2.05967739339093e-016 -2.91013747964862e-016 -1.0
   outer loop
      vertex -70.0778993149412 -87.0177872274054 20.2941771394655
      vertex -67.7882151786555 -82.3684947474054 20.2941771394655
      vertex -70.0055978863697 -87.8234201874054 20.2941771394655
   endloop
endfacet
facet normal 2.05967739339093e-016 -2.91013747964862e-016 -1.0
   outer loop
      vertex -70.0055978863697 -87.8234201874054 20.2941771394655
      vertex -67.7882151786555 -82.3684947474054 20.2941771394655
      vertex -69.7068195731584 -90.7531130332982 20.2941771394655
   endloop
endfacet
facet normal 2.05967739339093e-016 -2.91013747964862e-016 -1.0
   outer loop
      vertex -69.7068195731584 -90.7531130332982 20.2941771394655
      vertex -67.7882151786555 -82.3684947474054 20.2941771394655
      vertex -66.7747752933219 -87.0177872274054 20.2941771394655
   endloop
endfacet
facet normal 2.05967739339093e-016 -2.91013747964862e-016 -1.0
   outer loop
      vertex -69.7068195731584 -90.7531130332982 20.2941771394655
      vertex -66.7747752933219 -87.0177872274054 20.2941771394655
      vertex -66.1552997796315 -87.8234201874053 20.2941771394656
   endloop
endfacet
facet normal 2.05967739339093e-016 -2.91013747964862e-016 -1.0
   outer loop
      vertex -66.7747752933219 -87.0177872274054 20.2941771394655
      vertex -67.7882151786555 -82.3684947474054 20.2941771394655
      vertex -66.7747752933219 -83.6684947474054 20.2941771394655
   endloop
endfacet
facet normal 2.05967739339093e-016 -2.91013747964862e-016 -1.0
   outer loop
      vertex -71.1079493149412 -84.2544096274054 20.2941771394655
      vertex -71.2628099428864 -85.9799747862706 20.2941771394655
      vertex -71.1079493149412 -83.7544096274054 20.2941771394655
   endloop
endfacet
endsolid 黑熊2015-3列印d
