solid 黑熊2015-3列印d
facet normal -0.000588329818840747 0.000344907082129757 -0.999999767453538
   outer loop
      vertex -170.482394690606 -24.0847813083941 20.2899126388612
      vertex -166.632704132572 -32.0673093705968 20.2875832200683
      vertex -175.97873319651 -32.0673093705938 20.293203728867
   endloop
endfacet
facet normal -0.000588329818840747 0.000344907082129757 -0.999999767453538
   outer loop
      vertex -166.632704132572 -32.0673093705968 20.2875832200683
      vertex -170.482394690606 -24.0847813083941 20.2899126388612
      vertex -167.012707193975 -21.8700135160112 20.2941683089606
   endloop
endfacet
facet normal -0.000588329818840747 0.000344907082129757 -0.999999767453538
   outer loop
      vertex -166.632704132572 -32.0673093705968 20.2875832200683
      vertex -167.012707193975 -21.8700135160112 20.2941683089606
      vertex -166.517511241503 -31.4502361180885 20.2875345377166
   endloop
endfacet
facet normal -0.000588329818840747 0.000344907082129757 -0.999999767453538
   outer loop
      vertex -166.517511241503 -31.4502361180885 20.2875345377166
      vertex -167.012707193975 -21.8700135160112 20.2941683089606
      vertex -165.262171061698 -24.8429682852616 20.2868238901045
   endloop
endfacet
facet normal -0.0019839952436603 -0.00130218691995443 -0.999997184032084
   outer loop
      vertex -155.579144928306 -49.5469473694509 20.2809671093201
      vertex -167.012707193975 -42.2646052251824 20.2941683089606
      vertex -165.262171061698 -39.2916504559319 20.2868238901045
   endloop
endfacet
facet normal -0.000588329818840909 -0.00034490708212969 -0.999999767453538
   outer loop
      vertex -166.632704132572 -32.0673093705968 20.2875832200683
      vertex -170.482394690606 -40.0498374327995 20.2899126388612
      vertex -175.97873319651 -32.0673093705938 20.293203728867
   endloop
endfacet
facet normal -0.000588329818840909 -0.00034490708212969 -0.999999767453538
   outer loop
      vertex -170.482394690606 -40.0498374327995 20.2899126388612
      vertex -166.632704132572 -32.0673093705968 20.2875832200683
      vertex -167.012707193975 -42.2646052251824 20.2941683089606
   endloop
endfacet
facet normal -0.000588329818840909 -0.00034490708212969 -0.999999767453538
   outer loop
      vertex -167.012707193975 -42.2646052251824 20.2941683089606
      vertex -166.632704132572 -32.0673093705968 20.2875832200683
      vertex -166.517511241503 -32.684382623105 20.2875345377166
   endloop
endfacet
facet normal -0.000588329818840909 -0.00034490708212969 -0.999999767453538
   outer loop
      vertex -167.012707193975 -42.2646052251824 20.2941683089606
      vertex -166.517511241503 -32.684382623105 20.2875345377166
      vertex -165.262171061698 -39.2916504559319 20.2868238901045
   endloop
endfacet
facet normal -0.140950959521889 0.383261090701008 0.912821868364542
   outer loop
      vertex -167.080286227198 -21.4183573496153 21.5943679448457
      vertex -169.36468787018 -21.5035846868377 21.2774120399564
      vertex -170.504801277337 -23.4730007635263 21.9282514813445
   endloop
endfacet
facet normal 0.708091250391067 -0.704807084782383 -0.0430552477657928
   outer loop
      vertex -155.23069504229 -14.7887384160994 20.6795275653015
      vertex -163.488111581532 -23.4118769948628 26.0364764407441
      vertex -165.262171061698 -24.8429682852616 20.2868238901045
   endloop
endfacet
facet normal -0.155751322571207 0.62456361204643 0.765285450028182
   outer loop
      vertex -163.488111581532 -23.4118769948628 26.0364764407441
      vertex -155.472837602317 -14.4820717694671 20.3799702530836
      vertex -170.533440899689 -22.6934211485723 24.016261973514
   endloop
endfacet
facet normal -0.155751322571207 0.62456361204643 0.765285450028182
   outer loop
      vertex -155.472837602317 -14.4820717694671 20.3799702530836
      vertex -163.488111581532 -23.4118769948628 26.0364764407441
      vertex -155.23069504229 -14.7887384160994 20.6795275653015
   endloop
endfacet
facet normal -0.72700272909842 0.500381032154869 -0.470197676029006
   outer loop
      vertex -170.482394690606 -24.0847813083941 20.2899126388612
      vertex -175.97873319651 -32.0673093705938 20.293203728867
      vertex -176.457497581254 -32.0673093705967 21.0334519947503
   endloop
endfacet
facet normal 0.0102137478113556 0.944744251476396 -0.327649170085855
   outer loop
      vertex -167.080286227198 -21.4183573496153 21.5943679448457
      vertex -167.012707193975 -21.8700135160112 20.2941683089606
      vertex -169.36468787018 -21.5035846868377 21.2774120399564
   endloop
endfacet
facet normal -0.875952541037699 0.447869344768392 -0.179221080976343
   outer loop
      vertex -169.36468787018 -21.5035846868377 21.2774120399564
      vertex -170.482394690606 -24.0847813083941 20.2899126388612
      vertex -170.504801277337 -23.4730007635263 21.9282514813445
   endloop
endfacet
facet normal -0.790137303843633 -0.57058303580729 -0.223870588339896
   outer loop
      vertex -176.457497581254 -32.0673093705967 21.0334519947503
      vertex -170.504276551529 -40.6477357570385 21.8910176263411
      vertex -170.533440899689 -41.4411975926212 24.016261973514
   endloop
endfacet
facet normal -0.790137303843633 -0.57058303580729 -0.223870588339896
   outer loop
      vertex -170.504276551529 -40.6477357570385 21.8910176263411
      vertex -176.457497581254 -32.0673093705967 21.0334519947503
      vertex -170.482394690606 -40.0498374327995 20.2899126388612
   endloop
endfacet
facet normal -0.790137303843629 0.570583035807296 -0.223870588339897
   outer loop
      vertex -170.533440899689 -22.6934211485723 24.016261973514
      vertex -170.482394690606 -24.0847813083941 20.2899126388612
      vertex -176.457497581254 -32.0673093705967 21.0334519947503
   endloop
endfacet
facet normal -0.790137303843629 0.570583035807296 -0.223870588339897
   outer loop
      vertex -170.482394690606 -24.0847813083941 20.2899126388612
      vertex -170.533440899689 -22.6934211485723 24.016261973514
      vertex -170.504801277337 -23.4730007635263 21.9282514813445
   endloop
endfacet
facet normal -0.449718438371918 2.22362720238194e-018 0.893170379148527
   outer loop
      vertex -170.533440899689 -22.6934211485723 24.016261973514
      vertex -176.457497581254 -32.0673093705967 21.0334519947503
      vertex -170.533440899689 -41.4411975926212 24.016261973514
   endloop
endfacet
facet normal 0.951577701743276 -0.180820639184352 -0.248603648384225
   outer loop
      vertex -163.488111581532 -23.4118769948628 26.0364764407441
      vertex -166.517511241503 -31.4502361180885 20.2875345377166
      vertex -165.262171061698 -24.8429682852616 20.2868238901045
   endloop
endfacet
facet normal -0.275637203784707 2.48669353348736e-018 0.961261739532864
   outer loop
      vertex -163.488111581532 -40.7227417463307 26.0364764407441
      vertex -170.533440899689 -22.6934211485723 24.016261973514
      vertex -170.533440899689 -41.4411975926212 24.016261973514
   endloop
endfacet
facet normal -0.275637203784707 2.48669353348736e-018 0.961261739532864
   outer loop
      vertex -170.533440899689 -22.6934211485723 24.016261973514
      vertex -163.488111581532 -40.7227417463307 26.0364764407441
      vertex -165.237436094403 -32.0673093705968 25.5348660079041
   endloop
endfacet
facet normal -0.275637203784707 2.48669353348736e-018 0.961261739532864
   outer loop
      vertex -163.488111581532 -23.4118769948628 26.0364764407441
      vertex -170.533440899689 -22.6934211485723 24.016261973514
      vertex -165.237436094403 -32.0673093705968 25.5348660079041
   endloop
endfacet
facet normal -0.155751322571207 -0.624563612046429 0.765285450028182
   outer loop
      vertex -155.472837602317 -49.6525469717264 20.3799702530836
      vertex -163.488111581532 -40.7227417463307 26.0364764407441
      vertex -170.533440899689 -41.4411975926212 24.016261973514
   endloop
endfacet
facet normal -0.155751322571207 -0.624563612046429 0.765285450028182
   outer loop
      vertex -163.488111581532 -40.7227417463307 26.0364764407441
      vertex -155.472837602317 -49.6525469717264 20.3799702530836
      vertex -155.23069504229 -49.3458803250941 20.6795275653015
   endloop
endfacet
facet normal -0.727002729097235 -0.500381032153687 -0.470197676032095
   outer loop
      vertex -175.97873319651 -32.0673093705938 20.293203728867
      vertex -170.482394690606 -40.0498374327995 20.2899126388612
      vertex -176.457497581254 -32.0673093705967 21.0334519947503
   endloop
endfacet
facet normal 0.951061930117007 -0.177560579978654 -0.252890184704265
   outer loop
      vertex -166.517511241503 -31.4502361180885 20.2875345377166
      vertex -165.237436094403 -32.0673093705968 25.5348660079041
      vertex -166.632704132572 -32.0673093705968 20.2875832200683
   endloop
endfacet
facet normal 0.951061930117007 -0.177560579978654 -0.252890184704265
   outer loop
      vertex -165.237436094403 -32.0673093705968 25.5348660079041
      vertex -166.517511241503 -31.4502361180885 20.2875345377166
      vertex -163.488111581532 -23.4118769948628 26.0364764407441
   endloop
endfacet
facet normal 0.684197652387572 -0.671539250153884 -0.284444384669649
   outer loop
      vertex -155.23069504229 -14.7887384160994 20.6795275653015
      vertex -165.262171061698 -24.8429682852616 20.2868238901045
      vertex -155.646140984949 -15.0432054607757 20.2809873359978
   endloop
endfacet
facet normal 0.684197652387572 0.671539250153883 -0.284444384669651
   outer loop
      vertex -165.262171061698 -39.2916504559319 20.2868238901045
      vertex -155.23069504229 -49.3458803250941 20.6795275653015
      vertex -155.646140984949 -49.0914132804178 20.2809873359978
   endloop
endfacet
facet normal -0.284659960435311 0.447581345459309 -0.847726162225634
   outer loop
      vertex -167.012707193975 -21.8700135160112 20.2941683089606
      vertex -170.482394690606 -24.0847813083941 20.2899126388612
      vertex -169.36468787018 -21.5035846868377 21.2774120399564
   endloop
endfacet
facet normal 0.708091250391067 0.704807084782383 -0.0430552477657924
   outer loop
      vertex -165.262171061698 -39.2916504559319 20.2868238901045
      vertex -163.488111581532 -40.7227417463307 26.0364764407441
      vertex -155.23069504229 -49.3458803250941 20.6795275653015
   endloop
endfacet
facet normal 0.951577701743276 0.180820639184352 -0.248603648384225
   outer loop
      vertex -166.517511241503 -32.684382623105 20.2875345377166
      vertex -163.488111581532 -40.7227417463307 26.0364764407441
      vertex -165.262171061698 -39.2916504559319 20.2868238901045
   endloop
endfacet
facet normal 0.951061930117007 0.177560579978654 -0.252890184704265
   outer loop
      vertex -166.517511241503 -32.684382623105 20.2875345377166
      vertex -165.237436094403 -32.0673093705968 25.5348660079041
      vertex -163.488111581532 -40.7227417463307 26.0364764407441
   endloop
endfacet
facet normal 0.951061930117007 0.177560579978654 -0.252890184704265
   outer loop
      vertex -165.237436094403 -32.0673093705968 25.5348660079041
      vertex -166.517511241503 -32.684382623105 20.2875345377166
      vertex -166.632704132572 -32.0673093705968 20.2875832200683
   endloop
endfacet
facet normal 0.726127634211651 -0.0922066381696466 -0.681349099002592
   outer loop
      vertex -155.472837602317 -14.4820717694671 20.3799702530836
      vertex -155.23069504229 -14.7887384160994 20.6795275653015
      vertex -155.579144928306 -14.5876713717426 20.2809671093201
   endloop
endfacet
facet normal 0.721449127705524 -0.106134949302802 -0.684285414625674
   outer loop
      vertex -155.579144928306 -14.5876713717426 20.2809671093201
      vertex -155.23069504229 -14.7887384160994 20.6795275653015
      vertex -155.646140984949 -15.0432054607757 20.2809873359978
   endloop
endfacet
facet normal -0.000660743500705718 5.27743947000352e-005 -0.999999780316421
   outer loop
      vertex -155.579144928306 -14.5876713717426 20.2809671093201
      vertex -155.646140984949 -15.0432054607757 20.2809873359978
      vertex -165.262171061698 -24.8429682852616 20.2868238901045
   endloop
endfacet
facet normal -0.000660743500705527 -5.27743946998275e-005 -0.999999780316421
   outer loop
      vertex -155.579144928306 -49.5469473694509 20.2809671093201
      vertex -165.262171061698 -39.2916504559319 20.2868238901045
      vertex -155.646140984949 -49.0914132804178 20.2809873359978
   endloop
endfacet
facet normal -0.511559815012974 -0.802612800132029 -0.306788605929417
   outer loop
      vertex -155.472837602317 -49.6525469717264 20.3799702530836
      vertex -167.012707193975 -42.2646052251824 20.2941683089606
      vertex -155.579144928306 -49.5469473694509 20.2809671093201
   endloop
endfacet
facet normal 0.726127634211652 0.0922066381696416 -0.681349099002591
   outer loop
      vertex -155.23069504229 -49.3458803250941 20.6795275653015
      vertex -155.472837602317 -49.6525469717264 20.3799702530836
      vertex -155.579144928306 -49.5469473694509 20.2809671093201
   endloop
endfacet
facet normal 0.721449127705524 0.106134949302802 -0.684285414625674
   outer loop
      vertex -155.646140984949 -49.0914132804178 20.2809873359978
      vertex -155.23069504229 -49.3458803250941 20.6795275653015
      vertex -155.579144928306 -49.5469473694509 20.2809671093201
   endloop
endfacet
facet normal -0.511650285362718 -0.802679614109362 -0.306462758881882
   outer loop
      vertex -155.472837602317 -49.6525469717264 20.3799702530836
      vertex -167.07976150139 -42.7023791709495 21.5571340898423
      vertex -167.012707193975 -42.2646052251824 20.2941683089606
   endloop
endfacet
facet normal -0.511650285362718 -0.802679614109362 -0.306462758881882
   outer loop
      vertex -167.07976150139 -42.7023791709495 21.5571340898423
      vertex -155.472837602317 -49.6525469717264 20.3799702530836
      vertex -170.533440899689 -41.4411975926212 24.016261973514
   endloop
endfacet
facet normal -0.511650285362718 -0.802679614109362 -0.306462758881882
   outer loop
      vertex -167.07976150139 -42.7023791709495 21.5571340898423
      vertex -170.533440899689 -41.4411975926212 24.016261973514
      vertex -170.504276551529 -40.6477357570385 21.8910176263411
   endloop
endfacet
facet normal -0.0019839952436603 0.00130218691995444 -0.999997184032084
   outer loop
      vertex -155.579144928306 -14.5876713717426 20.2809671093201
      vertex -165.262171061698 -24.8429682852616 20.2868238901045
      vertex -167.012707193975 -21.8700135160112 20.2941683089606
   endloop
endfacet
facet normal -0.511559815012985 0.802612800132048 -0.30678860592935
   outer loop
      vertex -155.472837602317 -14.4820717694671 20.3799702530836
      vertex -155.579144928306 -14.5876713717426 20.2809671093201
      vertex -167.012707193975 -21.8700135160112 20.2941683089606
   endloop
endfacet
facet normal -0.5116457154701 0.802690928686698 -0.306440752585515
   outer loop
      vertex -167.080286227198 -21.4183573496153 21.5943679448457
      vertex -155.472837602317 -14.4820717694671 20.3799702530836
      vertex -167.012707193975 -21.8700135160112 20.2941683089606
   endloop
endfacet
facet normal -0.5116457154701 0.802690928686698 -0.306440752585515
   outer loop
      vertex -155.472837602317 -14.4820717694671 20.3799702530836
      vertex -167.080286227198 -21.4183573496153 21.5943679448457
      vertex -170.533440899689 -22.6934211485723 24.016261973514
   endloop
endfacet
facet normal -0.511498098670975 0.802683762768951 -0.306705839597251
   outer loop
      vertex -170.533440899689 -22.6934211485723 24.016261973514
      vertex -167.080286227198 -21.4183573496153 21.5943679448457
      vertex -170.504801277337 -23.4730007635263 21.9282514813445
   endloop
endfacet
facet normal -0.124467474266231 -0.357839899766792 0.925450406010326
   outer loop
      vertex -167.07976150139 -42.7023791709495 21.5571340898423
      vertex -170.504276551529 -40.6477357570385 21.8910176263411
      vertex -169.36468787018 -42.6310340543558 21.2774120399564
   endloop
endfacet
facet normal -0.284659960435313 -0.44758134545931 -0.847726162225632
   outer loop
      vertex -167.012707193975 -42.2646052251824 20.2941683089606
      vertex -169.36468787018 -42.6310340543558 21.2774120399564
      vertex -170.482394690606 -40.0498374327995 20.2899126388612
   endloop
endfacet
facet normal -0.875953428061355 -0.447868693191053 -0.179218373854075
   outer loop
      vertex -170.482394690606 -40.0498374327995 20.2899126388612
      vertex -169.36468787018 -42.6310340543558 21.2774120399564
      vertex -170.504276551529 -40.6477357570385 21.8910176263411
   endloop
endfacet
facet normal 0.0105243556007246 -0.944969192000076 -0.326990006131553
   outer loop
      vertex -167.07976150139 -42.7023791709495 21.5571340898423
      vertex -169.36468787018 -42.6310340543558 21.2774120399564
      vertex -167.012707193975 -42.2646052251824 20.2941683089606
   endloop
endfacet
endsolid 黑熊2015-3列印d
