solid 黑熊2015-3列印d
facet normal 0.192648301888593 -0.0465703490517899 -0.980162146978058
   outer loop
      vertex -69.9667680417485 -38.2129847807119 20.2902720554157
      vertex -67.7629512833614 -41.4226451633583 20.8759267476563
      vertex -70.4827322328821 -40.3063799800793 20.2883239286437
   endloop
endfacet
facet normal 0.192648301888593 -0.0465703490517899 -0.980162146978058
   outer loop
      vertex -67.7629512833614 -41.4226451633583 20.8759267476563
      vertex -69.9667680417485 -38.2129847807119 20.2902720554157
      vertex -67.2124923729904 -39.1892962988018 20.8780051161915
   endloop
endfacet
facet normal 0.192648301888593 -0.0465703490517899 -0.980162146978058
   outer loop
      vertex -68.9348396594812 -34.0261943819767 20.2941683089596
      vertex -66.6620334626192 -36.9559474342448 20.8800834847267
      vertex -69.4508038506149 -36.1195895813442 20.2922201821876
   endloop
endfacet
facet normal 0.192648301888593 -0.0465703490517899 -0.980162146978058
   outer loop
      vertex -66.6620334626192 -36.9559474342448 20.8800834847267
      vertex -68.9348396594812 -34.0261943819767 20.2941683089596
      vertex -63.2883094450146 -35.4190027573996 21.4701553975642
   endloop
endfacet
facet normal 0.192648301888593 -0.0465703490517899 -0.980162146978058
   outer loop
      vertex -66.6620334626192 -36.9559474342448 20.8800834847267
      vertex -63.2883094450146 -35.4190027573996 21.4701553975642
      vertex -66.2130775930585 -47.2855154061294 21.4591123460722
   endloop
endfacet
facet normal 0.192648301888593 -0.0465703490517899 -0.980162146978058
   outer loop
      vertex -66.2130775930585 -47.2855154061294 21.4591123460722
      vertex -63.2883094450146 -35.4190027573996 21.4701553975642
      vertex -63.562286082013 -48.6816879197869 22.0464546815583
   endloop
endfacet
facet normal 0.192648301888593 -0.0465703490517899 -0.980162146978058
   outer loop
      vertex -63.562286082013 -48.6816879197869 22.0464546815583
      vertex -63.2883094450146 -35.4190027573996 21.4701553975642
      vertex -60.4650443377811 -36.1154069451112 22.0581489418665
   endloop
endfacet
facet normal 0.192648301888593 -0.0465703490517899 -0.980162146978058
   outer loop
      vertex -70.9986964240158 -42.3997751794468 20.2863758018718
      vertex -66.2130775930585 -47.2855154061294 21.4591123460722
      vertex -71.5146606151492 -44.4931703788144 20.2844276750999
   endloop
endfacet
facet normal 0.192648301888593 -0.0465703490517899 -0.980162146978058
   outer loop
      vertex -66.2130775930585 -47.2855154061294 21.4591123460722
      vertex -70.9986964240158 -42.3997751794468 20.2863758018718
      vertex -68.3134101937327 -43.6559940279152 20.8738483791213
   endloop
endfacet
facet normal 0.192648301888593 -0.0465703490517899 -0.980162146978058
   outer loop
      vertex -66.2130775930585 -47.2855154061294 21.4591123460722
      vertex -68.3134101937327 -43.6559940279152 20.8738483791213
      vertex -67.7629512833614 -41.4226451633583 20.8759267476563
   endloop
endfacet
facet normal 0.192648301888593 -0.0465703490517899 -0.980162146978058
   outer loop
      vertex -66.2130775930585 -47.2855154061294 21.4591123460722
      vertex -67.7629512833614 -41.4226451633583 20.8759267476563
      vertex -67.2124923729904 -39.1892962988018 20.8780051161915
   endloop
endfacet
facet normal 0.192648301888593 -0.0465703490517899 -0.980162146978058
   outer loop
      vertex -66.2130775930585 -47.2855154061294 21.4591123460722
      vertex -67.2124923729904 -39.1892962988018 20.8780051161915
      vertex -66.6620334626192 -36.9559474342448 20.8800834847267
   endloop
endfacet
facet normal -0.914338620030247 0.225672163434905 -0.336239442320191
   outer loop
      vertex -71.5337506920836 -40.0034265595477 23.349698627403
      vertex -69.9667680417485 -38.2129847807119 20.2902720554157
      vertex -70.4827322328821 -40.3063799800793 20.2883239286437
   endloop
endfacet
facet normal -0.914338620030247 0.225672163434905 -0.336239442320191
   outer loop
      vertex -69.9667680417485 -38.2129847807119 20.2902720554157
      vertex -71.5337506920836 -40.0034265595477 23.349698627403
      vertex -71.076528493532 -38.1483622509387 23.3514249619453
   endloop
endfacet
facet normal -0.914338620030275 0.225672163434835 -0.336239442320163
   outer loop
      vertex -72.4481950891869 -43.7135551767664 23.3462459583185
      vertex -70.9986964240158 -42.3997751794468 20.2863758018718
      vertex -71.5146606151492 -44.4931703788144 20.2844276750999
   endloop
endfacet
facet normal -0.914338620030275 0.225672163434835 -0.336239442320163
   outer loop
      vertex -70.9986964240158 -42.3997751794468 20.2863758018718
      vertex -72.4481950891869 -43.7135551767664 23.3462459583185
      vertex -71.9909728906352 -41.8584908681571 23.3479722928608
   endloop
endfacet
facet normal -0.623224427687385 0.152893905969749 0.766951606198882
   outer loop
      vertex -67.9591952997954 -45.8074417349662 27.4114265954978
      vertex -71.9909728906352 -41.8584908681571 23.3479722928608
      vertex -72.4481950891869 -43.7135551767664 23.3462459583185
   endloop
endfacet
facet normal -0.623224427687385 0.152893905969749 0.766951606198882
   outer loop
      vertex -71.9909728906352 -41.8584908681571 23.3479722928608
      vertex -67.9591952997954 -45.8074417349662 27.4114265954978
      vertex -69.7391502182288 -42.8757238147014 25.3805902600732
   endloop
endfacet
facet normal -0.623224427687385 0.152893905969749 0.766951606198882
   outer loop
      vertex -69.7391502182288 -42.8757238147014 25.3805902600732
      vertex -67.9591952997954 -45.8074417349662 27.4114265954978
      vertex -69.2746052419666 -40.990949173536 25.3823442432383
   endloop
endfacet
facet normal -0.623224427687385 0.152893905969749 0.766951606198882
   outer loop
      vertex -69.2746052419666 -40.990949173536 25.3823442432383
      vertex -67.9591952997954 -45.8074417349662 27.4114265954978
      vertex -68.8100602657042 -39.106174532371 25.3840982264033
   endloop
endfacet
facet normal -0.623224427687385 0.152893905969749 0.766951606198882
   outer loop
      vertex -68.8100602657042 -39.106174532371 25.3840982264033
      vertex -67.9591952997954 -45.8074417349662 27.4114265954978
      vertex -68.345515289442 -37.2213998912061 25.3858522095683
   endloop
endfacet
facet normal -0.623224427687385 0.152893905969749 0.766951606198882
   outer loop
      vertex -68.345515289442 -37.2213998912061 25.3858522095683
      vertex -70.1620840964285 -34.43823363372 23.3548776310298
      vertex -70.6193062949803 -36.2932979423295 23.3531512964875
   endloop
endfacet
facet normal -0.623224427687385 0.152893905969749 0.766951606198882
   outer loop
      vertex -70.1620840964285 -34.43823363372 23.3548776310298
      vertex -68.345515289442 -37.2213998912061 25.3858522095683
      vertex -65.5998565299306 -36.2350168663615 27.4203347544368
   endloop
endfacet
facet normal -0.623224427687385 0.152893905969749 0.766951606198882
   outer loop
      vertex -65.5998565299306 -36.2350168663615 27.4203347544368
      vertex -68.345515289442 -37.2213998912061 25.3858522095683
      vertex -67.9591952997954 -45.8074417349662 27.4114265954978
   endloop
endfacet
facet normal -0.623224427687385 0.152893905969749 0.766951606198882
   outer loop
      vertex -65.5998565299306 -36.2350168663615 27.4203347544368
      vertex -67.9591952997954 -45.8074417349662 27.4114265954978
      vertex -65.7146954050996 -46.8543850140662 29.4440169140873
   endloop
endfacet
facet normal -0.623224427687385 0.152893905969749 0.766951606198882
   outer loop
      vertex -65.5998565299306 -36.2350168663615 27.4203347544368
      vertex -65.7146954050996 -46.8543850140662 29.4440169140873
      vertex -63.4701955104036 -47.9013282931663 31.4766072326769
   endloop
endfacet
facet normal -0.623224427687385 0.152893905969749 0.766951606198882
   outer loop
      vertex -65.5998565299306 -36.2350168663615 27.4203347544368
      vertex -63.4701955104036 -47.9013282931663 31.4766072326769
      vertex -63.3187427466817 -37.1334084826822 29.4530633161405
   endloop
endfacet
facet normal -0.623224427687385 0.152893905969749 0.766951606198882
   outer loop
      vertex -63.3187427466817 -37.1334084826822 29.4530633161405
      vertex -63.4701955104036 -47.9013282931663 31.4766072326769
      vertex -61.0376289634326 -38.0318000990033 31.485791877844
   endloop
endfacet
facet normal -0.623224427687385 0.152893905969749 0.766951606198882
   outer loop
      vertex -69.2746052419666 -40.990949173536 25.3823442432383
      vertex -71.076528493532 -38.1483622509387 23.3514249619453
      vertex -71.5337506920836 -40.0034265595477 23.349698627403
   endloop
endfacet
facet normal -0.623224427687385 0.152893905969749 0.766951606198882
   outer loop
      vertex -71.076528493532 -38.1483622509387 23.3514249619453
      vertex -69.2746052419666 -40.990949173536 25.3823442432383
      vertex -68.8100602657042 -39.106174532371 25.3840982264033
   endloop
endfacet
facet normal -0.914338620030235 0.225672163434949 -0.336239442320196
   outer loop
      vertex -70.1620840964285 -34.43823363372 23.3548776310298
      vertex -69.4508038506149 -36.1195895813442 20.2922201821876
      vertex -70.6193062949803 -36.2932979423295 23.3531512964875
   endloop
endfacet
facet normal -0.914338620030235 0.225672163434949 -0.336239442320196
   outer loop
      vertex -69.4508038506149 -36.1195895813442 20.2922201821876
      vertex -70.1620840964285 -34.43823363372 23.3548776310298
      vertex -68.9348396594812 -34.0261943819767 20.2941683089596
   endloop
endfacet
facet normal 0.180405905971641 -0.981326975319229 0.066716389301022
   outer loop
      vertex -28.1614023178888 -51.2963594431053 22.0439575108638
      vertex -50.1965176440129 -54.7064123320619 31.4702478570506
      vertex -50.4642231138786 -55.3967385743295 22.0401794424549
   endloop
endfacet
facet normal 0.180405905971641 -0.981326975319229 0.066716389301022
   outer loop
      vertex -50.1965176440129 -54.7064123320619 31.4702478570506
      vertex -28.1614023178888 -51.2963594431053 22.0439575108638
      vertex -35.0269424265567 -51.9174821684664 31.4728175630726
   endloop
endfacet
facet normal 1.77390147702904e-006 -0.00093104311967768 0.999999566577688
   outer loop
      vertex -50.1965176440129 -54.7064123320619 31.4702478570506
      vertex -61.0376289634326 -38.0318000990033 31.485791877844
      vertex -63.4701955104036 -47.9013282931663 31.4766072326769
   endloop
endfacet
facet normal 1.77390147702904e-006 -0.00093104311967768 0.999999566577688
   outer loop
      vertex -61.0376289634326 -38.0318000990033 31.485791877844
      vertex -50.1965176440129 -54.7064123320619 31.4702478570506
      vertex -32.3069072293742 -37.9770599169052 31.485791877844
   endloop
endfacet
facet normal 1.77390147702904e-006 -0.00093104311967768 0.999999566577688
   outer loop
      vertex -32.3069072293742 -37.9770599169052 31.485791877844
      vertex -50.1965176440129 -54.7064123320619 31.4702478570506
      vertex -35.0269424265567 -51.9174821684664 31.4728175630726
   endloop
endfacet
facet normal 1.77390147702904e-006 -0.00093104311967768 0.999999566577688
   outer loop
      vertex -32.3069072293742 -37.9770599169052 31.485791877844
      vertex -35.0269424265567 -51.9174821684664 31.4728175630726
      vertex -29.4482098189292 -42.4279455713475 31.4816428385335
   endloop
endfacet
facet normal -0.00186713876157034 0.979979279239065 0.199090748290643
   outer loop
      vertex -61.0376289634326 -38.0318000990033 31.485791877844
      vertex -25.5772392015402 -36.0489357710204 22.0581489418665
      vertex -60.4650443377811 -36.1154069451112 22.0581489418665
   endloop
endfacet
facet normal -0.00186713876157034 0.979979279239065 0.199090748290643
   outer loop
      vertex -25.5772392015402 -36.0489357710204 22.0581489418665
      vertex -61.0376289634326 -38.0318000990033 31.485791877844
      vertex -32.3069072293742 -37.9770599169052 31.485791877844
   endloop
endfacet
facet normal -0.454799818809311 -0.887183960884504 0.0778572049350686
   outer loop
      vertex -50.1965176440129 -54.7064123320619 31.4702478570506
      vertex -63.562286082013 -48.6816879197869 22.0464546815583
      vertex -50.4642231138786 -55.3967385743295 22.0401794424549
   endloop
endfacet
facet normal -0.454799818809311 -0.887183960884504 0.0778572049350686
   outer loop
      vertex -63.562286082013 -48.6816879197869 22.0464546815583
      vertex -50.1965176440129 -54.7064123320619 31.4702478570506
      vertex -63.4701955104036 -47.9013282931663 31.4766072326769
   endloop
endfacet
facet normal -0.477942166652937 -0.875003253826623 0.077075230313758
   outer loop
      vertex -66.2130775930585 -47.2855154061294 21.4591123460722
      vertex -72.4481950891869 -43.7135551767664 23.3462459583185
      vertex -71.5146606151492 -44.4931703788144 20.2844276750999
   endloop
endfacet
facet normal -0.477942166652937 -0.875003253826623 0.077075230313758
   outer loop
      vertex -72.4481950891869 -43.7135551767664 23.3462459583185
      vertex -66.2130775930585 -47.2855154061294 21.4591123460722
      vertex -63.562286082013 -48.6816879197869 22.0464546815583
   endloop
endfacet
facet normal -0.477942166652937 -0.875003253826623 0.077075230313758
   outer loop
      vertex -72.4481950891869 -43.7135551767664 23.3462459583185
      vertex -63.562286082013 -48.6816879197869 22.0464546815583
      vertex -63.4701955104036 -47.9013282931663 31.4766072326769
   endloop
endfacet
facet normal -0.477942166652937 -0.875003253826623 0.077075230313758
   outer loop
      vertex -72.4481950891869 -43.7135551767664 23.3462459583185
      vertex -63.4701955104036 -47.9013282931663 31.4766072326769
      vertex -67.9591952997954 -45.8074417349662 27.4114265954978
   endloop
endfacet
facet normal -0.477942166652937 -0.875003253826623 0.077075230313758
   outer loop
      vertex -67.9591952997954 -45.8074417349662 27.4114265954978
      vertex -63.4701955104036 -47.9013282931663 31.4766072326769
      vertex -65.7146954050996 -46.8543850140662 29.4440169140873
   endloop
endfacet
facet normal -0.254539683985661 -0.955141544252039 -0.151374303368539
   outer loop
      vertex -66.6620334626192 -36.9559474342448 20.8800834847267
      vertex -70.6193062949803 -36.2932979423295 23.3531512964875
      vertex -69.4508038506149 -36.1195895813442 20.2922201821876
   endloop
endfacet
facet normal -0.254539683985661 -0.955141544252039 -0.151374303368539
   outer loop
      vertex -70.6193062949803 -36.2932979423295 23.3531512964875
      vertex -66.6620334626192 -36.9559474342448 20.8800834847267
      vertex -68.345515289442 -37.2213998912061 25.3858522095683
   endloop
endfacet
facet normal -0.916753382080829 0.226260780016911 -0.329194920783265
   outer loop
      vertex -69.7391502182288 -42.8757238147014 25.3805902600732
      vertex -67.7629512833614 -41.4226451633583 20.8759267476563
      vertex -68.3134101937327 -43.6559940279152 20.8738483791213
   endloop
endfacet
facet normal -0.916753382080829 0.226260780016911 -0.329194920783265
   outer loop
      vertex -67.7629512833614 -41.4226451633583 20.8759267476563
      vertex -69.7391502182288 -42.8757238147014 25.3805902600732
      vertex -69.2746052419666 -40.990949173536 25.3823442432383
   endloop
endfacet
facet normal 0.314709369743392 0.944506906005853 0.0941526266387067
   outer loop
      vertex -71.076528493532 -38.1483622509387 23.3514249619453
      vertex -67.2124923729904 -39.1892962988018 20.8780051161915
      vertex -69.9667680417485 -38.2129847807119 20.2902720554157
   endloop
endfacet
facet normal 0.314709369743392 0.944506906005853 0.0941526266387067
   outer loop
      vertex -67.2124923729904 -39.1892962988018 20.8780051161915
      vertex -71.076528493532 -38.1483622509387 23.3514249619453
      vertex -68.8100602657042 -39.106174532371 25.3840982264033
   endloop
endfacet
facet normal 0.685903256460256 0.439998963496358 0.579601272341035
   outer loop
      vertex -22.246432952963 -41.2348773454411 22.0533146960269
      vertex -32.3069072293742 -37.9770599169052 31.485791877844
      vertex -29.4482098189292 -42.4279455713475 31.4816428385335
   endloop
endfacet
facet normal 0.685903256460256 0.439998963496358 0.579601272341035
   outer loop
      vertex -32.3069072293742 -37.9770599169052 31.485791877844
      vertex -22.246432952963 -41.2348773454411 22.0533146960269
      vertex -25.5772392015402 -36.0489357710204 22.0581489418665
   endloop
endfacet
facet normal -0.916753382080825 0.226260780016939 -0.329194920783257
   outer loop
      vertex -68.8100602657042 -39.106174532371 25.3840982264033
      vertex -66.6620334626192 -36.9559474342448 20.8800834847267
      vertex -67.2124923729904 -39.1892962988018 20.8780051161915
   endloop
endfacet
facet normal -0.916753382080825 0.226260780016939 -0.329194920783257
   outer loop
      vertex -66.6620334626192 -36.9559474342448 20.8800834847267
      vertex -68.8100602657042 -39.106174532371 25.3840982264033
      vertex -68.345515289442 -37.2213998912061 25.3858522095683
   endloop
endfacet
facet normal 0.427454314790178 0.90378721431429 -0.0212480589531421
   outer loop
      vertex -71.9909728906352 -41.8584908681571 23.3479722928608
      vertex -68.3134101937327 -43.6559940279152 20.8738483791213
      vertex -70.9986964240158 -42.3997751794468 20.2863758018718
   endloop
endfacet
facet normal 0.427454314790178 0.90378721431429 -0.0212480589531421
   outer loop
      vertex -68.3134101937327 -43.6559940279152 20.8738483791213
      vertex -71.9909728906352 -41.8584908681571 23.3479722928608
      vertex -69.7391502182288 -42.8757238147014 25.3805902600732
   endloop
endfacet
facet normal -0.372735861287899 -0.927230823183983 -0.0362074335948035
   outer loop
      vertex -67.7629512833614 -41.4226451633583 20.8759267476563
      vertex -71.5337506920836 -40.0034265595477 23.349698627403
      vertex -70.4827322328821 -40.3063799800793 20.2883239286437
   endloop
endfacet
facet normal -0.372735861287899 -0.927230823183983 -0.0362074335948035
   outer loop
      vertex -71.5337506920836 -40.0034265595477 23.349698627403
      vertex -67.7629512833614 -41.4226451633583 20.8759267476563
      vertex -69.2746052419666 -40.990949173536 25.3823442432383
   endloop
endfacet
facet normal 0.193520529599747 0.959073324460818 0.206707916953143
   outer loop
      vertex -70.1620840964285 -34.43823363372 23.3548776310298
      vertex -63.2883094450146 -35.4190027573996 21.4701553975642
      vertex -68.9348396594812 -34.0261943819767 20.2941683089596
   endloop
endfacet
facet normal 0.193520529599747 0.959073324460818 0.206707916953143
   outer loop
      vertex -63.2883094450146 -35.4190027573996 21.4701553975642
      vertex -70.1620840964285 -34.43823363372 23.3548776310298
      vertex -60.4650443377811 -36.1154069451112 22.0581489418665
   endloop
endfacet
facet normal 0.193520529599747 0.959073324460818 0.206707916953143
   outer loop
      vertex -60.4650443377811 -36.1154069451112 22.0581489418665
      vertex -70.1620840964285 -34.43823363372 23.3548776310298
      vertex -65.5998565299306 -36.2350168663615 27.4203347544368
   endloop
endfacet
facet normal 0.193520529599747 0.959073324460818 0.206707916953143
   outer loop
      vertex -60.4650443377811 -36.1154069451112 22.0581489418665
      vertex -65.5998565299306 -36.2350168663615 27.4203347544368
      vertex -61.0376289634326 -38.0318000990033 31.485791877844
   endloop
endfacet
facet normal 0.193520529599747 0.959073324460818 0.206707916953143
   outer loop
      vertex -61.0376289634326 -38.0318000990033 31.485791877844
      vertex -65.5998565299306 -36.2350168663615 27.4203347544368
      vertex -63.3187427466817 -37.1334084826822 29.4530633161405
   endloop
endfacet
facet normal 0.501489047540753 0.865160249974794 0.00254500691946402
   outer loop
      vertex -30.8301065687515 -47.4478711485525 24.2635980585862
      vertex -31.0381820104471 -47.3255472680643 23.6812012339973
      vertex -32.8003009657495 -46.3056677067525 24.201475001926
   endloop
endfacet
facet normal 0.854670377800235 -0.502445619083439 -0.130717042403292
   outer loop
      vertex -27.0165429753585 -49.6897978909219 22.4302259264828
      vertex -23.5192281714476 -43.8738304980832 22.9415902157299
      vertex -26.9584202968769 -49.7239673438091 22.9415901851703
   endloop
endfacet
facet normal 0.854670377800235 -0.502445619083439 -0.130717042403292
   outer loop
      vertex -23.5192281714476 -43.8738304980832 22.9415902157299
      vertex -27.0165429753585 -49.6897978909219 22.4302259264828
      vertex -23.5773508499292 -43.8396610451958 22.4302259570424
   endloop
endfacet
facet normal 0.330052126146819 -0.194031820347203 0.923805849039026
   outer loop
      vertex -27.986084961005 -49.1198212661653 25.1469011079455
      vertex -25.0489580073543 -42.9745291653985 25.3882691587036
      vertex -28.4881501327834 -48.8246660111244 25.388269128144
   endloop
endfacet
facet normal 0.330052126146819 -0.194031820347203 0.923805849039026
   outer loop
      vertex -25.0489580073543 -42.9745291653985 25.3882691587036
      vertex -27.986084961005 -49.1198212661653 25.1469011079455
      vertex -24.5468928355758 -43.2696844204395 25.1469011385051
   endloop
endfacet
facet normal 0.501085563586416 0.865397451425719 0.000713464192254176
   outer loop
      vertex -32.8003009657495 -46.3056677067525 24.201475001926
      vertex -31.0381820104471 -47.3255472680643 23.6812012339973
      vertex -32.9068022226622 -46.2430570704048 23.0565783222904
   endloop
endfacet
facet normal 0.501432706975369 0.865183552927471 0.00476026460947391
   outer loop
      vertex -30.4991770974621 -47.6424187451549 24.7636795520993
      vertex -30.8301065687515 -47.4478711485525 24.2635980585862
      vertex -32.8003009657495 -46.3056677067525 24.201475001926
   endloop
endfacet
facet normal 0.684024867604895 -0.40212614147345 0.608608697638951
   outer loop
      vertex -23.7850255345358 -43.7175727627888 24.2627928946965
      vertex -27.5549811322329 -49.373259599833 24.7630221135846
      vertex -27.2242176599651 -49.5677096085149 24.2627928641369
   endloop
endfacet
facet normal 0.684024867604895 -0.40212614147345 0.608608697638951
   outer loop
      vertex -27.5549811322329 -49.373259599833 24.7630221135846
      vertex -23.7850255345358 -43.7175727627888 24.2627928946965
      vertex -24.1157890068036 -43.5231227541071 24.7630221441441
   endloop
endfacet
facet normal -0.683822825553419 0.402007358159873 0.608914137820316
   outer loop
      vertex -27.0599849720327 -41.7922818994288 24.7636795826589
      vertex -30.8301065687515 -47.4478711485525 24.2635980585862
      vertex -30.4991770974621 -47.6424187451549 24.7636795520993
   endloop
endfacet
facet normal -0.683822825553419 0.402007358159873 0.608914137820316
   outer loop
      vertex -30.8301065687515 -47.4478711485525 24.2635980585862
      vertex -27.0599849720327 -41.7922818994288 24.7636795826589
      vertex -27.390914443322 -41.5977343028267 24.2635980891458
   endloop
endfacet
facet normal 0.501085299070937 0.865397606588367 -0.000711031726485658
   outer loop
      vertex -32.5968680778577 -46.4233443931797 22.0485023680471
      vertex -31.0383894575813 -47.3254253135233 22.4311240041954
      vertex -32.3368531967252 -46.5738991595424 22.0483617337661
   endloop
endfacet
facet normal 0.501085299070937 0.865397606588367 -0.000711031726485658
   outer loop
      vertex -31.0383894575813 -47.3254253135233 22.4311240041954
      vertex -32.5968680778577 -46.4233443931797 22.0485023680471
      vertex -31.0963234826684 -47.2913666108379 23.0561755789473
   endloop
endfacet
facet normal 0.806437930650519 -0.474015236878449 -0.353507311402717
   outer loop
      vertex -27.2246184170543 -49.5674740104334 21.8478291018939
      vertex -23.7205448513861 -43.7554823786367 22.048219891553
      vertex -27.1605666783338 -49.6051310869186 22.0431778554014
   endloop
endfacet
facet normal 0.806437930650519 -0.474015236878449 -0.353507311402717
   outer loop
      vertex -23.7205448513861 -43.7554823786367 22.048219891553
      vertex -27.2246184170543 -49.5674740104334 21.8478291018939
      vertex -23.7854262916248 -43.7173371647075 21.8478291324535
   endloop
endfacet
facet normal 0.501085535497737 0.865397467597337 0.000713576248167985
   outer loop
      vertex -31.0381820104471 -47.3255472680643 23.6812012339973
      vertex -31.0963234826684 -47.2913666108379 23.0561755789473
      vertex -32.9068022226622 -46.2430570704048 23.0565783222904
   endloop
endfacet
facet normal 0.524924878366559 -0.308594068817406 0.793236139344755
   outer loop
      vertex -27.5549811322329 -49.373259599833 24.7630221135846
      vertex -24.5468928355758 -43.2696844204395 25.1469011385051
      vertex -27.986084961005 -49.1198212661653 25.1469011079455
   endloop
endfacet
facet normal 0.524924878366559 -0.308594068817406 0.793236139344755
   outer loop
      vertex -24.5468928355758 -43.2696844204395 25.1469011385051
      vertex -27.5549811322329 -49.373259599833 24.7630221135846
      vertex -24.1157890068036 -43.5231227541071 24.7630221441441
   endloop
endfacet
facet normal 0.112686866966984 -0.0662466239730208 0.991419716782626
   outer loop
      vertex -28.4881501327834 -48.8246660111244 25.388269128144
      vertex -25.4664137051222 -42.7291143433121 25.4521166665185
      vertex -28.908161542083 -48.5777487285106 25.4525075178996
   endloop
endfacet
facet normal 0.112686866966984 -0.0662466239730208 0.991419716782626
   outer loop
      vertex -25.4664137051222 -42.7291143433121 25.4521166665185
      vertex -28.4881501327834 -48.8246660111244 25.388269128144
      vertex -25.0489580073543 -42.9745291653985 25.3882691587036
   endloop
endfacet
facet normal -0.79650969252056 0.468253982132986 -0.382505578962458
   outer loop
      vertex -31.0383894575813 -47.3254253135233 22.4311240041954
      vertex -27.4642596909474 -41.5546158627332 22.0530262614662
      vertex -30.9015097656753 -47.4058944089748 22.0475845638188
   endloop
endfacet
facet normal -0.79650969252056 0.468253982132986 -0.382505578962458
   outer loop
      vertex -27.4642596909474 -41.5546158627332 22.0530262614662
      vertex -31.0383894575813 -47.3254253135233 22.4311240041954
      vertex -27.5991973321519 -41.4752884677974 22.4311240347549
   endloop
endfacet
facet normal -0.506793575022253 -0.862067440700457 5.73191568797108e-007
   outer loop
      vertex -27.0165429753585 -49.6897978909219 22.4302259264828
      vertex -28.908161542083 -48.5777487285106 25.4525075178996
      vertex -27.1605666783338 -49.6051310869186 22.0431778554014
   endloop
endfacet
facet normal -0.506793575022253 -0.862067440700457 5.73191568797108e-007
   outer loop
      vertex -28.908161542083 -48.5777487285106 25.4525075178996
      vertex -27.0165429753585 -49.6897978909219 22.4302259264828
      vertex -26.9584202968769 -49.7239673438091 22.9415901851703
   endloop
endfacet
facet normal -0.506793575022253 -0.862067440700457 5.73191568797108e-007
   outer loop
      vertex -28.908161542083 -48.5777487285106 25.4525075178996
      vertex -26.9584202968769 -49.7239673438091 22.9415901851703
      vertex -26.9583825732381 -49.7239895208764 23.1689129778954
   endloop
endfacet
facet normal -0.506793575022253 -0.862067440700457 5.73191568797108e-007
   outer loop
      vertex -28.908161542083 -48.5777487285106 25.4525075178996
      vertex -26.9583825732381 -49.7239895208764 23.1689129778954
      vertex -27.0163355282243 -49.6899198454626 23.6803031562847
   endloop
endfacet
facet normal -0.506793575022253 -0.862067440700457 5.73191568797108e-007
   outer loop
      vertex -28.908161542083 -48.5777487285106 25.4525075178996
      vertex -27.0163355282243 -49.6899198454626 23.6803031562847
      vertex -27.2242176599651 -49.5677096085149 24.2627928641369
   endloop
endfacet
facet normal -0.506793575022253 -0.862067440700457 5.73191568797108e-007
   outer loop
      vertex -28.908161542083 -48.5777487285106 25.4525075178996
      vertex -27.2242176599651 -49.5677096085149 24.2627928641369
      vertex -27.5549811322329 -49.373259599833 24.7630221135846
   endloop
endfacet
facet normal -0.506793575022253 -0.862067440700457 5.73191568797108e-007
   outer loop
      vertex -28.908161542083 -48.5777487285106 25.4525075178996
      vertex -27.5549811322329 -49.373259599833 24.7630221135846
      vertex -27.986084961005 -49.1198212661653 25.1469011079455
   endloop
endfacet
facet normal -0.506793575022253 -0.862067440700457 5.73191568797108e-007
   outer loop
      vertex -28.908161542083 -48.5777487285106 25.4525075178996
      vertex -27.986084961005 -49.1198212661653 25.1469011079455
      vertex -28.4881501327834 -48.8246660111244 25.388269128144
   endloop
endfacet
facet normal 0.502007886326401 0.86399193790081 0.038807387292913
   outer loop
      vertex -29.1016882012677 -48.4800169410589 25.8163710988446
      vertex -29.0269617358137 -48.5079081775743 25.4706773424832
      vertex -32.4032094986443 -46.5391107805919 25.3129219343735
   endloop
endfacet
facet normal 0.502007886326401 0.86399193790081 0.038807387292913
   outer loop
      vertex -29.0269617358137 -48.5079081775743 25.4706773424832
      vertex -29.1016882012677 -48.4800169410589 25.8163710988446
      vertex -28.9315424392537 -48.5645612264405 25.497644839397
   endloop
endfacet
facet normal 0.506794075718427 0.862067146350391 1.42837827721343e-009
   outer loop
      vertex -31.784792120422 -46.9026674551108 26.2474385465993
      vertex -29.1016882012677 -48.4800169410589 25.8163710988446
      vertex -32.4032094986443 -46.5391107805919 25.3129219343735
   endloop
endfacet
facet normal 0.506794075718427 0.862067146350391 1.42837827721343e-009
   outer loop
      vertex -29.1016882012677 -48.4800169410589 25.8163710988446
      vertex -31.784792120422 -46.9026674551108 26.2474385465993
      vertex -29.3223681611029 -48.3502830843255 26.2468886876974
   endloop
endfacet
facet normal 0.506794075718451 0.862067146350376 1.4288550512901e-009
   outer loop
      vertex -29.5011512876416 -48.2451796370437 26.5956710629635
      vertex -29.3223681611029 -48.3502830843255 26.2468886876974
      vertex -31.784792120422 -46.9026674551108 26.2474385465993
   endloop
endfacet
facet normal 0.506794075718459 0.862067146350372 1.42853662560352e-009
   outer loop
      vertex -30.9789380215083 -47.3764148725553 26.9644443788833
      vertex -29.5011512876416 -48.2451796370437 26.5956710629635
      vertex -31.784792120422 -46.9026674551108 26.2474385465993
   endloop
endfacet
facet normal 0.506794075718459 0.862067146350372 1.42853662560352e-009
   outer loop
      vertex -29.5011512876416 -48.2451796370437 26.5956710629635
      vertex -30.9789380215083 -47.3764148725553 26.9644443788833
      vertex -29.6900340842983 -48.1341387718051 26.9641565668268
   endloop
endfacet
facet normal 0.329745499433705 -0.193851550266048 -0.923953181748224
   outer loop
      vertex -25.0497322105991 -42.9740740248558 20.7229174236979
      vertex -27.9867790926448 -49.1194131983184 20.9640611733026
      vertex -28.4889243360284 -48.8242108705819 20.7229173931383
   endloop
endfacet
facet normal 0.329745499433705 -0.193851550266048 -0.923953181748224
   outer loop
      vertex -27.9867790926448 -49.1194131983184 20.9640611733026
      vertex -25.0497322105991 -42.9740740248558 20.7229174236979
      vertex -24.5475869672156 -43.2692763525926 20.9640612038622
   endloop
endfacet
facet normal 0.854713698185499 -0.50247108773649 0.130335337199767
   outer loop
      vertex -23.5191904478087 -43.8738526751505 23.168913008455
      vertex -27.0163355282243 -49.6899198454626 23.6803031562847
      vertex -26.9583825732381 -49.7239895208764 23.1689129778954
   endloop
endfacet
facet normal 0.854713698185499 -0.50247108773649 0.130335337199767
   outer loop
      vertex -27.0163355282243 -49.6899198454626 23.6803031562847
      vertex -23.5191904478087 -43.8738526751505 23.168913008455
      vertex -23.577143402795 -43.8397829997368 23.6803031868443
   endloop
endfacet
facet normal 0.862067141896861 -0.506794046734701 -0.000192499461360326
   outer loop
      vertex -26.9584202968769 -49.7239673438091 22.9415901851703
      vertex -23.5191904478087 -43.8738526751505 23.168913008455
      vertex -26.9583825732381 -49.7239895208764 23.1689129778954
   endloop
endfacet
facet normal 0.862067141896861 -0.506794046734701 -0.000192499461360326
   outer loop
      vertex -23.5191904478087 -43.8738526751505 23.168913008455
      vertex -26.9584202968769 -49.7239673438091 22.9415901851703
      vertex -23.5192281714476 -43.8738304980832 22.9415902157299
   endloop
endfacet
facet normal -0.796509692520448 0.468253982132929 -0.382505578962759
   outer loop
      vertex -30.9015097656753 -47.4058944089748 22.0475845638188
      vertex -27.3913152004111 -41.5974987047455 21.8486343269027
      vertex -30.8305073258405 -47.4476355504714 21.8486342963431
   endloop
endfacet
facet normal -0.796509692520448 0.468253982132929 -0.382505578962759
   outer loop
      vertex -27.3913152004111 -41.5974987047455 21.8486343269027
      vertex -30.9015097656753 -47.4058944089748 22.0475845638188
      vertex -27.4642596909474 -41.5546158627332 22.0530262614662
   endloop
endfacet
facet normal -0.857127223684072 0.503889956626551 -0.10690104784579
   outer loop
      vertex -31.0963234826684 -47.2913666108379 23.0561755789473
      vertex -27.5991973321519 -41.4752884677974 22.4311240347549
      vertex -31.0383894575813 -47.3254253135233 22.4311240041954
   endloop
endfacet
facet normal -0.857127223684072 0.503889956626551 -0.10690104784579
   outer loop
      vertex -27.5991973321519 -41.4752884677974 22.4311240347549
      vertex -31.0963234826684 -47.2913666108379 23.0561755789473
      vertex -27.6571313572389 -41.4412297651118 23.0561756095069
   endloop
endfacet
facet normal 0.683822825553506 -0.402007358159926 -0.608914137820182
   outer loop
      vertex -27.5555478883435 -49.3729264138312 21.3477476083807
      vertex -23.7854262916248 -43.7173371647075 21.8478291324535
      vertex -27.2246184170543 -49.5674740104334 21.8478291018939
   endloop
endfacet
facet normal 0.683822825553506 -0.402007358159926 -0.608914137820182
   outer loop
      vertex -23.7854262916248 -43.7173371647075 21.8478291324535
      vertex -27.5555478883435 -49.3729264138312 21.3477476083807
      vertex -24.1163557629141 -43.5227895681052 21.3477476389403
   endloop
endfacet
facet normal 0.112686866967543 -0.0662466239733518 0.99141971678254
   outer loop
      vertex -28.908161542083 -48.5777487285106 25.4525075178996
      vertex -25.5877696103844 -42.6577713318484 25.4706773730428
      vertex -29.0269617358137 -48.5079081775743 25.4706773424832
   endloop
endfacet
facet normal 0.112686866967543 -0.0662466239733518 0.99141971678254
   outer loop
      vertex -25.5877696103844 -42.6577713318484 25.4706773730428
      vertex -28.908161542083 -48.5777487285106 25.4525075178996
      vertex -25.4664137051222 -42.7291143433121 25.4521166665185
   endloop
endfacet
facet normal -0.330052126146848 0.194031820347219 -0.923805849039012
   outer loop
      vertex -26.6294478993712 -42.0453870470947 20.9645260830942
      vertex -29.566574853022 -48.1906791478617 20.723158032336
      vertex -30.0686400248005 -47.8955238928208 20.9645260525347
   endloop
endfacet
facet normal -0.330052126146848 0.194031820347219 -0.923805849039012
   outer loop
      vertex -29.566574853022 -48.1906791478617 20.723158032336
      vertex -26.6294478993712 -42.0453870470947 20.9645260830942
      vertex -26.1273827275926 -42.3405423021357 20.7231580628956
   endloop
endfacet
facet normal 0.112357815972517 -0.0660531703470402 -0.991469969225993
   outer loop
      vertex -25.5885711245626 -42.6573001356857 20.6407498485564
      vertex -28.4889243360284 -48.8242108705819 20.7229173931383
      vertex -29.0277632499919 -48.5074369814119 20.6407498179969
   endloop
endfacet
facet normal 0.112357815972517 -0.0660531703470402 -0.991469969225993
   outer loop
      vertex -28.4889243360284 -48.8242108705819 20.7229173931383
      vertex -25.5885711245626 -42.6573001356857 20.6407498485564
      vertex -25.0497322105991 -42.9740740248558 20.7229174236979
   endloop
endfacet
facet normal -0.524924878366466 0.308594068817339 -0.793236139344842
   outer loop
      vertex -27.0605517281433 -41.7919487134269 21.3484050774551
      vertex -30.0686400248005 -47.8955238928208 20.9645260525347
      vertex -30.4997438535727 -47.642085559153 21.3484050468955
   endloop
endfacet
facet normal -0.524924878366466 0.308594068817339 -0.793236139344842
   outer loop
      vertex -30.0686400248005 -47.8955238928208 20.9645260525347
      vertex -27.0605517281433 -41.7919487134269 21.3484050774551
      vertex -26.6294478993712 -42.0453870470947 20.9645260830942
   endloop
endfacet
facet normal -0.112357815972592 0.0660531703470793 0.991469969225982
   outer loop
      vertex -29.0269617358137 -48.5079081775743 25.4706773424832
      vertex -26.1266085243478 -42.3409974426784 25.3885097979014
      vertex -29.5658006497772 -48.1911342884044 25.3885097673418
   endloop
endfacet
facet normal -0.112357815972592 0.0660531703470793 0.991469969225982
   outer loop
      vertex -26.1266085243478 -42.3409974426784 25.3885097979014
      vertex -29.0269617358137 -48.5079081775743 25.4706773424832
      vertex -25.5877696103844 -42.6577713318484 25.4706773730428
   endloop
endfacet
facet normal -0.112686866967063 0.0662466239730626 -0.991419716782614
   outer loop
      vertex -26.1273827275926 -42.3405423021357 20.7231580628956
      vertex -29.0277632499919 -48.5074369814119 20.6407498179969
      vertex -29.566574853022 -48.1906791478617 20.723158032336
   endloop
endfacet
facet normal -0.112686866967063 0.0662466239730626 -0.991419716782614
   outer loop
      vertex -29.0277632499919 -48.5074369814119 20.6407498179969
      vertex -26.1273827275926 -42.3405423021357 20.7231580628956
      vertex -25.5885711245626 -42.6573001356857 20.6407498485564
   endloop
endfacet
facet normal -0.857091680734572 0.503869060435462 0.10728383266584
   outer loop
      vertex -27.5989898850176 -41.4754104223382 23.6812012645569
      vertex -31.0963234826684 -47.2913666108379 23.0561755789473
      vertex -31.0381820104471 -47.3255472680643 23.6812012339973
   endloop
endfacet
facet normal -0.857091680734572 0.503869060435462 0.10728383266584
   outer loop
      vertex -31.0963234826684 -47.2913666108379 23.0561755789473
      vertex -27.5989898850176 -41.4754104223382 23.6812012645569
      vertex -27.6571313572389 -41.4412297651118 23.0561756095069
   endloop
endfacet
facet normal -0.524661572038754 0.308439267389315 0.793470511839076
   outer loop
      vertex -30.0679458931608 -47.8959319606677 25.1473659871775
      vertex -27.0599849720327 -41.7922818994288 24.7636795826589
      vertex -30.4991770974621 -47.6424187451549 24.7636795520993
   endloop
endfacet
facet normal -0.524661572038754 0.308439267389315 0.793470511839076
   outer loop
      vertex -27.0599849720327 -41.7922818994288 24.7636795826589
      vertex -30.0679458931608 -47.8959319606677 25.1473659871775
      vertex -26.6287537677314 -42.0457951149418 25.147366017737
   endloop
endfacet
facet normal 0.524661572038754 -0.30843926738931 -0.793470511839078
   outer loop
      vertex -24.5475869672156 -43.2692763525926 20.9640612038622
      vertex -27.5555478883435 -49.3729264138312 21.3477476083807
      vertex -27.9867790926448 -49.1194131983184 20.9640611733026
   endloop
endfacet
facet normal 0.524661572038754 -0.30843926738931 -0.793470511839078
   outer loop
      vertex -27.5555478883435 -49.3729264138312 21.3477476083807
      vertex -24.5475869672156 -43.2692763525926 20.9640612038622
      vertex -24.1163557629141 -43.5227895681052 21.3477476389403
   endloop
endfacet
facet normal -0.329745499433626 0.193851550266015 0.923953181748259
   outer loop
      vertex -29.5658006497772 -48.1911342884044 25.3885097673418
      vertex -26.6287537677314 -42.0457951149418 25.147366017737
      vertex -30.0679458931608 -47.8959319606677 25.1473659871775
   endloop
endfacet
facet normal -0.329745499433626 0.193851550266015 0.923953181748259
   outer loop
      vertex -26.6287537677314 -42.0457951149418 25.147366017737
      vertex -29.5658006497772 -48.1911342884044 25.3885097673418
      vertex -26.1266085243478 -42.3409974426784 25.3885097979014
   endloop
endfacet
facet normal 0.796509692520603 -0.468253982133013 0.382505578962335
   outer loop
      vertex -23.577143402795 -43.8397829997368 23.6803031868443
      vertex -27.2242176599651 -49.5677096085149 24.2627928641369
      vertex -27.0163355282243 -49.6899198454626 23.6803031562847
   endloop
endfacet
facet normal 0.796509692520603 -0.468253982133013 0.382505578962335
   outer loop
      vertex -27.2242176599651 -49.5677096085149 24.2627928641369
      vertex -23.577143402795 -43.8397829997368 23.6803031868443
      vertex -23.7850255345358 -43.7175727627888 24.2627928946965
   endloop
endfacet
facet normal -0.796382683577443 0.468179311820516 0.382861271587056
   outer loop
      vertex -27.390914443322 -41.5977343028267 24.2635980891458
      vertex -31.0381820104471 -47.3255472680643 23.6812012339973
      vertex -30.8301065687515 -47.4478711485525 24.2635980585862
   endloop
endfacet
facet normal -0.796382683577443 0.468179311820516 0.382861271587056
   outer loop
      vertex -31.0381820104471 -47.3255472680643 23.6812012339973
      vertex -27.390914443322 -41.5977343028267 24.2635980891458
      vertex -27.5989898850176 -41.4754104223382 23.6812012645569
   endloop
endfacet
facet normal -0.684024867605006 0.402126141473518 -0.608608697638782
   outer loop
      vertex -30.8305073258405 -47.4476355504714 21.8486342963431
      vertex -27.0605517281433 -41.7919487134269 21.3484050774551
      vertex -30.4997438535727 -47.642085559153 21.3484050468955
   endloop
endfacet
facet normal -0.684024867605006 0.402126141473518 -0.608608697638782
   outer loop
      vertex -27.0605517281433 -41.7919487134269 21.3484050774551
      vertex -30.8305073258405 -47.4476355504714 21.8486342963431
      vertex -27.3913152004111 -41.5974987047455 21.8486343269027
   endloop
endfacet
facet normal 0.506794203990086 0.862067070941726 -8.78607143536096e-008
   outer loop
      vertex -26.1273827275926 -42.3405423021357 20.7231580628956
      vertex -25.0497322105991 -42.9740740248558 20.7229174236979
      vertex -25.5885711245626 -42.6573001356857 20.6407498485564
   endloop
endfacet
facet normal 0.506794203990086 0.862067070941726 -8.78607143536096e-008
   outer loop
      vertex -25.0497322105991 -42.9740740248558 20.7229174236979
      vertex -26.1273827275926 -42.3405423021357 20.7231580628956
      vertex -24.5475869672156 -43.2692763525926 20.9640612038622
   endloop
endfacet
facet normal 0.506794203990086 0.862067070941726 -8.78607143536096e-008
   outer loop
      vertex -24.5475869672156 -43.2692763525926 20.9640612038622
      vertex -26.1273827275926 -42.3405423021357 20.7231580628956
      vertex -26.6294478993712 -42.0453870470947 20.9645260830942
   endloop
endfacet
facet normal 0.506794203990086 0.862067070941726 -8.78607143536096e-008
   outer loop
      vertex -24.5475869672156 -43.2692763525926 20.9640612038622
      vertex -26.6294478993712 -42.0453870470947 20.9645260830942
      vertex -24.1163557629141 -43.5227895681052 21.3477476389403
   endloop
endfacet
facet normal 0.506794203990086 0.862067070941726 -8.78607143536096e-008
   outer loop
      vertex -24.1163557629141 -43.5227895681052 21.3477476389403
      vertex -26.6294478993712 -42.0453870470947 20.9645260830942
      vertex -27.0605517281433 -41.7919487134269 21.3484050774551
   endloop
endfacet
facet normal 0.506794203990086 0.862067070941726 -8.78607143536096e-008
   outer loop
      vertex -24.1163557629141 -43.5227895681052 21.3477476389403
      vertex -27.0605517281433 -41.7919487134269 21.3484050774551
      vertex -23.7854262916248 -43.7173371647075 21.8478291324535
   endloop
endfacet
facet normal 0.506794203990086 0.862067070941726 -8.78607143536096e-008
   outer loop
      vertex -23.7854262916248 -43.7173371647075 21.8478291324535
      vertex -27.0605517281433 -41.7919487134269 21.3484050774551
      vertex -27.3913152004111 -41.5974987047455 21.8486343269027
   endloop
endfacet
facet normal 0.506794203990086 0.862067070941726 -8.78607143536096e-008
   outer loop
      vertex -23.7854262916248 -43.7173371647075 21.8478291324535
      vertex -27.3913152004111 -41.5974987047455 21.8486343269027
      vertex -23.7205448513861 -43.7554823786367 22.048219891553
   endloop
endfacet
facet normal 0.506794203990086 0.862067070941726 -8.78607143536096e-008
   outer loop
      vertex -23.7205448513861 -43.7554823786367 22.048219891553
      vertex -27.3913152004111 -41.5974987047455 21.8486343269027
      vertex -27.4642596909474 -41.5546158627332 22.0530262614662
   endloop
endfacet
facet normal 0.506794203990086 0.862067070941726 -8.78607143536096e-008
   outer loop
      vertex -25.4664137051222 -42.7291143433121 25.4521166665185
      vertex -23.5773508499292 -43.8396610451958 22.4302259570424
      vertex -23.7205448513861 -43.7554823786367 22.048219891553
   endloop
endfacet
facet normal 0.506794203990086 0.862067070941726 -8.78607143536096e-008
   outer loop
      vertex -23.5773508499292 -43.8396610451958 22.4302259570424
      vertex -25.4664137051222 -42.7291143433121 25.4521166665185
      vertex -23.5192281714476 -43.8738304980832 22.9415902157299
   endloop
endfacet
facet normal 0.506794203990086 0.862067070941726 -8.78607143536096e-008
   outer loop
      vertex -23.5192281714476 -43.8738304980832 22.9415902157299
      vertex -25.4664137051222 -42.7291143433121 25.4521166665185
      vertex -23.5191904478087 -43.8738526751505 23.168913008455
   endloop
endfacet
facet normal 0.506794203990086 0.862067070941726 -8.78607143536096e-008
   outer loop
      vertex -23.5191904478087 -43.8738526751505 23.168913008455
      vertex -25.4664137051222 -42.7291143433121 25.4521166665185
      vertex -23.577143402795 -43.8397829997368 23.6803031868443
   endloop
endfacet
facet normal 0.506794203990086 0.862067070941726 -8.78607143536096e-008
   outer loop
      vertex -23.577143402795 -43.8397829997368 23.6803031868443
      vertex -25.4664137051222 -42.7291143433121 25.4521166665185
      vertex -23.7850255345358 -43.7175727627888 24.2627928946965
   endloop
endfacet
facet normal 0.506794203990086 0.862067070941726 -8.78607143536096e-008
   outer loop
      vertex -23.7850255345358 -43.7175727627888 24.2627928946965
      vertex -25.4664137051222 -42.7291143433121 25.4521166665185
      vertex -24.1157890068036 -43.5231227541071 24.7630221441441
   endloop
endfacet
facet normal 0.506794203990086 0.862067070941726 -8.78607143536096e-008
   outer loop
      vertex -24.1157890068036 -43.5231227541071 24.7630221441441
      vertex -25.4664137051222 -42.7291143433121 25.4521166665185
      vertex -24.5468928355758 -43.2696844204395 25.1469011385051
   endloop
endfacet
facet normal 0.506794203990086 0.862067070941726 -8.78607143536096e-008
   outer loop
      vertex -24.5468928355758 -43.2696844204395 25.1469011385051
      vertex -25.4664137051222 -42.7291143433121 25.4521166665185
      vertex -25.0489580073543 -42.9745291653985 25.3882691587036
   endloop
endfacet
facet normal 0.7910716849283 -0.464961259386314 -0.397513039502598
   outer loop
      vertex -27.1605666783338 -49.6051310869186 22.0431778554014
      vertex -23.5773508499292 -43.8396610451958 22.4302259570424
      vertex -27.0165429753585 -49.6897978909219 22.4302259264828
   endloop
endfacet
facet normal 0.7910716849283 -0.464961259386314 -0.397513039502598
   outer loop
      vertex -23.5773508499292 -43.8396610451958 22.4302259570424
      vertex -27.1605666783338 -49.6051310869186 22.0431778554014
      vertex -23.7205448513861 -43.7554823786367 22.048219891553
   endloop
endfacet
facet normal 0.50108550145471 0.865397351521393 0.00086267701973275
   outer loop
      vertex -32.9068022226622 -46.2430570704048 23.0565783222904
      vertex -31.0963234826684 -47.2913666108379 23.0561755789473
      vertex -33.0202738496466 -46.176349574607 22.0486656715315
   endloop
endfacet
facet normal 0.451987674205812 -0.2657173053274 -0.851528893235905
   outer loop
      vertex -27.5327382527014 -41.5143583090723 26.9644443808356
      vertex -30.0355692847571 -47.9310047209099 27.6382503154228
      vertex -30.9789380215083 -47.3764148725553 26.9644443788833
   endloop
endfacet
facet normal 0.451987674205812 -0.2657173053274 -0.851528893235905
   outer loop
      vertex -30.0355692847571 -47.9310047209099 27.6382503154228
      vertex -27.5327382527014 -41.5143583090723 26.9644443808356
      vertex -26.5884215277329 -42.0695058018726 27.6389038955454
   endloop
endfacet
facet normal 0.503871657848281 0.863755742189205 -0.00627457188985128
   outer loop
      vertex -31.0963234826684 -47.2913666108379 23.0561755789473
      vertex -32.5968680778577 -46.4233443931797 22.0485023680471
      vertex -33.0202738496466 -46.176349574607 22.0486656715315
   endloop
endfacet
facet normal 0.524661560495929 -0.308439287023803 -0.793470511839114
   outer loop
      vertex -27.5327382527014 -41.5143583090723 26.9644443808356
      vertex -30.9789380215083 -47.3764148725553 26.9644443788833
      vertex -31.784792120422 -46.9026674551108 26.2474385465993
   endloop
endfacet
facet normal 0.50435084631759 0.863254520117376 -0.0205391654078357
   outer loop
      vertex -28.9315424392537 -48.5645612264405 25.497644839397
      vertex -28.908161542083 -48.5777487285106 25.4525075178996
      vertex -29.0269617358137 -48.5079081775743 25.4706773424832
   endloop
endfacet
facet normal -0.506794197545632 -0.862067074730201 -4.38867909277852e-007
   outer loop
      vertex -28.4889243360284 -48.8242108705819 20.7229173931383
      vertex -29.566574853022 -48.1906791478617 20.723158032336
      vertex -29.0277632499919 -48.5074369814119 20.6407498179969
   endloop
endfacet
facet normal -0.506794197545632 -0.862067074730201 -4.38867909277852e-007
   outer loop
      vertex -29.566574853022 -48.1906791478617 20.723158032336
      vertex -28.4889243360284 -48.8242108705819 20.7229173931383
      vertex -27.9867790926448 -49.1194131983184 20.9640611733026
   endloop
endfacet
facet normal -0.506794197545632 -0.862067074730201 -4.38867909277852e-007
   outer loop
      vertex -29.566574853022 -48.1906791478617 20.723158032336
      vertex -27.9867790926448 -49.1194131983184 20.9640611733026
      vertex -30.0686400248005 -47.8955238928208 20.9645260525347
   endloop
endfacet
facet normal -0.506794197545632 -0.862067074730201 -4.38867909277852e-007
   outer loop
      vertex -30.0686400248005 -47.8955238928208 20.9645260525347
      vertex -27.9867790926448 -49.1194131983184 20.9640611733026
      vertex -27.5555478883435 -49.3729264138312 21.3477476083807
   endloop
endfacet
facet normal -0.506794197545632 -0.862067074730201 -4.38867909277852e-007
   outer loop
      vertex -30.0686400248005 -47.8955238928208 20.9645260525347
      vertex -27.5555478883435 -49.3729264138312 21.3477476083807
      vertex -30.4997438535727 -47.642085559153 21.3484050468955
   endloop
endfacet
facet normal -0.506794197545632 -0.862067074730201 -4.38867909277852e-007
   outer loop
      vertex -30.4997438535727 -47.642085559153 21.3484050468955
      vertex -27.5555478883435 -49.3729264138312 21.3477476083807
      vertex -27.2246184170543 -49.5674740104334 21.8478291018939
   endloop
endfacet
facet normal -0.506794197545632 -0.862067074730201 -4.38867909277852e-007
   outer loop
      vertex -30.4997438535727 -47.642085559153 21.3484050468955
      vertex -27.2246184170543 -49.5674740104334 21.8478291018939
      vertex -30.8305073258405 -47.4476355504714 21.8486342963431
   endloop
endfacet
facet normal -0.506794197545632 -0.862067074730201 -4.38867909277852e-007
   outer loop
      vertex -30.8305073258405 -47.4476355504714 21.8486342963431
      vertex -27.2246184170543 -49.5674740104334 21.8478291018939
      vertex -27.1605666783338 -49.6051310869186 22.0431778554014
   endloop
endfacet
facet normal -0.506794197545632 -0.862067074730201 -4.38867909277852e-007
   outer loop
      vertex -30.8305073258405 -47.4476355504714 21.8486342963431
      vertex -27.1605666783338 -49.6051310869186 22.0431778554014
      vertex -30.9015097656753 -47.4058944089748 22.0475845638188
   endloop
endfacet
facet normal 0.691254833700409 -0.38919363200419 -0.608847330365508
   outer loop
      vertex -29.040984687892 -40.6276868074831 25.3514629360973
      vertex -31.784792120422 -46.9026674551108 26.2474385465993
      vertex -32.4032094986443 -46.5391107805919 25.3129219343735
   endloop
endfacet
facet normal 0.500136941721956 -0.28590373546232 -0.81738735833979
   outer loop
      vertex -27.5327382527014 -41.5143583090723 26.9644443808356
      vertex -31.784792120422 -46.9026674551108 26.2474385465993
      vertex -28.3783927582641 -41.0172129283554 26.2731212599005
   endloop
endfacet
facet normal 0.790101916641202 -0.446647060845481 -0.419815869588077
   outer loop
      vertex -29.4845811980913 -40.3669042321198 24.239155713915
      vertex -29.040984687892 -40.6276868074831 25.3514629360973
      vertex -32.4032094986443 -46.5391107805919 25.3129219343735
   endloop
endfacet
facet normal 0.868384081850428 -0.484154115724548 -0.107256135562355
   outer loop
      vertex -29.4845811980913 -40.3669042321198 24.239155713915
      vertex -32.8003009657495 -46.3056677067525 24.201475001926
      vertex -32.9068022226622 -46.2430570704048 23.0565783222904
   endloop
endfacet
facet normal 0.867312331722659 -0.475472534923548 -0.14729286396557
   outer loop
      vertex -29.633593553856 -40.2793020564598 23.0789319416381
      vertex -29.4845811980913 -40.3669042321198 24.239155713915
      vertex -32.9068022226622 -46.2430570704048 23.0565783222904
   endloop
endfacet
facet normal -0.506794155567717 -0.862067099408396 1.39777412303951e-008
   outer loop
      vertex -26.5884215277329 -42.0695058018726 27.6389038955454
      vertex -25.5877696103844 -42.6577713318484 25.4706773730428
      vertex -25.4664137051222 -42.7291143433121 25.4521166665185
   endloop
endfacet
facet normal -0.506794155567717 -0.862067099408396 1.39777412303951e-008
   outer loop
      vertex -25.5877696103844 -42.6577713318484 25.4706773730428
      vertex -26.5884215277329 -42.0695058018726 27.6389038955454
      vertex -28.3783927582641 -41.0172129283554 26.2731212599005
   endloop
endfacet
facet normal -0.506794155567717 -0.862067099408396 1.39777412303951e-008
   outer loop
      vertex -28.3783927582641 -41.0172129283554 26.2731212599005
      vertex -26.5884215277329 -42.0695058018726 27.6389038955454
      vertex -27.5327382527014 -41.5143583090723 26.9644443808356
   endloop
endfacet
facet normal -0.506794155567717 -0.862067099408396 1.39777412303951e-008
   outer loop
      vertex -27.5991973321519 -41.4752884677974 22.4311240347549
      vertex -29.5745794084966 -40.3139959351931 22.0541176655931
      vertex -27.4642596909474 -41.5546158627332 22.0530262614662
   endloop
endfacet
facet normal -0.506794155567717 -0.862067099408396 1.39777412303951e-008
   outer loop
      vertex -29.5745794084966 -40.3139959351931 22.0541176655931
      vertex -27.5991973321519 -41.4752884677974 22.4311240347549
      vertex -29.633593553856 -40.2793020564598 23.0789319416381
   endloop
endfacet
facet normal -0.506794155567717 -0.862067099408396 1.39777412303951e-008
   outer loop
      vertex -29.633593553856 -40.2793020564598 23.0789319416381
      vertex -27.5991973321519 -41.4752884677974 22.4311240347549
      vertex -27.6571313572389 -41.4412297651118 23.0561756095069
   endloop
endfacet
facet normal -0.506794155567717 -0.862067099408396 1.39777412303951e-008
   outer loop
      vertex -29.633593553856 -40.2793020564598 23.0789319416381
      vertex -27.6571313572389 -41.4412297651118 23.0561756095069
      vertex -27.5989898850176 -41.4754104223382 23.6812012645569
   endloop
endfacet
facet normal -0.506794155567717 -0.862067099408396 1.39777412303951e-008
   outer loop
      vertex -29.633593553856 -40.2793020564598 23.0789319416381
      vertex -27.5989898850176 -41.4754104223382 23.6812012645569
      vertex -29.4845811980913 -40.3669042321198 24.239155713915
   endloop
endfacet
facet normal -0.506794155567717 -0.862067099408396 1.39777412303951e-008
   outer loop
      vertex -29.4845811980913 -40.3669042321198 24.239155713915
      vertex -27.5989898850176 -41.4754104223382 23.6812012645569
      vertex -27.390914443322 -41.5977343028267 24.2635980891458
   endloop
endfacet
facet normal -0.506794155567717 -0.862067099408396 1.39777412303951e-008
   outer loop
      vertex -29.4845811980913 -40.3669042321198 24.239155713915
      vertex -27.390914443322 -41.5977343028267 24.2635980891458
      vertex -29.040984687892 -40.6276868074831 25.3514629360973
   endloop
endfacet
facet normal -0.506794155567717 -0.862067099408396 1.39777412303951e-008
   outer loop
      vertex -29.040984687892 -40.6276868074831 25.3514629360973
      vertex -27.390914443322 -41.5977343028267 24.2635980891458
      vertex -27.0599849720327 -41.7922818994288 24.7636795826589
   endloop
endfacet
facet normal -0.506794155567717 -0.862067099408396 1.39777412303951e-008
   outer loop
      vertex -29.040984687892 -40.6276868074831 25.3514629360973
      vertex -27.0599849720327 -41.7922818994288 24.7636795826589
      vertex -26.6287537677314 -42.0457951149418 25.147366017737
   endloop
endfacet
facet normal -0.506794155567717 -0.862067099408396 1.39777412303951e-008
   outer loop
      vertex -29.040984687892 -40.6276868074831 25.3514629360973
      vertex -26.6287537677314 -42.0457951149418 25.147366017737
      vertex -26.1266085243478 -42.3409974426784 25.3885097979014
   endloop
endfacet
facet normal -0.506794155567717 -0.862067099408396 1.39777412303951e-008
   outer loop
      vertex -29.040984687892 -40.6276868074831 25.3514629360973
      vertex -26.1266085243478 -42.3409974426784 25.3885097979014
      vertex -28.3783927582641 -41.0172129283554 26.2731212599005
   endloop
endfacet
facet normal -0.506794155567717 -0.862067099408396 1.39777412303951e-008
   outer loop
      vertex -28.3783927582641 -41.0172129283554 26.2731212599005
      vertex -26.1266085243478 -42.3409974426784 25.3885097979014
      vertex -25.5877696103844 -42.6577713318484 25.4706773730428
   endloop
endfacet
facet normal 0.854904611774574 -0.502363768551085 -0.129494203784251
   outer loop
      vertex -29.5745794084966 -40.3139959351931 22.0541176655931
      vertex -32.9068022226622 -46.2430570704048 23.0565783222904
      vertex -33.0202738496466 -46.176349574607 22.0486656715315
   endloop
endfacet
facet normal 0.807671004208637 -0.448508843755929 -0.382762806491607
   outer loop
      vertex -29.4845811980913 -40.3669042321198 24.239155713915
      vertex -32.4032094986443 -46.5391107805919 25.3129219343735
      vertex -32.8003009657495 -46.3056677067525 24.201475001926
   endloop
endfacet
facet normal 0.874588151924455 -0.480267677322672 0.0666222382726091
   outer loop
      vertex -29.633593553856 -40.2793020564598 23.0789319416381
      vertex -32.9068022226622 -46.2430570704048 23.0565783222904
      vertex -29.5745794084966 -40.3139959351931 22.0541176655931
   endloop
endfacet
facet normal 0.665909629070851 -0.382622253702261 -0.64044092380369
   outer loop
      vertex -29.040984687892 -40.6276868074831 25.3514629360973
      vertex -28.3783927582641 -41.0172129283554 26.2731212599005
      vertex -31.784792120422 -46.9026674551108 26.2474385465993
   endloop
endfacet
facet normal 0.500577629884009 0.865641176988216 0.00934821705802728
   outer loop
      vertex -30.0679458931608 -47.8959319606677 25.1473659871775
      vertex -30.4991770974621 -47.6424187451549 24.7636795520993
      vertex -32.8003009657495 -46.3056677067525 24.201475001926
   endloop
endfacet
facet normal 0.502007892821431 0.86399193948343 0.0388072680389481
   outer loop
      vertex -29.0269617358137 -48.5079081775743 25.4706773424832
      vertex -29.5658006497772 -48.1911342884044 25.3885097673418
      vertex -32.4032094986443 -46.5391107805919 25.3129219343735
   endloop
endfacet
facet normal 0.506794075718493 0.862067146350352 1.42819603976889e-009
   outer loop
      vertex -30.0355692847571 -47.9310047209099 27.6382503154228
      vertex -29.7836143448502 -48.0791245868988 27.1467193521705
      vertex -30.9789380215083 -47.3764148725553 26.9644443788833
   endloop
endfacet
facet normal 0.502915712153715 0.86426834823362 0.0107707339792285
   outer loop
      vertex -29.5658006497772 -48.1911342884044 25.3885097673418
      vertex -30.0679458931608 -47.8959319606677 25.1473659871775
      vertex -32.4032094986443 -46.5391107805919 25.3129219343735
   endloop
endfacet
facet normal 0.501488128627114 0.865160789864853 -0.00254254331324017
   outer loop
      vertex -31.0383894575813 -47.3254253135233 22.4311240041954
      vertex -30.9015097656753 -47.4058944089748 22.0475845638188
      vertex -32.3368531967252 -46.5738991595424 22.0483617337661
   endloop
endfacet
facet normal 0.502482683834256 0.86458479692839 0.00206914644676183
   outer loop
      vertex -32.4032094986443 -46.5391107805919 25.3129219343735
      vertex -30.0679458931608 -47.8959319606677 25.1473659871775
      vertex -32.8003009657495 -46.3056677067525 24.201475001926
   endloop
endfacet
facet normal 0.506794075718376 0.86206714635042 1.42922506058984e-009
   outer loop
      vertex -29.7836143448502 -48.0791245868988 27.1467193521705
      vertex -29.6900340842983 -48.1341387718051 26.9641565668268
      vertex -30.9789380215083 -47.3764148725553 26.9644443788833
   endloop
endfacet
facet normal 0.740863598193124 -0.435951848804746 0.510947271639708
   outer loop
      vertex -22.246432952963 -41.2348773454411 22.0533146960269
      vertex -25.4664137051222 -42.7291143433121 25.4521166665185
      vertex -23.7205448513861 -43.7554823786367 22.048219891553
   endloop
endfacet
facet normal 0.740863598193124 -0.435951848804746 0.510947271639708
   outer loop
      vertex -25.4664137051222 -42.7291143433121 25.4521166665185
      vertex -22.246432952963 -41.2348773454411 22.0533146960269
      vertex -26.5884215277329 -42.0695058018726 27.6389038955454
   endloop
endfacet
facet normal 0.740863598193124 -0.435951848804746 0.510947271639708
   outer loop
      vertex -35.0269424265567 -51.9174821684664 31.4728175630726
      vertex -30.0355692847571 -47.9310047209099 27.6382503154228
      vertex -29.4482098189292 -42.4279455713475 31.4816428385335
   endloop
endfacet
facet normal 0.740863598193124 -0.435951848804746 0.510947271639708
   outer loop
      vertex -30.0355692847571 -47.9310047209099 27.6382503154228
      vertex -35.0269424265567 -51.9174821684664 31.4728175630726
      vertex -28.1614023178888 -51.2963594431053 22.0439575108638
   endloop
endfacet
facet normal 0.740863598193124 -0.435951848804746 0.510947271639708
   outer loop
      vertex -30.0355692847571 -47.9310047209099 27.6382503154228
      vertex -28.1614023178888 -51.2963594431053 22.0439575108638
      vertex -29.7836143448502 -48.0791245868988 27.1467193521705
   endloop
endfacet
facet normal 0.740863598193124 -0.435951848804746 0.510947271639708
   outer loop
      vertex -29.7836143448502 -48.0791245868988 27.1467193521705
      vertex -28.1614023178888 -51.2963594431053 22.0439575108638
      vertex -29.5011512876416 -48.2451796370437 26.5956710629635
   endloop
endfacet
facet normal 0.740863598193124 -0.435951848804746 0.510947271639708
   outer loop
      vertex -29.5011512876416 -48.2451796370437 26.5956710629635
      vertex -28.1614023178888 -51.2963594431053 22.0439575108638
      vertex -29.1016882012677 -48.4800169410589 25.8163710988446
   endloop
endfacet
facet normal 0.740863598193124 -0.435951848804746 0.510947271639708
   outer loop
      vertex -29.1016882012677 -48.4800169410589 25.8163710988446
      vertex -28.1614023178888 -51.2963594431053 22.0439575108638
      vertex -27.1605666783338 -49.6051310869186 22.0431778554014
   endloop
endfacet
facet normal 0.740863598193124 -0.435951848804746 0.510947271639708
   outer loop
      vertex -29.1016882012677 -48.4800169410589 25.8163710988446
      vertex -27.1605666783338 -49.6051310869186 22.0431778554014
      vertex -28.908161542083 -48.5777487285106 25.4525075178996
   endloop
endfacet
facet normal 0.740863598193124 -0.435951848804746 0.510947271639708
   outer loop
      vertex -29.1016882012677 -48.4800169410589 25.8163710988446
      vertex -28.908161542083 -48.5777487285106 25.4525075178996
      vertex -28.9315424392537 -48.5645612264405 25.497644839397
   endloop
endfacet
facet normal 0.740863598193124 -0.435951848804746 0.510947271639708
   outer loop
      vertex -29.5011512876416 -48.2451796370437 26.5956710629635
      vertex -29.1016882012677 -48.4800169410589 25.8163710988446
      vertex -29.3223681611029 -48.3502830843255 26.2468886876974
   endloop
endfacet
facet normal 0.740863598193124 -0.435951848804746 0.510947271639708
   outer loop
      vertex -29.7836143448502 -48.0791245868988 27.1467193521705
      vertex -29.5011512876416 -48.2451796370437 26.5956710629635
      vertex -29.6900340842983 -48.1341387718051 26.9641565668268
   endloop
endfacet
facet normal 0.740863598193124 -0.435951848804746 0.510947271639708
   outer loop
      vertex -29.4482098189292 -42.4279455713475 31.4816428385335
      vertex -30.0355692847571 -47.9310047209099 27.6382503154228
      vertex -26.5884215277329 -42.0695058018726 27.6389038955454
   endloop
endfacet
facet normal 0.740863598193124 -0.435951848804746 0.510947271639708
   outer loop
      vertex -29.4482098189292 -42.4279455713475 31.4816428385335
      vertex -26.5884215277329 -42.0695058018726 27.6389038955454
      vertex -22.246432952963 -41.2348773454411 22.0533146960269
   endloop
endfacet
facet normal -2.44689200328988e-005 0.000956124655521324 -0.999999542613353
   outer loop
      vertex -60.4650443377811 -36.1154069451112 22.0581489418665
      vertex -50.4642231138786 -55.3967385743295 22.0401794424549
      vertex -63.562286082013 -48.6816879197869 22.0464546815583
   endloop
endfacet
facet normal -2.44689200328988e-005 0.000956124655521324 -0.999999542613353
   outer loop
      vertex -50.4642231138786 -55.3967385743295 22.0401794424549
      vertex -60.4650443377811 -36.1154069451112 22.0581489418665
      vertex -25.5772392015402 -36.0489357710204 22.0581489418665
   endloop
endfacet
facet normal -2.44689200328988e-005 0.000956124655521324 -0.999999542613353
   outer loop
      vertex -50.4642231138786 -55.3967385743295 22.0401794424549
      vertex -25.5772392015402 -36.0489357710204 22.0581489418665
      vertex -29.5745794084966 -40.3139959351931 22.0541176655931
   endloop
endfacet
facet normal -2.44689200328988e-005 0.000956124655521324 -0.999999542613353
   outer loop
      vertex -50.4642231138786 -55.3967385743295 22.0401794424549
      vertex -29.5745794084966 -40.3139959351931 22.0541176655931
      vertex -33.0202738496466 -46.176349574607 22.0486656715315
   endloop
endfacet
facet normal -2.44689200328988e-005 0.000956124655521324 -0.999999542613353
   outer loop
      vertex -29.5745794084966 -40.3139959351931 22.0541176655931
      vertex -25.5772392015402 -36.0489357710204 22.0581489418665
      vertex -27.4642596909474 -41.5546158627332 22.0530262614662
   endloop
endfacet
facet normal -2.44689200328988e-005 0.000956124655521324 -0.999999542613353
   outer loop
      vertex -27.4642596909474 -41.5546158627332 22.0530262614662
      vertex -25.5772392015402 -36.0489357710204 22.0581489418665
      vertex -23.7205448513861 -43.7554823786367 22.048219891553
   endloop
endfacet
facet normal -2.44689200328988e-005 0.000956124655521324 -0.999999542613353
   outer loop
      vertex -23.7205448513861 -43.7554823786367 22.048219891553
      vertex -25.5772392015402 -36.0489357710204 22.0581489418665
      vertex -22.246432952963 -41.2348773454411 22.0533146960269
   endloop
endfacet
facet normal -2.44689200328988e-005 0.000956124655521324 -0.999999542613353
   outer loop
      vertex -33.0202738496466 -46.176349574607 22.0486656715315
      vertex -28.1614023178888 -51.2963594431053 22.0439575108638
      vertex -50.4642231138786 -55.3967385743295 22.0401794424549
   endloop
endfacet
facet normal -2.44689200328988e-005 0.000956124655521324 -0.999999542613353
   outer loop
      vertex -28.1614023178888 -51.2963594431053 22.0439575108638
      vertex -33.0202738496466 -46.176349574607 22.0486656715315
      vertex -32.5968680778577 -46.4233443931797 22.0485023680471
   endloop
endfacet
facet normal -2.44689200328988e-005 0.000956124655521324 -0.999999542613353
   outer loop
      vertex -28.1614023178888 -51.2963594431053 22.0439575108638
      vertex -32.5968680778577 -46.4233443931797 22.0485023680471
      vertex -32.3368531967252 -46.5738991595424 22.0483617337661
   endloop
endfacet
facet normal -2.44689200328988e-005 0.000956124655521324 -0.999999542613353
   outer loop
      vertex -28.1614023178888 -51.2963594431053 22.0439575108638
      vertex -32.3368531967252 -46.5738991595424 22.0483617337661
      vertex -30.9015097656753 -47.4058944089748 22.0475845638188
   endloop
endfacet
facet normal -2.44689200328988e-005 0.000956124655521324 -0.999999542613353
   outer loop
      vertex -28.1614023178888 -51.2963594431053 22.0439575108638
      vertex -30.9015097656753 -47.4058944089748 22.0475845638188
      vertex -27.1605666783338 -49.6051310869186 22.0431778554014
   endloop
endfacet
endsolid 黑熊2015-3列印d
