solid OpenSCAD_Model
  facet normal -1 0 0
    outer loop
      vertex 0 0 0
      vertex 0 32.5 2
      vertex 0 32.5 0
    endloop
  endfacet
  facet normal -1 -0 0
    outer loop
      vertex 0 32.5 2
      vertex 0 0 0
      vertex 0 0 2
    endloop
  endfacet
  facet normal -0 0 1
    outer loop
      vertex 0 32.5 2
      vertex 11.5 27.5 2
      vertex 11.5 32.5 2
    endloop
  endfacet
  facet normal 0 0 1
    outer loop
      vertex 11.5 27.5 2
      vertex 0 32.5 2
      vertex 11.5 5 2
    endloop
  endfacet
  facet normal 0 0 1
    outer loop
      vertex 0 0 2
      vertex 11.5 5 2
      vertex 0 32.5 2
    endloop
  endfacet
  facet normal 0 0 1
    outer loop
      vertex 11.5 5 2
      vertex 0 0 2
      vertex 11.5 0 2
    endloop
  endfacet
  facet normal -0 0 1
    outer loop
      vertex 11.5 27.5 2
      vertex 20.5 5 2
      vertex 20.5 27.5 2
    endloop
  endfacet
  facet normal 0 0 1
    outer loop
      vertex 20.5 5 2
      vertex 11.5 27.5 2
      vertex 11.5 5 2
    endloop
  endfacet
  facet normal 0 0 1
    outer loop
      vertex 20.5 27.5 2
      vertex 22.5 32.5 2
      vertex 20.5 32.5 2
    endloop
  endfacet
  facet normal 0 0 1
    outer loop
      vertex 22.5 32.5 2
      vertex 20.5 27.5 2
      vertex 22.5 0 2
    endloop
  endfacet
  facet normal -0 0 1
    outer loop
      vertex 20.5 5 2
      vertex 22.5 0 2
      vertex 20.5 27.5 2
    endloop
  endfacet
  facet normal 0 0 1
    outer loop
      vertex 22.5 0 2
      vertex 20.5 5 2
      vertex 20.5 0 2
    endloop
  endfacet
  facet normal 1 -0 0
    outer loop
      vertex 22.5 0 2
      vertex 22.5 32.5 0
      vertex 22.5 32.5 2
    endloop
  endfacet
  facet normal 1 0 0
    outer loop
      vertex 22.5 32.5 0
      vertex 22.5 0 2
      vertex 22.5 0 0
    endloop
  endfacet
  facet normal 0 1 -0
    outer loop
      vertex 22.5 32.5 0
      vertex 20.5 32.5 2
      vertex 22.5 32.5 2
    endloop
  endfacet
  facet normal 0 1 0
    outer loop
      vertex 20.5 32.5 2
      vertex 22.5 32.5 0
      vertex 11.5 32.5 2
    endloop
  endfacet
  facet normal 0 1 0
    outer loop
      vertex 0 32.5 0
      vertex 11.5 32.5 2
      vertex 22.5 32.5 0
    endloop
  endfacet
  facet normal 0 1 0
    outer loop
      vertex 11.5 32.5 2
      vertex 0 32.5 0
      vertex 0 32.5 2
    endloop
  endfacet
  facet normal 0 1 -0
    outer loop
      vertex 20.5 32.5 2
      vertex 11.5 32.5 14.5
      vertex 20.5 32.5 14.5
    endloop
  endfacet
  facet normal 0 1 0
    outer loop
      vertex 11.5 32.5 14.5
      vertex 20.5 32.5 2
      vertex 11.5 32.5 2
    endloop
  endfacet
  facet normal 0 0 -1
    outer loop
      vertex 0 0 0
      vertex 22.5 32.5 0
      vertex 22.5 0 0
    endloop
  endfacet
  facet normal -0 0 -1
    outer loop
      vertex 22.5 32.5 0
      vertex 0 0 0
      vertex 0 32.5 0
    endloop
  endfacet
  facet normal 0 -1 0
    outer loop
      vertex 0 0 0
      vertex 11.5 0 2
      vertex 0 0 2
    endloop
  endfacet
  facet normal 0 -1 0
    outer loop
      vertex 22.5 0 0
      vertex 11.5 0 2
      vertex 0 0 0
    endloop
  endfacet
  facet normal 0 -1 0
    outer loop
      vertex 11.5 0 2
      vertex 22.5 0 0
      vertex 20.5 0 2
    endloop
  endfacet
  facet normal 0 -1 0
    outer loop
      vertex 20.5 0 2
      vertex 22.5 0 0
      vertex 22.5 0 2
    endloop
  endfacet
  facet normal 0 -1 0
    outer loop
      vertex 11.5 0 2
      vertex 20.5 0 14.5
      vertex 11.5 0 14.5
    endloop
  endfacet
  facet normal 0 -1 -0
    outer loop
      vertex 20.5 0 14.5
      vertex 11.5 0 2
      vertex 20.5 0 2
    endloop
  endfacet
  facet normal -1 0 0
    outer loop
      vertex 11.5 0 2
      vertex 11.5 5 14.5
      vertex 11.5 5 2
    endloop
  endfacet
  facet normal -1 -0 0
    outer loop
      vertex 11.5 5 14.5
      vertex 11.5 0 2
      vertex 11.5 0 14.5
    endloop
  endfacet
  facet normal -0 0 1
    outer loop
      vertex 11.5 5 14.5
      vertex 20.5 0 14.5
      vertex 20.5 5 14.5
    endloop
  endfacet
  facet normal 0 0 1
    outer loop
      vertex 20.5 0 14.5
      vertex 11.5 5 14.5
      vertex 11.5 0 14.5
    endloop
  endfacet
  facet normal 1 0 0
    outer loop
      vertex 20.5 5 14.5
      vertex 20.5 3.375 8
      vertex 20.5 5 2
    endloop
  endfacet
  facet normal 1 0 0
    outer loop
      vertex 20.5 5 14.5
      vertex 20.5 3.33217 8.27039
      vertex 20.5 3.375 8
    endloop
  endfacet
  facet normal 1 0 0
    outer loop
      vertex 20.5 5 14.5
      vertex 20.5 3.20789 8.51431
      vertex 20.5 3.33217 8.27039
    endloop
  endfacet
  facet normal 1 0 0
    outer loop
      vertex 20.5 5 14.5
      vertex 20.5 3.01431 8.70789
      vertex 20.5 3.20789 8.51431
    endloop
  endfacet
  facet normal 1 0 0
    outer loop
      vertex 20.5 5 14.5
      vertex 20.5 2.77039 8.83217
      vertex 20.5 3.01431 8.70789
    endloop
  endfacet
  facet normal 1 0 0
    outer loop
      vertex 20.5 5 14.5
      vertex 20.5 2.5 8.875
      vertex 20.5 2.77039 8.83217
    endloop
  endfacet
  facet normal 1 -0 0
    outer loop
      vertex 20.5 0 14.5
      vertex 20.5 2.5 8.875
      vertex 20.5 5 14.5
    endloop
  endfacet
  facet normal 1 0 0
    outer loop
      vertex 20.5 2.5 8.875
      vertex 20.5 0 14.5
      vertex 20.5 2.22961 8.83217
    endloop
  endfacet
  facet normal 1 0 0
    outer loop
      vertex 20.5 2.22961 8.83217
      vertex 20.5 0 14.5
      vertex 20.5 1.98569 8.70789
    endloop
  endfacet
  facet normal 1 0 0
    outer loop
      vertex 20.5 1.66782 8.27039
      vertex 20.5 0 14.5
      vertex 20.5 1.625 8
    endloop
  endfacet
  facet normal 1 0 0
    outer loop
      vertex 20.5 1.79211 8.51431
      vertex 20.5 0 14.5
      vertex 20.5 1.66782 8.27039
    endloop
  endfacet
  facet normal 1 0 0
    outer loop
      vertex 20.5 1.98569 8.70789
      vertex 20.5 0 14.5
      vertex 20.5 1.79211 8.51431
    endloop
  endfacet
  facet normal 1 -0 0
    outer loop
      vertex 20.5 3.33217 7.72961
      vertex 20.5 5 2
      vertex 20.5 3.375 8
    endloop
  endfacet
  facet normal 1 -0 0
    outer loop
      vertex 20.5 3.20789 7.48569
      vertex 20.5 5 2
      vertex 20.5 3.33217 7.72961
    endloop
  endfacet
  facet normal 1 -0 0
    outer loop
      vertex 20.5 3.01431 7.29211
      vertex 20.5 5 2
      vertex 20.5 3.20789 7.48569
    endloop
  endfacet
  facet normal 1 -0 0
    outer loop
      vertex 20.5 2.77039 7.16782
      vertex 20.5 5 2
      vertex 20.5 3.01431 7.29211
    endloop
  endfacet
  facet normal 1 -0 0
    outer loop
      vertex 20.5 2.5 7.125
      vertex 20.5 5 2
      vertex 20.5 2.77039 7.16782
    endloop
  endfacet
  facet normal 1 0 0
    outer loop
      vertex 20.5 0 2
      vertex 20.5 2.5 7.125
      vertex 20.5 2.22961 7.16782
    endloop
  endfacet
  facet normal 1 0 0
    outer loop
      vertex 20.5 0 2
      vertex 20.5 2.22961 7.16782
      vertex 20.5 1.98569 7.29211
    endloop
  endfacet
  facet normal 1 0 0
    outer loop
      vertex 20.5 0 2
      vertex 20.5 1.98569 7.29211
      vertex 20.5 1.79211 7.48569
    endloop
  endfacet
  facet normal 1 0 0
    outer loop
      vertex 20.5 0 2
      vertex 20.5 1.625 8
      vertex 20.5 0 14.5
    endloop
  endfacet
  facet normal 1 0 0
    outer loop
      vertex 20.5 2.5 7.125
      vertex 20.5 0 2
      vertex 20.5 5 2
    endloop
  endfacet
  facet normal 1 0 0
    outer loop
      vertex 20.5 1.66782 7.72961
      vertex 20.5 0 2
      vertex 20.5 1.79211 7.48569
    endloop
  endfacet
  facet normal 1 0 0
    outer loop
      vertex 20.5 1.625 8
      vertex 20.5 0 2
      vertex 20.5 1.66782 7.72961
    endloop
  endfacet
  facet normal 0 1 -0
    outer loop
      vertex 20.5 5 2
      vertex 11.5 5 14.5
      vertex 20.5 5 14.5
    endloop
  endfacet
  facet normal 0 1 0
    outer loop
      vertex 11.5 5 14.5
      vertex 20.5 5 2
      vertex 11.5 5 2
    endloop
  endfacet
  facet normal -1 0 0
    outer loop
      vertex 11.5 27.5 2
      vertex 11.5 32.5 14.5
      vertex 11.5 32.5 2
    endloop
  endfacet
  facet normal -1 -0 0
    outer loop
      vertex 11.5 32.5 14.5
      vertex 11.5 27.5 2
      vertex 11.5 27.5 14.5
    endloop
  endfacet
  facet normal -0 0 1
    outer loop
      vertex 11.5 32.5 14.5
      vertex 20.5 27.5 14.5
      vertex 20.5 32.5 14.5
    endloop
  endfacet
  facet normal 0 0 1
    outer loop
      vertex 20.5 27.5 14.5
      vertex 11.5 32.5 14.5
      vertex 11.5 27.5 14.5
    endloop
  endfacet
  facet normal 1 0 0
    outer loop
      vertex 20.5 32.5 14.5
      vertex 20.5 30.875 8
      vertex 20.5 32.5 2
    endloop
  endfacet
  facet normal 1 0 0
    outer loop
      vertex 20.5 32.5 14.5
      vertex 20.5 30.8322 8.27039
      vertex 20.5 30.875 8
    endloop
  endfacet
  facet normal 1 0 0
    outer loop
      vertex 20.5 32.5 14.5
      vertex 20.5 30.7079 8.51431
      vertex 20.5 30.8322 8.27039
    endloop
  endfacet
  facet normal 1 0 0
    outer loop
      vertex 20.5 32.5 14.5
      vertex 20.5 30.5143 8.70789
      vertex 20.5 30.7079 8.51431
    endloop
  endfacet
  facet normal 1 0 0
    outer loop
      vertex 20.5 32.5 14.5
      vertex 20.5 30.2704 8.83217
      vertex 20.5 30.5143 8.70789
    endloop
  endfacet
  facet normal 1 0 0
    outer loop
      vertex 20.5 32.5 14.5
      vertex 20.5 30 8.875
      vertex 20.5 30.2704 8.83217
    endloop
  endfacet
  facet normal 1 -0 0
    outer loop
      vertex 20.5 27.5 14.5
      vertex 20.5 30 8.875
      vertex 20.5 32.5 14.5
    endloop
  endfacet
  facet normal 1 0 0
    outer loop
      vertex 20.5 30 8.875
      vertex 20.5 27.5 14.5
      vertex 20.5 29.7296 8.83217
    endloop
  endfacet
  facet normal 1 0 0
    outer loop
      vertex 20.5 29.7296 8.83217
      vertex 20.5 27.5 14.5
      vertex 20.5 29.4857 8.70789
    endloop
  endfacet
  facet normal 1 0 0
    outer loop
      vertex 20.5 29.1678 8.27039
      vertex 20.5 27.5 14.5
      vertex 20.5 29.125 8
    endloop
  endfacet
  facet normal 1 0 0
    outer loop
      vertex 20.5 29.2921 8.51431
      vertex 20.5 27.5 14.5
      vertex 20.5 29.1678 8.27039
    endloop
  endfacet
  facet normal 1 0 0
    outer loop
      vertex 20.5 29.4857 8.70789
      vertex 20.5 27.5 14.5
      vertex 20.5 29.2921 8.51431
    endloop
  endfacet
  facet normal 1 -0 0
    outer loop
      vertex 20.5 30.8322 7.72961
      vertex 20.5 32.5 2
      vertex 20.5 30.875 8
    endloop
  endfacet
  facet normal 1 -0 0
    outer loop
      vertex 20.5 30.7079 7.48569
      vertex 20.5 32.5 2
      vertex 20.5 30.8322 7.72961
    endloop
  endfacet
  facet normal 1 -0 0
    outer loop
      vertex 20.5 30.5143 7.29211
      vertex 20.5 32.5 2
      vertex 20.5 30.7079 7.48569
    endloop
  endfacet
  facet normal 1 -0 0
    outer loop
      vertex 20.5 30.2704 7.16782
      vertex 20.5 32.5 2
      vertex 20.5 30.5143 7.29211
    endloop
  endfacet
  facet normal 1 -0 0
    outer loop
      vertex 20.5 30 7.125
      vertex 20.5 32.5 2
      vertex 20.5 30.2704 7.16782
    endloop
  endfacet
  facet normal 1 0 0
    outer loop
      vertex 20.5 27.5 2
      vertex 20.5 30 7.125
      vertex 20.5 29.7296 7.16782
    endloop
  endfacet
  facet normal 1 0 0
    outer loop
      vertex 20.5 27.5 2
      vertex 20.5 29.7296 7.16782
      vertex 20.5 29.4857 7.29211
    endloop
  endfacet
  facet normal 1 0 0
    outer loop
      vertex 20.5 27.5 2
      vertex 20.5 29.4857 7.29211
      vertex 20.5 29.2921 7.48569
    endloop
  endfacet
  facet normal 1 0 0
    outer loop
      vertex 20.5 27.5 2
      vertex 20.5 29.125 8
      vertex 20.5 27.5 14.5
    endloop
  endfacet
  facet normal 1 0 0
    outer loop
      vertex 20.5 30 7.125
      vertex 20.5 27.5 2
      vertex 20.5 32.5 2
    endloop
  endfacet
  facet normal 1 0 0
    outer loop
      vertex 20.5 29.1678 7.72961
      vertex 20.5 27.5 2
      vertex 20.5 29.2921 7.48569
    endloop
  endfacet
  facet normal 1 0 0
    outer loop
      vertex 20.5 29.125 8
      vertex 20.5 27.5 2
      vertex 20.5 29.1678 7.72961
    endloop
  endfacet
  facet normal 0 -1 0
    outer loop
      vertex 11.5 27.5 2
      vertex 20.5 27.5 14.5
      vertex 11.5 27.5 14.5
    endloop
  endfacet
  facet normal 0 -1 -0
    outer loop
      vertex 20.5 27.5 14.5
      vertex 11.5 27.5 2
      vertex 20.5 27.5 2
    endloop
  endfacet
  facet normal 0 -0.156432 0.987689
    outer loop
      vertex 15 2.77039 7.16782
      vertex 20.5 2.5 7.125
      vertex 20.5 2.77039 7.16782
    endloop
  endfacet
  facet normal 0 -0.156432 0.987689
    outer loop
      vertex 20.5 2.5 7.125
      vertex 15 2.77039 7.16782
      vertex 15 2.5 7.125
    endloop
  endfacet
  facet normal 0 -0.453991 0.891006
    outer loop
      vertex 15 3.01431 7.29211
      vertex 20.5 2.77039 7.16782
      vertex 20.5 3.01431 7.29211
    endloop
  endfacet
  facet normal 0 -0.453991 0.891006
    outer loop
      vertex 20.5 2.77039 7.16782
      vertex 15 3.01431 7.29211
      vertex 15 2.77039 7.16782
    endloop
  endfacet
  facet normal 0 -0.987688 0.156435
    outer loop
      vertex 15 3.33217 7.72961
      vertex 20.5 3.375 8
      vertex 15 3.375 8
    endloop
  endfacet
  facet normal 0 -0.987688 0.156435
    outer loop
      vertex 20.5 3.375 8
      vertex 15 3.33217 7.72961
      vertex 20.5 3.33217 7.72961
    endloop
  endfacet
  facet normal 0 -0.891006 0.453991
    outer loop
      vertex 15 3.20789 7.48569
      vertex 20.5 3.33217 7.72961
      vertex 15 3.33217 7.72961
    endloop
  endfacet
  facet normal 0 -0.891006 0.453991
    outer loop
      vertex 20.5 3.33217 7.72961
      vertex 15 3.20789 7.48569
      vertex 20.5 3.20789 7.48569
    endloop
  endfacet
  facet normal 0 -0.987688 -0.156435
    outer loop
      vertex 15 3.375 8
      vertex 20.5 3.33217 8.27039
      vertex 15 3.33217 8.27039
    endloop
  endfacet
  facet normal 0 -0.987688 -0.156435
    outer loop
      vertex 20.5 3.33217 8.27039
      vertex 15 3.375 8
      vertex 20.5 3.375 8
    endloop
  endfacet
  facet normal 0 -0.891006 -0.453991
    outer loop
      vertex 15 3.33217 8.27039
      vertex 20.5 3.20789 8.51431
      vertex 15 3.20789 8.51431
    endloop
  endfacet
  facet normal 0 -0.891006 -0.453991
    outer loop
      vertex 20.5 3.20789 8.51431
      vertex 15 3.33217 8.27039
      vertex 20.5 3.33217 8.27039
    endloop
  endfacet
  facet normal 0 -0.707107 0.707107
    outer loop
      vertex 15 3.01431 7.29211
      vertex 20.5 3.20789 7.48569
      vertex 15 3.20789 7.48569
    endloop
  endfacet
  facet normal 0 -0.707107 0.707107
    outer loop
      vertex 20.5 3.20789 7.48569
      vertex 15 3.01431 7.29211
      vertex 20.5 3.01431 7.29211
    endloop
  endfacet
  facet normal 0 -0.156435 -0.987688
    outer loop
      vertex 15 2.5 8.875
      vertex 20.5 2.77039 8.83217
      vertex 20.5 2.5 8.875
    endloop
  endfacet
  facet normal -0 -0.156435 -0.987688
    outer loop
      vertex 20.5 2.77039 8.83217
      vertex 15 2.5 8.875
      vertex 15 2.77039 8.83217
    endloop
  endfacet
  facet normal 0 -0.707107 -0.707107
    outer loop
      vertex 15 3.20789 8.51431
      vertex 20.5 3.01431 8.70789
      vertex 15 3.01431 8.70789
    endloop
  endfacet
  facet normal 0 -0.707107 -0.707107
    outer loop
      vertex 20.5 3.01431 8.70789
      vertex 15 3.20789 8.51431
      vertex 20.5 3.20789 8.51431
    endloop
  endfacet
  facet normal 0 0.891006 0.453991
    outer loop
      vertex 20.5 1.79211 7.48569
      vertex 15 1.66782 7.72961
      vertex 20.5 1.66782 7.72961
    endloop
  endfacet
  facet normal 0 0.891006 0.453991
    outer loop
      vertex 15 1.66782 7.72961
      vertex 20.5 1.79211 7.48569
      vertex 15 1.79211 7.48569
    endloop
  endfacet
  facet normal 0 0.707107 0.707107
    outer loop
      vertex 20.5 1.98569 7.29211
      vertex 15 1.79211 7.48569
      vertex 20.5 1.79211 7.48569
    endloop
  endfacet
  facet normal 0 0.707107 0.707107
    outer loop
      vertex 15 1.79211 7.48569
      vertex 20.5 1.98569 7.29211
      vertex 15 1.98569 7.29211
    endloop
  endfacet
  facet normal -0 0.156431 0.987689
    outer loop
      vertex 15 2.5 7.125
      vertex 20.5 2.22961 7.16782
      vertex 20.5 2.5 7.125
    endloop
  endfacet
  facet normal 0 0.156431 0.987689
    outer loop
      vertex 20.5 2.22961 7.16782
      vertex 15 2.5 7.125
      vertex 15 2.22961 7.16782
    endloop
  endfacet
  facet normal 0 0.156435 -0.987688
    outer loop
      vertex 15 2.22961 8.83217
      vertex 20.5 2.5 8.875
      vertex 20.5 2.22961 8.83217
    endloop
  endfacet
  facet normal 0 0.156435 -0.987688
    outer loop
      vertex 20.5 2.5 8.875
      vertex 15 2.22961 8.83217
      vertex 15 2.5 8.875
    endloop
  endfacet
  facet normal 0 -0.453991 -0.891006
    outer loop
      vertex 15 2.77039 8.83217
      vertex 20.5 3.01431 8.70789
      vertex 20.5 2.77039 8.83217
    endloop
  endfacet
  facet normal -0 -0.453991 -0.891006
    outer loop
      vertex 20.5 3.01431 8.70789
      vertex 15 2.77039 8.83217
      vertex 15 3.01431 8.70789
    endloop
  endfacet
  facet normal 1 0 0
    outer loop
      vertex 15 3.33217 8.27039
      vertex 15 3.33217 7.72961
      vertex 15 3.375 8
    endloop
  endfacet
  facet normal 1 0 0
    outer loop
      vertex 15 3.20789 8.51431
      vertex 15 3.33217 7.72961
      vertex 15 3.33217 8.27039
    endloop
  endfacet
  facet normal 1 0 0
    outer loop
      vertex 15 3.20789 8.51431
      vertex 15 3.20789 7.48569
      vertex 15 3.33217 7.72961
    endloop
  endfacet
  facet normal 1 0 0
    outer loop
      vertex 15 3.01431 8.70789
      vertex 15 3.20789 7.48569
      vertex 15 3.20789 8.51431
    endloop
  endfacet
  facet normal 1 0 0
    outer loop
      vertex 15 3.01431 8.70789
      vertex 15 3.01431 7.29211
      vertex 15 3.20789 7.48569
    endloop
  endfacet
  facet normal 1 0 0
    outer loop
      vertex 15 2.77039 8.83217
      vertex 15 3.01431 7.29211
      vertex 15 3.01431 8.70789
    endloop
  endfacet
  facet normal 1 0 0
    outer loop
      vertex 15 2.77039 8.83217
      vertex 15 2.77039 7.16782
      vertex 15 3.01431 7.29211
    endloop
  endfacet
  facet normal 1 0 0
    outer loop
      vertex 15 2.5 8.875
      vertex 15 2.77039 7.16782
      vertex 15 2.77039 8.83217
    endloop
  endfacet
  facet normal 1 0 0
    outer loop
      vertex 15 2.5 8.875
      vertex 15 2.5 7.125
      vertex 15 2.77039 7.16782
    endloop
  endfacet
  facet normal 1 -0 0
    outer loop
      vertex 15 2.22961 8.83217
      vertex 15 2.5 7.125
      vertex 15 2.5 8.875
    endloop
  endfacet
  facet normal 1 0 0
    outer loop
      vertex 15 2.22961 8.83217
      vertex 15 2.22961 7.16782
      vertex 15 2.5 7.125
    endloop
  endfacet
  facet normal 1 -0 0
    outer loop
      vertex 15 1.98569 8.70789
      vertex 15 2.22961 7.16782
      vertex 15 2.22961 8.83217
    endloop
  endfacet
  facet normal 1 0 0
    outer loop
      vertex 15 1.98569 8.70789
      vertex 15 1.98569 7.29211
      vertex 15 2.22961 7.16782
    endloop
  endfacet
  facet normal 1 -0 0
    outer loop
      vertex 15 1.79211 8.51431
      vertex 15 1.98569 7.29211
      vertex 15 1.98569 8.70789
    endloop
  endfacet
  facet normal 1 0 0
    outer loop
      vertex 15 1.79211 8.51431
      vertex 15 1.79211 7.48569
      vertex 15 1.98569 7.29211
    endloop
  endfacet
  facet normal 1 -0 0
    outer loop
      vertex 15 1.66782 8.27039
      vertex 15 1.79211 7.48569
      vertex 15 1.79211 8.51431
    endloop
  endfacet
  facet normal 1 0 0
    outer loop
      vertex 15 1.66782 8.27039
      vertex 15 1.66782 7.72961
      vertex 15 1.79211 7.48569
    endloop
  endfacet
  facet normal 1 0 -0
    outer loop
      vertex 15 1.66782 7.72961
      vertex 15 1.66782 8.27039
      vertex 15 1.625 8
    endloop
  endfacet
  facet normal 0 0.891006 -0.453991
    outer loop
      vertex 20.5 1.66782 8.27039
      vertex 15 1.79211 8.51431
      vertex 20.5 1.79211 8.51431
    endloop
  endfacet
  facet normal 0 0.891006 -0.453991
    outer loop
      vertex 15 1.79211 8.51431
      vertex 20.5 1.66782 8.27039
      vertex 15 1.66782 8.27039
    endloop
  endfacet
  facet normal 0 0.453991 -0.891006
    outer loop
      vertex 15 1.98569 8.70789
      vertex 20.5 2.22961 8.83217
      vertex 20.5 1.98569 8.70789
    endloop
  endfacet
  facet normal 0 0.453991 -0.891006
    outer loop
      vertex 20.5 2.22961 8.83217
      vertex 15 1.98569 8.70789
      vertex 15 2.22961 8.83217
    endloop
  endfacet
  facet normal -0 0.453991 0.891006
    outer loop
      vertex 15 2.22961 7.16782
      vertex 20.5 1.98569 7.29211
      vertex 20.5 2.22961 7.16782
    endloop
  endfacet
  facet normal 0 0.453991 0.891006
    outer loop
      vertex 20.5 1.98569 7.29211
      vertex 15 2.22961 7.16782
      vertex 15 1.98569 7.29211
    endloop
  endfacet
  facet normal 0 0.987689 0.156431
    outer loop
      vertex 20.5 1.66782 7.72961
      vertex 15 1.625 8
      vertex 20.5 1.625 8
    endloop
  endfacet
  facet normal 0 0.987689 0.156431
    outer loop
      vertex 15 1.625 8
      vertex 20.5 1.66782 7.72961
      vertex 15 1.66782 7.72961
    endloop
  endfacet
  facet normal 0 0.987689 -0.156432
    outer loop
      vertex 20.5 1.625 8
      vertex 15 1.66782 8.27039
      vertex 20.5 1.66782 8.27039
    endloop
  endfacet
  facet normal 0 0.987689 -0.156432
    outer loop
      vertex 15 1.66782 8.27039
      vertex 20.5 1.625 8
      vertex 15 1.625 8
    endloop
  endfacet
  facet normal 0 0.707107 -0.707107
    outer loop
      vertex 20.5 1.79211 8.51431
      vertex 15 1.98569 8.70789
      vertex 20.5 1.98569 8.70789
    endloop
  endfacet
  facet normal 0 0.707107 -0.707107
    outer loop
      vertex 15 1.98569 8.70789
      vertex 20.5 1.79211 8.51431
      vertex 15 1.79211 8.51431
    endloop
  endfacet
  facet normal 0 -0.156432 0.987689
    outer loop
      vertex 15 30.2704 7.16782
      vertex 20.5 30 7.125
      vertex 20.5 30.2704 7.16782
    endloop
  endfacet
  facet normal 0 -0.156432 0.987689
    outer loop
      vertex 20.5 30 7.125
      vertex 15 30.2704 7.16782
      vertex 15 30 7.125
    endloop
  endfacet
  facet normal 0 -0.156435 -0.987688
    outer loop
      vertex 15 30 8.875
      vertex 20.5 30.2704 8.83217
      vertex 20.5 30 8.875
    endloop
  endfacet
  facet normal -0 -0.156435 -0.987688
    outer loop
      vertex 20.5 30.2704 8.83217
      vertex 15 30 8.875
      vertex 15 30.2704 8.83217
    endloop
  endfacet
  facet normal 0 0.987689 0.156428
    outer loop
      vertex 20.5 29.1678 7.72961
      vertex 15 29.125 8
      vertex 20.5 29.125 8
    endloop
  endfacet
  facet normal 0 0.987689 0.156428
    outer loop
      vertex 15 29.125 8
      vertex 20.5 29.1678 7.72961
      vertex 15 29.1678 7.72961
    endloop
  endfacet
  facet normal 0 0.891003 0.453996
    outer loop
      vertex 20.5 29.2921 7.48569
      vertex 15 29.1678 7.72961
      vertex 20.5 29.1678 7.72961
    endloop
  endfacet
  facet normal 0 0.891003 0.453996
    outer loop
      vertex 15 29.1678 7.72961
      vertex 20.5 29.2921 7.48569
      vertex 15 29.2921 7.48569
    endloop
  endfacet
  facet normal 0 -0.45399 0.891007
    outer loop
      vertex 15 30.5143 7.29211
      vertex 20.5 30.2704 7.16782
      vertex 20.5 30.5143 7.29211
    endloop
  endfacet
  facet normal 0 -0.45399 0.891007
    outer loop
      vertex 20.5 30.2704 7.16782
      vertex 15 30.5143 7.29211
      vertex 15 30.2704 7.16782
    endloop
  endfacet
  facet normal 0 -0.891006 0.453991
    outer loop
      vertex 15 30.7079 7.48569
      vertex 20.5 30.8322 7.72961
      vertex 15 30.8322 7.72961
    endloop
  endfacet
  facet normal 0 -0.891006 0.453991
    outer loop
      vertex 20.5 30.8322 7.72961
      vertex 15 30.7079 7.48569
      vertex 20.5 30.7079 7.48569
    endloop
  endfacet
  facet normal 0 -0.891006 -0.453991
    outer loop
      vertex 15 30.8322 8.27039
      vertex 20.5 30.7079 8.51431
      vertex 15 30.7079 8.51431
    endloop
  endfacet
  facet normal 0 -0.891006 -0.453991
    outer loop
      vertex 20.5 30.7079 8.51431
      vertex 15 30.8322 8.27039
      vertex 20.5 30.8322 8.27039
    endloop
  endfacet
  facet normal 0 -0.707109 -0.707105
    outer loop
      vertex 15 30.7079 8.51431
      vertex 20.5 30.5143 8.70789
      vertex 15 30.5143 8.70789
    endloop
  endfacet
  facet normal 0 -0.707109 -0.707105
    outer loop
      vertex 20.5 30.5143 8.70789
      vertex 15 30.7079 8.51431
      vertex 20.5 30.7079 8.51431
    endloop
  endfacet
  facet normal 0 -0.987688 -0.156435
    outer loop
      vertex 15 30.875 8
      vertex 20.5 30.8322 8.27039
      vertex 15 30.8322 8.27039
    endloop
  endfacet
  facet normal 0 -0.987688 -0.156435
    outer loop
      vertex 20.5 30.8322 8.27039
      vertex 15 30.875 8
      vertex 20.5 30.875 8
    endloop
  endfacet
  facet normal 0 -0.707109 0.707105
    outer loop
      vertex 15 30.5143 7.29211
      vertex 20.5 30.7079 7.48569
      vertex 15 30.7079 7.48569
    endloop
  endfacet
  facet normal 0 -0.707109 0.707105
    outer loop
      vertex 20.5 30.7079 7.48569
      vertex 15 30.5143 7.29211
      vertex 20.5 30.5143 7.29211
    endloop
  endfacet
  facet normal 0 -0.987688 0.156435
    outer loop
      vertex 15 30.8322 7.72961
      vertex 20.5 30.875 8
      vertex 15 30.875 8
    endloop
  endfacet
  facet normal 0 -0.987688 0.156435
    outer loop
      vertex 20.5 30.875 8
      vertex 15 30.8322 7.72961
      vertex 20.5 30.8322 7.72961
    endloop
  endfacet
  facet normal 0 -0.45399 -0.891007
    outer loop
      vertex 15 30.2704 8.83217
      vertex 20.5 30.5143 8.70789
      vertex 20.5 30.2704 8.83217
    endloop
  endfacet
  facet normal -0 -0.45399 -0.891007
    outer loop
      vertex 20.5 30.5143 8.70789
      vertex 15 30.2704 8.83217
      vertex 15 30.5143 8.70789
    endloop
  endfacet
  facet normal -0 0.156432 0.987689
    outer loop
      vertex 15 30 7.125
      vertex 20.5 29.7296 7.16782
      vertex 20.5 30 7.125
    endloop
  endfacet
  facet normal 0 0.156432 0.987689
    outer loop
      vertex 20.5 29.7296 7.16782
      vertex 15 30 7.125
      vertex 15 29.7296 7.16782
    endloop
  endfacet
  facet normal 0 0.45399 -0.891007
    outer loop
      vertex 15 29.4857 8.70789
      vertex 20.5 29.7296 8.83217
      vertex 20.5 29.4857 8.70789
    endloop
  endfacet
  facet normal 0 0.45399 -0.891007
    outer loop
      vertex 20.5 29.7296 8.83217
      vertex 15 29.4857 8.70789
      vertex 15 29.7296 8.83217
    endloop
  endfacet
  facet normal 0 0.707109 0.707105
    outer loop
      vertex 20.5 29.4857 7.29211
      vertex 15 29.2921 7.48569
      vertex 20.5 29.2921 7.48569
    endloop
  endfacet
  facet normal 0 0.707109 0.707105
    outer loop
      vertex 15 29.2921 7.48569
      vertex 20.5 29.4857 7.29211
      vertex 15 29.4857 7.29211
    endloop
  endfacet
  facet normal 0 0.156435 -0.987688
    outer loop
      vertex 15 29.7296 8.83217
      vertex 20.5 30 8.875
      vertex 20.5 29.7296 8.83217
    endloop
  endfacet
  facet normal 0 0.156435 -0.987688
    outer loop
      vertex 20.5 30 8.875
      vertex 15 29.7296 8.83217
      vertex 15 30 8.875
    endloop
  endfacet
  facet normal -0 0.45399 0.891007
    outer loop
      vertex 15 29.7296 7.16782
      vertex 20.5 29.4857 7.29211
      vertex 20.5 29.7296 7.16782
    endloop
  endfacet
  facet normal 0 0.45399 0.891007
    outer loop
      vertex 20.5 29.4857 7.29211
      vertex 15 29.7296 7.16782
      vertex 15 29.4857 7.29211
    endloop
  endfacet
  facet normal 0 0.987689 -0.156428
    outer loop
      vertex 20.5 29.125 8
      vertex 15 29.1678 8.27039
      vertex 20.5 29.1678 8.27039
    endloop
  endfacet
  facet normal 0 0.987689 -0.156428
    outer loop
      vertex 15 29.1678 8.27039
      vertex 20.5 29.125 8
      vertex 15 29.125 8
    endloop
  endfacet
  facet normal 1 0 0
    outer loop
      vertex 15 30.8322 8.27039
      vertex 15 30.8322 7.72961
      vertex 15 30.875 8
    endloop
  endfacet
  facet normal 1 0 0
    outer loop
      vertex 15 30.7079 8.51431
      vertex 15 30.8322 7.72961
      vertex 15 30.8322 8.27039
    endloop
  endfacet
  facet normal 1 0 0
    outer loop
      vertex 15 30.7079 8.51431
      vertex 15 30.7079 7.48569
      vertex 15 30.8322 7.72961
    endloop
  endfacet
  facet normal 1 0 0
    outer loop
      vertex 15 30.5143 8.70789
      vertex 15 30.7079 7.48569
      vertex 15 30.7079 8.51431
    endloop
  endfacet
  facet normal 1 0 0
    outer loop
      vertex 15 30.5143 8.70789
      vertex 15 30.5143 7.29211
      vertex 15 30.7079 7.48569
    endloop
  endfacet
  facet normal 1 0 0
    outer loop
      vertex 15 30.2704 8.83217
      vertex 15 30.5143 7.29211
      vertex 15 30.5143 8.70789
    endloop
  endfacet
  facet normal 1 0 0
    outer loop
      vertex 15 30.2704 8.83217
      vertex 15 30.2704 7.16782
      vertex 15 30.5143 7.29211
    endloop
  endfacet
  facet normal 1 0 0
    outer loop
      vertex 15 30 8.875
      vertex 15 30.2704 7.16782
      vertex 15 30.2704 8.83217
    endloop
  endfacet
  facet normal 1 0 0
    outer loop
      vertex 15 30 8.875
      vertex 15 30 7.125
      vertex 15 30.2704 7.16782
    endloop
  endfacet
  facet normal 1 -0 0
    outer loop
      vertex 15 29.7296 8.83217
      vertex 15 30 7.125
      vertex 15 30 8.875
    endloop
  endfacet
  facet normal 1 0 0
    outer loop
      vertex 15 29.7296 8.83217
      vertex 15 29.7296 7.16782
      vertex 15 30 7.125
    endloop
  endfacet
  facet normal 1 -0 0
    outer loop
      vertex 15 29.4857 8.70789
      vertex 15 29.7296 7.16782
      vertex 15 29.7296 8.83217
    endloop
  endfacet
  facet normal 1 0 0
    outer loop
      vertex 15 29.4857 8.70789
      vertex 15 29.4857 7.29211
      vertex 15 29.7296 7.16782
    endloop
  endfacet
  facet normal 1 -0 0
    outer loop
      vertex 15 29.2921 8.51431
      vertex 15 29.4857 7.29211
      vertex 15 29.4857 8.70789
    endloop
  endfacet
  facet normal 1 0 0
    outer loop
      vertex 15 29.2921 8.51431
      vertex 15 29.2921 7.48569
      vertex 15 29.4857 7.29211
    endloop
  endfacet
  facet normal 1 -0 0
    outer loop
      vertex 15 29.1678 8.27039
      vertex 15 29.2921 7.48569
      vertex 15 29.2921 8.51431
    endloop
  endfacet
  facet normal 1 0 0
    outer loop
      vertex 15 29.1678 8.27039
      vertex 15 29.1678 7.72961
      vertex 15 29.2921 7.48569
    endloop
  endfacet
  facet normal 1 0 -0
    outer loop
      vertex 15 29.1678 7.72961
      vertex 15 29.1678 8.27039
      vertex 15 29.125 8
    endloop
  endfacet
  facet normal 0 0.891003 -0.453996
    outer loop
      vertex 20.5 29.1678 8.27039
      vertex 15 29.2921 8.51431
      vertex 20.5 29.2921 8.51431
    endloop
  endfacet
  facet normal 0 0.891003 -0.453996
    outer loop
      vertex 15 29.2921 8.51431
      vertex 20.5 29.1678 8.27039
      vertex 15 29.1678 8.27039
    endloop
  endfacet
  facet normal 0 0.707109 -0.707105
    outer loop
      vertex 20.5 29.2921 8.51431
      vertex 15 29.4857 8.70789
      vertex 20.5 29.4857 8.70789
    endloop
  endfacet
  facet normal 0 0.707109 -0.707105
    outer loop
      vertex 15 29.4857 8.70789
      vertex 20.5 29.2921 8.51431
      vertex 15 29.2921 8.51431
    endloop
  endfacet
endsolid OpenSCAD_Model
