solid CATIA STL
  facet normal  0.000000e+000  0.000000e+000  1.000000e+000
    outer loop
      vertex  5.458735e+001 -5.178363e+001  2.000000e+000
      vertex  5.487621e+001 -5.107486e+001  2.000000e+000
      vertex  5.378733e+001 -5.357794e+001  2.000000e+000
    endloop
  endfacet
  facet normal  0.000000e+000  0.000000e+000  1.000000e+000
    outer loop
      vertex  5.458735e+001 -5.178363e+001  2.000000e+000
      vertex  5.378733e+001 -5.357794e+001  2.000000e+000
      vertex  5.488425e+001 -5.248906e+001  2.000000e+000
    endloop
  endfacet
  facet normal  0.000000e+000  0.000000e+000  1.000000e+000
    outer loop
      vertex  5.378733e+001 -5.357794e+001  2.000000e+000
      vertex  5.559302e+001 -5.277792e+001  2.000000e+000
      vertex  5.488425e+001 -5.248906e+001  2.000000e+000
    endloop
  endfacet
  facet normal  0.000000e+000  0.000000e+000  1.000000e+000
    outer loop
      vertex  5.378733e+001 -4.997794e+001  2.000000e+000
      vertex  5.378733e+001 -5.357794e+001  2.000000e+000
      vertex  5.487621e+001 -5.107486e+001  2.000000e+000
    endloop
  endfacet
  facet normal  0.000000e+000  -0.000000e+000  1.000000e+000
    outer loop
      vertex  5.378733e+001 -4.997794e+001  2.000000e+000
      vertex  5.487621e+001 -5.107486e+001  2.000000e+000
      vertex  5.558164e+001 -5.077795e+001  2.000000e+000
    endloop
  endfacet
  facet normal  -0.000000e+000  -0.000000e+000  1.000000e+000
    outer loop
      vertex  5.378733e+001 -4.997794e+001  2.000000e+000
      vertex  5.558164e+001 -5.077795e+001  2.000000e+000
      vertex  6.408733e+001 -5.097794e+001  2.000000e+000
    endloop
  endfacet
  facet normal  0.000000e+000  0.000000e+000  1.000000e+000
    outer loop
      vertex  5.378733e+001 -4.997794e+001  2.000000e+000
      vertex  6.408733e+001 -5.097794e+001  2.000000e+000
      vertex  5.708733e+001 -4.997794e+001  2.000000e+000
    endloop
  endfacet
  facet normal  -0.000000e+000  0.000000e+000  1.000000e+000
    outer loop
      vertex  4.840539e+000 -5.144402e+000  2.000000e+000
      vertex -4.731575e+000 -8.910151e+000  2.000000e+000
      vertex -1.095880e+000 -1.096806e+001  2.000000e+000
    endloop
  endfacet
  facet normal  -0.000000e+000  0.000000e+000  1.000000e+000
    outer loop
      vertex  4.840539e+000 -5.144402e+000  2.000000e+000
      vertex -1.095880e+000 -1.096806e+001  2.000000e+000
      vertex  5.038742e-001 -1.216839e+001  2.000000e+000
    endloop
  endfacet
  facet normal  -0.000000e+000  0.000000e+000  1.000000e+000
    outer loop
      vertex  4.840539e+000 -5.144402e+000  2.000000e+000
      vertex  5.038742e-001 -1.216839e+001  2.000000e+000
      vertex  2.881997e+001 -3.099696e+001  2.000000e+000
    endloop
  endfacet
  facet normal  0.000000e+000  0.000000e+000  1.000000e+000
    outer loop
      vertex  4.840539e+000 -5.144402e+000  2.000000e+000
      vertex  2.881997e+001 -3.099696e+001  2.000000e+000
      vertex  1.504510e+001 -8.031171e+000  2.000000e+000
    endloop
  endfacet
  facet normal  0.000000e+000  0.000000e+000  1.000000e+000
    outer loop
      vertex  4.868404e+001 -3.099696e+001  2.000000e+000
      vertex  1.248442e+001 -4.657794e+001  2.000000e+000
      vertex  1.468443e+001 -4.657794e+001  2.000000e+000
    endloop
  endfacet
  facet normal  -0.000000e+000  0.000000e+000  1.000000e+000
    outer loop
      vertex  4.868404e+001 -3.099696e+001  2.000000e+000
      vertex  1.468443e+001 -4.657794e+001  2.000000e+000
      vertex  5.278733e+001 -4.897794e+001  2.000000e+000
    endloop
  endfacet
  facet normal  0.000000e+000  -0.000000e+000  1.000000e+000
    outer loop
      vertex  4.868404e+001 -3.099696e+001  2.000000e+000
      vertex  5.278733e+001 -4.897794e+001  2.000000e+000
      vertex  5.708733e+001 -4.897794e+001  2.000000e+000
    endloop
  endfacet
  facet normal  0.000000e+000  -0.000000e+000  1.000000e+000
    outer loop
      vertex  4.868404e+001 -3.099696e+001  2.000000e+000
      vertex  5.708733e+001 -4.897794e+001  2.000000e+000
      vertex  6.408733e+001 -4.857794e+001  2.000000e+000
    endloop
  endfacet
  facet normal  0.000000e+000  0.000000e+000  9.999999e-001
    outer loop
      vertex  6.108733e+001 -5.097794e+001  2.000000e+000
      vertex  6.408733e+001 -5.097794e+001  2.000000e+000
      vertex  5.558164e+001 -5.077795e+001  2.000000e+000
    endloop
  endfacet
  facet normal  0.000000e+000  0.000000e+000  1.000000e+000
    outer loop
      vertex  6.108733e+001 -5.097794e+001  2.000000e+000
      vertex  5.558164e+001 -5.077795e+001  2.000000e+000
      vertex  5.629040e+001 -5.106682e+001  2.000000e+000
    endloop
  endfacet
  facet normal  -0.000000e+000  0.000000e+000  1.000000e+000
    outer loop
      vertex  6.108733e+001 -5.097794e+001  2.000000e+000
      vertex  5.629040e+001 -5.106682e+001  2.000000e+000
      vertex  6.108733e+001 -5.317794e+001  2.000000e+000
    endloop
  endfacet
  facet normal  0.000000e+000  0.000000e+000  1.000000e+000
    outer loop
      vertex  1.248442e+001 -4.657794e+001  2.000000e+000
      vertex  4.868404e+001 -3.099696e+001  2.000000e+000
      vertex  2.881997e+001 -3.099696e+001  2.000000e+000
    endloop
  endfacet
  facet normal  0.000000e+000  0.000000e+000  1.000000e+000
    outer loop
      vertex  1.248442e+001 -4.657794e+001  2.000000e+000
      vertex  2.881997e+001 -3.099696e+001  2.000000e+000
      vertex  1.310979e+000 -2.401875e+001  2.000000e+000
    endloop
  endfacet
  facet normal  0.000000e+000  0.000000e+000  1.000000e+000
    outer loop
      vertex  1.248442e+001 -4.657794e+001  2.000000e+000
      vertex  1.310979e+000 -2.401875e+001  2.000000e+000
      vertex  8.484425e+000 -4.957794e+001  2.000000e+000
    endloop
  endfacet
  facet normal  0.000000e+000  0.000000e+000  1.000000e+000
    outer loop
      vertex  1.248442e+001 -4.657794e+001  2.000000e+000
      vertex  8.484425e+000 -4.957794e+001  2.000000e+000
      vertex  1.248442e+001 -4.957794e+001  2.000000e+000
    endloop
  endfacet
  facet normal  0.000000e+000  0.000000e+000  1.000000e+000
    outer loop
      vertex  6.108733e+001 -5.317794e+001  2.000000e+000
      vertex  5.629040e+001 -5.106682e+001  2.000000e+000
      vertex  5.658731e+001 -5.177225e+001  2.000000e+000
    endloop
  endfacet
  facet normal  0.000000e+000  0.000000e+000  1.000000e+000
    outer loop
      vertex  6.108733e+001 -5.317794e+001  2.000000e+000
      vertex  5.658731e+001 -5.177225e+001  2.000000e+000
      vertex  5.629845e+001 -5.248101e+001  2.000000e+000
    endloop
  endfacet
  facet normal  0.000000e+000  0.000000e+000  1.000000e+000
    outer loop
      vertex  6.108733e+001 -5.317794e+001  2.000000e+000
      vertex  5.629845e+001 -5.248101e+001  2.000000e+000
      vertex  5.559302e+001 -5.277792e+001  2.000000e+000
    endloop
  endfacet
  facet normal  0.000000e+000  0.000000e+000  1.000000e+000
    outer loop
      vertex  6.108733e+001 -5.317794e+001  2.000000e+000
      vertex  5.559302e+001 -5.277792e+001  2.000000e+000
      vertex  5.378733e+001 -5.357794e+001  2.000000e+000
    endloop
  endfacet
  facet normal  0.000000e+000  0.000000e+000  1.000000e+000
    outer loop
      vertex  6.108733e+001 -5.317794e+001  2.000000e+000
      vertex  5.378733e+001 -5.357794e+001  2.000000e+000
      vertex  5.708733e+001 -5.357794e+001  2.000000e+000
    endloop
  endfacet
  facet normal  0.000000e+000  0.000000e+000  1.000000e+000
    outer loop
      vertex  6.108733e+001 -5.317794e+001  2.000000e+000
      vertex  5.708733e+001 -5.357794e+001  2.000000e+000
      vertex  6.408733e+001 -5.317794e+001  2.000000e+000
    endloop
  endfacet
  facet normal  0.000000e+000  -0.000000e+000  1.000000e+000
    outer loop
      vertex -1.276531e+001 -1.710117e+001  2.000000e+000
      vertex -9.517630e+000 -2.187927e+001  2.000000e+000
      vertex -5.415299e+000 -1.181114e+001  2.000000e+000
    endloop
  endfacet
  facet normal  0.000000e+000  0.000000e+000  1.000000e+000
    outer loop
      vertex -5.415299e+000 -1.181114e+001  2.000000e+000
      vertex -9.517630e+000 -2.187927e+001  2.000000e+000
      vertex -2.296208e+000 -1.256782e+001  2.000000e+000
    endloop
  endfacet
  facet normal  0.000000e+000  0.000000e+000  1.000000e+000
    outer loop
      vertex -5.415299e+000 -1.181114e+001  2.000000e+000
      vertex -2.296208e+000 -1.256782e+001  2.000000e+000
      vertex -4.731575e+000 -8.910151e+000  2.000000e+000
    endloop
  endfacet
  facet normal  0.000000e+000  0.000000e+000  1.000000e+000
    outer loop
      vertex -4.731575e+000 -8.910151e+000  2.000000e+000
      vertex -2.296208e+000 -1.256782e+001  2.000000e+000
      vertex -1.095880e+000 -1.096806e+001  2.000000e+000
    endloop
  endfacet
  facet normal  -0.000000e+000  0.000000e+000  1.000000e+000
    outer loop
      vertex  6.408733e+001 -5.317794e+001  2.000000e+000
      vertex  5.708733e+001 -5.357794e+001  2.000000e+000
      vertex  6.408733e+001 -5.557794e+001  2.000000e+000
    endloop
  endfacet
  facet normal  0.000000e+000  0.000000e+000  1.000000e+000
    outer loop
      vertex  6.408733e+001 -5.557794e+001  2.000000e+000
      vertex  5.708733e+001 -5.357794e+001  2.000000e+000
      vertex  5.708733e+001 -5.457794e+001  2.000000e+000
    endloop
  endfacet
  facet normal  0.000000e+000  0.000000e+000  1.000000e+000
    outer loop
      vertex  6.408733e+001 -5.557794e+001  2.000000e+000
      vertex  5.708733e+001 -5.457794e+001  2.000000e+000
      vertex  2.553834e+001 -5.557794e+001  2.000000e+000
    endloop
  endfacet
  facet normal  0.000000e+000  0.000000e+000  1.000000e+000
    outer loop
      vertex  2.553834e+001 -5.557794e+001  2.000000e+000
      vertex  5.708733e+001 -5.457794e+001  2.000000e+000
      vertex  5.278733e+001 -5.457794e+001  2.000000e+000
    endloop
  endfacet
  facet normal  0.000000e+000  0.000000e+000  1.000000e+000
    outer loop
      vertex  2.553834e+001 -5.557794e+001  2.000000e+000
      vertex  5.278733e+001 -5.457794e+001  2.000000e+000
      vertex  1.918593e+001 -4.957794e+001  2.000000e+000
    endloop
  endfacet
  facet normal  -0.000000e+000  0.000000e+000  9.999999e-001
    outer loop
      vertex  1.918593e+001 -4.957794e+001  2.000000e+000
      vertex  5.278733e+001 -5.457794e+001  2.000000e+000
      vertex  5.278733e+001 -4.897794e+001  2.000000e+000
    endloop
  endfacet
  facet normal  0.000000e+000  0.000000e+000  1.000000e+000
    outer loop
      vertex  1.918593e+001 -4.957794e+001  2.000000e+000
      vertex  5.278733e+001 -4.897794e+001  2.000000e+000
      vertex  1.468443e+001 -4.957794e+001  2.000000e+000
    endloop
  endfacet
  facet normal  0.000000e+000  0.000000e+000  1.000000e+000
    outer loop
      vertex  1.468443e+001 -4.957794e+001  2.000000e+000
      vertex  5.278733e+001 -4.897794e+001  2.000000e+000
      vertex  1.468443e+001 -4.657794e+001  2.000000e+000
    endloop
  endfacet
  facet normal  0.000000e+000  0.000000e+000  9.999999e-001
    outer loop
      vertex  2.881997e+001 -3.099696e+001  2.000000e+000
      vertex  5.038742e-001 -1.216839e+001  2.000000e+000
      vertex  1.310979e+000 -2.401875e+001  2.000000e+000
    endloop
  endfacet
  facet normal  0.000000e+000  0.000000e+000  9.999999e-001
    outer loop
      vertex  1.310979e+000 -2.401875e+001  2.000000e+000
      vertex  5.038742e-001 -1.216839e+001  2.000000e+000
      vertex -6.964536e-001 -1.376814e+001  2.000000e+000
    endloop
  endfacet
  facet normal  0.000000e+000  0.000000e+000  1.000000e+000
    outer loop
      vertex  1.310979e+000 -2.401875e+001  2.000000e+000
      vertex -6.964536e-001 -1.376814e+001  2.000000e+000
      vertex -9.517630e+000 -2.187927e+001  2.000000e+000
    endloop
  endfacet
  facet normal  0.000000e+000  0.000000e+000  1.000000e+000
    outer loop
      vertex -9.517630e+000 -2.187927e+001  2.000000e+000
      vertex -6.964536e-001 -1.376814e+001  2.000000e+000
      vertex -2.296208e+000 -1.256782e+001  2.000000e+000
    endloop
  endfacet
  facet normal  0.000000e+000  0.000000e+000  1.000000e+000
    outer loop
      vertex  5.708733e+001 -4.997794e+001  2.000000e+000
      vertex  6.408733e+001 -5.097794e+001  2.000000e+000
      vertex  5.708733e+001 -4.897794e+001  2.000000e+000
    endloop
  endfacet
  facet normal  -0.000000e+000  0.000000e+000  1.000000e+000
    outer loop
      vertex  5.708733e+001 -4.897794e+001  2.000000e+000
      vertex  6.408733e+001 -5.097794e+001  2.000000e+000
      vertex  6.408733e+001 -4.857794e+001  2.000000e+000
    endloop
  endfacet
  facet normal  1.000000e+000  0.000000e+000  0.000000e+000
    outer loop
      vertex  5.708733e+001 -4.897794e+001  2.000000e+000
      vertex  5.708733e+001 -4.897794e+001  2.430000e+000
      vertex  5.708733e+001 -4.997794e+001  2.000000e+000
    endloop
  endfacet
  facet normal  1.000000e+000  0.000000e+000  0.000000e+000
    outer loop
      vertex  5.708733e+001 -4.997794e+001  2.000000e+000
      vertex  5.708733e+001 -4.897794e+001  2.430000e+000
      vertex  5.708733e+001 -4.997794e+001  2.430000e+000
    endloop
  endfacet
  facet normal  0.000000e+000 -1.000000e+000  -0.000000e+000
    outer loop
      vertex  5.708733e+001 -4.997794e+001  2.000000e+000
      vertex  5.708733e+001 -4.997794e+001  2.430000e+000
      vertex  5.378733e+001 -4.997794e+001  2.000000e+000
    endloop
  endfacet
  facet normal  0.000000e+000 -1.000000e+000  0.000000e+000
    outer loop
      vertex  5.378733e+001 -4.997794e+001  2.000000e+000
      vertex  5.708733e+001 -4.997794e+001  2.430000e+000
      vertex  5.378733e+001 -4.997794e+001  2.430000e+000
    endloop
  endfacet
  facet normal  1.000000e+000  0.000000e+000  0.000000e+000
    outer loop
      vertex  5.378733e+001 -4.997794e+001  2.000000e+000
      vertex  5.378733e+001 -4.997794e+001  2.430000e+000
      vertex  5.378733e+001 -5.357794e+001  2.000000e+000
    endloop
  endfacet
  facet normal  1.000000e+000  0.000000e+000  0.000000e+000
    outer loop
      vertex  5.378733e+001 -5.357794e+001  2.000000e+000
      vertex  5.378733e+001 -4.997794e+001  2.430000e+000
      vertex  5.378733e+001 -5.357794e+001  2.430000e+000
    endloop
  endfacet
  facet normal  0.000000e+000  1.000000e+000  0.000000e+000
    outer loop
      vertex  5.378733e+001 -5.357794e+001  2.000000e+000
      vertex  5.378733e+001 -5.357794e+001  2.430000e+000
      vertex  5.708733e+001 -5.357794e+001  2.000000e+000
    endloop
  endfacet
  facet normal  0.000000e+000  1.000000e+000  -0.000000e+000
    outer loop
      vertex  5.708733e+001 -5.357794e+001  2.000000e+000
      vertex  5.378733e+001 -5.357794e+001  2.430000e+000
      vertex  5.708733e+001 -5.357794e+001  2.430000e+000
    endloop
  endfacet
  facet normal  1.000000e+000  0.000000e+000  0.000000e+000
    outer loop
      vertex  5.708733e+001 -5.357794e+001  2.000000e+000
      vertex  5.708733e+001 -5.357794e+001  2.430000e+000
      vertex  5.708733e+001 -5.457794e+001  2.000000e+000
    endloop
  endfacet
  facet normal  1.000000e+000  0.000000e+000  0.000000e+000
    outer loop
      vertex  5.708733e+001 -5.457794e+001  2.000000e+000
      vertex  5.708733e+001 -5.357794e+001  2.430000e+000
      vertex  5.708733e+001 -5.457794e+001  2.430000e+000
    endloop
  endfacet
  facet normal  0.000000e+000 -1.000000e+000  -0.000000e+000
    outer loop
      vertex  5.708733e+001 -5.457794e+001  2.000000e+000
      vertex  5.708733e+001 -5.457794e+001  2.430000e+000
      vertex  5.278733e+001 -5.457794e+001  2.000000e+000
    endloop
  endfacet
  facet normal  0.000000e+000 -1.000000e+000  0.000000e+000
    outer loop
      vertex  5.278733e+001 -5.457794e+001  2.000000e+000
      vertex  5.708733e+001 -5.457794e+001  2.430000e+000
      vertex  5.278733e+001 -5.457794e+001  2.430000e+000
    endloop
  endfacet
  facet normal -1.000000e+000  0.000000e+000  0.000000e+000
    outer loop
      vertex  5.278733e+001 -5.457794e+001  2.000000e+000
      vertex  5.278733e+001 -5.457794e+001  2.430000e+000
      vertex  5.278733e+001 -4.897794e+001  2.000000e+000
    endloop
  endfacet
  facet normal -1.000000e+000  0.000000e+000  0.000000e+000
    outer loop
      vertex  5.278733e+001 -4.897794e+001  2.000000e+000
      vertex  5.278733e+001 -5.457794e+001  2.430000e+000
      vertex  5.278733e+001 -4.897794e+001  2.430000e+000
    endloop
  endfacet
  facet normal  0.000000e+000  1.000000e+000  0.000000e+000
    outer loop
      vertex  5.278733e+001 -4.897794e+001  2.000000e+000
      vertex  5.278733e+001 -4.897794e+001  2.430000e+000
      vertex  5.708733e+001 -4.897794e+001  2.000000e+000
    endloop
  endfacet
  facet normal  0.000000e+000  1.000000e+000  -0.000000e+000
    outer loop
      vertex  5.708733e+001 -4.897794e+001  2.000000e+000
      vertex  5.278733e+001 -4.897794e+001  2.430000e+000
      vertex  5.708733e+001 -4.897794e+001  2.430000e+000
    endloop
  endfacet
  facet normal  9.260427e-001 -3.774188e-001  0.000000e+000
    outer loop
      vertex  5.658731e+001 -5.177225e+001  2.000000e+000
      vertex  5.658731e+001 -5.177225e+001  2.430000e+000
      vertex  5.629845e+001 -5.248101e+001  2.000000e+000
    endloop
  endfacet
  facet normal  9.260427e-001 -3.774188e-001  0.000000e+000
    outer loop
      vertex  5.629845e+001 -5.248101e+001  2.000000e+000
      vertex  5.658731e+001 -5.177225e+001  2.430000e+000
      vertex  5.629845e+001 -5.248101e+001  2.430000e+000
    endloop
  endfacet
  facet normal  3.879311e-001 -9.216884e-001  0.000000e+000
    outer loop
      vertex  5.629845e+001 -5.248101e+001  2.000000e+000
      vertex  5.629845e+001 -5.248101e+001  2.430000e+000
      vertex  5.559302e+001 -5.277792e+001  2.000000e+000
    endloop
  endfacet
  facet normal  3.879311e-001 -9.216884e-001  0.000000e+000
    outer loop
      vertex  5.559302e+001 -5.277792e+001  2.000000e+000
      vertex  5.629845e+001 -5.248101e+001  2.430000e+000
      vertex  5.559302e+001 -5.277792e+001  2.430000e+000
    endloop
  endfacet
  facet normal -3.774188e-001 -9.260427e-001  -0.000000e+000
    outer loop
      vertex  5.559302e+001 -5.277792e+001  2.000000e+000
      vertex  5.559302e+001 -5.277792e+001  2.430000e+000
      vertex  5.488425e+001 -5.248906e+001  2.000000e+000
    endloop
  endfacet
  facet normal -3.774188e-001 -9.260427e-001  0.000000e+000
    outer loop
      vertex  5.488425e+001 -5.248906e+001  2.000000e+000
      vertex  5.559302e+001 -5.277792e+001  2.430000e+000
      vertex  5.488425e+001 -5.248906e+001  2.430000e+000
    endloop
  endfacet
  facet normal -9.216884e-001 -3.879311e-001  -0.000000e+000
    outer loop
      vertex  5.488425e+001 -5.248906e+001  2.000000e+000
      vertex  5.488425e+001 -5.248906e+001  2.430000e+000
      vertex  5.458735e+001 -5.178363e+001  2.000000e+000
    endloop
  endfacet
  facet normal -9.216884e-001 -3.879311e-001  0.000000e+000
    outer loop
      vertex  5.458735e+001 -5.178363e+001  2.000000e+000
      vertex  5.488425e+001 -5.248906e+001  2.430000e+000
      vertex  5.458735e+001 -5.178363e+001  2.430000e+000
    endloop
  endfacet
  facet normal -9.260427e-001  3.774188e-001  0.000000e+000
    outer loop
      vertex  5.458735e+001 -5.178363e+001  2.000000e+000
      vertex  5.458735e+001 -5.178363e+001  2.430000e+000
      vertex  5.487621e+001 -5.107486e+001  2.000000e+000
    endloop
  endfacet
  facet normal -9.260427e-001  3.774188e-001  0.000000e+000
    outer loop
      vertex  5.487621e+001 -5.107486e+001  2.000000e+000
      vertex  5.458735e+001 -5.178363e+001  2.430000e+000
      vertex  5.487621e+001 -5.107486e+001  2.430000e+000
    endloop
  endfacet
  facet normal -3.879311e-001  9.216884e-001  0.000000e+000
    outer loop
      vertex  5.487621e+001 -5.107486e+001  2.000000e+000
      vertex  5.487621e+001 -5.107486e+001  2.430000e+000
      vertex  5.558164e+001 -5.077795e+001  2.000000e+000
    endloop
  endfacet
  facet normal -3.879311e-001  9.216884e-001  0.000000e+000
    outer loop
      vertex  5.558164e+001 -5.077795e+001  2.000000e+000
      vertex  5.487621e+001 -5.107486e+001  2.430000e+000
      vertex  5.558164e+001 -5.077795e+001  2.430000e+000
    endloop
  endfacet
  facet normal  3.774188e-001  9.260427e-001  0.000000e+000
    outer loop
      vertex  5.558164e+001 -5.077795e+001  2.000000e+000
      vertex  5.558164e+001 -5.077795e+001  2.430000e+000
      vertex  5.629040e+001 -5.106682e+001  2.000000e+000
    endloop
  endfacet
  facet normal  3.774188e-001  9.260427e-001  -0.000000e+000
    outer loop
      vertex  5.629040e+001 -5.106682e+001  2.000000e+000
      vertex  5.558164e+001 -5.077795e+001  2.430000e+000
      vertex  5.629040e+001 -5.106682e+001  2.430000e+000
    endloop
  endfacet
  facet normal  9.216884e-001  3.879311e-001  0.000000e+000
    outer loop
      vertex  5.629040e+001 -5.106682e+001  2.000000e+000
      vertex  5.629040e+001 -5.106682e+001  2.430000e+000
      vertex  5.658731e+001 -5.177225e+001  2.000000e+000
    endloop
  endfacet
  facet normal  9.216884e-001  3.879311e-001  -0.000000e+000
    outer loop
      vertex  5.658731e+001 -5.177225e+001  2.000000e+000
      vertex  5.629040e+001 -5.106682e+001  2.430000e+000
      vertex  5.658731e+001 -5.177225e+001  2.430000e+000
    endloop
  endfacet
  facet normal  0.000000e+000  0.000000e+000  1.000000e+000
    outer loop
      vertex  5.708733e+001 -5.457794e+001  2.430000e+000
      vertex  5.708733e+001 -5.357794e+001  2.430000e+000
      vertex  5.278733e+001 -5.457794e+001  2.430000e+000
    endloop
  endfacet
  facet normal  0.000000e+000  0.000000e+000  1.000000e+000
    outer loop
      vertex  5.278733e+001 -5.457794e+001  2.430000e+000
      vertex  5.708733e+001 -5.357794e+001  2.430000e+000
      vertex  5.378733e+001 -5.357794e+001  2.430000e+000
    endloop
  endfacet
  facet normal  0.000000e+000  0.000000e+000  1.000000e+000
    outer loop
      vertex  5.278733e+001 -5.457794e+001  2.430000e+000
      vertex  5.378733e+001 -5.357794e+001  2.430000e+000
      vertex  5.278733e+001 -4.897794e+001  2.430000e+000
    endloop
  endfacet
  facet normal  0.000000e+000  0.000000e+000  1.000000e+000
    outer loop
      vertex  5.278733e+001 -4.897794e+001  2.430000e+000
      vertex  5.378733e+001 -5.357794e+001  2.430000e+000
      vertex  5.378733e+001 -4.997794e+001  2.430000e+000
    endloop
  endfacet
  facet normal  0.000000e+000  -0.000000e+000  1.000000e+000
    outer loop
      vertex  5.278733e+001 -4.897794e+001  2.430000e+000
      vertex  5.378733e+001 -4.997794e+001  2.430000e+000
      vertex  5.708733e+001 -4.897794e+001  2.430000e+000
    endloop
  endfacet
  facet normal  0.000000e+000  0.000000e+000  1.000000e+000
    outer loop
      vertex  5.708733e+001 -4.897794e+001  2.430000e+000
      vertex  5.378733e+001 -4.997794e+001  2.430000e+000
      vertex  5.708733e+001 -4.997794e+001  2.430000e+000
    endloop
  endfacet
  facet normal  0.000000e+000  0.000000e+000  1.000000e+000
    outer loop
      vertex  5.487621e+001 -5.107486e+001  2.430000e+000
      vertex  5.629040e+001 -5.106682e+001  2.430000e+000
      vertex  5.558164e+001 -5.077795e+001  2.430000e+000
    endloop
  endfacet
  facet normal  -0.000000e+000  0.000000e+000  1.000000e+000
    outer loop
      vertex  5.629040e+001 -5.106682e+001  2.430000e+000
      vertex  5.487621e+001 -5.107486e+001  2.430000e+000
      vertex  5.658731e+001 -5.177225e+001  2.430000e+000
    endloop
  endfacet
  facet normal  0.000000e+000  0.000000e+000  9.999999e-001
    outer loop
      vertex  5.658731e+001 -5.177225e+001  2.430000e+000
      vertex  5.487621e+001 -5.107486e+001  2.430000e+000
      vertex  5.458735e+001 -5.178363e+001  2.430000e+000
    endloop
  endfacet
  facet normal  -0.000000e+000  0.000000e+000  9.999999e-001
    outer loop
      vertex  5.658731e+001 -5.177225e+001  2.430000e+000
      vertex  5.458735e+001 -5.178363e+001  2.430000e+000
      vertex  5.629845e+001 -5.248101e+001  2.430000e+000
    endloop
  endfacet
  facet normal  0.000000e+000  0.000000e+000  1.000000e+000
    outer loop
      vertex  5.629845e+001 -5.248101e+001  2.430000e+000
      vertex  5.458735e+001 -5.178363e+001  2.430000e+000
      vertex  5.488425e+001 -5.248906e+001  2.430000e+000
    endloop
  endfacet
  facet normal  -0.000000e+000  0.000000e+000  1.000000e+000
    outer loop
      vertex  5.629845e+001 -5.248101e+001  2.430000e+000
      vertex  5.488425e+001 -5.248906e+001  2.430000e+000
      vertex  5.559302e+001 -5.277792e+001  2.430000e+000
    endloop
  endfacet
  facet normal  0.000000e+000  1.000000e+000  0.000000e+000
    outer loop
      vertex -4.204439e+000 -3.999259e+001  0.000000e+000
      vertex -4.204439e+000 -3.999259e+001  2.000000e+000
      vertex -1.804439e+000 -3.999259e+001  0.000000e+000
    endloop
  endfacet
  facet normal  0.000000e+000  1.000000e+000  -0.000000e+000
    outer loop
      vertex -1.804439e+000 -3.999259e+001  0.000000e+000
      vertex -4.204439e+000 -3.999259e+001  2.000000e+000
      vertex -1.804439e+000 -3.999259e+001  2.000000e+000
    endloop
  endfacet
  facet normal  0.000000e+000  1.000000e+000  0.000000e+000
    outer loop
      vertex -8.804440e+000 -3.999259e+001  0.000000e+000
      vertex -8.804440e+000 -3.999259e+001  2.000000e+000
      vertex -6.404439e+000 -3.999259e+001  0.000000e+000
    endloop
  endfacet
  facet normal  0.000000e+000  1.000000e+000  -0.000000e+000
    outer loop
      vertex -6.404439e+000 -3.999259e+001  0.000000e+000
      vertex -8.804440e+000 -3.999259e+001  2.000000e+000
      vertex -6.404439e+000 -3.999259e+001  2.000000e+000
    endloop
  endfacet
  facet normal  0.000000e+000  0.000000e+000 -1.000000e+000
    outer loop
      vertex -1.804439e+000 -4.999259e+001  0.000000e+000
      vertex -8.804440e+000 -4.999259e+001  0.000000e+000
      vertex -4.204439e+000 -4.699259e+001  0.000000e+000
    endloop
  endfacet
  facet normal  0.000000e+000  -0.000000e+000 -1.000000e+000
    outer loop
      vertex -1.630999e+001 -5.299259e+001  0.000000e+000
      vertex -8.804440e+000 -3.999259e+001  0.000000e+000
      vertex -6.404439e+000 -3.999259e+001  0.000000e+000
    endloop
  endfacet
  facet normal  0.000000e+000  -0.000000e+000 -1.000000e+000
    outer loop
      vertex -1.630999e+001 -5.299259e+001  0.000000e+000
      vertex -6.404439e+000 -3.999259e+001  0.000000e+000
      vertex -6.404439e+000 -4.699259e+001  0.000000e+000
    endloop
  endfacet
  facet normal  0.000000e+000  -0.000000e+000 -1.000000e+000
    outer loop
      vertex -1.630999e+001 -5.299259e+001  0.000000e+000
      vertex -6.404439e+000 -4.699259e+001  0.000000e+000
      vertex -4.204439e+000 -4.699259e+001  0.000000e+000
    endloop
  endfacet
  facet normal  0.000000e+000  0.000000e+000 -1.000000e+000
    outer loop
      vertex -1.630999e+001 -5.299259e+001  0.000000e+000
      vertex -4.204439e+000 -4.699259e+001  0.000000e+000
      vertex -8.804440e+000 -4.999259e+001  0.000000e+000
    endloop
  endfacet
  facet normal  0.000000e+000  0.000000e+000 -1.000000e+000
    outer loop
      vertex -1.630999e+001 -5.299259e+001  0.000000e+000
      vertex -8.804440e+000 -4.999259e+001  0.000000e+000
      vertex -1.226854e+001 -5.599259e+001  0.000000e+000
    endloop
  endfacet
  facet normal  0.000000e+000  0.000000e+000 -1.000000e+000
    outer loop
      vertex -1.630999e+001 -5.299259e+001  0.000000e+000
      vertex -1.226854e+001 -5.599259e+001  0.000000e+000
      vertex -2.426854e+001 -5.599259e+001  0.000000e+000
    endloop
  endfacet
  facet normal  0.000000e+000  0.000000e+000 -9.999999e-001
    outer loop
      vertex -1.630999e+001 -5.299259e+001  0.000000e+000
      vertex -2.426854e+001 -5.599259e+001  0.000000e+000
      vertex -2.426854e+001 -5.299259e+001  0.000000e+000
    endloop
  endfacet
  facet normal  0.000000e+000  0.000000e+000 -1.000000e+000
    outer loop
      vertex -4.204439e+000 -4.699259e+001  0.000000e+000
      vertex -4.204439e+000 -3.999259e+001  0.000000e+000
      vertex -1.804439e+000 -4.999259e+001  0.000000e+000
    endloop
  endfacet
  facet normal  0.000000e+000  0.000000e+000 -1.000000e+000
    outer loop
      vertex -1.804439e+000 -4.999259e+001  0.000000e+000
      vertex -4.204439e+000 -3.999259e+001  0.000000e+000
      vertex -1.804439e+000 -3.999259e+001  0.000000e+000
    endloop
  endfacet
  facet normal  0.000000e+000  0.000000e+000 -9.999999e-001
    outer loop
      vertex -1.804439e+000 -4.999259e+001  0.000000e+000
      vertex -1.804439e+000 -3.999259e+001  0.000000e+000
      vertex  1.659662e+000 -5.599259e+001  0.000000e+000
    endloop
  endfacet
  facet normal  0.000000e+000  0.000000e+000 -1.000000e+000
    outer loop
      vertex  1.659662e+000 -5.599259e+001  0.000000e+000
      vertex -1.804439e+000 -3.999259e+001  0.000000e+000
      vertex  5.701114e+000 -5.299259e+001  0.000000e+000
    endloop
  endfacet
  facet normal  0.000000e+000  -0.000000e+000 -1.000000e+000
    outer loop
      vertex  1.659662e+000 -5.599259e+001  0.000000e+000
      vertex  5.701114e+000 -5.299259e+001  0.000000e+000
      vertex  1.365966e+001 -5.599259e+001  0.000000e+000
    endloop
  endfacet
  facet normal  0.000000e+000  0.000000e+000 -1.000000e+000
    outer loop
      vertex  1.365966e+001 -5.599259e+001  0.000000e+000
      vertex  5.701114e+000 -5.299259e+001  0.000000e+000
      vertex  1.365966e+001 -5.299259e+001  0.000000e+000
    endloop
  endfacet
  facet normal  0.000000e+000  0.000000e+000  1.000000e+000
    outer loop
      vertex -4.204439e+000 -4.699259e+001  2.000000e+000
      vertex -8.804440e+000 -4.999259e+001  2.000000e+000
      vertex -1.804439e+000 -4.999259e+001  2.000000e+000
    endloop
  endfacet
  facet normal  -0.000000e+000  0.000000e+000  9.999999e-001
    outer loop
      vertex -1.630999e+001 -5.299259e+001  2.000000e+000
      vertex -2.426854e+001 -5.299259e+001  2.000000e+000
      vertex -2.426854e+001 -5.599259e+001  2.000000e+000
    endloop
  endfacet
  facet normal  0.000000e+000  0.000000e+000  1.000000e+000
    outer loop
      vertex -1.630999e+001 -5.299259e+001  2.000000e+000
      vertex -2.426854e+001 -5.599259e+001  2.000000e+000
      vertex -1.226854e+001 -5.599259e+001  2.000000e+000
    endloop
  endfacet
  facet normal  0.000000e+000  -0.000000e+000  1.000000e+000
    outer loop
      vertex -1.630999e+001 -5.299259e+001  2.000000e+000
      vertex -1.226854e+001 -5.599259e+001  2.000000e+000
      vertex -8.804440e+000 -4.999259e+001  2.000000e+000
    endloop
  endfacet
  facet normal  0.000000e+000  -0.000000e+000  1.000000e+000
    outer loop
      vertex -1.630999e+001 -5.299259e+001  2.000000e+000
      vertex -8.804440e+000 -4.999259e+001  2.000000e+000
      vertex -4.204439e+000 -4.699259e+001  2.000000e+000
    endloop
  endfacet
  facet normal  0.000000e+000  0.000000e+000  1.000000e+000
    outer loop
      vertex -1.630999e+001 -5.299259e+001  2.000000e+000
      vertex -4.204439e+000 -4.699259e+001  2.000000e+000
      vertex -6.404439e+000 -4.699259e+001  2.000000e+000
    endloop
  endfacet
  facet normal  0.000000e+000  -0.000000e+000  1.000000e+000
    outer loop
      vertex -1.630999e+001 -5.299259e+001  2.000000e+000
      vertex -6.404439e+000 -4.699259e+001  2.000000e+000
      vertex -6.404439e+000 -3.999259e+001  2.000000e+000
    endloop
  endfacet
  facet normal  0.000000e+000  0.000000e+000  1.000000e+000
    outer loop
      vertex -1.630999e+001 -5.299259e+001  2.000000e+000
      vertex -6.404439e+000 -3.999259e+001  2.000000e+000
      vertex -8.804440e+000 -3.999259e+001  2.000000e+000
    endloop
  endfacet
  facet normal  0.000000e+000  0.000000e+000  1.000000e+000
    outer loop
      vertex -4.204439e+000 -3.999259e+001  2.000000e+000
      vertex -4.204439e+000 -4.699259e+001  2.000000e+000
      vertex -1.804439e+000 -3.999259e+001  2.000000e+000
    endloop
  endfacet
  facet normal  0.000000e+000  0.000000e+000  1.000000e+000
    outer loop
      vertex -1.804439e+000 -3.999259e+001  2.000000e+000
      vertex -4.204439e+000 -4.699259e+001  2.000000e+000
      vertex -1.804439e+000 -4.999259e+001  2.000000e+000
    endloop
  endfacet
  facet normal  -0.000000e+000  0.000000e+000  1.000000e+000
    outer loop
      vertex -1.804439e+000 -3.999259e+001  2.000000e+000
      vertex -1.804439e+000 -4.999259e+001  2.000000e+000
      vertex  5.701114e+000 -5.299259e+001  2.000000e+000
    endloop
  endfacet
  facet normal  0.000000e+000  0.000000e+000  1.000000e+000
    outer loop
      vertex  5.701114e+000 -5.299259e+001  2.000000e+000
      vertex -1.804439e+000 -4.999259e+001  2.000000e+000
      vertex  1.659662e+000 -5.599259e+001  2.000000e+000
    endloop
  endfacet
  facet normal  0.000000e+000  0.000000e+000  1.000000e+000
    outer loop
      vertex  5.701114e+000 -5.299259e+001  2.000000e+000
      vertex  1.659662e+000 -5.599259e+001  2.000000e+000
      vertex  1.365966e+001 -5.299259e+001  2.000000e+000
    endloop
  endfacet
  facet normal  0.000000e+000  0.000000e+000  1.000000e+000
    outer loop
      vertex  1.365966e+001 -5.299259e+001  2.000000e+000
      vertex  1.659662e+000 -5.599259e+001  2.000000e+000
      vertex  1.365966e+001 -5.599259e+001  2.000000e+000
    endloop
  endfacet
  facet normal  0.000000e+000 -1.000000e+000  0.000000e+000
    outer loop
      vertex  8.484425e+000 -4.957794e+001  2.000000e+000
      vertex  8.484425e+000 -4.957794e+001  0.000000e+000
      vertex  1.248442e+001 -4.957794e+001  2.000000e+000
    endloop
  endfacet
  facet normal  0.000000e+000 -1.000000e+000  -0.000000e+000
    outer loop
      vertex  1.248442e+001 -4.957794e+001  2.000000e+000
      vertex  8.484425e+000 -4.957794e+001  0.000000e+000
      vertex  1.248442e+001 -4.957794e+001  0.000000e+000
    endloop
  endfacet
  facet normal  0.000000e+000 -1.000000e+000  0.000000e+000
    outer loop
      vertex  1.468443e+001 -4.957794e+001  2.000000e+000
      vertex  1.468443e+001 -4.957794e+001  0.000000e+000
      vertex  1.918593e+001 -4.957794e+001  2.000000e+000
    endloop
  endfacet
  facet normal  0.000000e+000 -1.000000e+000  -0.000000e+000
    outer loop
      vertex  1.918593e+001 -4.957794e+001  2.000000e+000
      vertex  1.468443e+001 -4.957794e+001  0.000000e+000
      vertex  1.918593e+001 -4.957794e+001  0.000000e+000
    endloop
  endfacet
  facet normal  9.999999e-001  0.000000e+000  0.000000e+000
    outer loop
      vertex  6.408733e+001 -5.557794e+001  2.000000e+000
      vertex  6.408733e+001 -5.557794e+001  0.000000e+000
      vertex  6.408733e+001 -5.317794e+001  2.000000e+000
    endloop
  endfacet
  facet normal  9.999999e-001  0.000000e+000  0.000000e+000
    outer loop
      vertex  6.408733e+001 -5.317794e+001  2.000000e+000
      vertex  6.408733e+001 -5.557794e+001  0.000000e+000
      vertex  6.408733e+001 -5.317794e+001  0.000000e+000
    endloop
  endfacet
  facet normal  1.000000e+000  0.000000e+000  0.000000e+000
    outer loop
      vertex  6.408733e+001 -5.097794e+001  2.000000e+000
      vertex  6.408733e+001 -5.097794e+001  0.000000e+000
      vertex  6.408733e+001 -4.857794e+001  2.000000e+000
    endloop
  endfacet
  facet normal  1.000000e+000  0.000000e+000  0.000000e+000
    outer loop
      vertex  6.408733e+001 -4.857794e+001  2.000000e+000
      vertex  6.408733e+001 -5.097794e+001  0.000000e+000
      vertex  6.408733e+001 -4.857794e+001  0.000000e+000
    endloop
  endfacet
  facet normal  -0.000000e+000  -0.000000e+000 -1.000000e+000
    outer loop
      vertex  4.840539e+000 -5.144402e+000  0.000000e+000
      vertex  1.504510e+001 -8.031171e+000  0.000000e+000
      vertex  2.881997e+001 -3.099696e+001  0.000000e+000
    endloop
  endfacet
  facet normal  0.000000e+000  0.000000e+000 -1.000000e+000
    outer loop
      vertex  4.840539e+000 -5.144402e+000  0.000000e+000
      vertex  2.881997e+001 -3.099696e+001  0.000000e+000
      vertex  5.038742e-001 -1.216839e+001  0.000000e+000
    endloop
  endfacet
  facet normal  0.000000e+000  0.000000e+000 -1.000000e+000
    outer loop
      vertex  4.840539e+000 -5.144402e+000  0.000000e+000
      vertex  5.038742e-001 -1.216839e+001  0.000000e+000
      vertex -1.095880e+000 -1.096806e+001  0.000000e+000
    endloop
  endfacet
  facet normal  0.000000e+000  0.000000e+000 -1.000000e+000
    outer loop
      vertex  4.840539e+000 -5.144402e+000  0.000000e+000
      vertex -1.095880e+000 -1.096806e+001  0.000000e+000
      vertex -4.731575e+000 -8.910151e+000  0.000000e+000
    endloop
  endfacet
  facet normal  0.000000e+000  0.000000e+000 -1.000000e+000
    outer loop
      vertex  6.408733e+001 -4.857794e+001  0.000000e+000
      vertex  1.918593e+001 -4.957794e+001  0.000000e+000
      vertex  1.468443e+001 -4.957794e+001  0.000000e+000
    endloop
  endfacet
  facet normal  0.000000e+000  0.000000e+000 -1.000000e+000
    outer loop
      vertex  6.408733e+001 -4.857794e+001  0.000000e+000
      vertex  1.468443e+001 -4.957794e+001  0.000000e+000
      vertex  1.468443e+001 -4.657794e+001  0.000000e+000
    endloop
  endfacet
  facet normal  0.000000e+000  0.000000e+000 -1.000000e+000
    outer loop
      vertex  6.408733e+001 -4.857794e+001  0.000000e+000
      vertex  1.468443e+001 -4.657794e+001  0.000000e+000
      vertex  4.868404e+001 -3.099696e+001  0.000000e+000
    endloop
  endfacet
  facet normal  0.000000e+000  0.000000e+000 -1.000000e+000
    outer loop
      vertex -9.517630e+000 -2.187927e+001  0.000000e+000
      vertex -1.276531e+001 -1.710117e+001  0.000000e+000
      vertex -2.296208e+000 -1.256782e+001  0.000000e+000
    endloop
  endfacet
  facet normal  -0.000000e+000  0.000000e+000 -1.000000e+000
    outer loop
      vertex -2.296208e+000 -1.256782e+001  0.000000e+000
      vertex -1.276531e+001 -1.710117e+001  0.000000e+000
      vertex -5.415299e+000 -1.181114e+001  0.000000e+000
    endloop
  endfacet
  facet normal  0.000000e+000  0.000000e+000 -9.999999e-001
    outer loop
      vertex -2.296208e+000 -1.256782e+001  0.000000e+000
      vertex -5.415299e+000 -1.181114e+001  0.000000e+000
      vertex -1.095880e+000 -1.096806e+001  0.000000e+000
    endloop
  endfacet
  facet normal  -0.000000e+000  0.000000e+000 -1.000000e+000
    outer loop
      vertex -1.095880e+000 -1.096806e+001  0.000000e+000
      vertex -5.415299e+000 -1.181114e+001  0.000000e+000
      vertex -4.731575e+000 -8.910151e+000  0.000000e+000
    endloop
  endfacet
  facet normal  0.000000e+000  0.000000e+000 -1.000000e+000
    outer loop
      vertex  5.038742e-001 -1.216839e+001  0.000000e+000
      vertex  2.881997e+001 -3.099696e+001  0.000000e+000
      vertex -6.964536e-001 -1.376814e+001  0.000000e+000
    endloop
  endfacet
  facet normal  0.000000e+000  0.000000e+000 -1.000000e+000
    outer loop
      vertex -6.964536e-001 -1.376814e+001  0.000000e+000
      vertex  2.881997e+001 -3.099696e+001  0.000000e+000
      vertex  1.310979e+000 -2.401875e+001  0.000000e+000
    endloop
  endfacet
  facet normal  0.000000e+000  0.000000e+000 -1.000000e+000
    outer loop
      vertex -6.964536e-001 -1.376814e+001  0.000000e+000
      vertex  1.310979e+000 -2.401875e+001  0.000000e+000
      vertex -2.296208e+000 -1.256782e+001  0.000000e+000
    endloop
  endfacet
  facet normal  0.000000e+000  -0.000000e+000 -1.000000e+000
    outer loop
      vertex -2.296208e+000 -1.256782e+001  0.000000e+000
      vertex  1.310979e+000 -2.401875e+001  0.000000e+000
      vertex -9.517630e+000 -2.187927e+001  0.000000e+000
    endloop
  endfacet
  facet normal  0.000000e+000  0.000000e+000 -1.000000e+000
    outer loop
      vertex  1.248442e+001 -4.957794e+001  0.000000e+000
      vertex  8.484425e+000 -4.957794e+001  0.000000e+000
      vertex  1.248442e+001 -4.657794e+001  0.000000e+000
    endloop
  endfacet
  facet normal  -0.000000e+000  0.000000e+000 -1.000000e+000
    outer loop
      vertex  1.248442e+001 -4.657794e+001  0.000000e+000
      vertex  8.484425e+000 -4.957794e+001  0.000000e+000
      vertex  1.310979e+000 -2.401875e+001  0.000000e+000
    endloop
  endfacet
  facet normal  0.000000e+000  0.000000e+000 -1.000000e+000
    outer loop
      vertex  1.248442e+001 -4.657794e+001  0.000000e+000
      vertex  1.310979e+000 -2.401875e+001  0.000000e+000
      vertex  2.881997e+001 -3.099696e+001  0.000000e+000
    endloop
  endfacet
  facet normal  0.000000e+000  0.000000e+000 -1.000000e+000
    outer loop
      vertex  1.468443e+001 -4.657794e+001  0.000000e+000
      vertex  1.248442e+001 -4.657794e+001  0.000000e+000
      vertex  4.868404e+001 -3.099696e+001  0.000000e+000
    endloop
  endfacet
  facet normal  -0.000000e+000  0.000000e+000 -1.000000e+000
    outer loop
      vertex  4.868404e+001 -3.099696e+001  0.000000e+000
      vertex  1.248442e+001 -4.657794e+001  0.000000e+000
      vertex  2.881997e+001 -3.099696e+001  0.000000e+000
    endloop
  endfacet
  facet normal  0.000000e+000  0.000000e+000 -1.000000e+000
    outer loop
      vertex  6.408733e+001 -4.857794e+001  0.000000e+000
      vertex  6.408733e+001 -5.097794e+001  0.000000e+000
      vertex  1.918593e+001 -4.957794e+001  0.000000e+000
    endloop
  endfacet
  facet normal  0.000000e+000  0.000000e+000 -1.000000e+000
    outer loop
      vertex  1.918593e+001 -4.957794e+001  0.000000e+000
      vertex  6.408733e+001 -5.097794e+001  0.000000e+000
      vertex  6.108733e+001 -5.097794e+001  0.000000e+000
    endloop
  endfacet
  facet normal  -0.000000e+000  0.000000e+000 -1.000000e+000
    outer loop
      vertex  1.918593e+001 -4.957794e+001  0.000000e+000
      vertex  6.108733e+001 -5.097794e+001  0.000000e+000
      vertex  2.553834e+001 -5.557794e+001  0.000000e+000
    endloop
  endfacet
  facet normal  0.000000e+000  0.000000e+000 -9.999999e-001
    outer loop
      vertex  2.553834e+001 -5.557794e+001  0.000000e+000
      vertex  6.108733e+001 -5.097794e+001  0.000000e+000
      vertex  6.108733e+001 -5.317794e+001  0.000000e+000
    endloop
  endfacet
  facet normal  0.000000e+000  -0.000000e+000 -9.999999e-001
    outer loop
      vertex  2.553834e+001 -5.557794e+001  0.000000e+000
      vertex  6.108733e+001 -5.317794e+001  0.000000e+000
      vertex  6.408733e+001 -5.557794e+001  0.000000e+000
    endloop
  endfacet
  facet normal  0.000000e+000  0.000000e+000 -1.000000e+000
    outer loop
      vertex  6.408733e+001 -5.557794e+001  0.000000e+000
      vertex  6.108733e+001 -5.317794e+001  0.000000e+000
      vertex  6.408733e+001 -5.317794e+001  0.000000e+000
    endloop
  endfacet
  facet normal  0.000000e+000  1.000000e+000  -0.000000e+000
    outer loop
      vertex  6.408733e+001 -5.317794e+001  2.000000e+000
      vertex  6.408733e+001 -5.317794e+001  0.000000e+000
      vertex  6.108733e+001 -5.317794e+001  2.000000e+000
    endloop
  endfacet
  facet normal  0.000000e+000  1.000000e+000  0.000000e+000
    outer loop
      vertex  6.108733e+001 -5.317794e+001  2.000000e+000
      vertex  6.408733e+001 -5.317794e+001  0.000000e+000
      vertex  6.108733e+001 -5.317794e+001  0.000000e+000
    endloop
  endfacet
  facet normal  0.000000e+000 -1.000000e+000  0.000000e+000
    outer loop
      vertex  6.108733e+001 -5.097794e+001  2.000000e+000
      vertex  6.108733e+001 -5.097794e+001  0.000000e+000
      vertex  6.408733e+001 -5.097794e+001  2.000000e+000
    endloop
  endfacet
  facet normal  0.000000e+000 -1.000000e+000  -0.000000e+000
    outer loop
      vertex  6.408733e+001 -5.097794e+001  2.000000e+000
      vertex  6.108733e+001 -5.097794e+001  0.000000e+000
      vertex  6.408733e+001 -5.097794e+001  0.000000e+000
    endloop
  endfacet
  facet normal -1.000000e+000  0.000000e+000  0.000000e+000
    outer loop
      vertex -4.204439e+000 -4.699259e+001  0.000000e+000
      vertex -4.204439e+000 -4.699259e+001  2.000000e+000
      vertex -4.204439e+000 -3.999259e+001  0.000000e+000
    endloop
  endfacet
  facet normal -1.000000e+000  0.000000e+000  0.000000e+000
    outer loop
      vertex -4.204439e+000 -3.999259e+001  0.000000e+000
      vertex -4.204439e+000 -4.699259e+001  2.000000e+000
      vertex -4.204439e+000 -3.999259e+001  2.000000e+000
    endloop
  endfacet
  facet normal  1.000000e+000  0.000000e+000  0.000000e+000
    outer loop
      vertex -6.404439e+000 -3.999259e+001  0.000000e+000
      vertex -6.404439e+000 -3.999259e+001  2.000000e+000
      vertex -6.404439e+000 -4.699259e+001  0.000000e+000
    endloop
  endfacet
  facet normal  1.000000e+000  0.000000e+000  0.000000e+000
    outer loop
      vertex -6.404439e+000 -4.699259e+001  0.000000e+000
      vertex -6.404439e+000 -3.999259e+001  2.000000e+000
      vertex -6.404439e+000 -4.699259e+001  2.000000e+000
    endloop
  endfacet
  facet normal  1.000000e+000  0.000000e+000  0.000000e+000
    outer loop
      vertex  6.108733e+001 -5.097794e+001  0.000000e+000
      vertex  6.108733e+001 -5.097794e+001  2.000000e+000
      vertex  6.108733e+001 -5.317794e+001  0.000000e+000
    endloop
  endfacet
  facet normal  1.000000e+000  0.000000e+000  0.000000e+000
    outer loop
      vertex  6.108733e+001 -5.317794e+001  0.000000e+000
      vertex  6.108733e+001 -5.097794e+001  2.000000e+000
      vertex  6.108733e+001 -5.317794e+001  2.000000e+000
    endloop
  endfacet
  facet normal  0.000000e+000  1.000000e+000  0.000000e+000
    outer loop
      vertex -6.404439e+000 -4.699259e+001  0.000000e+000
      vertex -6.404439e+000 -4.699259e+001  2.000000e+000
      vertex -4.204439e+000 -4.699259e+001  0.000000e+000
    endloop
  endfacet
  facet normal  0.000000e+000  1.000000e+000  -0.000000e+000
    outer loop
      vertex -4.204439e+000 -4.699259e+001  0.000000e+000
      vertex -6.404439e+000 -4.699259e+001  2.000000e+000
      vertex -4.204439e+000 -4.699259e+001  2.000000e+000
    endloop
  endfacet
  facet normal  1.000000e+000  0.000000e+000  0.000000e+000
    outer loop
      vertex  1.248442e+001 -4.657794e+001  0.000000e+000
      vertex  1.248442e+001 -4.657794e+001  2.000000e+000
      vertex  1.248442e+001 -4.957794e+001  0.000000e+000
    endloop
  endfacet
  facet normal  1.000000e+000  0.000000e+000  0.000000e+000
    outer loop
      vertex  1.248442e+001 -4.957794e+001  0.000000e+000
      vertex  1.248442e+001 -4.657794e+001  2.000000e+000
      vertex  1.248442e+001 -4.957794e+001  2.000000e+000
    endloop
  endfacet
  facet normal  0.000000e+000 -1.000000e+000  -0.000000e+000
    outer loop
      vertex  1.468443e+001 -4.657794e+001  0.000000e+000
      vertex  1.468443e+001 -4.657794e+001  2.000000e+000
      vertex  1.248442e+001 -4.657794e+001  0.000000e+000
    endloop
  endfacet
  facet normal  0.000000e+000 -1.000000e+000  0.000000e+000
    outer loop
      vertex  1.248442e+001 -4.657794e+001  0.000000e+000
      vertex  1.468443e+001 -4.657794e+001  2.000000e+000
      vertex  1.248442e+001 -4.657794e+001  2.000000e+000
    endloop
  endfacet
  facet normal -1.000000e+000  0.000000e+000  0.000000e+000
    outer loop
      vertex  1.468443e+001 -4.957794e+001  0.000000e+000
      vertex  1.468443e+001 -4.957794e+001  2.000000e+000
      vertex  1.468443e+001 -4.657794e+001  0.000000e+000
    endloop
  endfacet
  facet normal -1.000000e+000  0.000000e+000  0.000000e+000
    outer loop
      vertex  1.468443e+001 -4.657794e+001  0.000000e+000
      vertex  1.468443e+001 -4.957794e+001  2.000000e+000
      vertex  1.468443e+001 -4.657794e+001  2.000000e+000
    endloop
  endfacet
  facet normal  0.000000e+000  0.000000e+000  1.000000e+000
    outer loop
      vertex  4.497125e+001 -1.987719e+001  2.000000e+000
      vertex  4.268061e+001 -1.855469e+001  2.000000e+000
      vertex  3.297125e+001 -1.965469e+001  2.000000e+000
    endloop
  endfacet
  facet normal  0.000000e+000  0.000000e+000  1.000000e+000
    outer loop
      vertex  4.497125e+001 -1.987719e+001  2.000000e+000
      vertex  3.297125e+001 -1.965469e+001  2.000000e+000
      vertex  2.997125e+001 -1.965469e+001  2.000000e+000
    endloop
  endfacet
  facet normal  0.000000e+000  0.000000e+000  1.000000e+000
    outer loop
      vertex  4.497125e+001 -1.987719e+001  2.000000e+000
      vertex  2.997125e+001 -1.965469e+001  2.000000e+000
      vertex  2.997125e+001 -2.265469e+001  2.000000e+000
    endloop
  endfacet
  facet normal  -0.000000e+000  0.000000e+000  1.000000e+000
    outer loop
      vertex  4.497125e+001 -1.987719e+001  2.000000e+000
      vertex  2.997125e+001 -2.265469e+001  2.000000e+000
      vertex  4.497125e+001 -2.811425e+001  2.000000e+000
    endloop
  endfacet
  facet normal  -0.000000e+000  0.000000e+000  1.000000e+000
    outer loop
      vertex  4.497125e+001 -8.995140e+000  2.000000e+000
      vertex  2.997125e+001 -1.445469e+001  2.000000e+000
      vertex  4.497125e+001 -1.723219e+001  2.000000e+000
    endloop
  endfacet
  facet normal  0.000000e+000  0.000000e+000  1.000000e+000
    outer loop
      vertex  4.497125e+001 -1.723219e+001  2.000000e+000
      vertex  2.997125e+001 -1.445469e+001  2.000000e+000
      vertex  2.997125e+001 -1.745469e+001  2.000000e+000
    endloop
  endfacet
  facet normal  0.000000e+000  0.000000e+000  1.000000e+000
    outer loop
      vertex  4.497125e+001 -1.723219e+001  2.000000e+000
      vertex  2.997125e+001 -1.745469e+001  2.000000e+000
      vertex  3.297125e+001 -1.745469e+001  2.000000e+000
    endloop
  endfacet
  facet normal  0.000000e+000  0.000000e+000  1.000000e+000
    outer loop
      vertex  3.297125e+001 -1.745469e+001  2.000000e+000
      vertex  3.297125e+001 -1.965469e+001  2.000000e+000
      vertex  4.497125e+001 -1.723219e+001  2.000000e+000
    endloop
  endfacet
  facet normal  0.000000e+000  0.000000e+000  1.000000e+000
    outer loop
      vertex  4.497125e+001 -1.723219e+001  2.000000e+000
      vertex  3.297125e+001 -1.965469e+001  2.000000e+000
      vertex  4.268061e+001 -1.855469e+001  2.000000e+000
    endloop
  endfacet
  facet normal  0.000000e+000  0.000000e+000 -1.000000e+000
    outer loop
      vertex  4.497125e+001 -1.987719e+001  0.000000e+000
      vertex  4.497125e+001 -2.811425e+001  0.000000e+000
      vertex  2.997125e+001 -2.265469e+001  0.000000e+000
    endloop
  endfacet
  facet normal  0.000000e+000  0.000000e+000 -1.000000e+000
    outer loop
      vertex  4.497125e+001 -1.987719e+001  0.000000e+000
      vertex  2.997125e+001 -2.265469e+001  0.000000e+000
      vertex  2.997125e+001 -1.965469e+001  0.000000e+000
    endloop
  endfacet
  facet normal  0.000000e+000  0.000000e+000 -1.000000e+000
    outer loop
      vertex  4.497125e+001 -1.987719e+001  0.000000e+000
      vertex  2.997125e+001 -1.965469e+001  0.000000e+000
      vertex  3.297125e+001 -1.965469e+001  0.000000e+000
    endloop
  endfacet
  facet normal  0.000000e+000  0.000000e+000 -1.000000e+000
    outer loop
      vertex  4.497125e+001 -1.987719e+001  0.000000e+000
      vertex  3.297125e+001 -1.965469e+001  0.000000e+000
      vertex  4.268061e+001 -1.855469e+001  0.000000e+000
    endloop
  endfacet
  facet normal  0.000000e+000  0.000000e+000 -1.000000e+000
    outer loop
      vertex  2.997125e+001 -1.445469e+001  0.000000e+000
      vertex  4.497125e+001 -8.995140e+000  0.000000e+000
      vertex  2.997125e+001 -1.745469e+001  0.000000e+000
    endloop
  endfacet
  facet normal  0.000000e+000  0.000000e+000 -1.000000e+000
    outer loop
      vertex  2.997125e+001 -1.745469e+001  0.000000e+000
      vertex  4.497125e+001 -8.995140e+000  0.000000e+000
      vertex  4.497125e+001 -1.723219e+001  0.000000e+000
    endloop
  endfacet
  facet normal  0.000000e+000  0.000000e+000 -1.000000e+000
    outer loop
      vertex  2.997125e+001 -1.745469e+001  0.000000e+000
      vertex  4.497125e+001 -1.723219e+001  0.000000e+000
      vertex  3.297125e+001 -1.745469e+001  0.000000e+000
    endloop
  endfacet
  facet normal  0.000000e+000  0.000000e+000 -1.000000e+000
    outer loop
      vertex  3.297125e+001 -1.965469e+001  0.000000e+000
      vertex  3.297125e+001 -1.745469e+001  0.000000e+000
      vertex  4.268061e+001 -1.855469e+001  0.000000e+000
    endloop
  endfacet
  facet normal  0.000000e+000  0.000000e+000 -1.000000e+000
    outer loop
      vertex  4.268061e+001 -1.855469e+001  0.000000e+000
      vertex  3.297125e+001 -1.745469e+001  0.000000e+000
      vertex  4.497125e+001 -1.723219e+001  0.000000e+000
    endloop
  endfacet
  facet normal -1.000000e+000  0.000000e+000  0.000000e+000
    outer loop
      vertex  3.297125e+001 -1.745469e+001  2.000000e+000
      vertex  3.297125e+001 -1.745469e+001  0.000000e+000
      vertex  3.297125e+001 -1.965469e+001  2.000000e+000
    endloop
  endfacet
  facet normal -1.000000e+000  0.000000e+000  0.000000e+000
    outer loop
      vertex  3.297125e+001 -1.965469e+001  2.000000e+000
      vertex  3.297125e+001 -1.745469e+001  0.000000e+000
      vertex  3.297125e+001 -1.965469e+001  0.000000e+000
    endloop
  endfacet
  facet normal  0.000000e+000 -1.000000e+000  0.000000e+000
    outer loop
      vertex  2.997125e+001 -1.745469e+001  2.000000e+000
      vertex  2.997125e+001 -1.745469e+001  0.000000e+000
      vertex  3.297125e+001 -1.745469e+001  2.000000e+000
    endloop
  endfacet
  facet normal  0.000000e+000 -1.000000e+000  -0.000000e+000
    outer loop
      vertex  3.297125e+001 -1.745469e+001  2.000000e+000
      vertex  2.997125e+001 -1.745469e+001  0.000000e+000
      vertex  3.297125e+001 -1.745469e+001  0.000000e+000
    endloop
  endfacet
  facet normal -1.000000e+000  0.000000e+000  0.000000e+000
    outer loop
      vertex  2.997125e+001 -1.445469e+001  2.000000e+000
      vertex  2.997125e+001 -1.445469e+001  0.000000e+000
      vertex  2.997125e+001 -1.745469e+001  2.000000e+000
    endloop
  endfacet
  facet normal -1.000000e+000  0.000000e+000  0.000000e+000
    outer loop
      vertex  2.997125e+001 -1.745469e+001  2.000000e+000
      vertex  2.997125e+001 -1.445469e+001  0.000000e+000
      vertex  2.997125e+001 -1.745469e+001  0.000000e+000
    endloop
  endfacet
  facet normal -3.420202e-001  9.396926e-001  0.000000e+000
    outer loop
      vertex  4.497125e+001 -8.995140e+000  2.000000e+000
      vertex  4.497125e+001 -8.995140e+000  0.000000e+000
      vertex  2.997125e+001 -1.445469e+001  2.000000e+000
    endloop
  endfacet
  facet normal -3.420202e-001  9.396926e-001  0.000000e+000
    outer loop
      vertex  2.997125e+001 -1.445469e+001  2.000000e+000
      vertex  4.497125e+001 -8.995140e+000  0.000000e+000
      vertex  2.997125e+001 -1.445469e+001  0.000000e+000
    endloop
  endfacet
  facet normal  1.000000e+000  0.000000e+000  0.000000e+000
    outer loop
      vertex  4.497125e+001 -1.723219e+001  2.000000e+000
      vertex  4.497125e+001 -1.723219e+001  0.000000e+000
      vertex  4.497125e+001 -8.995140e+000  2.000000e+000
    endloop
  endfacet
  facet normal  1.000000e+000  0.000000e+000  0.000000e+000
    outer loop
      vertex  4.497125e+001 -8.995140e+000  2.000000e+000
      vertex  4.497125e+001 -1.723219e+001  0.000000e+000
      vertex  4.497125e+001 -8.995140e+000  0.000000e+000
    endloop
  endfacet
  facet normal  4.999999e-001 -8.660254e-001  0.000000e+000
    outer loop
      vertex  4.268061e+001 -1.855469e+001  2.000000e+000
      vertex  4.268061e+001 -1.855469e+001  0.000000e+000
      vertex  4.497125e+001 -1.723219e+001  2.000000e+000
    endloop
  endfacet
  facet normal  4.999999e-001 -8.660254e-001  0.000000e+000
    outer loop
      vertex  4.497125e+001 -1.723219e+001  2.000000e+000
      vertex  4.268061e+001 -1.855469e+001  0.000000e+000
      vertex  4.497125e+001 -1.723219e+001  0.000000e+000
    endloop
  endfacet
  facet normal  4.999999e-001  8.660254e-001  -0.000000e+000
    outer loop
      vertex  4.497125e+001 -1.987719e+001  2.000000e+000
      vertex  4.497125e+001 -1.987719e+001  0.000000e+000
      vertex  4.268061e+001 -1.855469e+001  2.000000e+000
    endloop
  endfacet
  facet normal  4.999999e-001  8.660254e-001  0.000000e+000
    outer loop
      vertex  4.268061e+001 -1.855469e+001  2.000000e+000
      vertex  4.497125e+001 -1.987719e+001  0.000000e+000
      vertex  4.268061e+001 -1.855469e+001  0.000000e+000
    endloop
  endfacet
  facet normal  1.000000e+000  0.000000e+000  0.000000e+000
    outer loop
      vertex  4.497125e+001 -2.811425e+001  2.000000e+000
      vertex  4.497125e+001 -2.811425e+001  0.000000e+000
      vertex  4.497125e+001 -1.987719e+001  2.000000e+000
    endloop
  endfacet
  facet normal  1.000000e+000  0.000000e+000  0.000000e+000
    outer loop
      vertex  4.497125e+001 -1.987719e+001  2.000000e+000
      vertex  4.497125e+001 -2.811425e+001  0.000000e+000
      vertex  4.497125e+001 -1.987719e+001  0.000000e+000
    endloop
  endfacet
  facet normal -3.420201e-001 -9.396926e-001  0.000000e+000
    outer loop
      vertex  2.997125e+001 -2.265469e+001  2.000000e+000
      vertex  2.997125e+001 -2.265469e+001  0.000000e+000
      vertex  4.497125e+001 -2.811425e+001  2.000000e+000
    endloop
  endfacet
  facet normal -3.420201e-001 -9.396926e-001  -0.000000e+000
    outer loop
      vertex  4.497125e+001 -2.811425e+001  2.000000e+000
      vertex  2.997125e+001 -2.265469e+001  0.000000e+000
      vertex  4.497125e+001 -2.811425e+001  0.000000e+000
    endloop
  endfacet
  facet normal -1.000000e+000  0.000000e+000  0.000000e+000
    outer loop
      vertex  2.997125e+001 -1.965469e+001  2.000000e+000
      vertex  2.997125e+001 -1.965469e+001  0.000000e+000
      vertex  2.997125e+001 -2.265469e+001  2.000000e+000
    endloop
  endfacet
  facet normal -1.000000e+000  0.000000e+000  0.000000e+000
    outer loop
      vertex  2.997125e+001 -2.265469e+001  2.000000e+000
      vertex  2.997125e+001 -1.965469e+001  0.000000e+000
      vertex  2.997125e+001 -2.265469e+001  0.000000e+000
    endloop
  endfacet
  facet normal  0.000000e+000  1.000000e+000  -0.000000e+000
    outer loop
      vertex  3.297125e+001 -1.965469e+001  2.000000e+000
      vertex  3.297125e+001 -1.965469e+001  0.000000e+000
      vertex  2.997125e+001 -1.965469e+001  2.000000e+000
    endloop
  endfacet
  facet normal  0.000000e+000  1.000000e+000  0.000000e+000
    outer loop
      vertex  2.997125e+001 -1.965469e+001  2.000000e+000
      vertex  3.297125e+001 -1.965469e+001  0.000000e+000
      vertex  2.997125e+001 -1.965469e+001  0.000000e+000
    endloop
  endfacet
  facet normal  8.660254e-001  5.000000e-001  0.000000e+000
    outer loop
      vertex -1.804439e+000 -3.999259e+001  0.000000e+000
      vertex -1.804439e+000 -3.999259e+001  2.000000e+000
      vertex  5.701114e+000 -5.299259e+001  0.000000e+000
    endloop
  endfacet
  facet normal  8.660254e-001  5.000000e-001  -0.000000e+000
    outer loop
      vertex  5.701114e+000 -5.299259e+001  0.000000e+000
      vertex -1.804439e+000 -3.999259e+001  2.000000e+000
      vertex  5.701114e+000 -5.299259e+001  2.000000e+000
    endloop
  endfacet
  facet normal  0.000000e+000  1.000000e+000  0.000000e+000
    outer loop
      vertex  5.701114e+000 -5.299259e+001  0.000000e+000
      vertex  5.701114e+000 -5.299259e+001  2.000000e+000
      vertex  1.365966e+001 -5.299259e+001  0.000000e+000
    endloop
  endfacet
  facet normal  0.000000e+000  1.000000e+000  -0.000000e+000
    outer loop
      vertex  1.365966e+001 -5.299259e+001  0.000000e+000
      vertex  5.701114e+000 -5.299259e+001  2.000000e+000
      vertex  1.365966e+001 -5.299259e+001  2.000000e+000
    endloop
  endfacet
  facet normal  1.000000e+000  0.000000e+000  0.000000e+000
    outer loop
      vertex  1.365966e+001 -5.299259e+001  0.000000e+000
      vertex  1.365966e+001 -5.299259e+001  2.000000e+000
      vertex  1.365966e+001 -5.599259e+001  0.000000e+000
    endloop
  endfacet
  facet normal  1.000000e+000  0.000000e+000  0.000000e+000
    outer loop
      vertex  1.365966e+001 -5.599259e+001  0.000000e+000
      vertex  1.365966e+001 -5.299259e+001  2.000000e+000
      vertex  1.365966e+001 -5.599259e+001  2.000000e+000
    endloop
  endfacet
  facet normal  0.000000e+000 -1.000000e+000  -0.000000e+000
    outer loop
      vertex  1.365966e+001 -5.599259e+001  0.000000e+000
      vertex  1.365966e+001 -5.599259e+001  2.000000e+000
      vertex  1.659662e+000 -5.599259e+001  0.000000e+000
    endloop
  endfacet
  facet normal  0.000000e+000 -1.000000e+000  0.000000e+000
    outer loop
      vertex  1.659662e+000 -5.599259e+001  0.000000e+000
      vertex  1.365966e+001 -5.599259e+001  2.000000e+000
      vertex  1.659662e+000 -5.599259e+001  2.000000e+000
    endloop
  endfacet
  facet normal -8.660254e-001 -5.000000e-001  -0.000000e+000
    outer loop
      vertex  1.659662e+000 -5.599259e+001  0.000000e+000
      vertex  1.659662e+000 -5.599259e+001  2.000000e+000
      vertex -1.804439e+000 -4.999259e+001  0.000000e+000
    endloop
  endfacet
  facet normal -8.660254e-001 -5.000000e-001  0.000000e+000
    outer loop
      vertex -1.804439e+000 -4.999259e+001  0.000000e+000
      vertex  1.659662e+000 -5.599259e+001  2.000000e+000
      vertex -1.804439e+000 -4.999259e+001  2.000000e+000
    endloop
  endfacet
  facet normal  0.000000e+000 -1.000000e+000  -0.000000e+000
    outer loop
      vertex -1.804439e+000 -4.999259e+001  0.000000e+000
      vertex -1.804439e+000 -4.999259e+001  2.000000e+000
      vertex -8.804440e+000 -4.999259e+001  0.000000e+000
    endloop
  endfacet
  facet normal  0.000000e+000 -1.000000e+000  0.000000e+000
    outer loop
      vertex -8.804440e+000 -4.999259e+001  0.000000e+000
      vertex -1.804439e+000 -4.999259e+001  2.000000e+000
      vertex -8.804440e+000 -4.999259e+001  2.000000e+000
    endloop
  endfacet
  facet normal  8.660254e-001 -4.999999e-001  0.000000e+000
    outer loop
      vertex -8.804440e+000 -4.999259e+001  0.000000e+000
      vertex -8.804440e+000 -4.999259e+001  2.000000e+000
      vertex -1.226854e+001 -5.599259e+001  0.000000e+000
    endloop
  endfacet
  facet normal  8.660254e-001 -4.999999e-001  0.000000e+000
    outer loop
      vertex -1.226854e+001 -5.599259e+001  0.000000e+000
      vertex -8.804440e+000 -4.999259e+001  2.000000e+000
      vertex -1.226854e+001 -5.599259e+001  2.000000e+000
    endloop
  endfacet
  facet normal  0.000000e+000 -1.000000e+000  -0.000000e+000
    outer loop
      vertex -1.226854e+001 -5.599259e+001  0.000000e+000
      vertex -1.226854e+001 -5.599259e+001  2.000000e+000
      vertex -2.426854e+001 -5.599259e+001  0.000000e+000
    endloop
  endfacet
  facet normal  0.000000e+000 -1.000000e+000  0.000000e+000
    outer loop
      vertex -2.426854e+001 -5.599259e+001  0.000000e+000
      vertex -1.226854e+001 -5.599259e+001  2.000000e+000
      vertex -2.426854e+001 -5.599259e+001  2.000000e+000
    endloop
  endfacet
  facet normal -1.000000e+000  0.000000e+000  0.000000e+000
    outer loop
      vertex -2.426854e+001 -5.599259e+001  0.000000e+000
      vertex -2.426854e+001 -5.599259e+001  2.000000e+000
      vertex -2.426854e+001 -5.299259e+001  0.000000e+000
    endloop
  endfacet
  facet normal -1.000000e+000  0.000000e+000  0.000000e+000
    outer loop
      vertex -2.426854e+001 -5.299259e+001  0.000000e+000
      vertex -2.426854e+001 -5.599259e+001  2.000000e+000
      vertex -2.426854e+001 -5.299259e+001  2.000000e+000
    endloop
  endfacet
  facet normal  0.000000e+000  9.999999e-001  0.000000e+000
    outer loop
      vertex -2.426854e+001 -5.299259e+001  0.000000e+000
      vertex -2.426854e+001 -5.299259e+001  2.000000e+000
      vertex -1.630999e+001 -5.299259e+001  0.000000e+000
    endloop
  endfacet
  facet normal  0.000000e+000  9.999999e-001  -0.000000e+000
    outer loop
      vertex -1.630999e+001 -5.299259e+001  0.000000e+000
      vertex -2.426854e+001 -5.299259e+001  2.000000e+000
      vertex -1.630999e+001 -5.299259e+001  2.000000e+000
    endloop
  endfacet
  facet normal -8.660254e-001  4.999999e-001  0.000000e+000
    outer loop
      vertex -1.630999e+001 -5.299259e+001  0.000000e+000
      vertex -1.630999e+001 -5.299259e+001  2.000000e+000
      vertex -8.804440e+000 -3.999259e+001  0.000000e+000
    endloop
  endfacet
  facet normal -8.660254e-001  4.999999e-001  0.000000e+000
    outer loop
      vertex -8.804440e+000 -3.999259e+001  0.000000e+000
      vertex -1.630999e+001 -5.299259e+001  2.000000e+000
      vertex -8.804440e+000 -3.999259e+001  2.000000e+000
    endloop
  endfacet
  facet normal  7.998770e-001 -6.001639e-001  0.000000e+000
    outer loop
      vertex -2.296208e+000 -1.256782e+001  0.000000e+000
      vertex -1.095880e+000 -1.096806e+001  0.000000e+000
      vertex -2.296208e+000 -1.256782e+001  2.000000e+000
    endloop
  endfacet
  facet normal  7.998770e-001 -6.001639e-001  0.000000e+000
    outer loop
      vertex -2.296208e+000 -1.256782e+001  2.000000e+000
      vertex -1.095880e+000 -1.096806e+001  0.000000e+000
      vertex -1.095880e+000 -1.096806e+001  2.000000e+000
    endloop
  endfacet
  facet normal  6.001639e-001  7.998770e-001  0.000000e+000
    outer loop
      vertex -6.964536e-001 -1.376814e+001  0.000000e+000
      vertex -2.296208e+000 -1.256782e+001  0.000000e+000
      vertex -6.964536e-001 -1.376814e+001  2.000000e+000
    endloop
  endfacet
  facet normal  6.001639e-001  7.998770e-001  0.000000e+000
    outer loop
      vertex -6.964536e-001 -1.376814e+001  2.000000e+000
      vertex -2.296208e+000 -1.256782e+001  0.000000e+000
      vertex -2.296208e+000 -1.256782e+001  2.000000e+000
    endloop
  endfacet
  facet normal -7.998770e-001  6.001639e-001  0.000000e+000
    outer loop
      vertex  5.038742e-001 -1.216839e+001  0.000000e+000
      vertex -6.964536e-001 -1.376814e+001  0.000000e+000
      vertex  5.038742e-001 -1.216839e+001  2.000000e+000
    endloop
  endfacet
  facet normal -7.998770e-001  6.001639e-001  0.000000e+000
    outer loop
      vertex  5.038742e-001 -1.216839e+001  2.000000e+000
      vertex -6.964536e-001 -1.376814e+001  0.000000e+000
      vertex -6.964536e-001 -1.376814e+001  2.000000e+000
    endloop
  endfacet
  facet normal -6.001639e-001 -7.998770e-001  0.000000e+000
    outer loop
      vertex -1.095880e+000 -1.096806e+001  0.000000e+000
      vertex  5.038742e-001 -1.216839e+001  0.000000e+000
      vertex -1.095880e+000 -1.096806e+001  2.000000e+000
    endloop
  endfacet
  facet normal -6.001639e-001 -7.998770e-001  0.000000e+000
    outer loop
      vertex -1.095880e+000 -1.096806e+001  2.000000e+000
      vertex  5.038742e-001 -1.216839e+001  0.000000e+000
      vertex  5.038742e-001 -1.216839e+001  2.000000e+000
    endloop
  endfacet
  facet normal -9.733319e-001  2.294016e-001  0.000000e+000
    outer loop
      vertex -4.731575e+000 -8.910151e+000  2.000000e+000
      vertex -4.731575e+000 -8.910151e+000  0.000000e+000
      vertex -5.415299e+000 -1.181114e+001  2.000000e+000
    endloop
  endfacet
  facet normal -9.733319e-001  2.294016e-001  0.000000e+000
    outer loop
      vertex -5.415299e+000 -1.181114e+001  2.000000e+000
      vertex -4.731575e+000 -8.910151e+000  0.000000e+000
      vertex -5.415299e+000 -1.181114e+001  0.000000e+000
    endloop
  endfacet
  facet normal -3.660967e-001  9.305769e-001  0.000000e+000
    outer loop
      vertex  4.840539e+000 -5.144402e+000  2.000000e+000
      vertex  4.840539e+000 -5.144402e+000  0.000000e+000
      vertex -4.731575e+000 -8.910151e+000  2.000000e+000
    endloop
  endfacet
  facet normal -3.660967e-001  9.305769e-001  0.000000e+000
    outer loop
      vertex -4.731575e+000 -8.910151e+000  2.000000e+000
      vertex  4.840539e+000 -5.144402e+000  0.000000e+000
      vertex -4.731575e+000 -8.910151e+000  0.000000e+000
    endloop
  endfacet
  facet normal  2.722079e-001  9.622385e-001  -0.000000e+000
    outer loop
      vertex  1.504510e+001 -8.031171e+000  2.000000e+000
      vertex  1.504510e+001 -8.031171e+000  0.000000e+000
      vertex  4.840539e+000 -5.144402e+000  2.000000e+000
    endloop
  endfacet
  facet normal  2.722079e-001  9.622385e-001  0.000000e+000
    outer loop
      vertex  4.840539e+000 -5.144402e+000  2.000000e+000
      vertex  1.504510e+001 -8.031171e+000  0.000000e+000
      vertex  4.840539e+000 -5.144402e+000  0.000000e+000
    endloop
  endfacet
  facet normal  8.575687e-001  5.143692e-001  0.000000e+000
    outer loop
      vertex  1.504510e+001 -8.031171e+000  0.000000e+000
      vertex  1.504510e+001 -8.031171e+000  2.000000e+000
      vertex  2.881997e+001 -3.099696e+001  0.000000e+000
    endloop
  endfacet
  facet normal  8.575687e-001  5.143692e-001  -0.000000e+000
    outer loop
      vertex  2.881997e+001 -3.099696e+001  0.000000e+000
      vertex  1.504510e+001 -8.031171e+000  2.000000e+000
      vertex  2.881997e+001 -3.099696e+001  2.000000e+000
    endloop
  endfacet
  facet normal  0.000000e+000  9.999999e-001  0.000000e+000
    outer loop
      vertex  2.881997e+001 -3.099696e+001  0.000000e+000
      vertex  2.881997e+001 -3.099696e+001  2.000000e+000
      vertex  4.868404e+001 -3.099696e+001  0.000000e+000
    endloop
  endfacet
  facet normal  0.000000e+000  9.999999e-001  -0.000000e+000
    outer loop
      vertex  4.868404e+001 -3.099696e+001  0.000000e+000
      vertex  2.881997e+001 -3.099696e+001  2.000000e+000
      vertex  4.868404e+001 -3.099696e+001  2.000000e+000
    endloop
  endfacet
  facet normal  7.521539e-001  6.589876e-001  -0.000000e+000
    outer loop
      vertex  6.408733e+001 -4.857794e+001  2.000000e+000
      vertex  6.408733e+001 -4.857794e+001  0.000000e+000
      vertex  4.868404e+001 -3.099696e+001  2.000000e+000
    endloop
  endfacet
  facet normal  7.521539e-001  6.589876e-001  0.000000e+000
    outer loop
      vertex  4.868404e+001 -3.099696e+001  2.000000e+000
      vertex  6.408733e+001 -4.857794e+001  0.000000e+000
      vertex  4.868404e+001 -3.099696e+001  0.000000e+000
    endloop
  endfacet
  facet normal  0.000000e+000 -1.000000e+000  0.000000e+000
    outer loop
      vertex  2.553834e+001 -5.557794e+001  2.000000e+000
      vertex  2.553834e+001 -5.557794e+001  0.000000e+000
      vertex  6.408733e+001 -5.557794e+001  2.000000e+000
    endloop
  endfacet
  facet normal  0.000000e+000 -1.000000e+000  -0.000000e+000
    outer loop
      vertex  6.408733e+001 -5.557794e+001  2.000000e+000
      vertex  2.553834e+001 -5.557794e+001  0.000000e+000
      vertex  6.408733e+001 -5.557794e+001  0.000000e+000
    endloop
  endfacet
  facet normal -6.866539e-001 -7.269844e-001  0.000000e+000
    outer loop
      vertex  1.918593e+001 -4.957794e+001  2.000000e+000
      vertex  1.918593e+001 -4.957794e+001  0.000000e+000
      vertex  2.553834e+001 -5.557794e+001  2.000000e+000
    endloop
  endfacet
  facet normal -6.866539e-001 -7.269844e-001  -0.000000e+000
    outer loop
      vertex  2.553834e+001 -5.557794e+001  2.000000e+000
      vertex  1.918593e+001 -4.957794e+001  0.000000e+000
      vertex  2.553834e+001 -5.557794e+001  0.000000e+000
    endloop
  endfacet
  facet normal -9.627988e-001 -2.702193e-001  0.000000e+000
    outer loop
      vertex  1.310979e+000 -2.401875e+001  2.000000e+000
      vertex  1.310979e+000 -2.401875e+001  0.000000e+000
      vertex  8.484425e+000 -4.957794e+001  2.000000e+000
    endloop
  endfacet
  facet normal -9.627988e-001 -2.702193e-001  -0.000000e+000
    outer loop
      vertex  8.484425e+000 -4.957794e+001  2.000000e+000
      vertex  1.310979e+000 -2.401875e+001  0.000000e+000
      vertex  8.484425e+000 -4.957794e+001  0.000000e+000
    endloop
  endfacet
  facet normal -1.938302e-001 -9.810351e-001  0.000000e+000
    outer loop
      vertex -9.517630e+000 -2.187927e+001  2.000000e+000
      vertex -9.517630e+000 -2.187927e+001  0.000000e+000
      vertex  1.310979e+000 -2.401875e+001  2.000000e+000
    endloop
  endfacet
  facet normal -1.938302e-001 -9.810351e-001  -0.000000e+000
    outer loop
      vertex  1.310979e+000 -2.401875e+001  2.000000e+000
      vertex -9.517630e+000 -2.187927e+001  0.000000e+000
      vertex  1.310979e+000 -2.401875e+001  0.000000e+000
    endloop
  endfacet
  facet normal -8.270410e-001 -5.621416e-001  0.000000e+000
    outer loop
      vertex -1.276531e+001 -1.710117e+001  2.000000e+000
      vertex -1.276531e+001 -1.710117e+001  0.000000e+000
      vertex -9.517630e+000 -2.187927e+001  2.000000e+000
    endloop
  endfacet
  facet normal -8.270410e-001 -5.621416e-001  -0.000000e+000
    outer loop
      vertex -9.517630e+000 -2.187927e+001  2.000000e+000
      vertex -1.276531e+001 -1.710117e+001  0.000000e+000
      vertex -9.517630e+000 -2.187927e+001  0.000000e+000
    endloop
  endfacet
  facet normal -5.841611e-001  8.116377e-001  0.000000e+000
    outer loop
      vertex -5.415299e+000 -1.181114e+001  2.000000e+000
      vertex -5.415299e+000 -1.181114e+001  0.000000e+000
      vertex -1.276531e+001 -1.710117e+001  2.000000e+000
    endloop
  endfacet
  facet normal -5.841611e-001  8.116377e-001  0.000000e+000
    outer loop
      vertex -1.276531e+001 -1.710117e+001  2.000000e+000
      vertex -5.415299e+000 -1.181114e+001  0.000000e+000
      vertex -1.276531e+001 -1.710117e+001  0.000000e+000
    endloop
  endfacet
endsolid CATIA STL
