solid CATIA STL
  facet normal  0.000000e+000  0.000000e+000  1.000000e+000
    outer loop
      vertex  6.036224e+001 -6.038625e+001  2.000000e+000
      vertex  5.987336e+001 -5.928932e+001  2.000000e+000
      vertex  5.916793e+001 -5.958624e+001  2.000000e+000
    endloop
  endfacet
  facet normal  -0.000000e+000  0.000000e+000  1.000000e+000
    outer loop
      vertex  6.016222e+001 -5.858056e+001  2.000000e+000
      vertex  5.987336e+001 -5.928932e+001  2.000000e+000
      vertex  6.036224e+001 -6.038625e+001  2.000000e+000
    endloop
  endfacet
  facet normal  0.000000e+000  -0.000000e+000  1.000000e+000
    outer loop
      vertex  6.016222e+001 -5.858056e+001  2.000000e+000
      vertex  6.036224e+001 -6.038625e+001  2.000000e+000
      vertex  6.036224e+001 -5.678625e+001  2.000000e+000
    endloop
  endfacet
  facet normal  0.000000e+000  0.000000e+000  1.000000e+000
    outer loop
      vertex  6.016222e+001 -5.858056e+001  2.000000e+000
      vertex  6.036224e+001 -5.678625e+001  2.000000e+000
      vertex  5.986531e+001 -5.787513e+001  2.000000e+000
    endloop
  endfacet
  facet normal  0.000000e+000  0.000000e+000  1.000000e+000
    outer loop
      vertex -5.518016e+001 -2.708590e+001  2.000000e+000
      vertex -6.293296e+001 -3.338192e+001  2.000000e+000
      vertex -5.022086e+001 -2.776586e+001  2.000000e+000
    endloop
  endfacet
  facet normal  0.000000e+000  0.000000e+000  1.000000e+000
    outer loop
      vertex -5.518016e+001 -2.708590e+001  2.000000e+000
      vertex -5.022086e+001 -2.776586e+001  2.000000e+000
      vertex -5.130797e+001 -2.562619e+001  2.000000e+000
    endloop
  endfacet
  facet normal  0.000000e+000  0.000000e+000  1.000000e+000
    outer loop
      vertex -5.518016e+001 -2.708590e+001  2.000000e+000
      vertex -5.130797e+001 -2.562619e+001  2.000000e+000
      vertex -5.470431e+001 -2.337689e+001  2.000000e+000
    endloop
  endfacet
  facet normal  0.000000e+000  0.000000e+000  1.000000e+000
    outer loop
      vertex -4.292843e+000 -9.167984e+000  2.000000e+000
      vertex -2.018398e+001 -7.623980e+000  2.000000e+000
      vertex -3.355206e+001 -1.224329e+001  2.000000e+000
    endloop
  endfacet
  facet normal  -0.000000e+000  0.000000e+000  1.000000e+000
    outer loop
      vertex -4.292843e+000 -9.167984e+000  2.000000e+000
      vertex -3.355206e+001 -1.224329e+001  2.000000e+000
      vertex -4.597320e+001 -1.752679e+001  2.000000e+000
    endloop
  endfacet
  facet normal  -0.000000e+000  0.000000e+000  1.000000e+000
    outer loop
      vertex -4.292843e+000 -9.167984e+000  2.000000e+000
      vertex -4.597320e+001 -1.752679e+001  2.000000e+000
      vertex  5.316224e+001 -4.738625e+001  2.000000e+000
    endloop
  endfacet
  facet normal  0.000000e+000  -0.000000e+000  1.000000e+000
    outer loop
      vertex -4.292843e+000 -9.167984e+000  2.000000e+000
      vertex  5.316224e+001 -4.738625e+001  2.000000e+000
      vertex  5.536224e+001 -4.738625e+001  2.000000e+000
    endloop
  endfacet
  facet normal  0.000000e+000  0.000000e+000  1.000000e+000
    outer loop
      vertex -4.292843e+000 -9.167984e+000  2.000000e+000
      vertex  5.536224e+001 -4.738625e+001  2.000000e+000
      vertex  2.726852e+001 -2.350334e+000  2.000000e+000
    endloop
  endfacet
  facet normal  0.000000e+000  -0.000000e+000  1.000000e+000
    outer loop
      vertex  6.136224e+001 -1.768970e+001  2.000000e+000
      vertex  6.256224e+001 -1.768970e+001  2.000000e+000
      vertex  6.496223e+001 -1.483097e+001  2.000000e+000
    endloop
  endfacet
  facet normal  0.000000e+000  0.000000e+000  1.000000e+000
    outer loop
      vertex  6.136224e+001 -1.768970e+001  2.000000e+000
      vertex  6.496223e+001 -1.483097e+001  2.000000e+000
      vertex  2.726852e+001 -2.350334e+000  2.000000e+000
    endloop
  endfacet
  facet normal  0.000000e+000  0.000000e+000  1.000000e+000
    outer loop
      vertex  6.136224e+001 -1.768970e+001  2.000000e+000
      vertex  2.726852e+001 -2.350334e+000  2.000000e+000
      vertex  5.536224e+001 -4.738625e+001  2.000000e+000
    endloop
  endfacet
  facet normal  -0.000000e+000  0.000000e+000  1.000000e+000
    outer loop
      vertex  6.136224e+001 -1.768970e+001  2.000000e+000
      vertex  5.536224e+001 -4.738625e+001  2.000000e+000
      vertex  5.636224e+001 -5.578625e+001  2.000000e+000
    endloop
  endfacet
  facet normal  0.000000e+000  0.000000e+000  1.000000e+000
    outer loop
      vertex  6.136224e+001 -1.768970e+001  2.000000e+000
      vertex  5.636224e+001 -5.578625e+001  2.000000e+000
      vertex  6.036224e+001 -5.578625e+001  2.000000e+000
    endloop
  endfacet
  facet normal  -0.000000e+000  0.000000e+000  1.000000e+000
    outer loop
      vertex  6.136224e+001 -1.768970e+001  2.000000e+000
      vertex  6.036224e+001 -5.578625e+001  2.000000e+000
      vertex  6.036224e+001 -5.678625e+001  2.000000e+000
    endloop
  endfacet
  facet normal  -0.000000e+000  0.000000e+000  1.000000e+000
    outer loop
      vertex  6.136224e+001 -1.768970e+001  2.000000e+000
      vertex  6.036224e+001 -5.678625e+001  2.000000e+000
      vertex  6.036224e+001 -6.038625e+001  2.000000e+000
    endloop
  endfacet
  facet normal  -0.000000e+000  0.000000e+000  1.000000e+000
    outer loop
      vertex  6.136224e+001 -1.768970e+001  2.000000e+000
      vertex  6.036224e+001 -6.038625e+001  2.000000e+000
      vertex  6.036224e+001 -6.138625e+001  2.000000e+000
    endloop
  endfacet
  facet normal  -0.000000e+000  0.000000e+000  9.999999e-001
    outer loop
      vertex  6.136224e+001 -1.768970e+001  2.000000e+000
      vertex  6.036224e+001 -6.138625e+001  2.000000e+000
      vertex  6.136224e+001 -6.238625e+001  2.000000e+000
    endloop
  endfacet
  facet normal  0.000000e+000  0.000000e+000  1.000000e+000
    outer loop
      vertex  5.736224e+001 -5.678625e+001  2.000000e+000
      vertex  5.736224e+001 -6.038625e+001  2.000000e+000
      vertex  5.816225e+001 -5.859194e+001  2.000000e+000
    endloop
  endfacet
  facet normal  0.000000e+000  -0.000000e+000  1.000000e+000
    outer loop
      vertex  5.736224e+001 -5.678625e+001  2.000000e+000
      vertex  5.816225e+001 -5.859194e+001  2.000000e+000
      vertex  5.845112e+001 -5.788318e+001  2.000000e+000
    endloop
  endfacet
  facet normal  0.000000e+000  -0.000000e+000  1.000000e+000
    outer loop
      vertex  5.736224e+001 -5.678625e+001  2.000000e+000
      vertex  5.845112e+001 -5.788318e+001  2.000000e+000
      vertex  5.915655e+001 -5.758627e+001  2.000000e+000
    endloop
  endfacet
  facet normal  -0.000000e+000  -0.000000e+000  1.000000e+000
    outer loop
      vertex  5.736224e+001 -5.678625e+001  2.000000e+000
      vertex  5.915655e+001 -5.758627e+001  2.000000e+000
      vertex  5.986531e+001 -5.787513e+001  2.000000e+000
    endloop
  endfacet
  facet normal  0.000000e+000  -0.000000e+000  1.000000e+000
    outer loop
      vertex  5.736224e+001 -5.678625e+001  2.000000e+000
      vertex  5.986531e+001 -5.787513e+001  2.000000e+000
      vertex  6.036224e+001 -5.678625e+001  2.000000e+000
    endloop
  endfacet
  facet normal  0.000000e+000  0.000000e+000  1.000000e+000
    outer loop
      vertex  5.316224e+001 -4.738625e+001  2.000000e+000
      vertex -4.597320e+001 -1.752679e+001  2.000000e+000
      vertex -4.852120e+001 -1.755065e+001  2.000000e+000
    endloop
  endfacet
  facet normal  0.000000e+000  0.000000e+000  1.000000e+000
    outer loop
      vertex  5.316224e+001 -4.738625e+001  2.000000e+000
      vertex -4.852120e+001 -1.755065e+001  2.000000e+000
      vertex -4.949838e+001 -1.977786e+001  2.000000e+000
    endloop
  endfacet
  facet normal  0.000000e+000  0.000000e+000  1.000000e+000
    outer loop
      vertex  5.316224e+001 -4.738625e+001  2.000000e+000
      vertex -4.949838e+001 -1.977786e+001  2.000000e+000
      vertex -4.916830e+001 -2.453907e+001  2.000000e+000
    endloop
  endfacet
  facet normal  0.000000e+000  0.000000e+000  9.999999e-001
    outer loop
      vertex  5.316224e+001 -4.738625e+001  2.000000e+000
      vertex -4.916830e+001 -2.453907e+001  2.000000e+000
      vertex -4.808118e+001 -2.667874e+001  2.000000e+000
    endloop
  endfacet
  facet normal  0.000000e+000  0.000000e+000  1.000000e+000
    outer loop
      vertex  5.316224e+001 -4.738625e+001  2.000000e+000
      vertex -4.808118e+001 -2.667874e+001  2.000000e+000
      vertex -3.139339e+001 -3.201167e+001  2.000000e+000
    endloop
  endfacet
  facet normal  0.000000e+000  0.000000e+000  1.000000e+000
    outer loop
      vertex  5.316224e+001 -4.738625e+001  2.000000e+000
      vertex -3.139339e+001 -3.201167e+001  2.000000e+000
      vertex -2.140221e+001 -3.985079e+001  2.000000e+000
    endloop
  endfacet
  facet normal  0.000000e+000  0.000000e+000  9.999999e-001
    outer loop
      vertex  5.316224e+001 -4.738625e+001  2.000000e+000
      vertex -2.140221e+001 -3.985079e+001  2.000000e+000
      vertex -9.936875e+000 -4.738625e+001  2.000000e+000
    endloop
  endfacet
  facet normal  -0.000000e+000  0.000000e+000  1.000000e+000
    outer loop
      vertex  5.316224e+001 -4.738625e+001  2.000000e+000
      vertex -9.936875e+000 -4.738625e+001  2.000000e+000
      vertex -9.936875e+000 -6.238625e+001  2.000000e+000
    endloop
  endfacet
  facet normal  0.000000e+000  0.000000e+000  1.000000e+000
    outer loop
      vertex  5.316224e+001 -4.738625e+001  2.000000e+000
      vertex -9.936875e+000 -6.238625e+001  2.000000e+000
      vertex  5.316224e+001 -6.238625e+001  2.000000e+000
    endloop
  endfacet
  facet normal  0.000000e+000  0.000000e+000  1.000000e+000
    outer loop
      vertex  6.136224e+001 -6.238625e+001  2.000000e+000
      vertex  6.036224e+001 -6.138625e+001  2.000000e+000
      vertex  5.536224e+001 -6.238625e+001  2.000000e+000
    endloop
  endfacet
  facet normal  0.000000e+000  0.000000e+000  1.000000e+000
    outer loop
      vertex  5.536224e+001 -6.238625e+001  2.000000e+000
      vertex  6.036224e+001 -6.138625e+001  2.000000e+000
      vertex  5.636224e+001 -6.138625e+001  2.000000e+000
    endloop
  endfacet
  facet normal  0.000000e+000  0.000000e+000  1.000000e+000
    outer loop
      vertex  5.536224e+001 -6.238625e+001  2.000000e+000
      vertex  5.636224e+001 -6.138625e+001  2.000000e+000
      vertex  5.536224e+001 -4.738625e+001  2.000000e+000
    endloop
  endfacet
  facet normal  0.000000e+000  0.000000e+000  1.000000e+000
    outer loop
      vertex  5.536224e+001 -4.738625e+001  2.000000e+000
      vertex  5.636224e+001 -6.138625e+001  2.000000e+000
      vertex  5.636224e+001 -5.578625e+001  2.000000e+000
    endloop
  endfacet
  facet normal  0.000000e+000  0.000000e+000  1.000000e+000
    outer loop
      vertex  6.036224e+001 -6.038625e+001  2.000000e+000
      vertex  5.916793e+001 -5.958624e+001  2.000000e+000
      vertex  5.736224e+001 -6.038625e+001  2.000000e+000
    endloop
  endfacet
  facet normal  0.000000e+000  0.000000e+000  1.000000e+000
    outer loop
      vertex  5.736224e+001 -6.038625e+001  2.000000e+000
      vertex  5.916793e+001 -5.958624e+001  2.000000e+000
      vertex  5.845916e+001 -5.929737e+001  2.000000e+000
    endloop
  endfacet
  facet normal  0.000000e+000  0.000000e+000  1.000000e+000
    outer loop
      vertex  5.736224e+001 -6.038625e+001  2.000000e+000
      vertex  5.845916e+001 -5.929737e+001  2.000000e+000
      vertex  5.816225e+001 -5.859194e+001  2.000000e+000
    endloop
  endfacet
  facet normal  0.000000e+000  0.000000e+000  9.999999e-001
    outer loop
      vertex -3.139339e+001 -3.201167e+001  2.000000e+000
      vertex -4.808118e+001 -2.667874e+001  2.000000e+000
      vertex -5.490027e+001 -3.946392e+001  2.000000e+000
    endloop
  endfacet
  facet normal  0.000000e+000  0.000000e+000  1.000000e+000
    outer loop
      vertex -5.490027e+001 -3.946392e+001  2.000000e+000
      vertex -4.808118e+001 -2.667874e+001  2.000000e+000
      vertex -5.022086e+001 -2.776586e+001  2.000000e+000
    endloop
  endfacet
  facet normal  0.000000e+000  0.000000e+000  1.000000e+000
    outer loop
      vertex -5.490027e+001 -3.946392e+001  2.000000e+000
      vertex -5.022086e+001 -2.776586e+001  2.000000e+000
      vertex -6.293296e+001 -3.338192e+001  2.000000e+000
    endloop
  endfacet
  facet normal  -0.000000e+000  0.000000e+000  1.000000e+000
    outer loop
      vertex -4.949838e+001 -1.977786e+001  2.000000e+000
      vertex -5.470431e+001 -2.337689e+001  2.000000e+000
      vertex -4.916830e+001 -2.453907e+001  2.000000e+000
    endloop
  endfacet
  facet normal  0.000000e+000  0.000000e+000  1.000000e+000
    outer loop
      vertex -4.916830e+001 -2.453907e+001  2.000000e+000
      vertex -5.470431e+001 -2.337689e+001  2.000000e+000
      vertex -5.130797e+001 -2.562619e+001  2.000000e+000
    endloop
  endfacet
  facet normal  0.000000e+000  0.000000e+000  1.000000e+000
    outer loop
      vertex -1.813688e+001 -6.238625e+001  2.000000e+000
      vertex -1.213688e+001 -6.238625e+001  2.000000e+000
      vertex -2.140221e+001 -3.985079e+001  2.000000e+000
    endloop
  endfacet
  facet normal  0.000000e+000  0.000000e+000  1.000000e+000
    outer loop
      vertex -2.140221e+001 -3.985079e+001  2.000000e+000
      vertex -1.213688e+001 -6.238625e+001  2.000000e+000
      vertex -1.213688e+001 -4.738625e+001  2.000000e+000
    endloop
  endfacet
  facet normal  0.000000e+000  -0.000000e+000  1.000000e+000
    outer loop
      vertex -2.140221e+001 -3.985079e+001  2.000000e+000
      vertex -1.213688e+001 -4.738625e+001  2.000000e+000
      vertex -9.936875e+000 -4.738625e+001  2.000000e+000
    endloop
  endfacet
  facet normal  0.000000e+000  0.000000e+000  1.000000e+000
    outer loop
      vertex  6.256224e+001 -2.923097e+001  2.000000e+000
      vertex  6.496223e+001 -2.923097e+001  2.000000e+000
      vertex  6.256224e+001 -1.768970e+001  2.000000e+000
    endloop
  endfacet
  facet normal  -0.000000e+000  0.000000e+000  1.000000e+000
    outer loop
      vertex  6.256224e+001 -1.768970e+001  2.000000e+000
      vertex  6.496223e+001 -2.923097e+001  2.000000e+000
      vertex  6.496223e+001 -1.483097e+001  2.000000e+000
    endloop
  endfacet
  facet normal  1.000000e+000  0.000000e+000  0.000000e+000
    outer loop
      vertex  6.036224e+001 -5.578625e+001  2.000000e+000
      vertex  6.036224e+001 -5.578625e+001  2.430000e+000
      vertex  6.036224e+001 -5.678625e+001  2.000000e+000
    endloop
  endfacet
  facet normal  1.000000e+000  0.000000e+000  0.000000e+000
    outer loop
      vertex  6.036224e+001 -5.678625e+001  2.000000e+000
      vertex  6.036224e+001 -5.578625e+001  2.430000e+000
      vertex  6.036224e+001 -5.678625e+001  2.430000e+000
    endloop
  endfacet
  facet normal  0.000000e+000 -1.000000e+000  -0.000000e+000
    outer loop
      vertex  6.036224e+001 -5.678625e+001  2.000000e+000
      vertex  6.036224e+001 -5.678625e+001  2.430000e+000
      vertex  5.736224e+001 -5.678625e+001  2.000000e+000
    endloop
  endfacet
  facet normal  0.000000e+000 -1.000000e+000  0.000000e+000
    outer loop
      vertex  5.736224e+001 -5.678625e+001  2.000000e+000
      vertex  6.036224e+001 -5.678625e+001  2.430000e+000
      vertex  5.736224e+001 -5.678625e+001  2.430000e+000
    endloop
  endfacet
  facet normal  9.999999e-001  0.000000e+000  0.000000e+000
    outer loop
      vertex  5.736224e+001 -5.678625e+001  2.000000e+000
      vertex  5.736224e+001 -5.678625e+001  2.430000e+000
      vertex  5.736224e+001 -6.038625e+001  2.000000e+000
    endloop
  endfacet
  facet normal  9.999999e-001  0.000000e+000  0.000000e+000
    outer loop
      vertex  5.736224e+001 -6.038625e+001  2.000000e+000
      vertex  5.736224e+001 -5.678625e+001  2.430000e+000
      vertex  5.736224e+001 -6.038625e+001  2.430000e+000
    endloop
  endfacet
  facet normal  0.000000e+000  1.000000e+000  0.000000e+000
    outer loop
      vertex  5.736224e+001 -6.038625e+001  2.000000e+000
      vertex  5.736224e+001 -6.038625e+001  2.430000e+000
      vertex  6.036224e+001 -6.038625e+001  2.000000e+000
    endloop
  endfacet
  facet normal  0.000000e+000  1.000000e+000  -0.000000e+000
    outer loop
      vertex  6.036224e+001 -6.038625e+001  2.000000e+000
      vertex  5.736224e+001 -6.038625e+001  2.430000e+000
      vertex  6.036224e+001 -6.038625e+001  2.430000e+000
    endloop
  endfacet
  facet normal  1.000000e+000  0.000000e+000  0.000000e+000
    outer loop
      vertex  6.036224e+001 -6.038625e+001  2.000000e+000
      vertex  6.036224e+001 -6.038625e+001  2.430000e+000
      vertex  6.036224e+001 -6.138625e+001  2.000000e+000
    endloop
  endfacet
  facet normal  1.000000e+000  0.000000e+000  0.000000e+000
    outer loop
      vertex  6.036224e+001 -6.138625e+001  2.000000e+000
      vertex  6.036224e+001 -6.038625e+001  2.430000e+000
      vertex  6.036224e+001 -6.138625e+001  2.430000e+000
    endloop
  endfacet
  facet normal  0.000000e+000 -1.000000e+000  -0.000000e+000
    outer loop
      vertex  6.036224e+001 -6.138625e+001  2.000000e+000
      vertex  6.036224e+001 -6.138625e+001  2.430000e+000
      vertex  5.636224e+001 -6.138625e+001  2.000000e+000
    endloop
  endfacet
  facet normal  0.000000e+000 -1.000000e+000  0.000000e+000
    outer loop
      vertex  5.636224e+001 -6.138625e+001  2.000000e+000
      vertex  6.036224e+001 -6.138625e+001  2.430000e+000
      vertex  5.636224e+001 -6.138625e+001  2.430000e+000
    endloop
  endfacet
  facet normal -1.000000e+000  0.000000e+000  0.000000e+000
    outer loop
      vertex  5.636224e+001 -6.138625e+001  2.000000e+000
      vertex  5.636224e+001 -6.138625e+001  2.430000e+000
      vertex  5.636224e+001 -5.578625e+001  2.000000e+000
    endloop
  endfacet
  facet normal -1.000000e+000  0.000000e+000  0.000000e+000
    outer loop
      vertex  5.636224e+001 -5.578625e+001  2.000000e+000
      vertex  5.636224e+001 -6.138625e+001  2.430000e+000
      vertex  5.636224e+001 -5.578625e+001  2.430000e+000
    endloop
  endfacet
  facet normal  0.000000e+000  1.000000e+000  0.000000e+000
    outer loop
      vertex  5.636224e+001 -5.578625e+001  2.000000e+000
      vertex  5.636224e+001 -5.578625e+001  2.430000e+000
      vertex  6.036224e+001 -5.578625e+001  2.000000e+000
    endloop
  endfacet
  facet normal  0.000000e+000  1.000000e+000  -0.000000e+000
    outer loop
      vertex  6.036224e+001 -5.578625e+001  2.000000e+000
      vertex  5.636224e+001 -5.578625e+001  2.430000e+000
      vertex  6.036224e+001 -5.578625e+001  2.430000e+000
    endloop
  endfacet
  facet normal  9.260420e-001 -3.774205e-001  0.000000e+000
    outer loop
      vertex  6.016222e+001 -5.858056e+001  2.000000e+000
      vertex  6.016222e+001 -5.858056e+001  2.430000e+000
      vertex  5.987336e+001 -5.928932e+001  2.000000e+000
    endloop
  endfacet
  facet normal  9.260420e-001 -3.774205e-001  0.000000e+000
    outer loop
      vertex  5.987336e+001 -5.928932e+001  2.000000e+000
      vertex  6.016222e+001 -5.858056e+001  2.430000e+000
      vertex  5.987336e+001 -5.928932e+001  2.430000e+000
    endloop
  endfacet
  facet normal  3.879353e-001 -9.216866e-001  0.000000e+000
    outer loop
      vertex  5.987336e+001 -5.928932e+001  2.000000e+000
      vertex  5.987336e+001 -5.928932e+001  2.430000e+000
      vertex  5.916793e+001 -5.958624e+001  2.000000e+000
    endloop
  endfacet
  facet normal  3.879353e-001 -9.216866e-001  0.000000e+000
    outer loop
      vertex  5.916793e+001 -5.958624e+001  2.000000e+000
      vertex  5.987336e+001 -5.928932e+001  2.430000e+000
      vertex  5.916793e+001 -5.958624e+001  2.430000e+000
    endloop
  endfacet
  facet normal -3.774231e-001 -9.260409e-001  -0.000000e+000
    outer loop
      vertex  5.916793e+001 -5.958624e+001  2.000000e+000
      vertex  5.916793e+001 -5.958624e+001  2.430000e+000
      vertex  5.845916e+001 -5.929737e+001  2.000000e+000
    endloop
  endfacet
  facet normal -3.774231e-001 -9.260409e-001  0.000000e+000
    outer loop
      vertex  5.845916e+001 -5.929737e+001  2.000000e+000
      vertex  5.916793e+001 -5.958624e+001  2.430000e+000
      vertex  5.845916e+001 -5.929737e+001  2.430000e+000
    endloop
  endfacet
  facet normal -9.216884e-001 -3.879311e-001  -0.000000e+000
    outer loop
      vertex  5.845916e+001 -5.929737e+001  2.000000e+000
      vertex  5.845916e+001 -5.929737e+001  2.430000e+000
      vertex  5.816225e+001 -5.859194e+001  2.000000e+000
    endloop
  endfacet
  facet normal -9.216884e-001 -3.879311e-001  0.000000e+000
    outer loop
      vertex  5.816225e+001 -5.859194e+001  2.000000e+000
      vertex  5.845916e+001 -5.929737e+001  2.430000e+000
      vertex  5.816225e+001 -5.859194e+001  2.430000e+000
    endloop
  endfacet
  facet normal -9.260420e-001  3.774205e-001  0.000000e+000
    outer loop
      vertex  5.816225e+001 -5.859194e+001  2.000000e+000
      vertex  5.816225e+001 -5.859194e+001  2.430000e+000
      vertex  5.845112e+001 -5.788318e+001  2.000000e+000
    endloop
  endfacet
  facet normal -9.260420e-001  3.774205e-001  0.000000e+000
    outer loop
      vertex  5.845112e+001 -5.788318e+001  2.000000e+000
      vertex  5.816225e+001 -5.859194e+001  2.430000e+000
      vertex  5.845112e+001 -5.788318e+001  2.430000e+000
    endloop
  endfacet
  facet normal -3.879353e-001  9.216866e-001  0.000000e+000
    outer loop
      vertex  5.845112e+001 -5.788318e+001  2.000000e+000
      vertex  5.845112e+001 -5.788318e+001  2.430000e+000
      vertex  5.915655e+001 -5.758627e+001  2.000000e+000
    endloop
  endfacet
  facet normal -3.879353e-001  9.216866e-001  0.000000e+000
    outer loop
      vertex  5.915655e+001 -5.758627e+001  2.000000e+000
      vertex  5.845112e+001 -5.788318e+001  2.430000e+000
      vertex  5.915655e+001 -5.758627e+001  2.430000e+000
    endloop
  endfacet
  facet normal  3.774231e-001  9.260409e-001  0.000000e+000
    outer loop
      vertex  5.915655e+001 -5.758627e+001  2.000000e+000
      vertex  5.915655e+001 -5.758627e+001  2.430000e+000
      vertex  5.986531e+001 -5.787513e+001  2.000000e+000
    endloop
  endfacet
  facet normal  3.774231e-001  9.260409e-001  -0.000000e+000
    outer loop
      vertex  5.986531e+001 -5.787513e+001  2.000000e+000
      vertex  5.915655e+001 -5.758627e+001  2.430000e+000
      vertex  5.986531e+001 -5.787513e+001  2.430000e+000
    endloop
  endfacet
  facet normal  9.216884e-001  3.879311e-001  0.000000e+000
    outer loop
      vertex  5.986531e+001 -5.787513e+001  2.000000e+000
      vertex  5.986531e+001 -5.787513e+001  2.430000e+000
      vertex  6.016222e+001 -5.858056e+001  2.000000e+000
    endloop
  endfacet
  facet normal  9.216884e-001  3.879311e-001  -0.000000e+000
    outer loop
      vertex  6.016222e+001 -5.858056e+001  2.000000e+000
      vertex  5.986531e+001 -5.787513e+001  2.430000e+000
      vertex  6.016222e+001 -5.858056e+001  2.430000e+000
    endloop
  endfacet
  facet normal  0.000000e+000  0.000000e+000  1.000000e+000
    outer loop
      vertex  6.036224e+001 -6.138625e+001  2.430000e+000
      vertex  6.036224e+001 -6.038625e+001  2.430000e+000
      vertex  5.636224e+001 -6.138625e+001  2.430000e+000
    endloop
  endfacet
  facet normal  0.000000e+000  0.000000e+000  1.000000e+000
    outer loop
      vertex  5.636224e+001 -6.138625e+001  2.430000e+000
      vertex  6.036224e+001 -6.038625e+001  2.430000e+000
      vertex  5.736224e+001 -6.038625e+001  2.430000e+000
    endloop
  endfacet
  facet normal  0.000000e+000  0.000000e+000  1.000000e+000
    outer loop
      vertex  5.636224e+001 -6.138625e+001  2.430000e+000
      vertex  5.736224e+001 -6.038625e+001  2.430000e+000
      vertex  5.636224e+001 -5.578625e+001  2.430000e+000
    endloop
  endfacet
  facet normal  0.000000e+000  0.000000e+000  1.000000e+000
    outer loop
      vertex  5.636224e+001 -5.578625e+001  2.430000e+000
      vertex  5.736224e+001 -6.038625e+001  2.430000e+000
      vertex  5.736224e+001 -5.678625e+001  2.430000e+000
    endloop
  endfacet
  facet normal  0.000000e+000  -0.000000e+000  1.000000e+000
    outer loop
      vertex  5.636224e+001 -5.578625e+001  2.430000e+000
      vertex  5.736224e+001 -5.678625e+001  2.430000e+000
      vertex  6.036224e+001 -5.578625e+001  2.430000e+000
    endloop
  endfacet
  facet normal  0.000000e+000  0.000000e+000  1.000000e+000
    outer loop
      vertex  6.036224e+001 -5.578625e+001  2.430000e+000
      vertex  5.736224e+001 -5.678625e+001  2.430000e+000
      vertex  6.036224e+001 -5.678625e+001  2.430000e+000
    endloop
  endfacet
  facet normal  0.000000e+000  0.000000e+000  1.000000e+000
    outer loop
      vertex  5.845112e+001 -5.788318e+001  2.430000e+000
      vertex  5.986531e+001 -5.787513e+001  2.430000e+000
      vertex  5.915655e+001 -5.758627e+001  2.430000e+000
    endloop
  endfacet
  facet normal  -0.000000e+000  0.000000e+000  1.000000e+000
    outer loop
      vertex  5.986531e+001 -5.787513e+001  2.430000e+000
      vertex  5.845112e+001 -5.788318e+001  2.430000e+000
      vertex  6.016222e+001 -5.858056e+001  2.430000e+000
    endloop
  endfacet
  facet normal  0.000000e+000  0.000000e+000  9.999999e-001
    outer loop
      vertex  6.016222e+001 -5.858056e+001  2.430000e+000
      vertex  5.845112e+001 -5.788318e+001  2.430000e+000
      vertex  5.816225e+001 -5.859194e+001  2.430000e+000
    endloop
  endfacet
  facet normal  -0.000000e+000  0.000000e+000  9.999999e-001
    outer loop
      vertex  6.016222e+001 -5.858056e+001  2.430000e+000
      vertex  5.816225e+001 -5.859194e+001  2.430000e+000
      vertex  5.987336e+001 -5.928932e+001  2.430000e+000
    endloop
  endfacet
  facet normal  0.000000e+000  0.000000e+000  1.000000e+000
    outer loop
      vertex  5.987336e+001 -5.928932e+001  2.430000e+000
      vertex  5.816225e+001 -5.859194e+001  2.430000e+000
      vertex  5.845916e+001 -5.929737e+001  2.430000e+000
    endloop
  endfacet
  facet normal  -0.000000e+000  0.000000e+000  1.000000e+000
    outer loop
      vertex  5.987336e+001 -5.928932e+001  2.430000e+000
      vertex  5.845916e+001 -5.929737e+001  2.430000e+000
      vertex  5.916793e+001 -5.958624e+001  2.430000e+000
    endloop
  endfacet
  facet normal  0.000000e+000  0.000000e+000 -1.000000e+000
    outer loop
      vertex -2.449470e+001  3.815474e+001  0.000000e+000
      vertex -1.799470e+001  2.315474e+001  0.000000e+000
      vertex -2.019470e+001  2.315474e+001  0.000000e+000
    endloop
  endfacet
  facet normal  -0.000000e+000  0.000000e+000 -1.000000e+000
    outer loop
      vertex -2.449470e+001  3.815474e+001  0.000000e+000
      vertex -2.019470e+001  2.315474e+001  0.000000e+000
      vertex -4.249470e+001  2.293935e+001  0.000000e+000
    endloop
  endfacet
  facet normal  0.000000e+000  0.000000e+000 -1.000000e+000
    outer loop
      vertex -2.449470e+001  3.815474e+001  0.000000e+000
      vertex -4.249470e+001  2.293935e+001  0.000000e+000
      vertex -4.249470e+001  6.815475e+001  0.000000e+000
    endloop
  endfacet
  facet normal  0.000000e+000  0.000000e+000 -1.000000e+000
    outer loop
      vertex -2.449470e+001  3.815474e+001  0.000000e+000
      vertex -4.249470e+001  6.815475e+001  0.000000e+000
      vertex -2.449470e+001  6.815475e+001  0.000000e+000
    endloop
  endfacet
  facet normal  0.000000e+000  0.000000e+000 -1.000000e+000
    outer loop
      vertex -3.049470e+001  2.154743e+000  0.000000e+000
      vertex -4.249470e+001  2.293935e+001  0.000000e+000
      vertex -2.019470e+001  2.154743e+000  0.000000e+000
    endloop
  endfacet
  facet normal  0.000000e+000  0.000000e+000 -1.000000e+000
    outer loop
      vertex -2.019470e+001  2.154743e+000  0.000000e+000
      vertex -4.249470e+001  2.293935e+001  0.000000e+000
      vertex -2.019470e+001  2.315474e+001  0.000000e+000
    endloop
  endfacet
  facet normal  -0.000000e+000  0.000000e+000 -9.999999e-001
    outer loop
      vertex -1.369470e+001  6.815475e+001  0.000000e+000
      vertex  4.305300e+000  6.815475e+001  0.000000e+000
      vertex -1.369470e+001  3.815474e+001  0.000000e+000
    endloop
  endfacet
  facet normal  0.000000e+000  0.000000e+000 -1.000000e+000
    outer loop
      vertex -1.369470e+001  3.815474e+001  0.000000e+000
      vertex  4.305300e+000  6.815475e+001  0.000000e+000
      vertex  4.305300e+000  2.293935e+001  0.000000e+000
    endloop
  endfacet
  facet normal  0.000000e+000  0.000000e+000 -1.000000e+000
    outer loop
      vertex -1.369470e+001  3.815474e+001  0.000000e+000
      vertex  4.305300e+000  2.293935e+001  0.000000e+000
      vertex -2.449470e+001  3.815474e+001  0.000000e+000
    endloop
  endfacet
  facet normal  0.000000e+000  0.000000e+000 -1.000000e+000
    outer loop
      vertex -2.449470e+001  3.815474e+001  0.000000e+000
      vertex  4.305300e+000  2.293935e+001  0.000000e+000
      vertex -1.799470e+001  2.315474e+001  0.000000e+000
    endloop
  endfacet
  facet normal  0.000000e+000  0.000000e+000 -1.000000e+000
    outer loop
      vertex -7.694700e+000  2.154743e+000  0.000000e+000
      vertex -1.799470e+001  2.154743e+000  0.000000e+000
      vertex  4.305300e+000  2.293935e+001  0.000000e+000
    endloop
  endfacet
  facet normal  -0.000000e+000  0.000000e+000 -1.000000e+000
    outer loop
      vertex  4.305300e+000  2.293935e+001  0.000000e+000
      vertex -1.799470e+001  2.154743e+000  0.000000e+000
      vertex -1.799470e+001  2.315474e+001  0.000000e+000
    endloop
  endfacet
  facet normal  0.000000e+000  0.000000e+000  1.000000e+000
    outer loop
      vertex -2.449470e+001  3.815474e+001  2.000000e+000
      vertex -2.449470e+001  6.815475e+001  2.000000e+000
      vertex -4.249470e+001  6.815475e+001  2.000000e+000
    endloop
  endfacet
  facet normal  0.000000e+000  0.000000e+000  1.000000e+000
    outer loop
      vertex -2.449470e+001  3.815474e+001  2.000000e+000
      vertex -4.249470e+001  6.815475e+001  2.000000e+000
      vertex -4.249470e+001  2.293935e+001  2.000000e+000
    endloop
  endfacet
  facet normal  0.000000e+000  0.000000e+000  1.000000e+000
    outer loop
      vertex -2.449470e+001  3.815474e+001  2.000000e+000
      vertex -4.249470e+001  2.293935e+001  2.000000e+000
      vertex -2.019470e+001  2.315474e+001  2.000000e+000
    endloop
  endfacet
  facet normal  0.000000e+000  -0.000000e+000  1.000000e+000
    outer loop
      vertex -2.449470e+001  3.815474e+001  2.000000e+000
      vertex -2.019470e+001  2.315474e+001  2.000000e+000
      vertex -1.799470e+001  2.315474e+001  2.000000e+000
    endloop
  endfacet
  facet normal  0.000000e+000  -0.000000e+000  1.000000e+000
    outer loop
      vertex -4.249470e+001  2.293935e+001  2.000000e+000
      vertex -3.049470e+001  2.154743e+000  2.000000e+000
      vertex -2.019470e+001  2.315474e+001  2.000000e+000
    endloop
  endfacet
  facet normal  0.000000e+000  0.000000e+000  1.000000e+000
    outer loop
      vertex -2.019470e+001  2.315474e+001  2.000000e+000
      vertex -3.049470e+001  2.154743e+000  2.000000e+000
      vertex -2.019470e+001  2.154743e+000  2.000000e+000
    endloop
  endfacet
  facet normal  -0.000000e+000  0.000000e+000  1.000000e+000
    outer loop
      vertex  4.305300e+000  6.815475e+001  2.000000e+000
      vertex -1.369470e+001  6.815475e+001  2.000000e+000
      vertex  4.305300e+000  2.293935e+001  2.000000e+000
    endloop
  endfacet
  facet normal  0.000000e+000  0.000000e+000  9.999999e-001
    outer loop
      vertex  4.305300e+000  2.293935e+001  2.000000e+000
      vertex -1.369470e+001  6.815475e+001  2.000000e+000
      vertex -1.369470e+001  3.815474e+001  2.000000e+000
    endloop
  endfacet
  facet normal  0.000000e+000  0.000000e+000  1.000000e+000
    outer loop
      vertex  4.305300e+000  2.293935e+001  2.000000e+000
      vertex -1.369470e+001  3.815474e+001  2.000000e+000
      vertex -1.799470e+001  2.315474e+001  2.000000e+000
    endloop
  endfacet
  facet normal  0.000000e+000  -0.000000e+000  1.000000e+000
    outer loop
      vertex -1.799470e+001  2.315474e+001  2.000000e+000
      vertex -1.369470e+001  3.815474e+001  2.000000e+000
      vertex -2.449470e+001  3.815474e+001  2.000000e+000
    endloop
  endfacet
  facet normal  0.000000e+000  0.000000e+000  1.000000e+000
    outer loop
      vertex -1.799470e+001  2.154743e+000  2.000000e+000
      vertex -7.694700e+000  2.154743e+000  2.000000e+000
      vertex -1.799470e+001  2.315474e+001  2.000000e+000
    endloop
  endfacet
  facet normal  0.000000e+000  0.000000e+000  1.000000e+000
    outer loop
      vertex -1.799470e+001  2.315474e+001  2.000000e+000
      vertex -7.694700e+000  2.154743e+000  2.000000e+000
      vertex  4.305300e+000  2.293935e+001  2.000000e+000
    endloop
  endfacet
  facet normal  0.000000e+000 -1.000000e+000  0.000000e+000
    outer loop
      vertex -1.799470e+001  2.154743e+000  2.000000e+000
      vertex -1.799470e+001  2.154743e+000  0.000000e+000
      vertex -7.694700e+000  2.154743e+000  2.000000e+000
    endloop
  endfacet
  facet normal  0.000000e+000 -1.000000e+000  -0.000000e+000
    outer loop
      vertex -7.694700e+000  2.154743e+000  2.000000e+000
      vertex -1.799470e+001  2.154743e+000  0.000000e+000
      vertex -7.694700e+000  2.154743e+000  0.000000e+000
    endloop
  endfacet
  facet normal  9.999999e-001  0.000000e+000  0.000000e+000
    outer loop
      vertex  4.305300e+000  2.293935e+001  2.000000e+000
      vertex  4.305300e+000  2.293935e+001  0.000000e+000
      vertex  4.305300e+000  6.815475e+001  2.000000e+000
    endloop
  endfacet
  facet normal  9.999999e-001  0.000000e+000  0.000000e+000
    outer loop
      vertex  4.305300e+000  6.815475e+001  2.000000e+000
      vertex  4.305300e+000  2.293935e+001  0.000000e+000
      vertex  4.305300e+000  6.815475e+001  0.000000e+000
    endloop
  endfacet
  facet normal  8.660254e-001 -5.000000e-001  0.000000e+000
    outer loop
      vertex -7.694700e+000  2.154743e+000  2.000000e+000
      vertex -7.694700e+000  2.154743e+000  0.000000e+000
      vertex  4.305300e+000  2.293935e+001  2.000000e+000
    endloop
  endfacet
  facet normal  8.660254e-001 -5.000000e-001  0.000000e+000
    outer loop
      vertex  4.305300e+000  2.293935e+001  2.000000e+000
      vertex -7.694700e+000  2.154743e+000  0.000000e+000
      vertex  4.305300e+000  2.293935e+001  0.000000e+000
    endloop
  endfacet
  facet normal  0.000000e+000  0.000000e+000 -1.000000e+000
    outer loop
      vertex  3.510694e+001  2.315474e+001  0.000000e+000
      vertex  4.160694e+001  3.815474e+001  0.000000e+000
      vertex  3.730694e+001  2.315474e+001  0.000000e+000
    endloop
  endfacet
  facet normal  0.000000e+000  0.000000e+000 -1.000000e+000
    outer loop
      vertex  5.960694e+001  6.815475e+001  0.000000e+000
      vertex  5.960694e+001  2.293935e+001  0.000000e+000
      vertex  3.730694e+001  2.315474e+001  0.000000e+000
    endloop
  endfacet
  facet normal  0.000000e+000  0.000000e+000 -9.999999e-001
    outer loop
      vertex  5.960694e+001  6.815475e+001  0.000000e+000
      vertex  3.730694e+001  2.315474e+001  0.000000e+000
      vertex  4.160694e+001  3.815474e+001  0.000000e+000
    endloop
  endfacet
  facet normal  0.000000e+000  0.000000e+000 -9.999999e-001
    outer loop
      vertex  5.960694e+001  6.815475e+001  0.000000e+000
      vertex  4.160694e+001  3.815474e+001  0.000000e+000
      vertex  4.160694e+001  6.815475e+001  0.000000e+000
    endloop
  endfacet
  facet normal  0.000000e+000  0.000000e+000 -1.000000e+000
    outer loop
      vertex  1.280694e+001  2.293935e+001  0.000000e+000
      vertex  1.280694e+001  6.815475e+001  0.000000e+000
      vertex  3.080694e+001  6.815475e+001  0.000000e+000
    endloop
  endfacet
  facet normal  0.000000e+000  -0.000000e+000 -9.999999e-001
    outer loop
      vertex  1.280694e+001  2.293935e+001  0.000000e+000
      vertex  3.080694e+001  6.815475e+001  0.000000e+000
      vertex  3.080694e+001  3.815474e+001  0.000000e+000
    endloop
  endfacet
  facet normal  0.000000e+000  -0.000000e+000 -1.000000e+000
    outer loop
      vertex  1.280694e+001  2.293935e+001  0.000000e+000
      vertex  3.080694e+001  3.815474e+001  0.000000e+000
      vertex  4.160694e+001  3.815474e+001  0.000000e+000
    endloop
  endfacet
  facet normal  0.000000e+000  0.000000e+000 -1.000000e+000
    outer loop
      vertex  1.280694e+001  2.293935e+001  0.000000e+000
      vertex  4.160694e+001  3.815474e+001  0.000000e+000
      vertex  3.510694e+001  2.315474e+001  0.000000e+000
    endloop
  endfacet
  facet normal  0.000000e+000  -0.000000e+000 -1.000000e+000
    outer loop
      vertex  1.280694e+001  2.293935e+001  0.000000e+000
      vertex  3.510694e+001  2.315474e+001  0.000000e+000
      vertex  3.510694e+001  2.154743e+000  0.000000e+000
    endloop
  endfacet
  facet normal  0.000000e+000  0.000000e+000 -1.000000e+000
    outer loop
      vertex  1.280694e+001  2.293935e+001  0.000000e+000
      vertex  3.510694e+001  2.154743e+000  0.000000e+000
      vertex  2.480694e+001  2.154743e+000  0.000000e+000
    endloop
  endfacet
  facet normal  0.000000e+000  0.000000e+000 -1.000000e+000
    outer loop
      vertex  4.760694e+001  2.154743e+000  0.000000e+000
      vertex  3.730694e+001  2.154743e+000  0.000000e+000
      vertex  5.960694e+001  2.293935e+001  0.000000e+000
    endloop
  endfacet
  facet normal  -0.000000e+000  0.000000e+000 -1.000000e+000
    outer loop
      vertex  5.960694e+001  2.293935e+001  0.000000e+000
      vertex  3.730694e+001  2.154743e+000  0.000000e+000
      vertex  3.730694e+001  2.315474e+001  0.000000e+000
    endloop
  endfacet
  facet normal  0.000000e+000  0.000000e+000  1.000000e+000
    outer loop
      vertex  3.730694e+001  2.315474e+001  2.000000e+000
      vertex  4.160694e+001  3.815474e+001  2.000000e+000
      vertex  3.510694e+001  2.315474e+001  2.000000e+000
    endloop
  endfacet
  facet normal  -0.000000e+000  0.000000e+000  9.999999e-001
    outer loop
      vertex  5.960694e+001  6.815475e+001  2.000000e+000
      vertex  4.160694e+001  6.815475e+001  2.000000e+000
      vertex  4.160694e+001  3.815474e+001  2.000000e+000
    endloop
  endfacet
  facet normal  -0.000000e+000  0.000000e+000  9.999999e-001
    outer loop
      vertex  5.960694e+001  6.815475e+001  2.000000e+000
      vertex  4.160694e+001  3.815474e+001  2.000000e+000
      vertex  3.730694e+001  2.315474e+001  2.000000e+000
    endloop
  endfacet
  facet normal  -0.000000e+000  0.000000e+000  1.000000e+000
    outer loop
      vertex  5.960694e+001  6.815475e+001  2.000000e+000
      vertex  3.730694e+001  2.315474e+001  2.000000e+000
      vertex  5.960694e+001  2.293935e+001  2.000000e+000
    endloop
  endfacet
  facet normal  0.000000e+000  -0.000000e+000  1.000000e+000
    outer loop
      vertex  1.280694e+001  2.293935e+001  2.000000e+000
      vertex  2.480694e+001  2.154743e+000  2.000000e+000
      vertex  3.510694e+001  2.154743e+000  2.000000e+000
    endloop
  endfacet
  facet normal  0.000000e+000  -0.000000e+000  1.000000e+000
    outer loop
      vertex  1.280694e+001  2.293935e+001  2.000000e+000
      vertex  3.510694e+001  2.154743e+000  2.000000e+000
      vertex  3.510694e+001  2.315474e+001  2.000000e+000
    endloop
  endfacet
  facet normal  0.000000e+000  -0.000000e+000  1.000000e+000
    outer loop
      vertex  1.280694e+001  2.293935e+001  2.000000e+000
      vertex  3.510694e+001  2.315474e+001  2.000000e+000
      vertex  4.160694e+001  3.815474e+001  2.000000e+000
    endloop
  endfacet
  facet normal  0.000000e+000  0.000000e+000  1.000000e+000
    outer loop
      vertex  1.280694e+001  2.293935e+001  2.000000e+000
      vertex  4.160694e+001  3.815474e+001  2.000000e+000
      vertex  3.080694e+001  3.815474e+001  2.000000e+000
    endloop
  endfacet
  facet normal  0.000000e+000  -0.000000e+000  9.999999e-001
    outer loop
      vertex  1.280694e+001  2.293935e+001  2.000000e+000
      vertex  3.080694e+001  3.815474e+001  2.000000e+000
      vertex  3.080694e+001  6.815475e+001  2.000000e+000
    endloop
  endfacet
  facet normal  0.000000e+000  0.000000e+000  1.000000e+000
    outer loop
      vertex  1.280694e+001  2.293935e+001  2.000000e+000
      vertex  3.080694e+001  6.815475e+001  2.000000e+000
      vertex  1.280694e+001  6.815475e+001  2.000000e+000
    endloop
  endfacet
  facet normal  0.000000e+000  0.000000e+000  1.000000e+000
    outer loop
      vertex  3.730694e+001  2.154743e+000  2.000000e+000
      vertex  4.760694e+001  2.154743e+000  2.000000e+000
      vertex  3.730694e+001  2.315474e+001  2.000000e+000
    endloop
  endfacet
  facet normal  0.000000e+000  0.000000e+000  1.000000e+000
    outer loop
      vertex  3.730694e+001  2.315474e+001  2.000000e+000
      vertex  4.760694e+001  2.154743e+000  2.000000e+000
      vertex  5.960694e+001  2.293935e+001  2.000000e+000
    endloop
  endfacet
  facet normal  0.000000e+000 -1.000000e+000  0.000000e+000
    outer loop
      vertex  3.730694e+001  2.154743e+000  2.000000e+000
      vertex  3.730694e+001  2.154743e+000  0.000000e+000
      vertex  4.760694e+001  2.154743e+000  2.000000e+000
    endloop
  endfacet
  facet normal  0.000000e+000 -1.000000e+000  -0.000000e+000
    outer loop
      vertex  4.760694e+001  2.154743e+000  2.000000e+000
      vertex  3.730694e+001  2.154743e+000  0.000000e+000
      vertex  4.760694e+001  2.154743e+000  0.000000e+000
    endloop
  endfacet
  facet normal  9.999999e-001  0.000000e+000  0.000000e+000
    outer loop
      vertex  5.960694e+001  6.815475e+001  0.000000e+000
      vertex  5.960694e+001  6.815475e+001  2.000000e+000
      vertex  5.960694e+001  2.293935e+001  0.000000e+000
    endloop
  endfacet
  facet normal  9.999999e-001  0.000000e+000  0.000000e+000
    outer loop
      vertex  5.960694e+001  2.293935e+001  0.000000e+000
      vertex  5.960694e+001  6.815475e+001  2.000000e+000
      vertex  5.960694e+001  2.293935e+001  2.000000e+000
    endloop
  endfacet
  facet normal  8.660254e-001 -5.000000e-001  0.000000e+000
    outer loop
      vertex  4.760694e+001  2.154743e+000  2.000000e+000
      vertex  4.760694e+001  2.154743e+000  0.000000e+000
      vertex  5.960694e+001  2.293935e+001  2.000000e+000
    endloop
  endfacet
  facet normal  8.660254e-001 -5.000000e-001  0.000000e+000
    outer loop
      vertex  5.960694e+001  2.293935e+001  2.000000e+000
      vertex  4.760694e+001  2.154743e+000  0.000000e+000
      vertex  5.960694e+001  2.293935e+001  0.000000e+000
    endloop
  endfacet
  facet normal  0.000000e+000 -1.000000e+000  0.000000e+000
    outer loop
      vertex  2.480694e+001  2.154743e+000  2.000000e+000
      vertex  2.480694e+001  2.154743e+000  0.000000e+000
      vertex  3.510694e+001  2.154743e+000  2.000000e+000
    endloop
  endfacet
  facet normal  0.000000e+000 -1.000000e+000  -0.000000e+000
    outer loop
      vertex  3.510694e+001  2.154743e+000  2.000000e+000
      vertex  2.480694e+001  2.154743e+000  0.000000e+000
      vertex  3.510694e+001  2.154743e+000  0.000000e+000
    endloop
  endfacet
  facet normal -9.999999e-001  0.000000e+000  0.000000e+000
    outer loop
      vertex  1.280694e+001  2.293935e+001  0.000000e+000
      vertex  1.280694e+001  2.293935e+001  2.000000e+000
      vertex  1.280694e+001  6.815475e+001  0.000000e+000
    endloop
  endfacet
  facet normal -9.999999e-001  0.000000e+000  0.000000e+000
    outer loop
      vertex  1.280694e+001  6.815475e+001  0.000000e+000
      vertex  1.280694e+001  2.293935e+001  2.000000e+000
      vertex  1.280694e+001  6.815475e+001  2.000000e+000
    endloop
  endfacet
  facet normal -8.660254e-001 -5.000000e-001  -0.000000e+000
    outer loop
      vertex  2.480694e+001  2.154743e+000  0.000000e+000
      vertex  2.480694e+001  2.154743e+000  2.000000e+000
      vertex  1.280694e+001  2.293935e+001  0.000000e+000
    endloop
  endfacet
  facet normal -8.660254e-001 -5.000000e-001  0.000000e+000
    outer loop
      vertex  1.280694e+001  2.293935e+001  0.000000e+000
      vertex  2.480694e+001  2.154743e+000  2.000000e+000
      vertex  1.280694e+001  2.293935e+001  2.000000e+000
    endloop
  endfacet
  facet normal  0.000000e+000 -1.000000e+000  0.000000e+000
    outer loop
      vertex -3.049470e+001  2.154743e+000  2.000000e+000
      vertex -3.049470e+001  2.154743e+000  0.000000e+000
      vertex -2.019470e+001  2.154743e+000  2.000000e+000
    endloop
  endfacet
  facet normal  0.000000e+000 -1.000000e+000  -0.000000e+000
    outer loop
      vertex -2.019470e+001  2.154743e+000  2.000000e+000
      vertex -3.049470e+001  2.154743e+000  0.000000e+000
      vertex -2.019470e+001  2.154743e+000  0.000000e+000
    endloop
  endfacet
  facet normal -9.999999e-001  0.000000e+000  0.000000e+000
    outer loop
      vertex -4.249470e+001  6.815475e+001  2.000000e+000
      vertex -4.249470e+001  6.815475e+001  0.000000e+000
      vertex -4.249470e+001  2.293935e+001  2.000000e+000
    endloop
  endfacet
  facet normal -9.999999e-001  0.000000e+000  0.000000e+000
    outer loop
      vertex -4.249470e+001  2.293935e+001  2.000000e+000
      vertex -4.249470e+001  6.815475e+001  0.000000e+000
      vertex -4.249470e+001  2.293935e+001  0.000000e+000
    endloop
  endfacet
  facet normal -8.660254e-001 -5.000001e-001  -0.000000e+000
    outer loop
      vertex -3.049470e+001  2.154743e+000  0.000000e+000
      vertex -3.049470e+001  2.154743e+000  2.000000e+000
      vertex -4.249470e+001  2.293935e+001  0.000000e+000
    endloop
  endfacet
  facet normal -8.660254e-001 -5.000001e-001  0.000000e+000
    outer loop
      vertex -4.249470e+001  2.293935e+001  0.000000e+000
      vertex -3.049470e+001  2.154743e+000  2.000000e+000
      vertex -4.249470e+001  2.293935e+001  2.000000e+000
    endloop
  endfacet
  facet normal  0.000000e+000 -1.000000e+000  -0.000000e+000
    outer loop
      vertex  6.136224e+001 -6.238625e+001  0.000000e+000
      vertex  6.136224e+001 -6.238625e+001  2.000000e+000
      vertex  5.536224e+001 -6.238625e+001  0.000000e+000
    endloop
  endfacet
  facet normal  0.000000e+000 -1.000000e+000  0.000000e+000
    outer loop
      vertex  5.536224e+001 -6.238625e+001  0.000000e+000
      vertex  6.136224e+001 -6.238625e+001  2.000000e+000
      vertex  5.536224e+001 -6.238625e+001  2.000000e+000
    endloop
  endfacet
  facet normal  0.000000e+000 -1.000000e+000  -0.000000e+000
    outer loop
      vertex -1.213688e+001 -6.238625e+001  0.000000e+000
      vertex -1.213688e+001 -6.238625e+001  2.000000e+000
      vertex -1.813688e+001 -6.238625e+001  0.000000e+000
    endloop
  endfacet
  facet normal  0.000000e+000 -1.000000e+000  0.000000e+000
    outer loop
      vertex -1.813688e+001 -6.238625e+001  0.000000e+000
      vertex -1.213688e+001 -6.238625e+001  2.000000e+000
      vertex -1.813688e+001 -6.238625e+001  2.000000e+000
    endloop
  endfacet
  facet normal  0.000000e+000 -9.999999e-001  -0.000000e+000
    outer loop
      vertex  5.316224e+001 -6.238625e+001  0.000000e+000
      vertex  5.316224e+001 -6.238625e+001  2.000000e+000
      vertex -9.936875e+000 -6.238625e+001  0.000000e+000
    endloop
  endfacet
  facet normal  0.000000e+000 -9.999999e-001  0.000000e+000
    outer loop
      vertex -9.936875e+000 -6.238625e+001  0.000000e+000
      vertex  5.316224e+001 -6.238625e+001  2.000000e+000
      vertex -9.936875e+000 -6.238625e+001  2.000000e+000
    endloop
  endfacet
  facet normal  0.000000e+000  -0.000000e+000 -1.000000e+000
    outer loop
      vertex -4.852120e+001 -1.755065e+001  0.000000e+000
      vertex -4.597320e+001 -1.752679e+001  0.000000e+000
      vertex  6.256224e+001 -1.768970e+001  0.000000e+000
    endloop
  endfacet
  facet normal  0.000000e+000  0.000000e+000 -9.999999e-001
    outer loop
      vertex  6.136224e+001 -1.768970e+001  0.000000e+000
      vertex -4.852120e+001 -1.755065e+001  0.000000e+000
      vertex  6.256224e+001 -1.768970e+001  0.000000e+000
    endloop
  endfacet
  facet normal  -0.000000e+000  0.000000e+000 -1.000000e+000
    outer loop
      vertex -2.018398e+001 -7.623980e+000  0.000000e+000
      vertex -4.292843e+000 -9.167984e+000  0.000000e+000
      vertex -3.355206e+001 -1.224329e+001  0.000000e+000
    endloop
  endfacet
  facet normal  0.000000e+000  -0.000000e+000 -1.000000e+000
    outer loop
      vertex -5.518016e+001 -2.708590e+001  0.000000e+000
      vertex -5.470431e+001 -2.337689e+001  0.000000e+000
      vertex -5.130797e+001 -2.562619e+001  0.000000e+000
    endloop
  endfacet
  facet normal  0.000000e+000  -0.000000e+000 -1.000000e+000
    outer loop
      vertex -5.518016e+001 -2.708590e+001  0.000000e+000
      vertex -5.130797e+001 -2.562619e+001  0.000000e+000
      vertex -5.022086e+001 -2.776586e+001  0.000000e+000
    endloop
  endfacet
  facet normal  -0.000000e+000  0.000000e+000 -1.000000e+000
    outer loop
      vertex -5.518016e+001 -2.708590e+001  0.000000e+000
      vertex -5.022086e+001 -2.776586e+001  0.000000e+000
      vertex -6.293296e+001 -3.338192e+001  0.000000e+000
    endloop
  endfacet
  facet normal  0.000000e+000  0.000000e+000 -1.000000e+000
    outer loop
      vertex  6.496223e+001 -1.483097e+001  0.000000e+000
      vertex  6.496223e+001 -2.923097e+001  0.000000e+000
      vertex  6.256224e+001 -2.923097e+001  0.000000e+000
    endloop
  endfacet
  facet normal  0.000000e+000  0.000000e+000 -1.000000e+000
    outer loop
      vertex  6.496223e+001 -1.483097e+001  0.000000e+000
      vertex  6.256224e+001 -2.923097e+001  0.000000e+000
      vertex  6.256224e+001 -1.768970e+001  0.000000e+000
    endloop
  endfacet
  facet normal  0.000000e+000  0.000000e+000 -1.000000e+000
    outer loop
      vertex  6.496223e+001 -1.483097e+001  0.000000e+000
      vertex  6.256224e+001 -1.768970e+001  0.000000e+000
      vertex -4.597320e+001 -1.752679e+001  0.000000e+000
    endloop
  endfacet
  facet normal  0.000000e+000  0.000000e+000 -1.000000e+000
    outer loop
      vertex  6.496223e+001 -1.483097e+001  0.000000e+000
      vertex -4.597320e+001 -1.752679e+001  0.000000e+000
      vertex -3.355206e+001 -1.224329e+001  0.000000e+000
    endloop
  endfacet
  facet normal  0.000000e+000  0.000000e+000 -9.999999e-001
    outer loop
      vertex  6.496223e+001 -1.483097e+001  0.000000e+000
      vertex -3.355206e+001 -1.224329e+001  0.000000e+000
      vertex -4.292843e+000 -9.167984e+000  0.000000e+000
    endloop
  endfacet
  facet normal  0.000000e+000  0.000000e+000 -1.000000e+000
    outer loop
      vertex  6.496223e+001 -1.483097e+001  0.000000e+000
      vertex -4.292843e+000 -9.167984e+000  0.000000e+000
      vertex  2.726852e+001 -2.350334e+000  0.000000e+000
    endloop
  endfacet
  facet normal  0.000000e+000  0.000000e+000 -1.000000e+000
    outer loop
      vertex  5.316224e+001 -4.738625e+001  0.000000e+000
      vertex  5.316224e+001 -6.238625e+001  0.000000e+000
      vertex -9.936875e+000 -6.238625e+001  0.000000e+000
    endloop
  endfacet
  facet normal  0.000000e+000  0.000000e+000 -1.000000e+000
    outer loop
      vertex  5.316224e+001 -4.738625e+001  0.000000e+000
      vertex -9.936875e+000 -6.238625e+001  0.000000e+000
      vertex -9.936875e+000 -4.738625e+001  0.000000e+000
    endloop
  endfacet
  facet normal  0.000000e+000  0.000000e+000 -9.999999e-001
    outer loop
      vertex  5.316224e+001 -4.738625e+001  0.000000e+000
      vertex -9.936875e+000 -4.738625e+001  0.000000e+000
      vertex -2.140221e+001 -3.985079e+001  0.000000e+000
    endloop
  endfacet
  facet normal  0.000000e+000  0.000000e+000 -1.000000e+000
    outer loop
      vertex  5.316224e+001 -4.738625e+001  0.000000e+000
      vertex -2.140221e+001 -3.985079e+001  0.000000e+000
      vertex -3.139339e+001 -3.201167e+001  0.000000e+000
    endloop
  endfacet
  facet normal  0.000000e+000  0.000000e+000 -1.000000e+000
    outer loop
      vertex  5.316224e+001 -4.738625e+001  0.000000e+000
      vertex -3.139339e+001 -3.201167e+001  0.000000e+000
      vertex -4.808118e+001 -2.667874e+001  0.000000e+000
    endloop
  endfacet
  facet normal  0.000000e+000  0.000000e+000 -1.000000e+000
    outer loop
      vertex  5.316224e+001 -4.738625e+001  0.000000e+000
      vertex -4.808118e+001 -2.667874e+001  0.000000e+000
      vertex -4.916830e+001 -2.453907e+001  0.000000e+000
    endloop
  endfacet
  facet normal  0.000000e+000  0.000000e+000 -1.000000e+000
    outer loop
      vertex  5.316224e+001 -4.738625e+001  0.000000e+000
      vertex -4.916830e+001 -2.453907e+001  0.000000e+000
      vertex -4.949838e+001 -1.977786e+001  0.000000e+000
    endloop
  endfacet
  facet normal  0.000000e+000  0.000000e+000 -1.000000e+000
    outer loop
      vertex  5.316224e+001 -4.738625e+001  0.000000e+000
      vertex -4.949838e+001 -1.977786e+001  0.000000e+000
      vertex -4.852120e+001 -1.755065e+001  0.000000e+000
    endloop
  endfacet
  facet normal  0.000000e+000  0.000000e+000 -9.999999e-001
    outer loop
      vertex  5.316224e+001 -4.738625e+001  0.000000e+000
      vertex -4.852120e+001 -1.755065e+001  0.000000e+000
      vertex  6.136224e+001 -1.768970e+001  0.000000e+000
    endloop
  endfacet
  facet normal  0.000000e+000  0.000000e+000 -1.000000e+000
    outer loop
      vertex  5.316224e+001 -4.738625e+001  0.000000e+000
      vertex  6.136224e+001 -1.768970e+001  0.000000e+000
      vertex  5.536224e+001 -4.738625e+001  0.000000e+000
    endloop
  endfacet
  facet normal  0.000000e+000  0.000000e+000 -1.000000e+000
    outer loop
      vertex -4.808118e+001 -2.667874e+001  0.000000e+000
      vertex -3.139339e+001 -3.201167e+001  0.000000e+000
      vertex -5.022086e+001 -2.776586e+001  0.000000e+000
    endloop
  endfacet
  facet normal  0.000000e+000  -0.000000e+000 -1.000000e+000
    outer loop
      vertex -5.022086e+001 -2.776586e+001  0.000000e+000
      vertex -3.139339e+001 -3.201167e+001  0.000000e+000
      vertex -5.490027e+001 -3.946392e+001  0.000000e+000
    endloop
  endfacet
  facet normal  0.000000e+000  0.000000e+000 -1.000000e+000
    outer loop
      vertex -5.022086e+001 -2.776586e+001  0.000000e+000
      vertex -5.490027e+001 -3.946392e+001  0.000000e+000
      vertex -6.293296e+001 -3.338192e+001  0.000000e+000
    endloop
  endfacet
  facet normal  0.000000e+000  0.000000e+000 -1.000000e+000
    outer loop
      vertex -5.470431e+001 -2.337689e+001  0.000000e+000
      vertex -4.949838e+001 -1.977786e+001  0.000000e+000
      vertex -5.130797e+001 -2.562619e+001  0.000000e+000
    endloop
  endfacet
  facet normal  0.000000e+000  0.000000e+000 -1.000000e+000
    outer loop
      vertex -5.130797e+001 -2.562619e+001  0.000000e+000
      vertex -4.949838e+001 -1.977786e+001  0.000000e+000
      vertex -4.916830e+001 -2.453907e+001  0.000000e+000
    endloop
  endfacet
  facet normal  0.000000e+000  0.000000e+000 -1.000000e+000
    outer loop
      vertex -1.213688e+001 -6.238625e+001  0.000000e+000
      vertex -1.813688e+001 -6.238625e+001  0.000000e+000
      vertex -1.213688e+001 -4.738625e+001  0.000000e+000
    endloop
  endfacet
  facet normal  -0.000000e+000  0.000000e+000 -1.000000e+000
    outer loop
      vertex -1.213688e+001 -4.738625e+001  0.000000e+000
      vertex -1.813688e+001 -6.238625e+001  0.000000e+000
      vertex -2.140221e+001 -3.985079e+001  0.000000e+000
    endloop
  endfacet
  facet normal  0.000000e+000  0.000000e+000 -1.000000e+000
    outer loop
      vertex -1.213688e+001 -4.738625e+001  0.000000e+000
      vertex -2.140221e+001 -3.985079e+001  0.000000e+000
      vertex -9.936875e+000 -4.738625e+001  0.000000e+000
    endloop
  endfacet
  facet normal  0.000000e+000  0.000000e+000 -1.000000e+000
    outer loop
      vertex  5.536224e+001 -6.238625e+001  0.000000e+000
      vertex  5.536224e+001 -4.738625e+001  0.000000e+000
      vertex  6.136224e+001 -6.238625e+001  0.000000e+000
    endloop
  endfacet
  facet normal  0.000000e+000  0.000000e+000 -1.000000e+000
    outer loop
      vertex  6.136224e+001 -6.238625e+001  0.000000e+000
      vertex  5.536224e+001 -4.738625e+001  0.000000e+000
      vertex  6.136224e+001 -1.768970e+001  0.000000e+000
    endloop
  endfacet
  facet normal  1.000000e+000  0.000000e+000  0.000000e+000
    outer loop
      vertex  3.510694e+001  2.315474e+001  0.000000e+000
      vertex  3.510694e+001  2.315474e+001  2.000000e+000
      vertex  3.510694e+001  2.154743e+000  0.000000e+000
    endloop
  endfacet
  facet normal  1.000000e+000  0.000000e+000  0.000000e+000
    outer loop
      vertex  3.510694e+001  2.154743e+000  0.000000e+000
      vertex  3.510694e+001  2.315474e+001  2.000000e+000
      vertex  3.510694e+001  2.154743e+000  2.000000e+000
    endloop
  endfacet
  facet normal  0.000000e+000 -1.000000e+000  -0.000000e+000
    outer loop
      vertex  3.730694e+001  2.315474e+001  0.000000e+000
      vertex  3.730694e+001  2.315474e+001  2.000000e+000
      vertex  3.510694e+001  2.315474e+001  0.000000e+000
    endloop
  endfacet
  facet normal  0.000000e+000 -1.000000e+000  0.000000e+000
    outer loop
      vertex  3.510694e+001  2.315474e+001  0.000000e+000
      vertex  3.730694e+001  2.315474e+001  2.000000e+000
      vertex  3.510694e+001  2.315474e+001  2.000000e+000
    endloop
  endfacet
  facet normal -1.000000e+000  0.000000e+000  0.000000e+000
    outer loop
      vertex  3.730694e+001  2.154743e+000  0.000000e+000
      vertex  3.730694e+001  2.154743e+000  2.000000e+000
      vertex  3.730694e+001  2.315474e+001  0.000000e+000
    endloop
  endfacet
  facet normal -1.000000e+000  0.000000e+000  0.000000e+000
    outer loop
      vertex  3.730694e+001  2.315474e+001  0.000000e+000
      vertex  3.730694e+001  2.154743e+000  2.000000e+000
      vertex  3.730694e+001  2.315474e+001  2.000000e+000
    endloop
  endfacet
  facet normal  1.000000e+000  0.000000e+000  0.000000e+000
    outer loop
      vertex -2.019470e+001  2.315474e+001  0.000000e+000
      vertex -2.019470e+001  2.315474e+001  2.000000e+000
      vertex -2.019470e+001  2.154743e+000  0.000000e+000
    endloop
  endfacet
  facet normal  1.000000e+000  0.000000e+000  0.000000e+000
    outer loop
      vertex -2.019470e+001  2.154743e+000  0.000000e+000
      vertex -2.019470e+001  2.315474e+001  2.000000e+000
      vertex -2.019470e+001  2.154743e+000  2.000000e+000
    endloop
  endfacet
  facet normal  0.000000e+000 -1.000000e+000  -0.000000e+000
    outer loop
      vertex -1.799470e+001  2.315474e+001  0.000000e+000
      vertex -1.799470e+001  2.315474e+001  2.000000e+000
      vertex -2.019470e+001  2.315474e+001  0.000000e+000
    endloop
  endfacet
  facet normal  0.000000e+000 -1.000000e+000  0.000000e+000
    outer loop
      vertex -2.019470e+001  2.315474e+001  0.000000e+000
      vertex -1.799470e+001  2.315474e+001  2.000000e+000
      vertex -2.019470e+001  2.315474e+001  2.000000e+000
    endloop
  endfacet
  facet normal -1.000000e+000  0.000000e+000  0.000000e+000
    outer loop
      vertex -1.799470e+001  2.154743e+000  0.000000e+000
      vertex -1.799470e+001  2.154743e+000  2.000000e+000
      vertex -1.799470e+001  2.315474e+001  0.000000e+000
    endloop
  endfacet
  facet normal -1.000000e+000  0.000000e+000  0.000000e+000
    outer loop
      vertex -1.799470e+001  2.315474e+001  0.000000e+000
      vertex -1.799470e+001  2.154743e+000  2.000000e+000
      vertex -1.799470e+001  2.315474e+001  2.000000e+000
    endloop
  endfacet
  facet normal  0.000000e+000 -1.000000e+000  -0.000000e+000
    outer loop
      vertex  5.536224e+001 -4.738625e+001  0.000000e+000
      vertex  5.536224e+001 -4.738625e+001  2.000000e+000
      vertex  5.316224e+001 -4.738625e+001  0.000000e+000
    endloop
  endfacet
  facet normal  0.000000e+000 -1.000000e+000  0.000000e+000
    outer loop
      vertex  5.316224e+001 -4.738625e+001  0.000000e+000
      vertex  5.536224e+001 -4.738625e+001  2.000000e+000
      vertex  5.316224e+001 -4.738625e+001  2.000000e+000
    endloop
  endfacet
  facet normal -1.000000e+000  0.000000e+000  0.000000e+000
    outer loop
      vertex  5.536224e+001 -6.238625e+001  0.000000e+000
      vertex  5.536224e+001 -6.238625e+001  2.000000e+000
      vertex  5.536224e+001 -4.738625e+001  0.000000e+000
    endloop
  endfacet
  facet normal -1.000000e+000  0.000000e+000  0.000000e+000
    outer loop
      vertex  5.536224e+001 -4.738625e+001  0.000000e+000
      vertex  5.536224e+001 -6.238625e+001  2.000000e+000
      vertex  5.536224e+001 -4.738625e+001  2.000000e+000
    endloop
  endfacet
  facet normal  1.000000e+000  0.000000e+000  0.000000e+000
    outer loop
      vertex  5.316224e+001 -4.738625e+001  0.000000e+000
      vertex  5.316224e+001 -4.738625e+001  2.000000e+000
      vertex  5.316224e+001 -6.238625e+001  0.000000e+000
    endloop
  endfacet
  facet normal  1.000000e+000  0.000000e+000  0.000000e+000
    outer loop
      vertex  5.316224e+001 -6.238625e+001  0.000000e+000
      vertex  5.316224e+001 -4.738625e+001  2.000000e+000
      vertex  5.316224e+001 -6.238625e+001  2.000000e+000
    endloop
  endfacet
  facet normal  1.000000e+000  0.000000e+000  0.000000e+000
    outer loop
      vertex -1.213688e+001 -4.738625e+001  0.000000e+000
      vertex -1.213688e+001 -4.738625e+001  2.000000e+000
      vertex -1.213688e+001 -6.238625e+001  0.000000e+000
    endloop
  endfacet
  facet normal  1.000000e+000  0.000000e+000  0.000000e+000
    outer loop
      vertex -1.213688e+001 -6.238625e+001  0.000000e+000
      vertex -1.213688e+001 -4.738625e+001  2.000000e+000
      vertex -1.213688e+001 -6.238625e+001  2.000000e+000
    endloop
  endfacet
  facet normal  0.000000e+000 -1.000000e+000  -0.000000e+000
    outer loop
      vertex -9.936875e+000 -4.738625e+001  0.000000e+000
      vertex -9.936875e+000 -4.738625e+001  2.000000e+000
      vertex -1.213688e+001 -4.738625e+001  0.000000e+000
    endloop
  endfacet
  facet normal  0.000000e+000 -1.000000e+000  0.000000e+000
    outer loop
      vertex -1.213688e+001 -4.738625e+001  0.000000e+000
      vertex -9.936875e+000 -4.738625e+001  2.000000e+000
      vertex -1.213688e+001 -4.738625e+001  2.000000e+000
    endloop
  endfacet
  facet normal -1.000000e+000  0.000000e+000  0.000000e+000
    outer loop
      vertex -9.936875e+000 -6.238625e+001  0.000000e+000
      vertex -9.936875e+000 -6.238625e+001  2.000000e+000
      vertex -9.936875e+000 -4.738625e+001  0.000000e+000
    endloop
  endfacet
  facet normal -1.000000e+000  0.000000e+000  0.000000e+000
    outer loop
      vertex -9.936875e+000 -4.738625e+001  0.000000e+000
      vertex -9.936875e+000 -6.238625e+001  2.000000e+000
      vertex -9.936875e+000 -4.738625e+001  2.000000e+000
    endloop
  endfacet
  facet normal  0.000000e+000  1.000000e+000  -0.000000e+000
    outer loop
      vertex  3.080694e+001  6.815475e+001  2.000000e+000
      vertex  3.080694e+001  6.815475e+001  0.000000e+000
      vertex  1.280694e+001  6.815475e+001  2.000000e+000
    endloop
  endfacet
  facet normal  0.000000e+000  1.000000e+000  0.000000e+000
    outer loop
      vertex  1.280694e+001  6.815475e+001  2.000000e+000
      vertex  3.080694e+001  6.815475e+001  0.000000e+000
      vertex  1.280694e+001  6.815475e+001  0.000000e+000
    endloop
  endfacet
  facet normal  9.999999e-001  0.000000e+000  0.000000e+000
    outer loop
      vertex  3.080694e+001  6.815475e+001  0.000000e+000
      vertex  3.080694e+001  6.815475e+001  2.000000e+000
      vertex  3.080694e+001  3.815474e+001  0.000000e+000
    endloop
  endfacet
  facet normal  9.999999e-001  0.000000e+000  0.000000e+000
    outer loop
      vertex  3.080694e+001  3.815474e+001  0.000000e+000
      vertex  3.080694e+001  6.815475e+001  2.000000e+000
      vertex  3.080694e+001  3.815474e+001  2.000000e+000
    endloop
  endfacet
  facet normal  0.000000e+000  1.000000e+000  -0.000000e+000
    outer loop
      vertex  4.160694e+001  3.815474e+001  2.000000e+000
      vertex  4.160694e+001  3.815474e+001  0.000000e+000
      vertex  3.080694e+001  3.815474e+001  2.000000e+000
    endloop
  endfacet
  facet normal  0.000000e+000  1.000000e+000  0.000000e+000
    outer loop
      vertex  3.080694e+001  3.815474e+001  2.000000e+000
      vertex  4.160694e+001  3.815474e+001  0.000000e+000
      vertex  3.080694e+001  3.815474e+001  0.000000e+000
    endloop
  endfacet
  facet normal -9.999999e-001  0.000000e+000  0.000000e+000
    outer loop
      vertex  4.160694e+001  3.815474e+001  0.000000e+000
      vertex  4.160694e+001  3.815474e+001  2.000000e+000
      vertex  4.160694e+001  6.815475e+001  0.000000e+000
    endloop
  endfacet
  facet normal -9.999999e-001  0.000000e+000  0.000000e+000
    outer loop
      vertex  4.160694e+001  6.815475e+001  0.000000e+000
      vertex  4.160694e+001  3.815474e+001  2.000000e+000
      vertex  4.160694e+001  6.815475e+001  2.000000e+000
    endloop
  endfacet
  facet normal  0.000000e+000  1.000000e+000  -0.000000e+000
    outer loop
      vertex  5.960694e+001  6.815475e+001  2.000000e+000
      vertex  5.960694e+001  6.815475e+001  0.000000e+000
      vertex  4.160694e+001  6.815475e+001  2.000000e+000
    endloop
  endfacet
  facet normal  0.000000e+000  1.000000e+000  0.000000e+000
    outer loop
      vertex  4.160694e+001  6.815475e+001  2.000000e+000
      vertex  5.960694e+001  6.815475e+001  0.000000e+000
      vertex  4.160694e+001  6.815475e+001  0.000000e+000
    endloop
  endfacet
  facet normal  0.000000e+000  1.000000e+000  -0.000000e+000
    outer loop
      vertex -2.449470e+001  6.815475e+001  2.000000e+000
      vertex -2.449470e+001  6.815475e+001  0.000000e+000
      vertex -4.249470e+001  6.815475e+001  2.000000e+000
    endloop
  endfacet
  facet normal  0.000000e+000  1.000000e+000  0.000000e+000
    outer loop
      vertex -4.249470e+001  6.815475e+001  2.000000e+000
      vertex -2.449470e+001  6.815475e+001  0.000000e+000
      vertex -4.249470e+001  6.815475e+001  0.000000e+000
    endloop
  endfacet
  facet normal  9.999999e-001  0.000000e+000  0.000000e+000
    outer loop
      vertex -2.449470e+001  3.815474e+001  2.000000e+000
      vertex -2.449470e+001  3.815474e+001  0.000000e+000
      vertex -2.449470e+001  6.815475e+001  2.000000e+000
    endloop
  endfacet
  facet normal  9.999999e-001  0.000000e+000  0.000000e+000
    outer loop
      vertex -2.449470e+001  6.815475e+001  2.000000e+000
      vertex -2.449470e+001  3.815474e+001  0.000000e+000
      vertex -2.449470e+001  6.815475e+001  0.000000e+000
    endloop
  endfacet
  facet normal  0.000000e+000  1.000000e+000  -0.000000e+000
    outer loop
      vertex -1.369470e+001  3.815474e+001  2.000000e+000
      vertex -1.369470e+001  3.815474e+001  0.000000e+000
      vertex -2.449470e+001  3.815474e+001  2.000000e+000
    endloop
  endfacet
  facet normal  0.000000e+000  1.000000e+000  0.000000e+000
    outer loop
      vertex -2.449470e+001  3.815474e+001  2.000000e+000
      vertex -1.369470e+001  3.815474e+001  0.000000e+000
      vertex -2.449470e+001  3.815474e+001  0.000000e+000
    endloop
  endfacet
  facet normal -9.999999e-001  0.000000e+000  0.000000e+000
    outer loop
      vertex -1.369470e+001  6.815475e+001  2.000000e+000
      vertex -1.369470e+001  6.815475e+001  0.000000e+000
      vertex -1.369470e+001  3.815474e+001  2.000000e+000
    endloop
  endfacet
  facet normal -9.999999e-001  0.000000e+000  0.000000e+000
    outer loop
      vertex -1.369470e+001  3.815474e+001  2.000000e+000
      vertex -1.369470e+001  6.815475e+001  0.000000e+000
      vertex -1.369470e+001  3.815474e+001  0.000000e+000
    endloop
  endfacet
  facet normal  0.000000e+000  1.000000e+000  -0.000000e+000
    outer loop
      vertex  4.305300e+000  6.815475e+001  2.000000e+000
      vertex  4.305300e+000  6.815475e+001  0.000000e+000
      vertex -1.369470e+001  6.815475e+001  2.000000e+000
    endloop
  endfacet
  facet normal  0.000000e+000  1.000000e+000  0.000000e+000
    outer loop
      vertex -1.369470e+001  6.815475e+001  2.000000e+000
      vertex  4.305300e+000  6.815475e+001  0.000000e+000
      vertex -1.369470e+001  6.815475e+001  0.000000e+000
    endloop
  endfacet
  facet normal  4.529645e-001 -8.915285e-001  0.000000e+000
    outer loop
      vertex -4.916830e+001 -2.453907e+001  0.000000e+000
      vertex -4.916830e+001 -2.453907e+001  2.000000e+000
      vertex -5.130797e+001 -2.562619e+001  0.000000e+000
    endloop
  endfacet
  facet normal  4.529645e-001 -8.915285e-001  0.000000e+000
    outer loop
      vertex -5.130797e+001 -2.562619e+001  0.000000e+000
      vertex -4.916830e+001 -2.453907e+001  2.000000e+000
      vertex -5.130797e+001 -2.562619e+001  2.000000e+000
    endloop
  endfacet
  facet normal  8.915290e-001  4.529635e-001  0.000000e+000
    outer loop
      vertex -5.130797e+001 -2.562619e+001  0.000000e+000
      vertex -5.130797e+001 -2.562619e+001  2.000000e+000
      vertex -5.022086e+001 -2.776586e+001  0.000000e+000
    endloop
  endfacet
  facet normal  8.915290e-001  4.529635e-001  -0.000000e+000
    outer loop
      vertex -5.022086e+001 -2.776586e+001  0.000000e+000
      vertex -5.130797e+001 -2.562619e+001  2.000000e+000
      vertex -5.022086e+001 -2.776586e+001  2.000000e+000
    endloop
  endfacet
  facet normal -4.529639e-001  8.915288e-001  0.000000e+000
    outer loop
      vertex -5.022086e+001 -2.776586e+001  0.000000e+000
      vertex -5.022086e+001 -2.776586e+001  2.000000e+000
      vertex -4.808118e+001 -2.667874e+001  0.000000e+000
    endloop
  endfacet
  facet normal -4.529639e-001  8.915288e-001  0.000000e+000
    outer loop
      vertex -4.808118e+001 -2.667874e+001  0.000000e+000
      vertex -5.022086e+001 -2.776586e+001  2.000000e+000
      vertex -4.808118e+001 -2.667874e+001  2.000000e+000
    endloop
  endfacet
  facet normal -8.915283e-001 -4.529648e-001  -0.000000e+000
    outer loop
      vertex -4.808118e+001 -2.667874e+001  0.000000e+000
      vertex -4.808118e+001 -2.667874e+001  2.000000e+000
      vertex -4.916830e+001 -2.453907e+001  0.000000e+000
    endloop
  endfacet
  facet normal -8.915283e-001 -4.529648e-001  0.000000e+000
    outer loop
      vertex -4.916830e+001 -2.453907e+001  0.000000e+000
      vertex -4.808118e+001 -2.667874e+001  2.000000e+000
      vertex -4.916830e+001 -2.453907e+001  2.000000e+000
    endloop
  endfacet
  facet normal -9.896648e-001 -1.434002e-001  0.000000e+000
    outer loop
      vertex -2.140221e+001 -3.985079e+001  2.000000e+000
      vertex -2.140221e+001 -3.985079e+001  0.000000e+000
      vertex -1.813688e+001 -6.238625e+001  2.000000e+000
    endloop
  endfacet
  facet normal -9.896648e-001 -1.434002e-001  -0.000000e+000
    outer loop
      vertex -1.813688e+001 -6.238625e+001  2.000000e+000
      vertex -2.140221e+001 -3.985079e+001  0.000000e+000
      vertex -1.813688e+001 -6.238625e+001  0.000000e+000
    endloop
  endfacet
  facet normal -6.172815e-001 -7.867424e-001  0.000000e+000
    outer loop
      vertex -3.139339e+001 -3.201167e+001  2.000000e+000
      vertex -3.139339e+001 -3.201167e+001  0.000000e+000
      vertex -2.140221e+001 -3.985079e+001  2.000000e+000
    endloop
  endfacet
  facet normal -6.172815e-001 -7.867424e-001  -0.000000e+000
    outer loop
      vertex -2.140221e+001 -3.985079e+001  2.000000e+000
      vertex -3.139339e+001 -3.201167e+001  0.000000e+000
      vertex -2.140221e+001 -3.985079e+001  0.000000e+000
    endloop
  endfacet
  facet normal  3.022016e-001 -9.532441e-001  0.000000e+000
    outer loop
      vertex -5.490027e+001 -3.946392e+001  2.000000e+000
      vertex -5.490027e+001 -3.946392e+001  0.000000e+000
      vertex -3.139339e+001 -3.201167e+001  2.000000e+000
    endloop
  endfacet
  facet normal  3.022016e-001 -9.532441e-001  0.000000e+000
    outer loop
      vertex -3.139339e+001 -3.201167e+001  2.000000e+000
      vertex -5.490027e+001 -3.946392e+001  0.000000e+000
      vertex -3.139339e+001 -3.201167e+001  0.000000e+000
    endloop
  endfacet
  facet normal -6.036457e-001 -7.972528e-001  0.000000e+000
    outer loop
      vertex -6.293296e+001 -3.338192e+001  2.000000e+000
      vertex -6.293296e+001 -3.338192e+001  0.000000e+000
      vertex -5.490027e+001 -3.946392e+001  2.000000e+000
    endloop
  endfacet
  facet normal -6.036457e-001 -7.972528e-001  -0.000000e+000
    outer loop
      vertex -5.490027e+001 -3.946392e+001  2.000000e+000
      vertex -6.293296e+001 -3.338192e+001  0.000000e+000
      vertex -5.490027e+001 -3.946392e+001  0.000000e+000
    endloop
  endfacet
  facet normal -6.304040e-001  7.762673e-001  0.000000e+000
    outer loop
      vertex -5.518016e+001 -2.708590e+001  2.000000e+000
      vertex -5.518016e+001 -2.708590e+001  0.000000e+000
      vertex -6.293296e+001 -3.338192e+001  2.000000e+000
    endloop
  endfacet
  facet normal -6.304040e-001  7.762673e-001  0.000000e+000
    outer loop
      vertex -6.293296e+001 -3.338192e+001  2.000000e+000
      vertex -5.518016e+001 -2.708590e+001  0.000000e+000
      vertex -6.293296e+001 -3.338192e+001  0.000000e+000
    endloop
  endfacet
  facet normal -9.918705e-001  1.272516e-001  0.000000e+000
    outer loop
      vertex -5.518016e+001 -2.708590e+001  0.000000e+000
      vertex -5.518016e+001 -2.708590e+001  2.000000e+000
      vertex -5.470431e+001 -2.337689e+001  0.000000e+000
    endloop
  endfacet
  facet normal -9.918705e-001  1.272516e-001  0.000000e+000
    outer loop
      vertex -5.470431e+001 -2.337689e+001  0.000000e+000
      vertex -5.518016e+001 -2.708590e+001  2.000000e+000
      vertex -5.470431e+001 -2.337689e+001  2.000000e+000
    endloop
  endfacet
  facet normal -5.686674e-001  8.225676e-001  0.000000e+000
    outer loop
      vertex -5.470431e+001 -2.337689e+001  0.000000e+000
      vertex -5.470431e+001 -2.337689e+001  2.000000e+000
      vertex -4.949838e+001 -1.977786e+001  0.000000e+000
    endloop
  endfacet
  facet normal -5.686674e-001  8.225676e-001  0.000000e+000
    outer loop
      vertex -4.949838e+001 -1.977786e+001  0.000000e+000
      vertex -5.470431e+001 -2.337689e+001  2.000000e+000
      vertex -4.949838e+001 -1.977786e+001  2.000000e+000
    endloop
  endfacet
  facet normal -9.157372e-001  4.017778e-001  0.000000e+000
    outer loop
      vertex -4.949838e+001 -1.977786e+001  0.000000e+000
      vertex -4.949838e+001 -1.977786e+001  2.000000e+000
      vertex -4.852120e+001 -1.755065e+001  0.000000e+000
    endloop
  endfacet
  facet normal -9.157372e-001  4.017778e-001  0.000000e+000
    outer loop
      vertex -4.852120e+001 -1.755065e+001  0.000000e+000
      vertex -4.949838e+001 -1.977786e+001  2.000000e+000
      vertex -4.852120e+001 -1.755065e+001  2.000000e+000
    endloop
  endfacet
  facet normal -9.364161e-003  9.999561e-001  0.000000e+000
    outer loop
      vertex -4.597320e+001 -1.752679e+001  2.000000e+000
      vertex -4.597320e+001 -1.752679e+001  0.000000e+000
      vertex -4.852120e+001 -1.755065e+001  2.000000e+000
    endloop
  endfacet
  facet normal -9.364161e-003  9.999561e-001  0.000000e+000
    outer loop
      vertex -4.852120e+001 -1.755065e+001  2.000000e+000
      vertex -4.597320e+001 -1.752679e+001  0.000000e+000
      vertex -4.852120e+001 -1.755065e+001  0.000000e+000
    endloop
  endfacet
  facet normal -3.914242e-001  9.202103e-001  0.000000e+000
    outer loop
      vertex -3.355206e+001 -1.224329e+001  2.000000e+000
      vertex -3.355206e+001 -1.224329e+001  0.000000e+000
      vertex -4.597320e+001 -1.752679e+001  2.000000e+000
    endloop
  endfacet
  facet normal -3.914242e-001  9.202103e-001  0.000000e+000
    outer loop
      vertex -4.597320e+001 -1.752679e+001  2.000000e+000
      vertex -3.355206e+001 -1.224329e+001  0.000000e+000
      vertex -4.597320e+001 -1.752679e+001  0.000000e+000
    endloop
  endfacet
  facet normal -3.265990e-001  9.451630e-001  0.000000e+000
    outer loop
      vertex -2.018398e+001 -7.623980e+000  2.000000e+000
      vertex -2.018398e+001 -7.623980e+000  0.000000e+000
      vertex -3.355206e+001 -1.224329e+001  2.000000e+000
    endloop
  endfacet
  facet normal -3.265990e-001  9.451630e-001  0.000000e+000
    outer loop
      vertex -3.355206e+001 -1.224329e+001  2.000000e+000
      vertex -2.018398e+001 -7.623980e+000  0.000000e+000
      vertex -3.355206e+001 -1.224329e+001  0.000000e+000
    endloop
  endfacet
  facet normal  9.670595e-002  9.953130e-001  0.000000e+000
    outer loop
      vertex -2.018398e+001 -7.623980e+000  0.000000e+000
      vertex -2.018398e+001 -7.623980e+000  2.000000e+000
      vertex -4.292843e+000 -9.167984e+000  0.000000e+000
    endloop
  endfacet
  facet normal  9.670595e-002  9.953130e-001  -0.000000e+000
    outer loop
      vertex -4.292843e+000 -9.167984e+000  0.000000e+000
      vertex -2.018398e+001 -7.623980e+000  2.000000e+000
      vertex -4.292843e+000 -9.167984e+000  2.000000e+000
    endloop
  endfacet
  facet normal -2.111426e-001  9.774553e-001  0.000000e+000
    outer loop
      vertex -4.292843e+000 -9.167984e+000  0.000000e+000
      vertex -4.292843e+000 -9.167984e+000  2.000000e+000
      vertex  2.726852e+001 -2.350334e+000  0.000000e+000
    endloop
  endfacet
  facet normal -2.111426e-001  9.774553e-001  0.000000e+000
    outer loop
      vertex  2.726852e+001 -2.350334e+000  0.000000e+000
      vertex -4.292843e+000 -9.167984e+000  2.000000e+000
      vertex  2.726852e+001 -2.350334e+000  2.000000e+000
    endloop
  endfacet
  facet normal  3.143247e-001  9.493155e-001  -0.000000e+000
    outer loop
      vertex  6.496223e+001 -1.483097e+001  2.000000e+000
      vertex  6.496223e+001 -1.483097e+001  0.000000e+000
      vertex  2.726852e+001 -2.350334e+000  2.000000e+000
    endloop
  endfacet
  facet normal  3.143247e-001  9.493155e-001  0.000000e+000
    outer loop
      vertex  2.726852e+001 -2.350334e+000  2.000000e+000
      vertex  6.496223e+001 -1.483097e+001  0.000000e+000
      vertex  2.726852e+001 -2.350334e+000  0.000000e+000
    endloop
  endfacet
  facet normal  1.000000e+000  0.000000e+000  0.000000e+000
    outer loop
      vertex  6.496223e+001 -1.483097e+001  0.000000e+000
      vertex  6.496223e+001 -1.483097e+001  2.000000e+000
      vertex  6.496223e+001 -2.923097e+001  0.000000e+000
    endloop
  endfacet
  facet normal  1.000000e+000  0.000000e+000  0.000000e+000
    outer loop
      vertex  6.496223e+001 -2.923097e+001  0.000000e+000
      vertex  6.496223e+001 -1.483097e+001  2.000000e+000
      vertex  6.496223e+001 -2.923097e+001  2.000000e+000
    endloop
  endfacet
  facet normal  0.000000e+000 -1.000000e+000  -0.000000e+000
    outer loop
      vertex  6.496223e+001 -2.923097e+001  0.000000e+000
      vertex  6.496223e+001 -2.923097e+001  2.000000e+000
      vertex  6.256224e+001 -2.923097e+001  0.000000e+000
    endloop
  endfacet
  facet normal  0.000000e+000 -1.000000e+000  0.000000e+000
    outer loop
      vertex  6.256224e+001 -2.923097e+001  0.000000e+000
      vertex  6.496223e+001 -2.923097e+001  2.000000e+000
      vertex  6.256224e+001 -2.923097e+001  2.000000e+000
    endloop
  endfacet
  facet normal -9.999999e-001  0.000000e+000  0.000000e+000
    outer loop
      vertex  6.256224e+001 -2.923097e+001  0.000000e+000
      vertex  6.256224e+001 -2.923097e+001  2.000000e+000
      vertex  6.256224e+001 -1.768970e+001  0.000000e+000
    endloop
  endfacet
  facet normal -9.999999e-001  0.000000e+000  0.000000e+000
    outer loop
      vertex  6.256224e+001 -1.768970e+001  0.000000e+000
      vertex  6.256224e+001 -2.923097e+001  2.000000e+000
      vertex  6.256224e+001 -1.768970e+001  2.000000e+000
    endloop
  endfacet
  facet normal  0.000000e+000 -9.999999e-001  0.000000e+000
    outer loop
      vertex  6.136224e+001 -1.768970e+001  0.000000e+000
      vertex  6.256224e+001 -1.768970e+001  0.000000e+000
      vertex  6.136224e+001 -1.768970e+001  2.000000e+000
    endloop
  endfacet
  facet normal  0.000000e+000 -9.999999e-001  0.000000e+000
    outer loop
      vertex  6.136224e+001 -1.768970e+001  2.000000e+000
      vertex  6.256224e+001 -1.768970e+001  0.000000e+000
      vertex  6.256224e+001 -1.768970e+001  2.000000e+000
    endloop
  endfacet
  facet normal  9.999999e-001  0.000000e+000  0.000000e+000
    outer loop
      vertex  6.136224e+001 -6.238625e+001  2.000000e+000
      vertex  6.136224e+001 -6.238625e+001  0.000000e+000
      vertex  6.136224e+001 -1.768970e+001  2.000000e+000
    endloop
  endfacet
  facet normal  9.999999e-001  0.000000e+000  0.000000e+000
    outer loop
      vertex  6.136224e+001 -1.768970e+001  2.000000e+000
      vertex  6.136224e+001 -6.238625e+001  0.000000e+000
      vertex  6.136224e+001 -1.768970e+001  0.000000e+000
    endloop
  endfacet
endsolid CATIA STL
