solid CATIA STL
  facet normal  0.000000e+000  0.000000e+000  1.000000e+000
    outer loop
      vertex  4.300510e+001 -4.079668e+001  2.000000e+000
      vertex  4.251622e+001 -3.969976e+001  2.000000e+000
      vertex  4.181079e+001 -3.999667e+001  2.000000e+000
    endloop
  endfacet
  facet normal  -0.000000e+000  0.000000e+000  1.000000e+000
    outer loop
      vertex  4.280508e+001 -3.899100e+001  2.000000e+000
      vertex  4.251622e+001 -3.969976e+001  2.000000e+000
      vertex  4.300510e+001 -4.079668e+001  2.000000e+000
    endloop
  endfacet
  facet normal  0.000000e+000  -0.000000e+000  1.000000e+000
    outer loop
      vertex  4.280508e+001 -3.899100e+001  2.000000e+000
      vertex  4.300510e+001 -4.079668e+001  2.000000e+000
      vertex  4.300510e+001 -3.719669e+001  2.000000e+000
    endloop
  endfacet
  facet normal  0.000000e+000  0.000000e+000  1.000000e+000
    outer loop
      vertex  4.280508e+001 -3.899100e+001  2.000000e+000
      vertex  4.300510e+001 -3.719669e+001  2.000000e+000
      vertex  4.250817e+001 -3.828557e+001  2.000000e+000
    endloop
  endfacet
  facet normal  0.000000e+000  0.000000e+000  1.000000e+000
    outer loop
      vertex -5.311356e+001 -1.337973e+001  2.000000e+000
      vertex -5.957423e+001 -1.862641e+001  2.000000e+000
      vertex -4.898081e+001 -1.394636e+001  2.000000e+000
    endloop
  endfacet
  facet normal  0.000000e+000  0.000000e+000  9.999999e-001
    outer loop
      vertex -5.311356e+001 -1.337973e+001  2.000000e+000
      vertex -4.898081e+001 -1.394636e+001  2.000000e+000
      vertex -4.988674e+001 -1.216330e+001  2.000000e+000
    endloop
  endfacet
  facet normal  0.000000e+000  0.000000e+000  9.999999e-001
    outer loop
      vertex -5.311356e+001 -1.337973e+001  2.000000e+000
      vertex -4.988674e+001 -1.216330e+001  2.000000e+000
      vertex -5.271703e+001 -1.028889e+001  2.000000e+000
    endloop
  endfacet
  facet normal  0.000000e+000  0.000000e+000  1.000000e+000
    outer loop
      vertex -1.070747e+001  1.551870e+000  2.000000e+000
      vertex -2.395008e+001  2.838541e+000  2.000000e+000
      vertex -3.509015e+001 -1.010884e+000  2.000000e+000
    endloop
  endfacet
  facet normal  -0.000000e+000  0.000000e+000  1.000000e+000
    outer loop
      vertex -1.070747e+001  1.551870e+000  2.000000e+000
      vertex -3.509015e+001 -1.010884e+000  2.000000e+000
      vertex -4.544110e+001 -5.413804e+000  2.000000e+000
    endloop
  endfacet
  facet normal  -0.000000e+000  0.000000e+000  1.000000e+000
    outer loop
      vertex -1.070747e+001  1.551870e+000  2.000000e+000
      vertex -4.544110e+001 -5.413804e+000  2.000000e+000
      vertex  3.580510e+001 -2.779669e+001  2.000000e+000
    endloop
  endfacet
  facet normal  0.000000e+000  -0.000000e+000  1.000000e+000
    outer loop
      vertex -1.070747e+001  1.551870e+000  2.000000e+000
      vertex  3.580510e+001 -2.779669e+001  2.000000e+000
      vertex  3.800510e+001 -2.779669e+001  2.000000e+000
    endloop
  endfacet
  facet normal  0.000000e+000  0.000000e+000  1.000000e+000
    outer loop
      vertex -1.070747e+001  1.551870e+000  2.000000e+000
      vertex  3.800510e+001 -2.779669e+001  2.000000e+000
      vertex  1.559367e+001  7.233245e+000  2.000000e+000
    endloop
  endfacet
  facet normal  0.000000e+000  -0.000000e+000  1.000000e+000
    outer loop
      vertex  4.400510e+001 -5.549560e+000  2.000000e+000
      vertex  4.500510e+001 -5.549560e+000  2.000000e+000
      vertex  4.700510e+001 -3.167288e+000  2.000000e+000
    endloop
  endfacet
  facet normal  0.000000e+000  0.000000e+000  9.999999e-001
    outer loop
      vertex  4.400510e+001 -5.549560e+000  2.000000e+000
      vertex  4.700510e+001 -3.167288e+000  2.000000e+000
      vertex  1.559367e+001  7.233245e+000  2.000000e+000
    endloop
  endfacet
  facet normal  0.000000e+000  0.000000e+000  1.000000e+000
    outer loop
      vertex  4.400510e+001 -5.549560e+000  2.000000e+000
      vertex  1.559367e+001  7.233245e+000  2.000000e+000
      vertex  3.800510e+001 -2.779669e+001  2.000000e+000
    endloop
  endfacet
  facet normal  -0.000000e+000  0.000000e+000  1.000000e+000
    outer loop
      vertex  4.400510e+001 -5.549560e+000  2.000000e+000
      vertex  3.800510e+001 -2.779669e+001  2.000000e+000
      vertex  3.900510e+001 -3.619669e+001  2.000000e+000
    endloop
  endfacet
  facet normal  0.000000e+000  0.000000e+000  9.999999e-001
    outer loop
      vertex  4.400510e+001 -5.549560e+000  2.000000e+000
      vertex  3.900510e+001 -3.619669e+001  2.000000e+000
      vertex  4.300510e+001 -3.619669e+001  2.000000e+000
    endloop
  endfacet
  facet normal  -0.000000e+000  0.000000e+000  1.000000e+000
    outer loop
      vertex  4.400510e+001 -5.549560e+000  2.000000e+000
      vertex  4.300510e+001 -3.619669e+001  2.000000e+000
      vertex  4.300510e+001 -3.719669e+001  2.000000e+000
    endloop
  endfacet
  facet normal  -0.000000e+000  0.000000e+000  1.000000e+000
    outer loop
      vertex  4.400510e+001 -5.549560e+000  2.000000e+000
      vertex  4.300510e+001 -3.719669e+001  2.000000e+000
      vertex  4.300510e+001 -4.079668e+001  2.000000e+000
    endloop
  endfacet
  facet normal  -0.000000e+000  0.000000e+000  1.000000e+000
    outer loop
      vertex  4.400510e+001 -5.549560e+000  2.000000e+000
      vertex  4.300510e+001 -4.079668e+001  2.000000e+000
      vertex  4.300510e+001 -4.179668e+001  2.000000e+000
    endloop
  endfacet
  facet normal  -0.000000e+000  0.000000e+000  1.000000e+000
    outer loop
      vertex  4.400510e+001 -5.549560e+000  2.000000e+000
      vertex  4.300510e+001 -4.179668e+001  2.000000e+000
      vertex  4.400510e+001 -4.279668e+001  2.000000e+000
    endloop
  endfacet
  facet normal  0.000000e+000  0.000000e+000  1.000000e+000
    outer loop
      vertex  4.000510e+001 -3.719669e+001  2.000000e+000
      vertex  4.000510e+001 -4.079668e+001  2.000000e+000
      vertex  4.080511e+001 -3.900237e+001  2.000000e+000
    endloop
  endfacet
  facet normal  0.000000e+000  -0.000000e+000  1.000000e+000
    outer loop
      vertex  4.000510e+001 -3.719669e+001  2.000000e+000
      vertex  4.080511e+001 -3.900237e+001  2.000000e+000
      vertex  4.109398e+001 -3.829361e+001  2.000000e+000
    endloop
  endfacet
  facet normal  0.000000e+000  -0.000000e+000  1.000000e+000
    outer loop
      vertex  4.000510e+001 -3.719669e+001  2.000000e+000
      vertex  4.109398e+001 -3.829361e+001  2.000000e+000
      vertex  4.179941e+001 -3.799670e+001  2.000000e+000
    endloop
  endfacet
  facet normal  -0.000000e+000  -0.000000e+000  1.000000e+000
    outer loop
      vertex  4.000510e+001 -3.719669e+001  2.000000e+000
      vertex  4.179941e+001 -3.799670e+001  2.000000e+000
      vertex  4.250817e+001 -3.828557e+001  2.000000e+000
    endloop
  endfacet
  facet normal  0.000000e+000  -0.000000e+000  1.000000e+000
    outer loop
      vertex  4.000510e+001 -3.719669e+001  2.000000e+000
      vertex  4.250817e+001 -3.828557e+001  2.000000e+000
      vertex  4.300510e+001 -3.719669e+001  2.000000e+000
    endloop
  endfacet
  facet normal  0.000000e+000  0.000000e+000  1.000000e+000
    outer loop
      vertex  3.580510e+001 -2.779669e+001  2.000000e+000
      vertex -4.544110e+001 -5.413804e+000  2.000000e+000
      vertex -4.756443e+001 -5.433688e+000  2.000000e+000
    endloop
  endfacet
  facet normal  0.000000e+000  0.000000e+000  1.000000e+000
    outer loop
      vertex  3.580510e+001 -2.779669e+001  2.000000e+000
      vertex -4.756443e+001 -5.433688e+000  2.000000e+000
      vertex -4.837875e+001 -7.289696e+000  2.000000e+000
    endloop
  endfacet
  facet normal  0.000000e+000  0.000000e+000  1.000000e+000
    outer loop
      vertex  3.580510e+001 -2.779669e+001  2.000000e+000
      vertex -4.837875e+001 -7.289696e+000  2.000000e+000
      vertex -4.810368e+001 -1.125737e+001  2.000000e+000
    endloop
  endfacet
  facet normal  0.000000e+000  0.000000e+000  1.000000e+000
    outer loop
      vertex  3.580510e+001 -2.779669e+001  2.000000e+000
      vertex -4.810368e+001 -1.125737e+001  2.000000e+000
      vertex -4.719775e+001 -1.304043e+001  2.000000e+000
    endloop
  endfacet
  facet normal  0.000000e+000  0.000000e+000  1.000000e+000
    outer loop
      vertex  3.580510e+001 -2.779669e+001  2.000000e+000
      vertex -4.719775e+001 -1.304043e+001  2.000000e+000
      vertex -3.329126e+001 -1.748453e+001  2.000000e+000
    endloop
  endfacet
  facet normal  0.000000e+000  0.000000e+000  1.000000e+000
    outer loop
      vertex  3.580510e+001 -2.779669e+001  2.000000e+000
      vertex -3.329126e+001 -1.748453e+001  2.000000e+000
      vertex -2.496528e+001 -2.401713e+001  2.000000e+000
    endloop
  endfacet
  facet normal  0.000000e+000  0.000000e+000  1.000000e+000
    outer loop
      vertex  3.580510e+001 -2.779669e+001  2.000000e+000
      vertex -2.496528e+001 -2.401713e+001  2.000000e+000
      vertex -1.504416e+001 -2.779669e+001  2.000000e+000
    endloop
  endfacet
  facet normal  -0.000000e+000  0.000000e+000  1.000000e+000
    outer loop
      vertex  3.580510e+001 -2.779669e+001  2.000000e+000
      vertex -1.504416e+001 -2.779669e+001  2.000000e+000
      vertex -1.504416e+001 -4.279668e+001  2.000000e+000
    endloop
  endfacet
  facet normal  0.000000e+000  0.000000e+000  1.000000e+000
    outer loop
      vertex  3.580510e+001 -2.779669e+001  2.000000e+000
      vertex -1.504416e+001 -4.279668e+001  2.000000e+000
      vertex  3.580510e+001 -4.279668e+001  2.000000e+000
    endloop
  endfacet
  facet normal  0.000000e+000  0.000000e+000  1.000000e+000
    outer loop
      vertex  4.400510e+001 -4.279668e+001  2.000000e+000
      vertex  4.300510e+001 -4.179668e+001  2.000000e+000
      vertex  3.800510e+001 -4.279668e+001  2.000000e+000
    endloop
  endfacet
  facet normal  0.000000e+000  0.000000e+000  1.000000e+000
    outer loop
      vertex  3.800510e+001 -4.279668e+001  2.000000e+000
      vertex  4.300510e+001 -4.179668e+001  2.000000e+000
      vertex  3.900510e+001 -4.179668e+001  2.000000e+000
    endloop
  endfacet
  facet normal  0.000000e+000  0.000000e+000  1.000000e+000
    outer loop
      vertex  3.800510e+001 -4.279668e+001  2.000000e+000
      vertex  3.900510e+001 -4.179668e+001  2.000000e+000
      vertex  3.800510e+001 -2.779669e+001  2.000000e+000
    endloop
  endfacet
  facet normal  0.000000e+000  0.000000e+000  1.000000e+000
    outer loop
      vertex  3.800510e+001 -2.779669e+001  2.000000e+000
      vertex  3.900510e+001 -4.179668e+001  2.000000e+000
      vertex  3.900510e+001 -3.619669e+001  2.000000e+000
    endloop
  endfacet
  facet normal  0.000000e+000  0.000000e+000  1.000000e+000
    outer loop
      vertex  4.300510e+001 -4.079668e+001  2.000000e+000
      vertex  4.181079e+001 -3.999667e+001  2.000000e+000
      vertex  4.000510e+001 -4.079668e+001  2.000000e+000
    endloop
  endfacet
  facet normal  0.000000e+000  0.000000e+000  1.000000e+000
    outer loop
      vertex  4.000510e+001 -4.079668e+001  2.000000e+000
      vertex  4.181079e+001 -3.999667e+001  2.000000e+000
      vertex  4.110202e+001 -3.970780e+001  2.000000e+000
    endloop
  endfacet
  facet normal  0.000000e+000  0.000000e+000  1.000000e+000
    outer loop
      vertex  4.000510e+001 -4.079668e+001  2.000000e+000
      vertex  4.110202e+001 -3.970780e+001  2.000000e+000
      vertex  4.080511e+001 -3.900237e+001  2.000000e+000
    endloop
  endfacet
  facet normal  0.000000e+000  0.000000e+000  1.000000e+000
    outer loop
      vertex -3.329126e+001 -1.748453e+001  2.000000e+000
      vertex -4.719775e+001 -1.304043e+001  2.000000e+000
      vertex -5.288033e+001 -2.369475e+001  2.000000e+000
    endloop
  endfacet
  facet normal  0.000000e+000  0.000000e+000  1.000000e+000
    outer loop
      vertex -5.288033e+001 -2.369475e+001  2.000000e+000
      vertex -4.719775e+001 -1.304043e+001  2.000000e+000
      vertex -4.898081e+001 -1.394636e+001  2.000000e+000
    endloop
  endfacet
  facet normal  0.000000e+000  0.000000e+000  1.000000e+000
    outer loop
      vertex -5.288033e+001 -2.369475e+001  2.000000e+000
      vertex -4.898081e+001 -1.394636e+001  2.000000e+000
      vertex -5.957423e+001 -1.862641e+001  2.000000e+000
    endloop
  endfacet
  facet normal  -0.000000e+000  0.000000e+000  1.000000e+000
    outer loop
      vertex -4.837875e+001 -7.289696e+000  2.000000e+000
      vertex -5.271703e+001 -1.028889e+001  2.000000e+000
      vertex -4.810368e+001 -1.125737e+001  2.000000e+000
    endloop
  endfacet
  facet normal  0.000000e+000  0.000000e+000  1.000000e+000
    outer loop
      vertex -4.810368e+001 -1.125737e+001  2.000000e+000
      vertex -5.271703e+001 -1.028889e+001  2.000000e+000
      vertex -4.988674e+001 -1.216330e+001  2.000000e+000
    endloop
  endfacet
  facet normal  0.000000e+000  0.000000e+000  1.000000e+000
    outer loop
      vertex -2.224416e+001 -4.279668e+001  2.000000e+000
      vertex -1.724416e+001 -4.279668e+001  2.000000e+000
      vertex -2.496528e+001 -2.401713e+001  2.000000e+000
    endloop
  endfacet
  facet normal  0.000000e+000  0.000000e+000  1.000000e+000
    outer loop
      vertex -2.496528e+001 -2.401713e+001  2.000000e+000
      vertex -1.724416e+001 -4.279668e+001  2.000000e+000
      vertex -1.724416e+001 -2.779669e+001  2.000000e+000
    endloop
  endfacet
  facet normal  0.000000e+000  -0.000000e+000  1.000000e+000
    outer loop
      vertex -2.496528e+001 -2.401713e+001  2.000000e+000
      vertex -1.724416e+001 -2.779669e+001  2.000000e+000
      vertex -1.504416e+001 -2.779669e+001  2.000000e+000
    endloop
  endfacet
  facet normal  0.000000e+000  0.000000e+000  1.000000e+000
    outer loop
      vertex  4.500510e+001 -1.516729e+001  2.000000e+000
      vertex  4.700510e+001 -1.516729e+001  2.000000e+000
      vertex  4.500510e+001 -5.549560e+000  2.000000e+000
    endloop
  endfacet
  facet normal  -0.000000e+000  0.000000e+000  1.000000e+000
    outer loop
      vertex  4.500510e+001 -5.549560e+000  2.000000e+000
      vertex  4.700510e+001 -1.516729e+001  2.000000e+000
      vertex  4.700510e+001 -3.167288e+000  2.000000e+000
    endloop
  endfacet
  facet normal  1.000000e+000  0.000000e+000  0.000000e+000
    outer loop
      vertex  4.300510e+001 -3.619669e+001  2.000000e+000
      vertex  4.300510e+001 -3.619669e+001  2.430000e+000
      vertex  4.300510e+001 -3.719669e+001  2.000000e+000
    endloop
  endfacet
  facet normal  1.000000e+000  0.000000e+000  0.000000e+000
    outer loop
      vertex  4.300510e+001 -3.719669e+001  2.000000e+000
      vertex  4.300510e+001 -3.619669e+001  2.430000e+000
      vertex  4.300510e+001 -3.719669e+001  2.430000e+000
    endloop
  endfacet
  facet normal  0.000000e+000 -1.000000e+000  -0.000000e+000
    outer loop
      vertex  4.300510e+001 -3.719669e+001  2.000000e+000
      vertex  4.300510e+001 -3.719669e+001  2.430000e+000
      vertex  4.000510e+001 -3.719669e+001  2.000000e+000
    endloop
  endfacet
  facet normal  0.000000e+000 -1.000000e+000  0.000000e+000
    outer loop
      vertex  4.000510e+001 -3.719669e+001  2.000000e+000
      vertex  4.300510e+001 -3.719669e+001  2.430000e+000
      vertex  4.000510e+001 -3.719669e+001  2.430000e+000
    endloop
  endfacet
  facet normal  9.999999e-001  0.000000e+000  0.000000e+000
    outer loop
      vertex  4.000510e+001 -3.719669e+001  2.000000e+000
      vertex  4.000510e+001 -3.719669e+001  2.430000e+000
      vertex  4.000510e+001 -4.079668e+001  2.000000e+000
    endloop
  endfacet
  facet normal  9.999999e-001  0.000000e+000  0.000000e+000
    outer loop
      vertex  4.000510e+001 -4.079668e+001  2.000000e+000
      vertex  4.000510e+001 -3.719669e+001  2.430000e+000
      vertex  4.000510e+001 -4.079668e+001  2.430000e+000
    endloop
  endfacet
  facet normal  0.000000e+000  1.000000e+000  0.000000e+000
    outer loop
      vertex  4.000510e+001 -4.079668e+001  2.000000e+000
      vertex  4.000510e+001 -4.079668e+001  2.430000e+000
      vertex  4.300510e+001 -4.079668e+001  2.000000e+000
    endloop
  endfacet
  facet normal  0.000000e+000  1.000000e+000  -0.000000e+000
    outer loop
      vertex  4.300510e+001 -4.079668e+001  2.000000e+000
      vertex  4.000510e+001 -4.079668e+001  2.430000e+000
      vertex  4.300510e+001 -4.079668e+001  2.430000e+000
    endloop
  endfacet
  facet normal  1.000000e+000  0.000000e+000  0.000000e+000
    outer loop
      vertex  4.300510e+001 -4.079668e+001  2.000000e+000
      vertex  4.300510e+001 -4.079668e+001  2.430000e+000
      vertex  4.300510e+001 -4.179668e+001  2.000000e+000
    endloop
  endfacet
  facet normal  1.000000e+000  0.000000e+000  0.000000e+000
    outer loop
      vertex  4.300510e+001 -4.179668e+001  2.000000e+000
      vertex  4.300510e+001 -4.079668e+001  2.430000e+000
      vertex  4.300510e+001 -4.179668e+001  2.430000e+000
    endloop
  endfacet
  facet normal  0.000000e+000 -1.000000e+000  -0.000000e+000
    outer loop
      vertex  4.300510e+001 -4.179668e+001  2.000000e+000
      vertex  4.300510e+001 -4.179668e+001  2.430000e+000
      vertex  3.900510e+001 -4.179668e+001  2.000000e+000
    endloop
  endfacet
  facet normal  0.000000e+000 -1.000000e+000  0.000000e+000
    outer loop
      vertex  3.900510e+001 -4.179668e+001  2.000000e+000
      vertex  4.300510e+001 -4.179668e+001  2.430000e+000
      vertex  3.900510e+001 -4.179668e+001  2.430000e+000
    endloop
  endfacet
  facet normal -1.000000e+000  0.000000e+000  0.000000e+000
    outer loop
      vertex  3.900510e+001 -4.179668e+001  2.000000e+000
      vertex  3.900510e+001 -4.179668e+001  2.430000e+000
      vertex  3.900510e+001 -3.619669e+001  2.000000e+000
    endloop
  endfacet
  facet normal -1.000000e+000  0.000000e+000  0.000000e+000
    outer loop
      vertex  3.900510e+001 -3.619669e+001  2.000000e+000
      vertex  3.900510e+001 -4.179668e+001  2.430000e+000
      vertex  3.900510e+001 -3.619669e+001  2.430000e+000
    endloop
  endfacet
  facet normal  0.000000e+000  1.000000e+000  0.000000e+000
    outer loop
      vertex  3.900510e+001 -3.619669e+001  2.000000e+000
      vertex  3.900510e+001 -3.619669e+001  2.430000e+000
      vertex  4.300510e+001 -3.619669e+001  2.000000e+000
    endloop
  endfacet
  facet normal  0.000000e+000  1.000000e+000  -0.000000e+000
    outer loop
      vertex  4.300510e+001 -3.619669e+001  2.000000e+000
      vertex  3.900510e+001 -3.619669e+001  2.430000e+000
      vertex  4.300510e+001 -3.619669e+001  2.430000e+000
    endloop
  endfacet
  facet normal  9.260420e-001 -3.774205e-001  0.000000e+000
    outer loop
      vertex  4.280508e+001 -3.899100e+001  2.000000e+000
      vertex  4.280508e+001 -3.899100e+001  2.430000e+000
      vertex  4.251622e+001 -3.969976e+001  2.000000e+000
    endloop
  endfacet
  facet normal  9.260420e-001 -3.774205e-001  0.000000e+000
    outer loop
      vertex  4.251622e+001 -3.969976e+001  2.000000e+000
      vertex  4.280508e+001 -3.899100e+001  2.430000e+000
      vertex  4.251622e+001 -3.969976e+001  2.430000e+000
    endloop
  endfacet
  facet normal  3.879353e-001 -9.216866e-001  0.000000e+000
    outer loop
      vertex  4.251622e+001 -3.969976e+001  2.000000e+000
      vertex  4.251622e+001 -3.969976e+001  2.430000e+000
      vertex  4.181079e+001 -3.999667e+001  2.000000e+000
    endloop
  endfacet
  facet normal  3.879353e-001 -9.216866e-001  0.000000e+000
    outer loop
      vertex  4.181079e+001 -3.999667e+001  2.000000e+000
      vertex  4.251622e+001 -3.969976e+001  2.430000e+000
      vertex  4.181079e+001 -3.999667e+001  2.430000e+000
    endloop
  endfacet
  facet normal -3.774231e-001 -9.260409e-001  -0.000000e+000
    outer loop
      vertex  4.181079e+001 -3.999667e+001  2.000000e+000
      vertex  4.181079e+001 -3.999667e+001  2.430000e+000
      vertex  4.110202e+001 -3.970780e+001  2.000000e+000
    endloop
  endfacet
  facet normal -3.774231e-001 -9.260409e-001  0.000000e+000
    outer loop
      vertex  4.110202e+001 -3.970780e+001  2.000000e+000
      vertex  4.181079e+001 -3.999667e+001  2.430000e+000
      vertex  4.110202e+001 -3.970780e+001  2.430000e+000
    endloop
  endfacet
  facet normal -9.216884e-001 -3.879311e-001  -0.000000e+000
    outer loop
      vertex  4.110202e+001 -3.970780e+001  2.000000e+000
      vertex  4.110202e+001 -3.970780e+001  2.430000e+000
      vertex  4.080511e+001 -3.900237e+001  2.000000e+000
    endloop
  endfacet
  facet normal -9.216884e-001 -3.879311e-001  0.000000e+000
    outer loop
      vertex  4.080511e+001 -3.900237e+001  2.000000e+000
      vertex  4.110202e+001 -3.970780e+001  2.430000e+000
      vertex  4.080511e+001 -3.900237e+001  2.430000e+000
    endloop
  endfacet
  facet normal -9.260420e-001  3.774205e-001  0.000000e+000
    outer loop
      vertex  4.080511e+001 -3.900237e+001  2.000000e+000
      vertex  4.080511e+001 -3.900237e+001  2.430000e+000
      vertex  4.109398e+001 -3.829361e+001  2.000000e+000
    endloop
  endfacet
  facet normal -9.260420e-001  3.774205e-001  0.000000e+000
    outer loop
      vertex  4.109398e+001 -3.829361e+001  2.000000e+000
      vertex  4.080511e+001 -3.900237e+001  2.430000e+000
      vertex  4.109398e+001 -3.829361e+001  2.430000e+000
    endloop
  endfacet
  facet normal -3.879353e-001  9.216866e-001  0.000000e+000
    outer loop
      vertex  4.109398e+001 -3.829361e+001  2.000000e+000
      vertex  4.109398e+001 -3.829361e+001  2.430000e+000
      vertex  4.179941e+001 -3.799670e+001  2.000000e+000
    endloop
  endfacet
  facet normal -3.879353e-001  9.216866e-001  0.000000e+000
    outer loop
      vertex  4.179941e+001 -3.799670e+001  2.000000e+000
      vertex  4.109398e+001 -3.829361e+001  2.430000e+000
      vertex  4.179941e+001 -3.799670e+001  2.430000e+000
    endloop
  endfacet
  facet normal  3.774231e-001  9.260409e-001  0.000000e+000
    outer loop
      vertex  4.179941e+001 -3.799670e+001  2.000000e+000
      vertex  4.179941e+001 -3.799670e+001  2.430000e+000
      vertex  4.250817e+001 -3.828557e+001  2.000000e+000
    endloop
  endfacet
  facet normal  3.774231e-001  9.260409e-001  -0.000000e+000
    outer loop
      vertex  4.250817e+001 -3.828557e+001  2.000000e+000
      vertex  4.179941e+001 -3.799670e+001  2.430000e+000
      vertex  4.250817e+001 -3.828557e+001  2.430000e+000
    endloop
  endfacet
  facet normal  9.216884e-001  3.879311e-001  0.000000e+000
    outer loop
      vertex  4.250817e+001 -3.828557e+001  2.000000e+000
      vertex  4.250817e+001 -3.828557e+001  2.430000e+000
      vertex  4.280508e+001 -3.899100e+001  2.000000e+000
    endloop
  endfacet
  facet normal  9.216884e-001  3.879311e-001  -0.000000e+000
    outer loop
      vertex  4.280508e+001 -3.899100e+001  2.000000e+000
      vertex  4.250817e+001 -3.828557e+001  2.430000e+000
      vertex  4.280508e+001 -3.899100e+001  2.430000e+000
    endloop
  endfacet
  facet normal  0.000000e+000  0.000000e+000  1.000000e+000
    outer loop
      vertex  4.300510e+001 -4.179668e+001  2.430000e+000
      vertex  4.300510e+001 -4.079668e+001  2.430000e+000
      vertex  3.900510e+001 -4.179668e+001  2.430000e+000
    endloop
  endfacet
  facet normal  0.000000e+000  0.000000e+000  1.000000e+000
    outer loop
      vertex  3.900510e+001 -4.179668e+001  2.430000e+000
      vertex  4.300510e+001 -4.079668e+001  2.430000e+000
      vertex  4.000510e+001 -4.079668e+001  2.430000e+000
    endloop
  endfacet
  facet normal  0.000000e+000  0.000000e+000  1.000000e+000
    outer loop
      vertex  3.900510e+001 -4.179668e+001  2.430000e+000
      vertex  4.000510e+001 -4.079668e+001  2.430000e+000
      vertex  3.900510e+001 -3.619669e+001  2.430000e+000
    endloop
  endfacet
  facet normal  0.000000e+000  0.000000e+000  1.000000e+000
    outer loop
      vertex  3.900510e+001 -3.619669e+001  2.430000e+000
      vertex  4.000510e+001 -4.079668e+001  2.430000e+000
      vertex  4.000510e+001 -3.719669e+001  2.430000e+000
    endloop
  endfacet
  facet normal  0.000000e+000  -0.000000e+000  1.000000e+000
    outer loop
      vertex  3.900510e+001 -3.619669e+001  2.430000e+000
      vertex  4.000510e+001 -3.719669e+001  2.430000e+000
      vertex  4.300510e+001 -3.619669e+001  2.430000e+000
    endloop
  endfacet
  facet normal  0.000000e+000  0.000000e+000  1.000000e+000
    outer loop
      vertex  4.300510e+001 -3.619669e+001  2.430000e+000
      vertex  4.000510e+001 -3.719669e+001  2.430000e+000
      vertex  4.300510e+001 -3.719669e+001  2.430000e+000
    endloop
  endfacet
  facet normal  0.000000e+000  0.000000e+000  1.000000e+000
    outer loop
      vertex  4.109398e+001 -3.829361e+001  2.430000e+000
      vertex  4.250817e+001 -3.828557e+001  2.430000e+000
      vertex  4.179941e+001 -3.799670e+001  2.430000e+000
    endloop
  endfacet
  facet normal  -0.000000e+000  0.000000e+000  1.000000e+000
    outer loop
      vertex  4.250817e+001 -3.828557e+001  2.430000e+000
      vertex  4.109398e+001 -3.829361e+001  2.430000e+000
      vertex  4.280508e+001 -3.899100e+001  2.430000e+000
    endloop
  endfacet
  facet normal  0.000000e+000  0.000000e+000  9.999999e-001
    outer loop
      vertex  4.280508e+001 -3.899100e+001  2.430000e+000
      vertex  4.109398e+001 -3.829361e+001  2.430000e+000
      vertex  4.080511e+001 -3.900237e+001  2.430000e+000
    endloop
  endfacet
  facet normal  -0.000000e+000  0.000000e+000  9.999999e-001
    outer loop
      vertex  4.280508e+001 -3.899100e+001  2.430000e+000
      vertex  4.080511e+001 -3.900237e+001  2.430000e+000
      vertex  4.251622e+001 -3.969976e+001  2.430000e+000
    endloop
  endfacet
  facet normal  0.000000e+000  0.000000e+000  1.000000e+000
    outer loop
      vertex  4.251622e+001 -3.969976e+001  2.430000e+000
      vertex  4.080511e+001 -3.900237e+001  2.430000e+000
      vertex  4.110202e+001 -3.970780e+001  2.430000e+000
    endloop
  endfacet
  facet normal  -0.000000e+000  0.000000e+000  1.000000e+000
    outer loop
      vertex  4.251622e+001 -3.969976e+001  2.430000e+000
      vertex  4.110202e+001 -3.970780e+001  2.430000e+000
      vertex  4.181079e+001 -3.999667e+001  2.430000e+000
    endloop
  endfacet
  facet normal  0.000000e+000  0.000000e+000 -1.000000e+000
    outer loop
      vertex -2.194235e+001  2.598748e+001  0.000000e+000
      vertex -2.414235e+001  2.598748e+001  0.000000e+000
      vertex -4.254235e+001  2.830799e+001  0.000000e+000
    endloop
  endfacet
  facet normal  0.000000e+000  0.000000e+000 -1.000000e+000
    outer loop
      vertex -2.194235e+001  2.598748e+001  0.000000e+000
      vertex -4.254235e+001  2.830799e+001  0.000000e+000
      vertex -3.542349e+000  2.830799e+001  0.000000e+000
    endloop
  endfacet
  facet normal  0.000000e+000  0.000000e+000 -1.000000e+000
    outer loop
      vertex -2.194235e+001  2.598748e+001  0.000000e+000
      vertex -3.542349e+000  2.830799e+001  0.000000e+000
      vertex -1.354235e+001  1.098748e+001  0.000000e+000
    endloop
  endfacet
  facet normal  0.000000e+000  0.000000e+000 -1.000000e+000
    outer loop
      vertex -2.194235e+001  2.598748e+001  0.000000e+000
      vertex -1.354235e+001  1.098748e+001  0.000000e+000
      vertex -2.194235e+001  1.098748e+001  0.000000e+000
    endloop
  endfacet
  facet normal  0.000000e+000  0.000000e+000 -1.000000e+000
    outer loop
      vertex -2.414235e+001  1.098748e+001  0.000000e+000
      vertex -3.254235e+001  1.098748e+001  0.000000e+000
      vertex -2.414235e+001  2.598748e+001  0.000000e+000
    endloop
  endfacet
  facet normal  -0.000000e+000  0.000000e+000 -1.000000e+000
    outer loop
      vertex -2.414235e+001  2.598748e+001  0.000000e+000
      vertex -3.254235e+001  1.098748e+001  0.000000e+000
      vertex -4.254235e+001  2.830799e+001  0.000000e+000
    endloop
  endfacet
  facet normal  -0.000000e+000  0.000000e+000 -1.000000e+000
    outer loop
      vertex -1.854235e+001  6.598747e+001  0.000000e+000
      vertex -3.542349e+000  6.598747e+001  0.000000e+000
      vertex -1.854235e+001  4.098748e+001  0.000000e+000
    endloop
  endfacet
  facet normal  0.000000e+000  0.000000e+000 -1.000000e+000
    outer loop
      vertex -1.854235e+001  4.098748e+001  0.000000e+000
      vertex -3.542349e+000  6.598747e+001  0.000000e+000
      vertex -3.542349e+000  2.830799e+001  0.000000e+000
    endloop
  endfacet
  facet normal  0.000000e+000  0.000000e+000 -1.000000e+000
    outer loop
      vertex -1.854235e+001  4.098748e+001  0.000000e+000
      vertex -3.542349e+000  2.830799e+001  0.000000e+000
      vertex -2.754235e+001  4.098748e+001  0.000000e+000
    endloop
  endfacet
  facet normal  0.000000e+000  -0.000000e+000 -1.000000e+000
    outer loop
      vertex -2.754235e+001  4.098748e+001  0.000000e+000
      vertex -3.542349e+000  2.830799e+001  0.000000e+000
      vertex -4.254235e+001  2.830799e+001  0.000000e+000
    endloop
  endfacet
  facet normal  0.000000e+000  0.000000e+000 -1.000000e+000
    outer loop
      vertex -2.754235e+001  4.098748e+001  0.000000e+000
      vertex -4.254235e+001  2.830799e+001  0.000000e+000
      vertex -2.754235e+001  6.598747e+001  0.000000e+000
    endloop
  endfacet
  facet normal  -0.000000e+000  0.000000e+000 -1.000000e+000
    outer loop
      vertex -2.754235e+001  6.598747e+001  0.000000e+000
      vertex -4.254235e+001  2.830799e+001  0.000000e+000
      vertex -4.254235e+001  6.598747e+001  0.000000e+000
    endloop
  endfacet
  facet normal  0.000000e+000  0.000000e+000  1.000000e+000
    outer loop
      vertex -2.194235e+001  2.598748e+001  2.000000e+000
      vertex -2.194235e+001  1.098748e+001  2.000000e+000
      vertex -1.354235e+001  1.098748e+001  2.000000e+000
    endloop
  endfacet
  facet normal  0.000000e+000  -0.000000e+000  1.000000e+000
    outer loop
      vertex -2.194235e+001  2.598748e+001  2.000000e+000
      vertex -1.354235e+001  1.098748e+001  2.000000e+000
      vertex -3.542349e+000  2.830799e+001  2.000000e+000
    endloop
  endfacet
  facet normal  0.000000e+000  0.000000e+000  1.000000e+000
    outer loop
      vertex -2.194235e+001  2.598748e+001  2.000000e+000
      vertex -3.542349e+000  2.830799e+001  2.000000e+000
      vertex -4.254235e+001  2.830799e+001  2.000000e+000
    endloop
  endfacet
  facet normal  0.000000e+000  0.000000e+000  1.000000e+000
    outer loop
      vertex -2.194235e+001  2.598748e+001  2.000000e+000
      vertex -4.254235e+001  2.830799e+001  2.000000e+000
      vertex -2.414235e+001  2.598748e+001  2.000000e+000
    endloop
  endfacet
  facet normal  0.000000e+000  0.000000e+000  9.999999e-001
    outer loop
      vertex -3.254235e+001  1.098748e+001  2.000000e+000
      vertex -2.414235e+001  1.098748e+001  2.000000e+000
      vertex -4.254235e+001  2.830799e+001  2.000000e+000
    endloop
  endfacet
  facet normal  0.000000e+000  0.000000e+000  1.000000e+000
    outer loop
      vertex -4.254235e+001  2.830799e+001  2.000000e+000
      vertex -2.414235e+001  1.098748e+001  2.000000e+000
      vertex -2.414235e+001  2.598748e+001  2.000000e+000
    endloop
  endfacet
  facet normal  -0.000000e+000  0.000000e+000  1.000000e+000
    outer loop
      vertex -3.542349e+000  6.598747e+001  2.000000e+000
      vertex -1.854235e+001  6.598747e+001  2.000000e+000
      vertex -3.542349e+000  2.830799e+001  2.000000e+000
    endloop
  endfacet
  facet normal  0.000000e+000  0.000000e+000  1.000000e+000
    outer loop
      vertex -3.542349e+000  2.830799e+001  2.000000e+000
      vertex -1.854235e+001  6.598747e+001  2.000000e+000
      vertex -1.854235e+001  4.098748e+001  2.000000e+000
    endloop
  endfacet
  facet normal  0.000000e+000  0.000000e+000  1.000000e+000
    outer loop
      vertex -3.542349e+000  2.830799e+001  2.000000e+000
      vertex -1.854235e+001  4.098748e+001  2.000000e+000
      vertex -4.254235e+001  2.830799e+001  2.000000e+000
    endloop
  endfacet
  facet normal  0.000000e+000  0.000000e+000  1.000000e+000
    outer loop
      vertex -4.254235e+001  2.830799e+001  2.000000e+000
      vertex -1.854235e+001  4.098748e+001  2.000000e+000
      vertex -2.754235e+001  4.098748e+001  2.000000e+000
    endloop
  endfacet
  facet normal  0.000000e+000  0.000000e+000  1.000000e+000
    outer loop
      vertex -4.254235e+001  2.830799e+001  2.000000e+000
      vertex -2.754235e+001  4.098748e+001  2.000000e+000
      vertex -4.254235e+001  6.598747e+001  2.000000e+000
    endloop
  endfacet
  facet normal  -0.000000e+000  0.000000e+000  1.000000e+000
    outer loop
      vertex -4.254235e+001  6.598747e+001  2.000000e+000
      vertex -2.754235e+001  4.098748e+001  2.000000e+000
      vertex -2.754235e+001  6.598747e+001  2.000000e+000
    endloop
  endfacet
  facet normal  0.000000e+000 -1.000000e+000  0.000000e+000
    outer loop
      vertex -2.194235e+001  1.098748e+001  2.000000e+000
      vertex -2.194235e+001  1.098748e+001  0.000000e+000
      vertex -1.354235e+001  1.098748e+001  2.000000e+000
    endloop
  endfacet
  facet normal  0.000000e+000 -1.000000e+000  -0.000000e+000
    outer loop
      vertex -1.354235e+001  1.098748e+001  2.000000e+000
      vertex -2.194235e+001  1.098748e+001  0.000000e+000
      vertex -1.354235e+001  1.098748e+001  0.000000e+000
    endloop
  endfacet
  facet normal  1.000000e+000  0.000000e+000  0.000000e+000
    outer loop
      vertex -3.542349e+000  2.830799e+001  2.000000e+000
      vertex -3.542349e+000  2.830799e+001  0.000000e+000
      vertex -3.542349e+000  6.598747e+001  2.000000e+000
    endloop
  endfacet
  facet normal  1.000000e+000  0.000000e+000  0.000000e+000
    outer loop
      vertex -3.542349e+000  6.598747e+001  2.000000e+000
      vertex -3.542349e+000  2.830799e+001  0.000000e+000
      vertex -3.542349e+000  6.598747e+001  0.000000e+000
    endloop
  endfacet
  facet normal  8.660254e-001 -5.000000e-001  0.000000e+000
    outer loop
      vertex -1.354235e+001  1.098748e+001  2.000000e+000
      vertex -1.354235e+001  1.098748e+001  0.000000e+000
      vertex -3.542349e+000  2.830799e+001  2.000000e+000
    endloop
  endfacet
  facet normal  8.660254e-001 -5.000000e-001  0.000000e+000
    outer loop
      vertex -3.542349e+000  2.830799e+001  2.000000e+000
      vertex -1.354235e+001  1.098748e+001  0.000000e+000
      vertex -3.542349e+000  2.830799e+001  0.000000e+000
    endloop
  endfacet
  facet normal  0.000000e+000  0.000000e+000 -1.000000e+000
    outer loop
      vertex  2.194235e+001  1.098748e+001  0.000000e+000
      vertex  1.354235e+001  1.098748e+001  0.000000e+000
      vertex  2.194235e+001  2.598748e+001  0.000000e+000
    endloop
  endfacet
  facet normal  0.000000e+000  0.000000e+000 -1.000000e+000
    outer loop
      vertex  3.542349e+000  2.830799e+001  0.000000e+000
      vertex  3.542349e+000  6.598747e+001  0.000000e+000
      vertex  1.854235e+001  6.598747e+001  0.000000e+000
    endloop
  endfacet
  facet normal  0.000000e+000  -0.000000e+000 -1.000000e+000
    outer loop
      vertex  3.542349e+000  2.830799e+001  0.000000e+000
      vertex  1.854235e+001  6.598747e+001  0.000000e+000
      vertex  1.854235e+001  4.098748e+001  0.000000e+000
    endloop
  endfacet
  facet normal  0.000000e+000  -0.000000e+000 -1.000000e+000
    outer loop
      vertex  3.542349e+000  2.830799e+001  0.000000e+000
      vertex  1.854235e+001  4.098748e+001  0.000000e+000
      vertex  2.754235e+001  4.098748e+001  0.000000e+000
    endloop
  endfacet
  facet normal  0.000000e+000  -0.000000e+000 -1.000000e+000
    outer loop
      vertex  3.542349e+000  2.830799e+001  0.000000e+000
      vertex  2.754235e+001  4.098748e+001  0.000000e+000
      vertex  4.254235e+001  2.830799e+001  0.000000e+000
    endloop
  endfacet
  facet normal  -0.000000e+000  0.000000e+000 -1.000000e+000
    outer loop
      vertex  3.542349e+000  2.830799e+001  0.000000e+000
      vertex  4.254235e+001  2.830799e+001  0.000000e+000
      vertex  2.194235e+001  2.598748e+001  0.000000e+000
    endloop
  endfacet
  facet normal  -0.000000e+000  0.000000e+000 -1.000000e+000
    outer loop
      vertex  3.542349e+000  2.830799e+001  0.000000e+000
      vertex  2.194235e+001  2.598748e+001  0.000000e+000
      vertex  1.354235e+001  1.098748e+001  0.000000e+000
    endloop
  endfacet
  facet normal  0.000000e+000  0.000000e+000 -1.000000e+000
    outer loop
      vertex  4.254235e+001  2.830799e+001  0.000000e+000
      vertex  2.754235e+001  4.098748e+001  0.000000e+000
      vertex  4.254235e+001  6.598748e+001  0.000000e+000
    endloop
  endfacet
  facet normal  -0.000000e+000  0.000000e+000 -1.000000e+000
    outer loop
      vertex  4.254235e+001  6.598748e+001  0.000000e+000
      vertex  2.754235e+001  4.098748e+001  0.000000e+000
      vertex  2.754235e+001  6.598748e+001  0.000000e+000
    endloop
  endfacet
  facet normal  0.000000e+000  0.000000e+000 -9.999999e-001
    outer loop
      vertex  3.254235e+001  1.098748e+001  0.000000e+000
      vertex  2.414235e+001  1.098748e+001  0.000000e+000
      vertex  4.254235e+001  2.830799e+001  0.000000e+000
    endloop
  endfacet
  facet normal  0.000000e+000  0.000000e+000 -1.000000e+000
    outer loop
      vertex  4.254235e+001  2.830799e+001  0.000000e+000
      vertex  2.414235e+001  1.098748e+001  0.000000e+000
      vertex  2.414235e+001  2.598748e+001  0.000000e+000
    endloop
  endfacet
  facet normal  0.000000e+000  0.000000e+000 -1.000000e+000
    outer loop
      vertex  4.254235e+001  2.830799e+001  0.000000e+000
      vertex  2.414235e+001  2.598748e+001  0.000000e+000
      vertex  2.194235e+001  2.598748e+001  0.000000e+000
    endloop
  endfacet
  facet normal  0.000000e+000  0.000000e+000  1.000000e+000
    outer loop
      vertex  2.194235e+001  2.598748e+001  2.000000e+000
      vertex  1.354235e+001  1.098748e+001  2.000000e+000
      vertex  2.194235e+001  1.098748e+001  2.000000e+000
    endloop
  endfacet
  facet normal  0.000000e+000  -0.000000e+000  1.000000e+000
    outer loop
      vertex  3.542349e+000  2.830799e+001  2.000000e+000
      vertex  1.354235e+001  1.098748e+001  2.000000e+000
      vertex  2.194235e+001  2.598748e+001  2.000000e+000
    endloop
  endfacet
  facet normal  0.000000e+000  -0.000000e+000  1.000000e+000
    outer loop
      vertex  3.542349e+000  2.830799e+001  2.000000e+000
      vertex  2.194235e+001  2.598748e+001  2.000000e+000
      vertex  4.254235e+001  2.830799e+001  2.000000e+000
    endloop
  endfacet
  facet normal  0.000000e+000  0.000000e+000  1.000000e+000
    outer loop
      vertex  3.542349e+000  2.830799e+001  2.000000e+000
      vertex  4.254235e+001  2.830799e+001  2.000000e+000
      vertex  2.754235e+001  4.098748e+001  2.000000e+000
    endloop
  endfacet
  facet normal  0.000000e+000  0.000000e+000  1.000000e+000
    outer loop
      vertex  3.542349e+000  2.830799e+001  2.000000e+000
      vertex  2.754235e+001  4.098748e+001  2.000000e+000
      vertex  1.854235e+001  4.098748e+001  2.000000e+000
    endloop
  endfacet
  facet normal  0.000000e+000  -0.000000e+000  1.000000e+000
    outer loop
      vertex  3.542349e+000  2.830799e+001  2.000000e+000
      vertex  1.854235e+001  4.098748e+001  2.000000e+000
      vertex  1.854235e+001  6.598747e+001  2.000000e+000
    endloop
  endfacet
  facet normal  0.000000e+000  0.000000e+000  1.000000e+000
    outer loop
      vertex  3.542349e+000  2.830799e+001  2.000000e+000
      vertex  1.854235e+001  6.598747e+001  2.000000e+000
      vertex  3.542349e+000  6.598747e+001  2.000000e+000
    endloop
  endfacet
  facet normal  0.000000e+000  0.000000e+000  9.999999e-001
    outer loop
      vertex  2.754235e+001  4.098748e+001  2.000000e+000
      vertex  4.254235e+001  2.830799e+001  2.000000e+000
      vertex  2.754235e+001  6.598748e+001  2.000000e+000
    endloop
  endfacet
  facet normal  -0.000000e+000  0.000000e+000  1.000000e+000
    outer loop
      vertex  2.754235e+001  6.598748e+001  2.000000e+000
      vertex  4.254235e+001  2.830799e+001  2.000000e+000
      vertex  4.254235e+001  6.598748e+001  2.000000e+000
    endloop
  endfacet
  facet normal  0.000000e+000  0.000000e+000  1.000000e+000
    outer loop
      vertex  2.414235e+001  1.098748e+001  2.000000e+000
      vertex  3.254235e+001  1.098748e+001  2.000000e+000
      vertex  2.414235e+001  2.598748e+001  2.000000e+000
    endloop
  endfacet
  facet normal  -0.000000e+000  0.000000e+000  1.000000e+000
    outer loop
      vertex  2.414235e+001  2.598748e+001  2.000000e+000
      vertex  3.254235e+001  1.098748e+001  2.000000e+000
      vertex  4.254235e+001  2.830799e+001  2.000000e+000
    endloop
  endfacet
  facet normal  0.000000e+000  0.000000e+000  1.000000e+000
    outer loop
      vertex  2.414235e+001  2.598748e+001  2.000000e+000
      vertex  4.254235e+001  2.830799e+001  2.000000e+000
      vertex  2.194235e+001  2.598748e+001  2.000000e+000
    endloop
  endfacet
  facet normal  0.000000e+000 -1.000000e+000  0.000000e+000
    outer loop
      vertex  2.414235e+001  1.098748e+001  2.000000e+000
      vertex  2.414235e+001  1.098748e+001  0.000000e+000
      vertex  3.254235e+001  1.098748e+001  2.000000e+000
    endloop
  endfacet
  facet normal  0.000000e+000 -1.000000e+000  -0.000000e+000
    outer loop
      vertex  3.254235e+001  1.098748e+001  2.000000e+000
      vertex  2.414235e+001  1.098748e+001  0.000000e+000
      vertex  3.254235e+001  1.098748e+001  0.000000e+000
    endloop
  endfacet
  facet normal  1.000000e+000  1.012407e-007  0.000000e+000
    outer loop
      vertex  4.254235e+001  6.598748e+001  0.000000e+000
      vertex  4.254235e+001  6.598748e+001  2.000000e+000
      vertex  4.254235e+001  2.830799e+001  0.000000e+000
    endloop
  endfacet
  facet normal  1.000000e+000  1.012407e-007  -0.000000e+000
    outer loop
      vertex  4.254235e+001  2.830799e+001  0.000000e+000
      vertex  4.254235e+001  6.598748e+001  2.000000e+000
      vertex  4.254235e+001  2.830799e+001  2.000000e+000
    endloop
  endfacet
  facet normal  8.660254e-001 -5.000000e-001  0.000000e+000
    outer loop
      vertex  3.254235e+001  1.098748e+001  2.000000e+000
      vertex  3.254235e+001  1.098748e+001  0.000000e+000
      vertex  4.254235e+001  2.830799e+001  2.000000e+000
    endloop
  endfacet
  facet normal  8.660254e-001 -5.000000e-001  0.000000e+000
    outer loop
      vertex  4.254235e+001  2.830799e+001  2.000000e+000
      vertex  3.254235e+001  1.098748e+001  0.000000e+000
      vertex  4.254235e+001  2.830799e+001  0.000000e+000
    endloop
  endfacet
  facet normal  0.000000e+000 -1.000000e+000  0.000000e+000
    outer loop
      vertex  1.354235e+001  1.098748e+001  2.000000e+000
      vertex  1.354235e+001  1.098748e+001  0.000000e+000
      vertex  2.194235e+001  1.098748e+001  2.000000e+000
    endloop
  endfacet
  facet normal  0.000000e+000 -1.000000e+000  -0.000000e+000
    outer loop
      vertex  2.194235e+001  1.098748e+001  2.000000e+000
      vertex  1.354235e+001  1.098748e+001  0.000000e+000
      vertex  2.194235e+001  1.098748e+001  0.000000e+000
    endloop
  endfacet
  facet normal -1.000000e+000  0.000000e+000  0.000000e+000
    outer loop
      vertex  3.542349e+000  2.830799e+001  0.000000e+000
      vertex  3.542349e+000  2.830799e+001  2.000000e+000
      vertex  3.542349e+000  6.598747e+001  0.000000e+000
    endloop
  endfacet
  facet normal -1.000000e+000  0.000000e+000  0.000000e+000
    outer loop
      vertex  3.542349e+000  6.598747e+001  0.000000e+000
      vertex  3.542349e+000  2.830799e+001  2.000000e+000
      vertex  3.542349e+000  6.598747e+001  2.000000e+000
    endloop
  endfacet
  facet normal -8.660254e-001 -5.000000e-001  -0.000000e+000
    outer loop
      vertex  1.354235e+001  1.098748e+001  0.000000e+000
      vertex  1.354235e+001  1.098748e+001  2.000000e+000
      vertex  3.542349e+000  2.830799e+001  0.000000e+000
    endloop
  endfacet
  facet normal -8.660254e-001 -5.000000e-001  0.000000e+000
    outer loop
      vertex  3.542349e+000  2.830799e+001  0.000000e+000
      vertex  1.354235e+001  1.098748e+001  2.000000e+000
      vertex  3.542349e+000  2.830799e+001  2.000000e+000
    endloop
  endfacet
  facet normal  0.000000e+000 -1.000000e+000  0.000000e+000
    outer loop
      vertex -3.254235e+001  1.098748e+001  2.000000e+000
      vertex -3.254235e+001  1.098748e+001  0.000000e+000
      vertex -2.414235e+001  1.098748e+001  2.000000e+000
    endloop
  endfacet
  facet normal  0.000000e+000 -1.000000e+000  -0.000000e+000
    outer loop
      vertex -2.414235e+001  1.098748e+001  2.000000e+000
      vertex -3.254235e+001  1.098748e+001  0.000000e+000
      vertex -2.414235e+001  1.098748e+001  0.000000e+000
    endloop
  endfacet
  facet normal -1.000000e+000  0.000000e+000  0.000000e+000
    outer loop
      vertex -4.254235e+001  6.598747e+001  2.000000e+000
      vertex -4.254235e+001  6.598747e+001  0.000000e+000
      vertex -4.254235e+001  2.830799e+001  2.000000e+000
    endloop
  endfacet
  facet normal -1.000000e+000  0.000000e+000  0.000000e+000
    outer loop
      vertex -4.254235e+001  2.830799e+001  2.000000e+000
      vertex -4.254235e+001  6.598747e+001  0.000000e+000
      vertex -4.254235e+001  2.830799e+001  0.000000e+000
    endloop
  endfacet
  facet normal -8.660254e-001 -5.000000e-001  -0.000000e+000
    outer loop
      vertex -3.254235e+001  1.098748e+001  0.000000e+000
      vertex -3.254235e+001  1.098748e+001  2.000000e+000
      vertex -4.254235e+001  2.830799e+001  0.000000e+000
    endloop
  endfacet
  facet normal -8.660254e-001 -5.000000e-001  0.000000e+000
    outer loop
      vertex -4.254235e+001  2.830799e+001  0.000000e+000
      vertex -3.254235e+001  1.098748e+001  2.000000e+000
      vertex -4.254235e+001  2.830799e+001  2.000000e+000
    endloop
  endfacet
  facet normal  0.000000e+000 -1.000000e+000  -0.000000e+000
    outer loop
      vertex  4.400510e+001 -4.279668e+001  0.000000e+000
      vertex  4.400510e+001 -4.279668e+001  2.000000e+000
      vertex  3.800510e+001 -4.279668e+001  0.000000e+000
    endloop
  endfacet
  facet normal  0.000000e+000 -1.000000e+000  0.000000e+000
    outer loop
      vertex  3.800510e+001 -4.279668e+001  0.000000e+000
      vertex  4.400510e+001 -4.279668e+001  2.000000e+000
      vertex  3.800510e+001 -4.279668e+001  2.000000e+000
    endloop
  endfacet
  facet normal  0.000000e+000 -1.000000e+000  -0.000000e+000
    outer loop
      vertex -1.724416e+001 -4.279668e+001  0.000000e+000
      vertex -1.724416e+001 -4.279668e+001  2.000000e+000
      vertex -2.224416e+001 -4.279668e+001  0.000000e+000
    endloop
  endfacet
  facet normal  0.000000e+000 -1.000000e+000  0.000000e+000
    outer loop
      vertex -2.224416e+001 -4.279668e+001  0.000000e+000
      vertex -1.724416e+001 -4.279668e+001  2.000000e+000
      vertex -2.224416e+001 -4.279668e+001  2.000000e+000
    endloop
  endfacet
  facet normal  0.000000e+000 -1.000000e+000  -0.000000e+000
    outer loop
      vertex  3.580510e+001 -4.279668e+001  0.000000e+000
      vertex  3.580510e+001 -4.279668e+001  2.000000e+000
      vertex -1.504416e+001 -4.279668e+001  0.000000e+000
    endloop
  endfacet
  facet normal  0.000000e+000 -1.000000e+000  0.000000e+000
    outer loop
      vertex -1.504416e+001 -4.279668e+001  0.000000e+000
      vertex  3.580510e+001 -4.279668e+001  2.000000e+000
      vertex -1.504416e+001 -4.279668e+001  2.000000e+000
    endloop
  endfacet
  facet normal  0.000000e+000  -0.000000e+000 -1.000000e+000
    outer loop
      vertex -4.756443e+001 -5.433688e+000  0.000000e+000
      vertex -4.544110e+001 -5.413804e+000  0.000000e+000
      vertex  4.500510e+001 -5.549560e+000  0.000000e+000
    endloop
  endfacet
  facet normal  0.000000e+000  0.000000e+000 -1.000000e+000
    outer loop
      vertex  4.400510e+001 -5.549560e+000  0.000000e+000
      vertex -4.756443e+001 -5.433688e+000  0.000000e+000
      vertex  4.500510e+001 -5.549560e+000  0.000000e+000
    endloop
  endfacet
  facet normal  -0.000000e+000  0.000000e+000 -1.000000e+000
    outer loop
      vertex -2.395008e+001  2.838541e+000  0.000000e+000
      vertex -1.070747e+001  1.551870e+000  0.000000e+000
      vertex -3.509015e+001 -1.010884e+000  0.000000e+000
    endloop
  endfacet
  facet normal  0.000000e+000  -0.000000e+000 -9.999999e-001
    outer loop
      vertex -5.311356e+001 -1.337973e+001  0.000000e+000
      vertex -5.271703e+001 -1.028889e+001  0.000000e+000
      vertex -4.988674e+001 -1.216330e+001  0.000000e+000
    endloop
  endfacet
  facet normal  0.000000e+000  -0.000000e+000 -9.999999e-001
    outer loop
      vertex -5.311356e+001 -1.337973e+001  0.000000e+000
      vertex -4.988674e+001 -1.216330e+001  0.000000e+000
      vertex -4.898081e+001 -1.394636e+001  0.000000e+000
    endloop
  endfacet
  facet normal  -0.000000e+000  0.000000e+000 -1.000000e+000
    outer loop
      vertex -5.311356e+001 -1.337973e+001  0.000000e+000
      vertex -4.898081e+001 -1.394636e+001  0.000000e+000
      vertex -5.957423e+001 -1.862641e+001  0.000000e+000
    endloop
  endfacet
  facet normal  0.000000e+000  0.000000e+000 -1.000000e+000
    outer loop
      vertex  4.700510e+001 -3.167288e+000  0.000000e+000
      vertex  4.700510e+001 -1.516729e+001  0.000000e+000
      vertex  4.500510e+001 -1.516729e+001  0.000000e+000
    endloop
  endfacet
  facet normal  0.000000e+000  0.000000e+000 -1.000000e+000
    outer loop
      vertex  4.700510e+001 -3.167288e+000  0.000000e+000
      vertex  4.500510e+001 -1.516729e+001  0.000000e+000
      vertex  4.500510e+001 -5.549560e+000  0.000000e+000
    endloop
  endfacet
  facet normal  0.000000e+000  0.000000e+000 -1.000000e+000
    outer loop
      vertex  4.700510e+001 -3.167288e+000  0.000000e+000
      vertex  4.500510e+001 -5.549560e+000  0.000000e+000
      vertex -4.544110e+001 -5.413804e+000  0.000000e+000
    endloop
  endfacet
  facet normal  0.000000e+000  0.000000e+000 -1.000000e+000
    outer loop
      vertex  4.700510e+001 -3.167288e+000  0.000000e+000
      vertex -4.544110e+001 -5.413804e+000  0.000000e+000
      vertex -3.509015e+001 -1.010884e+000  0.000000e+000
    endloop
  endfacet
  facet normal  0.000000e+000  0.000000e+000 -1.000000e+000
    outer loop
      vertex  4.700510e+001 -3.167288e+000  0.000000e+000
      vertex -3.509015e+001 -1.010884e+000  0.000000e+000
      vertex -1.070747e+001  1.551870e+000  0.000000e+000
    endloop
  endfacet
  facet normal  0.000000e+000  0.000000e+000 -1.000000e+000
    outer loop
      vertex  4.700510e+001 -3.167288e+000  0.000000e+000
      vertex -1.070747e+001  1.551870e+000  0.000000e+000
      vertex  1.559367e+001  7.233245e+000  0.000000e+000
    endloop
  endfacet
  facet normal  0.000000e+000  0.000000e+000 -1.000000e+000
    outer loop
      vertex  3.580510e+001 -2.779669e+001  0.000000e+000
      vertex  3.580510e+001 -4.279668e+001  0.000000e+000
      vertex -1.504416e+001 -4.279668e+001  0.000000e+000
    endloop
  endfacet
  facet normal  0.000000e+000  0.000000e+000 -1.000000e+000
    outer loop
      vertex  3.580510e+001 -2.779669e+001  0.000000e+000
      vertex -1.504416e+001 -4.279668e+001  0.000000e+000
      vertex -1.504416e+001 -2.779669e+001  0.000000e+000
    endloop
  endfacet
  facet normal  0.000000e+000  0.000000e+000 -1.000000e+000
    outer loop
      vertex  3.580510e+001 -2.779669e+001  0.000000e+000
      vertex -1.504416e+001 -2.779669e+001  0.000000e+000
      vertex -2.496528e+001 -2.401713e+001  0.000000e+000
    endloop
  endfacet
  facet normal  0.000000e+000  0.000000e+000 -1.000000e+000
    outer loop
      vertex  3.580510e+001 -2.779669e+001  0.000000e+000
      vertex -2.496528e+001 -2.401713e+001  0.000000e+000
      vertex -3.329126e+001 -1.748453e+001  0.000000e+000
    endloop
  endfacet
  facet normal  0.000000e+000  0.000000e+000 -1.000000e+000
    outer loop
      vertex  3.580510e+001 -2.779669e+001  0.000000e+000
      vertex -3.329126e+001 -1.748453e+001  0.000000e+000
      vertex -4.719775e+001 -1.304043e+001  0.000000e+000
    endloop
  endfacet
  facet normal  0.000000e+000  0.000000e+000 -1.000000e+000
    outer loop
      vertex  3.580510e+001 -2.779669e+001  0.000000e+000
      vertex -4.719775e+001 -1.304043e+001  0.000000e+000
      vertex -4.810368e+001 -1.125737e+001  0.000000e+000
    endloop
  endfacet
  facet normal  0.000000e+000  0.000000e+000 -1.000000e+000
    outer loop
      vertex  3.580510e+001 -2.779669e+001  0.000000e+000
      vertex -4.810368e+001 -1.125737e+001  0.000000e+000
      vertex -4.837875e+001 -7.289696e+000  0.000000e+000
    endloop
  endfacet
  facet normal  0.000000e+000  0.000000e+000 -1.000000e+000
    outer loop
      vertex  3.580510e+001 -2.779669e+001  0.000000e+000
      vertex -4.837875e+001 -7.289696e+000  0.000000e+000
      vertex -4.756443e+001 -5.433688e+000  0.000000e+000
    endloop
  endfacet
  facet normal  0.000000e+000  0.000000e+000 -1.000000e+000
    outer loop
      vertex  3.580510e+001 -2.779669e+001  0.000000e+000
      vertex -4.756443e+001 -5.433688e+000  0.000000e+000
      vertex  4.400510e+001 -5.549560e+000  0.000000e+000
    endloop
  endfacet
  facet normal  0.000000e+000  0.000000e+000 -9.999999e-001
    outer loop
      vertex  3.580510e+001 -2.779669e+001  0.000000e+000
      vertex  4.400510e+001 -5.549560e+000  0.000000e+000
      vertex  3.800510e+001 -2.779669e+001  0.000000e+000
    endloop
  endfacet
  facet normal  0.000000e+000  0.000000e+000 -1.000000e+000
    outer loop
      vertex -4.719775e+001 -1.304043e+001  0.000000e+000
      vertex -3.329126e+001 -1.748453e+001  0.000000e+000
      vertex -4.898081e+001 -1.394636e+001  0.000000e+000
    endloop
  endfacet
  facet normal  0.000000e+000  -0.000000e+000 -1.000000e+000
    outer loop
      vertex -4.898081e+001 -1.394636e+001  0.000000e+000
      vertex -3.329126e+001 -1.748453e+001  0.000000e+000
      vertex -5.288033e+001 -2.369475e+001  0.000000e+000
    endloop
  endfacet
  facet normal  0.000000e+000  0.000000e+000 -1.000000e+000
    outer loop
      vertex -4.898081e+001 -1.394636e+001  0.000000e+000
      vertex -5.288033e+001 -2.369475e+001  0.000000e+000
      vertex -5.957423e+001 -1.862641e+001  0.000000e+000
    endloop
  endfacet
  facet normal  0.000000e+000  0.000000e+000 -1.000000e+000
    outer loop
      vertex -5.271703e+001 -1.028889e+001  0.000000e+000
      vertex -4.837875e+001 -7.289696e+000  0.000000e+000
      vertex -4.988674e+001 -1.216330e+001  0.000000e+000
    endloop
  endfacet
  facet normal  0.000000e+000  0.000000e+000 -9.999999e-001
    outer loop
      vertex -4.988674e+001 -1.216330e+001  0.000000e+000
      vertex -4.837875e+001 -7.289696e+000  0.000000e+000
      vertex -4.810368e+001 -1.125737e+001  0.000000e+000
    endloop
  endfacet
  facet normal  0.000000e+000  0.000000e+000 -1.000000e+000
    outer loop
      vertex -1.724416e+001 -4.279668e+001  0.000000e+000
      vertex -2.224416e+001 -4.279668e+001  0.000000e+000
      vertex -1.724416e+001 -2.779669e+001  0.000000e+000
    endloop
  endfacet
  facet normal  -0.000000e+000  0.000000e+000 -1.000000e+000
    outer loop
      vertex -1.724416e+001 -2.779669e+001  0.000000e+000
      vertex -2.224416e+001 -4.279668e+001  0.000000e+000
      vertex -2.496528e+001 -2.401713e+001  0.000000e+000
    endloop
  endfacet
  facet normal  0.000000e+000  0.000000e+000 -1.000000e+000
    outer loop
      vertex -1.724416e+001 -2.779669e+001  0.000000e+000
      vertex -2.496528e+001 -2.401713e+001  0.000000e+000
      vertex -1.504416e+001 -2.779669e+001  0.000000e+000
    endloop
  endfacet
  facet normal  0.000000e+000  0.000000e+000 -1.000000e+000
    outer loop
      vertex  3.800510e+001 -4.279668e+001  0.000000e+000
      vertex  3.800510e+001 -2.779669e+001  0.000000e+000
      vertex  4.400510e+001 -4.279668e+001  0.000000e+000
    endloop
  endfacet
  facet normal  0.000000e+000  0.000000e+000 -1.000000e+000
    outer loop
      vertex  4.400510e+001 -4.279668e+001  0.000000e+000
      vertex  3.800510e+001 -2.779669e+001  0.000000e+000
      vertex  4.400510e+001 -5.549560e+000  0.000000e+000
    endloop
  endfacet
  facet normal  1.000000e+000  0.000000e+000  0.000000e+000
    outer loop
      vertex  2.194235e+001  2.598748e+001  0.000000e+000
      vertex  2.194235e+001  2.598748e+001  2.000000e+000
      vertex  2.194235e+001  1.098748e+001  0.000000e+000
    endloop
  endfacet
  facet normal  1.000000e+000  0.000000e+000  0.000000e+000
    outer loop
      vertex  2.194235e+001  1.098748e+001  0.000000e+000
      vertex  2.194235e+001  2.598748e+001  2.000000e+000
      vertex  2.194235e+001  1.098748e+001  2.000000e+000
    endloop
  endfacet
  facet normal  0.000000e+000 -1.000000e+000  -0.000000e+000
    outer loop
      vertex  2.414235e+001  2.598748e+001  0.000000e+000
      vertex  2.414235e+001  2.598748e+001  2.000000e+000
      vertex  2.194235e+001  2.598748e+001  0.000000e+000
    endloop
  endfacet
  facet normal  0.000000e+000 -1.000000e+000  0.000000e+000
    outer loop
      vertex  2.194235e+001  2.598748e+001  0.000000e+000
      vertex  2.414235e+001  2.598748e+001  2.000000e+000
      vertex  2.194235e+001  2.598748e+001  2.000000e+000
    endloop
  endfacet
  facet normal -1.000000e+000  0.000000e+000  0.000000e+000
    outer loop
      vertex  2.414235e+001  1.098748e+001  0.000000e+000
      vertex  2.414235e+001  1.098748e+001  2.000000e+000
      vertex  2.414235e+001  2.598748e+001  0.000000e+000
    endloop
  endfacet
  facet normal -1.000000e+000  0.000000e+000  0.000000e+000
    outer loop
      vertex  2.414235e+001  2.598748e+001  0.000000e+000
      vertex  2.414235e+001  1.098748e+001  2.000000e+000
      vertex  2.414235e+001  2.598748e+001  2.000000e+000
    endloop
  endfacet
  facet normal  1.000000e+000  0.000000e+000  0.000000e+000
    outer loop
      vertex -2.414235e+001  2.598748e+001  0.000000e+000
      vertex -2.414235e+001  2.598748e+001  2.000000e+000
      vertex -2.414235e+001  1.098748e+001  0.000000e+000
    endloop
  endfacet
  facet normal  1.000000e+000  0.000000e+000  0.000000e+000
    outer loop
      vertex -2.414235e+001  1.098748e+001  0.000000e+000
      vertex -2.414235e+001  2.598748e+001  2.000000e+000
      vertex -2.414235e+001  1.098748e+001  2.000000e+000
    endloop
  endfacet
  facet normal  0.000000e+000 -1.000000e+000  -0.000000e+000
    outer loop
      vertex -2.194235e+001  2.598748e+001  0.000000e+000
      vertex -2.194235e+001  2.598748e+001  2.000000e+000
      vertex -2.414235e+001  2.598748e+001  0.000000e+000
    endloop
  endfacet
  facet normal  0.000000e+000 -1.000000e+000  0.000000e+000
    outer loop
      vertex -2.414235e+001  2.598748e+001  0.000000e+000
      vertex -2.194235e+001  2.598748e+001  2.000000e+000
      vertex -2.414235e+001  2.598748e+001  2.000000e+000
    endloop
  endfacet
  facet normal -1.000000e+000  0.000000e+000  0.000000e+000
    outer loop
      vertex -2.194235e+001  1.098748e+001  0.000000e+000
      vertex -2.194235e+001  1.098748e+001  2.000000e+000
      vertex -2.194235e+001  2.598748e+001  0.000000e+000
    endloop
  endfacet
  facet normal -1.000000e+000  0.000000e+000  0.000000e+000
    outer loop
      vertex -2.194235e+001  2.598748e+001  0.000000e+000
      vertex -2.194235e+001  1.098748e+001  2.000000e+000
      vertex -2.194235e+001  2.598748e+001  2.000000e+000
    endloop
  endfacet
  facet normal  0.000000e+000 -1.000000e+000  -0.000000e+000
    outer loop
      vertex  3.800510e+001 -2.779669e+001  0.000000e+000
      vertex  3.800510e+001 -2.779669e+001  2.000000e+000
      vertex  3.580510e+001 -2.779669e+001  0.000000e+000
    endloop
  endfacet
  facet normal  0.000000e+000 -1.000000e+000  0.000000e+000
    outer loop
      vertex  3.580510e+001 -2.779669e+001  0.000000e+000
      vertex  3.800510e+001 -2.779669e+001  2.000000e+000
      vertex  3.580510e+001 -2.779669e+001  2.000000e+000
    endloop
  endfacet
  facet normal -1.000000e+000  0.000000e+000  0.000000e+000
    outer loop
      vertex  3.800510e+001 -4.279668e+001  0.000000e+000
      vertex  3.800510e+001 -4.279668e+001  2.000000e+000
      vertex  3.800510e+001 -2.779669e+001  0.000000e+000
    endloop
  endfacet
  facet normal -1.000000e+000  0.000000e+000  0.000000e+000
    outer loop
      vertex  3.800510e+001 -2.779669e+001  0.000000e+000
      vertex  3.800510e+001 -4.279668e+001  2.000000e+000
      vertex  3.800510e+001 -2.779669e+001  2.000000e+000
    endloop
  endfacet
  facet normal  1.000000e+000  0.000000e+000  0.000000e+000
    outer loop
      vertex  3.580510e+001 -2.779669e+001  0.000000e+000
      vertex  3.580510e+001 -2.779669e+001  2.000000e+000
      vertex  3.580510e+001 -4.279668e+001  0.000000e+000
    endloop
  endfacet
  facet normal  1.000000e+000  0.000000e+000  0.000000e+000
    outer loop
      vertex  3.580510e+001 -4.279668e+001  0.000000e+000
      vertex  3.580510e+001 -2.779669e+001  2.000000e+000
      vertex  3.580510e+001 -4.279668e+001  2.000000e+000
    endloop
  endfacet
  facet normal  1.000000e+000  0.000000e+000  0.000000e+000
    outer loop
      vertex -1.724416e+001 -2.779669e+001  0.000000e+000
      vertex -1.724416e+001 -2.779669e+001  2.000000e+000
      vertex -1.724416e+001 -4.279668e+001  0.000000e+000
    endloop
  endfacet
  facet normal  1.000000e+000  0.000000e+000  0.000000e+000
    outer loop
      vertex -1.724416e+001 -4.279668e+001  0.000000e+000
      vertex -1.724416e+001 -2.779669e+001  2.000000e+000
      vertex -1.724416e+001 -4.279668e+001  2.000000e+000
    endloop
  endfacet
  facet normal  0.000000e+000 -1.000000e+000  -0.000000e+000
    outer loop
      vertex -1.504416e+001 -2.779669e+001  0.000000e+000
      vertex -1.504416e+001 -2.779669e+001  2.000000e+000
      vertex -1.724416e+001 -2.779669e+001  0.000000e+000
    endloop
  endfacet
  facet normal  0.000000e+000 -1.000000e+000  0.000000e+000
    outer loop
      vertex -1.724416e+001 -2.779669e+001  0.000000e+000
      vertex -1.504416e+001 -2.779669e+001  2.000000e+000
      vertex -1.724416e+001 -2.779669e+001  2.000000e+000
    endloop
  endfacet
  facet normal -1.000000e+000  0.000000e+000  0.000000e+000
    outer loop
      vertex -1.504416e+001 -4.279668e+001  0.000000e+000
      vertex -1.504416e+001 -4.279668e+001  2.000000e+000
      vertex -1.504416e+001 -2.779669e+001  0.000000e+000
    endloop
  endfacet
  facet normal -1.000000e+000  0.000000e+000  0.000000e+000
    outer loop
      vertex -1.504416e+001 -2.779669e+001  0.000000e+000
      vertex -1.504416e+001 -4.279668e+001  2.000000e+000
      vertex -1.504416e+001 -2.779669e+001  2.000000e+000
    endloop
  endfacet
  facet normal  0.000000e+000  1.000000e+000  -0.000000e+000
    outer loop
      vertex  1.854235e+001  6.598747e+001  2.000000e+000
      vertex  1.854235e+001  6.598747e+001  0.000000e+000
      vertex  3.542349e+000  6.598747e+001  2.000000e+000
    endloop
  endfacet
  facet normal  0.000000e+000  1.000000e+000  0.000000e+000
    outer loop
      vertex  3.542349e+000  6.598747e+001  2.000000e+000
      vertex  1.854235e+001  6.598747e+001  0.000000e+000
      vertex  3.542349e+000  6.598747e+001  0.000000e+000
    endloop
  endfacet
  facet normal  1.000000e+000  0.000000e+000  0.000000e+000
    outer loop
      vertex  1.854235e+001  6.598747e+001  0.000000e+000
      vertex  1.854235e+001  6.598747e+001  2.000000e+000
      vertex  1.854235e+001  4.098748e+001  0.000000e+000
    endloop
  endfacet
  facet normal  1.000000e+000  0.000000e+000  0.000000e+000
    outer loop
      vertex  1.854235e+001  4.098748e+001  0.000000e+000
      vertex  1.854235e+001  6.598747e+001  2.000000e+000
      vertex  1.854235e+001  4.098748e+001  2.000000e+000
    endloop
  endfacet
  facet normal  0.000000e+000  1.000000e+000  -0.000000e+000
    outer loop
      vertex  2.754235e+001  4.098748e+001  2.000000e+000
      vertex  2.754235e+001  4.098748e+001  0.000000e+000
      vertex  1.854235e+001  4.098748e+001  2.000000e+000
    endloop
  endfacet
  facet normal  0.000000e+000  1.000000e+000  0.000000e+000
    outer loop
      vertex  1.854235e+001  4.098748e+001  2.000000e+000
      vertex  2.754235e+001  4.098748e+001  0.000000e+000
      vertex  1.854235e+001  4.098748e+001  0.000000e+000
    endloop
  endfacet
  facet normal -1.000000e+000  0.000000e+000  0.000000e+000
    outer loop
      vertex  2.754235e+001  4.098748e+001  0.000000e+000
      vertex  2.754235e+001  4.098748e+001  2.000000e+000
      vertex  2.754235e+001  6.598748e+001  0.000000e+000
    endloop
  endfacet
  facet normal -1.000000e+000  0.000000e+000  0.000000e+000
    outer loop
      vertex  2.754235e+001  6.598748e+001  0.000000e+000
      vertex  2.754235e+001  4.098748e+001  2.000000e+000
      vertex  2.754235e+001  6.598748e+001  2.000000e+000
    endloop
  endfacet
  facet normal  0.000000e+000  1.000000e+000  -0.000000e+000
    outer loop
      vertex  4.254235e+001  6.598748e+001  2.000000e+000
      vertex  4.254235e+001  6.598748e+001  0.000000e+000
      vertex  2.754235e+001  6.598748e+001  2.000000e+000
    endloop
  endfacet
  facet normal  0.000000e+000  1.000000e+000  0.000000e+000
    outer loop
      vertex  2.754235e+001  6.598748e+001  2.000000e+000
      vertex  4.254235e+001  6.598748e+001  0.000000e+000
      vertex  2.754235e+001  6.598748e+001  0.000000e+000
    endloop
  endfacet
  facet normal  0.000000e+000  9.999999e-001  -0.000000e+000
    outer loop
      vertex -2.754235e+001  6.598747e+001  2.000000e+000
      vertex -2.754235e+001  6.598747e+001  0.000000e+000
      vertex -4.254235e+001  6.598747e+001  2.000000e+000
    endloop
  endfacet
  facet normal  0.000000e+000  9.999999e-001  0.000000e+000
    outer loop
      vertex -4.254235e+001  6.598747e+001  2.000000e+000
      vertex -2.754235e+001  6.598747e+001  0.000000e+000
      vertex -4.254235e+001  6.598747e+001  0.000000e+000
    endloop
  endfacet
  facet normal  1.000000e+000  0.000000e+000  0.000000e+000
    outer loop
      vertex -2.754235e+001  4.098748e+001  2.000000e+000
      vertex -2.754235e+001  4.098748e+001  0.000000e+000
      vertex -2.754235e+001  6.598747e+001  2.000000e+000
    endloop
  endfacet
  facet normal  1.000000e+000  0.000000e+000  0.000000e+000
    outer loop
      vertex -2.754235e+001  6.598747e+001  2.000000e+000
      vertex -2.754235e+001  4.098748e+001  0.000000e+000
      vertex -2.754235e+001  6.598747e+001  0.000000e+000
    endloop
  endfacet
  facet normal  0.000000e+000  1.000000e+000  -0.000000e+000
    outer loop
      vertex -1.854235e+001  4.098748e+001  2.000000e+000
      vertex -1.854235e+001  4.098748e+001  0.000000e+000
      vertex -2.754235e+001  4.098748e+001  2.000000e+000
    endloop
  endfacet
  facet normal  0.000000e+000  1.000000e+000  0.000000e+000
    outer loop
      vertex -2.754235e+001  4.098748e+001  2.000000e+000
      vertex -1.854235e+001  4.098748e+001  0.000000e+000
      vertex -2.754235e+001  4.098748e+001  0.000000e+000
    endloop
  endfacet
  facet normal -1.000000e+000  0.000000e+000  0.000000e+000
    outer loop
      vertex -1.854235e+001  6.598747e+001  2.000000e+000
      vertex -1.854235e+001  6.598747e+001  0.000000e+000
      vertex -1.854235e+001  4.098748e+001  2.000000e+000
    endloop
  endfacet
  facet normal -1.000000e+000  0.000000e+000  0.000000e+000
    outer loop
      vertex -1.854235e+001  4.098748e+001  2.000000e+000
      vertex -1.854235e+001  6.598747e+001  0.000000e+000
      vertex -1.854235e+001  4.098748e+001  0.000000e+000
    endloop
  endfacet
  facet normal  0.000000e+000  1.000000e+000  -0.000000e+000
    outer loop
      vertex -3.542349e+000  6.598747e+001  2.000000e+000
      vertex -3.542349e+000  6.598747e+001  0.000000e+000
      vertex -1.854235e+001  6.598747e+001  2.000000e+000
    endloop
  endfacet
  facet normal  0.000000e+000  1.000000e+000  0.000000e+000
    outer loop
      vertex -1.854235e+001  6.598747e+001  2.000000e+000
      vertex -3.542349e+000  6.598747e+001  0.000000e+000
      vertex -1.854235e+001  6.598747e+001  0.000000e+000
    endloop
  endfacet
  facet normal  4.529638e-001 -8.915290e-001  0.000000e+000
    outer loop
      vertex -4.988674e+001 -1.216330e+001  0.000000e+000
      vertex -4.810368e+001 -1.125737e+001  0.000000e+000
      vertex -4.988674e+001 -1.216330e+001  2.000000e+000
    endloop
  endfacet
  facet normal  4.529638e-001 -8.915290e-001  0.000000e+000
    outer loop
      vertex -4.988674e+001 -1.216330e+001  2.000000e+000
      vertex -4.810368e+001 -1.125737e+001  0.000000e+000
      vertex -4.810368e+001 -1.125737e+001  2.000000e+000
    endloop
  endfacet
  facet normal  8.915294e-001  4.529630e-001  0.000000e+000
    outer loop
      vertex -4.898081e+001 -1.394636e+001  0.000000e+000
      vertex -4.988674e+001 -1.216330e+001  0.000000e+000
      vertex -4.898081e+001 -1.394636e+001  2.000000e+000
    endloop
  endfacet
  facet normal  8.915294e-001  4.529630e-001  0.000000e+000
    outer loop
      vertex -4.898081e+001 -1.394636e+001  2.000000e+000
      vertex -4.988674e+001 -1.216330e+001  0.000000e+000
      vertex -4.988674e+001 -1.216330e+001  2.000000e+000
    endloop
  endfacet
  facet normal -4.529642e-001  8.915288e-001  0.000000e+000
    outer loop
      vertex -4.719775e+001 -1.304043e+001  0.000000e+000
      vertex -4.898081e+001 -1.394636e+001  0.000000e+000
      vertex -4.719775e+001 -1.304043e+001  2.000000e+000
    endloop
  endfacet
  facet normal -4.529642e-001  8.915288e-001  0.000000e+000
    outer loop
      vertex -4.719775e+001 -1.304043e+001  2.000000e+000
      vertex -4.898081e+001 -1.394636e+001  0.000000e+000
      vertex -4.898081e+001 -1.394636e+001  2.000000e+000
    endloop
  endfacet
  facet normal -8.915293e-001 -4.529632e-001  0.000000e+000
    outer loop
      vertex -4.810368e+001 -1.125737e+001  0.000000e+000
      vertex -4.719775e+001 -1.304043e+001  0.000000e+000
      vertex -4.810368e+001 -1.125737e+001  2.000000e+000
    endloop
  endfacet
  facet normal -8.915293e-001 -4.529632e-001  0.000000e+000
    outer loop
      vertex -4.810368e+001 -1.125737e+001  2.000000e+000
      vertex -4.719775e+001 -1.304043e+001  0.000000e+000
      vertex -4.719775e+001 -1.304043e+001  2.000000e+000
    endloop
  endfacet
  facet normal -9.896648e-001 -1.434002e-001  0.000000e+000
    outer loop
      vertex -2.496528e+001 -2.401713e+001  2.000000e+000
      vertex -2.496528e+001 -2.401713e+001  0.000000e+000
      vertex -2.224416e+001 -4.279668e+001  2.000000e+000
    endloop
  endfacet
  facet normal -9.896648e-001 -1.434002e-001  -0.000000e+000
    outer loop
      vertex -2.224416e+001 -4.279668e+001  2.000000e+000
      vertex -2.496528e+001 -2.401713e+001  0.000000e+000
      vertex -2.224416e+001 -4.279668e+001  0.000000e+000
    endloop
  endfacet
  facet normal -6.172815e-001 -7.867423e-001  0.000000e+000
    outer loop
      vertex -3.329126e+001 -1.748453e+001  2.000000e+000
      vertex -3.329126e+001 -1.748453e+001  0.000000e+000
      vertex -2.496528e+001 -2.401713e+001  2.000000e+000
    endloop
  endfacet
  facet normal -6.172815e-001 -7.867423e-001  -0.000000e+000
    outer loop
      vertex -2.496528e+001 -2.401713e+001  2.000000e+000
      vertex -3.329126e+001 -1.748453e+001  0.000000e+000
      vertex -2.496528e+001 -2.401713e+001  0.000000e+000
    endloop
  endfacet
  facet normal  3.022016e-001 -9.532440e-001  0.000000e+000
    outer loop
      vertex -5.288033e+001 -2.369475e+001  2.000000e+000
      vertex -5.288033e+001 -2.369475e+001  0.000000e+000
      vertex -3.329126e+001 -1.748453e+001  2.000000e+000
    endloop
  endfacet
  facet normal  3.022016e-001 -9.532440e-001  0.000000e+000
    outer loop
      vertex -3.329126e+001 -1.748453e+001  2.000000e+000
      vertex -5.288033e+001 -2.369475e+001  0.000000e+000
      vertex -3.329126e+001 -1.748453e+001  0.000000e+000
    endloop
  endfacet
  facet normal -6.036455e-001 -7.972528e-001  0.000000e+000
    outer loop
      vertex -5.957423e+001 -1.862641e+001  2.000000e+000
      vertex -5.957423e+001 -1.862641e+001  0.000000e+000
      vertex -5.288033e+001 -2.369475e+001  2.000000e+000
    endloop
  endfacet
  facet normal -6.036455e-001 -7.972528e-001  -0.000000e+000
    outer loop
      vertex -5.288033e+001 -2.369475e+001  2.000000e+000
      vertex -5.957423e+001 -1.862641e+001  0.000000e+000
      vertex -5.288033e+001 -2.369475e+001  0.000000e+000
    endloop
  endfacet
  facet normal -6.304039e-001  7.762673e-001  0.000000e+000
    outer loop
      vertex -5.311356e+001 -1.337973e+001  2.000000e+000
      vertex -5.311356e+001 -1.337973e+001  0.000000e+000
      vertex -5.957423e+001 -1.862641e+001  2.000000e+000
    endloop
  endfacet
  facet normal -6.304039e-001  7.762673e-001  0.000000e+000
    outer loop
      vertex -5.957423e+001 -1.862641e+001  2.000000e+000
      vertex -5.311356e+001 -1.337973e+001  0.000000e+000
      vertex -5.957423e+001 -1.862641e+001  0.000000e+000
    endloop
  endfacet
  facet normal -9.918705e-001  1.272516e-001  0.000000e+000
    outer loop
      vertex -5.311356e+001 -1.337973e+001  0.000000e+000
      vertex -5.311356e+001 -1.337973e+001  2.000000e+000
      vertex -5.271703e+001 -1.028889e+001  0.000000e+000
    endloop
  endfacet
  facet normal -9.918705e-001  1.272516e-001  0.000000e+000
    outer loop
      vertex -5.271703e+001 -1.028889e+001  0.000000e+000
      vertex -5.311356e+001 -1.337973e+001  2.000000e+000
      vertex -5.271703e+001 -1.028889e+001  2.000000e+000
    endloop
  endfacet
  facet normal -5.686677e-001  8.225672e-001  0.000000e+000
    outer loop
      vertex -5.271703e+001 -1.028889e+001  0.000000e+000
      vertex -5.271703e+001 -1.028889e+001  2.000000e+000
      vertex -4.837875e+001 -7.289696e+000  0.000000e+000
    endloop
  endfacet
  facet normal -5.686677e-001  8.225672e-001  0.000000e+000
    outer loop
      vertex -4.837875e+001 -7.289696e+000  0.000000e+000
      vertex -5.271703e+001 -1.028889e+001  2.000000e+000
      vertex -4.837875e+001 -7.289696e+000  2.000000e+000
    endloop
  endfacet
  facet normal -9.157366e-001  4.017793e-001  0.000000e+000
    outer loop
      vertex -4.837875e+001 -7.289696e+000  0.000000e+000
      vertex -4.837875e+001 -7.289696e+000  2.000000e+000
      vertex -4.756443e+001 -5.433688e+000  0.000000e+000
    endloop
  endfacet
  facet normal -9.157366e-001  4.017793e-001  0.000000e+000
    outer loop
      vertex -4.756443e+001 -5.433688e+000  0.000000e+000
      vertex -4.837875e+001 -7.289696e+000  2.000000e+000
      vertex -4.756443e+001 -5.433688e+000  2.000000e+000
    endloop
  endfacet
  facet normal -9.364164e-003  9.999562e-001  0.000000e+000
    outer loop
      vertex -4.544110e+001 -5.413804e+000  2.000000e+000
      vertex -4.544110e+001 -5.413804e+000  0.000000e+000
      vertex -4.756443e+001 -5.433688e+000  2.000000e+000
    endloop
  endfacet
  facet normal -9.364164e-003  9.999562e-001  0.000000e+000
    outer loop
      vertex -4.756443e+001 -5.433688e+000  2.000000e+000
      vertex -4.544110e+001 -5.413804e+000  0.000000e+000
      vertex -4.756443e+001 -5.433688e+000  0.000000e+000
    endloop
  endfacet
  facet normal -3.914243e-001  9.202104e-001  0.000000e+000
    outer loop
      vertex -3.509015e+001 -1.010884e+000  2.000000e+000
      vertex -3.509015e+001 -1.010884e+000  0.000000e+000
      vertex -4.544110e+001 -5.413804e+000  2.000000e+000
    endloop
  endfacet
  facet normal -3.914243e-001  9.202104e-001  0.000000e+000
    outer loop
      vertex -4.544110e+001 -5.413804e+000  2.000000e+000
      vertex -3.509015e+001 -1.010884e+000  0.000000e+000
      vertex -4.544110e+001 -5.413804e+000  0.000000e+000
    endloop
  endfacet
  facet normal -3.265989e-001  9.451630e-001  0.000000e+000
    outer loop
      vertex -2.395008e+001  2.838541e+000  2.000000e+000
      vertex -2.395008e+001  2.838541e+000  0.000000e+000
      vertex -3.509015e+001 -1.010884e+000  2.000000e+000
    endloop
  endfacet
  facet normal -3.265989e-001  9.451630e-001  0.000000e+000
    outer loop
      vertex -3.509015e+001 -1.010884e+000  2.000000e+000
      vertex -2.395008e+001  2.838541e+000  0.000000e+000
      vertex -3.509015e+001 -1.010884e+000  0.000000e+000
    endloop
  endfacet
  facet normal  9.670598e-002  9.953130e-001  0.000000e+000
    outer loop
      vertex -2.395008e+001  2.838541e+000  0.000000e+000
      vertex -2.395008e+001  2.838541e+000  2.000000e+000
      vertex -1.070747e+001  1.551870e+000  0.000000e+000
    endloop
  endfacet
  facet normal  9.670598e-002  9.953130e-001  -0.000000e+000
    outer loop
      vertex -1.070747e+001  1.551870e+000  0.000000e+000
      vertex -2.395008e+001  2.838541e+000  2.000000e+000
      vertex -1.070747e+001  1.551870e+000  2.000000e+000
    endloop
  endfacet
  facet normal -2.111426e-001  9.774553e-001  0.000000e+000
    outer loop
      vertex -1.070747e+001  1.551870e+000  0.000000e+000
      vertex -1.070747e+001  1.551870e+000  2.000000e+000
      vertex  1.559367e+001  7.233245e+000  0.000000e+000
    endloop
  endfacet
  facet normal -2.111426e-001  9.774553e-001  0.000000e+000
    outer loop
      vertex  1.559367e+001  7.233245e+000  0.000000e+000
      vertex -1.070747e+001  1.551870e+000  2.000000e+000
      vertex  1.559367e+001  7.233245e+000  2.000000e+000
    endloop
  endfacet
  facet normal  3.143247e-001  9.493156e-001  -0.000000e+000
    outer loop
      vertex  4.700510e+001 -3.167288e+000  2.000000e+000
      vertex  4.700510e+001 -3.167288e+000  0.000000e+000
      vertex  1.559367e+001  7.233245e+000  2.000000e+000
    endloop
  endfacet
  facet normal  3.143247e-001  9.493156e-001  0.000000e+000
    outer loop
      vertex  1.559367e+001  7.233245e+000  2.000000e+000
      vertex  4.700510e+001 -3.167288e+000  0.000000e+000
      vertex  1.559367e+001  7.233245e+000  0.000000e+000
    endloop
  endfacet
  facet normal  1.000000e+000  0.000000e+000  0.000000e+000
    outer loop
      vertex  4.700510e+001 -3.167288e+000  0.000000e+000
      vertex  4.700510e+001 -3.167288e+000  2.000000e+000
      vertex  4.700510e+001 -1.516729e+001  0.000000e+000
    endloop
  endfacet
  facet normal  1.000000e+000  0.000000e+000  0.000000e+000
    outer loop
      vertex  4.700510e+001 -1.516729e+001  0.000000e+000
      vertex  4.700510e+001 -3.167288e+000  2.000000e+000
      vertex  4.700510e+001 -1.516729e+001  2.000000e+000
    endloop
  endfacet
  facet normal  0.000000e+000 -1.000000e+000  0.000000e+000
    outer loop
      vertex  4.500510e+001 -1.516729e+001  0.000000e+000
      vertex  4.700510e+001 -1.516729e+001  0.000000e+000
      vertex  4.500510e+001 -1.516729e+001  2.000000e+000
    endloop
  endfacet
  facet normal  0.000000e+000 -1.000000e+000  0.000000e+000
    outer loop
      vertex  4.500510e+001 -1.516729e+001  2.000000e+000
      vertex  4.700510e+001 -1.516729e+001  0.000000e+000
      vertex  4.700510e+001 -1.516729e+001  2.000000e+000
    endloop
  endfacet
  facet normal -1.000000e+000  0.000000e+000  0.000000e+000
    outer loop
      vertex  4.500510e+001 -1.516729e+001  0.000000e+000
      vertex  4.500510e+001 -1.516729e+001  2.000000e+000
      vertex  4.500510e+001 -5.549560e+000  0.000000e+000
    endloop
  endfacet
  facet normal -1.000000e+000  0.000000e+000  0.000000e+000
    outer loop
      vertex  4.500510e+001 -5.549560e+000  0.000000e+000
      vertex  4.500510e+001 -1.516729e+001  2.000000e+000
      vertex  4.500510e+001 -5.549560e+000  2.000000e+000
    endloop
  endfacet
  facet normal  0.000000e+000 -1.000000e+000  0.000000e+000
    outer loop
      vertex  4.400510e+001 -5.549560e+000  0.000000e+000
      vertex  4.500510e+001 -5.549560e+000  0.000000e+000
      vertex  4.400510e+001 -5.549560e+000  2.000000e+000
    endloop
  endfacet
  facet normal  0.000000e+000 -1.000000e+000  0.000000e+000
    outer loop
      vertex  4.400510e+001 -5.549560e+000  2.000000e+000
      vertex  4.500510e+001 -5.549560e+000  0.000000e+000
      vertex  4.500510e+001 -5.549560e+000  2.000000e+000
    endloop
  endfacet
  facet normal  1.000000e+000  0.000000e+000  0.000000e+000
    outer loop
      vertex  4.400510e+001 -4.279668e+001  2.000000e+000
      vertex  4.400510e+001 -4.279668e+001  0.000000e+000
      vertex  4.400510e+001 -5.549560e+000  2.000000e+000
    endloop
  endfacet
  facet normal  1.000000e+000  0.000000e+000  0.000000e+000
    outer loop
      vertex  4.400510e+001 -5.549560e+000  2.000000e+000
      vertex  4.400510e+001 -4.279668e+001  0.000000e+000
      vertex  4.400510e+001 -5.549560e+000  0.000000e+000
    endloop
  endfacet
endsolid CATIA STL
