solid 黑熊2015-3列印d
facet normal -0.8639919394834271 0.5020078928214137 -0.03880726803925338
  outer loop
    vertex -91.594672218288 65.51670252941956 5.999570514567393
    vertex -93.56346961527045 62.14045476658891 6.157325922677085
    vertex -91.91144610745792 64.97786361545609 6.081738089708809
  endloop
endfacet
facet normal 0.8620670747301951 -0.5067941975456426 4.3886790523945064e-07
  outer loop
    vertex -90.49744930894367 67.38309758689948 9.427070001649165
    vertex -92.65494484539096 63.71315693939276 9.621613560707502
    vertex -92.69668598688759 63.642154499557954 9.422663293231759
  endloop
endfacet
facet normal 0.8620670747301951 -0.5067941975456426 4.3886790523945064e-07
  outer loop
    vertex -92.65494484539096 63.71315693939276 9.621613560707502
    vertex -90.49744930894367 67.38309758689948 9.427070001649165
    vertex -92.46049483670933 64.04392041166057 10.121842810155108
  endloop
endfacet
facet normal 0.8620670747301951 -0.5067941975456426 4.3886790523945064e-07
  outer loop
    vertex -92.46049483670933 64.04392041166057 10.121842810155108
    vertex -90.49744930894367 67.38309758689948 9.427070001649165
    vertex -92.20705650304157 64.4750242404328 10.505721804515922
  endloop
endfacet
facet normal 0.8620670747301951 -0.5067941975456426 4.3886790523945064e-07
  outer loop
    vertex -92.20705650304157 64.4750242404328 10.505721804515922
    vertex -90.49744930894367 67.38309758689948 9.427070001649165
    vertex -91.91190124800062 64.97708941221124 10.747089824714553
  endloop
endfacet
facet normal 0.8620670747301951 -0.5067941975456426 4.3886790523945064e-07
  outer loop
    vertex -91.91190124800062 64.97708941221124 10.747089824714553
    vertex -90.49744930894367 67.38309758689948 9.427070001649165
    vertex -91.59514341445046 65.51590101524128 10.829498039053652
  endloop
endfacet
facet normal 0.8620670747301951 -0.5067941975456426 4.3886790523945064e-07
  outer loop
    vertex -91.59514341445046 65.51590101524128 10.829498039053652
    vertex -90.49744930894367 67.38309758689948 9.427070001649165
    vertex -91.27836952528043 66.0547399292049 10.747330463912327
  endloop
endfacet
facet normal 0.8620670747301951 -0.5067941975456426 4.3886790523945064e-07
  outer loop
    vertex -91.27836952528043 66.0547399292049 10.747330463912327
    vertex -90.49744930894367 67.38309758689948 9.427070001649165
    vertex -90.9831671975439 66.55688517258845 10.50618668374796
  endloop
endfacet
facet normal 0.8620670747301951 -0.5067941975456426 4.3886790523945064e-07
  outer loop
    vertex -90.9831671975439 66.55688517258845 10.50618668374796
    vertex -90.49744930894367 67.38309758689948 9.427070001649165
    vertex -90.72965398203115 66.9881163768897 10.12250024866985
  endloop
endfacet
facet normal 0.8620670747301951 -0.5067941975456426 4.3886790523945064e-07
  outer loop
    vertex -90.72965398203115 66.9881163768897 10.12250024866985
    vertex -90.49744930894367 67.38309758689948 9.427070001649165
    vertex -90.53510638542886 67.31904584817897 9.622418755156673
  endloop
endfacet
facet normal -0.8620671463503606 0.5067940757184777 -1.4281578377442229e-09
  outer loop
    vertex -92.02345580896353 64.7600499203831 4.323528504880114
    vertex -92.17157567495242 64.50809498047617 3.8319975416277563
    vertex -92.72616552330697 63.564726243724884 4.505803478167239
  endloop
endfacet
facet normal 0.47547253492355257 0.8673123317226593 0.1472928639655528
  outer loop
    vertex -93.85952332545752 61.63686204257106 8.413669534760208
    vertex -99.73567616374248 65.05908306714194 7.231092143135562
    vertex -99.82327833940242 64.91007071137729 8.391315915412491
  endloop
endfacet
facet normal 0.44664706084548345 0.7901019166411887 0.4198158695880983
  outer loop
    vertex -99.73567616374248 65.05908306714194 7.231092143135562
    vertex -93.56346961527045 62.14045476658891 6.157325922677085
    vertex -99.47489358837919 65.50267957734128 6.118784920953289
  endloop
endfacet
facet normal -0.8656411769881914 0.5005776298840541 -0.009348217057903155
  outer loop
    vertex -92.20664843519462 64.4757183720725 6.322881869873085
    vertex -93.79691268910985 61.743363299483704 7.2687728551245385
    vertex -92.46016165070735 64.04448716777115 6.706568304951285
  endloop
endfacet
facet normal 0.4841541157245536 0.8683840818504279 0.10725613556233124
  outer loop
    vertex -93.85952332545752 61.63686204257106 8.413669534760208
    vertex -93.79691268910985 61.743363299483704 7.2687728551245385
    vertex -99.73567616374248 65.05908306714194 7.231092143135562
  endloop
endfacet
facet normal 0.43595184880474436 0.7408635981931231 -0.5109472716397105
  outer loop
    vertex -97.67463482451483 65.09545444630406 -0.01139498148288922
    vertex -98.03307459398977 67.95524273750033 3.831343961505217
    vertex -88.1850982273959 59.51672183867648 -0.0025697060219719956
  endloop
endfacet
facet normal 0.43595184880474436 0.7408635981931231 -0.5109472716397105
  outer loop
    vertex -98.03307459398977 67.95524273750033 3.831343961505217
    vertex -97.67463482451483 65.09545444630406 -0.01139498148288922
    vertex -98.86770305042117 72.29723131227028 9.416933161023683
  endloop
endfacet
facet normal 0.43595184880474436 0.7408635981931231 -0.5109472716397105
  outer loop
    vertex -98.03307459398977 67.95524273750033 3.831343961505217
    vertex -98.86770305042117 72.29723131227028 9.416933161023683
    vertex -97.3734660525502 69.07725056011101 6.018131190532064
  endloop
endfacet
facet normal 0.43595184880474436 0.7408635981931231 -0.5109472716397105
  outer loop
    vertex -97.3734660525502 69.07725056011101 6.018131190532064
    vertex -98.86770305042117 72.29723131227028 9.416933161023683
    vertex -96.34709801722562 70.82311941384717 9.422027965497579
  endloop
endfacet
facet normal 0.43595184880474436 0.7408635981931231 -0.5109472716397105
  outer loop
    vertex -88.1850982273959 59.51672183867648 -0.0025697060219719956
    vertex -92.17157567495242 64.50809498047617 3.8319975416277563
    vertex -88.80622095275704 66.38226194734452 9.426290346186736
  endloop
endfacet
facet normal 0.43595184880474436 0.7408635981931231 -0.5109472716397105
  outer loop
    vertex -92.17157567495242 64.50809498047617 3.8319975416277563
    vertex -88.1850982273959 59.51672183867648 -0.0025697060219719956
    vertex -98.03307459398977 67.95524273750033 3.831343961505217
  endloop
endfacet
facet normal 0.43595184880474436 0.7408635981931231 -0.5109472716397105
  outer loop
    vertex -88.80622095275704 66.38226194734452 9.426290346186736
    vertex -92.17157567495242 64.50809498047617 3.8319975416277563
    vertex -92.02345580896353 64.7600499203831 4.323528504880114
  endloop
endfacet
facet normal 0.43595184880474436 0.7408635981931231 -0.5109472716397105
  outer loop
    vertex -88.80622095275704 66.38226194734452 9.426290346186736
    vertex -92.02345580896353 64.7600499203831 4.323528504880114
    vertex -91.96844162405719 64.85363018093499 4.506091290223739
  endloop
endfacet
facet normal 0.43595184880474436 0.7408635981931231 -0.5109472716397105
  outer loop
    vertex -88.80622095275704 66.38226194734452 9.426290346186736
    vertex -91.96844162405719 64.85363018093499 4.506091290223739
    vertex -91.85740075881863 65.04251297759173 4.87457679408706
  endloop
endfacet
facet normal 0.43595184880474436 0.7408635981931231 -0.5109472716397105
  outer loop
    vertex -88.80622095275704 66.38226194734452 9.426290346186736
    vertex -91.85740075881863 65.04251297759173 4.87457679408706
    vertex -91.75229731153678 65.22129610413033 5.2233591693532055
  endloop
endfacet
facet normal 0.43595184880474436 0.7408635981931231 -0.5109472716397105
  outer loop
    vertex -88.80622095275704 66.38226194734452 9.426290346186736
    vertex -91.75229731153678 65.22129610413033 5.2233591693532055
    vertex -91.62256345480341 65.44197606396553 5.653876758206003
  endloop
endfacet
facet normal 0.43595184880474436 0.7408635981931231 -0.5109472716397105
  outer loop
    vertex -88.80622095275704 66.38226194734452 9.426290346186736
    vertex -91.62256345480341 65.44197606396553 5.653876758206003
    vertex -91.53801916942184 65.61212182597953 5.972603017653578
  endloop
endfacet
facet normal 0.43595184880474436 0.7408635981931231 -0.5109472716397105
  outer loop
    vertex -88.80622095275704 66.38226194734452 9.426290346186736
    vertex -91.53801916942184 65.61212182597953 5.972603017653578
    vertex -91.52483166735165 65.63550272315024 6.017740339150942
  endloop
endfacet
facet normal 0.43595184880474436 0.7408635981931231 -0.5109472716397105
  outer loop
    vertex -88.80622095275704 66.38226194734452 9.426290346186736
    vertex -91.52483166735165 65.63550272315024 6.017740339150942
    vertex -90.49744930894367 67.38309758689948 9.427070001649165
  endloop
endfacet
facet normal 0.8620670994084003 -0.5067941555677091 -1.3977745124940243e-08
  outer loop
    vertex -98.58822208678998 67.01092601253183 4.505803476215011
    vertex -98.66135063075043 66.88653290799431 8.414072247543727
    vertex -99.08536746750686 66.16527150696913 5.197126597150037
  endloop
endfacet
facet normal 0.8620670994084003 -0.5067941555677091 -1.3977745124940243e-08
  outer loop
    vertex -98.66135063075043 66.88653290799431 8.414072247543727
    vertex -98.58822208678998 67.01092601253183 4.505803476215011
    vertex -98.62716997352406 66.94467438021563 7.789046592493711
  endloop
endfacet
facet normal 0.8620670994084003 -0.5067941555677091 -1.3977745124940243e-08
  outer loop
    vertex -98.62716997352406 66.94467438021563 7.789046592493711
    vertex -98.58822208678998 67.01092601253183 4.505803476215011
    vertex -98.50484609303555 67.15274982191124 7.2066497679047785
  endloop
endfacet
facet normal 0.8620670994084003 -0.5067941555677091 -1.3977745124940243e-08
  outer loop
    vertex -98.50484609303555 67.15274982191124 7.2066497679047785
    vertex -98.58822208678998 67.01092601253183 4.505803476215011
    vertex -98.03307459398977 67.95524273750033 3.831343961505217
  endloop
endfacet
facet normal 0.8620670994084003 -0.5067941555677091 -1.3977745124940243e-08
  outer loop
    vertex -98.50484609303555 67.15274982191124 7.2066497679047785
    vertex -98.03307459398977 67.95524273750033 3.831343961505217
    vertex -98.31029849643345 67.48367929320051 6.706568274391692
  endloop
endfacet
facet normal 0.8620670994084003 -0.5067941555677091 -1.3977745124940243e-08
  outer loop
    vertex -98.31029849643345 67.48367929320051 6.706568274391692
    vertex -98.03307459398977 67.95524273750033 3.831343961505217
    vertex -98.05678528092056 67.91491049750185 6.322881839313582
  endloop
endfacet
facet normal 0.8620670994084003 -0.5067941555677091 -1.3977745124940243e-08
  outer loop
    vertex -98.05678528092056 67.91491049750185 6.322881839313582
    vertex -98.03307459398977 67.95524273750033 3.831343961505217
    vertex -97.76158295318392 68.41705574088539 6.081738059149216
  endloop
endfacet
facet normal 0.8620670994084003 -0.5067941555677091 -1.3977745124940243e-08
  outer loop
    vertex -97.76158295318392 68.41705574088539 6.081738059149216
    vertex -98.03307459398977 67.95524273750033 3.831343961505217
    vertex -97.44480906401387 68.95589465484888 5.9995704840078
  endloop
endfacet
facet normal 0.8620670994084003 -0.5067941555677091 -1.3977745124940243e-08
  outer loop
    vertex -97.44480906401387 68.95589465484888 5.9995704840078
    vertex -98.03307459398977 67.95524273750033 3.831343961505217
    vertex -97.3734660525502 69.07725056011101 6.018131190532064
  endloop
endfacet
facet normal 0.8620670994084003 -0.5067941555677091 -1.3977745124940243e-08
  outer loop
    vertex -99.73567616374248 65.05908306714194 7.231092143135562
    vertex -99.78858446066917 64.96908485673671 9.4161301914575
    vertex -99.82327833940242 64.91007071137729 8.391315915412491
  endloop
endfacet
facet normal 0.8620670994084003 -0.5067941555677091 -1.3977745124940243e-08
  outer loop
    vertex -99.78858446066917 64.96908485673671 9.4161301914575
    vertex -99.73567616374248 65.05908306714194 7.231092143135562
    vertex -98.54796453312908 67.0794045742859 9.417221595584401
  endloop
endfacet
facet normal 0.8620670994084003 -0.5067941555677091 -1.3977745124940243e-08
  outer loop
    vertex -98.54796453312908 67.0794045742859 9.417221595584401
    vertex -99.73567616374248 65.05908306714194 7.231092143135562
    vertex -99.47489358837919 65.50267957734128 6.118784920953289
  endloop
endfacet
facet normal 0.8620670994084003 -0.5067941555677091 -1.3977745124940243e-08
  outer loop
    vertex -98.54796453312908 67.0794045742859 9.417221595584401
    vertex -99.47489358837919 65.50267957734128 6.118784920953289
    vertex -98.62729192806486 66.94446693308133 9.039123822295723
  endloop
endfacet
facet normal 0.8620670994084003 -0.5067941555677091 -1.3977745124940243e-08
  outer loop
    vertex -98.62729192806486 66.94446693308133 9.039123822295723
    vertex -99.47489358837919 65.50267957734128 6.118784920953289
    vertex -99.08536746750686 66.16527150696913 5.197126597150037
  endloop
endfacet
facet normal 0.8620670994084003 -0.5067941555677091 -1.3977745124940243e-08
  outer loop
    vertex -98.62729192806486 66.94446693308133 9.039123822295723
    vertex -99.08536746750686 66.16527150696913 5.197126597150037
    vertex -98.66135063075043 66.88653290799431 8.414072247543727
  endloop
endfacet
facet normal 0.5023637685510893 0.8549046117745694 0.1294942037842637
  outer loop
    vertex -93.92623082125537 61.52339041558671 9.421582185519073
    vertex -93.85952332545752 61.63686204257106 8.413669534760208
    vertex -99.78858446066917 64.96908485673671 9.4161301914575
  endloop
endfacet
facet normal 0.4485088437559336 0.8076710042086358 0.38276280649160477
  outer loop
    vertex -93.79691268910985 61.743363299483704 7.2687728551245385
    vertex -93.56346961527045 62.14045476658891 6.157325922677085
    vertex -99.73567616374248 65.05908306714194 7.231092143135562
  endloop
endfacet
facet normal 0.4802676773226752 0.8745881519244534 -0.06662223827260881
  outer loop
    vertex -99.78858446066917 64.96908485673671 9.4161301914575
    vertex -93.85952332545752 61.63686204257106 8.413669534760208
    vertex -99.82327833940242 64.91007071137729 8.391315915412491
  endloop
endfacet
facet normal 0.3826222537022675 0.6659096290708627 0.6404409238036745
  outer loop
    vertex -99.47489358837919 65.50267957734128 6.118784920953289
    vertex -93.19991294075147 62.75887214481127 5.222809310451249
    vertex -99.08536746750686 66.16527150696913 5.197126597150037
  endloop
endfacet
facet normal -0.8645847969283863 0.502482683834262 -0.002069146446783986
  outer loop
    vertex -92.20664843519462 64.4757183720725 6.322881869873085
    vertex -93.56346961527045 62.14045476658891 6.157325922677085
    vertex -93.79691268910985 61.743363299483704 7.2687728551245385
  endloop
endfacet
facet normal 0.2859037354623176 0.5001369417219526 0.8173873583397931
  outer loop
    vertex -93.19991294075147 62.75887214481127 5.222809310451249
    vertex -98.58822208678998 67.01092601253183 4.505803476215011
    vertex -99.08536746750686 66.16527150696913 5.197126597150037
  endloop
endfacet
facet normal -0.8620671463504177 0.5067940757183806 -1.4290155645734996e-09
  outer loop
    vertex -91.96844162405719 64.85363018093499 4.506091290223739
    vertex -92.02345580896353 64.7600499203831 4.323528504880114
    vertex -92.72616552330697 63.564726243724884 4.505803478167239
  endloop
endfacet
facet normal -0.8632545201173755 0.50435084631759 0.02053916540783569
  outer loop
    vertex -91.52483166735165 65.63550272315024 6.017740339150942
    vertex -91.53801916942184 65.61212182597953 5.972603017653578
    vertex -91.594672218288 65.51670252941956 5.999570514567393
  endloop
endfacet
facet normal -0.0009561246555213266 -2.4468920032898794e-05 0.999999542613353
  outer loop
    vertex -91.42089247607535 30.981378183220304 9.423793175492245
    vertex -99.78858446066917 64.96908485673671 9.4161301914575
    vertex -103.98717345075109 34.07861992745221 9.412098915184059
  endloop
endfacet
facet normal -0.0009561246555213266 -2.4468920032898794e-05 0.999999542613353
  outer loop
    vertex -99.78858446066917 64.96908485673671 9.4161301914575
    vertex -91.42089247607535 30.981378183220304 9.423793175492245
    vertex -93.92623082125537 61.52339041558671 9.421582185519073
  endloop
endfacet
facet normal -0.0009561246555213266 -2.4468920032898794e-05 0.999999542613353
  outer loop
    vertex -93.92623082125537 61.52339041558671 9.421582185519073
    vertex -91.42089247607535 30.981378183220304 9.423793175492245
    vertex -93.67923600268256 61.94679618737549 9.421745489003467
  endloop
endfacet
facet normal -0.0009561246555213266 -2.4468920032898794e-05 0.999999542613353
  outer loop
    vertex -93.67923600268256 61.94679618737549 9.421745489003467
    vertex -91.42089247607535 30.981378183220304 9.423793175492245
    vertex -93.52868123631987 62.206811068508046 9.42188612328445
  endloop
endfacet
facet normal -0.0009561246555213266 -2.4468920032898794e-05 0.999999542613353
  outer loop
    vertex -93.52868123631987 62.206811068508046 9.42188612328445
    vertex -91.42089247607535 30.981378183220304 9.423793175492245
    vertex -92.69668598688759 63.642154499557954 9.422663293231759
  endloop
endfacet
facet normal -0.0009561246555213266 -2.4468920032898794e-05 0.999999542613353
  outer loop
    vertex -92.69668598688759 63.642154499557954 9.422663293231759
    vertex -91.42089247607535 30.981378183220304 9.423793175492245
    vertex -90.49744930894367 67.38309758689948 9.427070001649165
  endloop
endfacet
facet normal -0.0009561246555213266 -2.4468920032898794e-05 0.999999542613353
  outer loop
    vertex -90.49744930894367 67.38309758689948 9.427070001649165
    vertex -91.42089247607535 30.981378183220304 9.423793175492245
    vertex -84.70584182153289 44.0794411513547 9.43006841459563
  endloop
endfacet
facet normal -0.0009561246555213266 -2.4468920032898794e-05 0.999999542613353
  outer loop
    vertex -90.49744930894367 67.38309758689948 9.427070001649165
    vertex -84.70584182153289 44.0794411513547 9.43006841459563
    vertex -88.80622095275704 66.38226194734452 9.426290346186736
  endloop
endfacet
facet normal -0.0009561246555213266 -2.4468920032898794e-05 0.999999542613353
  outer loop
    vertex -103.98717345075109 34.07861992745221 9.412098915184059
    vertex -98.86770305042117 72.29723131227028 9.416933161023683
    vertex -104.05364462484191 68.96642506369308 9.412098915184059
  endloop
endfacet
facet normal -0.0009561246555213266 -2.4468920032898794e-05 0.999999542613353
  outer loop
    vertex -98.86770305042117 72.29723131227028 9.416933161023683
    vertex -103.98717345075109 34.07861992745221 9.412098915184059
    vertex -99.78858446066917 64.96908485673671 9.4161301914575
  endloop
endfacet
facet normal -0.0009561246555213266 -2.4468920032898794e-05 0.999999542613353
  outer loop
    vertex -98.86770305042117 72.29723131227028 9.416933161023683
    vertex -99.78858446066917 64.96908485673671 9.4161301914575
    vertex -98.54796453312908 67.0794045742859 9.417221595584401
  endloop
endfacet
facet normal -0.0009561246555213266 -2.4468920032898794e-05 0.999999542613353
  outer loop
    vertex -98.86770305042117 72.29723131227028 9.416933161023683
    vertex -98.54796453312908 67.0794045742859 9.417221595584401
    vertex -96.34709801722562 70.82311941384717 9.422027965497579
  endloop
endfacet
facet normal -0.8642683482336234 0.5029157121537128 -0.01077073397908498
  outer loop
    vertex -91.91144610745792 64.97786361545609 6.081738089708809
    vertex -93.56346961527045 62.14045476658891 6.157325922677085
    vertex -92.20664843519462 64.4757183720725 6.322881869873085
  endloop
endfacet
facet normal -0.8651607898648683 0.5014881286270871 0.0025425433131511634
  outer loop
    vertex -92.69668598688759 63.642154499557954 9.422663293231759
    vertex -92.77715508233898 63.50527480765196 9.039123852855226
    vertex -93.52868123631987 62.206811068508046 9.42188612328445
  endloop
endfacet
facet normal 0.3891936320041892 0.6912548337003908 0.6088473303655302
  outer loop
    vertex -93.56346961527045 62.14045476658891 6.157325922677085
    vertex -93.19991294075147 62.75887214481127 5.222809310451249
    vertex -99.47489358837919 65.50267957734128 6.118784920953289
  endloop
endfacet
facet normal 0.3084392870238095 0.5246615604959354 0.7934705118391068
  outer loop
    vertex -92.72616552330697 63.564726243724884 4.505803478167239
    vertex -98.58822208678998 67.01092601253183 4.505803476215011
    vertex -93.19991294075147 62.75887214481127 5.222809310451249
  endloop
endfacet
facet normal -0.8637557421891526 0.503871657848369 0.006274571890001945
  outer loop
    vertex -92.81121378502435 63.44734078256484 8.414072278103319
    vertex -93.92623082125537 61.52339041558671 9.421582185519073
    vertex -93.67923600268256 61.94679618737549 9.421745489003467
  endloop
endfacet
facet normal 0.26571730532740573 0.4519876742058207 0.851528893235899
  outer loop
    vertex -92.72616552330697 63.564726243724884 4.505803478167239
    vertex -98.03307459398977 67.95524273750033 3.831343961505217
    vertex -98.58822208678998 67.01092601253183 4.505803476215011
  endloop
endfacet
facet normal 0.26571730532740573 0.4519876742058207 0.851528893235899
  outer loop
    vertex -98.03307459398977 67.95524273750033 3.831343961505217
    vertex -92.72616552330697 63.564726243724884 4.505803478167239
    vertex -92.17157567495242 64.50809498047617 3.8319975416277563
  endloop
endfacet
facet normal -0.8653973515213871 0.5010855014547202 -0.000862677019775934
  outer loop
    vertex -92.81121378502435 63.44734078256484 8.414072278103319
    vertex -93.85952332545752 61.63686204257106 8.413669534760208
    vertex -93.92623082125537 61.52339041558671 9.421582185519073
  endloop
endfacet
facet normal 0.464961259386326 0.7910716849283252 0.3975130395025328
  outer loop
    vertex -96.34709801722562 70.82311941384717 9.422027965497579
    vertex -90.41278250494045 67.52712128987469 9.040021930567741
    vertex -96.26291935066656 70.96631341530406 9.040021900008147
  endloop
endfacet
facet normal 0.464961259386326 0.7910716849283252 0.3975130395025328
  outer loop
    vertex -90.41278250494045 67.52712128987469 9.040021930567741
    vertex -96.34709801722562 70.82311941384717 9.422027965497579
    vertex -90.49744930894367 67.38309758689948 9.427070001649165
  endloop
endfacet
facet normal -0.8620670709417284 0.5067942039900826 8.786070769284703e-08
  outer loop
    vertex -96.34709801722562 70.82311941384717 9.422027965497579
    vertex -97.12805123046378 69.49470625787899 6.081978698346989
    vertex -97.3734660525502 69.07725056011101 6.018131190532064
  endloop
endfacet
facet normal -0.8620670709417284 0.5067942039900826 8.786070769284703e-08
  outer loop
    vertex -97.12805123046378 69.49470625787899 6.081978698346989
    vertex -96.34709801722562 70.82311941384717 9.422027965497579
    vertex -96.83289597542282 69.99677142965746 6.32334671854553
  endloop
endfacet
facet normal -0.8620670709417284 0.5067942039900826 8.786070769284703e-08
  outer loop
    vertex -96.83289597542282 69.99677142965746 6.32334671854553
    vertex -96.34709801722562 70.82311941384717 9.422027965497579
    vertex -96.57945764175518 70.42787525842965 6.7072257129064345
  endloop
endfacet
facet normal -0.8620670709417284 0.5067942039900826 8.786070769284703e-08
  outer loop
    vertex -96.57945764175518 70.42787525842965 6.7072257129064345
    vertex -96.34709801722562 70.82311941384717 9.422027965497579
    vertex -96.38500763307343 70.75863873069747 7.207454962354041
  endloop
endfacet
facet normal -0.8620670709417284 0.5067942039900826 8.786070769284703e-08
  outer loop
    vertex -96.38500763307343 70.75863873069747 7.207454962354041
    vertex -96.34709801722562 70.82311941384717 9.422027965497579
    vertex -96.26279739612549 70.96652086243824 7.789944670206316
  endloop
endfacet
facet normal -0.8620670709417284 0.5067942039900826 8.786070769284703e-08
  outer loop
    vertex -96.26279739612549 70.96652086243824 7.789944670206316
    vertex -96.34709801722562 70.82311941384717 9.422027965497579
    vertex -96.26291935066656 70.96631341530406 9.040021900008147
  endloop
endfacet
facet normal -0.8620670709417284 0.5067942039900826 8.786070769284703e-08
  outer loop
    vertex -96.26279739612549 70.96652086243824 7.789944670206316
    vertex -96.26291935066656 70.96631341530406 9.040021900008147
    vertex -96.22874989777907 71.0244360937857 8.528657641320692
  endloop
endfacet
facet normal -0.8620670709417284 0.5067942039900826 8.786070769284703e-08
  outer loop
    vertex -96.26279739612549 70.96652086243824 7.789944670206316
    vertex -96.22874989777907 71.0244360937857 8.528657641320692
    vertex -96.22872772071186 71.02447381742451 8.301334848595573
  endloop
endfacet
facet normal -0.8620670709417284 0.5067942039900826 8.786070769284703e-08
  outer loop
    vertex -98.50508169111679 67.15234906482219 9.621613530147908
    vertex -96.34709801722562 70.82311941384717 9.422027965497579
    vertex -98.54796453312908 67.0794045742859 9.417221595584401
  endloop
endfacet
facet normal -0.8620670709417284 0.5067942039900826 8.786070769284703e-08
  outer loop
    vertex -96.34709801722562 70.82311941384717 9.422027965497579
    vertex -98.50508169111679 67.15234906482219 9.621613530147908
    vertex -98.31063168243544 67.48311253708995 10.121842779595514
  endloop
endfacet
facet normal -0.8620670709417284 0.5067942039900826 8.786070769284703e-08
  outer loop
    vertex -96.34709801722562 70.82311941384717 9.422027965497579
    vertex -98.31063168243544 67.48311253708995 10.121842779595514
    vertex -98.05719334876763 67.91421636586207 10.50572177395642
  endloop
endfacet
facet normal -0.8620670709417284 0.5067942039900826 8.786070769284703e-08
  outer loop
    vertex -96.34709801722562 70.82311941384717 9.422027965497579
    vertex -98.05719334876763 67.91421636586207 10.50572177395642
    vertex -97.76203809372664 68.41628153764069 10.74708979415496
  endloop
endfacet
facet normal -0.8620670709417284 0.5067942039900826 8.786070769284703e-08
  outer loop
    vertex -96.34709801722562 70.82311941384717 9.422027965497579
    vertex -97.76203809372664 68.41628153764069 10.74708979415496
    vertex -97.4452802601766 68.95509314067068 10.829498008494149
  endloop
endfacet
facet normal -0.8620670709417284 0.5067942039900826 8.786070769284703e-08
  outer loop
    vertex -96.34709801722562 70.82311941384717 9.422027965497579
    vertex -97.4452802601766 68.95509314067068 10.829498008494149
    vertex -97.12850637100641 69.49393205463417 10.747330433352733
  endloop
endfacet
facet normal -0.8620670709417284 0.5067942039900826 8.786070769284703e-08
  outer loop
    vertex -96.34709801722562 70.82311941384717 9.422027965497579
    vertex -97.12850637100641 69.49393205463417 10.747330433352733
    vertex -96.8333040432698 69.99607729801771 10.506186653188367
  endloop
endfacet
facet normal -0.8620670709417284 0.5067942039900826 8.786070769284703e-08
  outer loop
    vertex -96.34709801722562 70.82311941384717 9.422027965497579
    vertex -96.8333040432698 69.99607729801771 10.506186653188367
    vertex -96.5797908277571 70.4273085023191 10.122500218110257
  endloop
endfacet
facet normal -0.8620670709417284 0.5067942039900826 8.786070769284703e-08
  outer loop
    vertex -96.34709801722562 70.82311941384717 9.422027965497579
    vertex -96.5797908277571 70.4273085023191 10.122500218110257
    vertex -96.38524323115487 70.7582379736084 9.622418724597079
  endloop
endfacet
facet normal -0.4021261414735293 -0.6840248676050192 0.6086086976387595
  outer loop
    vertex -92.65494484539096 63.71315693939276 9.621613560707502
    vertex -98.31063168243544 67.48311253708995 10.121842779595514
    vertex -98.50508169111679 67.15234906482219 9.621613530147908
  endloop
endfacet
facet normal -0.4021261414735293 -0.6840248676050192 0.6086086976387595
  outer loop
    vertex -98.31063168243544 67.48311253708995 10.121842779595514
    vertex -92.65494484539096 63.71315693939276 9.621613560707502
    vertex -92.46049483670933 64.04392041166057 10.121842810155108
  endloop
endfacet
facet normal -0.46817931182051997 -0.7963826835774339 -0.38286127158707184
  outer loop
    vertex -92.65470924730978 63.713557696481786 7.2066497984643725
    vertex -98.62716997352406 66.94467438021563 7.789046592493711
    vertex -98.50484609303555 67.15274982191124 7.2066497679047785
  endloop
endfacet
facet normal -0.46817931182051997 -0.7963826835774339 -0.38286127158707184
  outer loop
    vertex -98.62716997352406 66.94467438021563 7.789046592493711
    vertex -92.65470924730978 63.713557696481786 7.2066497984643725
    vertex -92.77703312779798 63.505482254786116 7.789046623053304
  endloop
endfacet
facet normal 0.4682539821330231 0.79650969252062 -0.3825055789622863
  outer loop
    vertex -96.26279739612549 70.96652086243824 7.789944670206316
    vertex -90.53487078734744 67.31944660526814 7.207454992913634
    vertex -96.38500763307343 70.75863873069747 7.207454962354041
  endloop
endfacet
facet normal 0.4682539821330231 0.79650969252062 -0.3825055789622863
  outer loop
    vertex -90.53487078734744 67.31944660526814 7.207454992913634
    vertex -96.26279739612549 70.96652086243824 7.789944670206316
    vertex -90.41266055039968 67.52732873700887 7.7899447007659095
  endloop
endfacet
facet normal -0.19385155026601583 -0.329745499433633 -0.9239531817482565
  outer loop
    vertex -97.76158295318392 68.41705574088539 6.081738059149216
    vertex -92.20664843519462 64.4757183720725 6.322881869873085
    vertex -98.05678528092056 67.91491049750185 6.322881839313582
  endloop
endfacet
facet normal -0.19385155026601583 -0.329745499433633 -0.9239531817482565
  outer loop
    vertex -92.20664843519462 64.4757183720725 6.322881869873085
    vertex -97.76158295318392 68.41705574088539 6.081738059149216
    vertex -91.91144610745792 64.97786361545609 6.081738089708809
  endloop
endfacet
facet normal 0.3084392673893033 0.524661572038743 0.7934705118390883
  outer loop
    vertex -90.9831671975439 66.55688517258845 10.50618668374796
    vertex -96.5797908277571 70.4273085023191 10.122500218110257
    vertex -96.8333040432698 69.99607729801771 10.506186653188367
  endloop
endfacet
facet normal 0.3084392673893033 0.524661572038743 0.7934705118390883
  outer loop
    vertex -96.5797908277571 70.4273085023191 10.122500218110257
    vertex -90.9831671975439 66.55688517258845 10.50618668374796
    vertex -90.72965398203115 66.9881163768897 10.12250024866985
  endloop
endfacet
facet normal -0.3084392673893052 -0.5246615720387379 -0.793470511839091
  outer loop
    vertex -98.05678528092056 67.91491049750185 6.322881839313582
    vertex -92.46016165070735 64.04448716777115 6.706568304951285
    vertex -98.31029849643345 67.48367929320051 6.706568274391692
  endloop
endfacet
facet normal -0.3084392673893052 -0.5246615720387379 -0.793470511839091
  outer loop
    vertex -92.46016165070735 64.04448716777115 6.706568304951285
    vertex -98.05678528092056 67.91491049750185 6.322881839313582
    vertex -92.20664843519462 64.4757183720725 6.322881869873085
  endloop
endfacet
facet normal -0.503869060435466 -0.8570916807345667 -0.10728383266586083
  outer loop
    vertex -92.77703312779798 63.505482254786116 7.789046623053304
    vertex -98.66135063075043 66.88653290799431 8.414072247543727
    vertex -98.62716997352406 66.94467438021563 7.789046592493711
  endloop
endfacet
facet normal -0.503869060435466 -0.8570916807345667 -0.10728383266586083
  outer loop
    vertex -98.66135063075043 66.88653290799431 8.414072247543727
    vertex -92.77703312779798 63.505482254786116 7.789046623053304
    vertex -92.81121378502435 63.44734078256484 8.414072278103319
  endloop
endfacet
facet normal -0.06624662397306598 -0.11268686696706857 0.9914197167826135
  outer loop
    vertex -91.91190124800062 64.97708941221124 10.747089824714553
    vertex -97.4452802601766 68.95509314067068 10.829498008494149
    vertex -97.76203809372664 68.41628153764069 10.74708979415496
  endloop
endfacet
facet normal -0.06624662397306598 -0.11268686696706857 0.9914197167826135
  outer loop
    vertex -97.4452802601766 68.95509314067068 10.829498008494149
    vertex -91.91190124800062 64.97708941221124 10.747089824714553
    vertex -91.59514341445046 65.51590101524128 10.829498039053652
  endloop
endfacet
facet normal -0.0660531703470795 -0.11235781597259376 -0.9914699692259814
  outer loop
    vertex -97.44480906401387 68.95589465484888 5.9995704840078
    vertex -91.91144610745792 64.97786361545609 6.081738089708809
    vertex -97.76158295318392 68.41705574088539 6.081738059149216
  endloop
endfacet
facet normal -0.0660531703470795 -0.11235781597259376 -0.9914699692259814
  outer loop
    vertex -91.91144610745792 64.97786361545609 6.081738089708809
    vertex -97.44480906401387 68.95589465484888 5.9995704840078
    vertex -91.594672218288 65.51670252941956 5.999570514567393
  endloop
endfacet
facet normal -0.30859406881733814 -0.524924878366467 0.7932361393448422
  outer loop
    vertex -92.46049483670933 64.04392041166057 10.121842810155108
    vertex -98.05719334876763 67.91421636586207 10.50572177395642
    vertex -98.31063168243544 67.48311253708995 10.121842779595514
  endloop
endfacet
facet normal -0.30859406881733814 -0.524924878366467 0.7932361393448422
  outer loop
    vertex -98.05719334876763 67.91421636586207 10.50572177395642
    vertex -92.46049483670933 64.04392041166057 10.121842810155108
    vertex -92.20705650304157 64.4750242404328 10.505721804515922
  endloop
endfacet
facet normal 0.0660531703470361 0.11235781597250867 0.9914699692259941
  outer loop
    vertex -91.59514341445046 65.51590101524128 10.829498039053652
    vertex -97.12850637100641 69.49393205463417 10.747330433352733
    vertex -97.4452802601766 68.95509314067068 10.829498008494149
  endloop
endfacet
facet normal 0.0660531703470361 0.11235781597250867 0.9914699692259941
  outer loop
    vertex -97.12850637100641 69.49393205463417 10.747330433352733
    vertex -91.59514341445046 65.51590101524128 10.829498039053652
    vertex -91.27836952528043 66.0547399292049 10.747330463912327
  endloop
endfacet
facet normal -0.19403182034720862 -0.330052126146834 0.9238058490390191
  outer loop
    vertex -92.20705650304157 64.4750242404328 10.505721804515922
    vertex -97.76203809372664 68.41628153764069 10.74708979415496
    vertex -98.05719334876763 67.91421636586207 10.50572177395642
  endloop
endfacet
facet normal -0.19403182034720862 -0.330052126146834 0.9238058490390191
  outer loop
    vertex -97.76203809372664 68.41628153764069 10.74708979415496
    vertex -92.20705650304157 64.4750242404328 10.505721804515922
    vertex -91.91190124800062 64.97708941221124 10.747089824714553
  endloop
endfacet
facet normal 0.06624662397334698 0.11268686696753573 -0.9914197167825417
  outer loop
    vertex -97.3734660525502 69.07725056011101 6.018131190532064
    vertex -91.594672218288 65.51670252941956 5.999570514567393
    vertex -97.44480906401387 68.95589465484888 5.9995704840078
  endloop
endfacet
facet normal 0.06624662397334698 0.11268686696753573 -0.9914197167825417
  outer loop
    vertex -91.594672218288 65.51670252941956 5.999570514567393
    vertex -97.3734660525502 69.07725056011101 6.018131190532064
    vertex -91.52483166735165 65.63550272315024 6.017740339150942
  endloop
endfacet
facet normal 0.4020073581599273 0.6838228255535113 0.608914137820176
  outer loop
    vertex -96.5797908277571 70.4273085023191 10.122500218110257
    vertex -90.53510638542886 67.31904584817897 9.622418755156673
    vertex -96.38524323115487 70.7582379736084 9.622418724597079
  endloop
endfacet
facet normal 0.4020073581599273 0.6838228255535113 0.608914137820176
  outer loop
    vertex -90.53510638542886 67.31904584817897 9.622418755156673
    vertex -96.5797908277571 70.4273085023191 10.122500218110257
    vertex -90.72965398203115 66.9881163768897 10.12250024866985
  endloop
endfacet
facet normal -0.5038899566265541 -0.8571272236840664 0.10690104784581955
  outer loop
    vertex -92.81121378502435 63.44734078256484 8.414072278103319
    vertex -98.62729192806486 66.94446693308133 9.039123822295723
    vertex -98.66135063075043 66.88653290799431 8.414072247543727
  endloop
endfacet
facet normal -0.5038899566265541 -0.8571272236840664 0.10690104784581955
  outer loop
    vertex -98.62729192806486 66.94446693308133 9.039123822295723
    vertex -92.81121378502435 63.44734078256484 8.414072278103319
    vertex -92.77715508233898 63.50527480765196 9.039123852855226
  endloop
endfacet
facet normal -0.46825398213293484 -0.7965096925204435 0.38250557896276205
  outer loop
    vertex -92.69668598688759 63.642154499557954 9.422663293231759
    vertex -98.50508169111679 67.15234906482219 9.621613530147908
    vertex -98.54796453312908 67.0794045742859 9.417221595584401
  endloop
endfacet
facet normal -0.46825398213293484 -0.7965096925204435 0.38250557896276205
  outer loop
    vertex -98.50508169111679 67.15234906482219 9.621613530147908
    vertex -92.69668598688759 63.642154499557954 9.422663293231759
    vertex -92.65494484539096 63.71315693939276 9.621613560707502
  endloop
endfacet
facet normal 0.5067940467347044 0.8620671418968595 0.00019249946133135533
  outer loop
    vertex -96.22874989777907 71.0244360937857 8.528657641320692
    vertex -90.37859087498596 67.58528169199512 8.301334879155167
    vertex -96.22872772071186 71.02447381742451 8.301334848595573
  endloop
endfacet
facet normal 0.5067940467347044 0.8620671418968595 0.00019249946133135533
  outer loop
    vertex -90.37859087498596 67.58528169199512 8.301334879155167
    vertex -96.22874989777907 71.0244360937857 8.528657641320692
    vertex -90.37861305205321 67.5852439683563 8.528657671880286
  endloop
endfacet
facet normal 0.5024710877364883 0.8547136981854981 -0.13033533719977794
  outer loop
    vertex -96.22872772071186 71.02447381742451 8.301334848595573
    vertex -90.41266055039968 67.52732873700887 7.7899447007659095
    vertex -96.26279739612549 70.96652086243824 7.789944670206316
  endloop
endfacet
facet normal 0.5024710877364883 0.8547136981854981 -0.13033533719977794
  outer loop
    vertex -90.41266055039968 67.52732873700887 7.7899447007659095
    vertex -96.22872772071186 71.02447381742451 8.301334848595573
    vertex -90.37859087498596 67.58528169199512 8.301334879155167
  endloop
endfacet
facet normal 0.19385155026606102 0.32974549943372666 0.9239531817482134
  outer loop
    vertex -91.27836952528043 66.0547399292049 10.747330463912327
    vertex -96.8333040432698 69.99607729801771 10.506186653188367
    vertex -97.12850637100641 69.49393205463417 10.747330433352733
  endloop
endfacet
facet normal 0.19385155026606102 0.32974549943372666 0.9239531817482134
  outer loop
    vertex -96.8333040432698 69.99607729801771 10.506186653188367
    vertex -91.27836952528043 66.0547399292049 10.747330463912327
    vertex -90.9831671975439 66.55688517258845 10.50618668374796
  endloop
endfacet
facet normal -0.8620671463503733 0.5067940757184561 -1.4285848465121267e-09
  outer loop
    vertex -91.85740075881863 65.04251297759173 4.87457679408706
    vertex -92.72616552330697 63.564726243724884 4.505803478167239
    vertex -93.19991294075147 62.75887214481127 5.222809310451249
  endloop
endfacet
facet normal -0.8620671463503733 0.5067940757184561 -1.4285848465121267e-09
  outer loop
    vertex -92.72616552330697 63.564726243724884 4.505803478167239
    vertex -91.85740075881863 65.04251297759173 4.87457679408706
    vertex -91.96844162405719 64.85363018093499 4.506091290223739
  endloop
endfacet
facet normal -0.8620671463503718 0.5067940757184588 -1.4287947763418082e-09
  outer loop
    vertex -91.75229731153678 65.22129610413033 5.2233591693532055
    vertex -91.85740075881863 65.04251297759173 4.87457679408706
    vertex -93.19991294075147 62.75887214481127 5.222809310451249
  endloop
endfacet
facet normal -0.862067146350392 0.506794075718424 -1.4284039740708021e-09
  outer loop
    vertex -91.62256345480341 65.44197606396553 5.653876758206003
    vertex -93.19991294075147 62.75887214481127 5.222809310451249
    vertex -93.56346961527045 62.14045476658891 6.157325922677085
  endloop
endfacet
facet normal -0.862067146350392 0.506794075718424 -1.4284039740708021e-09
  outer loop
    vertex -93.19991294075147 62.75887214481127 5.222809310451249
    vertex -91.62256345480341 65.44197606396553 5.653876758206003
    vertex -91.75229731153678 65.22129610413033 5.2233591693532055
  endloop
endfacet
facet normal -0.8639919379008105 0.502007886326406 -0.038807387292840334
  outer loop
    vertex -91.594672218288 65.51670252941956 5.999570514567393
    vertex -91.62256345480341 65.44197606396553 5.653876758206003
    vertex -93.56346961527045 62.14045476658891 6.157325922677085
  endloop
endfacet
facet normal -0.8639919379008105 0.502007886326406 -0.038807387292840334
  outer loop
    vertex -91.62256345480341 65.44197606396553 5.653876758206003
    vertex -91.594672218288 65.51670252941956 5.999570514567393
    vertex -91.53801916942184 65.61212182597953 5.972603017653578
  endloop
endfacet
facet normal 0.8620674407004583 -0.5067935750222506 -5.731915665776854e-07
  outer loop
    vertex -91.27791438473793 66.0555141324498 6.081978728906582
    vertex -90.49744930894367 67.38309758689948 9.427070001649165
    vertex -91.52483166735165 65.63550272315024 6.017740339150942
  endloop
endfacet
facet normal 0.8620674407004583 -0.5067935750222506 -5.731915665776854e-07
  outer loop
    vertex -90.49744930894367 67.38309758689948 9.427070001649165
    vertex -91.27791438473793 66.0555141324498 6.081978728906582
    vertex -90.98275912969696 66.55757930422818 6.323346749105123
  endloop
endfacet
facet normal 0.8620674407004583 -0.5067935750222506 -5.731915665776854e-07
  outer loop
    vertex -90.49744930894367 67.38309758689948 9.427070001649165
    vertex -90.98275912969696 66.55757930422818 6.323346749105123
    vertex -90.7293207960293 66.98868313300031 6.707225743466028
  endloop
endfacet
facet normal 0.8620674407004583 -0.5067935750222506 -5.731915665776854e-07
  outer loop
    vertex -90.49744930894367 67.38309758689948 9.427070001649165
    vertex -90.7293207960293 66.98868313300031 6.707225743466028
    vertex -90.53487078734744 67.31944660526814 7.207454992913634
  endloop
endfacet
facet normal 0.8620674407004583 -0.5067935750222506 -5.731915665776854e-07
  outer loop
    vertex -90.49744930894367 67.38309758689948 9.427070001649165
    vertex -90.53487078734744 67.31944660526814 7.207454992913634
    vertex -90.41266055039968 67.52732873700887 7.7899447007659095
  endloop
endfacet
facet normal 0.8620674407004583 -0.5067935750222506 -5.731915665776854e-07
  outer loop
    vertex -90.49744930894367 67.38309758689948 9.427070001649165
    vertex -90.41266055039968 67.52732873700887 7.7899447007659095
    vertex -90.41278250494045 67.52712128987469 9.040021930567741
  endloop
endfacet
facet normal 0.8620674407004583 -0.5067935750222506 -5.731915665776854e-07
  outer loop
    vertex -90.41278250494045 67.52712128987469 9.040021930567741
    vertex -90.41266055039968 67.52732873700887 7.7899447007659095
    vertex -90.37861305205321 67.5852439683563 8.528657671880286
  endloop
endfacet
facet normal 0.8620674407004583 -0.5067935750222506 -5.731915665776854e-07
  outer loop
    vertex -90.37861305205321 67.5852439683563 8.528657671880286
    vertex -90.41266055039968 67.52732873700887 7.7899447007659095
    vertex -90.37859087498596 67.58528169199512 8.301334879155167
  endloop
endfacet
facet normal -0.4682539821329986 -0.796509692520567 0.38250557896242665
  outer loop
    vertex -92.77715508233898 63.50527480765196 9.039123852855226
    vertex -98.54796453312908 67.0794045742859 9.417221595584401
    vertex -98.62729192806486 66.94446693308133 9.039123822295723
  endloop
endfacet
facet normal -0.4682539821329986 -0.796509692520567 0.38250557896242665
  outer loop
    vertex -98.54796453312908 67.0794045742859 9.417221595584401
    vertex -92.77715508233898 63.50527480765196 9.039123852855226
    vertex -92.69668598688759 63.642154499557954 9.422663293231759
  endloop
endfacet
facet normal 0.06624662397301792 0.11268686696697829 -0.9914197167826269
  outer loop
    vertex -97.12805123046378 69.49470625787899 6.081978698346989
    vertex -91.52483166735165 65.63550272315024 6.017740339150942
    vertex -97.3734660525502 69.07725056011101 6.018131190532064
  endloop
endfacet
facet normal 0.06624662397301792 0.11268686696697829 -0.9914197167826269
  outer loop
    vertex -91.52483166735165 65.63550272315024 6.017740339150942
    vertex -97.12805123046378 69.49470625787899 6.081978698346989
    vertex -91.27791438473793 66.0555141324498 6.081978728906582
  endloop
endfacet
facet normal 0.308594068817409 0.5249248783665613 -0.7932361393447521
  outer loop
    vertex -96.57945764175518 70.42787525842965 6.7072257129064345
    vertex -90.98275912969696 66.55757930422818 6.323346749105123
    vertex -96.83289597542282 69.99677142965746 6.32334671854553
  endloop
endfacet
facet normal 0.308594068817409 0.5249248783665613 -0.7932361393447521
  outer loop
    vertex -90.98275912969696 66.55757930422818 6.323346749105123
    vertex -96.57945764175518 70.42787525842965 6.7072257129064345
    vertex -90.7293207960293 66.98868313300031 6.707225743466028
  endloop
endfacet
facet normal -0.8653974675973314 0.501085535497747 -0.0007135762480865176
  outer loop
    vertex -92.77703312779798 63.505482254786116 7.789046623053304
    vertex -93.85952332545752 61.63686204257106 8.413669534760208
    vertex -92.81121378502435 63.44734078256484 8.414072278103319
  endloop
endfacet
facet normal 0.474015236878436 0.806437930650506 0.3535073114027628
  outer loop
    vertex -96.38524323115487 70.7582379736084 9.622418724597079
    vertex -90.49744930894367 67.38309758689948 9.427070001649165
    vertex -96.34709801722562 70.82311941384717 9.422027965497579
  endloop
endfacet
facet normal 0.474015236878436 0.806437930650506 0.3535073114027628
  outer loop
    vertex -90.49744930894367 67.38309758689948 9.427070001649165
    vertex -96.38524323115487 70.7582379736084 9.622418724597079
    vertex -90.53510638542886 67.31904584817897 9.622418755156673
  endloop
endfacet
facet normal -0.8653976065883852 0.5010852990709053 0.0007110317263958305
  outer loop
    vertex -93.52868123631987 62.206811068508046 9.42188612328445
    vertex -92.81121378502435 63.44734078256484 8.414072278103319
    vertex -93.67923600268256 61.94679618737549 9.421745489003467
  endloop
endfacet
facet normal -0.8653976065883852 0.5010852990709053 0.0007110317263958305
  outer loop
    vertex -92.81121378502435 63.44734078256484 8.414072278103319
    vertex -93.52868123631987 62.206811068508046 9.42188612328445
    vertex -92.77715508233898 63.50527480765196 9.039123852855226
  endloop
endfacet
facet normal -0.40200735815989214 -0.6838228255534435 -0.6089141378202751
  outer loop
    vertex -92.46016165070735 64.04448716777115 6.706568304951285
    vertex -98.50484609303555 67.15274982191124 7.2066497679047785
    vertex -98.31029849643345 67.48367929320051 6.706568274391692
  endloop
endfacet
facet normal -0.40200735815989214 -0.6838228255534435 -0.6089141378202751
  outer loop
    vertex -98.50484609303555 67.15274982191124 7.2066497679047785
    vertex -92.46016165070735 64.04448716777115 6.706568304951285
    vertex -92.65470924730978 63.713557696481786 7.2066497984643725
  endloop
endfacet
facet normal 0.40212614147344555 0.6840248676048867 -0.6086086976389641
  outer loop
    vertex -96.38500763307343 70.75863873069747 7.207454962354041
    vertex -90.7293207960293 66.98868313300031 6.707225743466028
    vertex -96.57945764175518 70.42787525842965 6.7072257129064345
  endloop
endfacet
facet normal 0.40212614147344555 0.6840248676048867 -0.6086086976389641
  outer loop
    vertex -90.7293207960293 66.98868313300031 6.707225743466028
    vertex -96.38500763307343 70.75863873069747 7.207454962354041
    vertex -90.53487078734744 67.31944660526814 7.207454992913634
  endloop
endfacet
facet normal -0.8651835529274587 0.5014327069753896 -0.004760264609478306
  outer loop
    vertex -92.46016165070735 64.04448716777115 6.706568304951285
    vertex -93.79691268910985 61.743363299483704 7.2687728551245385
    vertex -92.65470924730978 63.713557696481786 7.2066497984643725
  endloop
endfacet
facet normal -0.8653974514257177 0.5010855635864192 -0.0007134641922000993
  outer loop
    vertex -92.77703312779798 63.505482254786116 7.789046623053304
    vertex -93.79691268910985 61.743363299483704 7.2687728551245385
    vertex -93.85952332545752 61.63686204257106 8.413669534760208
  endloop
endfacet
facet normal 0.19403182034720765 0.330052126146823 -0.9238058490390234
  outer loop
    vertex -96.83289597542282 69.99677142965746 6.32334671854553
    vertex -91.27791438473793 66.0555141324498 6.081978728906582
    vertex -97.12805123046378 69.49470625787899 6.081978698346989
  endloop
endfacet
facet normal 0.19403182034720765 0.330052126146823 -0.9238058490390234
  outer loop
    vertex -91.27791438473793 66.0555141324498 6.081978728906582
    vertex -96.83289597542282 69.99677142965746 6.32334671854553
    vertex -90.98275912969696 66.55757930422818 6.323346749105123
  endloop
endfacet
facet normal 0.5024456190834425 0.8546703778002296 0.13071704240331197
  outer loop
    vertex -96.26291935066656 70.96631341530406 9.040021900008147
    vertex -90.37861305205321 67.5852439683563 8.528657671880286
    vertex -96.22874989777907 71.0244360937857 8.528657641320692
  endloop
endfacet
facet normal 0.5024456190834425 0.8546703778002296 0.13071704240331197
  outer loop
    vertex -90.37861305205321 67.5852439683563 8.528657671880286
    vertex -96.26291935066656 70.96631341530406 9.040021900008147
    vertex -90.41278250494045 67.52712128987469 9.040021930567741
  endloop
endfacet
facet normal -0.8651602499747827 0.5014890475407726 -0.002545006919487829
  outer loop
    vertex -92.65470924730978 63.713557696481786 7.2066497984643725
    vertex -93.79691268910985 61.743363299483704 7.2687728551245385
    vertex -92.77703312779798 63.505482254786116 7.789046623053304
  endloop
endfacet
facet normal -0.9590733244608187 0.19352052959974947 -0.20670791695313825
  outer loop
    vertex -106.07638601388561 25.60882460575205 11.176079548090998
    vertex -103.86756352950087 28.943807735302627 4.049913102613797
    vertex -105.66434676214234 24.381580168804803 8.115370226020778
  endloop
endfacet
facet normal -0.9590733244608187 0.19352052959974947 -0.20670791695313825
  outer loop
    vertex -103.86756352950087 28.943807735302627 4.049913102613797
    vertex -106.07638601388561 25.60882460575205 11.176079548090998
    vertex -104.68357763846275 31.255354820218592 10.000092459486343
  endloop
endfacet
facet normal -0.9590733244608187 0.19352052959974947 -0.20670791695313825
  outer loop
    vertex -103.86756352950087 28.943807735302627 4.049913102613797
    vertex -104.68357763846275 31.255354820218592 10.000092459486343
    vertex -102.9691719131801 31.224921518551525 2.017184540910125
  endloop
endfacet
facet normal -0.9590733244608187 0.19352052959974947 -0.20670791695313825
  outer loop
    vertex -102.9691719131801 31.224921518551525 2.017184540910125
    vertex -104.68357763846275 31.255354820218592 10.000092459486343
    vertex -102.07078029685904 33.506035301800665 -0.015544020793456069
  endloop
endfacet
facet normal -0.9590733244608187 0.19352052959974947 -0.20670791695313825
  outer loop
    vertex -102.07078029685904 33.506035301800665 -0.015544020793456069
    vertex -104.68357763846275 31.255354820218592 10.000092459486343
    vertex -103.98717345075109 34.07861992745221 9.412098915184059
  endloop
endfacet
facet normal 0.927230823183983 -0.37273586128789876 0.036207433594800796
  outer loop
    vertex -99.11163122232631 25.269059023266575 6.08790361381232
    vertex -99.79620041578299 24.060932032351147 11.181923928406889
    vertex -100.09915383631464 23.009913573149706 8.12054922964759
  endloop
endfacet
facet normal 0.927230823183983 -0.37273586128789876 0.036207433594800796
  outer loop
    vertex -99.79620041578299 24.060932032351147 11.181923928406889
    vertex -99.11163122232631 25.269059023266575 6.08790361381232
    vertex -98.67993523250402 26.78071298187181 10.594321109394244
  endloop
endfacet
facet normal -0.9037872143142918 0.42745431479017365 0.021248058953136573
  outer loop
    vertex -97.7028052164155 23.544967841217485 11.183872055178762
    vertex -97.22685658116089 24.80451404700449 6.089657596977361
    vertex -98.24408952770523 22.552691374597988 8.122275564189831
  endloop
endfacet
facet normal -0.9037872143142918 0.42745431479017365 0.021248058953136573
  outer loop
    vertex -97.22685658116089 24.80451404700449 6.089657596977361
    vertex -97.7028052164155 23.544967841217485 11.183872055178762
    vertex -96.44658636794715 26.230254071500543 10.596399477929328
  endloop
endfacet
facet normal -0.22626078001690958 -0.9167533820808303 0.329194920783263
  outer loop
    vertex -100.99640586349132 25.733603999529095 6.086149630647279
    vertex -103.14663296161761 27.881630802614072 10.59016437232389
    vertex -102.88118050465621 26.198148975791227 6.084395647482328
  endloop
endfacet
facet normal -0.22626078001690958 -0.9167533820808303 0.329194920783263
  outer loop
    vertex -103.14663296161761 27.881630802614072 10.59016437232389
    vertex -100.99640586349132 25.733603999529095 6.086149630647279
    vertex -100.91328409706055 27.331171892242896 10.592242740859067
  endloop
endfacet
facet normal -0.4399989634963563 0.6859032564602586 -0.5796012723410335
  outer loop
    vertex -104.05364462484191 68.96642506369308 9.412098915184059
    vertex -97.67463482451483 65.09545444630406 -0.01139498148288922
    vertex -102.12552047895709 62.236757035859036 -0.015544020793456069
  endloop
endfacet
facet normal -0.4399989634963563 0.6859032564602586 -0.5796012723410335
  outer loop
    vertex -97.67463482451483 65.09545444630406 -0.01139498148288922
    vertex -104.05364462484191 68.96642506369308 9.412098915184059
    vertex -98.86770305042117 72.29723131227028 9.416933161023683
  endloop
endfacet
facet normal -0.9445069060058552 0.3147093697433855 -0.09415262663870756
  outer loop
    vertex -101.88959561515043 24.576896223484724 11.179975801634924
    vertex -100.99640586349132 25.733603999529095 6.086149630647279
    vertex -101.95421814492362 23.467135771701273 8.118822895105259
  endloop
endfacet
facet normal -0.9445069060058552 0.3147093697433855 -0.09415262663870756
  outer loop
    vertex -100.99640586349132 25.733603999529095 6.086149630647279
    vertex -101.88959561515043 24.576896223484724 11.179975801634924
    vertex -100.91328409706055 27.331171892242896 10.592242740859067
  endloop
endfacet
facet normal -0.2262607800169054 -0.9167533820808293 0.3291949207832687
  outer loop
    vertex -97.22685658116089 24.80451404700449 6.089657596977361
    vertex -98.67993523250402 26.78071298187181 10.594321109394244
    vertex -99.11163122232631 25.269059023266575 6.08790361381232
  endloop
endfacet
facet normal -0.2262607800169054 -0.9167533820808293 0.3291949207832687
  outer loop
    vertex -98.67993523250402 26.78071298187181 10.594321109394244
    vertex -97.22685658116089 24.80451404700449 6.089657596977361
    vertex -96.44658636794715 26.230254071500543 10.596399477929328
  endloop
endfacet
facet normal 0.9551415442520385 -0.25453968398566146 0.1513743033685413
  outer loop
    vertex -102.88118050465621 26.198148975791227 6.084395647482328
    vertex -103.98299081451813 25.092860414618364 11.178027674862962
    vertex -103.80928245353292 23.924357970252924 8.117096560563109
  endloop
endfacet
facet normal 0.9551415442520385 -0.25453968398566146 0.1513743033685413
  outer loop
    vertex -103.98299081451813 25.092860414618364 11.178027674862962
    vertex -102.88118050465621 26.198148975791227 6.084395647482328
    vertex -103.14663296161761 27.881630802614072 10.59016437232389
  endloop
endfacet
facet normal 0.8750032538266194 -0.477942166652943 -0.07707523031376022
  outer loop
    vertex -94.29513866089621 26.5844689654379 4.058821261552823
    vertex -95.60941001704798 23.029003650084068 11.185820181950724
    vertex -96.389025219096 22.0954691760464 8.124001898732072
  endloop
endfacet
facet normal 0.8750032538266194 -0.477942166652943 -0.07707523031376022
  outer loop
    vertex -95.60941001704798 23.029003650084068 11.185820181950724
    vertex -94.29513866089621 26.5844689654379 4.058821261552823
    vertex -92.8170649897329 28.330586672174714 10.011135510978374
  endloop
endfacet
facet normal 0.8750032538266194 -0.477942166652943 -0.07707523031376022
  outer loop
    vertex -92.8170649897329 28.330586672174714 10.011135510978374
    vertex -94.29513866089621 26.5844689654379 4.058821261552823
    vertex -93.24819538179608 28.828968860133696 2.026230942963243
  endloop
endfacet
facet normal 0.8750032538266194 -0.477942166652943 -0.07707523031376022
  outer loop
    vertex -92.8170649897329 28.330586672174714 10.011135510978374
    vertex -93.24819538179608 28.828968860133696 2.026230942963243
    vertex -91.42089247607535 30.981378183220304 9.423793175492245
  endloop
endfacet
facet normal 0.8750032538266194 -0.477942166652943 -0.07707523031376022
  outer loop
    vertex -91.42089247607535 30.981378183220304 9.423793175492245
    vertex -93.24819538179608 28.828968860133696 2.026230942963243
    vertex -92.201252102696 31.07346875482966 -0.006359375626336572
  endloop
endfacet
facet normal 0.8871839608845052 -0.4547998188093079 -0.07785720493506981
  outer loop
    vertex -92.201252102696 31.07346875482966 -0.006359375626336572
    vertex -84.70584182153289 44.0794411513547 9.43006841459563
    vertex -91.42089247607535 30.981378183220304 9.423793175492245
  endloop
endfacet
facet normal 0.8871839608845052 -0.4547998188093079 -0.07785720493506981
  outer loop
    vertex -84.70584182153289 44.0794411513547 9.43006841459563
    vertex -92.201252102696 31.07346875482966 -0.006359375626336572
    vertex -85.39616806380049 44.34714662122038 0.0
  endloop
endfacet
facet normal -0.9799792792390666 -0.0018671387615697254 -0.19909074829063508
  outer loop
    vertex -103.98717345075109 34.07861992745221 9.412098915184059
    vertex -102.12552047895709 62.236757035859036 -0.015544020793456069
    vertex -102.07078029685904 33.506035301800665 -0.015544020793456069
  endloop
endfacet
facet normal -0.9799792792390666 -0.0018671387615697254 -0.19909074829063508
  outer loop
    vertex -102.12552047895709 62.236757035859036 -0.015544020793456069
    vertex -103.98717345075109 34.07861992745221 9.412098915184059
    vertex -104.05364462484191 68.96642506369308 9.412098915184059
  endloop
endfacet
facet normal 0.0009310431196776798 1.7739014770280612e-06 -0.9999995665776875
  outer loop
    vertex -97.67463482451483 65.09545444630406 -0.01139498148288922
    vertex -102.07078029685904 33.506035301800665 -0.015544020793456069
    vertex -102.12552047895709 62.236757035859036 -0.015544020793456069
  endloop
endfacet
facet normal 0.0009310431196776798 1.7739014770280612e-06 -0.9999995665776875
  outer loop
    vertex -102.07078029685904 33.506035301800665 -0.015544020793456069
    vertex -97.67463482451483 65.09545444630406 -0.01139498148288922
    vertex -92.201252102696 31.07346875482966 -0.006359375626336572
  endloop
endfacet
facet normal 0.0009310431196776798 1.7739014770280612e-06 -0.9999995665776875
  outer loop
    vertex -92.201252102696 31.07346875482966 -0.006359375626336572
    vertex -97.67463482451483 65.09545444630406 -0.01139498148288922
    vertex -88.1850982273959 59.51672183867648 -0.0025697060219719956
  endloop
endfacet
facet normal 0.0009310431196776798 1.7739014770280612e-06 -0.9999995665776875
  outer loop
    vertex -92.201252102696 31.07346875482966 -0.006359375626336572
    vertex -88.1850982273959 59.51672183867648 -0.0025697060219719956
    vertex -85.39616806380049 44.34714662122038 0.0
  endloop
endfacet
facet normal 0.9813269753192289 0.18040590597163927 -0.06671638930102336
  outer loop
    vertex -85.39616806380049 44.34714662122038 0.0
    vertex -88.80622095275704 66.38226194734452 9.426290346186736
    vertex -84.70584182153289 44.0794411513547 9.43006841459563
  endloop
endfacet
facet normal 0.9813269753192289 0.18040590597163927 -0.06671638930102336
  outer loop
    vertex -88.80622095275704 66.38226194734452 9.426290346186736
    vertex -85.39616806380049 44.34714662122038 0.0
    vertex -88.1850982273959 59.51672183867648 -0.0025697060219719956
  endloop
endfacet
facet normal -0.2256721634349488 -0.9143386200302318 0.33623944232020325
  outer loop
    vertex -103.80928245353292 23.924357970252924 8.117096560563109
    vertex -106.07638601388561 25.60882460575205 11.176079548090998
    vertex -105.66434676214234 24.381580168804803 8.115370226020778
  endloop
endfacet
facet normal -0.2256721634349488 -0.9143386200302318 0.33623944232020325
  outer loop
    vertex -106.07638601388561 25.60882460575205 11.176079548090998
    vertex -103.80928245353292 23.924357970252924 8.117096560563109
    vertex -103.98299081451813 25.092860414618364 11.178027674862962
  endloop
endfacet
facet normal -0.15289390596974795 -0.623224427687386 -0.7669516061988816
  outer loop
    vertex -103.86756352950087 28.943807735302627 4.049913102613797
    vertex -103.80928245353292 23.924357970252924 8.117096560563109
    vertex -105.66434676214234 24.381580168804803 8.115370226020778
  endloop
endfacet
facet normal -0.15289390596974795 -0.623224427687386 -0.7669516061988816
  outer loop
    vertex -103.80928245353292 23.924357970252924 8.117096560563109
    vertex -103.86756352950087 28.943807735302627 4.049913102613797
    vertex -102.9691719131801 31.224921518551525 2.017184540910125
  endloop
endfacet
facet normal -0.15289390596974795 -0.623224427687386 -0.7669516061988816
  outer loop
    vertex -103.80928245353292 23.924357970252924 8.117096560563109
    vertex -102.9691719131801 31.224921518551525 2.017184540910125
    vertex -102.88118050465621 26.198148975791227 6.084395647482328
  endloop
endfacet
facet normal -0.15289390596974795 -0.623224427687386 -0.7669516061988816
  outer loop
    vertex -102.88118050465621 26.198148975791227 6.084395647482328
    vertex -102.9691719131801 31.224921518551525 2.017184540910125
    vertex -102.07078029685904 33.506035301800665 -0.015544020793456069
  endloop
endfacet
facet normal -0.15289390596974795 -0.623224427687386 -0.7669516061988816
  outer loop
    vertex -102.88118050465621 26.198148975791227 6.084395647482328
    vertex -102.07078029685904 33.506035301800665 -0.015544020793456069
    vertex -100.99640586349132 25.733603999529095 6.086149630647279
  endloop
endfacet
facet normal -0.15289390596974795 -0.623224427687386 -0.7669516061988816
  outer loop
    vertex -100.99640586349132 25.733603999529095 6.086149630647279
    vertex -102.07078029685904 33.506035301800665 -0.015544020793456069
    vertex -92.201252102696 31.07346875482966 -0.006359375626336572
  endloop
endfacet
facet normal -0.15289390596974795 -0.623224427687386 -0.7669516061988816
  outer loop
    vertex -100.99640586349132 25.733603999529095 6.086149630647279
    vertex -92.201252102696 31.07346875482966 -0.006359375626336572
    vertex -99.11163122232631 25.269059023266575 6.08790361381232
  endloop
endfacet
facet normal -0.15289390596974795 -0.623224427687386 -0.7669516061988816
  outer loop
    vertex -100.99640586349132 25.733603999529095 6.086149630647279
    vertex -99.11163122232631 25.269059023266575 6.08790361381232
    vertex -100.09915383631464 23.009913573149706 8.12054922964759
  endloop
endfacet
facet normal -0.15289390596974795 -0.623224427687386 -0.7669516061988816
  outer loop
    vertex -99.11163122232631 25.269059023266575 6.08790361381232
    vertex -92.201252102696 31.07346875482966 -0.006359375626336572
    vertex -97.22685658116089 24.80451404700449 6.089657596977361
  endloop
endfacet
facet normal -0.15289390596974795 -0.623224427687386 -0.7669516061988816
  outer loop
    vertex -97.22685658116089 24.80451404700449 6.089657596977361
    vertex -92.201252102696 31.07346875482966 -0.006359375626336572
    vertex -94.29513866089621 26.5844689654379 4.058821261552823
  endloop
endfacet
facet normal -0.15289390596974795 -0.623224427687386 -0.7669516061988816
  outer loop
    vertex -97.22685658116089 24.80451404700449 6.089657596977361
    vertex -94.29513866089621 26.5844689654379 4.058821261552823
    vertex -96.389025219096 22.0954691760464 8.124001898732072
  endloop
endfacet
facet normal -0.15289390596974795 -0.623224427687386 -0.7669516061988816
  outer loop
    vertex -94.29513866089621 26.5844689654379 4.058821261552823
    vertex -92.201252102696 31.07346875482966 -0.006359375626336572
    vertex -93.24819538179608 28.828968860133696 2.026230942963243
  endloop
endfacet
facet normal -0.15289390596974795 -0.623224427687386 -0.7669516061988816
  outer loop
    vertex -96.389025219096 22.0954691760464 8.124001898732072
    vertex -98.24408952770523 22.552691374597988 8.122275564189831
    vertex -97.22685658116089 24.80451404700449 6.089657596977361
  endloop
endfacet
facet normal -0.15289390596974795 -0.623224427687386 -0.7669516061988816
  outer loop
    vertex -100.09915383631464 23.009913573149706 8.12054922964759
    vertex -101.95421814492362 23.467135771701273 8.118822895105259
    vertex -100.99640586349132 25.733603999529095 6.086149630647279
  endloop
endfacet
facet normal -0.22567216343483104 -0.9143386200302744 0.3362394423201667
  outer loop
    vertex -96.389025219096 22.0954691760464 8.124001898732072
    vertex -97.7028052164155 23.544967841217485 11.183872055178762
    vertex -98.24408952770523 22.552691374597988 8.122275564189831
  endloop
endfacet
facet normal -0.22567216343483104 -0.9143386200302744 0.3362394423201667
  outer loop
    vertex -97.7028052164155 23.544967841217485 11.183872055178762
    vertex -96.389025219096 22.0954691760464 8.124001898732072
    vertex -95.60941001704798 23.029003650084068 11.185820181950724
  endloop
endfacet
facet normal -0.22567216343488541 -0.9143386200302526 0.33623944232018904
  outer loop
    vertex -100.09915383631464 23.009913573149706 8.12054922964759
    vertex -101.88959561515043 24.576896223484724 11.179975801634924
    vertex -101.95421814492362 23.467135771701273 8.118822895105259
  endloop
endfacet
facet normal -0.22567216343488541 -0.9143386200302526 0.33623944232018904
  outer loop
    vertex -101.88959561515043 24.576896223484724 11.179975801634924
    vertex -100.09915383631464 23.009913573149706 8.12054922964759
    vertex -99.79620041578299 24.060932032351147 11.181923928406889
  endloop
endfacet
facet normal 0.046570349051789924 0.1926483018885944 0.9801621469780577
  outer loop
    vertex -99.79620041578299 24.060932032351147 11.181923928406889
    vertex -100.91328409706055 27.331171892242896 10.592242740859067
    vertex -101.88959561515043 24.576896223484724 11.179975801634924
  endloop
endfacet
facet normal 0.046570349051789924 0.1926483018885944 0.9801621469780577
  outer loop
    vertex -95.60941001704798 23.029003650084068 11.185820181950724
    vertex -96.44658636794715 26.230254071500543 10.596399477929328
    vertex -97.7028052164155 23.544967841217485 11.183872055178762
  endloop
endfacet
facet normal 0.046570349051789924 0.1926483018885944 0.9801621469780577
  outer loop
    vertex -103.98299081451813 25.092860414618364 11.178027674862962
    vertex -104.68357763846275 31.255354820218592 10.000092459486343
    vertex -106.07638601388561 25.60882460575205 11.176079548090998
  endloop
endfacet
facet normal 0.046570349051789924 0.1926483018885944 0.9801621469780577
  outer loop
    vertex -104.68357763846275 31.255354820218592 10.000092459486343
    vertex -103.98299081451813 25.092860414618364 11.178027674862962
    vertex -103.98717345075109 34.07861992745221 9.412098915184059
  endloop
endfacet
facet normal 0.046570349051789924 0.1926483018885944 0.9801621469780577
  outer loop
    vertex -103.98717345075109 34.07861992745221 9.412098915184059
    vertex -103.98299081451813 25.092860414618364 11.178027674862962
    vertex -103.14663296161761 27.881630802614072 10.59016437232389
  endloop
endfacet
facet normal 0.046570349051789924 0.1926483018885944 0.9801621469780577
  outer loop
    vertex -103.98717345075109 34.07861992745221 9.412098915184059
    vertex -103.14663296161761 27.881630802614072 10.59016437232389
    vertex -91.42089247607535 30.981378183220304 9.423793175492245
  endloop
endfacet
facet normal 0.046570349051789924 0.1926483018885944 0.9801621469780577
  outer loop
    vertex -91.42089247607535 30.981378183220304 9.423793175492245
    vertex -103.14663296161761 27.881630802614072 10.59016437232389
    vertex -100.91328409706055 27.331171892242896 10.592242740859067
  endloop
endfacet
facet normal 0.046570349051789924 0.1926483018885944 0.9801621469780577
  outer loop
    vertex -91.42089247607535 30.981378183220304 9.423793175492245
    vertex -100.91328409706055 27.331171892242896 10.592242740859067
    vertex -98.67993523250402 26.78071298187181 10.594321109394244
  endloop
endfacet
facet normal 0.046570349051789924 0.1926483018885944 0.9801621469780577
  outer loop
    vertex -98.67993523250402 26.78071298187181 10.594321109394244
    vertex -100.91328409706055 27.331171892242896 10.592242740859067
    vertex -99.79620041578299 24.060932032351147 11.181923928406889
  endloop
endfacet
facet normal 0.046570349051789924 0.1926483018885944 0.9801621469780577
  outer loop
    vertex -91.42089247607535 30.981378183220304 9.423793175492245
    vertex -98.67993523250402 26.78071298187181 10.594321109394244
    vertex -96.44658636794715 26.230254071500543 10.596399477929328
  endloop
endfacet
facet normal 0.046570349051789924 0.1926483018885944 0.9801621469780577
  outer loop
    vertex -91.42089247607535 30.981378183220304 9.423793175492245
    vertex -96.44658636794715 26.230254071500543 10.596399477929328
    vertex -95.60941001704798 23.029003650084068 11.185820181950724
  endloop
endfacet
facet normal 0.046570349051789924 0.1926483018885944 0.9801621469780577
  outer loop
    vertex -91.42089247607535 30.981378183220304 9.423793175492245
    vertex -95.60941001704798 23.029003650084068 11.185820181950724
    vertex -92.8170649897329 28.330586672174714 10.011135510978374
  endloop
endfacet
endsolid 黑熊2015-3列印d
