solid 黑熊2015-3列印d
facet normal 0.0009561246555213266 -2.4468920032898794e-05 0.999999542613353
  outer loop
    vertex -62.36133535934314 30.981378183220304 9.423793175492245
    vertex -64.97600688266145 66.38226194734452 9.426290346186736
    vertex -69.07638601388561 44.0794411513547 9.43006841459563
  endloop
endfacet
facet normal 0.0009561246555213266 -2.4468920032898794e-05 0.999999542613353
  outer loop
    vertex -64.97600688266145 66.38226194734452 9.426290346186736
    vertex -62.36133535934314 30.981378183220304 9.423793175492245
    vertex -63.28477852647481 67.38309758689948 9.427070001649165
  endloop
endfacet
facet normal 0.0009561246555213266 -2.4468920032898794e-05 0.999999542613353
  outer loop
    vertex -63.28477852647481 67.38309758689948 9.427070001649165
    vertex -62.36133535934314 30.981378183220304 9.423793175492245
    vertex -61.08554184853091 63.642154499557954 9.422663293231759
  endloop
endfacet
facet normal 0.0009561246555213266 -2.4468920032898794e-05 0.999999542613353
  outer loop
    vertex -61.08554184853091 63.642154499557954 9.422663293231759
    vertex -62.36133535934314 30.981378183220304 9.423793175492245
    vertex -49.795054384667395 34.07861992745221 9.412098915184059
  endloop
endfacet
facet normal 0.0009561246555213266 -2.4468920032898794e-05 0.999999542613353
  outer loop
    vertex -61.08554184853091 63.642154499557954 9.422663293231759
    vertex -49.795054384667395 34.07861992745221 9.412098915184059
    vertex -60.25354659909862 62.206811068508046 9.42188612328445
  endloop
endfacet
facet normal 0.0009561246555213266 -2.4468920032898794e-05 0.999999542613353
  outer loop
    vertex -60.25354659909862 62.206811068508046 9.42188612328445
    vertex -49.795054384667395 34.07861992745221 9.412098915184059
    vertex -60.102991832735924 61.94679618737549 9.421745489003467
  endloop
endfacet
facet normal 0.0009561246555213266 -2.4468920032898794e-05 0.999999542613353
  outer loop
    vertex -60.102991832735924 61.94679618737549 9.421745489003467
    vertex -49.795054384667395 34.07861992745221 9.412098915184059
    vertex -59.855997014163115 61.52339041558671 9.421582185519073
  endloop
endfacet
facet normal 0.0009561246555213266 -2.4468920032898794e-05 0.999999542613353
  outer loop
    vertex -59.855997014163115 61.52339041558671 9.421582185519073
    vertex -49.795054384667395 34.07861992745221 9.412098915184059
    vertex -53.99364337474932 64.96908485673671 9.4161301914575
  endloop
endfacet
facet normal 0.0009561246555213266 -2.4468920032898794e-05 0.999999542613353
  outer loop
    vertex -55.23426330228941 67.0794045742859 9.417221595584401
    vertex -54.91452478499732 72.29723131227028 9.416933161023683
    vertex -57.43512981819287 70.82311941384717 9.422027965497579
  endloop
endfacet
facet normal 0.0009561246555213266 -2.4468920032898794e-05 0.999999542613353
  outer loop
    vertex -54.91452478499732 72.29723131227028 9.416933161023683
    vertex -55.23426330228941 67.0794045742859 9.417221595584401
    vertex -53.99364337474932 64.96908485673671 9.4161301914575
  endloop
endfacet
facet normal 0.0009561246555213266 -2.4468920032898794e-05 0.999999542613353
  outer loop
    vertex -54.91452478499732 72.29723131227028 9.416933161023683
    vertex -53.99364337474932 64.96908485673671 9.4161301914575
    vertex -49.72858321057658 68.96642506369308 9.412098915184059
  endloop
endfacet
facet normal 0.0009561246555213266 -2.4468920032898794e-05 0.999999542613353
  outer loop
    vertex -49.72858321057658 68.96642506369308 9.412098915184059
    vertex -53.99364337474932 64.96908485673671 9.4161301914575
    vertex -49.795054384667395 34.07861992745221 9.412098915184059
  endloop
endfacet
facet normal -0.43595184880474436 0.7408635981931231 -0.5109472716397105
  outer loop
    vertex -65.59712960802258 59.51672183867648 -0.0025697060219719956
    vertex -61.61065216046606 64.50809498047617 3.8319975416277563
    vertex -55.74915324142872 67.95524273750033 3.831343961505217
  endloop
endfacet
facet normal -0.43595184880474436 0.7408635981931231 -0.5109472716397105
  outer loop
    vertex -61.61065216046606 64.50809498047617 3.8319975416277563
    vertex -65.59712960802258 59.51672183867648 -0.0025697060219719956
    vertex -64.97600688266145 66.38226194734452 9.426290346186736
  endloop
endfacet
facet normal -0.43595184880474436 0.7408635981931231 -0.5109472716397105
  outer loop
    vertex -61.61065216046606 64.50809498047617 3.8319975416277563
    vertex -64.97600688266145 66.38226194734452 9.426290346186736
    vertex -61.75877202645496 64.7600499203831 4.323528504880114
  endloop
endfacet
facet normal -0.43595184880474436 0.7408635981931231 -0.5109472716397105
  outer loop
    vertex -61.75877202645496 64.7600499203831 4.323528504880114
    vertex -64.97600688266145 66.38226194734452 9.426290346186736
    vertex -61.81378621136129 64.85363018093499 4.506091290223739
  endloop
endfacet
facet normal -0.43595184880474436 0.7408635981931231 -0.5109472716397105
  outer loop
    vertex -61.81378621136129 64.85363018093499 4.506091290223739
    vertex -64.97600688266145 66.38226194734452 9.426290346186736
    vertex -61.92482707659986 65.04251297759173 4.87457679408706
  endloop
endfacet
facet normal -0.43595184880474436 0.7408635981931231 -0.5109472716397105
  outer loop
    vertex -61.92482707659986 65.04251297759173 4.87457679408706
    vertex -64.97600688266145 66.38226194734452 9.426290346186736
    vertex -62.02993052388171 65.22129610413033 5.2233591693532055
  endloop
endfacet
facet normal -0.43595184880474436 0.7408635981931231 -0.5109472716397105
  outer loop
    vertex -62.02993052388171 65.22129610413033 5.2233591693532055
    vertex -64.97600688266145 66.38226194734452 9.426290346186736
    vertex -62.159664380615084 65.44197606396553 5.653876758206003
  endloop
endfacet
facet normal -0.43595184880474436 0.7408635981931231 -0.5109472716397105
  outer loop
    vertex -62.159664380615084 65.44197606396553 5.653876758206003
    vertex -64.97600688266145 66.38226194734452 9.426290346186736
    vertex -62.24420866599665 65.61212182597953 5.972603017653578
  endloop
endfacet
facet normal -0.43595184880474436 0.7408635981931231 -0.5109472716397105
  outer loop
    vertex -62.24420866599665 65.61212182597953 5.972603017653578
    vertex -64.97600688266145 66.38226194734452 9.426290346186736
    vertex -62.25739616806683 65.63550272315024 6.017740339150942
  endloop
endfacet
facet normal -0.43595184880474436 0.7408635981931231 -0.5109472716397105
  outer loop
    vertex -62.25739616806683 65.63550272315024 6.017740339150942
    vertex -64.97600688266145 66.38226194734452 9.426290346186736
    vertex -63.28477852647481 67.38309758689948 9.427070001649165
  endloop
endfacet
facet normal -0.43595184880474436 0.7408635981931231 -0.5109472716397105
  outer loop
    vertex -56.10759301090366 65.09545444630406 -0.01139498148288922
    vertex -55.74915324142872 67.95524273750033 3.831343961505217
    vertex -54.91452478499732 72.29723131227028 9.416933161023683
  endloop
endfacet
facet normal -0.43595184880474436 0.7408635981931231 -0.5109472716397105
  outer loop
    vertex -55.74915324142872 67.95524273750033 3.831343961505217
    vertex -56.10759301090366 65.09545444630406 -0.01139498148288922
    vertex -65.59712960802258 59.51672183867648 -0.0025697060219719956
  endloop
endfacet
facet normal -0.43595184880474436 0.7408635981931231 -0.5109472716397105
  outer loop
    vertex -54.91452478499732 72.29723131227028 9.416933161023683
    vertex -55.74915324142872 67.95524273750033 3.831343961505217
    vertex -56.40876178286828 69.07725056011101 6.018131190532064
  endloop
endfacet
facet normal -0.43595184880474436 0.7408635981931231 -0.5109472716397105
  outer loop
    vertex -54.91452478499732 72.29723131227028 9.416933161023683
    vertex -56.40876178286828 69.07725056011101 6.018131190532064
    vertex -57.43512981819287 70.82311941384717 9.422027965497579
  endloop
endfacet
facet normal 0.8620671463504177 0.5067940757183806 -1.4290155645734996e-09
  outer loop
    vertex -61.81378621136129 64.85363018093499 4.506091290223739
    vertex -61.056062312111514 63.564726243724884 4.505803478167239
    vertex -61.75877202645496 64.7600499203831 4.323528504880114
  endloop
endfacet
facet normal 0.8645847969283863 0.502482683834262 -0.002069146446783986
  outer loop
    vertex -61.575579400223866 64.4757183720725 6.322881869873085
    vertex -59.98531514630865 61.743363299483704 7.2687728551245385
    vertex -60.21875822014804 62.14045476658891 6.157325922677085
  endloop
endfacet
facet normal 0.8651607898648683 0.5014881286270871 0.0025425433131511634
  outer loop
    vertex -61.08554184853091 63.642154499557954 9.422663293231759
    vertex -60.25354659909862 62.206811068508046 9.42188612328445
    vertex -61.0050727530795 63.50527480765196 9.039123852855226
  endloop
endfacet
facet normal 0.8642683482336234 0.5029157121537128 -0.01077073397908498
  outer loop
    vertex -61.87078172796056 64.97786361545609 6.081738089708809
    vertex -61.575579400223866 64.4757183720725 6.322881869873085
    vertex -60.21875822014804 62.14045476658891 6.157325922677085
  endloop
endfacet
facet normal 0.8620671463503606 0.5067940757184777 -1.4281578377442229e-09
  outer loop
    vertex -61.75877202645496 64.7600499203831 4.323528504880114
    vertex -61.056062312111514 63.564726243724884 4.505803478167239
    vertex -61.61065216046606 64.50809498047617 3.8319975416277563
  endloop
endfacet
facet normal 0.8639919394834269 0.5020078928214136 -0.03880726803925337
  outer loop
    vertex -62.187555617130485 65.51670252941956 5.999570514567393
    vertex -61.87078172796056 64.97786361545609 6.081738089708809
    vertex -60.21875822014804 62.14045476658891 6.157325922677085
  endloop
endfacet
facet normal 0.8656411769881914 0.5005776298840541 -0.009348217057903155
  outer loop
    vertex -61.575579400223866 64.4757183720725 6.322881869873085
    vertex -61.32206618471113 64.04448716777115 6.706568304951285
    vertex -59.98531514630865 61.743363299483704 7.2687728551245385
  endloop
endfacet
facet normal -0.3826222537022674 0.6659096290708626 0.6404409238036743
  outer loop
    vertex -54.3073342470393 65.50267957734128 6.118784920953289
    vertex -54.696860367911626 66.16527150696913 5.197126597150037
    vertex -60.582314894667014 62.75887214481127 5.222809310451249
  endloop
endfacet
facet normal -0.4802676773226751 0.8745881519244532 -0.0666222382726088
  outer loop
    vertex -53.99364337474932 64.96908485673671 9.4161301914575
    vertex -53.95894949601607 64.91007071137729 8.391315915412491
    vertex -59.92270450996097 61.63686204257106 8.413669534760208
  endloop
endfacet
facet normal -0.4485088437559336 0.8076710042086358 0.38276280649160477
  outer loop
    vertex -59.98531514630865 61.743363299483704 7.2687728551245385
    vertex -54.046551671676006 65.05908306714194 7.231092143135562
    vertex -60.21875822014804 62.14045476658891 6.157325922677085
  endloop
endfacet
facet normal -0.5023637685510893 0.8549046117745694 0.1294942037842637
  outer loop
    vertex -59.855997014163115 61.52339041558671 9.421582185519073
    vertex -53.99364337474932 64.96908485673671 9.4161301914575
    vertex -59.92270450996097 61.63686204257106 8.413669534760208
  endloop
endfacet
facet normal -0.8620670994084003 -0.5067941555677091 -1.3977745124940243e-08
  outer loop
    vertex -53.99364337474932 64.96908485673671 9.4161301914575
    vertex -54.046551671676006 65.05908306714194 7.231092143135562
    vertex -53.95894949601607 64.91007071137729 8.391315915412491
  endloop
endfacet
facet normal -0.8620670994084003 -0.5067941555677091 -1.3977745124940243e-08
  outer loop
    vertex -54.046551671676006 65.05908306714194 7.231092143135562
    vertex -53.99364337474932 64.96908485673671 9.4161301914575
    vertex -55.23426330228941 67.0794045742859 9.417221595584401
  endloop
endfacet
facet normal -0.8620670994084003 -0.5067941555677091 -1.3977745124940243e-08
  outer loop
    vertex -54.046551671676006 65.05908306714194 7.231092143135562
    vertex -55.23426330228941 67.0794045742859 9.417221595584401
    vertex -54.3073342470393 65.50267957734128 6.118784920953289
  endloop
endfacet
facet normal -0.8620670994084003 -0.5067941555677091 -1.3977745124940243e-08
  outer loop
    vertex -54.3073342470393 65.50267957734128 6.118784920953289
    vertex -55.23426330228941 67.0794045742859 9.417221595584401
    vertex -55.15493590735362 66.94446693308133 9.039123822295723
  endloop
endfacet
facet normal -0.8620670994084003 -0.5067941555677091 -1.3977745124940243e-08
  outer loop
    vertex -54.3073342470393 65.50267957734128 6.118784920953289
    vertex -55.15493590735362 66.94446693308133 9.039123822295723
    vertex -54.696860367911626 66.16527150696913 5.197126597150037
  endloop
endfacet
facet normal -0.8620670994084003 -0.5067941555677091 -1.3977745124940243e-08
  outer loop
    vertex -54.696860367911626 66.16527150696913 5.197126597150037
    vertex -55.15493590735362 66.94446693308133 9.039123822295723
    vertex -55.120877204668055 66.88653290799431 8.414072247543727
  endloop
endfacet
facet normal -0.8620670994084003 -0.5067941555677091 -1.3977745124940243e-08
  outer loop
    vertex -55.120877204668055 66.88653290799431 8.414072247543727
    vertex -55.194005748628506 67.01092601253183 4.505803476215011
    vertex -54.696860367911626 66.16527150696913 5.197126597150037
  endloop
endfacet
facet normal -0.8620670994084003 -0.5067941555677091 -1.3977745124940243e-08
  outer loop
    vertex -55.194005748628506 67.01092601253183 4.505803476215011
    vertex -55.120877204668055 66.88653290799431 8.414072247543727
    vertex -55.15505786189443 66.94467438021563 7.789046592493711
  endloop
endfacet
facet normal -0.8620670994084003 -0.5067941555677091 -1.3977745124940243e-08
  outer loop
    vertex -55.194005748628506 67.01092601253183 4.505803476215011
    vertex -55.15505786189443 66.94467438021563 7.789046592493711
    vertex -55.277381742382936 67.15274982191124 7.2066497679047785
  endloop
endfacet
facet normal -0.8620670994084003 -0.5067941555677091 -1.3977745124940243e-08
  outer loop
    vertex -55.194005748628506 67.01092601253183 4.505803476215011
    vertex -55.277381742382936 67.15274982191124 7.2066497679047785
    vertex -55.74915324142872 67.95524273750033 3.831343961505217
  endloop
endfacet
facet normal -0.8620670994084003 -0.5067941555677091 -1.3977745124940243e-08
  outer loop
    vertex -55.74915324142872 67.95524273750033 3.831343961505217
    vertex -55.277381742382936 67.15274982191124 7.2066497679047785
    vertex -55.47192933898505 67.48367929320051 6.706568274391692
  endloop
endfacet
facet normal -0.8620670994084003 -0.5067941555677091 -1.3977745124940243e-08
  outer loop
    vertex -55.74915324142872 67.95524273750033 3.831343961505217
    vertex -55.47192933898505 67.48367929320051 6.706568274391692
    vertex -55.72544255449792 67.91491049750185 6.322881839313582
  endloop
endfacet
facet normal -0.8620670994084003 -0.5067941555677091 -1.3977745124940243e-08
  outer loop
    vertex -55.74915324142872 67.95524273750033 3.831343961505217
    vertex -55.72544255449792 67.91491049750185 6.322881839313582
    vertex -56.02064488223456 68.41705574088539 6.081738059149216
  endloop
endfacet
facet normal -0.8620670994084003 -0.5067941555677091 -1.3977745124940243e-08
  outer loop
    vertex -55.74915324142872 67.95524273750033 3.831343961505217
    vertex -56.02064488223456 68.41705574088539 6.081738059149216
    vertex -56.33741877140463 68.95589465484888 5.9995704840078
  endloop
endfacet
facet normal -0.8620670994084003 -0.5067941555677091 -1.3977745124940243e-08
  outer loop
    vertex -55.74915324142872 67.95524273750033 3.831343961505217
    vertex -56.33741877140463 68.95589465484888 5.9995704840078
    vertex -56.40876178286828 69.07725056011101 6.018131190532064
  endloop
endfacet
facet normal -0.47547253492355257 0.8673123317226593 0.1472928639655528
  outer loop
    vertex -59.92270450996097 61.63686204257106 8.413669534760208
    vertex -53.95894949601607 64.91007071137729 8.391315915412491
    vertex -54.046551671676006 65.05908306714194 7.231092143135562
  endloop
endfacet
facet normal -0.4841541157245536 0.8683840818504279 0.10725613556233124
  outer loop
    vertex -59.92270450996097 61.63686204257106 8.413669534760208
    vertex -54.046551671676006 65.05908306714194 7.231092143135562
    vertex -59.98531514630865 61.743363299483704 7.2687728551245385
  endloop
endfacet
facet normal -0.44664706084548345 0.7901019166411887 0.4198158695880983
  outer loop
    vertex -54.046551671676006 65.05908306714194 7.231092143135562
    vertex -54.3073342470393 65.50267957734128 6.118784920953289
    vertex -60.21875822014804 62.14045476658891 6.157325922677085
  endloop
endfacet
facet normal -0.2859037354623176 0.5001369417219526 0.8173873583397931
  outer loop
    vertex -54.696860367911626 66.16527150696913 5.197126597150037
    vertex -55.194005748628506 67.01092601253183 4.505803476215011
    vertex -60.582314894667014 62.75887214481127 5.222809310451249
  endloop
endfacet
facet normal -0.3891936320041892 0.6912548337003908 0.6088473303655302
  outer loop
    vertex -60.21875822014804 62.14045476658891 6.157325922677085
    vertex -54.3073342470393 65.50267957734128 6.118784920953289
    vertex -60.582314894667014 62.75887214481127 5.222809310451249
  endloop
endfacet
facet normal -0.8620670747301951 -0.5067941975456426 4.3886790523945064e-07
  outer loop
    vertex -61.12728299002754 63.71315693939276 9.621613560707502
    vertex -63.28477852647481 67.38309758689948 9.427070001649165
    vertex -61.08554184853091 63.642154499557954 9.422663293231759
  endloop
endfacet
facet normal -0.8620670747301951 -0.5067941975456426 4.3886790523945064e-07
  outer loop
    vertex -63.28477852647481 67.38309758689948 9.427070001649165
    vertex -61.12728299002754 63.71315693939276 9.621613560707502
    vertex -61.32173299870915 64.04392041166057 10.121842810155108
  endloop
endfacet
facet normal -0.8620670747301951 -0.5067941975456426 4.3886790523945064e-07
  outer loop
    vertex -63.28477852647481 67.38309758689948 9.427070001649165
    vertex -61.32173299870915 64.04392041166057 10.121842810155108
    vertex -61.57517133237692 64.4750242404328 10.505721804515922
  endloop
endfacet
facet normal -0.8620670747301951 -0.5067941975456426 4.3886790523945064e-07
  outer loop
    vertex -63.28477852647481 67.38309758689948 9.427070001649165
    vertex -61.57517133237692 64.4750242404328 10.505721804515922
    vertex -61.870326587417864 64.97708941221124 10.747089824714553
  endloop
endfacet
facet normal -0.8620670747301951 -0.5067941975456426 4.3886790523945064e-07
  outer loop
    vertex -63.28477852647481 67.38309758689948 9.427070001649165
    vertex -61.870326587417864 64.97708941221124 10.747089824714553
    vertex -62.18708442096803 65.51590101524128 10.829498039053652
  endloop
endfacet
facet normal -0.8620670747301951 -0.5067941975456426 4.3886790523945064e-07
  outer loop
    vertex -63.28477852647481 67.38309758689948 9.427070001649165
    vertex -62.18708442096803 65.51590101524128 10.829498039053652
    vertex -62.50385831013807 66.0547399292049 10.747330463912327
  endloop
endfacet
facet normal -0.8620670747301951 -0.5067941975456426 4.3886790523945064e-07
  outer loop
    vertex -63.28477852647481 67.38309758689948 9.427070001649165
    vertex -62.50385831013807 66.0547399292049 10.747330463912327
    vertex -62.79906063787458 66.55688517258845 10.50618668374796
  endloop
endfacet
facet normal -0.8620670747301951 -0.5067941975456426 4.3886790523945064e-07
  outer loop
    vertex -63.28477852647481 67.38309758689948 9.427070001649165
    vertex -62.79906063787458 66.55688517258845 10.50618668374796
    vertex -63.05257385338734 66.9881163768897 10.12250024866985
  endloop
endfacet
facet normal -0.8620670747301951 -0.5067941975456426 4.3886790523945064e-07
  outer loop
    vertex -63.28477852647481 67.38309758689948 9.427070001649165
    vertex -63.05257385338734 66.9881163768897 10.12250024866985
    vertex -63.24712144998963 67.31904584817897 9.622418755156673
  endloop
endfacet
facet normal 0.8632545201173755 0.50435084631759 0.02053916540783569
  outer loop
    vertex -62.25739616806683 65.63550272315024 6.017740339150942
    vertex -62.187555617130485 65.51670252941956 5.999570514567393
    vertex -62.24420866599665 65.61212182597953 5.972603017653578
  endloop
endfacet
facet normal -0.3084392870238095 0.5246615604959354 0.7934705118391068
  outer loop
    vertex -55.194005748628506 67.01092601253183 4.505803476215011
    vertex -61.056062312111514 63.564726243724884 4.505803478167239
    vertex -60.582314894667014 62.75887214481127 5.222809310451249
  endloop
endfacet
facet normal 0.8637557421891524 0.5038716578483688 0.006274571890001943
  outer loop
    vertex -60.97101405039414 63.44734078256484 8.414072278103319
    vertex -60.102991832735924 61.94679618737549 9.421745489003467
    vertex -59.855997014163115 61.52339041558671 9.421582185519073
  endloop
endfacet
facet normal -0.26571730532740573 0.4519876742058207 0.851528893235899
  outer loop
    vertex -61.056062312111514 63.564726243724884 4.505803478167239
    vertex -55.74915324142872 67.95524273750033 3.831343961505217
    vertex -61.61065216046606 64.50809498047617 3.8319975416277563
  endloop
endfacet
facet normal -0.26571730532740573 0.4519876742058207 0.851528893235899
  outer loop
    vertex -55.74915324142872 67.95524273750033 3.831343961505217
    vertex -61.056062312111514 63.564726243724884 4.505803478167239
    vertex -55.194005748628506 67.01092601253183 4.505803476215011
  endloop
endfacet
facet normal 0.8653973515213871 0.5010855014547202 -0.000862677019775934
  outer loop
    vertex -60.97101405039414 63.44734078256484 8.414072278103319
    vertex -59.855997014163115 61.52339041558671 9.421582185519073
    vertex -59.92270450996097 61.63686204257106 8.413669534760208
  endloop
endfacet
facet normal -0.464961259386326 0.7910716849283252 0.3975130395025328
  outer loop
    vertex -63.36944533047803 67.52712128987469 9.040021930567741
    vertex -57.43512981819287 70.82311941384717 9.422027965497579
    vertex -57.519308484751924 70.96631341530406 9.040021900008147
  endloop
endfacet
facet normal -0.464961259386326 0.7910716849283252 0.3975130395025328
  outer loop
    vertex -57.43512981819287 70.82311941384717 9.422027965497579
    vertex -63.36944533047803 67.52712128987469 9.040021930567741
    vertex -63.28477852647481 67.38309758689948 9.427070001649165
  endloop
endfacet
facet normal 0.8620670709417284 0.5067942039900826 8.786070769284703e-08
  outer loop
    vertex -56.6541766049547 69.49470625787899 6.081978698346989
    vertex -57.43512981819287 70.82311941384717 9.422027965497579
    vertex -56.40876178286828 69.07725056011101 6.018131190532064
  endloop
endfacet
facet normal 0.8620670709417284 0.5067942039900826 8.786070769284703e-08
  outer loop
    vertex -57.43512981819287 70.82311941384717 9.422027965497579
    vertex -56.6541766049547 69.49470625787899 6.081978698346989
    vertex -56.94933185999567 69.99677142965746 6.32334671854553
  endloop
endfacet
facet normal 0.8620670709417284 0.5067942039900826 8.786070769284703e-08
  outer loop
    vertex -57.43512981819287 70.82311941384717 9.422027965497579
    vertex -56.94933185999567 69.99677142965746 6.32334671854553
    vertex -57.202770193663305 70.42787525842965 6.7072257129064345
  endloop
endfacet
facet normal 0.8620670709417284 0.5067942039900826 8.786070769284703e-08
  outer loop
    vertex -57.43512981819287 70.82311941384717 9.422027965497579
    vertex -57.202770193663305 70.42787525842965 6.7072257129064345
    vertex -57.39722020234505 70.75863873069747 7.207454962354041
  endloop
endfacet
facet normal 0.8620670709417284 0.5067942039900826 8.786070769284703e-08
  outer loop
    vertex -57.43512981819287 70.82311941384717 9.422027965497579
    vertex -57.39722020234505 70.75863873069747 7.207454962354041
    vertex -57.519430439293 70.96652086243824 7.789944670206316
  endloop
endfacet
facet normal 0.8620670709417284 0.5067942039900826 8.786070769284703e-08
  outer loop
    vertex -57.43512981819287 70.82311941384717 9.422027965497579
    vertex -57.519430439293 70.96652086243824 7.789944670206316
    vertex -57.519308484751924 70.96631341530406 9.040021900008147
  endloop
endfacet
facet normal 0.8620670709417284 0.5067942039900826 8.786070769284703e-08
  outer loop
    vertex -57.519308484751924 70.96631341530406 9.040021900008147
    vertex -57.519430439293 70.96652086243824 7.789944670206316
    vertex -57.553477937639414 71.0244360937857 8.528657641320692
  endloop
endfacet
facet normal 0.8620670709417284 0.5067942039900826 8.786070769284703e-08
  outer loop
    vertex -57.553477937639414 71.0244360937857 8.528657641320692
    vertex -57.519430439293 70.96652086243824 7.789944670206316
    vertex -57.55350011470663 71.02447381742451 8.301334848595573
  endloop
endfacet
facet normal 0.8620670709417284 0.5067942039900826 8.786070769284703e-08
  outer loop
    vertex -57.43512981819287 70.82311941384717 9.422027965497579
    vertex -55.277146144301696 67.15234906482219 9.621613530147908
    vertex -55.23426330228941 67.0794045742859 9.417221595584401
  endloop
endfacet
facet normal 0.8620670709417284 0.5067942039900826 8.786070769284703e-08
  outer loop
    vertex -55.277146144301696 67.15234906482219 9.621613530147908
    vertex -57.43512981819287 70.82311941384717 9.422027965497579
    vertex -55.47159615298304 67.48311253708995 10.121842779595514
  endloop
endfacet
facet normal 0.8620670709417284 0.5067942039900826 8.786070769284703e-08
  outer loop
    vertex -55.47159615298304 67.48311253708995 10.121842779595514
    vertex -57.43512981819287 70.82311941384717 9.422027965497579
    vertex -55.725034486650856 67.91421636586207 10.50572177395642
  endloop
endfacet
facet normal 0.8620670709417284 0.5067942039900826 8.786070769284703e-08
  outer loop
    vertex -55.725034486650856 67.91421636586207 10.50572177395642
    vertex -57.43512981819287 70.82311941384717 9.422027965497579
    vertex -56.02018974169185 68.41628153764069 10.74708979415496
  endloop
endfacet
facet normal 0.8620670709417284 0.5067942039900826 8.786070769284703e-08
  outer loop
    vertex -56.02018974169185 68.41628153764069 10.74708979415496
    vertex -57.43512981819287 70.82311941384717 9.422027965497579
    vertex -56.33694757524188 68.95509314067068 10.829498008494149
  endloop
endfacet
facet normal 0.8620670709417284 0.5067942039900826 8.786070769284703e-08
  outer loop
    vertex -56.33694757524188 68.95509314067068 10.829498008494149
    vertex -57.43512981819287 70.82311941384717 9.422027965497579
    vertex -56.65372146441207 69.49393205463417 10.747330433352733
  endloop
endfacet
facet normal 0.8620670709417284 0.5067942039900826 8.786070769284703e-08
  outer loop
    vertex -56.65372146441207 69.49393205463417 10.747330433352733
    vertex -57.43512981819287 70.82311941384717 9.422027965497579
    vertex -56.948923792148676 69.99607729801771 10.506186653188367
  endloop
endfacet
facet normal 0.8620670709417284 0.5067942039900826 8.786070769284703e-08
  outer loop
    vertex -56.948923792148676 69.99607729801771 10.506186653188367
    vertex -57.43512981819287 70.82311941384717 9.422027965497579
    vertex -57.20243700766139 70.4273085023191 10.122500218110257
  endloop
endfacet
facet normal 0.8620670709417284 0.5067942039900826 8.786070769284703e-08
  outer loop
    vertex -57.20243700766139 70.4273085023191 10.122500218110257
    vertex -57.43512981819287 70.82311941384717 9.422027965497579
    vertex -57.39698460426361 70.7582379736084 9.622418724597079
  endloop
endfacet
facet normal 0.4021261414735293 -0.6840248676050192 0.6086086976387595
  outer loop
    vertex -55.47159615298304 67.48311253708995 10.121842779595514
    vertex -61.12728299002754 63.71315693939276 9.621613560707502
    vertex -55.277146144301696 67.15234906482219 9.621613530147908
  endloop
endfacet
facet normal 0.4021261414735293 -0.6840248676050192 0.6086086976387595
  outer loop
    vertex -61.12728299002754 63.71315693939276 9.621613560707502
    vertex -55.47159615298304 67.48311253708995 10.121842779595514
    vertex -61.32173299870915 64.04392041166057 10.121842810155108
  endloop
endfacet
facet normal 0.46817931182051986 -0.7963826835774337 -0.3828612715870717
  outer loop
    vertex -55.15505786189443 66.94467438021563 7.789046592493711
    vertex -61.12751858810871 63.713557696481786 7.2066497984643725
    vertex -55.277381742382936 67.15274982191124 7.2066497679047785
  endloop
endfacet
facet normal 0.46817931182051986 -0.7963826835774337 -0.3828612715870717
  outer loop
    vertex -61.12751858810871 63.713557696481786 7.2066497984643725
    vertex -55.15505786189443 66.94467438021563 7.789046592493711
    vertex -61.00519470762051 63.505482254786116 7.789046623053304
  endloop
endfacet
facet normal -0.4682539821330231 0.79650969252062 -0.3825055789622863
  outer loop
    vertex -63.247357048071045 67.31944660526814 7.207454992913634
    vertex -57.519430439293 70.96652086243824 7.789944670206316
    vertex -57.39722020234505 70.75863873069747 7.207454962354041
  endloop
endfacet
facet normal -0.4682539821330231 0.79650969252062 -0.3825055789622863
  outer loop
    vertex -57.519430439293 70.96652086243824 7.789944670206316
    vertex -63.247357048071045 67.31944660526814 7.207454992913634
    vertex -63.36956728501881 67.52732873700887 7.7899447007659095
  endloop
endfacet
facet normal 0.19385155026601578 -0.32974549943363296 -0.9239531817482562
  outer loop
    vertex -56.02064488223456 68.41705574088539 6.081738059149216
    vertex -61.575579400223866 64.4757183720725 6.322881869873085
    vertex -61.87078172796056 64.97786361545609 6.081738089708809
  endloop
endfacet
facet normal 0.19385155026601578 -0.32974549943363296 -0.9239531817482562
  outer loop
    vertex -61.575579400223866 64.4757183720725 6.322881869873085
    vertex -56.02064488223456 68.41705574088539 6.081738059149216
    vertex -55.72544255449792 67.91491049750185 6.322881839313582
  endloop
endfacet
facet normal -0.3084392673893033 0.524661572038743 0.7934705118390883
  outer loop
    vertex -62.79906063787458 66.55688517258845 10.50618668374796
    vertex -57.20243700766139 70.4273085023191 10.122500218110257
    vertex -63.05257385338734 66.9881163768897 10.12250024866985
  endloop
endfacet
facet normal -0.3084392673893033 0.524661572038743 0.7934705118390883
  outer loop
    vertex -57.20243700766139 70.4273085023191 10.122500218110257
    vertex -62.79906063787458 66.55688517258845 10.50618668374796
    vertex -56.948923792148676 69.99607729801771 10.506186653188367
  endloop
endfacet
facet normal 0.3084392673893052 -0.5246615720387379 -0.793470511839091
  outer loop
    vertex -55.72544255449792 67.91491049750185 6.322881839313582
    vertex -61.32206618471113 64.04448716777115 6.706568304951285
    vertex -61.575579400223866 64.4757183720725 6.322881869873085
  endloop
endfacet
facet normal 0.3084392673893052 -0.5246615720387379 -0.793470511839091
  outer loop
    vertex -61.32206618471113 64.04448716777115 6.706568304951285
    vertex -55.72544255449792 67.91491049750185 6.322881839313582
    vertex -55.47192933898505 67.48367929320051 6.706568274391692
  endloop
endfacet
facet normal 0.503869060435466 -0.8570916807345667 -0.10728383266586083
  outer loop
    vertex -55.120877204668055 66.88653290799431 8.414072247543727
    vertex -61.00519470762051 63.505482254786116 7.789046623053304
    vertex -55.15505786189443 66.94467438021563 7.789046592493711
  endloop
endfacet
facet normal 0.503869060435466 -0.8570916807345667 -0.10728383266586083
  outer loop
    vertex -61.00519470762051 63.505482254786116 7.789046623053304
    vertex -55.120877204668055 66.88653290799431 8.414072247543727
    vertex -60.97101405039414 63.44734078256484 8.414072278103319
  endloop
endfacet
facet normal 0.06624662397306598 -0.11268686696706857 0.9914197167826135
  outer loop
    vertex -61.870326587417864 64.97708941221124 10.747089824714553
    vertex -56.33694757524188 68.95509314067068 10.829498008494149
    vertex -62.18708442096803 65.51590101524128 10.829498039053652
  endloop
endfacet
facet normal 0.06624662397306598 -0.11268686696706857 0.9914197167826135
  outer loop
    vertex -56.33694757524188 68.95509314067068 10.829498008494149
    vertex -61.870326587417864 64.97708941221124 10.747089824714553
    vertex -56.02018974169185 68.41628153764069 10.74708979415496
  endloop
endfacet
facet normal 0.0660531703470795 -0.11235781597259376 -0.9914699692259814
  outer loop
    vertex -56.33741877140463 68.95589465484888 5.9995704840078
    vertex -61.87078172796056 64.97786361545609 6.081738089708809
    vertex -62.187555617130485 65.51670252941956 5.999570514567393
  endloop
endfacet
facet normal 0.0660531703470795 -0.11235781597259376 -0.9914699692259814
  outer loop
    vertex -61.87078172796056 64.97786361545609 6.081738089708809
    vertex -56.33741877140463 68.95589465484888 5.9995704840078
    vertex -56.02064488223456 68.41705574088539 6.081738059149216
  endloop
endfacet
facet normal 0.30859406881733814 -0.524924878366467 0.7932361393448422
  outer loop
    vertex -61.32173299870915 64.04392041166057 10.121842810155108
    vertex -55.725034486650856 67.91421636586207 10.50572177395642
    vertex -61.57517133237692 64.4750242404328 10.505721804515922
  endloop
endfacet
facet normal 0.30859406881733814 -0.524924878366467 0.7932361393448422
  outer loop
    vertex -55.725034486650856 67.91421636586207 10.50572177395642
    vertex -61.32173299870915 64.04392041166057 10.121842810155108
    vertex -55.47159615298304 67.48311253708995 10.121842779595514
  endloop
endfacet
facet normal -0.0660531703470361 0.11235781597250867 0.9914699692259941
  outer loop
    vertex -62.18708442096803 65.51590101524128 10.829498039053652
    vertex -56.65372146441207 69.49393205463417 10.747330433352733
    vertex -62.50385831013807 66.0547399292049 10.747330463912327
  endloop
endfacet
facet normal -0.0660531703470361 0.11235781597250867 0.9914699692259941
  outer loop
    vertex -56.65372146441207 69.49393205463417 10.747330433352733
    vertex -62.18708442096803 65.51590101524128 10.829498039053652
    vertex -56.33694757524188 68.95509314067068 10.829498008494149
  endloop
endfacet
facet normal 0.19403182034720862 -0.330052126146834 0.9238058490390191
  outer loop
    vertex -61.57517133237692 64.4750242404328 10.505721804515922
    vertex -56.02018974169185 68.41628153764069 10.74708979415496
    vertex -61.870326587417864 64.97708941221124 10.747089824714553
  endloop
endfacet
facet normal 0.19403182034720862 -0.330052126146834 0.9238058490390191
  outer loop
    vertex -56.02018974169185 68.41628153764069 10.74708979415496
    vertex -61.57517133237692 64.4750242404328 10.505721804515922
    vertex -55.725034486650856 67.91421636586207 10.50572177395642
  endloop
endfacet
facet normal -0.06624662397334696 0.1126868669675357 -0.9914197167825415
  outer loop
    vertex -56.40876178286828 69.07725056011101 6.018131190532064
    vertex -62.187555617130485 65.51670252941956 5.999570514567393
    vertex -62.25739616806683 65.63550272315024 6.017740339150942
  endloop
endfacet
facet normal -0.06624662397334696 0.1126868669675357 -0.9914197167825415
  outer loop
    vertex -62.187555617130485 65.51670252941956 5.999570514567393
    vertex -56.40876178286828 69.07725056011101 6.018131190532064
    vertex -56.33741877140463 68.95589465484888 5.9995704840078
  endloop
endfacet
facet normal -0.4020073581599273 0.6838228255535113 0.608914137820176
  outer loop
    vertex -63.24712144998963 67.31904584817897 9.622418755156673
    vertex -57.20243700766139 70.4273085023191 10.122500218110257
    vertex -57.39698460426361 70.7582379736084 9.622418724597079
  endloop
endfacet
facet normal -0.4020073581599273 0.6838228255535113 0.608914137820176
  outer loop
    vertex -57.20243700766139 70.4273085023191 10.122500218110257
    vertex -63.24712144998963 67.31904584817897 9.622418755156673
    vertex -63.05257385338734 66.9881163768897 10.12250024866985
  endloop
endfacet
facet normal 0.503889956626554 -0.8571272236840661 0.10690104784581952
  outer loop
    vertex -55.15493590735362 66.94446693308133 9.039123822295723
    vertex -60.97101405039414 63.44734078256484 8.414072278103319
    vertex -55.120877204668055 66.88653290799431 8.414072247543727
  endloop
endfacet
facet normal 0.503889956626554 -0.8571272236840661 0.10690104784581952
  outer loop
    vertex -60.97101405039414 63.44734078256484 8.414072278103319
    vertex -55.15493590735362 66.94446693308133 9.039123822295723
    vertex -61.0050727530795 63.50527480765196 9.039123852855226
  endloop
endfacet
facet normal 0.46825398213293484 -0.7965096925204435 0.38250557896276205
  outer loop
    vertex -55.277146144301696 67.15234906482219 9.621613530147908
    vertex -61.08554184853091 63.642154499557954 9.422663293231759
    vertex -55.23426330228941 67.0794045742859 9.417221595584401
  endloop
endfacet
facet normal 0.46825398213293484 -0.7965096925204435 0.38250557896276205
  outer loop
    vertex -61.08554184853091 63.642154499557954 9.422663293231759
    vertex -55.277146144301696 67.15234906482219 9.621613530147908
    vertex -61.12728299002754 63.71315693939276 9.621613560707502
  endloop
endfacet
facet normal -0.5067940467347043 0.8620671418968593 0.00019249946133135528
  outer loop
    vertex -63.40363696043253 67.58528169199512 8.301334879155167
    vertex -57.553477937639414 71.0244360937857 8.528657641320692
    vertex -57.55350011470663 71.02447381742451 8.301334848595573
  endloop
endfacet
facet normal -0.5067940467347043 0.8620671418968593 0.00019249946133135528
  outer loop
    vertex -57.553477937639414 71.0244360937857 8.528657641320692
    vertex -63.40363696043253 67.58528169199512 8.301334879155167
    vertex -63.40361478336527 67.5852439683563 8.528657671880286
  endloop
endfacet
facet normal -0.5024710877364882 0.8547136981854979 -0.1303353371997779
  outer loop
    vertex -63.36956728501881 67.52732873700887 7.7899447007659095
    vertex -57.55350011470663 71.02447381742451 8.301334848595573
    vertex -57.519430439293 70.96652086243824 7.789944670206316
  endloop
endfacet
facet normal -0.5024710877364882 0.8547136981854979 -0.1303353371997779
  outer loop
    vertex -57.55350011470663 71.02447381742451 8.301334848595573
    vertex -63.36956728501881 67.52732873700887 7.7899447007659095
    vertex -63.40363696043253 67.58528169199512 8.301334879155167
  endloop
endfacet
facet normal -0.19385155026606102 0.32974549943372666 0.9239531817482134
  outer loop
    vertex -62.50385831013807 66.0547399292049 10.747330463912327
    vertex -56.948923792148676 69.99607729801771 10.506186653188367
    vertex -62.79906063787458 66.55688517258845 10.50618668374796
  endloop
endfacet
facet normal -0.19385155026606102 0.32974549943372666 0.9239531817482134
  outer loop
    vertex -56.948923792148676 69.99607729801771 10.506186653188367
    vertex -62.50385831013807 66.0547399292049 10.747330463912327
    vertex -56.65372146441207 69.49393205463417 10.747330433352733
  endloop
endfacet
facet normal 0.8620671463503733 0.5067940757184561 -1.4285848465121267e-09
  outer loop
    vertex -61.056062312111514 63.564726243724884 4.505803478167239
    vertex -61.92482707659986 65.04251297759173 4.87457679408706
    vertex -60.582314894667014 62.75887214481127 5.222809310451249
  endloop
endfacet
facet normal 0.8620671463503733 0.5067940757184561 -1.4285848465121267e-09
  outer loop
    vertex -61.92482707659986 65.04251297759173 4.87457679408706
    vertex -61.056062312111514 63.564726243724884 4.505803478167239
    vertex -61.81378621136129 64.85363018093499 4.506091290223739
  endloop
endfacet
facet normal 0.8620671463503716 0.5067940757184587 -1.4287947763418078e-09
  outer loop
    vertex -62.02993052388171 65.22129610413033 5.2233591693532055
    vertex -60.582314894667014 62.75887214481127 5.222809310451249
    vertex -61.92482707659986 65.04251297759173 4.87457679408706
  endloop
endfacet
facet normal 0.862067146350392 0.506794075718424 -1.4284039740708021e-09
  outer loop
    vertex -60.582314894667014 62.75887214481127 5.222809310451249
    vertex -62.159664380615084 65.44197606396553 5.653876758206003
    vertex -60.21875822014804 62.14045476658891 6.157325922677085
  endloop
endfacet
facet normal 0.862067146350392 0.506794075718424 -1.4284039740708021e-09
  outer loop
    vertex -62.159664380615084 65.44197606396553 5.653876758206003
    vertex -60.582314894667014 62.75887214481127 5.222809310451249
    vertex -62.02993052388171 65.22129610413033 5.2233591693532055
  endloop
endfacet
facet normal 0.8639919379008103 0.5020078863264059 -0.03880738729284033
  outer loop
    vertex -62.159664380615084 65.44197606396553 5.653876758206003
    vertex -62.187555617130485 65.51670252941956 5.999570514567393
    vertex -60.21875822014804 62.14045476658891 6.157325922677085
  endloop
endfacet
facet normal 0.8639919379008103 0.5020078863264059 -0.03880738729284033
  outer loop
    vertex -62.187555617130485 65.51670252941956 5.999570514567393
    vertex -62.159664380615084 65.44197606396553 5.653876758206003
    vertex -62.24420866599665 65.61212182597953 5.972603017653578
  endloop
endfacet
facet normal -0.8620674407004583 -0.5067935750222506 -5.731915665776854e-07
  outer loop
    vertex -63.28477852647481 67.38309758689948 9.427070001649165
    vertex -62.50431345068056 66.0555141324498 6.081978728906582
    vertex -62.25739616806683 65.63550272315024 6.017740339150942
  endloop
endfacet
facet normal -0.8620674407004583 -0.5067935750222506 -5.731915665776854e-07
  outer loop
    vertex -62.50431345068056 66.0555141324498 6.081978728906582
    vertex -63.28477852647481 67.38309758689948 9.427070001649165
    vertex -62.79946870572153 66.55757930422818 6.323346749105123
  endloop
endfacet
facet normal -0.8620674407004583 -0.5067935750222506 -5.731915665776854e-07
  outer loop
    vertex -62.79946870572153 66.55757930422818 6.323346749105123
    vertex -63.28477852647481 67.38309758689948 9.427070001649165
    vertex -63.05290703938918 66.98868313300031 6.707225743466028
  endloop
endfacet
facet normal -0.8620674407004583 -0.5067935750222506 -5.731915665776854e-07
  outer loop
    vertex -63.05290703938918 66.98868313300031 6.707225743466028
    vertex -63.28477852647481 67.38309758689948 9.427070001649165
    vertex -63.247357048071045 67.31944660526814 7.207454992913634
  endloop
endfacet
facet normal -0.8620674407004583 -0.5067935750222506 -5.731915665776854e-07
  outer loop
    vertex -63.247357048071045 67.31944660526814 7.207454992913634
    vertex -63.28477852647481 67.38309758689948 9.427070001649165
    vertex -63.36956728501881 67.52732873700887 7.7899447007659095
  endloop
endfacet
facet normal -0.8620674407004583 -0.5067935750222506 -5.731915665776854e-07
  outer loop
    vertex -63.36956728501881 67.52732873700887 7.7899447007659095
    vertex -63.28477852647481 67.38309758689948 9.427070001649165
    vertex -63.36944533047803 67.52712128987469 9.040021930567741
  endloop
endfacet
facet normal -0.8620674407004583 -0.5067935750222506 -5.731915665776854e-07
  outer loop
    vertex -63.36956728501881 67.52732873700887 7.7899447007659095
    vertex -63.36944533047803 67.52712128987469 9.040021930567741
    vertex -63.40361478336527 67.5852439683563 8.528657671880286
  endloop
endfacet
facet normal -0.8620674407004583 -0.5067935750222506 -5.731915665776854e-07
  outer loop
    vertex -63.36956728501881 67.52732873700887 7.7899447007659095
    vertex -63.40361478336527 67.5852439683563 8.528657671880286
    vertex -63.40363696043253 67.58528169199512 8.301334879155167
  endloop
endfacet
facet normal 0.4682539821329986 -0.796509692520567 0.38250557896242665
  outer loop
    vertex -55.23426330228941 67.0794045742859 9.417221595584401
    vertex -61.0050727530795 63.50527480765196 9.039123852855226
    vertex -55.15493590735362 66.94446693308133 9.039123822295723
  endloop
endfacet
facet normal 0.4682539821329986 -0.796509692520567 0.38250557896242665
  outer loop
    vertex -61.0050727530795 63.50527480765196 9.039123852855226
    vertex -55.23426330228941 67.0794045742859 9.417221595584401
    vertex -61.08554184853091 63.642154499557954 9.422663293231759
  endloop
endfacet
facet normal -0.06624662397301792 0.11268686696697829 -0.9914197167826269
  outer loop
    vertex -56.6541766049547 69.49470625787899 6.081978698346989
    vertex -62.25739616806683 65.63550272315024 6.017740339150942
    vertex -62.50431345068056 66.0555141324498 6.081978728906582
  endloop
endfacet
facet normal -0.06624662397301792 0.11268686696697829 -0.9914197167826269
  outer loop
    vertex -62.25739616806683 65.63550272315024 6.017740339150942
    vertex -56.6541766049547 69.49470625787899 6.081978698346989
    vertex -56.40876178286828 69.07725056011101 6.018131190532064
  endloop
endfacet
facet normal -0.308594068817409 0.5249248783665613 -0.7932361393447521
  outer loop
    vertex -57.202770193663305 70.42787525842965 6.7072257129064345
    vertex -62.79946870572153 66.55757930422818 6.323346749105123
    vertex -63.05290703938918 66.98868313300031 6.707225743466028
  endloop
endfacet
facet normal -0.308594068817409 0.5249248783665613 -0.7932361393447521
  outer loop
    vertex -62.79946870572153 66.55757930422818 6.323346749105123
    vertex -57.202770193663305 70.42787525842965 6.7072257129064345
    vertex -56.94933185999567 69.99677142965746 6.32334671854553
  endloop
endfacet
facet normal 0.8653974675973314 0.501085535497747 -0.0007135762480865176
  outer loop
    vertex -61.00519470762051 63.505482254786116 7.789046623053304
    vertex -60.97101405039414 63.44734078256484 8.414072278103319
    vertex -59.92270450996097 61.63686204257106 8.413669534760208
  endloop
endfacet
facet normal -0.474015236878436 0.806437930650506 0.3535073114027628
  outer loop
    vertex -63.28477852647481 67.38309758689948 9.427070001649165
    vertex -57.39698460426361 70.7582379736084 9.622418724597079
    vertex -57.43512981819287 70.82311941384717 9.422027965497579
  endloop
endfacet
facet normal -0.474015236878436 0.806437930650506 0.3535073114027628
  outer loop
    vertex -57.39698460426361 70.7582379736084 9.622418724597079
    vertex -63.28477852647481 67.38309758689948 9.427070001649165
    vertex -63.24712144998963 67.31904584817897 9.622418755156673
  endloop
endfacet
facet normal 0.8653976065883852 0.5010852990709053 0.0007110317263958305
  outer loop
    vertex -60.97101405039414 63.44734078256484 8.414072278103319
    vertex -60.25354659909862 62.206811068508046 9.42188612328445
    vertex -60.102991832735924 61.94679618737549 9.421745489003467
  endloop
endfacet
facet normal 0.8653976065883852 0.5010852990709053 0.0007110317263958305
  outer loop
    vertex -60.25354659909862 62.206811068508046 9.42188612328445
    vertex -60.97101405039414 63.44734078256484 8.414072278103319
    vertex -61.0050727530795 63.50527480765196 9.039123852855226
  endloop
endfacet
facet normal 0.40200735815989214 -0.6838228255534435 -0.6089141378202751
  outer loop
    vertex -55.277381742382936 67.15274982191124 7.2066497679047785
    vertex -61.32206618471113 64.04448716777115 6.706568304951285
    vertex -55.47192933898505 67.48367929320051 6.706568274391692
  endloop
endfacet
facet normal 0.40200735815989214 -0.6838228255534435 -0.6089141378202751
  outer loop
    vertex -61.32206618471113 64.04448716777115 6.706568304951285
    vertex -55.277381742382936 67.15274982191124 7.2066497679047785
    vertex -61.12751858810871 63.713557696481786 7.2066497984643725
  endloop
endfacet
facet normal -0.40212614147344544 0.6840248676048866 -0.608608697638964
  outer loop
    vertex -63.05290703938918 66.98868313300031 6.707225743466028
    vertex -57.39722020234505 70.75863873069747 7.207454962354041
    vertex -57.202770193663305 70.42787525842965 6.7072257129064345
  endloop
endfacet
facet normal -0.40212614147344544 0.6840248676048866 -0.608608697638964
  outer loop
    vertex -57.39722020234505 70.75863873069747 7.207454962354041
    vertex -63.05290703938918 66.98868313300031 6.707225743466028
    vertex -63.247357048071045 67.31944660526814 7.207454992913634
  endloop
endfacet
facet normal 0.8651835529274587 0.5014327069753896 -0.004760264609478306
  outer loop
    vertex -61.32206618471113 64.04448716777115 6.706568304951285
    vertex -61.12751858810871 63.713557696481786 7.2066497984643725
    vertex -59.98531514630865 61.743363299483704 7.2687728551245385
  endloop
endfacet
facet normal 0.8653974514257177 0.5010855635864192 -0.0007134641922000993
  outer loop
    vertex -61.00519470762051 63.505482254786116 7.789046623053304
    vertex -59.92270450996097 61.63686204257106 8.413669534760208
    vertex -59.98531514630865 61.743363299483704 7.2687728551245385
  endloop
endfacet
facet normal -0.19403182034720765 0.330052126146823 -0.9238058490390234
  outer loop
    vertex -56.94933185999567 69.99677142965746 6.32334671854553
    vertex -62.50431345068056 66.0555141324498 6.081978728906582
    vertex -62.79946870572153 66.55757930422818 6.323346749105123
  endloop
endfacet
facet normal -0.19403182034720765 0.330052126146823 -0.9238058490390234
  outer loop
    vertex -62.50431345068056 66.0555141324498 6.081978728906582
    vertex -56.94933185999567 69.99677142965746 6.32334671854553
    vertex -56.6541766049547 69.49470625787899 6.081978698346989
  endloop
endfacet
facet normal -0.5024456190834424 0.8546703778002294 0.13071704240331194
  outer loop
    vertex -63.40361478336527 67.5852439683563 8.528657671880286
    vertex -57.519308484751924 70.96631341530406 9.040021900008147
    vertex -57.553477937639414 71.0244360937857 8.528657641320692
  endloop
endfacet
facet normal -0.5024456190834424 0.8546703778002294 0.13071704240331194
  outer loop
    vertex -57.519308484751924 70.96631341530406 9.040021900008147
    vertex -63.40361478336527 67.5852439683563 8.528657671880286
    vertex -63.36944533047803 67.52712128987469 9.040021930567741
  endloop
endfacet
facet normal 0.8651602499747827 0.5014890475407726 -0.002545006919487829
  outer loop
    vertex -61.12751858810871 63.713557696481786 7.2066497984643725
    vertex -61.00519470762051 63.505482254786116 7.789046623053304
    vertex -59.98531514630865 61.743363299483704 7.2687728551245385
  endloop
endfacet
facet normal 0.9590733244608189 0.19352052959974952 -0.2067079169531383
  outer loop
    vertex -49.91466430591762 28.943807735302627 4.049913102613797
    vertex -47.70584182153287 25.60882460575205 11.176079548090998
    vertex -48.11788107327614 24.381580168804803 8.115370226020778
  endloop
endfacet
facet normal 0.9590733244608189 0.19352052959974952 -0.2067079169531383
  outer loop
    vertex -47.70584182153287 25.60882460575205 11.176079548090998
    vertex -49.91466430591762 28.943807735302627 4.049913102613797
    vertex -49.09865019695573 31.255354820218592 10.000092459486343
  endloop
endfacet
facet normal 0.9590733244608189 0.19352052959974952 -0.2067079169531383
  outer loop
    vertex -49.09865019695573 31.255354820218592 10.000092459486343
    vertex -49.91466430591762 28.943807735302627 4.049913102613797
    vertex -50.81305592223838 31.224921518551525 2.017184540910125
  endloop
endfacet
facet normal 0.9590733244608189 0.19352052959974952 -0.2067079169531383
  outer loop
    vertex -49.09865019695573 31.255354820218592 10.000092459486343
    vertex -50.81305592223838 31.224921518551525 2.017184540910125
    vertex -51.711447538559455 33.506035301800665 -0.015544020793456069
  endloop
endfacet
facet normal 0.9590733244608189 0.19352052959974952 -0.2067079169531383
  outer loop
    vertex -49.09865019695573 31.255354820218592 10.000092459486343
    vertex -51.711447538559455 33.506035301800665 -0.015544020793456069
    vertex -49.795054384667395 34.07861992745221 9.412098915184059
  endloop
endfacet
facet normal -0.927230823183983 -0.37273586128789876 0.036207433594800796
  outer loop
    vertex -53.98602741963549 24.060932032351147 11.181923928406889
    vertex -54.67059661309218 25.269059023266575 6.08790361381232
    vertex -53.68307399910385 23.009913573149706 8.12054922964759
  endloop
endfacet
facet normal -0.927230823183983 -0.37273586128789876 0.036207433594800796
  outer loop
    vertex -54.67059661309218 25.269059023266575 6.08790361381232
    vertex -53.98602741963549 24.060932032351147 11.181923928406889
    vertex -55.10229260291447 26.78071298187181 10.594321109394244
  endloop
endfacet
facet normal 0.9037872143142915 0.42745431479017354 0.02124805895313657
  outer loop
    vertex -56.555371254257594 24.80451404700449 6.089657596977361
    vertex -56.07942261900299 23.544967841217485 11.183872055178762
    vertex -55.538138307713254 22.552691374597988 8.122275564189831
  endloop
endfacet
facet normal 0.9037872143142915 0.42745431479017354 0.02124805895313657
  outer loop
    vertex -56.07942261900299 23.544967841217485 11.183872055178762
    vertex -56.555371254257594 24.80451404700449 6.089657596977361
    vertex -57.33564146747134 26.230254071500543 10.596399477929328
  endloop
endfacet
facet normal 0.22626078001690958 -0.9167533820808303 0.329194920783263
  outer loop
    vertex -50.635594873800876 27.881630802614072 10.59016437232389
    vertex -52.78582197192717 25.733603999529095 6.086149630647279
    vertex -50.901047330762275 26.198148975791227 6.084395647482328
  endloop
endfacet
facet normal 0.22626078001690958 -0.9167533820808303 0.329194920783263
  outer loop
    vertex -52.78582197192717 25.733603999529095 6.086149630647279
    vertex -50.635594873800876 27.881630802614072 10.59016437232389
    vertex -52.868943738357935 27.331171892242896 10.592242740859067
  endloop
endfacet
facet normal 0.4399989634963563 0.6859032564602586 -0.5796012723410335
  outer loop
    vertex -56.10759301090366 65.09545444630406 -0.01139498148288922
    vertex -49.72858321057658 68.96642506369308 9.412098915184059
    vertex -51.656707356461396 62.236757035859036 -0.015544020793456069
  endloop
endfacet
facet normal 0.4399989634963563 0.6859032564602586 -0.5796012723410335
  outer loop
    vertex -49.72858321057658 68.96642506369308 9.412098915184059
    vertex -56.10759301090366 65.09545444630406 -0.01139498148288922
    vertex -54.91452478499732 72.29723131227028 9.416933161023683
  endloop
endfacet
facet normal 0.9445069060058552 0.3147093697433855 -0.09415262663870756
  outer loop
    vertex -52.78582197192717 25.733603999529095 6.086149630647279
    vertex -51.892632220268055 24.576896223484724 11.179975801634924
    vertex -51.828009690494866 23.467135771701273 8.118822895105259
  endloop
endfacet
facet normal 0.9445069060058552 0.3147093697433855 -0.09415262663870756
  outer loop
    vertex -51.892632220268055 24.576896223484724 11.179975801634924
    vertex -52.78582197192717 25.733603999529095 6.086149630647279
    vertex -52.868943738357935 27.331171892242896 10.592242740859067
  endloop
endfacet
facet normal 0.2262607800169054 -0.9167533820808293 0.3291949207832687
  outer loop
    vertex -55.10229260291447 26.78071298187181 10.594321109394244
    vertex -56.555371254257594 24.80451404700449 6.089657596977361
    vertex -54.67059661309218 25.269059023266575 6.08790361381232
  endloop
endfacet
facet normal 0.2262607800169054 -0.9167533820808293 0.3291949207832687
  outer loop
    vertex -56.555371254257594 24.80451404700449 6.089657596977361
    vertex -55.10229260291447 26.78071298187181 10.594321109394244
    vertex -57.33564146747134 26.230254071500543 10.596399477929328
  endloop
endfacet
facet normal -0.9551415442520385 -0.25453968398566146 0.1513743033685413
  outer loop
    vertex -49.79923702090036 25.092860414618364 11.178027674862962
    vertex -50.901047330762275 26.198148975791227 6.084395647482328
    vertex -49.97294538188557 23.924357970252924 8.117096560563109
  endloop
endfacet
facet normal -0.9551415442520385 -0.25453968398566146 0.1513743033685413
  outer loop
    vertex -50.901047330762275 26.198148975791227 6.084395647482328
    vertex -49.79923702090036 25.092860414618364 11.178027674862962
    vertex -50.635594873800876 27.881630802614072 10.59016437232389
  endloop
endfacet
facet normal -0.8750032538266194 -0.477942166652943 -0.07707523031376022
  outer loop
    vertex -58.17281781837051 23.029003650084068 11.185820181950724
    vertex -59.487089174522275 26.5844689654379 4.058821261552823
    vertex -57.39320261632248 22.0954691760464 8.124001898732072
  endloop
endfacet
facet normal -0.8750032538266194 -0.477942166652943 -0.07707523031376022
  outer loop
    vertex -59.487089174522275 26.5844689654379 4.058821261552823
    vertex -58.17281781837051 23.029003650084068 11.185820181950724
    vertex -60.96516284568559 28.330586672174714 10.011135510978374
  endloop
endfacet
facet normal -0.8750032538266194 -0.477942166652943 -0.07707523031376022
  outer loop
    vertex -59.487089174522275 26.5844689654379 4.058821261552823
    vertex -60.96516284568559 28.330586672174714 10.011135510978374
    vertex -60.5340324536224 28.828968860133696 2.026230942963243
  endloop
endfacet
facet normal -0.8750032538266194 -0.477942166652943 -0.07707523031376022
  outer loop
    vertex -60.5340324536224 28.828968860133696 2.026230942963243
    vertex -60.96516284568559 28.330586672174714 10.011135510978374
    vertex -62.36133535934314 30.981378183220304 9.423793175492245
  endloop
endfacet
facet normal -0.8750032538266194 -0.477942166652943 -0.07707523031376022
  outer loop
    vertex -60.5340324536224 28.828968860133696 2.026230942963243
    vertex -62.36133535934314 30.981378183220304 9.423793175492245
    vertex -61.58097573272248 31.07346875482966 -0.006359375626336572
  endloop
endfacet
facet normal -0.8871839608845052 -0.4547998188093079 -0.07785720493506981
  outer loop
    vertex -69.07638601388561 44.0794411513547 9.43006841459563
    vertex -61.58097573272248 31.07346875482966 -0.006359375626336572
    vertex -62.36133535934314 30.981378183220304 9.423793175492245
  endloop
endfacet
facet normal -0.8871839608845052 -0.4547998188093079 -0.07785720493506981
  outer loop
    vertex -61.58097573272248 31.07346875482966 -0.006359375626336572
    vertex -69.07638601388561 44.0794411513547 9.43006841459563
    vertex -68.38605977161801 44.34714662122038 0.0
  endloop
endfacet
facet normal 0.9799792792390664 -0.001867138761569725 -0.19909074829063503
  outer loop
    vertex -51.656707356461396 62.236757035859036 -0.015544020793456069
    vertex -49.795054384667395 34.07861992745221 9.412098915184059
    vertex -51.711447538559455 33.506035301800665 -0.015544020793456069
  endloop
endfacet
facet normal 0.9799792792390664 -0.001867138761569725 -0.19909074829063503
  outer loop
    vertex -49.795054384667395 34.07861992745221 9.412098915184059
    vertex -51.656707356461396 62.236757035859036 -0.015544020793456069
    vertex -49.72858321057658 68.96642506369308 9.412098915184059
  endloop
endfacet
facet normal -0.0009310431196776798 1.7739014770280612e-06 -0.9999995665776875
  outer loop
    vertex -65.59712960802258 59.51672183867648 -0.0025697060219719956
    vertex -61.58097573272248 31.07346875482966 -0.006359375626336572
    vertex -68.38605977161801 44.34714662122038 0.0
  endloop
endfacet
facet normal -0.0009310431196776798 1.7739014770280612e-06 -0.9999995665776875
  outer loop
    vertex -61.58097573272248 31.07346875482966 -0.006359375626336572
    vertex -65.59712960802258 59.51672183867648 -0.0025697060219719956
    vertex -56.10759301090366 65.09545444630406 -0.01139498148288922
  endloop
endfacet
facet normal -0.0009310431196776798 1.7739014770280612e-06 -0.9999995665776875
  outer loop
    vertex -61.58097573272248 31.07346875482966 -0.006359375626336572
    vertex -56.10759301090366 65.09545444630406 -0.01139498148288922
    vertex -51.711447538559455 33.506035301800665 -0.015544020793456069
  endloop
endfacet
facet normal -0.0009310431196776798 1.7739014770280612e-06 -0.9999995665776875
  outer loop
    vertex -51.711447538559455 33.506035301800665 -0.015544020793456069
    vertex -56.10759301090366 65.09545444630406 -0.01139498148288922
    vertex -51.656707356461396 62.236757035859036 -0.015544020793456069
  endloop
endfacet
facet normal -0.9813269753192289 0.18040590597163927 -0.06671638930102336
  outer loop
    vertex -64.97600688266145 66.38226194734452 9.426290346186736
    vertex -68.38605977161801 44.34714662122038 0.0
    vertex -69.07638601388561 44.0794411513547 9.43006841459563
  endloop
endfacet
facet normal -0.9813269753192289 0.18040590597163927 -0.06671638930102336
  outer loop
    vertex -68.38605977161801 44.34714662122038 0.0
    vertex -64.97600688266145 66.38226194734452 9.426290346186736
    vertex -65.59712960802258 59.51672183867648 -0.0025697060219719956
  endloop
endfacet
facet normal 0.2256721634349488 -0.9143386200302318 0.33623944232020325
  outer loop
    vertex -47.70584182153287 25.60882460575205 11.176079548090998
    vertex -49.97294538188557 23.924357970252924 8.117096560563109
    vertex -48.11788107327614 24.381580168804803 8.115370226020778
  endloop
endfacet
facet normal 0.2256721634349488 -0.9143386200302318 0.33623944232020325
  outer loop
    vertex -49.97294538188557 23.924357970252924 8.117096560563109
    vertex -47.70584182153287 25.60882460575205 11.176079548090998
    vertex -49.79923702090036 25.092860414618364 11.178027674862962
  endloop
endfacet
facet normal 0.15289390596974795 -0.623224427687386 -0.7669516061988816
  outer loop
    vertex -51.711447538559455 33.506035301800665 -0.015544020793456069
    vertex -60.5340324536224 28.828968860133696 2.026230942963243
    vertex -61.58097573272248 31.07346875482966 -0.006359375626336572
  endloop
endfacet
facet normal 0.15289390596974795 -0.623224427687386 -0.7669516061988816
  outer loop
    vertex -60.5340324536224 28.828968860133696 2.026230942963243
    vertex -51.711447538559455 33.506035301800665 -0.015544020793456069
    vertex -59.487089174522275 26.5844689654379 4.058821261552823
  endloop
endfacet
facet normal 0.15289390596974795 -0.623224427687386 -0.7669516061988816
  outer loop
    vertex -59.487089174522275 26.5844689654379 4.058821261552823
    vertex -51.711447538559455 33.506035301800665 -0.015544020793456069
    vertex -56.555371254257594 24.80451404700449 6.089657596977361
  endloop
endfacet
facet normal 0.15289390596974795 -0.623224427687386 -0.7669516061988816
  outer loop
    vertex -59.487089174522275 26.5844689654379 4.058821261552823
    vertex -56.555371254257594 24.80451404700449 6.089657596977361
    vertex -57.39320261632248 22.0954691760464 8.124001898732072
  endloop
endfacet
facet normal 0.15289390596974795 -0.623224427687386 -0.7669516061988816
  outer loop
    vertex -56.555371254257594 24.80451404700449 6.089657596977361
    vertex -51.711447538559455 33.506035301800665 -0.015544020793456069
    vertex -54.67059661309218 25.269059023266575 6.08790361381232
  endloop
endfacet
facet normal 0.15289390596974795 -0.623224427687386 -0.7669516061988816
  outer loop
    vertex -54.67059661309218 25.269059023266575 6.08790361381232
    vertex -51.711447538559455 33.506035301800665 -0.015544020793456069
    vertex -53.68307399910385 23.009913573149706 8.12054922964759
  endloop
endfacet
facet normal 0.15289390596974795 -0.623224427687386 -0.7669516061988816
  outer loop
    vertex -53.68307399910385 23.009913573149706 8.12054922964759
    vertex -51.711447538559455 33.506035301800665 -0.015544020793456069
    vertex -52.78582197192717 25.733603999529095 6.086149630647279
  endloop
endfacet
facet normal 0.15289390596974795 -0.623224427687386 -0.7669516061988816
  outer loop
    vertex -52.78582197192717 25.733603999529095 6.086149630647279
    vertex -51.711447538559455 33.506035301800665 -0.015544020793456069
    vertex -50.901047330762275 26.198148975791227 6.084395647482328
  endloop
endfacet
facet normal 0.15289390596974795 -0.623224427687386 -0.7669516061988816
  outer loop
    vertex -50.901047330762275 26.198148975791227 6.084395647482328
    vertex -51.711447538559455 33.506035301800665 -0.015544020793456069
    vertex -50.81305592223838 31.224921518551525 2.017184540910125
  endloop
endfacet
facet normal 0.15289390596974795 -0.623224427687386 -0.7669516061988816
  outer loop
    vertex -50.901047330762275 26.198148975791227 6.084395647482328
    vertex -50.81305592223838 31.224921518551525 2.017184540910125
    vertex -49.97294538188557 23.924357970252924 8.117096560563109
  endloop
endfacet
facet normal 0.15289390596974795 -0.623224427687386 -0.7669516061988816
  outer loop
    vertex -49.97294538188557 23.924357970252924 8.117096560563109
    vertex -50.81305592223838 31.224921518551525 2.017184540910125
    vertex -49.91466430591762 28.943807735302627 4.049913102613797
  endloop
endfacet
facet normal 0.15289390596974795 -0.623224427687386 -0.7669516061988816
  outer loop
    vertex -49.97294538188557 23.924357970252924 8.117096560563109
    vertex -49.91466430591762 28.943807735302627 4.049913102613797
    vertex -48.11788107327614 24.381580168804803 8.115370226020778
  endloop
endfacet
facet normal 0.15289390596974795 -0.623224427687386 -0.7669516061988816
  outer loop
    vertex -51.828009690494866 23.467135771701273 8.118822895105259
    vertex -53.68307399910385 23.009913573149706 8.12054922964759
    vertex -52.78582197192717 25.733603999529095 6.086149630647279
  endloop
endfacet
facet normal 0.15289390596974795 -0.623224427687386 -0.7669516061988816
  outer loop
    vertex -55.538138307713254 22.552691374597988 8.122275564189831
    vertex -57.39320261632248 22.0954691760464 8.124001898732072
    vertex -56.555371254257594 24.80451404700449 6.089657596977361
  endloop
endfacet
facet normal 0.22567216343483099 -0.9143386200302742 0.33623944232016667
  outer loop
    vertex -56.07942261900299 23.544967841217485 11.183872055178762
    vertex -57.39320261632248 22.0954691760464 8.124001898732072
    vertex -55.538138307713254 22.552691374597988 8.122275564189831
  endloop
endfacet
facet normal 0.22567216343483099 -0.9143386200302742 0.33623944232016667
  outer loop
    vertex -57.39320261632248 22.0954691760464 8.124001898732072
    vertex -56.07942261900299 23.544967841217485 11.183872055178762
    vertex -58.17281781837051 23.029003650084068 11.185820181950724
  endloop
endfacet
facet normal 0.22567216343488541 -0.9143386200302526 0.33623944232018904
  outer loop
    vertex -51.892632220268055 24.576896223484724 11.179975801634924
    vertex -53.68307399910385 23.009913573149706 8.12054922964759
    vertex -51.828009690494866 23.467135771701273 8.118822895105259
  endloop
endfacet
facet normal 0.22567216343488541 -0.9143386200302526 0.33623944232018904
  outer loop
    vertex -53.68307399910385 23.009913573149706 8.12054922964759
    vertex -51.892632220268055 24.576896223484724 11.179975801634924
    vertex -53.98602741963549 24.060932032351147 11.181923928406889
  endloop
endfacet
facet normal -0.046570349051789924 0.1926483018885944 0.9801621469780577
  outer loop
    vertex -56.07942261900299 23.544967841217485 11.183872055178762
    vertex -57.33564146747134 26.230254071500543 10.596399477929328
    vertex -58.17281781837051 23.029003650084068 11.185820181950724
  endloop
endfacet
facet normal -0.046570349051789924 0.1926483018885944 0.9801621469780577
  outer loop
    vertex -51.892632220268055 24.576896223484724 11.179975801634924
    vertex -52.868943738357935 27.331171892242896 10.592242740859067
    vertex -53.98602741963549 24.060932032351147 11.181923928406889
  endloop
endfacet
facet normal -0.046570349051789924 0.1926483018885944 0.9801621469780577
  outer loop
    vertex -60.96516284568559 28.330586672174714 10.011135510978374
    vertex -49.795054384667395 34.07861992745221 9.412098915184059
    vertex -62.36133535934314 30.981378183220304 9.423793175492245
  endloop
endfacet
facet normal -0.046570349051789924 0.1926483018885944 0.9801621469780577
  outer loop
    vertex -49.795054384667395 34.07861992745221 9.412098915184059
    vertex -60.96516284568559 28.330586672174714 10.011135510978374
    vertex -57.33564146747134 26.230254071500543 10.596399477929328
  endloop
endfacet
facet normal -0.046570349051789924 0.1926483018885944 0.9801621469780577
  outer loop
    vertex -57.33564146747134 26.230254071500543 10.596399477929328
    vertex -60.96516284568559 28.330586672174714 10.011135510978374
    vertex -58.17281781837051 23.029003650084068 11.185820181950724
  endloop
endfacet
facet normal -0.046570349051789924 0.1926483018885944 0.9801621469780577
  outer loop
    vertex -49.795054384667395 34.07861992745221 9.412098915184059
    vertex -57.33564146747134 26.230254071500543 10.596399477929328
    vertex -55.10229260291447 26.78071298187181 10.594321109394244
  endloop
endfacet
facet normal -0.046570349051789924 0.1926483018885944 0.9801621469780577
  outer loop
    vertex -49.795054384667395 34.07861992745221 9.412098915184059
    vertex -55.10229260291447 26.78071298187181 10.594321109394244
    vertex -52.868943738357935 27.331171892242896 10.592242740859067
  endloop
endfacet
facet normal -0.046570349051789924 0.1926483018885944 0.9801621469780577
  outer loop
    vertex -52.868943738357935 27.331171892242896 10.592242740859067
    vertex -55.10229260291447 26.78071298187181 10.594321109394244
    vertex -53.98602741963549 24.060932032351147 11.181923928406889
  endloop
endfacet
facet normal -0.046570349051789924 0.1926483018885944 0.9801621469780577
  outer loop
    vertex -49.795054384667395 34.07861992745221 9.412098915184059
    vertex -52.868943738357935 27.331171892242896 10.592242740859067
    vertex -50.635594873800876 27.881630802614072 10.59016437232389
  endloop
endfacet
facet normal -0.046570349051789924 0.1926483018885944 0.9801621469780577
  outer loop
    vertex -49.795054384667395 34.07861992745221 9.412098915184059
    vertex -50.635594873800876 27.881630802614072 10.59016437232389
    vertex -49.79923702090036 25.092860414618364 11.178027674862962
  endloop
endfacet
facet normal -0.046570349051789924 0.1926483018885944 0.9801621469780577
  outer loop
    vertex -49.795054384667395 34.07861992745221 9.412098915184059
    vertex -49.79923702090036 25.092860414618364 11.178027674862962
    vertex -47.70584182153287 25.60882460575205 11.176079548090998
  endloop
endfacet
facet normal -0.046570349051789924 0.1926483018885944 0.9801621469780577
  outer loop
    vertex -49.795054384667395 34.07861992745221 9.412098915184059
    vertex -47.70584182153287 25.60882460575205 11.176079548090998
    vertex -49.09865019695573 31.255354820218592 10.000092459486343
  endloop
endfacet
endsolid 黑熊2015-3列印d
