solid 黑熊2015-3列印d
facet normal 0.482819515327466 0.875711011219473 0.00394213748103017
   outer loop
      vertex 22.0481096322492 -90.7918395403377 49.911100016902
      vertex 24.7812925585026 -92.2856252083722 46.991491578378
      vertex 23.9271680230451 -91.8115136778295 46.282055741329
   endloop
endfacet
facet normal 0.482819515327466 0.875711011219473 0.00394213748103017
   outer loop
      vertex 24.7812925585026 -92.2856252083722 46.991491578378
      vertex 22.0481096322492 -90.7918395403377 49.911100016902
      vertex 22.0715735831908 -90.807352834727 50.483456842689
   endloop
endfacet
facet normal 0.683373712624468 0.606885555873427 0.405820515703743
   outer loop
      vertex 25.6985248756483 -93.5150953398266 48.8294777239472
      vertex 22.0839257642079 -91.1111770919014 51.3212658744656
      vertex 25.6991247907208 -94.1866675830757 49.8327723140616
   endloop
endfacet
facet normal 0.683373712624468 0.606885555873427 0.405820515703743
   outer loop
      vertex 22.0839257642079 -91.1111770919014 51.3212658744656
      vertex 25.6985248756483 -93.5150953398266 48.8294777239472
      vertex 22.0857361107317 -90.9700647126948 51.1071904284025
   endloop
endfacet
facet normal -0.342203610369549 0.27650866200893 0.898019848825224
   outer loop
      vertex 19.3458819644946 -96.2332852137864 52.8818470275117
      vertex 20.1172698067728 -92.2673800063985 51.95465656617
      vertex 18.30001690432 -95.8984320497932 52.3802004319651
   endloop
endfacet
facet normal -0.342203610369549 0.27650866200893 0.898019848825224
   outer loop
      vertex 20.1172698067728 -92.2673800063985 51.95465656617
      vertex 19.3458819644946 -96.2332852137864 52.8818470275117
      vertex 20.177965449169 -93.4273516467415 52.3349515837553
   endloop
endfacet
facet normal -0.661239265991784 0.704148205583984 0.25872367051258
   outer loop
      vertex 16.5280601366444 -93.5232781445466 48.829483859232
      vertex 20.0863306073249 -90.9044048093869 50.7960344791293
      vertex 16.8399566717089 -92.8743103482637 47.8603754942097
   endloop
endfacet
facet normal -0.661239265991784 0.704148205583984 0.25872367051258
   outer loop
      vertex 20.0863306073249 -90.9044048093869 50.7960344791293
      vertex 16.5280601366444 -93.5232781445466 48.829483859232
      vertex 20.0784336928051 -91.0127258791209 51.0706608276907
   endloop
endfacet
facet normal 0.659981937482721 0.705327131124823 0.258722786580116
   outer loop
      vertex 22.0822039528477 -90.8703122447374 50.8442566430095
      vertex 25.6985248756483 -93.5150953398266 48.8294777239472
      vertex 25.3854693936587 -92.8666851881627 47.860369777034
   endloop
endfacet
facet normal 0.659981937482721 0.705327131124823 0.258722786580116
   outer loop
      vertex 25.6985248756483 -93.5150953398266 48.8294777239472
      vertex 22.0822039528477 -90.8703122447374 50.8442566430095
      vertex 22.0857361107317 -90.9700647126948 51.1071904284025
   endloop
endfacet
facet normal -0.661063353243728 0.507223467091649 0.552919159940841
   outer loop
      vertex 20.0803639769931 -91.3833940994967 51.5000469530156
      vertex 16.528660051717 -94.1948503877958 49.8327784493467
      vertex 16.8417155337061 -94.8432605394594 50.8018863962596
   endloop
endfacet
facet normal -0.661063353243728 0.507223467091649 0.552919159940841
   outer loop
      vertex 16.528660051717 -94.1948503877958 49.8327784493467
      vertex 20.0803639769931 -91.3833940994967 51.5000469530156
      vertex 20.0765148335337 -91.1657218010483 51.2957620705676
   endloop
endfacet
facet normal -0.68445512838538 0.605665042342799 0.405821430817606
   outer loop
      vertex 20.0765148335337 -91.1657218010483 51.2957620705676
      vertex 16.5280601366444 -93.5232781445466 48.829483859232
      vertex 16.528660051717 -94.1948503877958 49.8327784493467
   endloop
endfacet
facet normal -0.68445512838538 0.605665042342799 0.405821430817606
   outer loop
      vertex 16.5280601366444 -93.5232781445466 48.829483859232
      vertex 20.0765148335337 -91.1657218010483 51.2957620705676
      vertex 20.0784336928051 -91.0127258791209 51.0706608276907
   endloop
endfacet
facet normal 0.341710810135484 0.277118918774213 0.898019391268341
   outer loop
      vertex 22.8855492313585 -96.2301267690572 52.8818446593799
      vertex 22.0318643166698 -92.1159762585906 51.9371038379842
      vertex 21.9658699980994 -93.1489909756287 52.2809927300608
   endloop
endfacet
facet normal 0.341710810135484 0.277118918774213 0.898019391268341
   outer loop
      vertex 22.0318643166698 -92.1159762585906 51.9371038379842
      vertex 22.8855492313585 -96.2301267690572 52.8818446593799
      vertex 23.9308143764605 -95.8934076898019 52.3801966648119
   endloop
endfacet
facet normal -0.592997888718609 0.795961491991833 0.121650348299572
   outer loop
      vertex 16.8399566717089 -92.8743103482637 47.8603754942097
      vertex 20.1026281914946 -90.835116714693 50.4221249682884
      vertex 17.4430944234792 -92.2921730817945 46.9914964878278
   endloop
endfacet
facet normal -0.592997888718609 0.795961491991833 0.121650348299572
   outer loop
      vertex 20.1026281914946 -90.835116714693 50.4221249682884
      vertex 16.8399566717089 -92.8743103482637 47.8603754942097
      vertex 20.0863306073249 -90.9044048093869 50.7960344791293
   endloop
endfacet
facet normal 0.591576635624748 0.797018487715029 0.121649555787731
   outer loop
      vertex 22.0715735831908 -90.807352834727 50.483456842689
      vertex 25.3854693936587 -92.8666851881627 47.860369777034
      vertex 24.7812925585026 -92.2856252083722 46.991491578378
   endloop
endfacet
facet normal 0.591576635624748 0.797018487715029 0.121649555787731
   outer loop
      vertex 25.3854693936587 -92.8666851881627 47.860369777034
      vertex 22.0715735831908 -90.807352834727 50.483456842689
      vertex 22.0822039528477 -90.8703122447374 50.8442566430095
   endloop
endfacet
facet normal -0.592658051385754 0.415532110501279 0.6899923907334
   outer loop
      vertex 17.4458923688624 -95.4243205192506 51.6707645949154
      vertex 20.0803639769931 -91.3833940994967 51.5000469530156
      vertex 16.8417155337061 -94.8432605394594 50.8018863962596
   endloop
endfacet
facet normal -0.592658051385754 0.415532110501279 0.6899923907334
   outer loop
      vertex 20.0803639769931 -91.3833940994967 51.5000469530156
      vertex 17.4458923688624 -95.4243205192506 51.6707645949154
      vertex 20.0918817584741 -91.71198783981 51.7078280217115
   endloop
endfacet
facet normal -0.484381533653408 0.87484797782555 0.00394278456405363
   outer loop
      vertex 17.4430944234792 -92.2921730817945 46.9914964878278
      vertex 20.1344726354622 -90.8148411525693 49.8354396249092
      vertex 18.2963705509045 -91.8165380378207 46.2820595084818
   endloop
endfacet
facet normal -0.484381533653408 0.87484797782555 0.00394278456405363
   outer loop
      vertex 20.1344726354622 -90.8148411525693 49.8354396249092
      vertex 17.4430944234792 -92.2921730817945 46.9914964878278
      vertex 20.1026281914946 -90.835116714693 50.4221249682884
   endloop
endfacet
facet normal 0.34112219460832 0.936041936207527 -0.0863779023041674
   outer loop
      vertex 21.9919821914008 -90.8772166586101 48.7642455986686
      vertex 23.9271680230451 -91.8115136778295 46.282055741329
      vertex 22.8813029628705 -91.4766605138361 45.780409145782
   endloop
endfacet
facet normal 0.34112219460832 0.936041936207527 -0.0863779023041674
   outer loop
      vertex 23.9271680230451 -91.8115136778295 46.282055741329
      vertex 21.9919821914008 -90.8772166586101 48.7642455986686
      vertex 22.0481096322492 -90.7918395403377 49.911100016902
   endloop
endfacet
facet normal 0.660157850230826 0.508402392632369 0.552918276008577
   outer loop
      vertex 25.6991247907208 -94.1866675830757 49.8327723140616
      vertex 22.076574123413 -91.3114708529432 51.5142113337756
      vertex 25.3872282556564 -94.8356353793582 50.8018806790845
   endloop
endfacet
facet normal 0.660157850230826 0.508402392632369 0.552918276008577
   outer loop
      vertex 22.076574123413 -91.3114708529432 51.5142113337756
      vertex 25.6991247907208 -94.1866675830757 49.8327723140616
      vertex 22.0839257642079 -91.1111770919014 51.3212658744656
   endloop
endfacet
facet normal 0.591916472957547 0.416589106224481 0.689991598221737
   outer loop
      vertex 24.784090503886 -95.4177726458283 51.6707596854657
      vertex 22.076574123413 -91.3114708529432 51.5142113337756
      vertex 22.0614310761436 -91.6122586689618 51.7088055098699
   endloop
endfacet
facet normal 0.591916472957547 0.416589106224481 0.689991598221737
   outer loop
      vertex 22.076574123413 -91.3114708529432 51.5142113337756
      vertex 24.784090503886 -95.4177726458283 51.6707596854657
      vertex 25.3872282556564 -94.8356353793582 50.8018806790845
   endloop
endfacet
facet normal 0.483300117892581 0.337702620390894 0.807699161957062
   outer loop
      vertex 23.9308143764605 -95.8934076898019 52.3801966648119
      vertex 22.0614310761436 -91.6122586689618 51.7088055098699
      vertex 22.0318643166698 -92.1159762585906 51.9371038379842
   endloop
endfacet
facet normal 0.483300117892581 0.337702620390894 0.807699161957062
   outer loop
      vertex 22.0614310761436 -91.6122586689618 51.7088055098699
      vertex 23.9308143764605 -95.8934076898019 52.3801966648119
      vertex 24.784090503886 -95.4177726458283 51.6707596854657
   endloop
endfacet
facet normal -0.000741140424343728 0.831012730698118 0.556252903029304
   outer loop
      vertex 20.7141055282112 -94.4490450116412 44.1614919329183
      vertex 21.4836312296 -96.654335571468 47.4571059364154
      vertex 21.5141320259547 -94.4483311480815 44.1614913976795
   endloop
endfacet
facet normal -0.000741140424343728 0.831012730698118 0.556252903029304
   outer loop
      vertex 21.4836312296 -96.654335571468 47.4571059364154
      vertex 20.7141055282112 -94.4490450116412 44.1614919329183
      vertex 20.6836047318567 -96.655049435028 47.4571064716544
   endloop
endfacet
facet normal 0.176141111709873 0.973899809842124 -0.143155402116316
   outer loop
      vertex 21.9919821914008 -90.8772166586101 48.7642455986686
      vertex 22.8813029628705 -91.4766605138361 45.780409145782
      vertex 21.8185473628099 -91.3192286893306 45.5437982430787
   endloop
endfacet
facet normal 0.176797627023008 0.238966680520674 0.954797111788658
   outer loop
      vertex 22.8855492313585 -96.2301267690572 52.8818446593799
      vertex 21.9658699980994 -93.1489909756287 52.2809927300608
      vertex 21.748290022305 -96.4006699123173 53.1351119297931
   endloop
endfacet
facet normal -0.177879042784031 0.973583917695583 -0.143155165267474
   outer loop
      vertex 20.2055764721137 -90.8952400474207 48.6825748236483
      vertex 20.4138179911446 -91.3190347351405 45.54163685189
      vertex 19.3416356960068 -91.4798189585652 45.7804115139137
   endloop
endfacet
facet normal -0.177222527470679 0.238650788374317 0.954797348637511
   outer loop
      vertex 20.3438283197445 -96.381116488876 53.1040288611823
      vertex 20.177965449169 -93.4273516467415 52.3349515837553
      vertex 19.3458819644946 -96.2332852137864 52.8818470275117
   endloop
endfacet
facet normal -0.996033610577966 0.0779280594832607 0.0429448966024438
   outer loop
      vertex 21.6386199979221 -97.1283464118515 51.9119488307155
      vertex 21.4836312296 -96.654335571468 47.4571059364154
      vertex 21.4531304332453 -98.8603399948547 50.752720475151
   endloop
endfacet
facet normal -0.996033610577966 0.0779280594832607 0.0429448966024438
   outer loop
      vertex 21.4836312296 -96.654335571468 47.4571059364154
      vertex 21.6386199979221 -97.1283464118515 51.9119488307155
      vertex 21.6813770879414 -96.7235085621147 52.1690054681271
   endloop
endfacet
facet normal -0.996033610577966 0.0779280594832607 0.0429448966024438
   outer loop
      vertex 21.4836312296 -96.654335571468 47.4571059364154
      vertex 21.6813770879414 -96.7235085621147 52.1690054681271
      vertex 21.748290022305 -96.4006699123173 53.1351119297931
   endloop
endfacet
facet normal -0.996033610577966 0.0779280594832607 0.0429448966024438
   outer loop
      vertex 21.4836312296 -96.654335571468 47.4571059364154
      vertex 21.748290022305 -96.4006699123173 53.1351119297931
      vertex 21.5141320259547 -94.4483311480815 44.1614913976795
   endloop
endfacet
facet normal -0.996033610577966 0.0779280594832607 0.0429448966024438
   outer loop
      vertex 21.5141320259547 -94.4483311480815 44.1614913976795
      vertex 21.748290022305 -96.4006699123173 53.1351119297931
      vertex 21.9658699980994 -93.1489909756287 52.2809927300608
   endloop
endfacet
facet normal -0.996033610577966 0.0779280594832607 0.0429448966024438
   outer loop
      vertex 21.5141320259547 -94.4483311480815 44.1614913976795
      vertex 21.9658699980994 -93.1489909756287 52.2809927300608
      vertex 21.635215104376 -93.3177278432438 44.9182074864251
   endloop
endfacet
facet normal -0.996033610577966 0.0779280594832607 0.0429448966024438
   outer loop
      vertex 21.635215104376 -93.3177278432438 44.9182074864251
      vertex 21.9658699980994 -93.1489909756287 52.2809927300608
      vertex 21.7420678133666 -92.3339835415096 45.6113656362702
   endloop
endfacet
facet normal -0.996033610577966 0.0779280594832607 0.0429448966024438
   outer loop
      vertex 21.7420678133666 -92.3339835415096 45.6113656362702
      vertex 21.9658699980994 -93.1489909756287 52.2809927300608
      vertex 22.0318643166698 -92.1159762585906 51.9371038379842
   endloop
endfacet
facet normal -0.996033610577966 0.0779280594832607 0.0429448966024438
   outer loop
      vertex 21.7420678133666 -92.3339835415096 45.6113656362702
      vertex 22.0318643166698 -92.1159762585906 51.9371038379842
      vertex 21.8185473628099 -91.3192286893306 45.5437982430787
   endloop
endfacet
facet normal -0.996033610577966 0.0779280594832607 0.0429448966024438
   outer loop
      vertex 21.8185473628099 -91.3192286893306 45.5437982430787
      vertex 22.0318643166698 -92.1159762585906 51.9371038379842
      vertex 22.0614310761436 -91.6122586689618 51.7088055098699
   endloop
endfacet
facet normal -0.996033610577966 0.0779280594832607 0.0429448966024438
   outer loop
      vertex 21.8185473628099 -91.3192286893306 45.5437982430787
      vertex 22.0614310761436 -91.6122586689618 51.7088055098699
      vertex 22.076574123413 -91.3114708529432 51.5142113337756
   endloop
endfacet
facet normal -0.996033610577966 0.0779280594832607 0.0429448966024438
   outer loop
      vertex 21.8185473628099 -91.3192286893306 45.5437982430787
      vertex 22.076574123413 -91.3114708529432 51.5142113337756
      vertex 21.9919821914008 -90.8772166586101 48.7642455986686
   endloop
endfacet
facet normal -0.996033610577966 0.0779280594832607 0.0429448966024438
   outer loop
      vertex 21.9919821914008 -90.8772166586101 48.7642455986686
      vertex 22.076574123413 -91.3114708529432 51.5142113337756
      vertex 22.0839257642079 -91.1111770919014 51.3212658744656
   endloop
endfacet
facet normal -0.996033610577966 0.0779280594832607 0.0429448966024438
   outer loop
      vertex 21.9919821914008 -90.8772166586101 48.7642455986686
      vertex 22.0839257642079 -91.1111770919014 51.3212658744656
      vertex 22.0857361107317 -90.9700647126948 51.1071904284025
   endloop
endfacet
facet normal -0.996033610577966 0.0779280594832607 0.0429448966024438
   outer loop
      vertex 21.9919821914008 -90.8772166586101 48.7642455986686
      vertex 22.0857361107317 -90.9700647126948 51.1071904284025
      vertex 22.0822039528477 -90.8703122447374 50.8442566430095
   endloop
endfacet
facet normal -0.996033610577966 0.0779280594832607 0.0429448966024438
   outer loop
      vertex 21.9919821914008 -90.8772166586101 48.7642455986686
      vertex 22.0822039528477 -90.8703122447374 50.8442566430095
      vertex 22.0481096322492 -90.7918395403377 49.911100016902
   endloop
endfacet
facet normal -0.996033610577966 0.0779280594832607 0.0429448966024438
   outer loop
      vertex 22.0481096322492 -90.7918395403377 49.911100016902
      vertex 22.0822039528477 -90.8703122447374 50.8442566430095
      vertex 22.0715735831908 -90.807352834727 50.483456842689
   endloop
endfacet
facet normal 0.995901115965062 0.0706331395877105 0.056497139852629
   outer loop
      vertex 20.6836047318567 -96.655049435028 47.4571064716544
      vertex 20.5954834748271 -98.3319428189899 51.1069249087851
      vertex 20.6531039355028 -98.8610538584143 50.7527210103902
   endloop
endfacet
facet normal 0.995901115965062 0.0706331395877105 0.056497139852629
   outer loop
      vertex 20.5954834748271 -98.3319428189899 51.1069249087851
      vertex 20.6836047318567 -96.655049435028 47.4571064716544
      vertex 20.4215020434946 -96.7053441287571 52.1401901224386
   endloop
endfacet
facet normal 0.995901115965062 0.0706331395877105 0.056497139852629
   outer loop
      vertex 20.4215020434946 -96.7053441287571 52.1401901224386
      vertex 20.6836047318567 -96.655049435028 47.4571064716544
      vertex 20.3438283197445 -96.381116488876 53.1040288611823
   endloop
endfacet
facet normal 0.995901115965062 0.0706331395877105 0.056497139852629
   outer loop
      vertex 20.3438283197445 -96.381116488876 53.1040288611823
      vertex 20.6836047318567 -96.655049435028 47.4571064716544
      vertex 20.7141055282112 -94.4490450116412 44.1614919329183
   endloop
endfacet
facet normal 0.995901115965062 0.0706331395877105 0.056497139852629
   outer loop
      vertex 20.3438283197445 -96.381116488876 53.1040288611823
      vertex 20.7141055282112 -94.4490450116412 44.1614919329183
      vertex 20.177965449169 -93.4273516467415 52.3349515837553
   endloop
endfacet
facet normal 0.995901115965062 0.0706331395877105 0.056497139852629
   outer loop
      vertex 20.177965449169 -93.4273516467415 52.3349515837553
      vertex 20.7141055282112 -94.4490450116412 44.1614919329183
      vertex 20.591005982315 -93.3186595909333 44.9182081850287
   endloop
endfacet
facet normal 0.995901115965062 0.0706331395877105 0.056497139852629
   outer loop
      vertex 20.177965449169 -93.4273516467415 52.3349515837553
      vertex 20.591005982315 -93.3186595909333 44.9182081850287
      vertex 20.1172698067728 -92.2673800063985 51.95465656617
   endloop
endfacet
facet normal 0.995901115965062 0.0706331395877105 0.056497139852629
   outer loop
      vertex 20.1172698067728 -92.2673800063985 51.95465656617
      vertex 20.591005982315 -93.3186595909333 44.9182081850287
      vertex 20.481925099815 -92.3351785774027 45.6114719680043
   endloop
endfacet
facet normal 0.995901115965062 0.0706331395877105 0.056497139852629
   outer loop
      vertex 20.1172698067728 -92.2673800063985 51.95465656617
      vertex 20.481925099815 -92.3351785774027 45.6114719680043
      vertex 20.4138179911446 -91.3190347351405 45.54163685189
   endloop
endfacet
facet normal 0.995901115965062 0.0706331395877105 0.056497139852629
   outer loop
      vertex 20.1172698067728 -92.2673800063985 51.95465656617
      vertex 20.4138179911446 -91.3190347351405 45.54163685189
      vertex 20.0918817584741 -91.71198783981 51.7078280217115
   endloop
endfacet
facet normal 0.995901115965062 0.0706331395877105 0.056497139852629
   outer loop
      vertex 20.0918817584741 -91.71198783981 51.7078280217115
      vertex 20.4138179911446 -91.3190347351405 45.54163685189
      vertex 20.0803639769931 -91.3833940994967 51.5000469530156
   endloop
endfacet
facet normal 0.995901115965062 0.0706331395877105 0.056497139852629
   outer loop
      vertex 20.0803639769931 -91.3833940994967 51.5000469530156
      vertex 20.4138179911446 -91.3190347351405 45.54163685189
      vertex 20.0765148335337 -91.1657218010483 51.2957620705676
   endloop
endfacet
facet normal 0.995901115965062 0.0706331395877105 0.056497139852629
   outer loop
      vertex 20.0765148335337 -91.1657218010483 51.2957620705676
      vertex 20.4138179911446 -91.3190347351405 45.54163685189
      vertex 20.2055764721137 -90.8952400474207 48.6825748236483
   endloop
endfacet
facet normal 0.995901115965062 0.0706331395877105 0.056497139852629
   outer loop
      vertex 20.0765148335337 -91.1657218010483 51.2957620705676
      vertex 20.2055764721137 -90.8952400474207 48.6825748236483
      vertex 20.0784336928051 -91.0127258791209 51.0706608276907
   endloop
endfacet
facet normal 0.995901115965062 0.0706331395877105 0.056497139852629
   outer loop
      vertex 20.0784336928051 -91.0127258791209 51.0706608276907
      vertex 20.2055764721137 -90.8952400474207 48.6825748236483
      vertex 20.0863306073249 -90.9044048093869 50.7960344791293
   endloop
endfacet
facet normal 0.995901115965062 0.0706331395877105 0.056497139852629
   outer loop
      vertex 20.0863306073249 -90.9044048093869 50.7960344791293
      vertex 20.2055764721137 -90.8952400474207 48.6825748236483
      vertex 20.1026281914946 -90.835116714693 50.4221249682884
   endloop
endfacet
facet normal 0.995901115965062 0.0706331395877105 0.056497139852629
   outer loop
      vertex 20.1026281914946 -90.835116714693 50.4221249682884
      vertex 20.2055764721137 -90.8952400474207 48.6825748236483
      vertex 20.1344726354622 -90.8148411525693 49.8354396249092
   endloop
endfacet
facet normal -0.000741140424163945 0.831012730698115 0.55625290302931
   outer loop
      vertex 20.6836047318567 -96.655049435028 47.4571064716544
      vertex 21.4531304332453 -98.8603399948547 50.752720475151
      vertex 21.4836312296 -96.654335571468 47.4571059364154
   endloop
endfacet
facet normal -0.000741140424163945 0.831012730698115 0.55625290302931
   outer loop
      vertex 21.4531304332453 -98.8603399948547 50.752720475151
      vertex 20.6836047318567 -96.655049435028 47.4571064716544
      vertex 20.6531039355028 -98.8610538584143 50.7527210103902
   endloop
endfacet
facet normal -0.000496900178550804 0.556252681089422 -0.831013061191605
   outer loop
      vertex 20.7141055282112 -94.4490450116412 44.1614919329183
      vertex 20.5924479054573 -94.9354334831995 43.8359923080717
      vertex 20.591005982315 -93.3186595909333 44.9182081850287
   endloop
endfacet
facet normal -0.000496900178550804 0.556252681089422 -0.831013061191605
   outer loop
      vertex 20.5924479054573 -94.9354334831995 43.8359923080717
      vertex 20.7141055282112 -94.4490450116412 44.1614919329183
      vertex 21.1145527514257 -94.9352870995111 43.8357781024468
   endloop
endfacet
facet normal -0.000496900178550804 0.556252681089422 -0.831013061191605
   outer loop
      vertex 21.1145527514257 -94.9352870995111 43.8357781024468
      vertex 20.7141055282112 -94.4490450116412 44.1614919329183
      vertex 21.5141320259547 -94.4483311480815 44.1614913976795
   endloop
endfacet
facet normal -0.000496900178550804 0.556252681089422 -0.831013061191605
   outer loop
      vertex 21.1145527514257 -94.9352870995111 43.8357781024468
      vertex 21.5141320259547 -94.4483311480815 44.1614913976795
      vertex 21.6366575973942 -94.9351407158227 43.8355638968218
   endloop
endfacet
facet normal -0.000496900178550804 0.556252681089422 -0.831013061191605
   outer loop
      vertex 21.6366575973942 -94.9351407158227 43.8355638968218
      vertex 21.5141320259547 -94.4483311480815 44.1614913976795
      vertex 21.635215104376 -93.3177278432438 44.9182074864251
   endloop
endfacet
facet normal -0.259298910782212 0.53706788649207 -0.802696804631798
   outer loop
      vertex 20.481925099815 -92.3351785774027 45.6114719680043
      vertex 19.5839531314415 -95.0860976122845 44.0609648381877
      vertex 19.5816201271414 -92.4701881149908 45.811969604034
   endloop
endfacet
facet normal -0.259298910782212 0.53706788649207 -0.802696804631798
   outer loop
      vertex 19.5839531314415 -95.0860976122845 44.0609648381877
      vertex 20.481925099815 -92.3351785774027 45.6114719680043
      vertex 20.5924479054573 -94.9354334831995 43.8359923080717
   endloop
endfacet
facet normal -0.259298910782212 0.53706788649207 -0.802696804631798
   outer loop
      vertex 20.5924479054573 -94.9354334831995 43.8359923080717
      vertex 20.481925099815 -92.3351785774027 45.6114719680043
      vertex 20.591005982315 -93.3186595909333 44.9182081850287
   endloop
endfacet
facet normal -0.999999601900463 -0.00089229953919525 6.69026276797095e-007
   outer loop
      vertex 17.148671118069 -94.8184249505128 49.3168709493315
      vertex 17.1504844256499 -96.8525607760792 46.6987364733887
      vertex 17.1510034581162 -97.4335896468701 47.566364729016
   endloop
endfacet
facet normal -0.999999601900463 -0.00089229953919525 6.69026276797095e-007
   outer loop
      vertex 17.1504844256499 -96.8525607760792 46.6987364733887
      vertex 17.148671118069 -94.8184249505128 49.3168709493315
      vertex 17.1481522501632 -94.2375805955143 48.449119184832
   endloop
endfacet
facet normal 0.000496900178620235 -0.556252681089441 0.831013061191593
   outer loop
      vertex 20.5963903484499 -99.3487859181227 50.4262831990696
      vertex 20.6531039355028 -98.8610538584143 50.7527210103902
      vertex 20.5954834748271 -98.3319428189899 51.1069249087851
   endloop
endfacet
facet normal 0.000496900178620235 -0.556252681089441 0.831013061191593
   outer loop
      vertex 20.6531039355028 -98.8610538584143 50.7527210103902
      vertex 20.5963903484499 -99.3487859181227 50.4262831990696
      vertex 21.640600040387 -99.348493150746 50.4258547878196
   endloop
endfacet
facet normal 0.000496900178620235 -0.556252681089441 0.831013061191593
   outer loop
      vertex 20.6531039355028 -98.8610538584143 50.7527210103902
      vertex 21.640600040387 -99.348493150746 50.4258547878196
      vertex 21.4531304332453 -98.8603399948547 50.752720475151
   endloop
endfacet
facet normal 0.000496900178620235 -0.556252681089441 0.831013061191593
   outer loop
      vertex 21.4531304332453 -98.8603399948547 50.752720475151
      vertex 21.640600040387 -99.348493150746 50.4258547878196
      vertex 21.6386199979221 -97.1283464118515 51.9119488307155
   endloop
endfacet
facet normal 0.499569472772488 0.482175102516341 -0.719678756381745
   outer loop
      vertex 23.5476574278144 -92.7570716293173 46.2458428330732
      vertex 22.645421042385 -95.0852392617678 44.0597087999565
      vertex 22.6430863672931 -92.4674563689873 45.8119675558316
   endloop
endfacet
facet normal 0.499569472772488 0.482175102516341 -0.719678756381745
   outer loop
      vertex 22.645421042385 -95.0852392617678 44.0597087999565
      vertex 23.5476574278144 -92.7570716293173 46.2458428330732
      vertex 23.5499926787136 -95.3755001531778 44.4931519127446
   endloop
endfacet
facet normal 0.50043012912793 -0.481282802976972 0.719678087355474
   outer loop
      vertex 22.6490948144028 -99.1978290216605 50.2008822577035
      vertex 23.5508111671463 -96.2875110100232 51.5201387364492
      vertex 22.6467589745309 -96.5787401046915 51.9540152237074
   endloop
endfacet
facet normal 0.50043012912793 -0.481282802976972 0.719678087355474
   outer loop
      vertex 23.5508111671463 -96.2875110100232 51.5201387364492
      vertex 22.6490948144028 -99.1978290216605 50.2008822577035
      vertex 23.5531474182649 -98.9070610422797 49.7666971148641
   endloop
endfacet
facet normal 0.999999601900463 0.000892299539342352 -6.69026256238496e-007
   outer loop
      vertex 25.0820444877278 -96.8503369870749 46.6954823668749
      vertex 25.0802268515092 -94.811347624168 49.3168656429097
      vertex 25.0825635201941 -97.431365857866 47.5631106225024
   endloop
endfacet
facet normal 0.999999601900463 0.000892299539342352 -6.69026256238496e-007
   outer loop
      vertex 25.0802268515092 -94.811347624168 49.3168656429097
      vertex 25.0820444877278 -96.8503369870749 46.6954823668749
      vertex 25.0797079836034 -94.2305032691695 48.4491138784098
   endloop
endfacet
facet normal -0.706755138201711 -0.393960993906769 0.587615443896322
   outer loop
      vertex 18.6807216738578 -96.291856590365 51.5201419946686
      vertex 17.9443205016044 -98.497784043963 49.1554922925435
      vertex 18.6830552671307 -98.9084264807673 49.7686951831466
   endloop
endfacet
facet normal -0.706755138201711 -0.393960993906769 0.587615443896322
   outer loop
      vertex 17.9443205016044 -98.497784043963 49.1554922925435
      vertex 18.6807216738578 -96.291856590365 51.5201419946686
      vertex 17.9419874276565 -95.8817964532414 50.9065493315915
   endloop
endfacet
facet normal 0.707457861173374 -0.392699091796441 0.587614497750222
   outer loop
      vertex 24.2911481610376 -98.4960045698811 49.1528883592612
      vertex 23.5508111671463 -96.2875110100232 51.5201387364492
      vertex 23.5531474182649 -98.9070610422797 49.7666971148641
   endloop
endfacet
facet normal 0.707457861173374 -0.392699091796441 0.587614497750222
   outer loop
      vertex 23.5508111671463 -96.2875110100232 51.5201387364492
      vertex 24.2911481610376 -98.4960045698811 49.1528883592612
      vertex 24.2888116233181 -95.8761331826805 50.9065450853972
   endloop
endfacet
facet normal -0.965796834524746 -0.144830682925022 0.215082653195121
   outer loop
      vertex 17.4194335138385 -95.379236360013 50.1550546086576
      vertex 17.1510034581162 -97.4335896468701 47.566364729016
      vertex 17.4217661603344 -97.9947446652142 48.4043183877542
   endloop
endfacet
facet normal -0.965796834524746 -0.144830682925022 0.215082653195121
   outer loop
      vertex 17.1510034581162 -97.4335896468701 47.566364729016
      vertex 17.4194335138385 -95.379236360013 50.1550546086576
      vertex 17.148671118069 -94.8184249505128 49.3168709493315
   endloop
endfacet
facet normal -0.966054048984195 0.143106892585387 -0.215081360735414
   outer loop
      vertex 17.1481522501632 -94.2375805955143 48.449119184832
      vertex 17.4202444341397 -96.2912542101899 45.8605610526695
      vertex 17.1504844256499 -96.8525607760792 46.6987364733887
   endloop
endfacet
facet normal -0.966054048984195 0.143106892585387 -0.215081360735414
   outer loop
      vertex 17.4202444341397 -96.2912542101899 45.8605610526695
      vertex 17.1481522501632 -94.2375805955143 48.449119184832
      vertex 17.4179122701116 -93.6762868779199 47.6109351638817
   endloop
endfacet
facet normal 0.259298910782496 -0.537067886492031 0.802696804631733
   outer loop
      vertex 21.640600040387 -99.348493150746 50.4258547878196
      vertex 21.6813770879414 -96.7235085621147 52.1690054681271
      vertex 21.6386199979221 -97.1283464118515 51.9119488307155
   endloop
endfacet
facet normal 0.259298910782496 -0.537067886492031 0.802696804631733
   outer loop
      vertex 21.6813770879414 -96.7235085621147 52.1690054681271
      vertex 21.640600040387 -99.348493150746 50.4258547878196
      vertex 22.6490948144028 -99.1978290216605 50.2008822577035
   endloop
endfacet
facet normal 0.259298910782496 -0.537067886492031 0.802696804631733
   outer loop
      vertex 21.6813770879414 -96.7235085621147 52.1690054681271
      vertex 22.6490948144028 -99.1978290216605 50.2008822577035
      vertex 22.6467589745309 -96.5787401046915 51.9540152237074
   endloop
endfacet
facet normal 0.966054048984145 -0.143106892585443 0.215081360735599
   outer loop
      vertex 25.0825635201941 -97.431365857866 47.5631106225024
      vertex 24.8104668315604 -95.3726413417624 50.1550496638597
      vertex 24.8128035117044 -97.9926724237555 48.4012860432215
   endloop
endfacet
facet normal 0.966054048984145 -0.143106892585443 0.215081360735599
   outer loop
      vertex 24.8104668315604 -95.3726413417624 50.1550496638597
      vertex 25.0825635201941 -97.431365857866 47.5631106225024
      vertex 25.0802268515092 -94.811347624168 49.3168656429097
   endloop
endfacet
facet normal 0.706755138201618 0.393960993906768 -0.587615443896434
   outer loop
      vertex 23.5499926787136 -95.3755001531778 44.4931519127446
      vertex 24.286391674016 -93.167131766441 46.85943549615
      vertex 24.2887274442398 -95.7861425899821 45.1063548033476
   endloop
endfacet
facet normal 0.706755138201618 0.393960993906768 -0.587615443896434
   outer loop
      vertex 24.286391674016 -93.167131766441 46.85943549615
      vertex 23.5499926787136 -95.3755001531778 44.4931519127446
      vertex 23.5476574278144 -92.7570716293173 46.2458428330732
   endloop
endfacet
facet normal -0.258338973351276 -0.537529774721509 0.80269715094527
   outer loop
      vertex 19.5876269034591 -99.1986873721774 50.2021382959346
      vertex 20.4215020434946 -96.7053441287571 52.1401901224386
      vertex 19.5852927343789 -96.5814718506954 51.9540172719097
   endloop
endfacet
facet normal -0.258338973351276 -0.537529774721509 0.80269715094527
   outer loop
      vertex 20.4215020434946 -96.7053441287571 52.1401901224386
      vertex 19.5876269034591 -99.1986873721774 50.2021382959346
      vertex 20.5963903484499 -99.3487859181227 50.4262831990696
   endloop
endfacet
facet normal -0.258338973351276 -0.537529774721509 0.80269715094527
   outer loop
      vertex 20.4215020434946 -96.7053441287571 52.1401901224386
      vertex 20.5963903484499 -99.3487859181227 50.4262831990696
      vertex 20.5954834748271 -98.3319428189899 51.1069249087851
   endloop
endfacet
facet normal -0.499569472772526 -0.482175102516318 0.719678756381733
   outer loop
      vertex 18.6830552671307 -98.9084264807673 49.7686951831466
      vertex 19.5852927343789 -96.5814718506954 51.9540172719097
      vertex 18.6807216738578 -96.291856590365 51.5201419946686
   endloop
endfacet
facet normal -0.499569472772526 -0.482175102516318 0.719678756381733
   outer loop
      vertex 19.5852927343789 -96.5814718506954 51.9540172719097
      vertex 18.6830552671307 -98.9084264807673 49.7686951831466
      vertex 19.5876269034591 -99.1986873721774 50.2021382959346
   endloop
endfacet
facet normal 0.965796834524713 0.144830682925216 -0.215082653195135
   outer loop
      vertex 24.8112817855097 -96.289181968731 45.8575287081371
      vertex 25.0797079836034 -94.2305032691695 48.4491138784098
      vertex 25.0820444877278 -96.8503369870749 46.6954823668749
   endloop
endfacet
facet normal 0.965796834524713 0.144830682925216 -0.215082653195135
   outer loop
      vertex 25.0797079836034 -94.2305032691695 48.4491138784098
      vertex 24.8112817855097 -96.289181968731 45.8575287081371
      vertex 24.8089455878337 -93.6696918596698 47.6109302190838
   endloop
endfacet
facet normal 0.865776608930956 0.278899094613478 -0.415507109989464
   outer loop
      vertex 24.2887274442398 -95.7861425899821 45.1063548033476
      vertex 24.8089455878337 -93.6696918596698 47.6109302190838
      vertex 24.8112817855097 -96.289181968731 45.8575287081371
   endloop
endfacet
facet normal 0.865776608930956 0.278899094613478 -0.415507109989464
   outer loop
      vertex 24.8089455878337 -93.6696918596698 47.6109302190838
      vertex 24.2887274442398 -95.7861425899821 45.1063548033476
      vertex 24.286391674016 -93.167131766441 46.85943549615
   endloop
endfacet
facet normal 0.258338973351106 0.53752977472156 -0.80269715094529
   outer loop
      vertex 21.7420678133666 -92.3339835415096 45.6113656362702
      vertex 21.6366575973942 -94.9351407158227 43.8355638968218
      vertex 21.635215104376 -93.3177278432438 44.9182074864251
   endloop
endfacet
facet normal 0.258338973351106 0.53752977472156 -0.80269715094529
   outer loop
      vertex 21.6366575973942 -94.9351407158227 43.8355638968218
      vertex 21.7420678133666 -92.3339835415096 45.6113656362702
      vertex 22.645421042385 -95.0852392617678 44.0597087999565
   endloop
endfacet
facet normal 0.258338973351106 0.53752977472156 -0.80269715094529
   outer loop
      vertex 22.645421042385 -95.0852392617678 44.0597087999565
      vertex 21.7420678133666 -92.3339835415096 45.6113656362702
      vertex 22.6430863672931 -92.4674563689873 45.8119675558316
   endloop
endfacet
facet normal -0.865776608930844 -0.2788990946136 0.415507109989616
   outer loop
      vertex 17.9419874276565 -95.8817964532414 50.9065493315915
      vertex 17.4217661603344 -97.9947446652142 48.4043183877542
      vertex 17.9443205016044 -98.497784043963 49.1554922925435
   endloop
endfacet
facet normal -0.865776608930844 -0.2788990946136 0.415507109989616
   outer loop
      vertex 17.4217661603344 -97.9947446652142 48.4043183877542
      vertex 17.9419874276565 -95.8817964532414 50.9065493315915
      vertex 17.4194335138385 -95.379236360013 50.1550546086576
   endloop
endfacet
facet normal -0.70745786117344 0.392699091796417 -0.587614497750158
   outer loop
      vertex 17.9395674783544 -93.1727950370021 46.8594397423444
      vertex 18.6799005275792 -95.3768655916658 44.4951499810272
      vertex 17.9418997848066 -95.7879220640644 45.1089587366301
   endloop
endfacet
facet normal -0.70745786117344 0.392699091796417 -0.587614497750158
   outer loop
      vertex 18.6799005275792 -95.3768655916658 44.4951499810272
      vertex 17.9395674783544 -93.1727950370021 46.8594397423444
      vertex 18.677567934526 -92.7614172096591 46.2458460912925
   endloop
endfacet
facet normal -0.866273509109448 0.277353586475794 -0.415505951201925
   outer loop
      vertex 17.4179122701116 -93.6762868779199 47.6109351638817
      vertex 17.9418997848066 -95.7879220640644 45.1089587366301
      vertex 17.4202444341397 -96.2912542101899 45.8605610526695
   endloop
endfacet
facet normal -0.866273509109448 0.277353586475794 -0.415505951201925
   outer loop
      vertex 17.9418997848066 -95.7879220640644 45.1089587366301
      vertex 17.4179122701116 -93.6762868779199 47.6109351638817
      vertex 17.9395674783544 -93.1727950370021 46.8594397423444
   endloop
endfacet
facet normal -0.500430129128121 0.481282802976874 -0.719678087355406
   outer loop
      vertex 19.5816201271414 -92.4701881149908 45.811969604034
      vertex 18.6799005275792 -95.3768655916658 44.4951499810272
      vertex 18.677567934526 -92.7614172096591 46.2458460912925
   endloop
endfacet
facet normal -0.500430129128121 0.481282802976874 -0.719678087355406
   outer loop
      vertex 18.6799005275792 -95.3768655916658 44.4951499810272
      vertex 19.5816201271414 -92.4701881149908 45.811969604034
      vertex 19.5839531314415 -95.0860976122845 44.0609648381877
   endloop
endfacet
facet normal 0.866273509109633 -0.277353586475575 0.415505951201686
   outer loop
      vertex 24.8128035117044 -97.9926724237555 48.4012860432215
      vertex 24.2888116233181 -95.8761331826805 50.9065450853972
      vertex 24.2911481610376 -98.4960045698811 49.1528883592612
   endloop
endfacet
facet normal 0.866273509109633 -0.277353586475575 0.415505951201686
   outer loop
      vertex 24.2888116233181 -95.8761331826805 50.9065450853972
      vertex 24.8128035117044 -97.9926724237555 48.4012860432215
      vertex 24.8104668315604 -95.3726413417624 50.1550496638597
   endloop
endfacet
facet normal -4.67174513521838e-006 0.830894863970926 0.556429442970904
   outer loop
      vertex 9.30307113104401 -94.6140304794883 43.3559145838085
      vertex 21.1145527514257 -94.9352870995111 43.8357781024468
      vertex 21.6366575973942 -94.9351407158227 43.8355638968218
   endloop
endfacet
facet normal -4.67174513521838e-006 0.830894863970926 0.556429442970904
   outer loop
      vertex 21.1145527514257 -94.9352870995111 43.8357781024468
      vertex 9.30307113104401 -94.6140304794883 43.3559145838085
      vertex 20.5924479054573 -94.9354334831995 43.8359923080717
   endloop
endfacet
facet normal -4.67174513521838e-006 0.830894863970926 0.556429442970904
   outer loop
      vertex 20.5924479054573 -94.9354334831995 43.8359923080717
      vertex 9.30307113104401 -94.6140304794883 43.3559145838085
      vertex 19.5839531314415 -95.0860976122845 44.0609648381877
   endloop
endfacet
facet normal -4.67174513521838e-006 0.830894863970926 0.556429442970904
   outer loop
      vertex 19.5839531314415 -95.0860976122845 44.0609648381877
      vertex 9.30307113104401 -94.6140304794883 43.3559145838085
      vertex 18.6799005275792 -95.3768655916658 44.4951499810272
   endloop
endfacet
facet normal -4.67174513521838e-006 0.830894863970926 0.556429442970904
   outer loop
      vertex 18.6799005275792 -95.3768655916658 44.4951499810272
      vertex 9.30307113104401 -94.6140304794883 43.3559145838085
      vertex 17.9418997848066 -95.7879220640644 45.1089587366301
   endloop
endfacet
facet normal -4.67174513521838e-006 0.830894863970926 0.556429442970904
   outer loop
      vertex 17.9418997848066 -95.7879220640644 45.1089587366301
      vertex 9.30307113104401 -94.6140304794883 43.3559145838085
      vertex 17.4202444341397 -96.2912542101899 45.8605610526695
   endloop
endfacet
facet normal -4.67174513521838e-006 0.830894863970926 0.556429442970904
   outer loop
      vertex 17.4202444341397 -96.2912542101899 45.8605610526695
      vertex 9.30307113104401 -94.6140304794883 43.3559145838085
      vertex 17.1504844256499 -96.8525607760792 46.6987364733887
   endloop
endfacet
facet normal -4.67174513521838e-006 0.830894863970926 0.556429442970904
   outer loop
      vertex 17.1504844256499 -96.8525607760792 46.6987364733887
      vertex 9.30307113104401 -94.6140304794883 43.3559145838085
      vertex 15.0505625915159 -103.279784112531 56.2963911181662
   endloop
endfacet
facet normal -4.67174513521838e-006 0.830894863970926 0.556429442970904
   outer loop
      vertex 17.1504844256499 -96.8525607760792 46.6987364733887
      vertex 15.0505625915159 -103.279784112531 56.2963911181662
      vertex 17.1510034581162 -97.4335896468701 47.566364729016
   endloop
endfacet
facet normal -4.67174513521838e-006 0.830894863970926 0.556429442970904
   outer loop
      vertex 17.1510034581162 -97.4335896468701 47.566364729016
      vertex 15.0505625915159 -103.279784112531 56.2963911181662
      vertex 17.4217661603344 -97.9947446652142 48.4043183877542
   endloop
endfacet
facet normal -4.67174513521838e-006 0.830894863970926 0.556429442970904
   outer loop
      vertex 17.4217661603344 -97.9947446652142 48.4043183877542
      vertex 15.0505625915159 -103.279784112531 56.2963911181662
      vertex 17.9443205016044 -98.497784043963 49.1554922925435
   endloop
endfacet
facet normal -4.67174513521838e-006 0.830894863970926 0.556429442970904
   outer loop
      vertex 17.9443205016044 -98.497784043963 49.1554922925435
      vertex 15.0505625915159 -103.279784112531 56.2963911181662
      vertex 18.6830552671307 -98.9084264807673 49.7686951831466
   endloop
endfacet
facet normal -4.67174513521838e-006 0.830894863970926 0.556429442970904
   outer loop
      vertex 18.6830552671307 -98.9084264807673 49.7686951831466
      vertex 15.0505625915159 -103.279784112531 56.2963911181662
      vertex 19.5876269034591 -99.1986873721774 50.2021382959346
   endloop
endfacet
facet normal -4.67174513521838e-006 0.830894863970926 0.556429442970904
   outer loop
      vertex 19.5876269034591 -99.1986873721774 50.2021382959346
      vertex 15.0505625915159 -103.279784112531 56.2963911181662
      vertex 20.5963903484499 -99.3487859181227 50.4262831990696
   endloop
endfacet
facet normal -4.67174513521838e-006 0.830894863970926 0.556429442970904
   outer loop
      vertex 20.5963903484499 -99.3487859181227 50.4262831990696
      vertex 15.0505625915159 -103.279784112531 56.2963911181662
      vertex 26.6850371150602 -103.278920186268 56.2949153658327
   endloop
endfacet
facet normal -4.67174513521838e-006 0.830894863970926 0.556429442970904
   outer loop
      vertex 32.0133933451581 -90.0354451431827 36.5191809070809
      vertex 23.5499926787136 -95.3755001531778 44.4931519127446
      vertex 32.015745474876 -98.9563482030343 49.8403801293882
   endloop
endfacet
facet normal -4.67174513521838e-006 0.830894863970926 0.556429442970904
   outer loop
      vertex 23.5499926787136 -95.3755001531778 44.4931519127446
      vertex 32.0133933451581 -90.0354451431827 36.5191809070809
      vertex 10.8668374303554 -90.0370158920431 36.521256601986
   endloop
endfacet
facet normal -4.67174513521838e-006 0.830894863970926 0.556429442970904
   outer loop
      vertex 23.5499926787136 -95.3755001531778 44.4931519127446
      vertex 10.8668374303554 -90.0370158920431 36.521256601986
      vertex 22.645421042385 -95.0852392617678 44.0597087999565
   endloop
endfacet
facet normal -4.67174513521838e-006 0.830894863970926 0.556429442970904
   outer loop
      vertex 22.645421042385 -95.0852392617678 44.0597087999565
      vertex 10.8668374303554 -90.0370158920431 36.521256601986
      vertex 21.6366575973942 -94.9351407158227 43.8355638968218
   endloop
endfacet
facet normal -4.67174513521838e-006 0.830894863970926 0.556429442970904
   outer loop
      vertex 21.6366575973942 -94.9351407158227 43.8355638968218
      vertex 10.8668374303554 -90.0370158920431 36.521256601986
      vertex 9.30307113104401 -94.6140304794883 43.3559145838085
   endloop
endfacet
facet normal -4.67174513521838e-006 0.830894863970926 0.556429442970904
   outer loop
      vertex 32.015745474876 -98.9563482030343 49.8403801293882
      vertex 23.5499926787136 -95.3755001531778 44.4931519127446
      vertex 24.2887274442398 -95.7861425899821 45.1063548033476
   endloop
endfacet
facet normal -4.67174513521838e-006 0.830894863970926 0.556429442970904
   outer loop
      vertex 32.015745474876 -98.9563482030343 49.8403801293882
      vertex 24.2887274442398 -95.7861425899821 45.1063548033476
      vertex 24.8112817855097 -96.289181968731 45.8575287081371
   endloop
endfacet
facet normal -4.67174513521838e-006 0.830894863970926 0.556429442970904
   outer loop
      vertex 32.015745474876 -98.9563482030343 49.8403801293882
      vertex 24.8112817855097 -96.289181968731 45.8575287081371
      vertex 25.0820444877278 -96.8503369870749 46.6954823668749
   endloop
endfacet
facet normal -4.67174513521838e-006 0.830894863970926 0.556429442970904
   outer loop
      vertex 32.015745474876 -98.9563482030343 49.8403801293882
      vertex 25.0820444877278 -96.8503369870749 46.6954823668749
      vertex 25.0825635201941 -97.431365857866 47.5631106225024
   endloop
endfacet
facet normal -4.67174513521838e-006 0.830894863970926 0.556429442970904
   outer loop
      vertex 32.015745474876 -98.9563482030343 49.8403801293882
      vertex 25.0825635201941 -97.431365857866 47.5631106225024
      vertex 24.8128035117044 -97.9926724237555 48.4012860432215
   endloop
endfacet
facet normal -4.67174513521838e-006 0.830894863970926 0.556429442970904
   outer loop
      vertex 32.015745474876 -98.9563482030343 49.8403801293882
      vertex 24.8128035117044 -97.9926724237555 48.4012860432215
      vertex 24.2911481610376 -98.4960045698811 49.1528883592612
   endloop
endfacet
facet normal -4.67174513521838e-006 0.830894863970926 0.556429442970904
   outer loop
      vertex 32.015745474876 -98.9563482030343 49.8403801293882
      vertex 24.2911481610376 -98.4960045698811 49.1528883592612
      vertex 23.5531474182649 -98.9070610422797 49.7666971148641
   endloop
endfacet
facet normal -4.67174513521838e-006 0.830894863970926 0.556429442970904
   outer loop
      vertex 32.015745474876 -98.9563482030343 49.8403801293882
      vertex 23.5531474182649 -98.9070610422797 49.7666971148641
      vertex 22.6490948144028 -99.1978290216605 50.2008822577035
   endloop
endfacet
facet normal -4.67174513521838e-006 0.830894863970926 0.556429442970904
   outer loop
      vertex 32.015745474876 -98.9563482030343 49.8403801293882
      vertex 22.6490948144028 -99.1978290216605 50.2008822577035
      vertex 26.6850371150602 -103.278920186268 56.2949153658327
   endloop
endfacet
facet normal -4.67174513521838e-006 0.830894863970926 0.556429442970904
   outer loop
      vertex 26.6850371150602 -103.278920186268 56.2949153658327
      vertex 22.6490948144028 -99.1978290216605 50.2008822577035
      vertex 21.640600040387 -99.348493150746 50.4258547878196
   endloop
endfacet
facet normal -4.67174513521838e-006 0.830894863970926 0.556429442970904
   outer loop
      vertex 26.6850371150602 -103.278920186268 56.2949153658327
      vertex 21.640600040387 -99.348493150746 50.4258547878196
      vertex 20.5963903484499 -99.3487859181227 50.4262831990696
   endloop
endfacet
facet normal 0.999999989198464 7.42557174843356e-005 -0.000126843057205272
   outer loop
      vertex 32.0120528722503 -99.6852932122765 20.3020592873569
      vertex 32.0157821819146 -103.28563953019 47.5953412463164
      vertex 32.0152839598715 -103.288853864444 43.665597425152
   endloop
endfacet
facet normal 0.999999989198464 7.42557174843356e-005 -0.000126843057205272
   outer loop
      vertex 32.0157821819146 -103.28563953019 47.5953412463164
      vertex 32.0120528722503 -99.6852932122765 20.3020592873569
      vertex 32.015745474876 -98.9563482030343 49.8403801293882
   endloop
endfacet
facet normal 0.999999989198464 7.42557174843356e-005 -0.000126843057205272
   outer loop
      vertex 32.015745474876 -98.9563482030343 49.8403801293882
      vertex 32.0120528722503 -99.6852932122765 20.3020592873569
      vertex 32.0113363015207 -90.0487163862345 20.2941771394655
   endloop
endfacet
facet normal 0.999999989198464 7.42557174843356e-005 -0.000126843057205272
   outer loop
      vertex 32.015745474876 -98.9563482030343 49.8403801293882
      vertex 32.0113363015207 -90.0487163862345 20.2941771394655
      vertex 32.0133933451581 -90.0354451431827 36.5191809070809
   endloop
endfacet
facet normal -7.43594432971379e-005 0.999999662722054 -0.000817940371874205
   outer loop
      vertex 6.41965313896006 -90.0506167150502 20.2974232668323
      vertex 32.0133933451581 -90.0354451431827 36.5191809070809
      vertex 32.0113363015207 -90.0487163862345 20.2941771394655
   endloop
endfacet
facet normal -7.43594432971379e-005 0.999999662722054 -0.000817940371874205
   outer loop
      vertex 32.0133933451581 -90.0354451431827 36.5191809070809
      vertex 6.41965313896006 -90.0506167150502 20.2974232668323
      vertex 12.5669009076376 -90.0429624164209 29.0965856174098
   endloop
endfacet
facet normal -7.43594432971379e-005 0.999999662722054 -0.000817940371874205
   outer loop
      vertex 32.0133933451581 -90.0354451431827 36.5191809070809
      vertex 12.5669009076376 -90.0429624164209 29.0965856174098
      vertex 10.8668374303554 -90.0370158920431 36.521256601986
   endloop
endfacet
facet normal -0.908053998201088 0.0223205988921501 0.418257967307395
   outer loop
      vertex 9.30307113104401 -94.6140304794883 43.3559145838085
      vertex 9.23377011363947 -103.290545522118 43.6684871020472
      vertex 15.0505625915159 -103.279784112531 56.2963911181662
   endloop
endfacet
facet normal 0.822879217869727 -0.261574537302231 0.504428938734913
   outer loop
      vertex 32.015745474876 -98.9563482030343 49.8403801293882
      vertex 26.6850371150602 -103.278920186268 56.2949153658327
      vertex 32.0157821819146 -103.28563953019 47.5953412463164
   endloop
endfacet
facet normal -0.819764145002098 0.00040747830451594 0.572701126706078
   outer loop
      vertex 12.5669009076376 -90.0429624164209 29.0965856174098
      vertex 6.42036970968973 -99.6871935410926 20.3053054147233
      vertex 12.567718953854 -101.044200510883 29.1055839772228
   endloop
endfacet
facet normal -0.819764145002098 0.00040747830451594 0.572701126706078
   outer loop
      vertex 6.42036970968973 -99.6871935410926 20.3053054147233
      vertex 12.5669009076376 -90.0429624164209 29.0965856174098
      vertex 6.41965313896006 -90.0506167150502 20.2974232668323
   endloop
endfacet
facet normal -0.00012678227768083 -0.000817949795016379 -0.999999657442135
   outer loop
      vertex 32.0113363015207 -90.0487163862345 20.2941771394655
      vertex 6.42036970968973 -99.6871935410926 20.3053054147233
      vertex 6.41965313896006 -90.0506167150502 20.2974232668323
   endloop
endfacet
facet normal -0.00012678227768083 -0.000817949795016379 -0.999999657442135
   outer loop
      vertex 6.42036970968973 -99.6871935410926 20.3053054147233
      vertex 32.0113363015207 -90.0487163862345 20.2941771394655
      vertex 32.0120528722503 -99.6852932122765 20.3020592873569
   endloop
endfacet
facet normal -0.974773010326004 -0.000255046623865648 -0.223198372062161
   outer loop
      vertex 9.30307113104401 -94.6140304794883 43.3559145838085
      vertex 12.567718953854 -101.044200510883 29.1055839772228
      vertex 9.23377011363947 -103.290545522118 43.6684871020472
   endloop
endfacet
facet normal -0.974773010326004 -0.000255046623865648 -0.223198372062161
   outer loop
      vertex 12.567718953854 -101.044200510883 29.1055839772228
      vertex 9.30307113104401 -94.6140304794883 43.3559145838085
      vertex 12.5669009076376 -90.0429624164209 29.0965856174098
   endloop
endfacet
facet normal -0.974773010326004 -0.000255046623865648 -0.223198372062161
   outer loop
      vertex 12.5669009076376 -90.0429624164209 29.0965856174098
      vertex 9.30307113104401 -94.6140304794883 43.3559145838085
      vertex 10.8668374303554 -90.0370158920431 36.521256601986
   endloop
endfacet
facet normal 7.43594432862815e-005 -0.999999662722054 0.000817940371884618
   outer loop
      vertex 32.0157821819146 -103.28563953019 47.5953412463164
      vertex 9.23377011363947 -103.290545522118 43.6684871020472
      vertex 32.0152839598715 -103.288853864444 43.665597425152
   endloop
endfacet
facet normal 7.43594432862815e-005 -0.999999662722054 0.000817940371884618
   outer loop
      vertex 9.23377011363947 -103.290545522118 43.6684871020472
      vertex 32.0157821819146 -103.28563953019 47.5953412463164
      vertex 15.0505625915159 -103.279784112531 56.2963911181662
   endloop
endfacet
facet normal 7.43594432862815e-005 -0.999999662722054 0.000817940371884618
   outer loop
      vertex 15.0505625915159 -103.279784112531 56.2963911181662
      vertex 32.0157821819146 -103.28563953019 47.5953412463164
      vertex 26.6850371150602 -103.278920186268 56.2949153658327
   endloop
endfacet
facet normal 5.40524516314711e-005 -0.988313323498999 -0.152436123253955
   outer loop
      vertex 32.0152839598715 -103.288853864444 43.665597425152
      vertex 6.42036970968973 -99.6871935410926 20.3053054147233
      vertex 32.0120528722503 -99.6852932122765 20.3020592873569
   endloop
endfacet
facet normal 5.40524516314711e-005 -0.988313323498999 -0.152436123253955
   outer loop
      vertex 6.42036970968973 -99.6871935410926 20.3053054147233
      vertex 32.0152839598715 -103.288853864444 43.665597425152
      vertex 12.567718953854 -101.044200510883 29.1055839772228
   endloop
endfacet
facet normal 5.40524516314711e-005 -0.988313323498999 -0.152436123253955
   outer loop
      vertex 12.567718953854 -101.044200510883 29.1055839772228
      vertex 32.0152839598715 -103.288853864444 43.665597425152
      vertex 9.23377011363947 -103.290545522118 43.6684871020472
   endloop
endfacet
facet normal 0.397167244458904 -0.888078786048858 0.231461119194796
   outer loop
      vertex 23.9308143764605 -95.8934076898019 52.3801966648119
      vertex 22.6467589745309 -96.5787401046915 51.9540152237074
      vertex 23.5508111671463 -96.2875110100232 51.5201387364492
   endloop
endfacet
facet normal 0.397167244458904 -0.888078786048858 0.231461119194796
   outer loop
      vertex 22.6467589745309 -96.5787401046915 51.9540152237074
      vertex 23.9308143764605 -95.8934076898019 52.3801966648119
      vertex 22.8855492313585 -96.2301267690572 52.8818446593799
   endloop
endfacet
facet normal 0.205249723194611 -0.0804161355177288 -0.975400326161997
   outer loop
      vertex 21.8185473628099 -91.3192286893306 45.5437982430787
      vertex 22.6430863672931 -92.4674563689873 45.8119675558316
      vertex 21.7420678133666 -92.3339835415096 45.6113656362702
   endloop
endfacet
facet normal 0.205249723194611 -0.0804161355177288 -0.975400326161997
   outer loop
      vertex 22.6430863672931 -92.4674563689873 45.8119675558316
      vertex 21.8185473628099 -91.3192286893306 45.5437982430787
      vertex 22.8813029628705 -91.4766605138361 45.780409145782
   endloop
endfacet
facet normal -0.559827667103818 -0.818854509369608 0.126768590866014
   outer loop
      vertex 18.6807216738578 -96.291856590365 51.5201419946686
      vertex 17.4458923688624 -95.4243205192506 51.6707645949154
      vertex 17.9419874276565 -95.8817964532414 50.9065493315915
   endloop
endfacet
facet normal -0.559827667103818 -0.818854509369608 0.126768590866014
   outer loop
      vertex 17.4458923688624 -95.4243205192506 51.6707645949154
      vertex 18.6807216738578 -96.291856590365 51.5201419946686
      vertex 18.30001690432 -95.8984320497932 52.3802004319651
   endloop
endfacet
facet normal 0.2060107126319 -0.93230235513126 0.297274124164216
   outer loop
      vertex 22.8855492313585 -96.2301267690572 52.8818446593799
      vertex 21.6813770879414 -96.7235085621147 52.1690054681271
      vertex 22.6467589745309 -96.5787401046915 51.9540152237074
   endloop
endfacet
facet normal 0.2060107126319 -0.93230235513126 0.297274124164216
   outer loop
      vertex 21.6813770879414 -96.7235085621147 52.1690054681271
      vertex 22.8855492313585 -96.2301267690572 52.8818446593799
      vertex 21.748290022305 -96.4006699123173 53.1351119297931
   endloop
endfacet
facet normal -0.560384750035784 -0.195230514344763 -0.804893768267596
   outer loop
      vertex 18.2963705509045 -91.8165380378207 46.2820595084818
      vertex 17.9395674783544 -93.1727950370021 46.8594397423444
      vertex 17.4430944234792 -92.2921730817945 46.9914964878278
   endloop
endfacet
facet normal -0.560384750035784 -0.195230514344763 -0.804893768267596
   outer loop
      vertex 17.9395674783544 -93.1727950370021 46.8594397423444
      vertex 18.2963705509045 -91.8165380378207 46.2820595084818
      vertex 18.677567934526 -92.7614172096591 46.2458460912925
   endloop
endfacet
facet normal -0.765386618913642 -0.393094480278373 -0.509568497027259
   outer loop
      vertex 16.5280601366444 -93.5232781445466 48.829483859232
      vertex 17.4179122701116 -93.6762868779199 47.6109351638817
      vertex 17.1481522501632 -94.2375805955143 48.449119184832
   endloop
endfacet
facet normal -0.765386618913642 -0.393094480278373 -0.509568497027259
   outer loop
      vertex 17.4179122701116 -93.6762868779199 47.6109351638817
      vertex 16.5280601366444 -93.5232781445466 48.829483859232
      vertex 16.8399566717089 -92.8743103482637 47.8603754942097
   endloop
endfacet
facet normal -0.395581438351182 -0.888786155614914 0.231461649564829
   outer loop
      vertex 19.5852927343789 -96.5814718506954 51.9540172719097
      vertex 18.30001690432 -95.8984320497932 52.3802004319651
      vertex 18.6807216738578 -96.291856590365 51.5201419946686
   endloop
endfacet
facet normal -0.395581438351182 -0.888786155614914 0.231461649564829
   outer loop
      vertex 18.30001690432 -95.8984320497932 52.3802004319651
      vertex 19.5852927343789 -96.5814718506954 51.9540172719097
      vertex 19.3458819644946 -96.2332852137864 52.8818470275117
   endloop
endfacet
facet normal -0.685891778749125 -0.727639303950401 -0.00967011845517751
   outer loop
      vertex 17.9419874276565 -95.8817964532414 50.9065493315915
      vertex 16.8417155337061 -94.8432605394594 50.8018863962596
      vertex 17.4194335138385 -95.379236360013 50.1550546086576
   endloop
endfacet
facet normal -0.685891778749125 -0.727639303950401 -0.00967011845517751
   outer loop
      vertex 16.8417155337061 -94.8432605394594 50.8018863962596
      vertex 17.9419874276565 -95.8817964532414 50.9065493315915
      vertex 17.4458923688624 -95.4243205192506 51.6707645949154
   endloop
endfacet
facet normal -0.204346201550701 -0.93266851656245 0.297274398704295
   outer loop
      vertex 20.4215020434946 -96.7053441287571 52.1401901224386
      vertex 19.3458819644946 -96.2332852137864 52.8818470275117
      vertex 19.5852927343789 -96.5814718506954 51.9540172719097
   endloop
endfacet
facet normal -0.204346201550701 -0.93266851656245 0.297274398704295
   outer loop
      vertex 19.3458819644946 -96.2332852137864 52.8818470275117
      vertex 20.4215020434946 -96.7053441287571 52.1401901224386
      vertex 20.3438283197445 -96.381116488876 53.1040288611823
   endloop
endfacet
facet normal -0.765182712408671 -0.621356704866883 -0.1685564058346
   outer loop
      vertex 16.8417155337061 -94.8432605394594 50.8018863962596
      vertex 17.148671118069 -94.8184249505128 49.3168709493315
      vertex 17.4194335138385 -95.379236360013 50.1550546086576
   endloop
endfacet
facet normal -0.765182712408671 -0.621356704866883 -0.1685564058346
   outer loop
      vertex 17.148671118069 -94.8184249505128 49.3168709493315
      vertex 16.8417155337061 -94.8432605394594 50.8018863962596
      vertex 16.528660051717 -94.1948503877958 49.8327784493467
   endloop
endfacet
facet normal 0.561288271679599 -0.817854137735687 0.126767840809665
   outer loop
      vertex 24.784090503886 -95.4177726458283 51.6707596854657
      vertex 23.5508111671463 -96.2875110100232 51.5201387364492
      vertex 24.2888116233181 -95.8761331826805 50.9065450853972
   endloop
endfacet
facet normal 0.561288271679599 -0.817854137735687 0.126767840809665
   outer loop
      vertex 23.5508111671463 -96.2875110100232 51.5201387364492
      vertex 24.784090503886 -95.4177726458283 51.6707596854657
      vertex 23.9308143764605 -95.8934076898019 52.3801966648119
   endloop
endfacet
facet normal -0.686285695867957 -0.286670548157902 -0.668454890374722
   outer loop
      vertex 16.8399566717089 -92.8743103482637 47.8603754942097
      vertex 17.9395674783544 -93.1727950370021 46.8594397423444
      vertex 17.4179122701116 -93.6762868779199 47.6109351638817
   endloop
endfacet
facet normal -0.686285695867957 -0.286670548157902 -0.668454890374722
   outer loop
      vertex 17.9395674783544 -93.1727950370021 46.8594397423444
      vertex 16.8399566717089 -92.8743103482637 47.8603754942097
      vertex 17.4430944234792 -92.2921730817945 46.9914964878278
   endloop
endfacet
facet normal -0.792296921988211 -0.507249695606224 -0.339062433359107
   outer loop
      vertex 16.528660051717 -94.1948503877958 49.8327784493467
      vertex 17.1481522501632 -94.2375805955143 48.449119184832
      vertex 17.148671118069 -94.8184249505128 49.3168709493315
   endloop
endfacet
facet normal -0.792296921988211 -0.507249695606224 -0.339062433359107
   outer loop
      vertex 17.1481522501632 -94.2375805955143 48.449119184832
      vertex 16.528660051717 -94.1948503877958 49.8327784493467
      vertex 16.5280601366444 -93.5232781445466 48.829483859232
   endloop
endfacet
facet normal -0.396263722815022 -0.125005866031328 -0.909587046652786
   outer loop
      vertex 19.3416356960068 -91.4798189585652 45.7804115139137
      vertex 18.677567934526 -92.7614172096591 46.2458460912925
      vertex 18.2963705509045 -91.8165380378207 46.2820595084818
   endloop
endfacet
facet normal -0.396263722815022 -0.125005866031328 -0.909587046652786
   outer loop
      vertex 18.677567934526 -92.7614172096591 46.2458460912925
      vertex 19.3416356960068 -91.4798189585652 45.7804115139137
      vertex 19.5816201271414 -92.4701881149908 45.811969604034
   endloop
endfacet
facet normal 0.560731188747625 -0.194230142710254 -0.804894518324252
   outer loop
      vertex 23.9271680230451 -91.8115136778295 46.282055741329
      vertex 24.286391674016 -93.167131766441 46.85943549615
      vertex 23.5476574278144 -92.7570716293173 46.2458428330732
   endloop
endfacet
facet normal 0.560731188747625 -0.194230142710254 -0.804894518324252
   outer loop
      vertex 24.286391674016 -93.167131766441 46.85943549615
      vertex 23.9271680230451 -91.8115136778295 46.282055741329
      vertex 24.7812925585026 -92.2856252083722 46.991491578378
   endloop
endfacet
facet normal 0.396484959995551 -0.124298496465275 -0.909587577022575
   outer loop
      vertex 22.8813029628705 -91.4766605138361 45.780409145782
      vertex 23.5476574278144 -92.7570716293173 46.2458428330732
      vertex 22.6430863672931 -92.4674563689873 45.8119675558316
   endloop
endfacet
facet normal 0.396484959995551 -0.124298496465275 -0.909587577022575
   outer loop
      vertex 23.5476574278144 -92.7570716293173 46.2458428330732
      vertex 22.8813029628705 -91.4766605138361 45.780409145782
      vertex 23.9271680230451 -91.8115136778295 46.282055741329
   endloop
endfacet
facet normal -0.205107190987743 -0.08078229694891 -0.975400051622295
   outer loop
      vertex 20.4138179911446 -91.3190347351405 45.54163685189
      vertex 19.5816201271414 -92.4701881149908 45.811969604034
      vertex 19.3416356960068 -91.4798189585652 45.7804115139137
   endloop
endfacet
facet normal -0.205107190987743 -0.08078229694891 -0.975400051622295
   outer loop
      vertex 19.5816201271414 -92.4701881149908 45.811969604034
      vertex 20.4138179911446 -91.3190347351405 45.54163685189
      vertex 20.481925099815 -92.3351785774027 45.6114719680043
   endloop
endfacet
facet normal 0.687189217511935 -0.726414103922184 -0.00967103708327769
   outer loop
      vertex 25.3872282556564 -94.8356353793582 50.8018806790845
      vertex 24.2888116233181 -95.8761331826805 50.9065450853972
      vertex 24.8104668315604 -95.3726413417624 50.1550496638597
   endloop
endfacet
facet normal 0.687189217511935 -0.726414103922184 -0.00967103708327769
   outer loop
      vertex 24.2888116233181 -95.8761331826805 50.9065450853972
      vertex 25.3872282556564 -94.8356353793582 50.8018806790845
      vertex 24.784090503886 -95.4177726458283 51.6707596854657
   endloop
endfacet
facet normal 0.766290140557606 -0.619990171801816 -0.168557430430575
   outer loop
      vertex 25.0802268515092 -94.811347624168 49.3168656429097
      vertex 25.3872282556564 -94.8356353793582 50.8018806790845
      vertex 24.8104668315604 -95.3726413417624 50.1550496638597
   endloop
endfacet
facet normal 0.766290140557606 -0.619990171801816 -0.168557430430575
   outer loop
      vertex 25.3872282556564 -94.8356353793582 50.8018806790845
      vertex 25.0802268515092 -94.811347624168 49.3168656429097
      vertex 25.6991247907208 -94.1866675830757 49.8327723140616
   endloop
endfacet
facet normal 0.793200443632256 -0.505834956473971 -0.339063494098919
   outer loop
      vertex 25.0797079836034 -94.2305032691695 48.4491138784098
      vertex 25.6991247907208 -94.1866675830757 49.8327723140616
      vertex 25.0802268515092 -94.811347624168 49.3168656429097
   endloop
endfacet
facet normal 0.793200443632256 -0.505834956473971 -0.339063494098919
   outer loop
      vertex 25.6991247907208 -94.1866675830757 49.8327723140616
      vertex 25.0797079836034 -94.2305032691695 48.4491138784098
      vertex 25.6985248756483 -93.5150953398266 48.8294777239472
   endloop
endfacet
facet normal 0.766086234052569 -0.391727947212876 -0.509569521623437
   outer loop
      vertex 24.8089455878337 -93.6696918596698 47.6109302190838
      vertex 25.6985248756483 -93.5150953398266 48.8294777239472
      vertex 25.0797079836034 -94.2305032691695 48.4491138784098
   endloop
endfacet
facet normal 0.766086234052569 -0.391727947212876 -0.509569521623437
   outer loop
      vertex 25.6985248756483 -93.5150953398266 48.8294777239472
      vertex 24.8089455878337 -93.6696918596698 47.6109302190838
      vertex 25.3854693936587 -92.8666851881627 47.860369777034
   endloop
endfacet
facet normal 0.686795300393192 -0.285445348129538 -0.668455809002384
   outer loop
      vertex 24.286391674016 -93.167131766441 46.85943549615
      vertex 25.3854693936587 -92.8666851881627 47.860369777034
      vertex 24.8089455878337 -93.6696918596698 47.6109302190838
   endloop
endfacet
facet normal 0.686795300393192 -0.285445348129538 -0.668455809002384
   outer loop
      vertex 25.3854693936587 -92.8666851881627 47.860369777034
      vertex 24.286391674016 -93.167131766441 46.85943549615
      vertex 24.7812925585026 -92.2856252083722 46.991491578378
   endloop
endfacet
facet normal -0.342792225896434 0.935431679442129 -0.0863774447471496
   outer loop
      vertex 18.2963705509045 -91.8165380378207 46.2820595084818
      vertex 20.2055764721137 -90.8952400474207 48.6825748236483
      vertex 19.3416356960068 -91.4798189585652 45.7804115139137
   endloop
endfacet
facet normal -0.342792225896434 0.935431679442129 -0.0863774447471496
   outer loop
      vertex 20.2055764721137 -90.8952400474207 48.6825748236483
      vertex 18.2963705509045 -91.8165380378207 46.2820595084818
      vertex 20.1344726354622 -90.8148411525693 49.8354396249092
   endloop
endfacet
facet normal -0.483900931088093 0.336839586996631 0.807699809040473
   outer loop
      vertex 18.30001690432 -95.8984320497932 52.3802004319651
      vertex 20.0918817584741 -91.71198783981 51.7078280217115
      vertex 17.4458923688624 -95.4243205192506 51.6707645949154
   endloop
endfacet
facet normal -0.483900931088093 0.336839586996631 0.807699809040473
   outer loop
      vertex 20.0918817584741 -91.71198783981 51.7078280217115
      vertex 18.30001690432 -95.8984320497932 52.3802004319651
      vertex 20.1172698067728 -92.2673800063985 51.95465656617
   endloop
endfacet
endsolid 黑熊2015-3列印d
