solid 黑熊2015-3列印d
facet normal -0.935833412341943 1.09231655727162e-014 -0.352442653979957
   outer loop
      vertex -69.395205214618 -100.912702322344 21.3628242576984
      vertex -68.9927404876726 -106.84336357306 20.2941683089604
      vertex -69.395205214618 -107.22191641885 21.3628242576984
   endloop
endfacet
facet normal -0.935833412341943 1.09231655727162e-014 -0.352442653979957
   outer loop
      vertex -68.9927404876726 -106.84336357306 20.2941683089604
      vertex -69.395205214618 -100.912702322344 21.3628242576984
      vertex -68.9927404876725 -101.291255168134 20.2941683089605
   endloop
endfacet
facet normal 0.572927343385493 -0.675944207445928 -0.463523125228438
   outer loop
      vertex -63.0899244924725 -106.939736463083 20.2941683089604
      vertex -65.276487172507 -109.525879333034 21.3628242576985
      vertex -65.368268610615 -108.870850937542 20.2941683089595
   endloop
endfacet
facet normal 0.572927343385493 -0.675944207445928 -0.463523125228438
   outer loop
      vertex -65.276487172507 -109.525879333034 21.3628242576985
      vertex -63.0899244924725 -106.939736463083 20.2941683089604
      vertex -62.6874597655269 -107.331431066604 21.3628242576979
   endloop
endfacet
facet normal -3.09525582860007e-014 7.27942632262747e-015 -1.0
   outer loop
      vertex -68.9927404876725 -101.291255168134 20.2941683089605
      vertex -65.368268610615 -108.870850937542 20.2941683089595
      vertex -68.9927404876726 -106.84336357306 20.2941683089604
   endloop
endfacet
facet normal -3.09525582860007e-014 7.27942632262747e-015 -1.0
   outer loop
      vertex -65.368268610615 -108.870850937542 20.2941683089595
      vertex -68.9927404876725 -101.291255168134 20.2941683089605
      vertex -65.368268610615 -99.2637678036516 20.2941683089596
   endloop
endfacet
facet normal -3.09525582860007e-014 7.27942632262747e-015 -1.0
   outer loop
      vertex -65.368268610615 -108.870850937542 20.2941683089595
      vertex -65.368268610615 -99.2637678036516 20.2941683089596
      vertex -63.0899244924725 -101.19488227811 20.2941683089604
   endloop
endfacet
facet normal -3.09525582860007e-014 7.27942632262747e-015 -1.0
   outer loop
      vertex -65.368268610615 -108.870850937542 20.2941683089595
      vertex -63.0899244924725 -101.19488227811 20.2941683089604
      vertex -63.0899244924725 -106.939736463083 20.2941683089604
   endloop
endfacet
facet normal -0.437874101382261 -0.782772999701056 -0.442190798499571
   outer loop
      vertex -65.276487172507 -109.525879333034 21.3628242576985
      vertex -68.9927404876726 -106.84336357306 20.2941683089604
      vertex -65.368268610615 -108.870850937542 20.2941683089595
   endloop
endfacet
facet normal -0.437874101382261 -0.782772999701056 -0.442190798499571
   outer loop
      vertex -68.9927404876726 -106.84336357306 20.2941683089604
      vertex -65.276487172507 -109.525879333034 21.3628242576985
      vertex -69.395205214618 -107.22191641885 21.3628242576984
   endloop
endfacet
facet normal -0.474988083574369 -0.849120433997081 -0.231042872711878
   outer loop
      vertex -65.276487172507 -109.525879333034 21.3628242576985
      vertex -69.7373625270566 -108.04181429468 25.0795053922228
      vertex -69.395205214618 -107.22191641885 21.3628242576984
   endloop
endfacet
facet normal -0.474988083574369 -0.849120433997081 -0.231042872711878
   outer loop
      vertex -69.7373625270566 -108.04181429468 25.0795053922228
      vertex -65.276487172507 -109.525879333034 21.3628242576985
      vertex -65.881155364667 -109.930765291558 24.0939499540105
   endloop
endfacet
facet normal 0.141134363696835 0.215965416215117 0.966147002470598
   outer loop
      vertex -65.8811553646671 -98.2038534496357 24.0939499540105
      vertex -69.7373625270564 -100.092804446513 25.0795053922231
      vertex -68.2095670355056 -101.288215332848 25.1235390278372
   endloop
endfacet
facet normal 0.646290984817073 -0.762499211383735 0.0300485537648627
   outer loop
      vertex -65.881155364667 -109.930765291558 24.0939499540105
      vertex -65.276487172507 -109.525879333034 21.3628242576985
      vertex -62.6874597655269 -107.331431066604 21.3628242576979
   endloop
endfacet
facet normal 0.245342586090762 -0.135231776927729 0.959958010518828
   outer loop
      vertex -65.0474771623464 -106.846403408345 24.3153835685029
      vertex -68.2095670355055 -106.846403408345 25.1235390278369
      vertex -65.881155364667 -109.930765291558 24.0939499540105
   endloop
endfacet
facet normal 0.245342586090805 0.135231776927748 0.959958010518814
   outer loop
      vertex -65.0474771623462 -101.288215332848 24.3153835685029
      vertex -65.8811553646671 -98.2038534496357 24.0939499540105
      vertex -68.2095670355056 -101.288215332848 25.1235390278372
   endloop
endfacet
facet normal 0.646290984817066 0.76249921138374 0.0300485537648852
   outer loop
      vertex -65.8811553646671 -98.2038534496357 24.0939499540105
      vertex -62.687459765527 -100.803187674589 21.362824257698
      vertex -65.2764871725071 -98.6087394081591 21.3628242576987
   endloop
endfacet
facet normal 0.737431005268175 0.244522595953959 0.629606394930282
   outer loop
      vertex -65.8811553646671 -98.2038534496357 24.0939499540105
      vertex -65.0474771623462 -101.288215332848 24.3153835685029
      vertex -62.687459765527 -100.803187674589 21.362824257698
   endloop
endfacet
facet normal -0.99578923288675 1.99931076017796e-014 -0.0916722622542856
   outer loop
      vertex -69.7373625270564 -100.092804446513 25.0795053922231
      vertex -69.395205214618 -107.22191641885 21.3628242576984
      vertex -69.7373625270566 -108.04181429468 25.0795053922228
   endloop
endfacet
facet normal -0.99578923288675 1.99931076017796e-014 -0.0916722622542856
   outer loop
      vertex -69.395205214618 -107.22191641885 21.3628242576984
      vertex -69.7373625270564 -100.092804446513 25.0795053922231
      vertex -69.395205214618 -100.912702322344 21.3628242576984
   endloop
endfacet
facet normal -0.437874101382296 0.782772999701029 -0.442190798499583
   outer loop
      vertex -68.9927404876725 -101.291255168134 20.2941683089605
      vertex -65.2764871725071 -98.6087394081591 21.3628242576987
      vertex -65.368268610615 -99.2637678036516 20.2941683089596
   endloop
endfacet
facet normal -0.437874101382296 0.782772999701029 -0.442190798499583
   outer loop
      vertex -65.2764871725071 -98.6087394081591 21.3628242576987
      vertex -68.9927404876725 -101.291255168134 20.2941683089605
      vertex -69.395205214618 -100.912702322344 21.3628242576984
   endloop
endfacet
facet normal 0.572927343385494 0.675944207445953 -0.463523125228401
   outer loop
      vertex -65.2764871725071 -98.6087394081591 21.3628242576987
      vertex -63.0899244924725 -101.19488227811 20.2941683089604
      vertex -65.368268610615 -99.2637678036516 20.2941683089596
   endloop
endfacet
facet normal 0.572927343385494 0.675944207445953 -0.463523125228401
   outer loop
      vertex -63.0899244924725 -101.19488227811 20.2941683089604
      vertex -65.2764871725071 -98.6087394081591 21.3628242576987
      vertex -62.687459765527 -100.803187674589 21.362824257698
   endloop
endfacet
facet normal -0.474988083574421 0.849120433997063 -0.231042872711837
   outer loop
      vertex -69.7373625270564 -100.092804446513 25.0795053922231
      vertex -65.2764871725071 -98.6087394081591 21.3628242576987
      vertex -69.395205214618 -100.912702322344 21.3628242576984
   endloop
endfacet
facet normal -0.474988083574421 0.849120433997063 -0.231042872711837
   outer loop
      vertex -65.2764871725071 -98.6087394081591 21.3628242576987
      vertex -69.7373625270564 -100.092804446513 25.0795053922231
      vertex -65.8811553646671 -98.2038534496357 24.0939499540105
   endloop
endfacet
facet normal 0.737431005268172 -0.244522595953917 0.629606394930301
   outer loop
      vertex -65.0474771623464 -106.846403408345 24.3153835685029
      vertex -65.881155364667 -109.930765291558 24.0939499540105
      vertex -62.6874597655269 -107.331431066604 21.3628242576979
   endloop
endfacet
facet normal 0.063708227110169 0.966335528789394 0.249272757432097
   outer loop
      vertex -68.2095670355056 -101.288215332848 25.1235390278372
      vertex -64.6435700914525 -101.902892654017 26.5950242987459
      vertex -65.0474771623462 -101.288215332848 24.3153835685029
   endloop
endfacet
facet normal 0.063708227110169 0.966335528789394 0.249272757432097
   outer loop
      vertex -64.6435700914525 -101.902892654017 26.5950242987459
      vertex -68.2095670355056 -101.288215332848 25.1235390278372
      vertex -67.470145080844 -101.902892654017 27.317430081164
   endloop
endfacet
facet normal 0.935833412341882 1.77692368450958e-014 -0.352442653980119
   outer loop
      vertex -63.0899244924725 -106.939736463083 20.2941683089604
      vertex -62.687459765527 -100.803187674589 21.362824257698
      vertex -62.6874597655269 -107.331431066604 21.3628242576979
   endloop
endfacet
facet normal 0.935833412341882 1.77692368450958e-014 -0.352442653980119
   outer loop
      vertex -62.687459765527 -100.803187674589 21.362824257698
      vertex -63.0899244924725 -106.939736463083 20.2941683089604
      vertex -63.0899244924725 -101.19488227811 20.2941683089604
   endloop
endfacet
facet normal -0.947625199067591 -4.84774876171583e-015 0.319384536401042
   outer loop
      vertex -67.1846660890762 -105.846403408345 28.1644563318768
      vertex -67.4701450808439 -106.203355071208 27.3174300811638
      vertex -67.3749854169213 -106.684093441212 27.5997721647347
   endloop
endfacet
facet normal -0.947625199067591 -4.84774876171583e-015 0.319384536401042
   outer loop
      vertex -67.4701450808439 -106.203355071208 27.3174300811638
      vertex -68.2095670355055 -104.606403408345 25.123539027837
      vertex -68.2095670355055 -106.846403408345 25.1235390278369
   endloop
endfacet
facet normal -0.947625199067591 -4.84774876171583e-015 0.319384536401042
   outer loop
      vertex -68.2095670355055 -104.606403408345 25.123539027837
      vertex -67.4701450808439 -106.203355071208 27.3174300811638
      vertex -67.1846660890762 -105.846403408345 28.1644563318768
   endloop
endfacet
facet normal -0.947625199067591 -4.84774876171583e-015 0.319384536401042
   outer loop
      vertex -68.2095670355055 -104.606403408345 25.123539027837
      vertex -67.1846660890762 -105.846403408345 28.1644563318768
      vertex -67.1846660890761 -104.606403408345 28.1644563318768
   endloop
endfacet
facet normal -0.206968102661292 0.548974710735559 -0.809809219170537
   outer loop
      vertex -67.3749854169212 -101.450525299982 27.5997721647349
      vertex -64.6435700914525 -101.902892654017 26.5950242987459
      vertex -67.470145080844 -101.902892654017 27.317430081164
   endloop
endfacet
facet normal -0.206968102661292 0.548974710735559 -0.809809219170537
   outer loop
      vertex -64.6435700914525 -101.902892654017 26.5950242987459
      vertex -67.3749854169212 -101.450525299982 27.5997721647349
      vertex -64.5915894045391 -101.450525299982 26.8884019086298
   endloop
endfacet
facet normal 0.781130726936361 -1.1018932855923e-014 0.624367509913731
   outer loop
      vertex -62.687459765527 -100.803187674589 21.362824257698
      vertex -65.0474771623464 -106.846403408345 24.3153835685029
      vertex -62.6874597655269 -107.331431066604 21.3628242576979
   endloop
endfacet
facet normal 0.781130726936361 -1.1018932855923e-014 0.624367509913731
   outer loop
      vertex -65.0474771623464 -106.846403408345 24.3153835685029
      vertex -62.687459765527 -100.803187674589 21.362824257698
      vertex -65.0474771623463 -104.606403408345 24.3153835685029
   endloop
endfacet
facet normal 0.781130726936361 -1.1018932855923e-014 0.624367509913731
   outer loop
      vertex -65.0474771623463 -104.606403408345 24.3153835685029
      vertex -62.687459765527 -100.803187674589 21.362824257698
      vertex -65.0474771623462 -103.528215332848 24.315383568503
   endloop
endfacet
facet normal 0.781130726936361 -1.1018932855923e-014 0.624367509913731
   outer loop
      vertex -65.0474771623462 -103.528215332848 24.315383568503
      vertex -62.687459765527 -100.803187674589 21.362824257698
      vertex -65.0474771623462 -101.288215332848 24.3153835685029
   endloop
endfacet
facet normal -0.0288097183871475 -3.72507629233956e-014 0.999584913914998
   outer loop
      vertex -68.2095670355055 -106.846403408345 25.1235390278369
      vertex -69.7373625270564 -100.092804446513 25.0795053922231
      vertex -69.7373625270566 -108.04181429468 25.0795053922228
   endloop
endfacet
facet normal -0.0288097183871475 -3.72507629233956e-014 0.999584913914998
   outer loop
      vertex -69.7373625270564 -100.092804446513 25.0795053922231
      vertex -68.2095670355055 -106.846403408345 25.1235390278369
      vertex -68.2095670355056 -103.528215332848 25.1235390278372
   endloop
endfacet
facet normal -0.0288097183871475 -3.72507629233956e-014 0.999584913914998
   outer loop
      vertex -68.2095670355056 -103.528215332848 25.1235390278372
      vertex -68.2095670355055 -106.846403408345 25.1235390278369
      vertex -68.2095670355055 -104.606403408345 25.123539027837
   endloop
endfacet
facet normal -0.0288097183871475 -3.72507629233956e-014 0.999584913914998
   outer loop
      vertex -68.2095670355056 -101.288215332848 25.1235390278372
      vertex -69.7373625270564 -100.092804446513 25.0795053922231
      vertex -68.2095670355056 -103.528215332848 25.1235390278372
   endloop
endfacet
facet normal 0.201963702169751 -0.578575642799095 0.790228377474198
   outer loop
      vertex -64.5915894045391 -106.684093441212 26.8884019086296
      vertex -67.1846660890762 -105.846403408345 28.1644563318768
      vertex -67.3749854169213 -106.684093441212 27.5997721647347
   endloop
endfacet
facet normal 0.201963702169751 -0.578575642799095 0.790228377474198
   outer loop
      vertex -67.1846660890762 -105.846403408345 28.1644563318768
      vertex -64.5915894045391 -106.684093441212 26.8884019086296
      vertex -64.4876280307122 -105.846403408345 27.4751571283974
   endloop
endfacet
facet normal 0.0664413797679925 -0.963329014186765 0.259966831500639
   outer loop
      vertex -64.6435700914525 -106.203355071208 26.5950242987459
      vertex -68.2095670355055 -106.846403408345 25.1235390278369
      vertex -65.0474771623464 -106.846403408345 24.3153835685029
   endloop
endfacet
facet normal 0.0664413797679925 -0.963329014186765 0.259966831500639
   outer loop
      vertex -68.2095670355055 -106.846403408345 25.1235390278369
      vertex -64.6435700914525 -106.203355071208 26.5950242987459
      vertex -67.4701450808439 -106.203355071208 27.3174300811638
   endloop
endfacet
facet normal 0.247617199697375 -1.68669610290567e-013 0.968857947489739
   outer loop
      vertex -68.2095670355055 -104.606403408345 25.123539027837
      vertex -65.0474771623462 -103.528215332848 24.315383568503
      vertex -68.2095670355056 -103.528215332848 25.1235390278372
   endloop
endfacet
facet normal 0.247617199697375 -1.68669610290567e-013 0.968857947489739
   outer loop
      vertex -65.0474771623462 -103.528215332848 24.315383568503
      vertex -68.2095670355055 -104.606403408345 25.123539027837
      vertex -65.0474771623463 -104.606403408345 24.3153835685029
   endloop
endfacet
facet normal -0.210635792888646 -0.525730969641871 -0.824159881523961
   outer loop
      vertex -64.6435700914525 -106.203355071208 26.5950242987459
      vertex -67.3749854169213 -106.684093441212 27.5997721647347
      vertex -67.4701450808439 -106.203355071208 27.3174300811638
   endloop
endfacet
facet normal -0.210635792888646 -0.525730969641871 -0.824159881523961
   outer loop
      vertex -67.3749854169213 -106.684093441212 27.5997721647347
      vertex -64.6435700914525 -106.203355071208 26.5950242987459
      vertex -64.5915894045391 -106.684093441212 26.8884019086296
   endloop
endfacet
facet normal 0.141134363696813 -0.215965416215088 0.966147002470607
   outer loop
      vertex -65.881155364667 -109.930765291558 24.0939499540105
      vertex -68.2095670355055 -106.846403408345 25.1235390278369
      vertex -69.7373625270566 -108.04181429468 25.0795053922228
   endloop
endfacet
facet normal 0.201963702169715 0.578575642799132 0.790228377474179
   outer loop
      vertex -67.184666089076 -102.288215332848 28.1644563318769
      vertex -64.5915894045391 -101.450525299982 26.8884019086298
      vertex -67.3749854169212 -101.450525299982 27.5997721647349
   endloop
endfacet
facet normal 0.201963702169715 0.578575642799132 0.790228377474179
   outer loop
      vertex -64.5915894045391 -101.450525299982 26.8884019086298
      vertex -67.184666089076 -102.288215332848 28.1644563318769
      vertex -64.487628030712 -102.288215332848 27.4751571283975
   endloop
endfacet
facet normal 0.984663754165813 3.27556987484956e-014 -0.174462864908519
   outer loop
      vertex -65.0474771623462 -101.288215332848 24.3153835685029
      vertex -64.487628030712 -103.528215332848 27.4751571283974
      vertex -65.0474771623462 -103.528215332848 24.315383568503
   endloop
endfacet
facet normal 0.984663754165813 3.27556987484956e-014 -0.174462864908519
   outer loop
      vertex -64.487628030712 -103.528215332848 27.4751571283974
      vertex -65.0474771623462 -101.288215332848 24.3153835685029
      vertex -64.487628030712 -102.288215332848 27.4751571283975
   endloop
endfacet
facet normal 0.984663754165813 3.27556987484956e-014 -0.174462864908519
   outer loop
      vertex -64.487628030712 -102.288215332848 27.4751571283975
      vertex -65.0474771623462 -101.288215332848 24.3153835685029
      vertex -64.6435700914525 -101.902892654017 26.5950242987459
   endloop
endfacet
facet normal 0.984663754165813 3.27556987484956e-014 -0.174462864908519
   outer loop
      vertex -64.5915894045391 -101.450525299982 26.8884019086298
      vertex -64.487628030712 -102.288215332848 27.4751571283975
      vertex -64.6435700914525 -101.902892654017 26.5950242987459
   endloop
endfacet
facet normal -0.947625199067568 -3.2088478038402e-014 0.31938453640111
   outer loop
      vertex -67.3749854169212 -101.450525299982 27.5997721647349
      vertex -67.470145080844 -101.902892654017 27.317430081164
      vertex -67.184666089076 -102.288215332848 28.1644563318769
   endloop
endfacet
facet normal -0.947625199067568 -3.2088478038402e-014 0.31938453640111
   outer loop
      vertex -67.184666089076 -102.288215332848 28.1644563318769
      vertex -68.2095670355056 -103.528215332848 25.1235390278372
      vertex -67.184666089076 -103.528215332848 28.1644563318769
   endloop
endfacet
facet normal -0.947625199067568 -3.2088478038402e-014 0.31938453640111
   outer loop
      vertex -68.2095670355056 -103.528215332848 25.1235390278372
      vertex -67.184666089076 -102.288215332848 28.1644563318769
      vertex -68.2095670355056 -101.288215332848 25.1235390278372
   endloop
endfacet
facet normal -0.947625199067568 -3.2088478038402e-014 0.31938453640111
   outer loop
      vertex -68.2095670355056 -101.288215332848 25.1235390278372
      vertex -67.184666089076 -102.288215332848 28.1644563318769
      vertex -67.470145080844 -101.902892654017 27.317430081164
   endloop
endfacet
facet normal 0.984663754165809 -4.81323887368921e-014 -0.174462864908541
   outer loop
      vertex -65.0474771623463 -104.606403408345 24.3153835685029
      vertex -64.6435700914525 -106.203355071208 26.5950242987459
      vertex -65.0474771623464 -106.846403408345 24.3153835685029
   endloop
endfacet
facet normal 0.984663754165809 -4.81323887368921e-014 -0.174462864908541
   outer loop
      vertex -64.6435700914525 -106.203355071208 26.5950242987459
      vertex -65.0474771623463 -104.606403408345 24.3153835685029
      vertex -64.4876280307122 -105.846403408345 27.4751571283974
   endloop
endfacet
facet normal 0.984663754165809 -4.81323887368921e-014 -0.174462864908541
   outer loop
      vertex -64.4876280307122 -105.846403408345 27.4751571283974
      vertex -65.0474771623463 -104.606403408345 24.3153835685029
      vertex -64.4876280307119 -104.606403408345 27.4751571283974
   endloop
endfacet
facet normal 0.984663754165809 -4.81323887368921e-014 -0.174462864908541
   outer loop
      vertex -64.4876280307122 -105.846403408345 27.4751571283974
      vertex -64.5915894045391 -106.684093441212 26.8884019086296
      vertex -64.6435700914525 -106.203355071208 26.5950242987459
   endloop
endfacet
facet normal 1.86638972332308e-014 -1.0 -1.20465731895416e-014
   outer loop
      vertex -64.487628030712 -103.528215332848 27.4751571283974
      vertex -68.2095670355056 -103.528215332848 25.1235390278372
      vertex -65.0474771623462 -103.528215332848 24.315383568503
   endloop
endfacet
facet normal 1.86638972332308e-014 -1.0 -1.20465731895416e-014
   outer loop
      vertex -68.2095670355056 -103.528215332848 25.1235390278372
      vertex -64.487628030712 -103.528215332848 27.4751571283974
      vertex -67.184666089076 -103.528215332848 28.1644563318769
   endloop
endfacet
facet normal -4.54861647227653e-015 1.0 -1.75494196973782e-015
   outer loop
      vertex -68.2095670355055 -104.606403408345 25.123539027837
      vertex -64.4876280307119 -104.606403408345 27.4751571283974
      vertex -65.0474771623463 -104.606403408345 24.3153835685029
   endloop
endfacet
facet normal -4.54861647227653e-015 1.0 -1.75494196973782e-015
   outer loop
      vertex -64.4876280307119 -104.606403408345 27.4751571283974
      vertex -68.2095670355055 -104.606403408345 25.123539027837
      vertex -67.1846660890761 -104.606403408345 28.1644563318768
   endloop
endfacet
facet normal -4.54861647227653e-015 1.0 -1.75494196973782e-015
   outer loop
      vertex -64.4876280307119 -104.606403408345 27.4751571283974
      vertex -67.1846660890761 -104.606403408345 28.1644563318768
      vertex -66.9521401816786 -104.606403408345 28.1050282039495
   endloop
endfacet
facet normal 0.864235229804049 -1.88661954390922e-013 0.503087932240023
   outer loop
      vertex -64.9099475407598 -104.606403408345 28.200643421006
      vertex -64.4876280307122 -105.846403408345 27.4751571283974
      vertex -64.4876280307119 -104.606403408345 27.4751571283974
   endloop
endfacet
facet normal -9.46409237793124e-015 1.0 1.5567341401719e-015
   outer loop
      vertex -66.9521401816786 -104.606403408345 28.1050282039495
      vertex -64.9099475407598 -104.606403408345 28.200643421006
      vertex -64.4876280307119 -104.606403408345 27.4751571283974
   endloop
endfacet
facet normal -9.46409237793124e-015 1.0 1.5567341401719e-015
   outer loop
      vertex -64.9099475407598 -104.606403408345 28.200643421006
      vertex -66.9521401816786 -104.606403408345 28.1050282039495
      vertex -67.1846660890761 -104.606403408345 28.1644563318768
   endloop
endfacet
facet normal -9.46409237793124e-015 1.0 1.5567341401719e-015
   outer loop
      vertex -64.9099475407598 -104.606403408345 28.200643421006
      vertex -67.1846660890761 -104.606403408345 28.1644563318768
      vertex -66.5488608892009 -104.606403408345 28.6195109494595
   endloop
endfacet
facet normal -0.582006952990947 -9.38346809887963e-015 0.813183808662097
   outer loop
      vertex -66.5488608892009 -104.606403408345 28.6195109494595
      vertex -67.1846660890761 -104.606403408345 28.1644563318768
      vertex -67.1846660890762 -105.846403408345 28.1644563318768
   endloop
endfacet
facet normal 0.223013271839658 -0.434571694990168 0.872589549843879
   outer loop
      vertex -64.4876280307122 -105.846403408345 27.4751571283974
      vertex -66.5488608892009 -104.606403408345 28.6195109494595
      vertex -67.1846660890762 -105.846403408345 28.1644563318768
   endloop
endfacet
facet normal 0.223013271839658 -0.434571694990168 0.872589549843879
   outer loop
      vertex -66.5488608892009 -104.606403408345 28.6195109494595
      vertex -64.4876280307122 -105.846403408345 27.4751571283974
      vertex -64.9099475407598 -104.606403408345 28.200643421006
   endloop
endfacet
facet normal 0.906382428403272 9.97005575337496e-015 0.422458155894508
   outer loop
      vertex -64.487628030712 -102.288215332848 27.4751571283975
      vertex -64.8143886417116 -103.528215332848 28.1762208242262
      vertex -64.487628030712 -103.528215332848 27.4751571283974
   endloop
endfacet
facet normal 3.73112380395016e-014 -1.0 -2.90594617508548e-014
   outer loop
      vertex -64.8143886417116 -103.528215332848 28.1762208242262
      vertex -67.184666089076 -103.528215332848 28.1644563318769
      vertex -64.487628030712 -103.528215332848 27.4751571283974
   endloop
endfacet
facet normal 3.73112380395016e-014 -1.0 -2.90594617508548e-014
   outer loop
      vertex -67.184666089076 -103.528215332848 28.1644563318769
      vertex -64.8143886417116 -103.528215332848 28.1762208242262
      vertex -66.5599116853162 -103.528215332848 28.6223352718442
   endloop
endfacet
facet normal -0.591133362636864 0.0 0.806573832688387
   outer loop
      vertex -66.5599116853162 -103.528215332848 28.6223352718442
      vertex -67.184666089076 -102.288215332848 28.1644563318769
      vertex -67.184666089076 -103.528215332848 28.1644563318769
   endloop
endfacet
facet normal 0.22301327183965 0.434571694990101 0.872589549843914
   outer loop
      vertex -66.5599116853162 -103.528215332848 28.6223352718442
      vertex -64.487628030712 -102.288215332848 27.4751571283975
      vertex -67.184666089076 -102.288215332848 28.1644563318769
   endloop
endfacet
facet normal 0.22301327183965 0.434571694990101 0.872589549843914
   outer loop
      vertex -64.487628030712 -102.288215332848 27.4751571283975
      vertex -66.5599116853162 -103.528215332848 28.6223352718442
      vertex -64.8143886417116 -103.528215332848 28.1762208242262
   endloop
endfacet
endsolid 黑熊2015-3列印d
