solid 黑熊2015-3列印d
facet normal 0.192648301888594 0.0465703490517899 -0.980162146978058
   outer loop
      vertex -66.2130775930585 -13.0374175501767 21.4591123460722
      vertex -70.9986964240158 -17.9231577768593 20.2863758018718
      vertex -71.5146606151492 -15.8297625774918 20.2844276750999
   endloop
endfacet
facet normal 0.192648301888594 0.0465703490517899 -0.980162146978058
   outer loop
      vertex -70.9986964240158 -17.9231577768593 20.2863758018718
      vertex -66.2130775930585 -13.0374175501767 21.4591123460722
      vertex -68.3134101937327 -16.666938928391 20.8738483791213
   endloop
endfacet
facet normal 0.192648301888594 0.0465703490517899 -0.980162146978058
   outer loop
      vertex -68.3134101937327 -16.666938928391 20.8738483791213
      vertex -66.2130775930585 -13.0374175501767 21.4591123460722
      vertex -67.7629512833614 -18.9002877929479 20.8759267476563
   endloop
endfacet
facet normal 0.192648301888594 0.0465703490517899 -0.980162146978058
   outer loop
      vertex -67.7629512833614 -18.9002877929479 20.8759267476563
      vertex -66.2130775930585 -13.0374175501767 21.4591123460722
      vertex -67.2124923729904 -21.1336366575044 20.8780051161915
   endloop
endfacet
facet normal 0.192648301888594 0.0465703490517899 -0.980162146978058
   outer loop
      vertex -67.2124923729904 -21.1336366575044 20.8780051161915
      vertex -66.2130775930585 -13.0374175501767 21.4591123460722
      vertex -66.6620334626192 -23.3669855220614 20.8800834847267
   endloop
endfacet
facet normal 0.192648301888594 0.0465703490517899 -0.980162146978058
   outer loop
      vertex -66.6620334626192 -23.3669855220614 20.8800834847267
      vertex -68.9348396594812 -26.2967385743295 20.2941683089596
      vertex -69.4508038506149 -24.203343374962 20.2922201821876
   endloop
endfacet
facet normal 0.192648301888594 0.0465703490517899 -0.980162146978058
   outer loop
      vertex -68.9348396594812 -26.2967385743295 20.2941683089596
      vertex -66.6620334626192 -23.3669855220614 20.8800834847267
      vertex -63.2883094450146 -24.9039301989066 21.4701553975642
   endloop
endfacet
facet normal 0.192648301888594 0.0465703490517899 -0.980162146978058
   outer loop
      vertex -63.2883094450146 -24.9039301989066 21.4701553975642
      vertex -66.6620334626192 -23.3669855220614 20.8800834847267
      vertex -66.2130775930585 -13.0374175501767 21.4591123460722
   endloop
endfacet
facet normal 0.192648301888594 0.0465703490517899 -0.980162146978058
   outer loop
      vertex -63.2883094450146 -24.9039301989066 21.4701553975642
      vertex -66.2130775930585 -13.0374175501767 21.4591123460722
      vertex -63.562286082013 -11.6412450365192 22.0464546815583
   endloop
endfacet
facet normal 0.192648301888594 0.0465703490517899 -0.980162146978058
   outer loop
      vertex -63.2883094450146 -24.9039301989066 21.4701553975642
      vertex -63.562286082013 -11.6412450365192 22.0464546815583
      vertex -60.4650443377811 -24.207526011195 22.0581489418665
   endloop
endfacet
facet normal 0.192648301888594 0.0465703490517899 -0.980162146978058
   outer loop
      vertex -67.7629512833614 -18.9002877929479 20.8759267476563
      vertex -69.9667680417485 -22.1099481755943 20.2902720554157
      vertex -70.4827322328821 -20.0165529762269 20.2883239286437
   endloop
endfacet
facet normal 0.192648301888594 0.0465703490517899 -0.980162146978058
   outer loop
      vertex -69.9667680417485 -22.1099481755943 20.2902720554157
      vertex -67.7629512833614 -18.9002877929479 20.8759267476563
      vertex -67.2124923729904 -21.1336366575044 20.8780051161915
   endloop
endfacet
facet normal -0.914338620030248 -0.2256721634349 -0.336239442320192
   outer loop
      vertex -71.5337506920836 -20.3195063967585 23.349698627403
      vertex -69.9667680417485 -22.1099481755943 20.2902720554157
      vertex -71.076528493532 -22.1745707053675 23.3514249619453
   endloop
endfacet
facet normal -0.914338620030248 -0.2256721634349 -0.336239442320192
   outer loop
      vertex -69.9667680417485 -22.1099481755943 20.2902720554157
      vertex -71.5337506920836 -20.3195063967585 23.349698627403
      vertex -70.4827322328821 -20.0165529762269 20.2883239286437
   endloop
endfacet
facet normal -0.914338620030274 -0.225672163434835 -0.336239442320163
   outer loop
      vertex -72.4481950891869 -16.6093777795398 23.3462459583185
      vertex -70.9986964240158 -17.9231577768593 20.2863758018718
      vertex -71.9909728906352 -18.4644420881491 23.3479722928608
   endloop
endfacet
facet normal -0.914338620030274 -0.225672163434835 -0.336239442320163
   outer loop
      vertex -70.9986964240158 -17.9231577768593 20.2863758018718
      vertex -72.4481950891869 -16.6093777795398 23.3462459583185
      vertex -71.5146606151492 -15.8297625774918 20.2844276750999
   endloop
endfacet
facet normal -0.623224427687385 -0.152893905969749 0.766951606198882
   outer loop
      vertex -71.076528493532 -22.1745707053675 23.3514249619453
      vertex -69.2746052419666 -19.3319837827701 25.3823442432383
      vertex -71.5337506920836 -20.3195063967585 23.349698627403
   endloop
endfacet
facet normal -0.623224427687385 -0.152893905969749 0.766951606198882
   outer loop
      vertex -69.2746052419666 -19.3319837827701 25.3823442432383
      vertex -71.076528493532 -22.1745707053675 23.3514249619453
      vertex -68.8100602657042 -21.2167584239351 25.3840982264033
   endloop
endfacet
facet normal -0.623224427687385 -0.152893905969749 0.766951606198882
   outer loop
      vertex -70.1620840964285 -25.8846993225862 23.3548776310298
      vertex -68.345515289442 -23.1015330651001 25.3858522095683
      vertex -70.6193062949803 -24.0296350139767 23.3531512964875
   endloop
endfacet
facet normal -0.623224427687385 -0.152893905969749 0.766951606198882
   outer loop
      vertex -68.345515289442 -23.1015330651001 25.3858522095683
      vertex -70.1620840964285 -25.8846993225862 23.3548776310298
      vertex -65.5998565299306 -24.0879160899447 27.4203347544368
   endloop
endfacet
facet normal -0.623224427687385 -0.152893905969749 0.766951606198882
   outer loop
      vertex -68.345515289442 -23.1015330651001 25.3858522095683
      vertex -65.5998565299306 -24.0879160899447 27.4203347544368
      vertex -67.9591952997954 -14.51549122134 27.4114265954978
   endloop
endfacet
facet normal -0.623224427687385 -0.152893905969749 0.766951606198882
   outer loop
      vertex -67.9591952997954 -14.51549122134 27.4114265954978
      vertex -65.5998565299306 -24.0879160899447 27.4203347544368
      vertex -65.7146954050996 -13.46854794224 29.4440169140873
   endloop
endfacet
facet normal -0.623224427687385 -0.152893905969749 0.766951606198882
   outer loop
      vertex -65.7146954050996 -13.46854794224 29.4440169140873
      vertex -65.5998565299306 -24.0879160899447 27.4203347544368
      vertex -63.4701955104036 -12.4216046631399 31.4766072326769
   endloop
endfacet
facet normal -0.623224427687385 -0.152893905969749 0.766951606198882
   outer loop
      vertex -63.4701955104036 -12.4216046631399 31.4766072326769
      vertex -65.5998565299306 -24.0879160899447 27.4203347544368
      vertex -63.3187427466817 -23.189524473624 29.4530633161405
   endloop
endfacet
facet normal -0.623224427687385 -0.152893905969749 0.766951606198882
   outer loop
      vertex -63.4701955104036 -12.4216046631399 31.4766072326769
      vertex -63.3187427466817 -23.189524473624 29.4530633161405
      vertex -61.0376289634326 -22.2911328573029 31.485791877844
   endloop
endfacet
facet normal -0.623224427687385 -0.152893905969749 0.766951606198882
   outer loop
      vertex -71.9909728906352 -18.4644420881491 23.3479722928608
      vertex -67.9591952997954 -14.51549122134 27.4114265954978
      vertex -72.4481950891869 -16.6093777795398 23.3462459583185
   endloop
endfacet
facet normal -0.623224427687385 -0.152893905969749 0.766951606198882
   outer loop
      vertex -67.9591952997954 -14.51549122134 27.4114265954978
      vertex -71.9909728906352 -18.4644420881491 23.3479722928608
      vertex -69.7391502182288 -17.4472091416048 25.3805902600732
   endloop
endfacet
facet normal -0.623224427687385 -0.152893905969749 0.766951606198882
   outer loop
      vertex -67.9591952997954 -14.51549122134 27.4114265954978
      vertex -69.7391502182288 -17.4472091416048 25.3805902600732
      vertex -69.2746052419666 -19.3319837827701 25.3823442432383
   endloop
endfacet
facet normal -0.623224427687385 -0.152893905969749 0.766951606198882
   outer loop
      vertex -67.9591952997954 -14.51549122134 27.4114265954978
      vertex -69.2746052419666 -19.3319837827701 25.3823442432383
      vertex -68.8100602657042 -21.2167584239351 25.3840982264033
   endloop
endfacet
facet normal -0.623224427687385 -0.152893905969749 0.766951606198882
   outer loop
      vertex -67.9591952997954 -14.51549122134 27.4114265954978
      vertex -68.8100602657042 -21.2167584239351 25.3840982264033
      vertex -68.345515289442 -23.1015330651001 25.3858522095683
   endloop
endfacet
facet normal -0.914338620030234 -0.225672163434949 -0.336239442320196
   outer loop
      vertex -70.1620840964285 -25.8846993225862 23.3548776310298
      vertex -69.4508038506149 -24.203343374962 20.2922201821876
      vertex -68.9348396594812 -26.2967385743295 20.2941683089596
   endloop
endfacet
facet normal -0.914338620030234 -0.225672163434949 -0.336239442320196
   outer loop
      vertex -69.4508038506149 -24.203343374962 20.2922201821876
      vertex -70.1620840964285 -25.8846993225862 23.3548776310298
      vertex -70.6193062949803 -24.0296350139767 23.3531512964875
   endloop
endfacet
facet normal 0.180405905971641 0.981326975319229 0.0667163893010196
   outer loop
      vertex -50.1965176440129 -5.61652062424428 31.4702478570506
      vertex -28.1614023178888 -9.02657351320091 22.0439575108638
      vertex -50.4642231138786 -4.92619438197672 22.0401794424549
   endloop
endfacet
facet normal 0.180405905971641 0.981326975319229 0.0667163893010196
   outer loop
      vertex -28.1614023178888 -9.02657351320091 22.0439575108638
      vertex -50.1965176440129 -5.61652062424428 31.4702478570506
      vertex -35.0269424265567 -8.40545078783974 31.4728175630726
   endloop
endfacet
facet normal 1.77390147702892e-006 0.000931043119677678 0.999999566577688
   outer loop
      vertex -61.0376289634326 -22.2911328573029 31.485791877844
      vertex -50.1965176440129 -5.61652062424428 31.4702478570506
      vertex -63.4701955104036 -12.4216046631399 31.4766072326769
   endloop
endfacet
facet normal 1.77390147702892e-006 0.000931043119677678 0.999999566577688
   outer loop
      vertex -50.1965176440129 -5.61652062424428 31.4702478570506
      vertex -61.0376289634326 -22.2911328573029 31.485791877844
      vertex -32.3069072293742 -22.345873039401 31.485791877844
   endloop
endfacet
facet normal 1.77390147702892e-006 0.000931043119677678 0.999999566577688
   outer loop
      vertex -50.1965176440129 -5.61652062424428 31.4702478570506
      vertex -32.3069072293742 -22.345873039401 31.485791877844
      vertex -35.0269424265567 -8.40545078783974 31.4728175630726
   endloop
endfacet
facet normal 1.77390147702892e-006 0.000931043119677678 0.999999566577688
   outer loop
      vertex -35.0269424265567 -8.40545078783974 31.4728175630726
      vertex -32.3069072293742 -22.345873039401 31.485791877844
      vertex -29.4482098189292 -17.8949873849587 31.4816428385335
   endloop
endfacet
facet normal -0.00186713876157035 -0.979979279239065 0.19909074829064
   outer loop
      vertex -32.3069072293742 -22.345873039401 31.485791877844
      vertex -60.4650443377811 -24.207526011195 22.0581489418665
      vertex -25.5772392015402 -24.2739971852858 22.0581489418665
   endloop
endfacet
facet normal -0.00186713876157035 -0.979979279239065 0.19909074829064
   outer loop
      vertex -60.4650443377811 -24.207526011195 22.0581489418665
      vertex -32.3069072293742 -22.345873039401 31.485791877844
      vertex -61.0376289634326 -22.2911328573029 31.485791877844
   endloop
endfacet
facet normal -0.454799818809312 0.887183960884503 0.0778572049350676
   outer loop
      vertex -63.562286082013 -11.6412450365192 22.0464546815583
      vertex -50.1965176440129 -5.61652062424428 31.4702478570506
      vertex -50.4642231138786 -4.92619438197672 22.0401794424549
   endloop
endfacet
facet normal -0.454799818809312 0.887183960884503 0.0778572049350676
   outer loop
      vertex -50.1965176440129 -5.61652062424428 31.4702478570506
      vertex -63.562286082013 -11.6412450365192 22.0464546815583
      vertex -63.4701955104036 -12.4216046631399 31.4766072326769
   endloop
endfacet
facet normal -0.477942166652938 0.875003253826623 0.0770752303137588
   outer loop
      vertex -72.4481950891869 -16.6093777795398 23.3462459583185
      vertex -66.2130775930585 -13.0374175501767 21.4591123460722
      vertex -71.5146606151492 -15.8297625774918 20.2844276750999
   endloop
endfacet
facet normal -0.477942166652938 0.875003253826623 0.0770752303137588
   outer loop
      vertex -66.2130775930585 -13.0374175501767 21.4591123460722
      vertex -72.4481950891869 -16.6093777795398 23.3462459583185
      vertex -63.562286082013 -11.6412450365192 22.0464546815583
   endloop
endfacet
facet normal -0.477942166652938 0.875003253826623 0.0770752303137588
   outer loop
      vertex -63.562286082013 -11.6412450365192 22.0464546815583
      vertex -72.4481950891869 -16.6093777795398 23.3462459583185
      vertex -63.4701955104036 -12.4216046631399 31.4766072326769
   endloop
endfacet
facet normal -0.477942166652938 0.875003253826623 0.0770752303137588
   outer loop
      vertex -63.4701955104036 -12.4216046631399 31.4766072326769
      vertex -72.4481950891869 -16.6093777795398 23.3462459583185
      vertex -67.9591952997954 -14.51549122134 27.4114265954978
   endloop
endfacet
facet normal -0.477942166652938 0.875003253826623 0.0770752303137588
   outer loop
      vertex -63.4701955104036 -12.4216046631399 31.4766072326769
      vertex -67.9591952997954 -14.51549122134 27.4114265954978
      vertex -65.7146954050996 -13.46854794224 29.4440169140873
   endloop
endfacet
facet normal -0.254539683985658 0.95514154425204 -0.151374303368538
   outer loop
      vertex -70.6193062949803 -24.0296350139767 23.3531512964875
      vertex -66.6620334626192 -23.3669855220614 20.8800834847267
      vertex -69.4508038506149 -24.203343374962 20.2922201821876
   endloop
endfacet
facet normal -0.254539683985658 0.95514154425204 -0.151374303368538
   outer loop
      vertex -66.6620334626192 -23.3669855220614 20.8800834847267
      vertex -70.6193062949803 -24.0296350139767 23.3531512964875
      vertex -68.345515289442 -23.1015330651001 25.3858522095683
   endloop
endfacet
facet normal -0.916753382080828 -0.226260780016915 -0.329194920783265
   outer loop
      vertex -69.7391502182288 -17.4472091416048 25.3805902600732
      vertex -67.7629512833614 -18.9002877929479 20.8759267476563
      vertex -69.2746052419666 -19.3319837827701 25.3823442432383
   endloop
endfacet
facet normal -0.916753382080828 -0.226260780016915 -0.329194920783265
   outer loop
      vertex -67.7629512833614 -18.9002877929479 20.8759267476563
      vertex -69.7391502182288 -17.4472091416048 25.3805902600732
      vertex -68.3134101937327 -16.666938928391 20.8738483791213
   endloop
endfacet
facet normal 0.314709369743405 -0.944506906005848 0.0941526266387114
   outer loop
      vertex -67.2124923729904 -21.1336366575044 20.8780051161915
      vertex -71.076528493532 -22.1745707053675 23.3514249619453
      vertex -69.9667680417485 -22.1099481755943 20.2902720554157
   endloop
endfacet
facet normal 0.314709369743405 -0.944506906005848 0.0941526266387114
   outer loop
      vertex -71.076528493532 -22.1745707053675 23.3514249619453
      vertex -67.2124923729904 -21.1336366575044 20.8780051161915
      vertex -68.8100602657042 -21.2167584239351 25.3840982264033
   endloop
endfacet
facet normal 0.685903256460258 -0.439998963496357 0.579601272341034
   outer loop
      vertex -22.246432952963 -19.0880556108651 22.0533146960269
      vertex -32.3069072293742 -22.345873039401 31.485791877844
      vertex -25.5772392015402 -24.2739971852858 22.0581489418665
   endloop
endfacet
facet normal 0.685903256460258 -0.439998963496357 0.579601272341034
   outer loop
      vertex -32.3069072293742 -22.345873039401 31.485791877844
      vertex -22.246432952963 -19.0880556108651 22.0533146960269
      vertex -29.4482098189292 -17.8949873849587 31.4816428385335
   endloop
endfacet
facet normal -0.916753382080826 -0.226260780016935 -0.329194920783257
   outer loop
      vertex -68.345515289442 -23.1015330651001 25.3858522095683
      vertex -67.2124923729904 -21.1336366575044 20.8780051161915
      vertex -66.6620334626192 -23.3669855220614 20.8800834847267
   endloop
endfacet
facet normal -0.916753382080826 -0.226260780016935 -0.329194920783257
   outer loop
      vertex -67.2124923729904 -21.1336366575044 20.8780051161915
      vertex -68.345515289442 -23.1015330651001 25.3858522095683
      vertex -68.8100602657042 -21.2167584239351 25.3840982264033
   endloop
endfacet
facet normal 0.427454314790177 -0.90378721431429 -0.0212480589531421
   outer loop
      vertex -68.3134101937327 -16.666938928391 20.8738483791213
      vertex -71.9909728906352 -18.4644420881491 23.3479722928608
      vertex -70.9986964240158 -17.9231577768593 20.2863758018718
   endloop
endfacet
facet normal 0.427454314790177 -0.90378721431429 -0.0212480589531421
   outer loop
      vertex -71.9909728906352 -18.4644420881491 23.3479722928608
      vertex -68.3134101937327 -16.666938928391 20.8738483791213
      vertex -69.7391502182288 -17.4472091416048 25.3805902600732
   endloop
endfacet
facet normal -0.372735861287901 0.927230823183982 -0.0362074335948032
   outer loop
      vertex -71.5337506920836 -20.3195063967585 23.349698627403
      vertex -67.7629512833614 -18.9002877929479 20.8759267476563
      vertex -70.4827322328821 -20.0165529762269 20.2883239286437
   endloop
endfacet
facet normal -0.372735861287901 0.927230823183982 -0.0362074335948032
   outer loop
      vertex -67.7629512833614 -18.9002877929479 20.8759267476563
      vertex -71.5337506920836 -20.3195063967585 23.349698627403
      vertex -69.2746052419666 -19.3319837827701 25.3823442432383
   endloop
endfacet
facet normal 0.193520529599747 -0.959073324460819 0.206707916953141
   outer loop
      vertex -63.2883094450146 -24.9039301989066 21.4701553975642
      vertex -70.1620840964285 -25.8846993225862 23.3548776310298
      vertex -68.9348396594812 -26.2967385743295 20.2941683089596
   endloop
endfacet
facet normal 0.193520529599747 -0.959073324460819 0.206707916953141
   outer loop
      vertex -70.1620840964285 -25.8846993225862 23.3548776310298
      vertex -63.2883094450146 -24.9039301989066 21.4701553975642
      vertex -60.4650443377811 -24.207526011195 22.0581489418665
   endloop
endfacet
facet normal 0.193520529599747 -0.959073324460819 0.206707916953141
   outer loop
      vertex -70.1620840964285 -25.8846993225862 23.3548776310298
      vertex -60.4650443377811 -24.207526011195 22.0581489418665
      vertex -65.5998565299306 -24.0879160899447 27.4203347544368
   endloop
endfacet
facet normal 0.193520529599747 -0.959073324460819 0.206707916953141
   outer loop
      vertex -65.5998565299306 -24.0879160899447 27.4203347544368
      vertex -60.4650443377811 -24.207526011195 22.0581489418665
      vertex -61.0376289634326 -22.2911328573029 31.485791877844
   endloop
endfacet
facet normal 0.193520529599747 -0.959073324460819 0.206707916953141
   outer loop
      vertex -65.5998565299306 -24.0879160899447 27.4203347544368
      vertex -61.0376289634326 -22.2911328573029 31.485791877844
      vertex -63.3187427466817 -23.189524473624 29.4530633161405
   endloop
endfacet
facet normal 0.501489047540756 -0.865160249974792 0.00254500691946214
   outer loop
      vertex -30.8301065687515 -12.8750618077537 24.2635980585862
      vertex -32.8003009657495 -14.0172652495537 24.201475001926
      vertex -31.0381820104471 -12.9973856882418 23.6812012339973
   endloop
endfacet
facet normal 0.854670377800235 0.502445619083438 -0.130717042403292
   outer loop
      vertex -27.0165429753585 -10.6331350653843 22.4302259264828
      vertex -23.5192281714476 -16.449102458223 22.9415902157299
      vertex -23.5773508499292 -16.4832719111104 22.4302259570424
   endloop
endfacet
facet normal 0.854670377800235 0.502445619083438 -0.130717042403292
   outer loop
      vertex -23.5192281714476 -16.449102458223 22.9415902157299
      vertex -27.0165429753585 -10.6331350653843 22.4302259264828
      vertex -26.9584202968769 -10.5989656124971 22.9415901851703
   endloop
endfacet
facet normal 0.330052126146818 0.194031820347202 0.923805849039026
   outer loop
      vertex -25.0489580073543 -17.3484037909077 25.3882691587036
      vertex -27.986084961005 -11.2031116901409 25.1469011079455
      vertex -28.4881501327834 -11.4982669451818 25.388269128144
   endloop
endfacet
facet normal 0.330052126146818 0.194031820347202 0.923805849039026
   outer loop
      vertex -27.986084961005 -11.2031116901409 25.1469011079455
      vertex -25.0489580073543 -17.3484037909077 25.3882691587036
      vertex -24.5468928355758 -17.0532485358667 25.1469011385051
   endloop
endfacet
facet normal 0.50108556358642 -0.865397451425717 0.000713464192253628
   outer loop
      vertex -32.8003009657495 -14.0172652495537 24.201475001926
      vertex -32.9068022226622 -14.0798758859014 23.0565783222904
      vertex -31.0381820104471 -12.9973856882418 23.6812012339973
   endloop
endfacet
facet normal 0.501432706975373 -0.865183552927469 0.00476026460946947
   outer loop
      vertex -30.4991770974621 -12.6805142111512 24.7636795520993
      vertex -32.8003009657495 -14.0172652495537 24.201475001926
      vertex -30.8301065687515 -12.8750618077537 24.2635980585862
   endloop
endfacet
facet normal 0.684024867604895 0.402126141473449 0.608608697638952
   outer loop
      vertex -23.7850255345358 -16.6053601935173 24.2627928946965
      vertex -27.5549811322329 -10.9496733564732 24.7630221135846
      vertex -24.1157890068036 -16.7998102021991 24.7630221441441
   endloop
endfacet
facet normal 0.684024867604895 0.402126141473449 0.608608697638952
   outer loop
      vertex -27.5549811322329 -10.9496733564732 24.7630221135846
      vertex -23.7850255345358 -16.6053601935173 24.2627928946965
      vertex -27.2242176599651 -10.7552233477913 24.2627928641369
   endloop
endfacet
facet normal -0.683822825553426 -0.402007358159878 0.608914137820304
   outer loop
      vertex -27.0599849720327 -18.5306510568774 24.7636795826589
      vertex -30.8301065687515 -12.8750618077537 24.2635980585862
      vertex -27.390914443322 -18.7251986534795 24.2635980891458
   endloop
endfacet
facet normal -0.683822825553426 -0.402007358159878 0.608914137820304
   outer loop
      vertex -30.8301065687515 -12.8750618077537 24.2635980585862
      vertex -27.0599849720327 -18.5306510568774 24.7636795826589
      vertex -30.4991770974621 -12.6805142111512 24.7636795520993
   endloop
endfacet
facet normal 0.501085299070942 -0.865397606588364 -0.000711031726484619
   outer loop
      vertex -31.0383894575813 -12.9975076427829 22.4311240041954
      vertex -32.5968680778577 -13.8995885631265 22.0485023680471
      vertex -32.3368531967252 -13.7490337967638 22.0483617337661
   endloop
endfacet
facet normal 0.501085299070942 -0.865397606588364 -0.000711031726484619
   outer loop
      vertex -32.5968680778577 -13.8995885631265 22.0485023680471
      vertex -31.0383894575813 -12.9975076427829 22.4311240041954
      vertex -31.0963234826684 -13.0315663454683 23.0561755789473
   endloop
endfacet
facet normal 0.806437930650519 0.474015236878448 -0.353507311402717
   outer loop
      vertex -27.2246184170543 -10.7554589458728 21.8478291018939
      vertex -23.7205448513861 -16.5674505776695 22.048219891553
      vertex -23.7854262916248 -16.6055957915987 21.8478291324535
   endloop
endfacet
facet normal 0.806437930650519 0.474015236878448 -0.353507311402717
   outer loop
      vertex -23.7205448513861 -16.5674505776695 22.048219891553
      vertex -27.2246184170543 -10.7554589458728 21.8478291018939
      vertex -27.1605666783338 -10.7178018693876 22.0431778554014
   endloop
endfacet
facet normal 0.501085535497741 -0.865397467597335 0.000713576248167447
   outer loop
      vertex -31.0381820104471 -12.9973856882418 23.6812012339973
      vertex -32.9068022226622 -14.0798758859014 23.0565783222904
      vertex -31.0963234826684 -13.0315663454683 23.0561755789473
   endloop
endfacet
facet normal 0.524924878366561 0.308594068817406 0.793236139344754
   outer loop
      vertex -24.5468928355758 -17.0532485358667 25.1469011385051
      vertex -27.5549811322329 -10.9496733564732 24.7630221135846
      vertex -27.986084961005 -11.2031116901409 25.1469011079455
   endloop
endfacet
facet normal 0.524924878366561 0.308594068817406 0.793236139344754
   outer loop
      vertex -27.5549811322329 -10.9496733564732 24.7630221135846
      vertex -24.5468928355758 -17.0532485358667 25.1469011385051
      vertex -24.1157890068036 -16.7998102021991 24.7630221441441
   endloop
endfacet
facet normal 0.112686866966983 0.0662466239730204 0.991419716782626
   outer loop
      vertex -25.4664137051222 -17.5938186129941 25.4521166665185
      vertex -28.4881501327834 -11.4982669451818 25.388269128144
      vertex -28.908161542083 -11.7451842277955 25.4525075178996
   endloop
endfacet
facet normal 0.112686866966983 0.0662466239730204 0.991419716782626
   outer loop
      vertex -28.4881501327834 -11.4982669451818 25.388269128144
      vertex -25.4664137051222 -17.5938186129941 25.4521166665185
      vertex -25.0489580073543 -17.3484037909077 25.3882691587036
   endloop
endfacet
facet normal -0.796509692520559 -0.468253982132988 -0.382505578962457
   outer loop
      vertex -31.0383894575813 -12.9975076427829 22.4311240041954
      vertex -27.4642596909474 -18.768317093573 22.0530262614662
      vertex -27.5991973321519 -18.8476444885088 22.4311240347549
   endloop
endfacet
facet normal -0.796509692520559 -0.468253982132988 -0.382505578962457
   outer loop
      vertex -27.4642596909474 -18.768317093573 22.0530262614662
      vertex -31.0383894575813 -12.9975076427829 22.4311240041954
      vertex -30.9015097656753 -12.9170385473314 22.0475845638188
   endloop
endfacet
facet normal -0.506793575022253 0.862067440700457 5.73191568920411e-007
   outer loop
      vertex -28.908161542083 -11.7451842277955 25.4525075178996
      vertex -27.0165429753585 -10.6331350653843 22.4302259264828
      vertex -27.1605666783338 -10.7178018693876 22.0431778554014
   endloop
endfacet
facet normal -0.506793575022253 0.862067440700457 5.73191568920411e-007
   outer loop
      vertex -27.0165429753585 -10.6331350653843 22.4302259264828
      vertex -28.908161542083 -11.7451842277955 25.4525075178996
      vertex -26.9584202968769 -10.5989656124971 22.9415901851703
   endloop
endfacet
facet normal -0.506793575022253 0.862067440700457 5.73191568920411e-007
   outer loop
      vertex -26.9584202968769 -10.5989656124971 22.9415901851703
      vertex -28.908161542083 -11.7451842277955 25.4525075178996
      vertex -26.9583825732381 -10.5989434354298 23.1689129778954
   endloop
endfacet
facet normal -0.506793575022253 0.862067440700457 5.73191568920411e-007
   outer loop
      vertex -26.9583825732381 -10.5989434354298 23.1689129778954
      vertex -28.908161542083 -11.7451842277955 25.4525075178996
      vertex -27.0163355282243 -10.6330131108435 23.6803031562847
   endloop
endfacet
facet normal -0.506793575022253 0.862067440700457 5.73191568920411e-007
   outer loop
      vertex -27.0163355282243 -10.6330131108435 23.6803031562847
      vertex -28.908161542083 -11.7451842277955 25.4525075178996
      vertex -27.2242176599651 -10.7552233477913 24.2627928641369
   endloop
endfacet
facet normal -0.506793575022253 0.862067440700457 5.73191568920411e-007
   outer loop
      vertex -27.2242176599651 -10.7552233477913 24.2627928641369
      vertex -28.908161542083 -11.7451842277955 25.4525075178996
      vertex -27.5549811322329 -10.9496733564732 24.7630221135846
   endloop
endfacet
facet normal -0.506793575022253 0.862067440700457 5.73191568920411e-007
   outer loop
      vertex -27.5549811322329 -10.9496733564732 24.7630221135846
      vertex -28.908161542083 -11.7451842277955 25.4525075178996
      vertex -27.986084961005 -11.2031116901409 25.1469011079455
   endloop
endfacet
facet normal -0.506793575022253 0.862067440700457 5.73191568920411e-007
   outer loop
      vertex -27.986084961005 -11.2031116901409 25.1469011079455
      vertex -28.908161542083 -11.7451842277955 25.4525075178996
      vertex -28.4881501327834 -11.4982669451818 25.388269128144
   endloop
endfacet
facet normal 0.502007886326404 -0.863991937900808 0.0388073872929138
   outer loop
      vertex -29.0269617358137 -11.8150247787319 25.4706773424832
      vertex -29.1016882012677 -11.8429160152473 25.8163710988446
      vertex -32.4032094986443 -13.7838221757143 25.3129219343735
   endloop
endfacet
facet normal 0.502007886326404 -0.863991937900808 0.0388073872929138
   outer loop
      vertex -29.1016882012677 -11.8429160152473 25.8163710988446
      vertex -29.0269617358137 -11.8150247787319 25.4706773424832
      vertex -28.9315424392537 -11.7583717298657 25.497644839397
   endloop
endfacet
facet normal 0.506794075718429 -0.862067146350389 1.42837665269945e-009
   outer loop
      vertex -29.1016882012677 -11.8429160152473 25.8163710988446
      vertex -31.784792120422 -13.4202655011954 26.2474385465993
      vertex -32.4032094986443 -13.7838221757143 25.3129219343735
   endloop
endfacet
facet normal 0.506794075718429 -0.862067146350389 1.42837665269945e-009
   outer loop
      vertex -31.784792120422 -13.4202655011954 26.2474385465993
      vertex -29.1016882012677 -11.8429160152473 25.8163710988446
      vertex -29.3223681611029 -11.9726498719807 26.2468886876974
   endloop
endfacet
facet normal 0.506794075718455 -0.862067146350374 1.42885721500619e-009
   outer loop
      vertex -29.5011512876416 -12.0777533192625 26.5956710629635
      vertex -31.784792120422 -13.4202655011954 26.2474385465993
      vertex -29.3223681611029 -11.9726498719807 26.2468886876974
   endloop
endfacet
facet normal 0.50679407571846 -0.862067146350371 1.42854555540141e-009
   outer loop
      vertex -29.5011512876416 -12.0777533192625 26.5956710629635
      vertex -30.9789380215083 -12.9465180837509 26.9644443788833
      vertex -31.784792120422 -13.4202655011954 26.2474385465993
   endloop
endfacet
facet normal 0.50679407571846 -0.862067146350371 1.42854555540141e-009
   outer loop
      vertex -30.9789380215083 -12.9465180837509 26.9644443788833
      vertex -29.5011512876416 -12.0777533192625 26.5956710629635
      vertex -29.6900340842983 -12.1887941845011 26.9641565668268
   endloop
endfacet
facet normal 0.32974549943371 0.19385155026605 -0.923953181748222
   outer loop
      vertex -27.9867790926448 -11.2035197579878 20.9640611733026
      vertex -25.0497322105991 -17.3488589314503 20.7229174236979
      vertex -28.4889243360284 -11.4987220857243 20.7229173931383
   endloop
endfacet
facet normal 0.32974549943371 0.19385155026605 -0.923953181748222
   outer loop
      vertex -25.0497322105991 -17.3488589314503 20.7229174236979
      vertex -27.9867790926448 -11.2035197579878 20.9640611733026
      vertex -24.5475869672156 -17.0536566037136 20.9640612038622
   endloop
endfacet
facet normal 0.854713698185499 0.502471087736489 0.130335337199767
   outer loop
      vertex -23.5191904478087 -16.4490802811557 23.168913008455
      vertex -27.0163355282243 -10.6330131108435 23.6803031562847
      vertex -23.577143402795 -16.4831499565694 23.6803031868443
   endloop
endfacet
facet normal 0.854713698185499 0.502471087736489 0.130335337199767
   outer loop
      vertex -27.0163355282243 -10.6330131108435 23.6803031562847
      vertex -23.5191904478087 -16.4490802811557 23.168913008455
      vertex -26.9583825732381 -10.5989434354298 23.1689129778954
   endloop
endfacet
facet normal 0.862067141896862 0.506794046734701 -0.000192499461361012
   outer loop
      vertex -26.9584202968769 -10.5989656124971 22.9415901851703
      vertex -23.5191904478087 -16.4490802811557 23.168913008455
      vertex -23.5192281714476 -16.449102458223 22.9415902157299
   endloop
endfacet
facet normal 0.862067141896862 0.506794046734701 -0.000192499461361012
   outer loop
      vertex -23.5191904478087 -16.4490802811557 23.168913008455
      vertex -26.9584202968769 -10.5989656124971 22.9415901851703
      vertex -26.9583825732381 -10.5989434354298 23.1689129778954
   endloop
endfacet
facet normal -0.796509692520447 -0.468253982132932 -0.382505578962759
   outer loop
      vertex -30.9015097656753 -12.9170385473314 22.0475845638188
      vertex -27.3913152004111 -18.7254342515607 21.8486343269027
      vertex -27.4642596909474 -18.768317093573 22.0530262614662
   endloop
endfacet
facet normal -0.796509692520447 -0.468253982132932 -0.382505578962759
   outer loop
      vertex -27.3913152004111 -18.7254342515607 21.8486343269027
      vertex -30.9015097656753 -12.9170385473314 22.0475845638188
      vertex -30.8305073258405 -12.8752974058348 21.8486342963431
   endloop
endfacet
facet normal -0.85712722368407 -0.503889956626553 -0.10690104784579
   outer loop
      vertex -31.0963234826684 -13.0315663454683 23.0561755789473
      vertex -27.5991973321519 -18.8476444885088 22.4311240347549
      vertex -27.6571313572389 -18.8817031911943 23.0561756095069
   endloop
endfacet
facet normal -0.85712722368407 -0.503889956626553 -0.10690104784579
   outer loop
      vertex -27.5991973321519 -18.8476444885088 22.4311240347549
      vertex -31.0963234826684 -13.0315663454683 23.0561755789473
      vertex -31.0383894575813 -12.9975076427829 22.4311240041954
   endloop
endfacet
facet normal 0.683822825553507 0.402007358159926 -0.608914137820182
   outer loop
      vertex -27.5555478883435 -10.950006542475 21.3477476083807
      vertex -23.7854262916248 -16.6055957915987 21.8478291324535
      vertex -24.1163557629141 -16.800143388201 21.3477476389403
   endloop
endfacet
facet normal 0.683822825553507 0.402007358159926 -0.608914137820182
   outer loop
      vertex -23.7854262916248 -16.6055957915987 21.8478291324535
      vertex -27.5555478883435 -10.950006542475 21.3477476083807
      vertex -27.2246184170543 -10.7554589458728 21.8478291018939
   endloop
endfacet
facet normal 0.112686866967544 0.0662466239733518 0.99141971678254
   outer loop
      vertex -25.5877696103844 -17.6651616244578 25.4706773730428
      vertex -28.908161542083 -11.7451842277955 25.4525075178996
      vertex -29.0269617358137 -11.8150247787319 25.4706773424832
   endloop
endfacet
facet normal 0.112686866967544 0.0662466239733518 0.99141971678254
   outer loop
      vertex -28.908161542083 -11.7451842277955 25.4525075178996
      vertex -25.5877696103844 -17.6651616244578 25.4706773730428
      vertex -25.4664137051222 -17.5938186129941 25.4521166665185
   endloop
endfacet
facet normal -0.330052126146847 -0.194031820347218 -0.923805849039013
   outer loop
      vertex -29.566574853022 -12.1322538084445 20.723158032336
      vertex -26.6294478993712 -18.2775459092115 20.9645260830942
      vertex -30.0686400248005 -12.4274090634854 20.9645260525347
   endloop
endfacet
facet normal -0.330052126146847 -0.194031820347218 -0.923805849039013
   outer loop
      vertex -26.6294478993712 -18.2775459092115 20.9645260830942
      vertex -29.566574853022 -12.1322538084445 20.723158032336
      vertex -26.1273827275926 -17.9823906541705 20.7231580628956
   endloop
endfacet
facet normal 0.112357815972515 0.0660531703470391 -0.991469969225993
   outer loop
      vertex -28.4889243360284 -11.4987220857243 20.7229173931383
      vertex -25.5885711245626 -17.6656328206205 20.6407498485564
      vertex -29.0277632499919 -11.8154959748943 20.6407498179969
   endloop
endfacet
facet normal 0.112357815972515 0.0660531703470391 -0.991469969225993
   outer loop
      vertex -25.5885711245626 -17.6656328206205 20.6407498485564
      vertex -28.4889243360284 -11.4987220857243 20.7229173931383
      vertex -25.0497322105991 -17.3488589314503 20.7229174236979
   endloop
endfacet
facet normal -0.524924878366466 -0.308594068817339 -0.793236139344843
   outer loop
      vertex -30.0686400248005 -12.4274090634854 20.9645260525347
      vertex -27.0605517281433 -18.5309842428793 21.3484050774551
      vertex -30.4997438535727 -12.6808473971532 21.3484050468955
   endloop
endfacet
facet normal -0.524924878366466 -0.308594068817339 -0.793236139344843
   outer loop
      vertex -27.0605517281433 -18.5309842428793 21.3484050774551
      vertex -30.0686400248005 -12.4274090634854 20.9645260525347
      vertex -26.6294478993712 -18.2775459092115 20.9645260830942
   endloop
endfacet
facet normal -0.112357815972591 -0.0660531703470787 0.991469969225982
   outer loop
      vertex -26.1266085243478 -17.9819355136278 25.3885097979014
      vertex -29.0269617358137 -11.8150247787319 25.4706773424832
      vertex -29.5658006497772 -12.1317986679018 25.3885097673418
   endloop
endfacet
facet normal -0.112357815972591 -0.0660531703470787 0.991469969225982
   outer loop
      vertex -29.0269617358137 -11.8150247787319 25.4706773424832
      vertex -26.1266085243478 -17.9819355136278 25.3885097979014
      vertex -25.5877696103844 -17.6651616244578 25.4706773730428
   endloop
endfacet
facet normal -0.112686866967062 -0.0662466239730624 -0.991419716782614
   outer loop
      vertex -29.0277632499919 -11.8154959748943 20.6407498179969
      vertex -26.1273827275926 -17.9823906541705 20.7231580628956
      vertex -29.566574853022 -12.1322538084445 20.723158032336
   endloop
endfacet
facet normal -0.112686866967062 -0.0662466239730624 -0.991419716782614
   outer loop
      vertex -26.1273827275926 -17.9823906541705 20.7231580628956
      vertex -29.0277632499919 -11.8154959748943 20.6407498179969
      vertex -25.5885711245626 -17.6656328206205 20.6407498485564
   endloop
endfacet
facet normal -0.85709168073457 -0.503869060435464 0.10728383266584
   outer loop
      vertex -27.5989898850176 -18.847522533968 23.6812012645569
      vertex -31.0963234826684 -13.0315663454683 23.0561755789473
      vertex -27.6571313572389 -18.8817031911943 23.0561756095069
   endloop
endfacet
facet normal -0.85709168073457 -0.503869060435464 0.10728383266584
   outer loop
      vertex -31.0963234826684 -13.0315663454683 23.0561755789473
      vertex -27.5989898850176 -18.847522533968 23.6812012645569
      vertex -31.0381820104471 -12.9973856882418 23.6812012339973
   endloop
endfacet
facet normal -0.524661572038753 -0.308439267389313 0.793470511839078
   outer loop
      vertex -27.0599849720327 -18.5306510568774 24.7636795826589
      vertex -30.0679458931608 -12.4270009956385 25.1473659871775
      vertex -30.4991770974621 -12.6805142111512 24.7636795520993
   endloop
endfacet
facet normal -0.524661572038753 -0.308439267389313 0.793470511839078
   outer loop
      vertex -30.0679458931608 -12.4270009956385 25.1473659871775
      vertex -27.0599849720327 -18.5306510568774 24.7636795826589
      vertex -26.6287537677314 -18.2771378413644 25.147366017737
   endloop
endfacet
facet normal 0.524661572038753 0.308439267389309 -0.79347051183908
   outer loop
      vertex -27.5555478883435 -10.950006542475 21.3477476083807
      vertex -24.5475869672156 -17.0536566037136 20.9640612038622
      vertex -27.9867790926448 -11.2035197579878 20.9640611733026
   endloop
endfacet
facet normal 0.524661572038753 0.308439267389309 -0.79347051183908
   outer loop
      vertex -24.5475869672156 -17.0536566037136 20.9640612038622
      vertex -27.5555478883435 -10.950006542475 21.3477476083807
      vertex -24.1163557629141 -16.800143388201 21.3477476389403
   endloop
endfacet
facet normal -0.329745499433629 -0.193851550266016 0.923953181748258
   outer loop
      vertex -26.6287537677314 -18.2771378413644 25.147366017737
      vertex -29.5658006497772 -12.1317986679018 25.3885097673418
      vertex -30.0679458931608 -12.4270009956385 25.1473659871775
   endloop
endfacet
facet normal -0.329745499433629 -0.193851550266016 0.923953181748258
   outer loop
      vertex -29.5658006497772 -12.1317986679018 25.3885097673418
      vertex -26.6287537677314 -18.2771378413644 25.147366017737
      vertex -26.1266085243478 -17.9819355136278 25.3885097979014
   endloop
endfacet
facet normal 0.796509692520603 0.468253982133012 0.382505578962335
   outer loop
      vertex -23.577143402795 -16.4831499565694 23.6803031868443
      vertex -27.2242176599651 -10.7552233477913 24.2627928641369
      vertex -23.7850255345358 -16.6053601935173 24.2627928946965
   endloop
endfacet
facet normal 0.796509692520603 0.468253982133012 0.382505578962335
   outer loop
      vertex -27.2242176599651 -10.7552233477913 24.2627928641369
      vertex -23.577143402795 -16.4831499565694 23.6803031868443
      vertex -27.0163355282243 -10.6330131108435 23.6803031562847
   endloop
endfacet
facet normal -0.796382683577442 -0.468179311820518 0.382861271587056
   outer loop
      vertex -27.390914443322 -18.7251986534795 24.2635980891458
      vertex -31.0381820104471 -12.9973856882418 23.6812012339973
      vertex -27.5989898850176 -18.847522533968 23.6812012645569
   endloop
endfacet
facet normal -0.796382683577442 -0.468179311820518 0.382861271587056
   outer loop
      vertex -31.0381820104471 -12.9973856882418 23.6812012339973
      vertex -27.390914443322 -18.7251986534795 24.2635980891458
      vertex -30.8301065687515 -12.8750618077537 24.2635980585862
   endloop
endfacet
facet normal -0.684024867605013 -0.402126141473523 -0.60860869763877
   outer loop
      vertex -30.8305073258405 -12.8752974058348 21.8486342963431
      vertex -27.0605517281433 -18.5309842428793 21.3484050774551
      vertex -27.3913152004111 -18.7254342515607 21.8486343269027
   endloop
endfacet
facet normal -0.684024867605013 -0.402126141473523 -0.60860869763877
   outer loop
      vertex -27.0605517281433 -18.5309842428793 21.3484050774551
      vertex -30.8305073258405 -12.8752974058348 21.8486342963431
      vertex -30.4997438535727 -12.6808473971532 21.3484050468955
   endloop
endfacet
facet normal 0.506794203990082 -0.862067070941728 -8.78607138651539e-008
   outer loop
      vertex -25.0497322105991 -17.3488589314503 20.7229174236979
      vertex -26.1273827275926 -17.9823906541705 20.7231580628956
      vertex -25.5885711245626 -17.6656328206205 20.6407498485564
   endloop
endfacet
facet normal 0.506794203990082 -0.862067070941728 -8.78607138651539e-008
   outer loop
      vertex -26.1273827275926 -17.9823906541705 20.7231580628956
      vertex -25.0497322105991 -17.3488589314503 20.7229174236979
      vertex -24.5475869672156 -17.0536566037136 20.9640612038622
   endloop
endfacet
facet normal 0.506794203990082 -0.862067070941728 -8.78607138651539e-008
   outer loop
      vertex -26.1273827275926 -17.9823906541705 20.7231580628956
      vertex -24.5475869672156 -17.0536566037136 20.9640612038622
      vertex -26.6294478993712 -18.2775459092115 20.9645260830942
   endloop
endfacet
facet normal 0.506794203990082 -0.862067070941728 -8.78607138651539e-008
   outer loop
      vertex -26.6294478993712 -18.2775459092115 20.9645260830942
      vertex -24.5475869672156 -17.0536566037136 20.9640612038622
      vertex -24.1163557629141 -16.800143388201 21.3477476389403
   endloop
endfacet
facet normal 0.506794203990082 -0.862067070941728 -8.78607138651539e-008
   outer loop
      vertex -26.6294478993712 -18.2775459092115 20.9645260830942
      vertex -24.1163557629141 -16.800143388201 21.3477476389403
      vertex -27.0605517281433 -18.5309842428793 21.3484050774551
   endloop
endfacet
facet normal 0.506794203990082 -0.862067070941728 -8.78607138651539e-008
   outer loop
      vertex -27.0605517281433 -18.5309842428793 21.3484050774551
      vertex -24.1163557629141 -16.800143388201 21.3477476389403
      vertex -23.7854262916248 -16.6055957915987 21.8478291324535
   endloop
endfacet
facet normal 0.506794203990082 -0.862067070941728 -8.78607138651539e-008
   outer loop
      vertex -27.0605517281433 -18.5309842428793 21.3484050774551
      vertex -23.7854262916248 -16.6055957915987 21.8478291324535
      vertex -27.3913152004111 -18.7254342515607 21.8486343269027
   endloop
endfacet
facet normal 0.506794203990082 -0.862067070941728 -8.78607138651539e-008
   outer loop
      vertex -27.3913152004111 -18.7254342515607 21.8486343269027
      vertex -23.7854262916248 -16.6055957915987 21.8478291324535
      vertex -23.7205448513861 -16.5674505776695 22.048219891553
   endloop
endfacet
facet normal 0.506794203990082 -0.862067070941728 -8.78607138651539e-008
   outer loop
      vertex -27.3913152004111 -18.7254342515607 21.8486343269027
      vertex -23.7205448513861 -16.5674505776695 22.048219891553
      vertex -27.4642596909474 -18.768317093573 22.0530262614662
   endloop
endfacet
facet normal 0.506794203990082 -0.862067070941728 -8.78607138651539e-008
   outer loop
      vertex -23.5773508499292 -16.4832719111104 22.4302259570424
      vertex -25.4664137051222 -17.5938186129941 25.4521166665185
      vertex -23.7205448513861 -16.5674505776695 22.048219891553
   endloop
endfacet
facet normal 0.506794203990082 -0.862067070941728 -8.78607138651539e-008
   outer loop
      vertex -25.4664137051222 -17.5938186129941 25.4521166665185
      vertex -23.5773508499292 -16.4832719111104 22.4302259570424
      vertex -23.5192281714476 -16.449102458223 22.9415902157299
   endloop
endfacet
facet normal 0.506794203990082 -0.862067070941728 -8.78607138651539e-008
   outer loop
      vertex -25.4664137051222 -17.5938186129941 25.4521166665185
      vertex -23.5192281714476 -16.449102458223 22.9415902157299
      vertex -23.5191904478087 -16.4490802811557 23.168913008455
   endloop
endfacet
facet normal 0.506794203990082 -0.862067070941728 -8.78607138651539e-008
   outer loop
      vertex -25.4664137051222 -17.5938186129941 25.4521166665185
      vertex -23.5191904478087 -16.4490802811557 23.168913008455
      vertex -23.577143402795 -16.4831499565694 23.6803031868443
   endloop
endfacet
facet normal 0.506794203990082 -0.862067070941728 -8.78607138651539e-008
   outer loop
      vertex -25.4664137051222 -17.5938186129941 25.4521166665185
      vertex -23.577143402795 -16.4831499565694 23.6803031868443
      vertex -23.7850255345358 -16.6053601935173 24.2627928946965
   endloop
endfacet
facet normal 0.506794203990082 -0.862067070941728 -8.78607138651539e-008
   outer loop
      vertex -25.4664137051222 -17.5938186129941 25.4521166665185
      vertex -23.7850255345358 -16.6053601935173 24.2627928946965
      vertex -24.1157890068036 -16.7998102021991 24.7630221441441
   endloop
endfacet
facet normal 0.506794203990082 -0.862067070941728 -8.78607138651539e-008
   outer loop
      vertex -25.4664137051222 -17.5938186129941 25.4521166665185
      vertex -24.1157890068036 -16.7998102021991 24.7630221441441
      vertex -24.5468928355758 -17.0532485358667 25.1469011385051
   endloop
endfacet
facet normal 0.506794203990082 -0.862067070941728 -8.78607138651539e-008
   outer loop
      vertex -25.4664137051222 -17.5938186129941 25.4521166665185
      vertex -24.5468928355758 -17.0532485358667 25.1469011385051
      vertex -25.0489580073543 -17.3484037909077 25.3882691587036
   endloop
endfacet
facet normal 0.7910716849283 0.464961259386313 -0.397513039502598
   outer loop
      vertex -27.1605666783338 -10.7178018693876 22.0431778554014
      vertex -23.5773508499292 -16.4832719111104 22.4302259570424
      vertex -23.7205448513861 -16.5674505776695 22.048219891553
   endloop
endfacet
facet normal 0.7910716849283 0.464961259386313 -0.397513039502598
   outer loop
      vertex -23.5773508499292 -16.4832719111104 22.4302259570424
      vertex -27.1605666783338 -10.7178018693876 22.0431778554014
      vertex -27.0165429753585 -10.6331350653843 22.4302259264828
   endloop
endfacet
facet normal 0.501085501454714 -0.86539735152139 0.000862677019732198
   outer loop
      vertex -32.9068022226622 -14.0798758859014 23.0565783222904
      vertex -33.0202738496466 -14.1465833816992 22.0486656715315
      vertex -31.0963234826684 -13.0315663454683 23.0561755789473
   endloop
endfacet
facet normal 0.451987674205815 0.265717305327402 -0.851528893235903
   outer loop
      vertex -30.0355692847571 -12.3919282353963 27.6382503154228
      vertex -27.5327382527014 -18.8085746472339 26.9644443808356
      vertex -30.9789380215083 -12.9465180837509 26.9644443788833
   endloop
endfacet
facet normal 0.451987674205815 0.265717305327402 -0.851528893235903
   outer loop
      vertex -27.5327382527014 -18.8085746472339 26.9644443808356
      vertex -30.0355692847571 -12.3919282353963 27.6382503154228
      vertex -26.5884215277329 -18.2534271544336 27.6389038955454
   endloop
endfacet
facet normal 0.503871657848282 -0.863755742189204 -0.00627457188984125
   outer loop
      vertex -31.0963234826684 -13.0315663454683 23.0561755789473
      vertex -33.0202738496466 -14.1465833816992 22.0486656715315
      vertex -32.5968680778577 -13.8995885631265 22.0485023680471
   endloop
endfacet
facet normal 0.524661560495927 0.308439287023804 -0.793470511839114
   outer loop
      vertex -27.5327382527014 -18.8085746472339 26.9644443808356
      vertex -31.784792120422 -13.4202655011954 26.2474385465993
      vertex -30.9789380215083 -12.9465180837509 26.9644443788833
   endloop
endfacet
facet normal 0.50435084631759 -0.863254520117376 -0.0205391654078357
   outer loop
      vertex -28.9315424392537 -11.7583717298657 25.497644839397
      vertex -29.0269617358137 -11.8150247787319 25.4706773424832
      vertex -28.908161542083 -11.7451842277955 25.4525075178996
   endloop
endfacet
facet normal -0.506794197545633 0.862067074730201 -4.38867909294252e-007
   outer loop
      vertex -29.566574853022 -12.1322538084445 20.723158032336
      vertex -28.4889243360284 -11.4987220857243 20.7229173931383
      vertex -29.0277632499919 -11.8154959748943 20.6407498179969
   endloop
endfacet
facet normal -0.506794197545633 0.862067074730201 -4.38867909294252e-007
   outer loop
      vertex -28.4889243360284 -11.4987220857243 20.7229173931383
      vertex -29.566574853022 -12.1322538084445 20.723158032336
      vertex -27.9867790926448 -11.2035197579878 20.9640611733026
   endloop
endfacet
facet normal -0.506794197545633 0.862067074730201 -4.38867909294252e-007
   outer loop
      vertex -27.9867790926448 -11.2035197579878 20.9640611733026
      vertex -29.566574853022 -12.1322538084445 20.723158032336
      vertex -30.0686400248005 -12.4274090634854 20.9645260525347
   endloop
endfacet
facet normal -0.506794197545633 0.862067074730201 -4.38867909294252e-007
   outer loop
      vertex -27.9867790926448 -11.2035197579878 20.9640611733026
      vertex -30.0686400248005 -12.4274090634854 20.9645260525347
      vertex -27.5555478883435 -10.950006542475 21.3477476083807
   endloop
endfacet
facet normal -0.506794197545633 0.862067074730201 -4.38867909294252e-007
   outer loop
      vertex -27.5555478883435 -10.950006542475 21.3477476083807
      vertex -30.0686400248005 -12.4274090634854 20.9645260525347
      vertex -30.4997438535727 -12.6808473971532 21.3484050468955
   endloop
endfacet
facet normal -0.506794197545633 0.862067074730201 -4.38867909294252e-007
   outer loop
      vertex -27.5555478883435 -10.950006542475 21.3477476083807
      vertex -30.4997438535727 -12.6808473971532 21.3484050468955
      vertex -27.2246184170543 -10.7554589458728 21.8478291018939
   endloop
endfacet
facet normal -0.506794197545633 0.862067074730201 -4.38867909294252e-007
   outer loop
      vertex -27.2246184170543 -10.7554589458728 21.8478291018939
      vertex -30.4997438535727 -12.6808473971532 21.3484050468955
      vertex -30.8305073258405 -12.8752974058348 21.8486342963431
   endloop
endfacet
facet normal -0.506794197545633 0.862067074730201 -4.38867909294252e-007
   outer loop
      vertex -27.2246184170543 -10.7554589458728 21.8478291018939
      vertex -30.8305073258405 -12.8752974058348 21.8486342963431
      vertex -27.1605666783338 -10.7178018693876 22.0431778554014
   endloop
endfacet
facet normal -0.506794197545633 0.862067074730201 -4.38867909294252e-007
   outer loop
      vertex -27.1605666783338 -10.7178018693876 22.0431778554014
      vertex -30.8305073258405 -12.8752974058348 21.8486342963431
      vertex -30.9015097656753 -12.9170385473314 22.0475845638188
   endloop
endfacet
facet normal 0.691254833700408 0.389193632004193 -0.608847330365508
   outer loop
      vertex -31.784792120422 -13.4202655011954 26.2474385465993
      vertex -29.040984687892 -19.6952461488231 25.3514629360973
      vertex -32.4032094986443 -13.7838221757143 25.3129219343735
   endloop
endfacet
facet normal 0.500136941721954 0.285903735462321 -0.817387358339791
   outer loop
      vertex -27.5327382527014 -18.8085746472339 26.9644443808356
      vertex -28.3783927582641 -19.3057200279507 26.2731212599005
      vertex -31.784792120422 -13.4202655011954 26.2474385465993
   endloop
endfacet
facet normal 0.7901019166412 0.446647060845483 -0.419815869588077
   outer loop
      vertex -32.4032094986443 -13.7838221757143 25.3129219343735
      vertex -29.040984687892 -19.6952461488231 25.3514629360973
      vertex -29.4845811980913 -19.9560287241863 24.239155713915
   endloop
endfacet
facet normal 0.868384081850426 0.484154115724551 -0.107256135562355
   outer loop
      vertex -32.8003009657495 -14.0172652495537 24.201475001926
      vertex -29.4845811980913 -19.9560287241863 24.239155713915
      vertex -32.9068022226622 -14.0798758859014 23.0565783222904
   endloop
endfacet
facet normal 0.867312331722657 0.475472534923551 -0.14729286396557
   outer loop
      vertex -32.9068022226622 -14.0798758859014 23.0565783222904
      vertex -29.4845811980913 -19.9560287241863 24.239155713915
      vertex -29.633593553856 -20.0436308998463 23.0789319416381
   endloop
endfacet
facet normal -0.506794155567709 0.8620670994084 1.39777438267585e-008
   outer loop
      vertex -29.5745794084966 -20.008937021113 22.0541176655931
      vertex -27.5991973321519 -18.8476444885088 22.4311240347549
      vertex -27.4642596909474 -18.768317093573 22.0530262614662
   endloop
endfacet
facet normal -0.506794155567709 0.8620670994084 1.39777438267585e-008
   outer loop
      vertex -27.5991973321519 -18.8476444885088 22.4311240347549
      vertex -29.5745794084966 -20.008937021113 22.0541176655931
      vertex -29.633593553856 -20.0436308998463 23.0789319416381
   endloop
endfacet
facet normal -0.506794155567709 0.8620670994084 1.39777438267585e-008
   outer loop
      vertex -27.5991973321519 -18.8476444885088 22.4311240347549
      vertex -29.633593553856 -20.0436308998463 23.0789319416381
      vertex -27.6571313572389 -18.8817031911943 23.0561756095069
   endloop
endfacet
facet normal -0.506794155567709 0.8620670994084 1.39777438267585e-008
   outer loop
      vertex -27.6571313572389 -18.8817031911943 23.0561756095069
      vertex -29.633593553856 -20.0436308998463 23.0789319416381
      vertex -27.5989898850176 -18.847522533968 23.6812012645569
   endloop
endfacet
facet normal -0.506794155567709 0.8620670994084 1.39777438267585e-008
   outer loop
      vertex -27.5989898850176 -18.847522533968 23.6812012645569
      vertex -29.633593553856 -20.0436308998463 23.0789319416381
      vertex -29.4845811980913 -19.9560287241863 24.239155713915
   endloop
endfacet
facet normal -0.506794155567709 0.8620670994084 1.39777438267585e-008
   outer loop
      vertex -27.5989898850176 -18.847522533968 23.6812012645569
      vertex -29.4845811980913 -19.9560287241863 24.239155713915
      vertex -27.390914443322 -18.7251986534795 24.2635980891458
   endloop
endfacet
facet normal -0.506794155567709 0.8620670994084 1.39777438267585e-008
   outer loop
      vertex -27.390914443322 -18.7251986534795 24.2635980891458
      vertex -29.4845811980913 -19.9560287241863 24.239155713915
      vertex -29.040984687892 -19.6952461488231 25.3514629360973
   endloop
endfacet
facet normal -0.506794155567709 0.8620670994084 1.39777438267585e-008
   outer loop
      vertex -27.390914443322 -18.7251986534795 24.2635980891458
      vertex -29.040984687892 -19.6952461488231 25.3514629360973
      vertex -27.0599849720327 -18.5306510568774 24.7636795826589
   endloop
endfacet
facet normal -0.506794155567709 0.8620670994084 1.39777438267585e-008
   outer loop
      vertex -27.0599849720327 -18.5306510568774 24.7636795826589
      vertex -29.040984687892 -19.6952461488231 25.3514629360973
      vertex -26.6287537677314 -18.2771378413644 25.147366017737
   endloop
endfacet
facet normal -0.506794155567709 0.8620670994084 1.39777438267585e-008
   outer loop
      vertex -26.6287537677314 -18.2771378413644 25.147366017737
      vertex -29.040984687892 -19.6952461488231 25.3514629360973
      vertex -26.1266085243478 -17.9819355136278 25.3885097979014
   endloop
endfacet
facet normal -0.506794155567709 0.8620670994084 1.39777438267585e-008
   outer loop
      vertex -26.1266085243478 -17.9819355136278 25.3885097979014
      vertex -29.040984687892 -19.6952461488231 25.3514629360973
      vertex -28.3783927582641 -19.3057200279507 26.2731212599005
   endloop
endfacet
facet normal -0.506794155567709 0.8620670994084 1.39777438267585e-008
   outer loop
      vertex -26.1266085243478 -17.9819355136278 25.3885097979014
      vertex -28.3783927582641 -19.3057200279507 26.2731212599005
      vertex -25.5877696103844 -17.6651616244578 25.4706773730428
   endloop
endfacet
facet normal -0.506794155567709 0.8620670994084 1.39777438267585e-008
   outer loop
      vertex -25.5877696103844 -17.6651616244578 25.4706773730428
      vertex -26.5884215277329 -18.2534271544336 27.6389038955454
      vertex -25.4664137051222 -17.5938186129941 25.4521166665185
   endloop
endfacet
facet normal -0.506794155567709 0.8620670994084 1.39777438267585e-008
   outer loop
      vertex -26.5884215277329 -18.2534271544336 27.6389038955454
      vertex -25.5877696103844 -17.6651616244578 25.4706773730428
      vertex -28.3783927582641 -19.3057200279507 26.2731212599005
   endloop
endfacet
facet normal -0.506794155567709 0.8620670994084 1.39777438267585e-008
   outer loop
      vertex -26.5884215277329 -18.2534271544336 27.6389038955454
      vertex -28.3783927582641 -19.3057200279507 26.2731212599005
      vertex -27.5327382527014 -18.8085746472339 26.9644443808356
   endloop
endfacet
facet normal 0.854904611774572 0.502363768551088 -0.12949420378425
   outer loop
      vertex -32.9068022226622 -14.0798758859014 23.0565783222904
      vertex -29.5745794084966 -20.008937021113 22.0541176655931
      vertex -33.0202738496466 -14.1465833816992 22.0486656715315
   endloop
endfacet
facet normal 0.807671004208635 0.448508843755932 -0.382762806491608
   outer loop
      vertex -32.4032094986443 -13.7838221757143 25.3129219343735
      vertex -29.4845811980913 -19.9560287241863 24.239155713915
      vertex -32.8003009657495 -14.0172652495537 24.201475001926
   endloop
endfacet
facet normal 0.874588151924453 0.480267677322675 0.0666222382726098
   outer loop
      vertex -32.9068022226622 -14.0798758859014 23.0565783222904
      vertex -29.633593553856 -20.0436308998463 23.0789319416381
      vertex -29.5745794084966 -20.008937021113 22.0541176655931
   endloop
endfacet
facet normal 0.66590962907085 0.382622253702263 -0.64044092380369
   outer loop
      vertex -31.784792120422 -13.4202655011954 26.2474385465993
      vertex -28.3783927582641 -19.3057200279507 26.2731212599005
      vertex -29.040984687892 -19.6952461488231 25.3514629360973
   endloop
endfacet
facet normal 0.500577629884013 -0.865641176988214 0.00934821705802279
   outer loop
      vertex -30.0679458931608 -12.4270009956385 25.1473659871775
      vertex -32.8003009657495 -14.0172652495537 24.201475001926
      vertex -30.4991770974621 -12.6805142111512 24.7636795520993
   endloop
endfacet
facet normal 0.502007892821436 -0.86399193948343 0.0388072680389111
   outer loop
      vertex -29.0269617358137 -11.8150247787319 25.4706773424832
      vertex -32.4032094986443 -13.7838221757143 25.3129219343735
      vertex -29.5658006497772 -12.1317986679018 25.3885097673418
   endloop
endfacet
facet normal 0.506794075718493 -0.862067146350352 1.42819603976889e-009
   outer loop
      vertex -30.0355692847571 -12.3919282353963 27.6382503154228
      vertex -30.9789380215083 -12.9465180837509 26.9644443788833
      vertex -29.7836143448502 -12.2438083694074 27.1467193521705
   endloop
endfacet
facet normal 0.502915712153718 -0.864268348233619 0.0107707339792207
   outer loop
      vertex -29.5658006497772 -12.1317986679018 25.3885097673418
      vertex -32.4032094986443 -13.7838221757143 25.3129219343735
      vertex -30.0679458931608 -12.4270009956385 25.1473659871775
   endloop
endfacet
facet normal 0.501488128627119 -0.86516078986485 -0.00254254331323752
   outer loop
      vertex -31.0383894575813 -12.9975076427829 22.4311240041954
      vertex -32.3368531967252 -13.7490337967638 22.0483617337661
      vertex -30.9015097656753 -12.9170385473314 22.0475845638188
   endloop
endfacet
facet normal 0.502482683834259 -0.864584796928388 0.00206914644676028
   outer loop
      vertex -32.4032094986443 -13.7838221757143 25.3129219343735
      vertex -32.8003009657495 -14.0172652495537 24.201475001926
      vertex -30.0679458931608 -12.4270009956385 25.1473659871775
   endloop
endfacet
facet normal 0.506794075718376 -0.86206714635042 1.42922506058984e-009
   outer loop
      vertex -29.7836143448502 -12.2438083694074 27.1467193521705
      vertex -30.9789380215083 -12.9465180837509 26.9644443788833
      vertex -29.6900340842983 -12.1887941845011 26.9641565668268
   endloop
endfacet
facet normal 0.740863598193124 0.435951848804745 0.510947271639708
   outer loop
      vertex -23.7205448513861 -16.5674505776695 22.048219891553
      vertex -26.5884215277329 -18.2534271544336 27.6389038955454
      vertex -22.246432952963 -19.0880556108651 22.0533146960269
   endloop
endfacet
facet normal 0.740863598193124 0.435951848804745 0.510947271639708
   outer loop
      vertex -26.5884215277329 -18.2534271544336 27.6389038955454
      vertex -23.7205448513861 -16.5674505776695 22.048219891553
      vertex -25.4664137051222 -17.5938186129941 25.4521166665185
   endloop
endfacet
facet normal 0.740863598193124 0.435951848804745 0.510947271639708
   outer loop
      vertex -26.5884215277329 -18.2534271544336 27.6389038955454
      vertex -29.4482098189292 -17.8949873849587 31.4816428385335
      vertex -22.246432952963 -19.0880556108651 22.0533146960269
   endloop
endfacet
facet normal 0.740863598193124 0.435951848804745 0.510947271639708
   outer loop
      vertex -29.4482098189292 -17.8949873849587 31.4816428385335
      vertex -26.5884215277329 -18.2534271544336 27.6389038955454
      vertex -30.0355692847571 -12.3919282353963 27.6382503154228
   endloop
endfacet
facet normal 0.740863598193124 0.435951848804745 0.510947271639708
   outer loop
      vertex -29.4482098189292 -17.8949873849587 31.4816428385335
      vertex -30.0355692847571 -12.3919282353963 27.6382503154228
      vertex -35.0269424265567 -8.40545078783974 31.4728175630726
   endloop
endfacet
facet normal 0.740863598193124 0.435951848804745 0.510947271639708
   outer loop
      vertex -35.0269424265567 -8.40545078783974 31.4728175630726
      vertex -30.0355692847571 -12.3919282353963 27.6382503154228
      vertex -29.7836143448502 -12.2438083694074 27.1467193521705
   endloop
endfacet
facet normal 0.740863598193124 0.435951848804745 0.510947271639708
   outer loop
      vertex -35.0269424265567 -8.40545078783974 31.4728175630726
      vertex -29.7836143448502 -12.2438083694074 27.1467193521705
      vertex -29.6900340842983 -12.1887941845011 26.9641565668268
   endloop
endfacet
facet normal 0.740863598193124 0.435951848804745 0.510947271639708
   outer loop
      vertex -35.0269424265567 -8.40545078783974 31.4728175630726
      vertex -29.6900340842983 -12.1887941845011 26.9641565668268
      vertex -29.5011512876416 -12.0777533192625 26.5956710629635
   endloop
endfacet
facet normal 0.740863598193124 0.435951848804745 0.510947271639708
   outer loop
      vertex -35.0269424265567 -8.40545078783974 31.4728175630726
      vertex -29.5011512876416 -12.0777533192625 26.5956710629635
      vertex -29.3223681611029 -11.9726498719807 26.2468886876974
   endloop
endfacet
facet normal 0.740863598193124 0.435951848804745 0.510947271639708
   outer loop
      vertex -35.0269424265567 -8.40545078783974 31.4728175630726
      vertex -29.3223681611029 -11.9726498719807 26.2468886876974
      vertex -29.1016882012677 -11.8429160152473 25.8163710988446
   endloop
endfacet
facet normal 0.740863598193124 0.435951848804745 0.510947271639708
   outer loop
      vertex -35.0269424265567 -8.40545078783974 31.4728175630726
      vertex -29.1016882012677 -11.8429160152473 25.8163710988446
      vertex -28.9315424392537 -11.7583717298657 25.497644839397
   endloop
endfacet
facet normal 0.740863598193124 0.435951848804745 0.510947271639708
   outer loop
      vertex -35.0269424265567 -8.40545078783974 31.4728175630726
      vertex -28.9315424392537 -11.7583717298657 25.497644839397
      vertex -28.908161542083 -11.7451842277955 25.4525075178996
   endloop
endfacet
facet normal 0.740863598193124 0.435951848804745 0.510947271639708
   outer loop
      vertex -35.0269424265567 -8.40545078783974 31.4728175630726
      vertex -28.908161542083 -11.7451842277955 25.4525075178996
      vertex -27.1605666783338 -10.7178018693876 22.0431778554014
   endloop
endfacet
facet normal 0.740863598193124 0.435951848804745 0.510947271639708
   outer loop
      vertex -35.0269424265567 -8.40545078783974 31.4728175630726
      vertex -27.1605666783338 -10.7178018693876 22.0431778554014
      vertex -28.1614023178888 -9.02657351320091 22.0439575108638
   endloop
endfacet
facet normal -2.44689200328985e-005 -0.000956124655521325 -0.999999542613353
   outer loop
      vertex -28.1614023178888 -9.02657351320091 22.0439575108638
      vertex -33.0202738496466 -14.1465833816992 22.0486656715315
      vertex -50.4642231138786 -4.92619438197672 22.0401794424549
   endloop
endfacet
facet normal -2.44689200328985e-005 -0.000956124655521325 -0.999999542613353
   outer loop
      vertex -33.0202738496466 -14.1465833816992 22.0486656715315
      vertex -28.1614023178888 -9.02657351320091 22.0439575108638
      vertex -32.5968680778577 -13.8995885631265 22.0485023680471
   endloop
endfacet
facet normal -2.44689200328985e-005 -0.000956124655521325 -0.999999542613353
   outer loop
      vertex -32.5968680778577 -13.8995885631265 22.0485023680471
      vertex -28.1614023178888 -9.02657351320091 22.0439575108638
      vertex -32.3368531967252 -13.7490337967638 22.0483617337661
   endloop
endfacet
facet normal -2.44689200328985e-005 -0.000956124655521325 -0.999999542613353
   outer loop
      vertex -32.3368531967252 -13.7490337967638 22.0483617337661
      vertex -28.1614023178888 -9.02657351320091 22.0439575108638
      vertex -30.9015097656753 -12.9170385473314 22.0475845638188
   endloop
endfacet
facet normal -2.44689200328985e-005 -0.000956124655521325 -0.999999542613353
   outer loop
      vertex -30.9015097656753 -12.9170385473314 22.0475845638188
      vertex -28.1614023178888 -9.02657351320091 22.0439575108638
      vertex -27.1605666783338 -10.7178018693876 22.0431778554014
   endloop
endfacet
facet normal -2.44689200328985e-005 -0.000956124655521325 -0.999999542613353
   outer loop
      vertex -50.4642231138786 -4.92619438197672 22.0401794424549
      vertex -60.4650443377811 -24.207526011195 22.0581489418665
      vertex -63.562286082013 -11.6412450365192 22.0464546815583
   endloop
endfacet
facet normal -2.44689200328985e-005 -0.000956124655521325 -0.999999542613353
   outer loop
      vertex -60.4650443377811 -24.207526011195 22.0581489418665
      vertex -50.4642231138786 -4.92619438197672 22.0401794424549
      vertex -25.5772392015402 -24.2739971852858 22.0581489418665
   endloop
endfacet
facet normal -2.44689200328985e-005 -0.000956124655521325 -0.999999542613353
   outer loop
      vertex -25.5772392015402 -24.2739971852858 22.0581489418665
      vertex -50.4642231138786 -4.92619438197672 22.0401794424549
      vertex -29.5745794084966 -20.008937021113 22.0541176655931
   endloop
endfacet
facet normal -2.44689200328985e-005 -0.000956124655521325 -0.999999542613353
   outer loop
      vertex -29.5745794084966 -20.008937021113 22.0541176655931
      vertex -50.4642231138786 -4.92619438197672 22.0401794424549
      vertex -33.0202738496466 -14.1465833816992 22.0486656715315
   endloop
endfacet
facet normal -2.44689200328985e-005 -0.000956124655521325 -0.999999542613353
   outer loop
      vertex -25.5772392015402 -24.2739971852858 22.0581489418665
      vertex -29.5745794084966 -20.008937021113 22.0541176655931
      vertex -27.4642596909474 -18.768317093573 22.0530262614662
   endloop
endfacet
facet normal -2.44689200328985e-005 -0.000956124655521325 -0.999999542613353
   outer loop
      vertex -25.5772392015402 -24.2739971852858 22.0581489418665
      vertex -27.4642596909474 -18.768317093573 22.0530262614662
      vertex -23.7205448513861 -16.5674505776695 22.048219891553
   endloop
endfacet
facet normal -2.44689200328985e-005 -0.000956124655521325 -0.999999542613353
   outer loop
      vertex -25.5772392015402 -24.2739971852858 22.0581489418665
      vertex -23.7205448513861 -16.5674505776695 22.048219891553
      vertex -22.246432952963 -19.0880556108651 22.0533146960269
   endloop
endfacet
endsolid 黑熊2015-3列印d
