solid 黑熊2015-3列印d
facet normal 0.482819515327476 -0.875711011219467 0.00394213748098814
   outer loop
      vertex 24.7812925585025 -78.8887874069136 46.991491578378
      vertex 22.0481096322491 -80.3825730749483 49.911100016902
      vertex 23.9271680230452 -79.3628989374563 46.282055741329
   endloop
endfacet
facet normal 0.482819515327476 -0.875711011219467 0.00394213748098814
   outer loop
      vertex 22.0481096322491 -80.3825730749483 49.911100016902
      vertex 24.7812925585025 -78.8887874069136 46.991491578378
      vertex 22.0715735831909 -80.3670597805589 50.483456842689
   endloop
endfacet
facet normal 0.683373712624431 -0.606885555873465 0.40582051570375
   outer loop
      vertex 25.6985248756483 -77.6593172754593 48.8294777239472
      vertex 22.0839257642079 -80.0632355233843 51.3212658744656
      vertex 22.0857361107316 -80.2043479025909 51.1071904284025
   endloop
endfacet
facet normal 0.683373712624431 -0.606885555873465 0.40582051570375
   outer loop
      vertex 22.0839257642079 -80.0632355233843 51.3212658744656
      vertex 25.6985248756483 -77.6593172754593 48.8294777239472
      vertex 25.6991247907208 -76.9877450322103 49.8327723140616
   endloop
endfacet
facet normal -0.342203610369579 -0.276508662008938 0.89801984882521
   outer loop
      vertex 20.1172698067728 -78.9070326088875 51.95465656617
      vertex 19.3458819644944 -74.9411274014994 52.8818470275117
      vertex 18.3000169043201 -75.2759805654929 52.3802004319651
   endloop
endfacet
facet normal -0.342203610369579 -0.276508662008938 0.89801984882521
   outer loop
      vertex 19.3458819644944 -74.9411274014994 52.8818470275117
      vertex 20.1172698067728 -78.9070326088875 51.95465656617
      vertex 20.1779654491689 -77.7470609685443 52.3349515837553
   endloop
endfacet
facet normal -0.661239265991756 -0.704148205584019 0.258723670512558
   outer loop
      vertex 20.086330607325 -80.270007805899 50.7960344791293
      vertex 16.5280601366443 -77.6511344707392 48.829483859232
      vertex 16.839956671709 -78.3001022670221 47.8603754942097
   endloop
endfacet
facet normal -0.661239265991756 -0.704148205584019 0.258723670512558
   outer loop
      vertex 16.5280601366443 -77.6511344707392 48.829483859232
      vertex 20.086330607325 -80.270007805899 50.7960344791293
      vertex 20.0784336928052 -80.1616867361647 51.0706608276907
   endloop
endfacet
facet normal 0.659981937482699 -0.70532713112486 0.258722786580073
   outer loop
      vertex 25.6985248756483 -77.6593172754593 48.8294777239472
      vertex 22.0822039528478 -80.3041003705485 50.8442566430095
      vertex 25.3854693936588 -78.307727427123 47.860369777034
   endloop
endfacet
facet normal 0.659981937482699 -0.70532713112486 0.258722786580073
   outer loop
      vertex 22.0822039528478 -80.3041003705485 50.8442566430095
      vertex 25.6985248756483 -77.6593172754593 48.8294777239472
      vertex 22.0857361107316 -80.2043479025909 51.1071904284025
   endloop
endfacet
facet normal -0.661063353243671 -0.507223467091561 0.552919159940989
   outer loop
      vertex 20.0803639769932 -79.791018515789 51.5000469530156
      vertex 16.5286600517169 -76.9795622274901 49.8327784493467
      vertex 20.0765148335337 -80.0086908142376 51.2957620705676
   endloop
endfacet
facet normal -0.661063353243671 -0.507223467091561 0.552919159940989
   outer loop
      vertex 16.5286600517169 -76.9795622274901 49.8327784493467
      vertex 20.0803639769932 -79.791018515789 51.5000469530156
      vertex 16.8417155337061 -76.3311520758264 50.8018863962596
   endloop
endfacet
facet normal -0.684455128385356 -0.605665042342893 0.405821430817505
   outer loop
      vertex 20.0765148335337 -80.0086908142376 51.2957620705676
      vertex 16.5280601366443 -77.6511344707392 48.829483859232
      vertex 20.0784336928052 -80.1616867361647 51.0706608276907
   endloop
endfacet
facet normal -0.684455128385356 -0.605665042342893 0.405821430817505
   outer loop
      vertex 16.5280601366443 -77.6511344707392 48.829483859232
      vertex 20.0765148335337 -80.0086908142376 51.2957620705676
      vertex 16.5286600517169 -76.9795622274901 49.8327784493467
   endloop
endfacet
facet normal 0.341710810135629 -0.277118918774257 0.898019391268272
   outer loop
      vertex 22.0318643166697 -79.0584363566953 51.9371038379842
      vertex 22.8855492313588 -74.9442858462288 52.8818446593799
      vertex 21.9658699980994 -78.0254216396571 52.2809927300608
   endloop
endfacet
facet normal 0.341710810135629 -0.277118918774257 0.898019391268272
   outer loop
      vertex 22.8855492313588 -74.9442858462288 52.8818446593799
      vertex 22.0318643166697 -79.0584363566953 51.9371038379842
      vertex 23.9308143764602 -75.2810049254838 52.3801966648119
   endloop
endfacet
facet normal -0.59299788871869 -0.795961491991762 0.121650348299644
   outer loop
      vertex 20.1026281914944 -80.339295900593 50.4221249682884
      vertex 16.839956671709 -78.3001022670221 47.8603754942097
      vertex 17.4430944234793 -78.8822395334915 46.9914964878278
   endloop
endfacet
facet normal -0.59299788871869 -0.795961491991762 0.121650348299644
   outer loop
      vertex 16.839956671709 -78.3001022670221 47.8603754942097
      vertex 20.1026281914944 -80.339295900593 50.4221249682884
      vertex 20.086330607325 -80.270007805899 50.7960344791293
   endloop
endfacet
facet normal 0.591576635624771 -0.797018487715017 0.121649555787694
   outer loop
      vertex 25.3854693936588 -78.307727427123 47.860369777034
      vertex 22.0715735831909 -80.3670597805589 50.483456842689
      vertex 24.7812925585025 -78.8887874069136 46.991491578378
   endloop
endfacet
facet normal 0.591576635624771 -0.797018487715017 0.121649555787694
   outer loop
      vertex 22.0715735831909 -80.3670597805589 50.483456842689
      vertex 25.3854693936588 -78.307727427123 47.860369777034
      vertex 22.0822039528478 -80.3041003705485 50.8442566430095
   endloop
endfacet
facet normal -0.592658051385787 -0.415532110501325 0.689992390733345
   outer loop
      vertex 20.0803639769932 -79.791018515789 51.5000469530156
      vertex 17.4458923688625 -75.7500920960355 51.6707645949154
      vertex 16.8417155337061 -76.3311520758264 50.8018863962596
   endloop
endfacet
facet normal -0.592658051385787 -0.415532110501325 0.689992390733345
   outer loop
      vertex 17.4458923688625 -75.7500920960355 51.6707645949154
      vertex 20.0803639769932 -79.791018515789 51.5000469530156
      vertex 20.091881758474 -79.4624247754757 51.7078280217115
   endloop
endfacet
facet normal -0.48438153365332 -0.874847977825599 0.00394278456392167
   outer loop
      vertex 20.1344726354621 -80.3595714627166 49.8354396249092
      vertex 17.4430944234793 -78.8822395334915 46.9914964878278
      vertex 18.2963705509047 -79.3578745774652 46.2820595084818
   endloop
endfacet
facet normal -0.48438153365332 -0.874847977825599 0.00394278456392167
   outer loop
      vertex 17.4430944234793 -78.8822395334915 46.9914964878278
      vertex 20.1344726354621 -80.3595714627166 49.8354396249092
      vertex 20.1026281914944 -80.339295900593 50.4221249682884
   endloop
endfacet
facet normal 0.341122194608486 -0.936041936207469 -0.0863779023041379
   outer loop
      vertex 23.9271680230452 -79.3628989374563 46.282055741329
      vertex 21.9919821914011 -80.297195956676 48.7642455986686
      vertex 22.8813029628707 -79.6977521014498 45.780409145782
   endloop
endfacet
facet normal 0.341122194608486 -0.936041936207469 -0.0863779023041379
   outer loop
      vertex 21.9919821914011 -80.297195956676 48.7642455986686
      vertex 23.9271680230452 -79.3628989374563 46.282055741329
      vertex 22.0481096322491 -80.3825730749483 49.911100016902
   endloop
endfacet
facet normal 0.660157850230793 -0.508402392632341 0.552918276008642
   outer loop
      vertex 25.6991247907208 -76.9877450322103 49.8327723140616
      vertex 22.0765741234131 -79.8629417623425 51.5142113337756
      vertex 22.0839257642079 -80.0632355233843 51.3212658744656
   endloop
endfacet
facet normal 0.660157850230793 -0.508402392632341 0.552918276008642
   outer loop
      vertex 22.0765741234131 -79.8629417623425 51.5142113337756
      vertex 25.6991247907208 -76.9877450322103 49.8327723140616
      vertex 25.3872282556564 -76.3387772359276 50.8018806790845
   endloop
endfacet
facet normal 0.591916472957521 -0.416589106224466 0.689991598221768
   outer loop
      vertex 22.0765741234131 -79.8629417623425 51.5142113337756
      vertex 24.7840905038859 -75.7566399694576 51.6707596854657
      vertex 22.0614310761435 -79.5621539463238 51.7088055098699
   endloop
endfacet
facet normal 0.591916472957521 -0.416589106224466 0.689991598221768
   outer loop
      vertex 24.7840905038859 -75.7566399694576 51.6707596854657
      vertex 22.0765741234131 -79.8629417623425 51.5142113337756
      vertex 25.3872282556564 -76.3387772359276 50.8018806790845
   endloop
endfacet
facet normal 0.483300117892535 -0.337702620390856 0.807699161957106
   outer loop
      vertex 22.0614310761435 -79.5621539463238 51.7088055098699
      vertex 23.9308143764602 -75.2810049254838 52.3801966648119
      vertex 22.0318643166697 -79.0584363566953 51.9371038379842
   endloop
endfacet
facet normal 0.483300117892535 -0.337702620390856 0.807699161957106
   outer loop
      vertex 23.9308143764602 -75.2810049254838 52.3801966648119
      vertex 22.0614310761435 -79.5621539463238 51.7088055098699
      vertex 24.7840905038859 -75.7566399694576 51.6707596854657
   endloop
endfacet
facet normal -0.000741140424226087 -0.831012730698136 0.556252903029278
   outer loop
      vertex 21.4836312296005 -74.5200770438179 47.4571059364154
      vertex 20.714105528211 -76.7253676036446 44.1614919329183
      vertex 21.5141320259547 -76.7260814672043 44.1614913976795
   endloop
endfacet
facet normal -0.000741140424226087 -0.831012730698136 0.556252903029278
   outer loop
      vertex 20.714105528211 -76.7253676036446 44.1614919329183
      vertex 21.4836312296005 -74.5200770438179 47.4571059364154
      vertex 20.6836047318566 -74.5193631802581 47.4571064716544
   endloop
endfacet
facet normal 0.176141111709958 -0.973899809842104 -0.143155402116348
   outer loop
      vertex 21.9919821914011 -80.297195956676 48.7642455986686
      vertex 21.81854736281 -79.8551839259554 45.5437982430787
      vertex 22.8813029628707 -79.6977521014498 45.780409145782
   endloop
endfacet
facet normal 0.176797627022935 -0.23896668052068 0.95479711178867
   outer loop
      vertex 22.8855492313588 -74.9442858462288 52.8818446593799
      vertex 21.7482900223049 -74.7737427029686 53.1351119297931
      vertex 21.9658699980994 -78.0254216396571 52.2809927300608
   endloop
endfacet
facet normal -0.177879042784046 -0.973583917695574 -0.143155165267516
   outer loop
      vertex 20.2055764721138 -80.2791725678652 48.6825748236483
      vertex 19.3416356960068 -79.6945936567206 45.7804115139137
      vertex 20.4138179911449 -79.8553778801453 45.54163685189
   endloop
endfacet
facet normal -0.17722252747065 -0.238650788374314 0.954797348637518
   outer loop
      vertex 20.3438283197445 -74.79329612641 53.1040288611823
      vertex 19.3458819644944 -74.9411274014994 52.8818470275117
      vertex 20.1779654491689 -77.7470609685443 52.3349515837553
   endloop
endfacet
facet normal -0.996033610577968 -0.0779280594832343 0.0429448966024448
   outer loop
      vertex 22.0715735831909 -80.3670597805589 50.483456842689
      vertex 21.9919821914011 -80.297195956676 48.7642455986686
      vertex 22.0481096322491 -80.3825730749483 49.911100016902
   endloop
endfacet
facet normal -0.996033610577968 -0.0779280594832343 0.0429448966024448
   outer loop
      vertex 21.9919821914011 -80.297195956676 48.7642455986686
      vertex 22.0715735831909 -80.3670597805589 50.483456842689
      vertex 22.0822039528478 -80.3041003705485 50.8442566430095
   endloop
endfacet
facet normal -0.996033610577968 -0.0779280594832343 0.0429448966024448
   outer loop
      vertex 21.9919821914011 -80.297195956676 48.7642455986686
      vertex 22.0822039528478 -80.3041003705485 50.8442566430095
      vertex 22.0857361107316 -80.2043479025909 51.1071904284025
   endloop
endfacet
facet normal -0.996033610577968 -0.0779280594832343 0.0429448966024448
   outer loop
      vertex 21.9919821914011 -80.297195956676 48.7642455986686
      vertex 22.0857361107316 -80.2043479025909 51.1071904284025
      vertex 21.81854736281 -79.8551839259554 45.5437982430787
   endloop
endfacet
facet normal -0.996033610577968 -0.0779280594832343 0.0429448966024448
   outer loop
      vertex 21.81854736281 -79.8551839259554 45.5437982430787
      vertex 22.0857361107316 -80.2043479025909 51.1071904284025
      vertex 22.0839257642079 -80.0632355233843 51.3212658744656
   endloop
endfacet
facet normal -0.996033610577968 -0.0779280594832343 0.0429448966024448
   outer loop
      vertex 21.81854736281 -79.8551839259554 45.5437982430787
      vertex 22.0839257642079 -80.0632355233843 51.3212658744656
      vertex 22.0765741234131 -79.8629417623425 51.5142113337756
   endloop
endfacet
facet normal -0.996033610577968 -0.0779280594832343 0.0429448966024448
   outer loop
      vertex 21.81854736281 -79.8551839259554 45.5437982430787
      vertex 22.0765741234131 -79.8629417623425 51.5142113337756
      vertex 22.0614310761435 -79.5621539463238 51.7088055098699
   endloop
endfacet
facet normal -0.996033610577968 -0.0779280594832343 0.0429448966024448
   outer loop
      vertex 21.81854736281 -79.8551839259554 45.5437982430787
      vertex 22.0614310761435 -79.5621539463238 51.7088055098699
      vertex 21.7420678133665 -78.8404290737764 45.6113656362702
   endloop
endfacet
facet normal -0.996033610577968 -0.0779280594832343 0.0429448966024448
   outer loop
      vertex 21.7420678133665 -78.8404290737764 45.6113656362702
      vertex 22.0614310761435 -79.5621539463238 51.7088055098699
      vertex 22.0318643166697 -79.0584363566953 51.9371038379842
   endloop
endfacet
facet normal -0.996033610577968 -0.0779280594832343 0.0429448966024448
   outer loop
      vertex 21.7420678133665 -78.8404290737764 45.6113656362702
      vertex 22.0318643166697 -79.0584363566953 51.9371038379842
      vertex 21.9658699980994 -78.0254216396571 52.2809927300608
   endloop
endfacet
facet normal -0.996033610577968 -0.0779280594832343 0.0429448966024448
   outer loop
      vertex 21.7420678133665 -78.8404290737764 45.6113656362702
      vertex 21.9658699980994 -78.0254216396571 52.2809927300608
      vertex 21.6352151043758 -77.856684772042 44.9182074864251
   endloop
endfacet
facet normal -0.996033610577968 -0.0779280594832343 0.0429448966024448
   outer loop
      vertex 21.6352151043758 -77.856684772042 44.9182074864251
      vertex 21.9658699980994 -78.0254216396571 52.2809927300608
      vertex 21.7482900223049 -74.7737427029686 53.1351119297931
   endloop
endfacet
facet normal -0.996033610577968 -0.0779280594832343 0.0429448966024448
   outer loop
      vertex 21.6352151043758 -77.856684772042 44.9182074864251
      vertex 21.7482900223049 -74.7737427029686 53.1351119297931
      vertex 21.5141320259547 -76.7260814672043 44.1614913976795
   endloop
endfacet
facet normal -0.996033610577968 -0.0779280594832343 0.0429448966024448
   outer loop
      vertex 21.5141320259547 -76.7260814672043 44.1614913976795
      vertex 21.7482900223049 -74.7737427029686 53.1351119297931
      vertex 21.4836312296005 -74.5200770438179 47.4571059364154
   endloop
endfacet
facet normal -0.996033610577968 -0.0779280594832343 0.0429448966024448
   outer loop
      vertex 21.4836312296005 -74.5200770438179 47.4571059364154
      vertex 21.7482900223049 -74.7737427029686 53.1351119297931
      vertex 21.6813770879415 -74.450904053171 52.1690054681271
   endloop
endfacet
facet normal -0.996033610577968 -0.0779280594832343 0.0429448966024448
   outer loop
      vertex 21.4836312296005 -74.5200770438179 47.4571059364154
      vertex 21.6813770879415 -74.450904053171 52.1690054681271
      vertex 21.4531304332457 -72.3140726204312 50.752720475151
   endloop
endfacet
facet normal -0.996033610577968 -0.0779280594832343 0.0429448966024448
   outer loop
      vertex 21.4531304332457 -72.3140726204312 50.752720475151
      vertex 21.6813770879415 -74.450904053171 52.1690054681271
      vertex 21.6386199979222 -74.0460662034345 51.9119488307155
   endloop
endfacet
facet normal 0.995901115965062 -0.0706331395877044 0.0564971398526272
   outer loop
      vertex 20.2055764721138 -80.2791725678652 48.6825748236483
      vertex 20.1026281914944 -80.339295900593 50.4221249682884
      vertex 20.1344726354621 -80.3595714627166 49.8354396249092
   endloop
endfacet
facet normal 0.995901115965062 -0.0706331395877044 0.0564971398526272
   outer loop
      vertex 20.1026281914944 -80.339295900593 50.4221249682884
      vertex 20.2055764721138 -80.2791725678652 48.6825748236483
      vertex 20.086330607325 -80.270007805899 50.7960344791293
   endloop
endfacet
facet normal 0.995901115965062 -0.0706331395877044 0.0564971398526272
   outer loop
      vertex 20.086330607325 -80.270007805899 50.7960344791293
      vertex 20.2055764721138 -80.2791725678652 48.6825748236483
      vertex 20.4138179911449 -79.8553778801453 45.54163685189
   endloop
endfacet
facet normal 0.995901115965062 -0.0706331395877044 0.0564971398526272
   outer loop
      vertex 20.086330607325 -80.270007805899 50.7960344791293
      vertex 20.4138179911449 -79.8553778801453 45.54163685189
      vertex 20.0784336928052 -80.1616867361647 51.0706608276907
   endloop
endfacet
facet normal 0.995901115965062 -0.0706331395877044 0.0564971398526272
   outer loop
      vertex 20.0784336928052 -80.1616867361647 51.0706608276907
      vertex 20.4138179911449 -79.8553778801453 45.54163685189
      vertex 20.0765148335337 -80.0086908142376 51.2957620705676
   endloop
endfacet
facet normal 0.995901115965062 -0.0706331395877044 0.0564971398526272
   outer loop
      vertex 20.0765148335337 -80.0086908142376 51.2957620705676
      vertex 20.4138179911449 -79.8553778801453 45.54163685189
      vertex 20.0803639769932 -79.791018515789 51.5000469530156
   endloop
endfacet
facet normal 0.995901115965062 -0.0706331395877044 0.0564971398526272
   outer loop
      vertex 20.0803639769932 -79.791018515789 51.5000469530156
      vertex 20.4138179911449 -79.8553778801453 45.54163685189
      vertex 20.481925099815 -78.8392340378831 45.6114719680043
   endloop
endfacet
facet normal 0.995901115965062 -0.0706331395877044 0.0564971398526272
   outer loop
      vertex 20.0803639769932 -79.791018515789 51.5000469530156
      vertex 20.481925099815 -78.8392340378831 45.6114719680043
      vertex 20.091881758474 -79.4624247754757 51.7078280217115
   endloop
endfacet
facet normal 0.995901115965062 -0.0706331395877044 0.0564971398526272
   outer loop
      vertex 20.091881758474 -79.4624247754757 51.7078280217115
      vertex 20.481925099815 -78.8392340378831 45.6114719680043
      vertex 20.1172698067728 -78.9070326088875 51.95465656617
   endloop
endfacet
facet normal 0.995901115965062 -0.0706331395877044 0.0564971398526272
   outer loop
      vertex 20.1172698067728 -78.9070326088875 51.95465656617
      vertex 20.481925099815 -78.8392340378831 45.6114719680043
      vertex 20.1779654491689 -77.7470609685443 52.3349515837553
   endloop
endfacet
facet normal 0.995901115965062 -0.0706331395877044 0.0564971398526272
   outer loop
      vertex 20.1779654491689 -77.7470609685443 52.3349515837553
      vertex 20.481925099815 -78.8392340378831 45.6114719680043
      vertex 20.591005982315 -77.8557530243524 44.9182081850287
   endloop
endfacet
facet normal 0.995901115965062 -0.0706331395877044 0.0564971398526272
   outer loop
      vertex 20.1779654491689 -77.7470609685443 52.3349515837553
      vertex 20.591005982315 -77.8557530243524 44.9182081850287
      vertex 20.714105528211 -76.7253676036446 44.1614919329183
   endloop
endfacet
facet normal 0.995901115965062 -0.0706331395877044 0.0564971398526272
   outer loop
      vertex 20.1779654491689 -77.7470609685443 52.3349515837553
      vertex 20.714105528211 -76.7253676036446 44.1614919329183
      vertex 20.3438283197445 -74.79329612641 53.1040288611823
   endloop
endfacet
facet normal 0.995901115965062 -0.0706331395877044 0.0564971398526272
   outer loop
      vertex 20.3438283197445 -74.79329612641 53.1040288611823
      vertex 20.714105528211 -76.7253676036446 44.1614919329183
      vertex 20.6836047318566 -74.5193631802581 47.4571064716544
   endloop
endfacet
facet normal 0.995901115965062 -0.0706331395877044 0.0564971398526272
   outer loop
      vertex 20.3438283197445 -74.79329612641 53.1040288611823
      vertex 20.6836047318566 -74.5193631802581 47.4571064716544
      vertex 20.4215020434948 -74.4690684865286 52.1401901224386
   endloop
endfacet
facet normal 0.995901115965062 -0.0706331395877044 0.0564971398526272
   outer loop
      vertex 20.4215020434948 -74.4690684865286 52.1401901224386
      vertex 20.6836047318566 -74.5193631802581 47.4571064716544
      vertex 20.6531039355027 -72.3133587568717 50.7527210103902
   endloop
endfacet
facet normal 0.995901115965062 -0.0706331395877044 0.0564971398526272
   outer loop
      vertex 20.4215020434948 -74.4690684865286 52.1401901224386
      vertex 20.6531039355027 -72.3133587568717 50.7527210103902
      vertex 20.5954834748271 -72.842469796296 51.1069249087851
   endloop
endfacet
facet normal -0.000741140424022808 -0.831012730698106 0.556252903029322
   outer loop
      vertex 21.4531304332457 -72.3140726204312 50.752720475151
      vertex 20.6836047318566 -74.5193631802581 47.4571064716544
      vertex 21.4836312296005 -74.5200770438179 47.4571059364154
   endloop
endfacet
facet normal -0.000741140424022808 -0.831012730698106 0.556252903029322
   outer loop
      vertex 20.6836047318566 -74.5193631802581 47.4571064716544
      vertex 21.4531304332457 -72.3140726204312 50.752720475151
      vertex 20.6531039355027 -72.3133587568717 50.7527210103902
   endloop
endfacet
facet normal -0.000496900178610068 -0.556252681089427 -0.831013061191602
   outer loop
      vertex 20.5924479054572 -76.2389791320862 43.8359923080717
      vertex 20.714105528211 -76.7253676036446 44.1614919329183
      vertex 20.591005982315 -77.8557530243524 44.9182081850287
   endloop
endfacet
facet normal -0.000496900178610068 -0.556252681089427 -0.831013061191602
   outer loop
      vertex 20.714105528211 -76.7253676036446 44.1614919329183
      vertex 20.5924479054572 -76.2389791320862 43.8359923080717
      vertex 21.1145527514256 -76.2391255157747 43.8357781024468
   endloop
endfacet
facet normal -0.000496900178610068 -0.556252681089427 -0.831013061191602
   outer loop
      vertex 20.714105528211 -76.7253676036446 44.1614919329183
      vertex 21.1145527514256 -76.2391255157747 43.8357781024468
      vertex 21.5141320259547 -76.7260814672043 44.1614913976795
   endloop
endfacet
facet normal -0.000496900178610068 -0.556252681089427 -0.831013061191602
   outer loop
      vertex 21.5141320259547 -76.7260814672043 44.1614913976795
      vertex 21.1145527514256 -76.2391255157747 43.8357781024468
      vertex 21.6366575973944 -76.2392718994631 43.8355638968218
   endloop
endfacet
facet normal -0.000496900178610068 -0.556252681089427 -0.831013061191602
   outer loop
      vertex 21.5141320259547 -76.7260814672043 44.1614913976795
      vertex 21.6366575973944 -76.2392718994631 43.8355638968218
      vertex 21.6352151043758 -77.856684772042 44.9182074864251
   endloop
endfacet
facet normal -0.25929891078212 -0.537067886492085 -0.802696804631818
   outer loop
      vertex 19.5839531314411 -76.0883150030012 44.0609648381877
      vertex 20.481925099815 -78.8392340378831 45.6114719680043
      vertex 19.5816201271415 -78.7042245002951 45.811969604034
   endloop
endfacet
facet normal -0.25929891078212 -0.537067886492085 -0.802696804631818
   outer loop
      vertex 20.481925099815 -78.8392340378831 45.6114719680043
      vertex 19.5839531314411 -76.0883150030012 44.0609648381877
      vertex 20.5924479054572 -76.2389791320862 43.8359923080717
   endloop
endfacet
facet normal -0.25929891078212 -0.537067886492085 -0.802696804631818
   outer loop
      vertex 20.481925099815 -78.8392340378831 45.6114719680043
      vertex 20.5924479054572 -76.2389791320862 43.8359923080717
      vertex 20.591005982315 -77.8557530243524 44.9182081850287
   endloop
endfacet
facet normal -0.999999601900463 0.000892299539321026 6.6902637449292e-007
   outer loop
      vertex 17.1486711180688 -76.3559876647729 49.3168709493315
      vertex 17.1504844256497 -74.3218518392066 46.6987364733887
      vertex 17.148152250163 -76.9368320197714 48.449119184832
   endloop
endfacet
facet normal -0.999999601900463 0.000892299539321026 6.6902637449292e-007
   outer loop
      vertex 17.1504844256497 -74.3218518392066 46.6987364733887
      vertex 17.1486711180688 -76.3559876647729 49.3168709493315
      vertex 17.1510034581163 -73.7408229684156 47.566364729016
   endloop
endfacet
facet normal 0.000496900178614486 0.556252681089447 0.831013061191588
   outer loop
      vertex 20.6531039355027 -72.3133587568717 50.7527210103902
      vertex 20.5963903484498 -71.8256266971633 50.4262831990696
      vertex 20.5954834748271 -72.842469796296 51.1069249087851
   endloop
endfacet
facet normal 0.000496900178614486 0.556252681089447 0.831013061191588
   outer loop
      vertex 20.5963903484498 -71.8256266971633 50.4262831990696
      vertex 20.6531039355027 -72.3133587568717 50.7527210103902
      vertex 21.640600040387 -71.82591946454 50.4258547878196
   endloop
endfacet
facet normal 0.000496900178614486 0.556252681089447 0.831013061191588
   outer loop
      vertex 21.640600040387 -71.82591946454 50.4258547878196
      vertex 20.6531039355027 -72.3133587568717 50.7527210103902
      vertex 21.4531304332457 -72.3140726204312 50.752720475151
   endloop
endfacet
facet normal 0.000496900178614486 0.556252681089447 0.831013061191588
   outer loop
      vertex 21.640600040387 -71.82591946454 50.4258547878196
      vertex 21.4531304332457 -72.3140726204312 50.752720475151
      vertex 21.6386199979222 -74.0460662034345 51.9119488307155
   endloop
endfacet
facet normal 0.499569472772575 -0.482175102516333 -0.71967875638169
   outer loop
      vertex 22.6454210423854 -76.0891733535181 44.0597087999565
      vertex 23.5476574278146 -78.4173409859685 46.2458428330732
      vertex 22.6430863672931 -78.7069562462986 45.8119675558316
   endloop
endfacet
facet normal 0.499569472772575 -0.482175102516333 -0.71967875638169
   outer loop
      vertex 23.5476574278146 -78.4173409859685 46.2458428330732
      vertex 22.6454210423854 -76.0891733535181 44.0597087999565
      vertex 23.5499926787137 -75.798912462108 44.4931519127446
   endloop
endfacet
facet normal 0.500430129128009 0.481282802976951 0.719678087355432
   outer loop
      vertex 23.5508111671462 -74.8869016052626 51.5201387364492
      vertex 22.6490948144028 -71.9765835936253 50.2008822577035
      vertex 22.6467589745309 -74.5956725105942 51.9540152237074
   endloop
endfacet
facet normal 0.500430129128009 0.481282802976951 0.719678087355432
   outer loop
      vertex 22.6490948144028 -71.9765835936253 50.2008822577035
      vertex 23.5508111671462 -74.8869016052626 51.5201387364492
      vertex 23.5531474182647 -72.267351573006 49.7666971148641
   endloop
endfacet
facet normal 0.999999601900463 -0.000892299539294872 -6.69026288236417e-007
   outer loop
      vertex 25.0820444877277 -74.3240756282108 46.6954823668749
      vertex 25.0802268515093 -76.363064991118 49.3168656429097
      vertex 25.0797079836036 -76.9439093461162 48.4491138784098
   endloop
endfacet
facet normal 0.999999601900463 -0.000892299539294872 -6.69026288236417e-007
   outer loop
      vertex 25.0802268515093 -76.363064991118 49.3168656429097
      vertex 25.0820444877277 -74.3240756282108 46.6954823668749
      vertex 25.0825635201942 -73.7430467574199 47.5631106225024
   endloop
endfacet
facet normal -0.706755138201773 0.393960993906725 0.587615443896277
   outer loop
      vertex 18.6807216738576 -74.882556024921 51.5201419946686
      vertex 17.9443205016043 -72.6766285713229 49.1554922925435
      vertex 17.9419874276565 -75.2926161620445 50.9065493315915
   endloop
endfacet
facet normal -0.706755138201773 0.393960993906725 0.587615443896277
   outer loop
      vertex 17.9443205016043 -72.6766285713229 49.1554922925435
      vertex 18.6807216738576 -74.882556024921 51.5201419946686
      vertex 18.6830552671305 -72.2659861345186 49.7686951831466
   endloop
endfacet
facet normal 0.707457861173342 0.392699091796469 0.587614497750241
   outer loop
      vertex 24.2911481610375 -72.6784080454049 49.1528883592612
      vertex 23.5508111671462 -74.8869016052626 51.5201387364492
      vertex 24.2888116233181 -75.2982794326052 50.9065450853972
   endloop
endfacet
facet normal 0.707457861173342 0.392699091796469 0.587614497750241
   outer loop
      vertex 23.5508111671462 -74.8869016052626 51.5201387364492
      vertex 24.2911481610375 -72.6784080454049 49.1528883592612
      vertex 23.5531474182647 -72.267351573006 49.7666971148641
   endloop
endfacet
facet normal -0.965796834524713 0.144830682925147 0.215082653195182
   outer loop
      vertex 17.4194335138385 -75.7951762552728 50.1550546086576
      vertex 17.1510034581163 -73.7408229684156 47.566364729016
      vertex 17.1486711180688 -76.3559876647729 49.3168709493315
   endloop
endfacet
facet normal -0.965796834524713 0.144830682925147 0.215082653195182
   outer loop
      vertex 17.1510034581163 -73.7408229684156 47.566364729016
      vertex 17.4194335138385 -75.7951762552728 50.1550546086576
      vertex 17.4217661603345 -73.1796679500717 48.4043183877542
   endloop
endfacet
facet normal -0.966054048984182 -0.143106892585421 -0.215081360735448
   outer loop
      vertex 17.148152250163 -76.9368320197714 48.449119184832
      vertex 17.4202444341395 -74.883158405096 45.8605610526695
      vertex 17.4179122701115 -77.4981257373658 47.6109351638817
   endloop
endfacet
facet normal -0.966054048984182 -0.143106892585421 -0.215081360735448
   outer loop
      vertex 17.4202444341395 -74.883158405096 45.8605610526695
      vertex 17.148152250163 -76.9368320197714 48.449119184832
      vertex 17.1504844256497 -74.3218518392066 46.6987364733887
   endloop
endfacet
facet normal 0.259298910782444 0.537067886492061 0.80269680463173
   outer loop
      vertex 21.6813770879415 -74.450904053171 52.1690054681271
      vertex 21.640600040387 -71.82591946454 50.4258547878196
      vertex 21.6386199979222 -74.0460662034345 51.9119488307155
   endloop
endfacet
facet normal 0.259298910782444 0.537067886492061 0.80269680463173
   outer loop
      vertex 21.640600040387 -71.82591946454 50.4258547878196
      vertex 21.6813770879415 -74.450904053171 52.1690054681271
      vertex 22.6490948144028 -71.9765835936253 50.2008822577035
   endloop
endfacet
facet normal 0.259298910782444 0.537067886492061 0.80269680463173
   outer loop
      vertex 22.6490948144028 -71.9765835936253 50.2008822577035
      vertex 21.6813770879415 -74.450904053171 52.1690054681271
      vertex 22.6467589745309 -74.5956725105942 51.9540152237074
   endloop
endfacet
facet normal 0.966054048984116 0.143106892585533 0.215081360735672
   outer loop
      vertex 25.0825635201942 -73.7430467574199 47.5631106225024
      vertex 24.8104668315605 -75.8017712735234 50.1550496638597
      vertex 25.0802268515093 -76.363064991118 49.3168656429097
   endloop
endfacet
facet normal 0.966054048984116 0.143106892585533 0.215081360735672
   outer loop
      vertex 24.8104668315605 -75.8017712735234 50.1550496638597
      vertex 25.0825635201942 -73.7430467574199 47.5631106225024
      vertex 24.8128035117043 -73.1817401915307 48.4012860432215
   endloop
endfacet
facet normal 0.706755138201658 -0.393960993906745 -0.587615443896401
   outer loop
      vertex 23.5499926787137 -75.798912462108 44.4931519127446
      vertex 24.286391674016 -78.0072808488448 46.85943549615
      vertex 23.5476574278146 -78.4173409859685 46.2458428330732
   endloop
endfacet
facet normal 0.706755138201658 -0.393960993906745 -0.587615443896401
   outer loop
      vertex 24.286391674016 -78.0072808488448 46.85943549615
      vertex 23.5499926787137 -75.798912462108 44.4931519127446
      vertex 24.2887274442398 -75.3882700253037 45.1063548033476
   endloop
endfacet
facet normal -0.258338973351298 0.537529774721502 0.802697150945267
   outer loop
      vertex 20.4215020434948 -74.4690684865286 52.1401901224386
      vertex 19.5876269034589 -71.9757252431085 50.2021382959346
      vertex 19.585292734379 -74.5929407645907 51.9540172719097
   endloop
endfacet
facet normal -0.258338973351298 0.537529774721502 0.802697150945267
   outer loop
      vertex 19.5876269034589 -71.9757252431085 50.2021382959346
      vertex 20.4215020434948 -74.4690684865286 52.1401901224386
      vertex 20.5963903484498 -71.8256266971633 50.4262831990696
   endloop
endfacet
facet normal -0.258338973351298 0.537529774721502 0.802697150945267
   outer loop
      vertex 20.5963903484498 -71.8256266971633 50.4262831990696
      vertex 20.4215020434948 -74.4690684865286 52.1401901224386
      vertex 20.5954834748271 -72.842469796296 51.1069249087851
   endloop
endfacet
facet normal -0.499569472772439 0.482175102516316 0.719678756381796
   outer loop
      vertex 19.585292734379 -74.5929407645907 51.9540172719097
      vertex 18.6830552671305 -72.2659861345186 49.7686951831466
      vertex 18.6807216738576 -74.882556024921 51.5201419946686
   endloop
endfacet
facet normal -0.499569472772439 0.482175102516316 0.719678756381796
   outer loop
      vertex 18.6830552671305 -72.2659861345186 49.7686951831466
      vertex 19.585292734379 -74.5929407645907 51.9540172719097
      vertex 19.5876269034589 -71.9757252431085 50.2021382959346
   endloop
endfacet
facet normal 0.965796834524679 -0.144830682925243 -0.21508265319527
   outer loop
      vertex 24.8112817855097 -74.8852306465549 45.8575287081371
      vertex 25.0797079836036 -76.9439093461162 48.4491138784098
      vertex 24.8089455878335 -77.5047207556161 47.6109302190838
   endloop
endfacet
facet normal 0.965796834524679 -0.144830682925243 -0.21508265319527
   outer loop
      vertex 25.0797079836036 -76.9439093461162 48.4491138784098
      vertex 24.8112817855097 -74.8852306465549 45.8575287081371
      vertex 25.0820444877277 -74.3240756282108 46.6954823668749
   endloop
endfacet
facet normal 0.865776608930997 -0.278899094613449 -0.415507109989398
   outer loop
      vertex 24.2887274442398 -75.3882700253037 45.1063548033476
      vertex 24.8089455878335 -77.5047207556161 47.6109302190838
      vertex 24.286391674016 -78.0072808488448 46.85943549615
   endloop
endfacet
facet normal 0.865776608930997 -0.278899094613449 -0.415507109989398
   outer loop
      vertex 24.8089455878335 -77.5047207556161 47.6109302190838
      vertex 24.2887274442398 -75.3882700253037 45.1063548033476
      vertex 24.8112817855097 -74.8852306465549 45.8575287081371
   endloop
endfacet
facet normal 0.258338973351036 -0.537529774721581 -0.802697150945298
   outer loop
      vertex 21.6366575973944 -76.2392718994631 43.8355638968218
      vertex 21.7420678133665 -78.8404290737764 45.6113656362702
      vertex 21.6352151043758 -77.856684772042 44.9182074864251
   endloop
endfacet
facet normal 0.258338973351036 -0.537529774721581 -0.802697150945298
   outer loop
      vertex 21.7420678133665 -78.8404290737764 45.6113656362702
      vertex 21.6366575973944 -76.2392718994631 43.8355638968218
      vertex 22.6454210423854 -76.0891733535181 44.0597087999565
   endloop
endfacet
facet normal 0.258338973351036 -0.537529774721581 -0.802697150945298
   outer loop
      vertex 21.7420678133665 -78.8404290737764 45.6113656362702
      vertex 22.6454210423854 -76.0891733535181 44.0597087999565
      vertex 22.6430863672931 -78.7069562462986 45.8119675558316
   endloop
endfacet
facet normal -0.865776608930892 0.278899094613567 0.415507109989538
   outer loop
      vertex 17.9419874276565 -75.2926161620445 50.9065493315915
      vertex 17.4217661603345 -73.1796679500717 48.4043183877542
      vertex 17.4194335138385 -75.7951762552728 50.1550546086576
   endloop
endfacet
facet normal -0.865776608930892 0.278899094613567 0.415507109989538
   outer loop
      vertex 17.4217661603345 -73.1796679500717 48.4043183877542
      vertex 17.9419874276565 -75.2926161620445 50.9065493315915
      vertex 17.9443205016043 -72.6766285713229 49.1554922925435
   endloop
endfacet
facet normal -0.707457861173491 -0.392699091796361 -0.587614497750135
   outer loop
      vertex 17.9395674783545 -78.0016175782839 46.8594397423444
      vertex 18.6799005275793 -75.7975470236201 44.4951499810272
      vertex 18.6775679345258 -78.4129954056267 46.2458460912925
   endloop
endfacet
facet normal -0.707457861173491 -0.392699091796361 -0.587614497750135
   outer loop
      vertex 18.6799005275793 -75.7975470236201 44.4951499810272
      vertex 17.9395674783545 -78.0016175782839 46.8594397423444
      vertex 17.9418997848067 -75.3864905512216 45.1089587366301
   endloop
endfacet
facet normal -0.866273509109362 -0.27735358647589 -0.415505951202041
   outer loop
      vertex 17.4179122701115 -77.4981257373658 47.6109351638817
      vertex 17.9418997848067 -75.3864905512216 45.1089587366301
      vertex 17.9395674783545 -78.0016175782839 46.8594397423444
   endloop
endfacet
facet normal -0.866273509109362 -0.27735358647589 -0.415505951202041
   outer loop
      vertex 17.9418997848067 -75.3864905512216 45.1089587366301
      vertex 17.4179122701115 -77.4981257373658 47.6109351638817
      vertex 17.4202444341395 -74.883158405096 45.8605610526695
   endloop
endfacet
facet normal -0.500430129128136 -0.481282802976865 -0.719678087355402
   outer loop
      vertex 18.6799005275793 -75.7975470236201 44.4951499810272
      vertex 19.5816201271415 -78.7042245002951 45.811969604034
      vertex 18.6775679345258 -78.4129954056267 46.2458460912925
   endloop
endfacet
facet normal -0.500430129128136 -0.481282802976865 -0.719678087355402
   outer loop
      vertex 19.5816201271415 -78.7042245002951 45.811969604034
      vertex 18.6799005275793 -75.7975470236201 44.4951499810272
      vertex 19.5839531314411 -76.0883150030012 44.0609648381877
   endloop
endfacet
facet normal 0.866273509109648 0.277353586475603 0.415505951201636
   outer loop
      vertex 24.8128035117043 -73.1817401915307 48.4012860432215
      vertex 24.2888116233181 -75.2982794326052 50.9065450853972
      vertex 24.8104668315605 -75.8017712735234 50.1550496638597
   endloop
endfacet
facet normal 0.866273509109648 0.277353586475603 0.415505951201636
   outer loop
      vertex 24.2888116233181 -75.2982794326052 50.9065450853972
      vertex 24.8128035117043 -73.1817401915307 48.4012860432215
      vertex 24.2911481610375 -72.6784080454049 49.1528883592612
   endloop
endfacet
facet normal -4.67174514069127e-006 -0.830894863970925 0.556429442970906
   outer loop
      vertex 32.0133933451581 -81.1389674721032 36.5191809070809
      vertex 23.5499926787137 -75.798912462108 44.4931519127446
      vertex 10.8668374303555 -81.1373967232427 36.521256601986
   endloop
endfacet
facet normal -4.67174514069127e-006 -0.830894863970925 0.556429442970906
   outer loop
      vertex 23.5499926787137 -75.798912462108 44.4931519127446
      vertex 32.0133933451581 -81.1389674721032 36.5191809070809
      vertex 32.015745474876 -72.2180644122519 49.8403801293882
   endloop
endfacet
facet normal -4.67174514069127e-006 -0.830894863970925 0.556429442970906
   outer loop
      vertex 10.8668374303555 -81.1373967232427 36.521256601986
      vertex 23.5499926787137 -75.798912462108 44.4931519127446
      vertex 22.6454210423854 -76.0891733535181 44.0597087999565
   endloop
endfacet
facet normal -4.67174514069127e-006 -0.830894863970925 0.556429442970906
   outer loop
      vertex 10.8668374303555 -81.1373967232427 36.521256601986
      vertex 22.6454210423854 -76.0891733535181 44.0597087999565
      vertex 21.6366575973944 -76.2392718994631 43.8355638968218
   endloop
endfacet
facet normal -4.67174514069127e-006 -0.830894863970925 0.556429442970906
   outer loop
      vertex 10.8668374303555 -81.1373967232427 36.521256601986
      vertex 21.6366575973944 -76.2392718994631 43.8355638968218
      vertex 9.3030711310441 -76.5603821357977 43.3559145838085
   endloop
endfacet
facet normal -4.67174514069127e-006 -0.830894863970925 0.556429442970906
   outer loop
      vertex 23.5499926787137 -75.798912462108 44.4931519127446
      vertex 32.015745474876 -72.2180644122519 49.8403801293882
      vertex 24.2887274442398 -75.3882700253037 45.1063548033476
   endloop
endfacet
facet normal -4.67174514069127e-006 -0.830894863970925 0.556429442970906
   outer loop
      vertex 24.2887274442398 -75.3882700253037 45.1063548033476
      vertex 32.015745474876 -72.2180644122519 49.8403801293882
      vertex 24.8112817855097 -74.8852306465549 45.8575287081371
   endloop
endfacet
facet normal -4.67174514069127e-006 -0.830894863970925 0.556429442970906
   outer loop
      vertex 24.8112817855097 -74.8852306465549 45.8575287081371
      vertex 32.015745474876 -72.2180644122519 49.8403801293882
      vertex 25.0820444877277 -74.3240756282108 46.6954823668749
   endloop
endfacet
facet normal -4.67174514069127e-006 -0.830894863970925 0.556429442970906
   outer loop
      vertex 25.0820444877277 -74.3240756282108 46.6954823668749
      vertex 32.015745474876 -72.2180644122519 49.8403801293882
      vertex 25.0825635201942 -73.7430467574199 47.5631106225024
   endloop
endfacet
facet normal -4.67174514069127e-006 -0.830894863970925 0.556429442970906
   outer loop
      vertex 25.0825635201942 -73.7430467574199 47.5631106225024
      vertex 32.015745474876 -72.2180644122519 49.8403801293882
      vertex 24.8128035117043 -73.1817401915307 48.4012860432215
   endloop
endfacet
facet normal -4.67174514069127e-006 -0.830894863970925 0.556429442970906
   outer loop
      vertex 24.8128035117043 -73.1817401915307 48.4012860432215
      vertex 32.015745474876 -72.2180644122519 49.8403801293882
      vertex 24.2911481610375 -72.6784080454049 49.1528883592612
   endloop
endfacet
facet normal -4.67174514069127e-006 -0.830894863970925 0.556429442970906
   outer loop
      vertex 24.2911481610375 -72.6784080454049 49.1528883592612
      vertex 32.015745474876 -72.2180644122519 49.8403801293882
      vertex 23.5531474182647 -72.267351573006 49.7666971148641
   endloop
endfacet
facet normal -4.67174514069127e-006 -0.830894863970925 0.556429442970906
   outer loop
      vertex 23.5531474182647 -72.267351573006 49.7666971148641
      vertex 32.015745474876 -72.2180644122519 49.8403801293882
      vertex 22.6490948144028 -71.9765835936253 50.2008822577035
   endloop
endfacet
facet normal -4.67174514069127e-006 -0.830894863970925 0.556429442970906
   outer loop
      vertex 22.6490948144028 -71.9765835936253 50.2008822577035
      vertex 32.015745474876 -72.2180644122519 49.8403801293882
      vertex 26.6850371150601 -67.8954924290176 56.2949153658327
   endloop
endfacet
facet normal -4.67174514069127e-006 -0.830894863970925 0.556429442970906
   outer loop
      vertex 22.6490948144028 -71.9765835936253 50.2008822577035
      vertex 26.6850371150601 -67.8954924290176 56.2949153658327
      vertex 21.640600040387 -71.82591946454 50.4258547878196
   endloop
endfacet
facet normal -4.67174514069127e-006 -0.830894863970925 0.556429442970906
   outer loop
      vertex 21.640600040387 -71.82591946454 50.4258547878196
      vertex 26.6850371150601 -67.8954924290176 56.2949153658327
      vertex 20.5963903484498 -71.8256266971633 50.4262831990696
   endloop
endfacet
facet normal -4.67174514069127e-006 -0.830894863970925 0.556429442970906
   outer loop
      vertex 9.3030711310441 -76.5603821357977 43.3559145838085
      vertex 17.1504844256497 -74.3218518392066 46.6987364733887
      vertex 15.0505625915161 -67.8946285027547 56.2963911181662
   endloop
endfacet
facet normal -4.67174514069127e-006 -0.830894863970925 0.556429442970906
   outer loop
      vertex 17.1504844256497 -74.3218518392066 46.6987364733887
      vertex 9.3030711310441 -76.5603821357977 43.3559145838085
      vertex 17.4202444341395 -74.883158405096 45.8605610526695
   endloop
endfacet
facet normal -4.67174514069127e-006 -0.830894863970925 0.556429442970906
   outer loop
      vertex 17.4202444341395 -74.883158405096 45.8605610526695
      vertex 9.3030711310441 -76.5603821357977 43.3559145838085
      vertex 17.9418997848067 -75.3864905512216 45.1089587366301
   endloop
endfacet
facet normal -4.67174514069127e-006 -0.830894863970925 0.556429442970906
   outer loop
      vertex 17.9418997848067 -75.3864905512216 45.1089587366301
      vertex 9.3030711310441 -76.5603821357977 43.3559145838085
      vertex 18.6799005275793 -75.7975470236201 44.4951499810272
   endloop
endfacet
facet normal -4.67174514069127e-006 -0.830894863970925 0.556429442970906
   outer loop
      vertex 18.6799005275793 -75.7975470236201 44.4951499810272
      vertex 9.3030711310441 -76.5603821357977 43.3559145838085
      vertex 19.5839531314411 -76.0883150030012 44.0609648381877
   endloop
endfacet
facet normal -4.67174514069127e-006 -0.830894863970925 0.556429442970906
   outer loop
      vertex 19.5839531314411 -76.0883150030012 44.0609648381877
      vertex 9.3030711310441 -76.5603821357977 43.3559145838085
      vertex 20.5924479054572 -76.2389791320862 43.8359923080717
   endloop
endfacet
facet normal -4.67174514069127e-006 -0.830894863970925 0.556429442970906
   outer loop
      vertex 20.5924479054572 -76.2389791320862 43.8359923080717
      vertex 9.3030711310441 -76.5603821357977 43.3559145838085
      vertex 21.1145527514256 -76.2391255157747 43.8357781024468
   endloop
endfacet
facet normal -4.67174514069127e-006 -0.830894863970925 0.556429442970906
   outer loop
      vertex 21.1145527514256 -76.2391255157747 43.8357781024468
      vertex 9.3030711310441 -76.5603821357977 43.3559145838085
      vertex 21.6366575973944 -76.2392718994631 43.8355638968218
   endloop
endfacet
facet normal -4.67174514069127e-006 -0.830894863970925 0.556429442970906
   outer loop
      vertex 15.0505625915161 -67.8946285027547 56.2963911181662
      vertex 17.1504844256497 -74.3218518392066 46.6987364733887
      vertex 17.1510034581163 -73.7408229684156 47.566364729016
   endloop
endfacet
facet normal -4.67174514069127e-006 -0.830894863970925 0.556429442970906
   outer loop
      vertex 15.0505625915161 -67.8946285027547 56.2963911181662
      vertex 17.1510034581163 -73.7408229684156 47.566364729016
      vertex 17.4217661603345 -73.1796679500717 48.4043183877542
   endloop
endfacet
facet normal -4.67174514069127e-006 -0.830894863970925 0.556429442970906
   outer loop
      vertex 15.0505625915161 -67.8946285027547 56.2963911181662
      vertex 17.4217661603345 -73.1796679500717 48.4043183877542
      vertex 17.9443205016043 -72.6766285713229 49.1554922925435
   endloop
endfacet
facet normal -4.67174514069127e-006 -0.830894863970925 0.556429442970906
   outer loop
      vertex 15.0505625915161 -67.8946285027547 56.2963911181662
      vertex 17.9443205016043 -72.6766285713229 49.1554922925435
      vertex 18.6830552671305 -72.2659861345186 49.7686951831466
   endloop
endfacet
facet normal -4.67174514069127e-006 -0.830894863970925 0.556429442970906
   outer loop
      vertex 15.0505625915161 -67.8946285027547 56.2963911181662
      vertex 18.6830552671305 -72.2659861345186 49.7686951831466
      vertex 19.5876269034589 -71.9757252431085 50.2021382959346
   endloop
endfacet
facet normal -4.67174514069127e-006 -0.830894863970925 0.556429442970906
   outer loop
      vertex 15.0505625915161 -67.8946285027547 56.2963911181662
      vertex 19.5876269034589 -71.9757252431085 50.2021382959346
      vertex 20.5963903484498 -71.8256266971633 50.4262831990696
   endloop
endfacet
facet normal -4.67174514069127e-006 -0.830894863970925 0.556429442970906
   outer loop
      vertex 15.0505625915161 -67.8946285027547 56.2963911181662
      vertex 20.5963903484498 -71.8256266971633 50.4262831990696
      vertex 26.6850371150601 -67.8954924290176 56.2949153658327
   endloop
endfacet
facet normal 0.999999989198464 -7.42557174812207e-005 -0.000126843057205568
   outer loop
      vertex 32.0113363015208 -81.1256962290513 20.2941771394655
      vertex 32.015745474876 -72.2180644122519 49.8403801293882
      vertex 32.0133933451581 -81.1389674721032 36.5191809070809
   endloop
endfacet
facet normal 0.999999989198464 -7.42557174812207e-005 -0.000126843057205568
   outer loop
      vertex 32.015745474876 -72.2180644122519 49.8403801293882
      vertex 32.0113363015208 -81.1256962290513 20.2941771394655
      vertex 32.0120528722503 -71.4891194030092 20.3020592873569
   endloop
endfacet
facet normal 0.999999989198464 -7.42557174812207e-005 -0.000126843057205568
   outer loop
      vertex 32.015745474876 -72.2180644122519 49.8403801293882
      vertex 32.0120528722503 -71.4891194030092 20.3020592873569
      vertex 32.0157821819146 -67.8887730850958 47.5953412463164
   endloop
endfacet
facet normal 0.999999989198464 -7.42557174812207e-005 -0.000126843057205568
   outer loop
      vertex 32.0157821819146 -67.8887730850958 47.5953412463164
      vertex 32.0120528722503 -71.4891194030092 20.3020592873569
      vertex 32.0152839598715 -67.885558750842 43.665597425152
   endloop
endfacet
facet normal -7.43594432985517e-005 -0.999999662722054 -0.000817940371873069
   outer loop
      vertex 32.0133933451581 -81.1389674721032 36.5191809070809
      vertex 6.41965313895994 -81.1237959002358 20.2974232668323
      vertex 32.0113363015208 -81.1256962290513 20.2941771394655
   endloop
endfacet
facet normal -7.43594432985517e-005 -0.999999662722054 -0.000817940371873069
   outer loop
      vertex 6.41965313895994 -81.1237959002358 20.2974232668323
      vertex 32.0133933451581 -81.1389674721032 36.5191809070809
      vertex 12.5669009076376 -81.1314501988649 29.0965856174098
   endloop
endfacet
facet normal -7.43594432985517e-005 -0.999999662722054 -0.000817940371873069
   outer loop
      vertex 12.5669009076376 -81.1314501988649 29.0965856174098
      vertex 32.0133933451581 -81.1389674721032 36.5191809070809
      vertex 10.8668374303555 -81.1373967232427 36.521256601986
   endloop
endfacet
facet normal -0.908053998201084 -0.0223205988921568 0.418257967307404
   outer loop
      vertex 9.23377011363949 -67.8838670931678 43.6684871020472
      vertex 9.3030711310441 -76.5603821357977 43.3559145838085
      vertex 15.0505625915161 -67.8946285027547 56.2963911181662
   endloop
endfacet
facet normal 0.822879217869724 0.261574537302215 0.504428938734926
   outer loop
      vertex 32.0157821819146 -67.8887730850958 47.5953412463164
      vertex 26.6850371150601 -67.8954924290176 56.2949153658327
      vertex 32.015745474876 -72.2180644122519 49.8403801293882
   endloop
endfacet
facet normal -0.819764145002094 -0.000407478304514266 0.572701126706083
   outer loop
      vertex 12.567718953854 -70.1302121044029 29.1055839772228
      vertex 6.41965313895994 -81.1237959002358 20.2974232668323
      vertex 12.5669009076376 -81.1314501988649 29.0965856174098
   endloop
endfacet
facet normal -0.819764145002094 -0.000407478304514266 0.572701126706083
   outer loop
      vertex 6.41965313895994 -81.1237959002358 20.2974232668323
      vertex 12.567718953854 -70.1302121044029 29.1055839772228
      vertex 6.42036970968967 -71.4872190741931 20.3053054147233
   endloop
endfacet
facet normal -0.000126782277680832 0.000817949795016361 -0.999999657442135
   outer loop
      vertex 6.42036970968967 -71.4872190741931 20.3053054147233
      vertex 32.0113363015208 -81.1256962290513 20.2941771394655
      vertex 6.41965313895994 -81.1237959002358 20.2974232668323
   endloop
endfacet
facet normal -0.000126782277680832 0.000817949795016361 -0.999999657442135
   outer loop
      vertex 32.0113363015208 -81.1256962290513 20.2941771394655
      vertex 6.42036970968967 -71.4872190741931 20.3053054147233
      vertex 32.0120528722503 -71.4891194030092 20.3020592873569
   endloop
endfacet
facet normal -0.974773010326006 0.000255046623860165 -0.223198372062156
   outer loop
      vertex 9.3030711310441 -76.5603821357977 43.3559145838085
      vertex 12.5669009076376 -81.1314501988649 29.0965856174098
      vertex 10.8668374303555 -81.1373967232427 36.521256601986
   endloop
endfacet
facet normal -0.974773010326006 0.000255046623860165 -0.223198372062156
   outer loop
      vertex 12.5669009076376 -81.1314501988649 29.0965856174098
      vertex 9.3030711310441 -76.5603821357977 43.3559145838085
      vertex 12.567718953854 -70.1302121044029 29.1055839772228
   endloop
endfacet
facet normal -0.974773010326006 0.000255046623860165 -0.223198372062156
   outer loop
      vertex 12.567718953854 -70.1302121044029 29.1055839772228
      vertex 9.3030711310441 -76.5603821357977 43.3559145838085
      vertex 9.23377011363949 -67.8838670931678 43.6684871020472
   endloop
endfacet
facet normal 7.4359443290862e-005 0.999999662722054 0.00081794037189208
   outer loop
      vertex 9.23377011363949 -67.8838670931678 43.6684871020472
      vertex 32.0157821819146 -67.8887730850958 47.5953412463164
      vertex 32.0152839598715 -67.885558750842 43.665597425152
   endloop
endfacet
facet normal 7.4359443290862e-005 0.999999662722054 0.00081794037189208
   outer loop
      vertex 32.0157821819146 -67.8887730850958 47.5953412463164
      vertex 9.23377011363949 -67.8838670931678 43.6684871020472
      vertex 15.0505625915161 -67.8946285027547 56.2963911181662
   endloop
endfacet
facet normal 7.4359443290862e-005 0.999999662722054 0.00081794037189208
   outer loop
      vertex 32.0157821819146 -67.8887730850958 47.5953412463164
      vertex 15.0505625915161 -67.8946285027547 56.2963911181662
      vertex 26.6850371150601 -67.8954924290176 56.2949153658327
   endloop
endfacet
facet normal 5.40524516305039e-005 0.988313323498999 -0.152436123253954
   outer loop
      vertex 6.42036970968967 -71.4872190741931 20.3053054147233
      vertex 32.0152839598715 -67.885558750842 43.665597425152
      vertex 32.0120528722503 -71.4891194030092 20.3020592873569
   endloop
endfacet
facet normal 5.40524516305039e-005 0.988313323498999 -0.152436123253954
   outer loop
      vertex 32.0152839598715 -67.885558750842 43.665597425152
      vertex 6.42036970968967 -71.4872190741931 20.3053054147233
      vertex 12.567718953854 -70.1302121044029 29.1055839772228
   endloop
endfacet
facet normal 5.40524516305039e-005 0.988313323498999 -0.152436123253954
   outer loop
      vertex 32.0152839598715 -67.885558750842 43.665597425152
      vertex 12.567718953854 -70.1302121044029 29.1055839772228
      vertex 9.23377011363949 -67.8838670931678 43.6684871020472
   endloop
endfacet
facet normal 0.397167244459003 0.888078786048811 0.231461119194806
   outer loop
      vertex 22.6467589745309 -74.5956725105942 51.9540152237074
      vertex 23.9308143764602 -75.2810049254838 52.3801966648119
      vertex 23.5508111671462 -74.8869016052626 51.5201387364492
   endloop
endfacet
facet normal 0.397167244459003 0.888078786048811 0.231461119194806
   outer loop
      vertex 23.9308143764602 -75.2810049254838 52.3801966648119
      vertex 22.6467589745309 -74.5956725105942 51.9540152237074
      vertex 22.8855492313588 -74.9442858462288 52.8818446593799
   endloop
endfacet
facet normal 0.205249723194567 0.0804161355177716 -0.975400326162003
   outer loop
      vertex 22.6430863672931 -78.7069562462986 45.8119675558316
      vertex 21.81854736281 -79.8551839259554 45.5437982430787
      vertex 21.7420678133665 -78.8404290737764 45.6113656362702
   endloop
endfacet
facet normal 0.205249723194567 0.0804161355177716 -0.975400326162003
   outer loop
      vertex 21.81854736281 -79.8551839259554 45.5437982430787
      vertex 22.6430863672931 -78.7069562462986 45.8119675558316
      vertex 22.8813029628707 -79.6977521014498 45.780409145782
   endloop
endfacet
facet normal -0.55982766710391 0.818854509369526 0.126768590866141
   outer loop
      vertex 17.4458923688625 -75.7500920960355 51.6707645949154
      vertex 18.6807216738576 -74.882556024921 51.5201419946686
      vertex 17.9419874276565 -75.2926161620445 50.9065493315915
   endloop
endfacet
facet normal -0.55982766710391 0.818854509369526 0.126768590866141
   outer loop
      vertex 18.6807216738576 -74.882556024921 51.5201419946686
      vertex 17.4458923688625 -75.7500920960355 51.6707645949154
      vertex 18.3000169043201 -75.2759805654929 52.3802004319651
   endloop
endfacet
facet normal 0.206010712631959 0.932302355131201 0.29727412416436
   outer loop
      vertex 21.6813770879415 -74.450904053171 52.1690054681271
      vertex 22.8855492313588 -74.9442858462288 52.8818446593799
      vertex 22.6467589745309 -74.5956725105942 51.9540152237074
   endloop
endfacet
facet normal 0.206010712631959 0.932302355131201 0.29727412416436
   outer loop
      vertex 22.8855492313588 -74.9442858462288 52.8818446593799
      vertex 21.6813770879415 -74.450904053171 52.1690054681271
      vertex 21.7482900223049 -74.7737427029686 53.1351119297931
   endloop
endfacet
facet normal -0.56038475003588 0.195230514344691 -0.804893768267547
   outer loop
      vertex 17.9395674783545 -78.0016175782839 46.8594397423444
      vertex 18.2963705509047 -79.3578745774652 46.2820595084818
      vertex 17.4430944234793 -78.8822395334915 46.9914964878278
   endloop
endfacet
facet normal -0.56038475003588 0.195230514344691 -0.804893768267547
   outer loop
      vertex 18.2963705509047 -79.3578745774652 46.2820595084818
      vertex 17.9395674783545 -78.0016175782839 46.8594397423444
      vertex 18.6775679345258 -78.4129954056267 46.2458460912925
   endloop
endfacet
facet normal -0.765386618913698 0.393094480278244 -0.509568497027274
   outer loop
      vertex 16.5280601366443 -77.6511344707392 48.829483859232
      vertex 17.4179122701115 -77.4981257373658 47.6109351638817
      vertex 16.839956671709 -78.3001022670221 47.8603754942097
   endloop
endfacet
facet normal -0.765386618913698 0.393094480278244 -0.509568497027274
   outer loop
      vertex 17.4179122701115 -77.4981257373658 47.6109351638817
      vertex 16.5280601366443 -77.6511344707392 48.829483859232
      vertex 17.148152250163 -76.9368320197714 48.449119184832
   endloop
endfacet
facet normal -0.395581438351209 0.888786155614927 0.231461649564735
   outer loop
      vertex 18.3000169043201 -75.2759805654929 52.3802004319651
      vertex 19.585292734379 -74.5929407645907 51.9540172719097
      vertex 18.6807216738576 -74.882556024921 51.5201419946686
   endloop
endfacet
facet normal -0.395581438351209 0.888786155614927 0.231461649564735
   outer loop
      vertex 19.585292734379 -74.5929407645907 51.9540172719097
      vertex 18.3000169043201 -75.2759805654929 52.3802004319651
      vertex 19.3458819644944 -74.9411274014994 52.8818470275117
   endloop
endfacet
facet normal -0.685891778749082 0.727639303950443 -0.00967011845503695
   outer loop
      vertex 16.8417155337061 -76.3311520758264 50.8018863962596
      vertex 17.9419874276565 -75.2926161620445 50.9065493315915
      vertex 17.4194335138385 -75.7951762552728 50.1550546086576
   endloop
endfacet
facet normal -0.685891778749082 0.727639303950443 -0.00967011845503695
   outer loop
      vertex 17.9419874276565 -75.2926161620445 50.9065493315915
      vertex 16.8417155337061 -76.3311520758264 50.8018863962596
      vertex 17.4458923688625 -75.7500920960355 51.6707645949154
   endloop
endfacet
facet normal -0.204346201550777 0.932668516562454 0.297274398704227
   outer loop
      vertex 19.3458819644944 -74.9411274014994 52.8818470275117
      vertex 20.4215020434948 -74.4690684865286 52.1401901224386
      vertex 19.585292734379 -74.5929407645907 51.9540172719097
   endloop
endfacet
facet normal -0.204346201550777 0.932668516562454 0.297274398704227
   outer loop
      vertex 20.4215020434948 -74.4690684865286 52.1401901224386
      vertex 19.3458819644944 -74.9411274014994 52.8818470275117
      vertex 20.3438283197445 -74.79329612641 53.1040288611823
   endloop
endfacet
facet normal -0.765182712408724 0.621356704866842 -0.168556405834512
   outer loop
      vertex 16.8417155337061 -76.3311520758264 50.8018863962596
      vertex 17.1486711180688 -76.3559876647729 49.3168709493315
      vertex 16.5286600517169 -76.9795622274901 49.8327784493467
   endloop
endfacet
facet normal -0.765182712408724 0.621356704866842 -0.168556405834512
   outer loop
      vertex 17.1486711180688 -76.3559876647729 49.3168709493315
      vertex 16.8417155337061 -76.3311520758264 50.8018863962596
      vertex 17.4194335138385 -75.7951762552728 50.1550546086576
   endloop
endfacet
facet normal 0.561288271679614 0.817854137735661 0.126767840809766
   outer loop
      vertex 23.5508111671462 -74.8869016052626 51.5201387364492
      vertex 24.7840905038859 -75.7566399694576 51.6707596854657
      vertex 24.2888116233181 -75.2982794326052 50.9065450853972
   endloop
endfacet
facet normal 0.561288271679614 0.817854137735661 0.126767840809766
   outer loop
      vertex 24.7840905038859 -75.7566399694576 51.6707596854657
      vertex 23.5508111671462 -74.8869016052626 51.5201387364492
      vertex 23.9308143764602 -75.2810049254838 52.3801966648119
   endloop
endfacet
facet normal -0.686285695867924 0.286670548157796 -0.668454890374801
   outer loop
      vertex 16.839956671709 -78.3001022670221 47.8603754942097
      vertex 17.9395674783545 -78.0016175782839 46.8594397423444
      vertex 17.4430944234793 -78.8822395334915 46.9914964878278
   endloop
endfacet
facet normal -0.686285695867924 0.286670548157796 -0.668454890374801
   outer loop
      vertex 17.9395674783545 -78.0016175782839 46.8594397423444
      vertex 16.839956671709 -78.3001022670221 47.8603754942097
      vertex 17.4179122701115 -77.4981257373658 47.6109351638817
   endloop
endfacet
facet normal -0.792296921988301 0.507249695606157 -0.339062433358999
   outer loop
      vertex 16.5286600517169 -76.9795622274901 49.8327784493467
      vertex 17.148152250163 -76.9368320197714 48.449119184832
      vertex 16.5280601366443 -77.6511344707392 48.829483859232
   endloop
endfacet
facet normal -0.792296921988301 0.507249695606157 -0.339062433358999
   outer loop
      vertex 17.148152250163 -76.9368320197714 48.449119184832
      vertex 16.5286600517169 -76.9795622274901 49.8327784493467
      vertex 17.1486711180688 -76.3559876647729 49.3168709493315
   endloop
endfacet
facet normal -0.39626372281502 0.125005866031258 -0.909587046652796
   outer loop
      vertex 18.6775679345258 -78.4129954056267 46.2458460912925
      vertex 19.3416356960068 -79.6945936567206 45.7804115139137
      vertex 18.2963705509047 -79.3578745774652 46.2820595084818
   endloop
endfacet
facet normal -0.39626372281502 0.125005866031258 -0.909587046652796
   outer loop
      vertex 19.3416356960068 -79.6945936567206 45.7804115139137
      vertex 18.6775679345258 -78.4129954056267 46.2458460912925
      vertex 19.5816201271415 -78.7042245002951 45.811969604034
   endloop
endfacet
facet normal 0.560731188747709 0.194230142710232 -0.804894518324199
   outer loop
      vertex 24.286391674016 -78.0072808488448 46.85943549615
      vertex 23.9271680230452 -79.3628989374563 46.282055741329
      vertex 23.5476574278146 -78.4173409859685 46.2458428330732
   endloop
endfacet
facet normal 0.560731188747709 0.194230142710232 -0.804894518324199
   outer loop
      vertex 23.9271680230452 -79.3628989374563 46.282055741329
      vertex 24.286391674016 -78.0072808488448 46.85943549615
      vertex 24.7812925585025 -78.8887874069136 46.991491578378
   endloop
endfacet
facet normal 0.39648495999553 0.124298496465304 -0.90958757702258
   outer loop
      vertex 23.5476574278146 -78.4173409859685 46.2458428330732
      vertex 22.8813029628707 -79.6977521014498 45.780409145782
      vertex 22.6430863672931 -78.7069562462986 45.8119675558316
   endloop
endfacet
facet normal 0.39648495999553 0.124298496465304 -0.90958757702258
   outer loop
      vertex 22.8813029628707 -79.6977521014498 45.780409145782
      vertex 23.5476574278146 -78.4173409859685 46.2458428330732
      vertex 23.9271680230452 -79.3628989374563 46.282055741329
   endloop
endfacet
facet normal -0.205107190987741 0.0807822969488918 -0.975400051622297
   outer loop
      vertex 19.5816201271415 -78.7042245002951 45.811969604034
      vertex 20.4138179911449 -79.8553778801453 45.54163685189
      vertex 19.3416356960068 -79.6945936567206 45.7804115139137
   endloop
endfacet
facet normal -0.205107190987741 0.0807822969488918 -0.975400051622297
   outer loop
      vertex 20.4138179911449 -79.8553778801453 45.54163685189
      vertex 19.5816201271415 -78.7042245002951 45.811969604034
      vertex 20.481925099815 -78.8392340378831 45.6114719680043
   endloop
endfacet
facet normal 0.687189217511934 0.726414103922185 -0.00967103708315122
   outer loop
      vertex 24.2888116233181 -75.2982794326052 50.9065450853972
      vertex 25.3872282556564 -76.3387772359276 50.8018806790845
      vertex 24.8104668315605 -75.8017712735234 50.1550496638597
   endloop
endfacet
facet normal 0.687189217511934 0.726414103922185 -0.00967103708315122
   outer loop
      vertex 25.3872282556564 -76.3387772359276 50.8018806790845
      vertex 24.2888116233181 -75.2982794326052 50.9065450853972
      vertex 24.7840905038859 -75.7566399694576 51.6707596854657
   endloop
endfacet
facet normal 0.766290140557655 0.619990171801745 -0.168557430430616
   outer loop
      vertex 25.0802268515093 -76.363064991118 49.3168656429097
      vertex 25.3872282556564 -76.3387772359276 50.8018806790845
      vertex 25.6991247907208 -76.9877450322103 49.8327723140616
   endloop
endfacet
facet normal 0.766290140557655 0.619990171801745 -0.168557430430616
   outer loop
      vertex 25.3872282556564 -76.3387772359276 50.8018806790845
      vertex 25.0802268515093 -76.363064991118 49.3168656429097
      vertex 24.8104668315605 -75.8017712735234 50.1550496638597
   endloop
endfacet
facet normal 0.793200443632358 0.505834956473934 -0.339063494098737
   outer loop
      vertex 25.0797079836036 -76.9439093461162 48.4491138784098
      vertex 25.6991247907208 -76.9877450322103 49.8327723140616
      vertex 25.6985248756483 -77.6593172754593 48.8294777239472
   endloop
endfacet
facet normal 0.793200443632358 0.505834956473934 -0.339063494098737
   outer loop
      vertex 25.6991247907208 -76.9877450322103 49.8327723140616
      vertex 25.0797079836036 -76.9439093461162 48.4491138784098
      vertex 25.0802268515093 -76.363064991118 49.3168656429097
   endloop
endfacet
facet normal 0.766086234052562 0.391727947212793 -0.509569521623512
   outer loop
      vertex 24.8089455878335 -77.5047207556161 47.6109302190838
      vertex 25.6985248756483 -77.6593172754593 48.8294777239472
      vertex 25.3854693936588 -78.307727427123 47.860369777034
   endloop
endfacet
facet normal 0.766086234052562 0.391727947212793 -0.509569521623512
   outer loop
      vertex 25.6985248756483 -77.6593172754593 48.8294777239472
      vertex 24.8089455878335 -77.5047207556161 47.6109302190838
      vertex 25.0797079836036 -76.9439093461162 48.4491138784098
   endloop
endfacet
facet normal 0.686795300393168 0.285445348129555 -0.668455809002402
   outer loop
      vertex 24.286391674016 -78.0072808488448 46.85943549615
      vertex 25.3854693936588 -78.307727427123 47.860369777034
      vertex 24.7812925585025 -78.8887874069136 46.991491578378
   endloop
endfacet
facet normal 0.686795300393168 0.285445348129555 -0.668455809002402
   outer loop
      vertex 25.3854693936588 -78.307727427123 47.860369777034
      vertex 24.286391674016 -78.0072808488448 46.85943549615
      vertex 24.8089455878335 -77.5047207556161 47.6109302190838
   endloop
endfacet
facet normal -0.342792225896476 -0.935431679442111 -0.0863774447471697
   outer loop
      vertex 20.2055764721138 -80.2791725678652 48.6825748236483
      vertex 18.2963705509047 -79.3578745774652 46.2820595084818
      vertex 19.3416356960068 -79.6945936567206 45.7804115139137
   endloop
endfacet
facet normal -0.342792225896476 -0.935431679442111 -0.0863774447471697
   outer loop
      vertex 18.2963705509047 -79.3578745774652 46.2820595084818
      vertex 20.2055764721138 -80.2791725678652 48.6825748236483
      vertex 20.1344726354621 -80.3595714627166 49.8354396249092
   endloop
endfacet
facet normal -0.483900931088099 -0.33683958699663 0.807699809040469
   outer loop
      vertex 20.091881758474 -79.4624247754757 51.7078280217115
      vertex 18.3000169043201 -75.2759805654929 52.3802004319651
      vertex 17.4458923688625 -75.7500920960355 51.6707645949154
   endloop
endfacet
facet normal -0.483900931088099 -0.33683958699663 0.807699809040469
   outer loop
      vertex 18.3000169043201 -75.2759805654929 52.3802004319651
      vertex 20.091881758474 -79.4624247754757 51.7078280217115
      vertex 20.1172698067728 -78.9070326088875 51.95465656617
   endloop
endfacet
endsolid 黑熊2015-3列印d
