solid OpenSCAD_Model
  facet normal -1 0 0
    outer loop
      vertex -33 -7 0
      vertex -33 -7 4
      vertex -33 7 0
    endloop
  endfacet
  facet normal -1 0 0
    outer loop
      vertex -33 7 0
      vertex -33 -7 4
      vertex -33 7 4
    endloop
  endfacet
  facet normal -0.998027 -0.0627907 0
    outer loop
      vertex -33 -7 0
      vertex -32.9763 -7.376 0
      vertex -33 -7 4
    endloop
  endfacet
  facet normal -0.998027 -0.0627907 0
    outer loop
      vertex -33 -7 4
      vertex -32.9763 -7.376 0
      vertex -32.9763 -7.376 4
    endloop
  endfacet
  facet normal 0 0 -1
    outer loop
      vertex -33 -7 0
      vertex -33 7 0
      vertex -32.9763 -7.376 0
    endloop
  endfacet
  facet normal 0 0 -1
    outer loop
      vertex -32.9763 -7.376 0
      vertex -33 7 0
      vertex -32.9763 7.376 0
    endloop
  endfacet
  facet normal 0 0 -1
    outer loop
      vertex -32.9763 -7.376 0
      vertex -32.9763 7.376 0
      vertex -32.9057 7.74607 0
    endloop
  endfacet
  facet normal 0 0 -1
    outer loop
      vertex -32.9763 -7.376 0
      vertex -32.9057 7.74607 0
      vertex -32.7893 8.10437 0
    endloop
  endfacet
  facet normal 0 0 -1
    outer loop
      vertex -32.9763 -7.376 0
      vertex -32.7893 8.10437 0
      vertex -32.6289 8.44526 0
    endloop
  endfacet
  facet normal 0 0 -1
    outer loop
      vertex -32.9763 -7.376 0
      vertex -32.6289 8.44526 0
      vertex -32.4271 8.76336 0
    endloop
  endfacet
  facet normal 0 0 -1
    outer loop
      vertex -32.9763 -7.376 0
      vertex -32.4271 8.76336 0
      vertex -32.1869 9.05364 0
    endloop
  endfacet
  facet normal 0 0 -1
    outer loop
      vertex -32.9763 -7.376 0
      vertex -32.1869 9.05364 0
      vertex -31.9123 9.31154 0
    endloop
  endfacet
  facet normal 0 0 -1
    outer loop
      vertex -32.9763 -7.376 0
      vertex -31.9123 9.31154 0
      vertex -31.6075 9.53298 0
    endloop
  endfacet
  facet normal 0 0 -1
    outer loop
      vertex -32.9763 -7.376 0
      vertex -31.6075 9.53298 0
      vertex -31.2773 9.71448 0
    endloop
  endfacet
  facet normal 0 0 -1
    outer loop
      vertex -32.9763 -7.376 0
      vertex -31.2773 9.71448 0
      vertex -30.9271 9.85317 0
    endloop
  endfacet
  facet normal 0 0 -1
    outer loop
      vertex -32 0 0
      vertex -30.9271 9.85317 0
      vertex -30.5621 9.94686 0
    endloop
  endfacet
  facet normal 0 0 -1
    outer loop
      vertex -31.809 0.587785 0
      vertex -30.5621 9.94686 0
      vertex -30.1884 9.99408 0
    endloop
  endfacet
  facet normal 0 0 -1
    outer loop
      vertex -31.5878 0.809017 0
      vertex -30.1884 9.99408 0
      vertex -30 9.99408 0
    endloop
  endfacet
  facet normal 0 0 -1
    outer loop
      vertex -30 9.99408 0
      vertex -30 10 0
      vertex -2 10 0
    endloop
  endfacet
  facet normal 0 0 -1
    outer loop
      vertex -28.5 -6.25 0
      vertex -30.0489 0.309017 0
      vertex -28.5 6.25 0
    endloop
  endfacet
  facet normal 0 0 -1
    outer loop
      vertex -5.5 6.25 0
      vertex -2 10 0
      vertex 7 1.5 0
    endloop
  endfacet
  facet normal 0 0 -1
    outer loop
      vertex 7 -1.5 0
      vertex 7 1.5 0
      vertex 40 1.5 0
    endloop
  endfacet
  facet normal 0 0 -1
    outer loop
      vertex -2 -10 0
      vertex -5.5 -6.25 0
      vertex 7 -1.5 0
    endloop
  endfacet
  facet normal 0 0 -1
    outer loop
      vertex -2.69098 -0.951057 0
      vertex 7 1.5 0
      vertex 7 -1.5 0
    endloop
  endfacet
  facet normal 0 0 -1
    outer loop
      vertex -5.5 6.25 0
      vertex -4 0 0
      vertex -3.95106 -0.309017 0
    endloop
  endfacet
  facet normal 0 0 -1
    outer loop
      vertex -30.1884 -9.99408 0
      vertex -32.9763 -7.376 0
      vertex -30 -9.99408 0
    endloop
  endfacet
  facet normal 0 0 -1
    outer loop
      vertex -30 -9.99408 0
      vertex -2 -10 0
      vertex -30 -10 0
    endloop
  endfacet
  facet normal 0 0 -1
    outer loop
      vertex -32.9763 -7.376 0
      vertex -2 -10 0
      vertex -30 -9.99408 0
    endloop
  endfacet
  facet normal 0 0 -1
    outer loop
      vertex -28.5 6.25 0
      vertex -2 10 0
      vertex -5.5 6.25 0
    endloop
  endfacet
  facet normal 0 0 -1
    outer loop
      vertex -31.9511 -0.309017 0
      vertex -32.9763 -7.376 0
      vertex -32 0 0
    endloop
  endfacet
  facet normal 0 0 -1
    outer loop
      vertex -32.9763 -7.376 0
      vertex -30.1884 -9.99408 0
      vertex -30.5621 -9.94686 0
    endloop
  endfacet
  facet normal 0 0 -1
    outer loop
      vertex -32.9763 -7.376 0
      vertex -30.5621 -9.94686 0
      vertex -30.9271 -9.85317 0
    endloop
  endfacet
  facet normal 0 0 -1
    outer loop
      vertex -32.9763 -7.376 0
      vertex -30.9271 -9.85317 0
      vertex -31.2773 -9.71448 0
    endloop
  endfacet
  facet normal 0 0 -1
    outer loop
      vertex -32.9763 -7.376 0
      vertex -31.2773 -9.71448 0
      vertex -31.6075 -9.53298 0
    endloop
  endfacet
  facet normal 0 0 -1
    outer loop
      vertex -32.9763 -7.376 0
      vertex -31.6075 -9.53298 0
      vertex -31.9123 -9.31154 0
    endloop
  endfacet
  facet normal 0 0 -1
    outer loop
      vertex -32.9763 -7.376 0
      vertex -31.9123 -9.31154 0
      vertex -32.1869 -9.05364 0
    endloop
  endfacet
  facet normal 0 0 -1
    outer loop
      vertex -32.9763 -7.376 0
      vertex -32.1869 -9.05364 0
      vertex -32.4271 -8.76336 0
    endloop
  endfacet
  facet normal 0 0 -1
    outer loop
      vertex -32.9763 -7.376 0
      vertex -32.4271 -8.76336 0
      vertex -32.6289 -8.44526 0
    endloop
  endfacet
  facet normal 0 0 -1
    outer loop
      vertex -32.9763 -7.376 0
      vertex -32.6289 -8.44526 0
      vertex -32.7893 -8.10437 0
    endloop
  endfacet
  facet normal 0 0 -1
    outer loop
      vertex -32.9763 -7.376 0
      vertex -32.7893 -8.10437 0
      vertex -32.9057 -7.74607 0
    endloop
  endfacet
  facet normal 0 0 -1
    outer loop
      vertex -32.9763 -7.376 0
      vertex -30.9271 9.85317 0
      vertex -32 0 0
    endloop
  endfacet
  facet normal 0 0 -1
    outer loop
      vertex -31.9511 0.309017 0
      vertex -32 0 0
      vertex -30.5621 9.94686 0
    endloop
  endfacet
  facet normal 0 0 -1
    outer loop
      vertex -31.809 -0.587785 0
      vertex -32.9763 -7.376 0
      vertex -31.9511 -0.309017 0
    endloop
  endfacet
  facet normal 0 0 -1
    outer loop
      vertex -31.5878 0.809017 0
      vertex -30 9.99408 0
      vertex -31.309 0.951057 0
    endloop
  endfacet
  facet normal 0 0 -1
    outer loop
      vertex -28.5 -6.25 0
      vertex -30.0489 -0.309017 0
      vertex -30 0 0
    endloop
  endfacet
  facet normal 0 0 -1
    outer loop
      vertex -28.5 -6.25 0
      vertex -30.691 -0.951057 0
      vertex -30.4122 -0.809017 0
    endloop
  endfacet
  facet normal 0 0 -1
    outer loop
      vertex -31.809 -0.587785 0
      vertex -31.5878 -0.809017 0
      vertex -32.9763 -7.376 0
    endloop
  endfacet
  facet normal 0 0 -1
    outer loop
      vertex -28.5 -6.25 0
      vertex -30.4122 -0.809017 0
      vertex -30.191 -0.587785 0
    endloop
  endfacet
  facet normal 0 0 -1
    outer loop
      vertex -31.5878 -0.809017 0
      vertex -31.309 -0.951057 0
      vertex -32.9763 -7.376 0
    endloop
  endfacet
  facet normal 0 0 -1
    outer loop
      vertex -28.5 -6.25 0
      vertex -30.191 -0.587785 0
      vertex -30.0489 -0.309017 0
    endloop
  endfacet
  facet normal 0 0 -1
    outer loop
      vertex -31.309 -0.951057 0
      vertex -31 -1 0
      vertex -32.9763 -7.376 0
    endloop
  endfacet
  facet normal 0 0 -1
    outer loop
      vertex -28.5 -6.25 0
      vertex -30 0 0
      vertex -30.0489 0.309017 0
    endloop
  endfacet
  facet normal 0 0 -1
    outer loop
      vertex -31 -1 0
      vertex -30.691 -0.951057 0
      vertex -32.9763 -7.376 0
    endloop
  endfacet
  facet normal 0 0 -1
    outer loop
      vertex -28.5 -6.25 0
      vertex -32.9763 -7.376 0
      vertex -30.691 -0.951057 0
    endloop
  endfacet
  facet normal 0 0 -1
    outer loop
      vertex -30 9.99408 0
      vertex -30.0489 0.309017 0
      vertex -30.191 0.587785 0
    endloop
  endfacet
  facet normal 0 0 -1
    outer loop
      vertex -30 9.99408 0
      vertex -30.191 0.587785 0
      vertex -30.4122 0.809017 0
    endloop
  endfacet
  facet normal 0 0 -1
    outer loop
      vertex -30 9.99408 0
      vertex -30.4122 0.809017 0
      vertex -30.691 0.951057 0
    endloop
  endfacet
  facet normal 0 0 -1
    outer loop
      vertex -30 9.99408 0
      vertex -30.691 0.951057 0
      vertex -31 1 0
    endloop
  endfacet
  facet normal 0 0 -1
    outer loop
      vertex -30 9.99408 0
      vertex -31 1 0
      vertex -31.309 0.951057 0
    endloop
  endfacet
  facet normal 0 0 -1
    outer loop
      vertex -5.5 -6.25 0
      vertex -32.9763 -7.376 0
      vertex -28.5 -6.25 0
    endloop
  endfacet
  facet normal 0 0 -1
    outer loop
      vertex -31.9511 0.309017 0
      vertex -30.5621 9.94686 0
      vertex -31.809 0.587785 0
    endloop
  endfacet
  facet normal 0 0 -1
    outer loop
      vertex -31.809 0.587785 0
      vertex -30.1884 9.99408 0
      vertex -31.5878 0.809017 0
    endloop
  endfacet
  facet normal 0 0 -1
    outer loop
      vertex -30 9.99408 0
      vertex -2 10 0
      vertex -28.5 6.25 0
    endloop
  endfacet
  facet normal 0 0 -1
    outer loop
      vertex -30 9.99408 0
      vertex -28.5 6.25 0
      vertex -30.0489 0.309017 0
    endloop
  endfacet
  facet normal 0 0 -1
    outer loop
      vertex -3.58778 -0.809017 0
      vertex -3.30902 -0.951057 0
      vertex -5.5 -6.25 0
    endloop
  endfacet
  facet normal 0 0 -1
    outer loop
      vertex -32.9763 -7.376 0
      vertex -5.5 -6.25 0
      vertex -2 -10 0
    endloop
  endfacet
  facet normal 0 0 -1
    outer loop
      vertex -5.5 6.25 0
      vertex -3.95106 -0.309017 0
      vertex -5.5 -6.25 0
    endloop
  endfacet
  facet normal 0 0 -1
    outer loop
      vertex -2.19098 0.587785 0
      vertex -5.5 6.25 0
      vertex 7 1.5 0
    endloop
  endfacet
  facet normal 0 0 -1
    outer loop
      vertex -2.69098 -0.951057 0
      vertex 7 -1.5 0
      vertex -3 -1 0
    endloop
  endfacet
  facet normal 0 0 -1
    outer loop
      vertex -2.04894 -0.309017 0
      vertex 7 1.5 0
      vertex -2.19098 -0.587785 0
    endloop
  endfacet
  facet normal 0 0 -1
    outer loop
      vertex -2.41221 -0.809017 0
      vertex 7 1.5 0
      vertex -2.69098 -0.951057 0
    endloop
  endfacet
  facet normal 0 0 -1
    outer loop
      vertex -2.19098 -0.587785 0
      vertex 7 1.5 0
      vertex -2.41221 -0.809017 0
    endloop
  endfacet
  facet normal 0 0 -1
    outer loop
      vertex -3.30902 -0.951057 0
      vertex -3 -1 0
      vertex -5.5 -6.25 0
    endloop
  endfacet
  facet normal 0 0 -1
    outer loop
      vertex -3 -1 0
      vertex 7 -1.5 0
      vertex -5.5 -6.25 0
    endloop
  endfacet
  facet normal 0 0 -1
    outer loop
      vertex -2 0 0
      vertex 7 1.5 0
      vertex -2.04894 -0.309017 0
    endloop
  endfacet
  facet normal 0 0 -1
    outer loop
      vertex -2.04894 0.309017 0
      vertex 7 1.5 0
      vertex -2 0 0
    endloop
  endfacet
  facet normal 0 0 -1
    outer loop
      vertex -2.41221 0.809017 0
      vertex -5.5 6.25 0
      vertex -2.19098 0.587785 0
    endloop
  endfacet
  facet normal 0 0 -1
    outer loop
      vertex -2.04894 0.309017 0
      vertex -2.19098 0.587785 0
      vertex 7 1.5 0
    endloop
  endfacet
  facet normal 0 0 -1
    outer loop
      vertex -2.69098 0.951057 0
      vertex -5.5 6.25 0
      vertex -2.41221 0.809017 0
    endloop
  endfacet
  facet normal 0 0 -1
    outer loop
      vertex -3 1 0
      vertex -5.5 6.25 0
      vertex -2.69098 0.951057 0
    endloop
  endfacet
  facet normal 0 0 -1
    outer loop
      vertex -3.30902 0.951057 0
      vertex -5.5 6.25 0
      vertex -3 1 0
    endloop
  endfacet
  facet normal 0 0 -1
    outer loop
      vertex -3.58778 0.809017 0
      vertex -5.5 6.25 0
      vertex -3.30902 0.951057 0
    endloop
  endfacet
  facet normal 0 0 -1
    outer loop
      vertex -3.80902 0.587785 0
      vertex -5.5 6.25 0
      vertex -3.58778 0.809017 0
    endloop
  endfacet
  facet normal 0 0 -1
    outer loop
      vertex -3.95106 0.309017 0
      vertex -5.5 6.25 0
      vertex -3.80902 0.587785 0
    endloop
  endfacet
  facet normal 0 0 -1
    outer loop
      vertex -4 0 0
      vertex -5.5 6.25 0
      vertex -3.95106 0.309017 0
    endloop
  endfacet
  facet normal 0 0 -1
    outer loop
      vertex 7 -1.5 0
      vertex 40 1.5 0
      vertex 40 -1.5 0
    endloop
  endfacet
  facet normal 0 0 -1
    outer loop
      vertex -3.80902 -0.587785 0
      vertex -3.58778 -0.809017 0
      vertex -5.5 -6.25 0
    endloop
  endfacet
  facet normal 0 0 -1
    outer loop
      vertex -3.95106 -0.309017 0
      vertex -3.80902 -0.587785 0
      vertex -5.5 -6.25 0
    endloop
  endfacet
  facet normal -0.998027 0.0627907 0
    outer loop
      vertex -33 7 0
      vertex -33 7 4
      vertex -32.9763 7.376 0
    endloop
  endfacet
  facet normal -0.998027 0.0627907 0
    outer loop
      vertex -32.9763 7.376 0
      vertex -33 7 4
      vertex -32.9763 7.376 4
    endloop
  endfacet
  facet normal 0 0 1
    outer loop
      vertex -33 7 4
      vertex -33 -7 4
      vertex -32.9763 -7.376 4
    endloop
  endfacet
  facet normal 0 0 1
    outer loop
      vertex -32.7893 -8.10437 4
      vertex -33 7 4
      vertex -32.9057 -7.74607 4
    endloop
  endfacet
  facet normal 0 0 1
    outer loop
      vertex -32.9057 -7.74607 4
      vertex -33 7 4
      vertex -32.9763 -7.376 4
    endloop
  endfacet
  facet normal 0 0 1
    outer loop
      vertex -32.6289 -8.44526 4
      vertex -33 7 4
      vertex -32.7893 -8.10437 4
    endloop
  endfacet
  facet normal 0 0 1
    outer loop
      vertex -32.4271 -8.76336 4
      vertex -33 7 4
      vertex -32.6289 -8.44526 4
    endloop
  endfacet
  facet normal 0 0 1
    outer loop
      vertex -32.1869 -9.05364 4
      vertex -33 7 4
      vertex -32.4271 -8.76336 4
    endloop
  endfacet
  facet normal 0 0 1
    outer loop
      vertex -31.9123 -9.31154 4
      vertex -33 7 4
      vertex -32.1869 -9.05364 4
    endloop
  endfacet
  facet normal 0 0 1
    outer loop
      vertex -31.6075 -9.53298 4
      vertex -33 7 4
      vertex -31.9123 -9.31154 4
    endloop
  endfacet
  facet normal 0 0 1
    outer loop
      vertex -31.2773 -9.71448 4
      vertex -33 7 4
      vertex -31.6075 -9.53298 4
    endloop
  endfacet
  facet normal 0 0 1
    outer loop
      vertex -30.9271 -9.85317 4
      vertex -33 7 4
      vertex -31.2773 -9.71448 4
    endloop
  endfacet
  facet normal 0 0 1
    outer loop
      vertex -32 0 4
      vertex -33 7 4
      vertex -30.9271 -9.85317 4
    endloop
  endfacet
  facet normal 0 0 1
    outer loop
      vertex -32 0 4
      vertex -31.9511 0.309017 4
      vertex -33 7 4
    endloop
  endfacet
  facet normal 0 0 1
    outer loop
      vertex -31.5878 -0.809017 4
      vertex -31.809 -0.587785 4
      vertex -30.1884 -9.99408 4
    endloop
  endfacet
  facet normal 0 0 1
    outer loop
      vertex -2 0 4
      vertex -2.04894 -0.309017 4
      vertex 7 -1.5 4
    endloop
  endfacet
  facet normal 0 0 1
    outer loop
      vertex -2 -10 4
      vertex -30 -9.99408 4
      vertex -30 -10 4
    endloop
  endfacet
  facet normal 0 0 1
    outer loop
      vertex -28.5 6.25 4
      vertex -5.5 6.25 4
      vertex -33 7 4
    endloop
  endfacet
  facet normal 0 0 1
    outer loop
      vertex -30 9.99408 4
      vertex -30.1884 9.99408 4
      vertex -33 7 4
    endloop
  endfacet
  facet normal 0 0 1
    outer loop
      vertex 40 -1.5 4
      vertex 7 1.5 4
      vertex 7 -1.5 4
    endloop
  endfacet
  facet normal 0 0 1
    outer loop
      vertex -30 9.99408 4
      vertex -33 7 4
      vertex -2 10 4
    endloop
  endfacet
  facet normal 0 0 1
    outer loop
      vertex -31.5878 -0.809017 4
      vertex -30.1884 -9.99408 4
      vertex -30 -9.99408 4
    endloop
  endfacet
  facet normal 0 0 1
    outer loop
      vertex -30 10 4
      vertex -30 9.99408 4
      vertex -2 10 4
    endloop
  endfacet
  facet normal 0 0 1
    outer loop
      vertex -30.5621 9.94686 4
      vertex -33 7 4
      vertex -30.1884 9.99408 4
    endloop
  endfacet
  facet normal 0 0 1
    outer loop
      vertex -30.9271 9.85317 4
      vertex -33 7 4
      vertex -30.5621 9.94686 4
    endloop
  endfacet
  facet normal 0 0 1
    outer loop
      vertex -31.2773 9.71448 4
      vertex -33 7 4
      vertex -30.9271 9.85317 4
    endloop
  endfacet
  facet normal 0 0 1
    outer loop
      vertex -31.6075 9.53298 4
      vertex -33 7 4
      vertex -31.2773 9.71448 4
    endloop
  endfacet
  facet normal 0 0 1
    outer loop
      vertex -31.9123 9.31154 4
      vertex -33 7 4
      vertex -31.6075 9.53298 4
    endloop
  endfacet
  facet normal 0 0 1
    outer loop
      vertex -32.1869 9.05364 4
      vertex -33 7 4
      vertex -31.9123 9.31154 4
    endloop
  endfacet
  facet normal 0 0 1
    outer loop
      vertex -32.4271 8.76336 4
      vertex -33 7 4
      vertex -32.1869 9.05364 4
    endloop
  endfacet
  facet normal 0 0 1
    outer loop
      vertex -32.6289 8.44526 4
      vertex -33 7 4
      vertex -32.4271 8.76336 4
    endloop
  endfacet
  facet normal 0 0 1
    outer loop
      vertex -32.7893 8.10437 4
      vertex -33 7 4
      vertex -32.6289 8.44526 4
    endloop
  endfacet
  facet normal 0 0 1
    outer loop
      vertex -32.9057 7.74607 4
      vertex -33 7 4
      vertex -32.7893 8.10437 4
    endloop
  endfacet
  facet normal 0 0 1
    outer loop
      vertex -32.9763 7.376 4
      vertex -33 7 4
      vertex -32.9057 7.74607 4
    endloop
  endfacet
  facet normal 0 0 1
    outer loop
      vertex -30.5621 -9.94686 4
      vertex -31.9511 -0.309017 4
      vertex -30.9271 -9.85317 4
    endloop
  endfacet
  facet normal 0 0 1
    outer loop
      vertex -31.9511 -0.309017 4
      vertex -32 0 4
      vertex -30.9271 -9.85317 4
    endloop
  endfacet
  facet normal 0 0 1
    outer loop
      vertex -30.4122 0.809017 4
      vertex -33 7 4
      vertex -30.691 0.951057 4
    endloop
  endfacet
  facet normal 0 0 1
    outer loop
      vertex -28.5 -6.25 4
      vertex -30.0489 0.309017 4
      vertex -30 0 4
    endloop
  endfacet
  facet normal 0 0 1
    outer loop
      vertex -30.191 0.587785 4
      vertex -33 7 4
      vertex -30.4122 0.809017 4
    endloop
  endfacet
  facet normal 0 0 1
    outer loop
      vertex -31.5878 0.809017 4
      vertex -33 7 4
      vertex -31.809 0.587785 4
    endloop
  endfacet
  facet normal 0 0 1
    outer loop
      vertex -31.309 0.951057 4
      vertex -33 7 4
      vertex -31.5878 0.809017 4
    endloop
  endfacet
  facet normal 0 0 1
    outer loop
      vertex -31 1 4
      vertex -33 7 4
      vertex -31.309 0.951057 4
    endloop
  endfacet
  facet normal 0 0 1
    outer loop
      vertex -30.691 0.951057 4
      vertex -33 7 4
      vertex -31 1 4
    endloop
  endfacet
  facet normal 0 0 1
    outer loop
      vertex -3 1 4
      vertex -2.69098 0.951057 4
      vertex 7 1.5 4
    endloop
  endfacet
  facet normal 0 0 1
    outer loop
      vertex -31.309 -0.951057 4
      vertex -31.5878 -0.809017 4
      vertex -30 -9.99408 4
    endloop
  endfacet
  facet normal 0 0 1
    outer loop
      vertex -28.5 -6.25 4
      vertex -30.0489 -0.309017 4
      vertex -30 -9.99408 4
    endloop
  endfacet
  facet normal 0 0 1
    outer loop
      vertex -30.0489 -0.309017 4
      vertex -30.191 -0.587785 4
      vertex -30 -9.99408 4
    endloop
  endfacet
  facet normal 0 0 1
    outer loop
      vertex -30.191 -0.587785 4
      vertex -30.4122 -0.809017 4
      vertex -30 -9.99408 4
    endloop
  endfacet
  facet normal 0 0 1
    outer loop
      vertex -30.4122 -0.809017 4
      vertex -30.691 -0.951057 4
      vertex -30 -9.99408 4
    endloop
  endfacet
  facet normal 0 0 1
    outer loop
      vertex -30.691 -0.951057 4
      vertex -31 -1 4
      vertex -30 -9.99408 4
    endloop
  endfacet
  facet normal 0 0 1
    outer loop
      vertex -31 -1 4
      vertex -31.309 -0.951057 4
      vertex -30 -9.99408 4
    endloop
  endfacet
  facet normal 0 0 1
    outer loop
      vertex -30.1884 -9.99408 4
      vertex -31.809 -0.587785 4
      vertex -30.5621 -9.94686 4
    endloop
  endfacet
  facet normal 0 0 1
    outer loop
      vertex -28.5 -6.25 4
      vertex -30 0 4
      vertex -30.0489 -0.309017 4
    endloop
  endfacet
  facet normal 0 0 1
    outer loop
      vertex -2 -10 4
      vertex -28.5 -6.25 4
      vertex -30 -9.99408 4
    endloop
  endfacet
  facet normal 0 0 1
    outer loop
      vertex -5.5 6.25 4
      vertex -3 1 4
      vertex 7 1.5 4
    endloop
  endfacet
  facet normal 0 0 1
    outer loop
      vertex -2 10 4
      vertex -33 7 4
      vertex -5.5 6.25 4
    endloop
  endfacet
  facet normal 0 0 1
    outer loop
      vertex 7 -1.5 4
      vertex -5.5 -6.25 4
      vertex -2 -10 4
    endloop
  endfacet
  facet normal 0 0 1
    outer loop
      vertex -5.5 6.25 4
      vertex -3.80902 0.587785 4
      vertex -3.58778 0.809017 4
    endloop
  endfacet
  facet normal 0 0 1
    outer loop
      vertex -3.80902 -0.587785 4
      vertex -3.95106 -0.309017 4
      vertex -5.5 -6.25 4
    endloop
  endfacet
  facet normal 0 0 1
    outer loop
      vertex -5.5 6.25 4
      vertex -3.58778 0.809017 4
      vertex -3.30902 0.951057 4
    endloop
  endfacet
  facet normal 0 0 1
    outer loop
      vertex -2.04894 -0.309017 4
      vertex -2.19098 -0.587785 4
      vertex 7 -1.5 4
    endloop
  endfacet
  facet normal 0 0 1
    outer loop
      vertex -2.04894 0.309017 4
      vertex -2 0 4
      vertex 7 -1.5 4
    endloop
  endfacet
  facet normal 0 0 1
    outer loop
      vertex -2.19098 0.587785 4
      vertex -2.04894 0.309017 4
      vertex 7 -1.5 4
    endloop
  endfacet
  facet normal 0 0 1
    outer loop
      vertex -2.41221 0.809017 4
      vertex -2.19098 0.587785 4
      vertex 7 -1.5 4
    endloop
  endfacet
  facet normal 0 0 1
    outer loop
      vertex 7 1.5 4
      vertex -2.69098 0.951057 4
      vertex 7 -1.5 4
    endloop
  endfacet
  facet normal 0 0 1
    outer loop
      vertex -2.69098 0.951057 4
      vertex -2.41221 0.809017 4
      vertex 7 -1.5 4
    endloop
  endfacet
  facet normal 0 0 1
    outer loop
      vertex -5.5 6.25 4
      vertex -3.30902 0.951057 4
      vertex -3 1 4
    endloop
  endfacet
  facet normal 0 0 1
    outer loop
      vertex 7 -1.5 4
      vertex -2.19098 -0.587785 4
      vertex -5.5 -6.25 4
    endloop
  endfacet
  facet normal 0 0 1
    outer loop
      vertex -2.19098 -0.587785 4
      vertex -2.41221 -0.809017 4
      vertex -5.5 -6.25 4
    endloop
  endfacet
  facet normal 0 0 1
    outer loop
      vertex -2.41221 -0.809017 4
      vertex -2.69098 -0.951057 4
      vertex -5.5 -6.25 4
    endloop
  endfacet
  facet normal 0 0 1
    outer loop
      vertex -2.69098 -0.951057 4
      vertex -3 -1 4
      vertex -5.5 -6.25 4
    endloop
  endfacet
  facet normal 0 0 1
    outer loop
      vertex -3 -1 4
      vertex -3.30902 -0.951057 4
      vertex -5.5 -6.25 4
    endloop
  endfacet
  facet normal 0 0 1
    outer loop
      vertex -3.30902 -0.951057 4
      vertex -3.58778 -0.809017 4
      vertex -5.5 -6.25 4
    endloop
  endfacet
  facet normal 0 0 1
    outer loop
      vertex -3.58778 -0.809017 4
      vertex -3.80902 -0.587785 4
      vertex -5.5 -6.25 4
    endloop
  endfacet
  facet normal 0 0 1
    outer loop
      vertex -31.809 -0.587785 4
      vertex -31.9511 -0.309017 4
      vertex -30.5621 -9.94686 4
    endloop
  endfacet
  facet normal 0 0 1
    outer loop
      vertex 40 1.5 4
      vertex 7 1.5 4
      vertex 40 -1.5 4
    endloop
  endfacet
  facet normal 0 0 1
    outer loop
      vertex 7 1.5 4
      vertex -2 10 4
      vertex -5.5 6.25 4
    endloop
  endfacet
  facet normal 0 0 1
    outer loop
      vertex -31.9511 0.309017 4
      vertex -31.809 0.587785 4
      vertex -33 7 4
    endloop
  endfacet
  facet normal 0 0 1
    outer loop
      vertex -30.0489 0.309017 4
      vertex -33 7 4
      vertex -30.191 0.587785 4
    endloop
  endfacet
  facet normal 0 0 1
    outer loop
      vertex -5.5 6.25 4
      vertex -3.95106 0.309017 4
      vertex -3.80902 0.587785 4
    endloop
  endfacet
  facet normal 0 0 1
    outer loop
      vertex -5.5 6.25 4
      vertex -4 0 4
      vertex -3.95106 0.309017 4
    endloop
  endfacet
  facet normal 0 0 1
    outer loop
      vertex -5.5 -6.25 4
      vertex -28.5 -6.25 4
      vertex -2 -10 4
    endloop
  endfacet
  facet normal 0 0 1
    outer loop
      vertex -30.0489 0.309017 4
      vertex -28.5 6.25 4
      vertex -33 7 4
    endloop
  endfacet
  facet normal 0 0 1
    outer loop
      vertex -28.5 -6.25 4
      vertex -28.5 6.25 4
      vertex -30.0489 0.309017 4
    endloop
  endfacet
  facet normal 0 0 1
    outer loop
      vertex -5.5 6.25 4
      vertex -3.95106 -0.309017 4
      vertex -4 0 4
    endloop
  endfacet
  facet normal 0 0 1
    outer loop
      vertex -5.5 6.25 4
      vertex -5.5 -6.25 4
      vertex -3.95106 -0.309017 4
    endloop
  endfacet
  facet normal -0.982287 -0.187382 0
    outer loop
      vertex -32.9763 -7.376 0
      vertex -32.9057 -7.74607 0
      vertex -32.9763 -7.376 4
    endloop
  endfacet
  facet normal -0.982287 -0.187382 0
    outer loop
      vertex -32.9763 -7.376 4
      vertex -32.9057 -7.74607 0
      vertex -32.9057 -7.74607 4
    endloop
  endfacet
  facet normal -0.951057 -0.309017 0
    outer loop
      vertex -32.9057 -7.74607 0
      vertex -32.7893 -8.10437 0
      vertex -32.9057 -7.74607 4
    endloop
  endfacet
  facet normal -0.951057 -0.309017 0
    outer loop
      vertex -32.9057 -7.74607 4
      vertex -32.7893 -8.10437 0
      vertex -32.7893 -8.10437 4
    endloop
  endfacet
  facet normal -0.904827 -0.425779 0
    outer loop
      vertex -32.7893 -8.10437 0
      vertex -32.6289 -8.44526 0
      vertex -32.7893 -8.10437 4
    endloop
  endfacet
  facet normal -0.904827 -0.425779 0
    outer loop
      vertex -32.7893 -8.10437 4
      vertex -32.6289 -8.44526 0
      vertex -32.6289 -8.44526 4
    endloop
  endfacet
  facet normal -0.844328 -0.535826 0
    outer loop
      vertex -32.6289 -8.44526 0
      vertex -32.4271 -8.76336 0
      vertex -32.6289 -8.44526 4
    endloop
  endfacet
  facet normal -0.844328 -0.535826 0
    outer loop
      vertex -32.6289 -8.44526 4
      vertex -32.4271 -8.76336 0
      vertex -32.4271 -8.76336 4
    endloop
  endfacet
  facet normal -0.770513 -0.637425 0
    outer loop
      vertex -32.4271 -8.76336 0
      vertex -32.1869 -9.05364 0
      vertex -32.4271 -8.76336 4
    endloop
  endfacet
  facet normal -0.770513 -0.637425 0
    outer loop
      vertex -32.4271 -8.76336 4
      vertex -32.1869 -9.05364 0
      vertex -32.1869 -9.05364 4
    endloop
  endfacet
  facet normal -0.684548 -0.728968 0
    outer loop
      vertex -32.1869 -9.05364 4
      vertex -32.1869 -9.05364 0
      vertex -31.9123 -9.31154 0
    endloop
  endfacet
  facet normal -0.684548 -0.728968 0
    outer loop
      vertex -31.9123 -9.31154 4
      vertex -32.1869 -9.05364 4
      vertex -31.9123 -9.31154 0
    endloop
  endfacet
  facet normal -0.587785 -0.809017 0
    outer loop
      vertex -31.9123 -9.31154 4
      vertex -31.9123 -9.31154 0
      vertex -31.6075 -9.53298 0
    endloop
  endfacet
  facet normal -0.587785 -0.809017 0
    outer loop
      vertex -31.6075 -9.53298 4
      vertex -31.9123 -9.31154 4
      vertex -31.6075 -9.53298 0
    endloop
  endfacet
  facet normal -0.481753 -0.876307 0
    outer loop
      vertex -31.6075 -9.53298 4
      vertex -31.6075 -9.53298 0
      vertex -31.2773 -9.71448 0
    endloop
  endfacet
  facet normal -0.481753 -0.876307 0
    outer loop
      vertex -31.2773 -9.71448 4
      vertex -31.6075 -9.53298 4
      vertex -31.2773 -9.71448 0
    endloop
  endfacet
  facet normal -0.368126 -0.929776 0
    outer loop
      vertex -31.2773 -9.71448 4
      vertex -31.2773 -9.71448 0
      vertex -30.9271 -9.85317 0
    endloop
  endfacet
  facet normal -0.368126 -0.929776 0
    outer loop
      vertex -30.9271 -9.85317 4
      vertex -31.2773 -9.71448 4
      vertex -30.9271 -9.85317 0
    endloop
  endfacet
  facet normal -0.248689 -0.968583 0
    outer loop
      vertex -30.9271 -9.85317 4
      vertex -30.9271 -9.85317 0
      vertex -30.5621 -9.94686 0
    endloop
  endfacet
  facet normal -0.248689 -0.968583 0
    outer loop
      vertex -30.5621 -9.94686 4
      vertex -30.9271 -9.85317 4
      vertex -30.5621 -9.94686 0
    endloop
  endfacet
  facet normal -0.125332 -0.992115 0
    outer loop
      vertex -30.5621 -9.94686 4
      vertex -30.5621 -9.94686 0
      vertex -30.1884 -9.99408 0
    endloop
  endfacet
  facet normal -0.125332 -0.992115 0
    outer loop
      vertex -30.1884 -9.99408 4
      vertex -30.5621 -9.94686 4
      vertex -30.1884 -9.99408 0
    endloop
  endfacet
  facet normal 0 -1 0
    outer loop
      vertex -30.1884 -9.99408 4
      vertex -30.1884 -9.99408 0
      vertex -30 -9.99408 0
    endloop
  endfacet
  facet normal 0 -1 0
    outer loop
      vertex -30 -9.99408 4
      vertex -30.1884 -9.99408 4
      vertex -30 -9.99408 0
    endloop
  endfacet
  facet normal -1 0 0
    outer loop
      vertex -30 -10 0
      vertex -30 -10 4
      vertex -30 -9.99408 0
    endloop
  endfacet
  facet normal -1 0 0
    outer loop
      vertex -30 -9.99408 0
      vertex -30 -10 4
      vertex -30 -9.99408 4
    endloop
  endfacet
  facet normal 0 -1 0
    outer loop
      vertex -30 -10 4
      vertex -30 -10 0
      vertex -2 -10 0
    endloop
  endfacet
  facet normal 0 -1 0
    outer loop
      vertex -2 -10 4
      vertex -30 -10 4
      vertex -2 -10 0
    endloop
  endfacet
  facet normal 0.686624 -0.727013 0
    outer loop
      vertex -2 -10 4
      vertex -2 -10 0
      vertex 7 -1.5 0
    endloop
  endfacet
  facet normal 0.686624 -0.727013 0
    outer loop
      vertex 7 -1.5 4
      vertex -2 -10 4
      vertex 7 -1.5 0
    endloop
  endfacet
  facet normal 0 -1 0
    outer loop
      vertex 7 -1.5 4
      vertex 7 -1.5 0
      vertex 40 -1.5 0
    endloop
  endfacet
  facet normal 0 -1 0
    outer loop
      vertex 40 -1.5 4
      vertex 7 -1.5 4
      vertex 40 -1.5 0
    endloop
  endfacet
  facet normal 1 0 0
    outer loop
      vertex 40 -1.5 4
      vertex 40 -1.5 0
      vertex 40 1.5 0
    endloop
  endfacet
  facet normal 1 0 0
    outer loop
      vertex 40 1.5 4
      vertex 40 -1.5 4
      vertex 40 1.5 0
    endloop
  endfacet
  facet normal 0 1 0
    outer loop
      vertex 7 1.5 0
      vertex 7 1.5 4
      vertex 40 1.5 0
    endloop
  endfacet
  facet normal 0 1 0
    outer loop
      vertex 40 1.5 0
      vertex 7 1.5 4
      vertex 40 1.5 4
    endloop
  endfacet
  facet normal 0.686624 0.727013 0
    outer loop
      vertex -2 10 0
      vertex -2 10 4
      vertex 7 1.5 0
    endloop
  endfacet
  facet normal 0.686624 0.727013 0
    outer loop
      vertex 7 1.5 0
      vertex -2 10 4
      vertex 7 1.5 4
    endloop
  endfacet
  facet normal 0 1 0
    outer loop
      vertex -30 10 0
      vertex -30 10 4
      vertex -2 10 0
    endloop
  endfacet
  facet normal 0 1 0
    outer loop
      vertex -2 10 0
      vertex -30 10 4
      vertex -2 10 4
    endloop
  endfacet
  facet normal -1 0 0
    outer loop
      vertex -30 9.99408 0
      vertex -30 9.99408 4
      vertex -30 10 0
    endloop
  endfacet
  facet normal -1 0 0
    outer loop
      vertex -30 10 0
      vertex -30 9.99408 4
      vertex -30 10 4
    endloop
  endfacet
  facet normal 0 1 0
    outer loop
      vertex -30.1884 9.99408 0
      vertex -30.1884 9.99408 4
      vertex -30 9.99408 0
    endloop
  endfacet
  facet normal 0 1 0
    outer loop
      vertex -30 9.99408 0
      vertex -30.1884 9.99408 4
      vertex -30 9.99408 4
    endloop
  endfacet
  facet normal -0.125332 0.992115 0
    outer loop
      vertex -30.5621 9.94686 0
      vertex -30.5621 9.94686 4
      vertex -30.1884 9.99408 0
    endloop
  endfacet
  facet normal -0.125332 0.992115 0
    outer loop
      vertex -30.1884 9.99408 0
      vertex -30.5621 9.94686 4
      vertex -30.1884 9.99408 4
    endloop
  endfacet
  facet normal -0.248689 0.968583 0
    outer loop
      vertex -30.9271 9.85317 0
      vertex -30.9271 9.85317 4
      vertex -30.5621 9.94686 0
    endloop
  endfacet
  facet normal -0.248689 0.968583 0
    outer loop
      vertex -30.5621 9.94686 0
      vertex -30.9271 9.85317 4
      vertex -30.5621 9.94686 4
    endloop
  endfacet
  facet normal -0.368126 0.929776 0
    outer loop
      vertex -31.2773 9.71448 0
      vertex -31.2773 9.71448 4
      vertex -30.9271 9.85317 0
    endloop
  endfacet
  facet normal -0.368126 0.929776 0
    outer loop
      vertex -30.9271 9.85317 0
      vertex -31.2773 9.71448 4
      vertex -30.9271 9.85317 4
    endloop
  endfacet
  facet normal -0.481753 0.876307 0
    outer loop
      vertex -31.6075 9.53298 0
      vertex -31.6075 9.53298 4
      vertex -31.2773 9.71448 0
    endloop
  endfacet
  facet normal -0.481753 0.876307 0
    outer loop
      vertex -31.2773 9.71448 0
      vertex -31.6075 9.53298 4
      vertex -31.2773 9.71448 4
    endloop
  endfacet
  facet normal -0.587785 0.809017 0
    outer loop
      vertex -31.9123 9.31154 0
      vertex -31.9123 9.31154 4
      vertex -31.6075 9.53298 0
    endloop
  endfacet
  facet normal -0.587785 0.809017 0
    outer loop
      vertex -31.6075 9.53298 0
      vertex -31.9123 9.31154 4
      vertex -31.6075 9.53298 4
    endloop
  endfacet
  facet normal -0.684548 0.728968 0
    outer loop
      vertex -32.1869 9.05364 0
      vertex -32.1869 9.05364 4
      vertex -31.9123 9.31154 0
    endloop
  endfacet
  facet normal -0.684548 0.728968 0
    outer loop
      vertex -31.9123 9.31154 0
      vertex -32.1869 9.05364 4
      vertex -31.9123 9.31154 4
    endloop
  endfacet
  facet normal -0.770513 0.637425 0
    outer loop
      vertex -32.4271 8.76336 0
      vertex -32.4271 8.76336 4
      vertex -32.1869 9.05364 0
    endloop
  endfacet
  facet normal -0.770513 0.637425 0
    outer loop
      vertex -32.1869 9.05364 0
      vertex -32.4271 8.76336 4
      vertex -32.1869 9.05364 4
    endloop
  endfacet
  facet normal -0.844328 0.535826 0
    outer loop
      vertex -32.6289 8.44526 0
      vertex -32.6289 8.44526 4
      vertex -32.4271 8.76336 0
    endloop
  endfacet
  facet normal -0.844328 0.535826 0
    outer loop
      vertex -32.4271 8.76336 0
      vertex -32.6289 8.44526 4
      vertex -32.4271 8.76336 4
    endloop
  endfacet
  facet normal -0.904827 0.425779 0
    outer loop
      vertex -32.7893 8.10437 0
      vertex -32.7893 8.10437 4
      vertex -32.6289 8.44526 0
    endloop
  endfacet
  facet normal -0.904827 0.425779 0
    outer loop
      vertex -32.6289 8.44526 0
      vertex -32.7893 8.10437 4
      vertex -32.6289 8.44526 4
    endloop
  endfacet
  facet normal -0.951057 0.309017 0
    outer loop
      vertex -32.9057 7.74607 0
      vertex -32.9057 7.74607 4
      vertex -32.7893 8.10437 0
    endloop
  endfacet
  facet normal -0.951057 0.309017 0
    outer loop
      vertex -32.7893 8.10437 0
      vertex -32.9057 7.74607 4
      vertex -32.7893 8.10437 4
    endloop
  endfacet
  facet normal -0.982287 0.187382 0
    outer loop
      vertex -32.9763 7.376 0
      vertex -32.9763 7.376 4
      vertex -32.9057 7.74607 0
    endloop
  endfacet
  facet normal -0.982287 0.187382 0
    outer loop
      vertex -32.9057 7.74607 0
      vertex -32.9763 7.376 4
      vertex -32.9057 7.74607 4
    endloop
  endfacet
  facet normal 0.987689 -0.156433 0
    outer loop
      vertex -31.9511 0.309017 0
      vertex -31.9511 0.309017 4
      vertex -32 0 4
    endloop
  endfacet
  facet normal 0.987689 -0.156433 0
    outer loop
      vertex -32 0 0
      vertex -31.9511 0.309017 0
      vertex -32 0 4
    endloop
  endfacet
  facet normal 0.987689 0.156433 0
    outer loop
      vertex -32 0 4
      vertex -31.9511 -0.309017 4
      vertex -31.9511 -0.309017 0
    endloop
  endfacet
  facet normal 0.987689 0.156433 0
    outer loop
      vertex -32 0 0
      vertex -32 0 4
      vertex -31.9511 -0.309017 0
    endloop
  endfacet
  facet normal 0.891006 -0.453992 0
    outer loop
      vertex -31.809 0.587785 0
      vertex -31.809 0.587785 4
      vertex -31.9511 0.309017 4
    endloop
  endfacet
  facet normal 0.891006 -0.453992 0
    outer loop
      vertex -31.9511 0.309017 0
      vertex -31.809 0.587785 0
      vertex -31.9511 0.309017 4
    endloop
  endfacet
  facet normal 0.707107 -0.707107 0
    outer loop
      vertex -31.5878 0.809017 0
      vertex -31.5878 0.809017 4
      vertex -31.809 0.587785 4
    endloop
  endfacet
  facet normal 0.707107 -0.707107 0
    outer loop
      vertex -31.809 0.587785 0
      vertex -31.5878 0.809017 0
      vertex -31.809 0.587785 4
    endloop
  endfacet
  facet normal 0.453992 -0.891006 0
    outer loop
      vertex -31.309 0.951057 0
      vertex -31.309 0.951057 4
      vertex -31.5878 0.809017 4
    endloop
  endfacet
  facet normal 0.453992 -0.891006 0
    outer loop
      vertex -31.5878 0.809017 0
      vertex -31.309 0.951057 0
      vertex -31.5878 0.809017 4
    endloop
  endfacet
  facet normal 0.156433 -0.987689 0
    outer loop
      vertex -31 1 0
      vertex -31 1 4
      vertex -31.309 0.951057 4
    endloop
  endfacet
  facet normal 0.156433 -0.987689 0
    outer loop
      vertex -31.309 0.951057 0
      vertex -31 1 0
      vertex -31.309 0.951057 4
    endloop
  endfacet
  facet normal -0.156433 -0.987689 0
    outer loop
      vertex -30.691 0.951057 0
      vertex -30.691 0.951057 4
      vertex -31 1 4
    endloop
  endfacet
  facet normal -0.156433 -0.987689 0
    outer loop
      vertex -31 1 0
      vertex -30.691 0.951057 0
      vertex -31 1 4
    endloop
  endfacet
  facet normal -0.453992 -0.891006 0
    outer loop
      vertex -30.4122 0.809017 0
      vertex -30.4122 0.809017 4
      vertex -30.691 0.951057 4
    endloop
  endfacet
  facet normal -0.453992 -0.891006 0
    outer loop
      vertex -30.691 0.951057 0
      vertex -30.4122 0.809017 0
      vertex -30.691 0.951057 4
    endloop
  endfacet
  facet normal -0.707107 -0.707107 0
    outer loop
      vertex -30.191 0.587785 0
      vertex -30.191 0.587785 4
      vertex -30.4122 0.809017 4
    endloop
  endfacet
  facet normal -0.707107 -0.707107 0
    outer loop
      vertex -30.4122 0.809017 0
      vertex -30.191 0.587785 0
      vertex -30.4122 0.809017 4
    endloop
  endfacet
  facet normal -0.891006 -0.453992 0
    outer loop
      vertex -30.0489 0.309017 4
      vertex -30.191 0.587785 4
      vertex -30.0489 0.309017 0
    endloop
  endfacet
  facet normal -0.891006 -0.453992 0
    outer loop
      vertex -30.0489 0.309017 0
      vertex -30.191 0.587785 4
      vertex -30.191 0.587785 0
    endloop
  endfacet
  facet normal -0.987689 -0.156433 0
    outer loop
      vertex -30 0 4
      vertex -30.0489 0.309017 4
      vertex -30 0 0
    endloop
  endfacet
  facet normal -0.987689 -0.156433 0
    outer loop
      vertex -30 0 0
      vertex -30.0489 0.309017 4
      vertex -30.0489 0.309017 0
    endloop
  endfacet
  facet normal -0.987689 0.156433 0
    outer loop
      vertex -30 0 4
      vertex -30 0 0
      vertex -30.0489 -0.309017 4
    endloop
  endfacet
  facet normal -0.987689 0.156433 0
    outer loop
      vertex -30.0489 -0.309017 4
      vertex -30 0 0
      vertex -30.0489 -0.309017 0
    endloop
  endfacet
  facet normal -0.891006 0.453992 0
    outer loop
      vertex -30.0489 -0.309017 4
      vertex -30.0489 -0.309017 0
      vertex -30.191 -0.587785 4
    endloop
  endfacet
  facet normal -0.891006 0.453992 0
    outer loop
      vertex -30.191 -0.587785 4
      vertex -30.0489 -0.309017 0
      vertex -30.191 -0.587785 0
    endloop
  endfacet
  facet normal -0.707107 0.707107 0
    outer loop
      vertex -30.191 -0.587785 4
      vertex -30.191 -0.587785 0
      vertex -30.4122 -0.809017 4
    endloop
  endfacet
  facet normal -0.707107 0.707107 0
    outer loop
      vertex -30.4122 -0.809017 4
      vertex -30.191 -0.587785 0
      vertex -30.4122 -0.809017 0
    endloop
  endfacet
  facet normal -0.453992 0.891006 0
    outer loop
      vertex -30.4122 -0.809017 4
      vertex -30.4122 -0.809017 0
      vertex -30.691 -0.951057 4
    endloop
  endfacet
  facet normal -0.453992 0.891006 0
    outer loop
      vertex -30.691 -0.951057 4
      vertex -30.4122 -0.809017 0
      vertex -30.691 -0.951057 0
    endloop
  endfacet
  facet normal -0.156433 0.987689 0
    outer loop
      vertex -30.691 -0.951057 4
      vertex -30.691 -0.951057 0
      vertex -31 -1 4
    endloop
  endfacet
  facet normal -0.156433 0.987689 0
    outer loop
      vertex -31 -1 4
      vertex -30.691 -0.951057 0
      vertex -31 -1 0
    endloop
  endfacet
  facet normal 0.156433 0.987689 0
    outer loop
      vertex -31 -1 4
      vertex -31 -1 0
      vertex -31.309 -0.951057 4
    endloop
  endfacet
  facet normal 0.156433 0.987689 0
    outer loop
      vertex -31.309 -0.951057 4
      vertex -31 -1 0
      vertex -31.309 -0.951057 0
    endloop
  endfacet
  facet normal 0.453992 0.891006 0
    outer loop
      vertex -31.309 -0.951057 4
      vertex -31.309 -0.951057 0
      vertex -31.5878 -0.809017 4
    endloop
  endfacet
  facet normal 0.453992 0.891006 0
    outer loop
      vertex -31.5878 -0.809017 4
      vertex -31.309 -0.951057 0
      vertex -31.5878 -0.809017 0
    endloop
  endfacet
  facet normal 0.707107 0.707107 0
    outer loop
      vertex -31.5878 -0.809017 4
      vertex -31.5878 -0.809017 0
      vertex -31.809 -0.587785 4
    endloop
  endfacet
  facet normal 0.707107 0.707107 0
    outer loop
      vertex -31.809 -0.587785 4
      vertex -31.5878 -0.809017 0
      vertex -31.809 -0.587785 0
    endloop
  endfacet
  facet normal 0.891006 0.453992 0
    outer loop
      vertex -31.9511 -0.309017 4
      vertex -31.809 -0.587785 4
      vertex -31.809 -0.587785 0
    endloop
  endfacet
  facet normal 0.891006 0.453992 0
    outer loop
      vertex -31.9511 -0.309017 0
      vertex -31.9511 -0.309017 4
      vertex -31.809 -0.587785 0
    endloop
  endfacet
  facet normal 1 0 0
    outer loop
      vertex -28.5 6.25 0
      vertex -28.5 6.25 4
      vertex -28.5 -6.25 4
    endloop
  endfacet
  facet normal 1 0 0
    outer loop
      vertex -28.5 -6.25 0
      vertex -28.5 6.25 0
      vertex -28.5 -6.25 4
    endloop
  endfacet
  facet normal 0 -1 0
    outer loop
      vertex -5.5 6.25 0
      vertex -5.5 6.25 4
      vertex -28.5 6.25 4
    endloop
  endfacet
  facet normal 0 -1 0
    outer loop
      vertex -28.5 6.25 0
      vertex -5.5 6.25 0
      vertex -28.5 6.25 4
    endloop
  endfacet
  facet normal -1 0 0
    outer loop
      vertex -5.5 6.25 4
      vertex -5.5 6.25 0
      vertex -5.5 -6.25 4
    endloop
  endfacet
  facet normal -1 0 0
    outer loop
      vertex -5.5 -6.25 4
      vertex -5.5 6.25 0
      vertex -5.5 -6.25 0
    endloop
  endfacet
  facet normal 0 1 0
    outer loop
      vertex -5.5 -6.25 4
      vertex -5.5 -6.25 0
      vertex -28.5 -6.25 4
    endloop
  endfacet
  facet normal 0 1 0
    outer loop
      vertex -28.5 -6.25 4
      vertex -5.5 -6.25 0
      vertex -28.5 -6.25 0
    endloop
  endfacet
  facet normal 0.987689 0.156433 0
    outer loop
      vertex -4 0 4
      vertex -3.95106 -0.309017 4
      vertex -3.95106 -0.309017 0
    endloop
  endfacet
  facet normal 0.987689 0.156433 0
    outer loop
      vertex -4 0 0
      vertex -4 0 4
      vertex -3.95106 -0.309017 0
    endloop
  endfacet
  facet normal 0.987689 -0.156433 0
    outer loop
      vertex -3.95106 0.309017 0
      vertex -3.95106 0.309017 4
      vertex -4 0 4
    endloop
  endfacet
  facet normal 0.987689 -0.156433 0
    outer loop
      vertex -4 0 0
      vertex -3.95106 0.309017 0
      vertex -4 0 4
    endloop
  endfacet
  facet normal 0.891006 -0.453992 0
    outer loop
      vertex -3.80902 0.587785 0
      vertex -3.80902 0.587785 4
      vertex -3.95106 0.309017 4
    endloop
  endfacet
  facet normal 0.891006 -0.453992 0
    outer loop
      vertex -3.95106 0.309017 0
      vertex -3.80902 0.587785 0
      vertex -3.95106 0.309017 4
    endloop
  endfacet
  facet normal 0.707107 -0.707107 0
    outer loop
      vertex -3.58778 0.809017 0
      vertex -3.58778 0.809017 4
      vertex -3.80902 0.587785 4
    endloop
  endfacet
  facet normal 0.707107 -0.707107 0
    outer loop
      vertex -3.80902 0.587785 0
      vertex -3.58778 0.809017 0
      vertex -3.80902 0.587785 4
    endloop
  endfacet
  facet normal 0.453992 -0.891006 0
    outer loop
      vertex -3.30902 0.951057 0
      vertex -3.30902 0.951057 4
      vertex -3.58778 0.809017 4
    endloop
  endfacet
  facet normal 0.453992 -0.891006 0
    outer loop
      vertex -3.58778 0.809017 0
      vertex -3.30902 0.951057 0
      vertex -3.58778 0.809017 4
    endloop
  endfacet
  facet normal 0.156433 -0.987689 0
    outer loop
      vertex -3 1 0
      vertex -3 1 4
      vertex -3.30902 0.951057 4
    endloop
  endfacet
  facet normal 0.156433 -0.987689 0
    outer loop
      vertex -3.30902 0.951057 0
      vertex -3 1 0
      vertex -3.30902 0.951057 4
    endloop
  endfacet
  facet normal -0.156433 -0.987689 0
    outer loop
      vertex -2.69098 0.951057 0
      vertex -2.69098 0.951057 4
      vertex -3 1 4
    endloop
  endfacet
  facet normal -0.156433 -0.987689 0
    outer loop
      vertex -3 1 0
      vertex -2.69098 0.951057 0
      vertex -3 1 4
    endloop
  endfacet
  facet normal -0.453992 -0.891006 0
    outer loop
      vertex -2.41221 0.809017 0
      vertex -2.41221 0.809017 4
      vertex -2.69098 0.951057 4
    endloop
  endfacet
  facet normal -0.453992 -0.891006 0
    outer loop
      vertex -2.69098 0.951057 0
      vertex -2.41221 0.809017 0
      vertex -2.69098 0.951057 4
    endloop
  endfacet
  facet normal -0.707107 -0.707107 0
    outer loop
      vertex -2.19098 0.587785 0
      vertex -2.19098 0.587785 4
      vertex -2.41221 0.809017 4
    endloop
  endfacet
  facet normal -0.707107 -0.707107 0
    outer loop
      vertex -2.41221 0.809017 0
      vertex -2.19098 0.587785 0
      vertex -2.41221 0.809017 4
    endloop
  endfacet
  facet normal -0.891006 -0.453992 0
    outer loop
      vertex -2.04894 0.309017 4
      vertex -2.19098 0.587785 4
      vertex -2.04894 0.309017 0
    endloop
  endfacet
  facet normal -0.891006 -0.453992 0
    outer loop
      vertex -2.04894 0.309017 0
      vertex -2.19098 0.587785 4
      vertex -2.19098 0.587785 0
    endloop
  endfacet
  facet normal -0.987689 -0.156433 0
    outer loop
      vertex -2 0 4
      vertex -2.04894 0.309017 4
      vertex -2 0 0
    endloop
  endfacet
  facet normal -0.987689 -0.156433 0
    outer loop
      vertex -2 0 0
      vertex -2.04894 0.309017 4
      vertex -2.04894 0.309017 0
    endloop
  endfacet
  facet normal -0.987689 0.156433 0
    outer loop
      vertex -2 0 4
      vertex -2 0 0
      vertex -2.04894 -0.309017 4
    endloop
  endfacet
  facet normal -0.987689 0.156433 0
    outer loop
      vertex -2.04894 -0.309017 4
      vertex -2 0 0
      vertex -2.04894 -0.309017 0
    endloop
  endfacet
  facet normal -0.891006 0.453992 0
    outer loop
      vertex -2.04894 -0.309017 4
      vertex -2.04894 -0.309017 0
      vertex -2.19098 -0.587785 4
    endloop
  endfacet
  facet normal -0.891006 0.453992 0
    outer loop
      vertex -2.19098 -0.587785 4
      vertex -2.04894 -0.309017 0
      vertex -2.19098 -0.587785 0
    endloop
  endfacet
  facet normal -0.707107 0.707107 0
    outer loop
      vertex -2.19098 -0.587785 4
      vertex -2.19098 -0.587785 0
      vertex -2.41221 -0.809017 4
    endloop
  endfacet
  facet normal -0.707107 0.707107 0
    outer loop
      vertex -2.41221 -0.809017 4
      vertex -2.19098 -0.587785 0
      vertex -2.41221 -0.809017 0
    endloop
  endfacet
  facet normal -0.453992 0.891006 0
    outer loop
      vertex -2.41221 -0.809017 4
      vertex -2.41221 -0.809017 0
      vertex -2.69098 -0.951057 4
    endloop
  endfacet
  facet normal -0.453992 0.891006 0
    outer loop
      vertex -2.69098 -0.951057 4
      vertex -2.41221 -0.809017 0
      vertex -2.69098 -0.951057 0
    endloop
  endfacet
  facet normal -0.156433 0.987689 0
    outer loop
      vertex -2.69098 -0.951057 4
      vertex -2.69098 -0.951057 0
      vertex -3 -1 4
    endloop
  endfacet
  facet normal -0.156433 0.987689 0
    outer loop
      vertex -3 -1 4
      vertex -2.69098 -0.951057 0
      vertex -3 -1 0
    endloop
  endfacet
  facet normal 0.156433 0.987689 0
    outer loop
      vertex -3 -1 4
      vertex -3 -1 0
      vertex -3.30902 -0.951057 4
    endloop
  endfacet
  facet normal 0.156433 0.987689 0
    outer loop
      vertex -3.30902 -0.951057 4
      vertex -3 -1 0
      vertex -3.30902 -0.951057 0
    endloop
  endfacet
  facet normal 0.453992 0.891006 0
    outer loop
      vertex -3.30902 -0.951057 4
      vertex -3.30902 -0.951057 0
      vertex -3.58778 -0.809017 4
    endloop
  endfacet
  facet normal 0.453992 0.891006 0
    outer loop
      vertex -3.58778 -0.809017 4
      vertex -3.30902 -0.951057 0
      vertex -3.58778 -0.809017 0
    endloop
  endfacet
  facet normal 0.707107 0.707107 0
    outer loop
      vertex -3.58778 -0.809017 4
      vertex -3.58778 -0.809017 0
      vertex -3.80902 -0.587785 4
    endloop
  endfacet
  facet normal 0.707107 0.707107 0
    outer loop
      vertex -3.80902 -0.587785 4
      vertex -3.58778 -0.809017 0
      vertex -3.80902 -0.587785 0
    endloop
  endfacet
  facet normal 0.891006 0.453992 0
    outer loop
      vertex -3.95106 -0.309017 4
      vertex -3.80902 -0.587785 4
      vertex -3.80902 -0.587785 0
    endloop
  endfacet
  facet normal 0.891006 0.453992 0
    outer loop
      vertex -3.95106 -0.309017 0
      vertex -3.95106 -0.309017 4
      vertex -3.80902 -0.587785 0
    endloop
  endfacet
endsolid OpenSCAD_Model
